<svg width="117" height="40" viewBox="0 0 117 40" fill="none" xmlns="http://www.w3.org/2000/svg">
<path d="M83.6138 3.97139H83.4138V4.17139V8.54059V8.74058H83.6138H83.9692H84.1692V8.54059V6.59025H86.5018V8.54059V8.74058H86.7018H87.0493H87.2493V8.54059V4.17139V3.97139H87.0493H86.7018H86.5018V4.17139V5.87327H84.1613V4.17139V3.97139H83.9613H83.6138Z" fill="url(#paint0_linear_503_2)" stroke="#DFC492" stroke-width="0.4"/>
<path d="M90.082 8.80053C90.8422 8.80053 91.4177 8.50362 91.7991 8.0337L90.1294 4.11139V3.91139C90.1292 3.91139 90.1289 3.91139 90.1287 3.91139C89.396 3.91156 88.8198 4.18643 88.4297 4.64075C88.0427 5.0913 87.8522 5.70198 87.8522 6.35596C87.8522 7.02003 88.0515 7.63014 88.4356 8.07756C88.8225 8.52828 89.3862 8.80053 90.082 8.80053ZM90.1057 8.09211C89.6216 8.09211 89.2603 7.8854 89.0149 7.56883C88.7656 7.24716 88.6313 6.80433 88.6313 6.33882C88.6313 5.87311 88.752 5.44045 88.9932 5.12913C89.2291 4.82466 89.5922 4.6198 90.1215 4.6198C90.61 4.6198 90.9666 4.81518 91.2057 5.11691C91.449 5.42403 91.58 5.85465 91.58 6.33026C91.58 6.82021 91.462 7.2638 91.2243 7.57968C90.9926 7.88772 90.6346 8.09211 90.1057 8.09211Z" fill="url(#paint1_linear_503_2)" stroke="#DFC492" stroke-width="0.4"/>
<path d="M93.1543 3.97139H92.9543V4.17139V8.54059V8.74058H93.1543H95.887H96.0501L96.0829 8.58072L96.1461 8.27231L96.1953 8.03217H95.9501H93.7018V4.17139V3.97139H93.5018H93.1543Z" fill="url(#paint2_linear_503_2)" stroke="#DFC492" stroke-width="0.4"/>
<path d="M96.6533 3.97139H96.4533V4.17139V8.54059V8.74058H96.6533H98.1539C98.8435 8.74058 99.4289 8.49235 99.8412 8.057C100.252 7.6227 100.478 7.01632 100.478 6.32172C100.478 5.62105 100.245 5.03006 99.8296 4.6137C99.414 4.19751 98.8315 3.97139 98.1618 3.97139H96.6533ZM98.1065 8.0236H97.2087V4.6798H98.1065C98.6828 4.6798 99.0726 4.88193 99.3214 5.17474C99.5746 5.47265 99.6993 5.88529 99.6993 6.33028C99.6993 6.83532 99.5608 7.25694 99.303 7.54952C99.0486 7.83832 98.6586 8.0236 98.1065 8.0236Z" fill="url(#paint3_linear_503_2)" stroke="#DFC492" stroke-width="0.4"/>
<path d="M101.837 4.17139V3.97139H101.637H101.29H101.09V4.17139V8.54059V8.74058H101.29H101.637H101.837V8.54059V4.17139Z" fill="url(#paint4_linear_503_2)" stroke="#DFC492" stroke-width="0.4"/>
<path d="M102.772 8.54059V8.74058H102.972H103.327H103.527V8.54059V6.51019C103.527 6.37422 103.527 6.24266 103.528 6.11509C103.528 5.78014 103.529 5.47259 103.525 5.18426C103.721 5.47811 103.967 5.84809 104.23 6.2423C104.811 7.11436 105.471 8.10498 105.838 8.65212L105.898 8.74058H106.004H106.486H106.686V8.54059V4.17139V3.97139H106.486H106.131H105.931V4.17139V6.15038C105.931 6.25252 105.931 6.35349 105.93 6.45343C105.93 6.78796 105.929 7.11091 105.935 7.42765C105.399 6.61722 104.487 5.27728 103.9 4.4147C103.811 4.28397 103.73 4.16421 103.658 4.05892L103.599 3.97139H103.493H102.972H102.772V4.17139V8.54059Z" fill="url(#paint5_linear_503_2)" stroke="#DFC492" stroke-width="0.4"/>
<path d="M110.806 8.62426L110.86 8.74054H110.988H111.28H111.296H111.496V8.54054V6.22744V6.02744H111.296H109.487H109.287V6.22744V6.53585V6.73585H109.487H110.753C110.738 7.13407 110.657 7.44983 110.492 7.67018C110.317 7.90519 110.019 8.06639 109.495 8.06639C109 8.06639 108.657 7.86972 108.432 7.57105C108.202 7.26509 108.084 6.83599 108.084 6.36451C108.084 5.83993 108.208 5.40021 108.445 5.09625C108.676 4.79953 109.029 4.61122 109.543 4.61122C109.906 4.61122 110.173 4.69571 110.367 4.83504C110.561 4.97408 110.701 5.18065 110.79 5.4574L110.834 5.59643H110.98H111.328H111.566L111.524 5.36166C111.445 4.91143 111.219 4.53959 110.872 4.28255C110.526 4.02702 110.073 3.89424 109.551 3.89424C108.83 3.89424 108.259 4.16247 107.871 4.62035C107.486 5.07402 107.297 5.69563 107.297 6.38164C107.297 7.03607 107.472 7.6362 107.839 8.07648C108.211 8.52165 108.763 8.78338 109.472 8.78338C109.978 8.78338 110.343 8.66381 110.609 8.49063C110.664 8.45424 110.715 8.41591 110.761 8.37653C110.765 8.42294 110.769 8.46345 110.774 8.49741C110.778 8.53176 110.787 8.58193 110.806 8.62426Z" fill="url(#paint6_linear_503_2)" stroke="#DFC492" stroke-width="0.4"/>
<path d="M104.984 38.7211H58.8848L46.4856 26.322C46.4856 27.1698 46.4856 27.2757 46.4856 31.0909C46.4856 34.906 44.2602 38.7211 36.312 38.7211C28.3638 38.7211 18.3174 38.7211 11.1958 38.7211C1.97583 38.7211 0.810092 31.5148 1.02204 27.9116V2.15949H12.4674C13.3409 2.15949 13.9312 2.15949 13.9312 2.15949C13.9312 2.15949 14.0321 24.9867 13.9323 26.004C13.8325 27.0214 14.8217 27.2757 15.3288 27.2757C20.4156 27.2757 31.4482 27.2757 32.4968 27.2757C33.9146 27.2757 33.7686 26.322 33.7686 26.004C33.7686 19.1156 33.7686 1.84157 33.7686 1.84157L35.0403 1.84156C37.9016 1.84156 43.9422 1.84156 45.2139 1.84156C46.4856 1.84156 47.1215 1.84158 47.1215 1.84158V11.0614L58.2489 1.84156C62.0641 1.84156 68.4484 1.84156 69.7201 1.84156C70.9918 1.84156 72.3487 1.84155 72.8994 1.84155L54.4338 19.3276L71.1299 31.0909" stroke="url(#paint7_linear_503_2)" stroke-width="2"/>
<path d="M77.2305 34.8869C77.2305 34.8869 73.9108 34.6013 70.4136 31.422L70.4136 29.6296C71.3674 30.2655 70.386 29.1113 71.9732 31.1317C73.5605 33.1521 77.2305 34.8869 77.2305 34.8869Z" fill="#E6CFA2"/>
<path fill-rule="evenodd" clip-rule="evenodd" d="M71.8467 10.2391V10.2381C71.8472 10.2285 71.8481 10.2138 71.8496 10.1942C71.853 10.1473 71.8595 10.0728 71.8714 9.97462C71.895 9.77798 71.9398 9.48856 72.0232 9.13759C72.1906 8.43259 72.5092 7.49902 73.1096 6.57157C74.2733 4.77377 76.5928 2.84155 81.4131 2.84155H81.4736H81.5344H81.5954H81.6568H81.7184H81.7803H81.8426H81.9051H81.9679H82.031H82.0944H82.158H82.222H82.2862H82.3507H82.4154H82.4805H82.5458H82.6114H82.6773H82.7434H82.8098H82.8764H82.9434H83.0105H83.078H83.1457H83.2136H83.2819H83.3503H83.419H83.488H83.5572H83.6267H83.6964H83.7663H83.8365H83.907H83.9776H84.0485H84.1197H84.1911H84.2627H84.3345H84.4066H84.4789H84.5514H84.6241H84.6971H84.7703H84.8437H84.9173H84.9911H85.0652H85.1394H85.2139H85.2886H85.3635H85.4386H85.5139H85.5894H85.6651H85.741H85.8171H85.8934H85.9699H86.0466H86.1234H86.2005H86.2777H86.3552H86.4328H86.5106H86.5886H86.6668H86.7451H86.8236H86.9023H86.9812H87.0602H87.1394H87.2188H87.2984H87.3781H87.4579H87.538H87.6182H87.6985H87.779H87.8597H87.9405H88.0215H88.1026H88.1839H88.2653H88.3468H88.4285H88.5104H88.5924H88.6745H88.7568H88.8392H88.9217H89.0044H89.0871H89.1701H89.2531H89.3363H89.4196H89.503H89.5866H89.6702H89.754H89.8379H89.9219H90.006H90.0903H90.1746H90.2591H90.3436H90.4283H90.5131H90.5979H90.6829H90.7679H90.8531H90.9384H91.0237H91.1091H91.1947H91.2803H91.366H91.4518H91.5377H91.6236H91.7096H91.7957H91.8819H91.9682H92.0545H92.1409H92.2274H92.314H92.4006H92.4873H92.574H92.6608H92.7477H92.8346H92.9216H93.0086H93.0957H93.1828H93.27H93.3573H93.4446H93.5319H93.6193H93.7067H93.7941H93.8816H93.9692H94.0568H94.1444H94.232H94.3197H94.4074H94.4951H94.5829H94.6706H94.7584H94.8463H94.9341H95.022H95.1098H95.1977H95.2856H95.3735H95.4615H95.5494H95.6373H95.7253H95.8132H95.9012H95.9891H96.0771H96.165H96.2529H96.3409H96.4288H96.5167H96.6046H96.6925H96.7804H96.8682H96.9561H97.0439H97.1317H97.2195H97.3072H97.3949H97.4826H97.5703H97.6579H97.7455H97.8331H97.9206H98.0081H98.0956H98.183H98.2703H98.3577H98.445H98.5322H98.6194H98.7065H98.7936H98.8806H98.9676H99.0545H99.1414H99.2281H99.3149H99.4015H99.4881H99.5747H99.6611H99.7475H99.8339H99.9201H100.006H100.092H100.178H100.264H100.35H100.436H100.522H100.607H100.693H100.778H100.864H100.949H101.034H101.119H101.204H101.289H101.374H101.458H101.543H101.627H101.711H101.796H101.88H101.964H102.048H102.131H102.215H102.299H102.382H102.465H102.548H102.631H102.714H102.797H102.88H102.962H103.045H103.127H103.209H103.291H103.373H103.454H103.536H103.617H103.699H103.78H103.861H103.941H104.022H104.103H104.183H104.263H104.343H104.423H104.503H104.582H104.661H104.741H104.82H104.899H104.977H105.056H105.134H105.212H105.29H105.368H105.445H105.523H105.6H105.677H105.754H105.831H105.907H105.983H106.059H106.135H106.211H106.286H106.362H106.437H106.512H106.586H106.661H106.735H106.809H106.883H106.956H107.03H107.103H107.176H107.248H107.321H107.393H107.465H107.537H107.609H107.68H107.751H107.822H107.893H107.963H108.033H108.103H108.173H108.242H108.311H108.38H108.449H108.517H108.585H108.653H108.721H108.788H108.856H108.922H108.989H109.055H109.121H109.187H109.253H109.318H109.383H109.448H109.512H109.576H109.64H109.704H109.767H109.83H109.893H109.956H110.018H110.08H110.141H110.203H110.264H110.324H110.385H110.445H110.505H110.564H110.623H110.682H110.741H110.799H110.857H110.915H110.972H111.029H111.086H111.142H111.198H111.254H111.309H111.364H111.419H111.473H111.528H111.581H111.635H111.688H111.74H111.793H111.845H111.897H111.948H111.999H112.05H112.1H112.15H112.2H112.249H112.298H112.346H112.395H112.442H112.49H112.537H112.584H112.63H112.676H112.722H112.767H112.812H112.856H112.9H112.944H112.988H113.031H113.073H113.115H113.157H113.199H113.24H113.28H113.321H113.361H113.4H113.439H113.478H113.516H113.554H113.591H113.628H113.665H113.701H113.737H113.772H113.807H113.842H113.876H113.91H113.943H113.976H114.009H114.041H114.072H114.103H114.13V9.66275H83.3481C83.3214 9.66018 83.289 9.65747 83.2517 9.65504C83.1564 9.64883 83.0262 9.64429 82.8721 9.64927C82.5707 9.659 82.1433 9.70609 81.6987 9.87294C81.2468 10.0425 80.7543 10.3455 80.3838 10.8729C80.0123 11.4017 79.8222 12.0726 79.8318 12.8743C79.8317 13.2099 79.8232 16.9983 79.8147 20.7178L79.803 25.8278L79.7991 27.4986L79.798 27.9655L79.7977 28.0884L79.7976 28.1199L79.7976 28.1278L79.7976 28.1298L79.7976 28.1303C79.7976 28.1305 79.7976 28.1305 80.7976 28.1328L79.7976 28.1305L79.797 28.3892L79.9219 28.6157L80.7976 28.1328C79.9219 28.6157 79.9221 28.6161 79.9223 28.6165L79.9228 28.6173L79.9238 28.6191L79.926 28.6231L79.9313 28.6325L79.9454 28.6566C79.9563 28.6751 79.9704 28.6981 79.9877 28.7252C80.0222 28.7791 80.07 28.8495 80.1316 28.9308C80.254 29.0923 80.4358 29.303 80.6827 29.5137C81.1818 29.9397 81.9595 30.3733 83.0203 30.3733H102.101H102.799C102.817 30.375 102.837 30.3768 102.859 30.3786C102.87 30.3794 102.882 30.3803 102.893 30.3811C102.988 30.3876 103.116 30.3929 103.269 30.3898C103.568 30.3837 103.991 30.3447 104.433 30.1964C104.879 30.0467 105.382 29.7716 105.767 29.2709C106.159 28.7608 106.361 28.1059 106.35 27.3259C106.333 26.1467 106.333 24.4574 106.337 23.0577C106.339 22.3589 106.343 21.7343 106.345 21.2844C106.347 21.0594 106.348 20.8782 106.349 20.7532L106.35 20.6096L106.35 20.5724L106.35 20.563L106.35 20.5606L106.35 20.5601V20.5599L106.358 19.5497L105.348 19.5521L92.2957 19.5841V14.9018H114.096V28.5119V28.5857L114.106 28.6562L114.106 28.657L114.106 28.6572L114.107 28.6578L114.107 28.6588L114.108 28.6696C114.11 28.6825 114.112 28.7044 114.116 28.7347C114.122 28.7954 114.132 28.8896 114.14 29.0124C114.156 29.2585 114.167 29.6168 114.148 30.0493C114.108 30.9202 113.942 32.0579 113.456 33.1792C112.974 34.2898 112.179 35.3855 110.858 36.2118C109.533 37.041 107.609 37.6425 104.803 37.6425H85.116V37.891H74.797C76.7861 38.9876 79.3334 39.6096 82.3974 39.6412V39.6425H82.3974H82.3975H82.3976H82.3976H82.3977H82.3978H82.3978H82.3979H82.398H82.3982H82.3983H82.3984H82.3985H82.3987H82.3988H82.399H82.3992H82.3993H82.3996H82.3997H82.4H82.4001H82.4004H82.4005H82.4009H82.401H82.4014H82.4015H82.402H82.4025H82.4026H82.4031H82.4032H82.4037H82.4039H82.4044H82.4046H82.405H82.4054H82.4057H82.4062H82.4065H82.407H82.4072H82.4078H82.408H82.4088H82.4088H82.4097H82.4097H82.4105H82.4107H82.4114H82.4117H82.4123H82.4128H82.4133H82.4139H82.4143H82.415H82.4153H82.4162H82.4163H82.4174H82.4175H82.4184H82.4187H82.4195H82.42H82.4207H82.4214H82.4218H82.4228H82.423H82.4242H82.4242H82.4254H82.4257H82.4267H82.4272H82.428H82.4288H82.4293H82.4304H82.4306H82.4319H82.4321H82.4333H82.4338H82.4347H82.4355H82.4361H82.4373H82.4375H82.439H82.4392H82.4405H82.441H82.442H82.443H82.4435H82.4449H82.4451H82.4466H82.4469H82.4482H82.449H82.4498H82.4511H82.4514H82.4531H82.4532H82.4548H82.4554H82.4564H82.4577H82.4581H82.4599H82.46H82.4616H82.4623H82.4634H82.4647H82.4652H82.467H82.4671H82.4688H82.4696H82.4706H82.4721H82.4725H82.4743H82.4747H82.4762H82.4773H82.4781H82.48H82.482H82.4827H82.4839H82.4855H82.4859H82.4879H82.4883H82.4899H82.4912H82.4919H82.4939H82.4941H82.4959H82.4971H82.498H82.5001H82.5001H82.5022H82.5032H82.5043H82.5063H82.5064H82.5085H82.5095H82.5106H82.5127H82.5128H82.5149H82.516H82.5171H82.5193H82.5215H82.5227H82.5237H82.5259H82.5261H82.5282H82.5296H82.5304H82.5327H82.5331H82.5349H82.5367H82.5372H82.5395H82.5403H82.5418H82.544H82.5441H82.5464H82.5478H82.5488H82.5511H82.5516H82.5534H82.5554H82.5558H82.5582H82.5593H82.5605H82.5629H82.5633H82.5653H82.5673H82.5677H82.5701H82.5714H82.5725H82.5749H82.5755H82.5773H82.5797H82.5797H82.5822H82.5839H82.5846H82.587H82.5882H82.5895H82.5919H82.5926H82.5944H82.5968H82.597H82.5993H82.6014H82.6018H82.6043H82.606H82.6067H82.6092H82.6105H82.6117H82.6142H82.6152H82.6167H82.6192H82.6199H82.6217H82.6242H82.6246H82.6267H82.6292H82.6294H82.6317H82.6342H82.6343H82.6367H82.6392H82.6392H82.6417H82.6442H82.6467H82.6492H82.6517H82.6542H82.6567H82.6589H82.6592H82.6617H82.6637H82.6642H82.6667H82.6685H82.6692H82.6717H82.6732H82.6742H82.6766H82.6778H82.6791H82.6816H82.6824H82.6841H82.6866H82.6869H82.689H82.6915H82.694H82.6958H82.6964H82.6989H82.7001H82.7013H82.7038H82.7044H82.7062H82.7086H82.711H82.7128H82.7135H82.7159H82.717H82.7183H82.7207H82.721H82.7231H82.725H82.7254H82.7278H82.729H82.7302H82.7326H82.7329H82.7349H82.7368H82.7372H82.7396H82.7406H82.7419H82.7442H82.7465H82.748H82.7488H82.7511H82.7517H82.7534H82.7552H82.7557H82.7579H82.7588H82.7602H82.7624H82.7646H82.7657H82.7668H82.769H82.7712H82.7724H82.7734H82.7756H82.7777H82.7789H82.7799H82.782H82.7841H82.7852H82.7862H82.7883H82.7903H82.7913H82.7924H82.7942H82.7944H82.7965H82.7972H82.7985H82.8H82.8005H82.8025H82.8028H82.8044H82.8056H82.8064H82.8083H82.8102H82.811H82.8121H82.8136H82.814H82.8159H82.8162H82.8177H82.8187H82.8196H82.8212H82.8214H82.8232H82.8236H82.825H82.826H82.8267H82.8285H82.8302H82.8307H82.8319H82.8329H82.8336H82.8353H82.8369H82.8372H82.8385H82.8394H82.8401H82.8414H82.8417H82.8433H82.8448H82.8454H82.8464H82.8473H82.8479H82.8493H82.8508H82.851H82.8522H82.8528H82.8536H82.8546H82.855H82.8564H82.8578H82.8591H82.8595H82.8604H82.8611H82.8617H82.8626H82.8629H82.8641H82.8653H82.8655H82.8665H82.8669H82.8677H82.8683H82.8688H82.8696H82.8699H82.871H82.872H82.8731H82.8733H82.8741H82.8745H82.875H82.8756H82.876H82.8766H82.8769H82.8778H82.8787H82.8795H82.8803H82.8811H82.8814H82.8819H82.8822H82.8826H82.883H82.8833H82.8837H82.884H82.8846H82.8852H82.8858H82.8864H82.8869H82.8874H82.8878H82.8883H82.8887H82.889H82.8894H82.8897H82.8899H82.8902H82.8904H82.8906H82.8908H104.803C107.896 39.6425 110.208 38.9776 111.919 37.9073C113.634 36.8342 114.674 35.3972 115.291 33.9751C115.903 32.5638 116.099 31.1688 116.146 30.1403C116.169 29.623 116.155 29.1899 116.135 28.882C116.125 28.7278 116.114 28.6043 116.104 28.5166C116.101 28.4901 116.098 28.4668 116.096 28.4469V13.9018V12.9018H115.096H91.2957H90.2957V13.9018V20.5866V21.589L91.2981 21.5866L104.344 21.5546C104.341 21.9701 104.339 22.4866 104.337 23.0516C104.333 24.4516 104.333 26.1563 104.35 27.3547C104.356 27.7636 104.254 27.9572 104.182 28.0512C104.102 28.1545 103.979 28.2391 103.796 28.3005C103.61 28.3631 103.403 28.3866 103.228 28.3902C103.144 28.3919 103.076 28.3889 103.031 28.3859C103.01 28.3843 102.994 28.3829 102.987 28.3821L102.983 28.3817L102.981 28.3815L102.981 28.3815L102.922 28.3733H102.854H102.101H83.0203C82.5423 28.3733 82.2087 28.1867 81.9811 27.9925C81.9079 27.9299 81.8469 27.8674 81.7984 27.8119L81.7991 27.5033L81.8029 25.8324L81.8147 20.7224C81.8232 16.9807 81.8318 13.1625 81.8318 12.868H81.8319L81.8317 12.8546C81.8254 12.3846 81.9345 12.1447 82.0203 12.0226C82.1083 11.8974 82.2335 11.8084 82.4014 11.7454C82.5765 11.6797 82.771 11.6536 82.9366 11.6482C83.0161 11.6457 83.0806 11.6481 83.1217 11.6508C83.142 11.6521 83.156 11.6535 83.1624 11.6541L83.1641 11.6543L83.2252 11.6627H83.2939H115.13H116.13V10.6627V1.84155V0.841553H115.13V1.84155C115.13 0.841553 115.13 0.841553 115.13 0.841553H115.129H115.128H115.126H115.123H115.12H115.117H115.113H115.109H115.103H115.098H115.092H115.085H115.078H115.071H115.063H115.054H115.045H115.035H115.025H115.014H115.003H114.992H114.979H114.967H114.954H114.94H114.926H114.911H114.896H114.881H114.864H114.848H114.831H114.813H114.795H114.777H114.758H114.738H114.719H114.698H114.677H114.656H114.634H114.612H114.589H114.566H114.543H114.518H114.494H114.469H114.443H114.418H114.391H114.364H114.337H114.31H114.281H114.253H114.224H114.194H114.164H114.134H114.103H114.072H114.041H114.009H113.976H113.943H113.91H113.876H113.842H113.807H113.772H113.737H113.701H113.665H113.628H113.591H113.554H113.516H113.478H113.439H113.4H113.361H113.321H113.28H113.24H113.199H113.157H113.115H113.073H113.031H112.988H112.944H112.9H112.856H112.812H112.767H112.722H112.676H112.63H112.584H112.537H112.49H112.442H112.395H112.346H112.298H112.249H112.2H112.15H112.1H112.05H111.999H111.948H111.897H111.845H111.793H111.74H111.688H111.635H111.581H111.528H111.473H111.419H111.364H111.309H111.254H111.198H111.142H111.086H111.029H110.972H110.915H110.857H110.799H110.741H110.682H110.623H110.564H110.505H110.445H110.385H110.324H110.264H110.203H110.141H110.08H110.018H109.956H109.893H109.83H109.767H109.704H109.64H109.576H109.512H109.448H109.383H109.318H109.253H109.187H109.121H109.055H108.989H108.922H108.856H108.788H108.721H108.653H108.585H108.517H108.449H108.38H108.311H108.242H108.173H108.103H108.033H107.963H107.893H107.822H107.751H107.68H107.609H107.537H107.465H107.393H107.321H107.248H107.176H107.103H107.03H106.956H106.883H106.809H106.735H106.661H106.586H106.512H106.437H106.362H106.286H106.211H106.135H106.059H105.983H105.907H105.831H105.754H105.677H105.6H105.523H105.445H105.368H105.29H105.212H105.134H105.056H104.977H104.899H104.82H104.741H104.661H104.582H104.503H104.423H104.343H104.263H104.183H104.103H104.022H103.941H103.861H103.78H103.699H103.617H103.536H103.454H103.373H103.291H103.209H103.127H103.045H102.962H102.88H102.797H102.714H102.631H102.548H102.465H102.382H102.299H102.215H102.131H102.048H101.964H101.88H101.796H101.711H101.627H101.543H101.458H101.374H101.289H101.204H101.119H101.034H100.949H100.864H100.778H100.693H100.607H100.522H100.436H100.35H100.264H100.178H100.092H100.006H99.9201H99.8339H99.7475H99.6611H99.5747H99.4881H99.4015H99.3149H99.2281H99.1414H99.0545H98.9676H98.8806H98.7936H98.7065H98.6194H98.5322H98.445H98.3577H98.2703H98.183H98.0956H98.0081H97.9206H97.8331H97.7455H97.6579H97.5703H97.4826H97.3949H97.3072H97.2195H97.1317H97.0439H96.9561H96.8682H96.7804H96.6925H96.6046H96.5167H96.4288H96.3409H96.2529H96.165H96.0771H95.9891H95.9012H95.8132H95.7253H95.6373H95.5494H95.4615H95.3735H95.2856H95.1977H95.1098H95.022H94.9341H94.8463H94.7584H94.6706H94.5829H94.4951H94.4074H94.3197H94.232H94.1444H94.0568H93.9692H93.8816H93.7941H93.7067H93.6193H93.5319H93.4446H93.3573H93.27H93.1828H93.0957H93.0086H92.9216H92.8346H92.7477H92.6608H92.574H92.4873H92.4006H92.314H92.2274H92.1409H92.0545H91.9682H91.8819H91.7957H91.7096H91.6236H91.5377H91.4518H91.366H91.2803H91.1947H91.1091H91.0237H90.9384H90.8531H90.7679H90.6829H90.5979H90.5131H90.4283H90.3436H90.2591H90.1746H90.0903H90.006H89.9219H89.8379H89.754H89.6702H89.5866H89.503H89.4196H89.3363H89.2531H89.1701H89.0871H89.0044H88.9217H88.8392H88.7568H88.6745H88.5924H88.5104H88.4285H88.3468H88.2653H88.1839H88.1026H88.0215H87.9405H87.8597H87.779H87.6985H87.6182H87.538H87.4579H87.3781H87.2984H87.2188H87.1394H87.0602H86.9812H86.9023H86.8236H86.7451H86.6668H86.5886H86.5106H86.4328H86.3552H86.2777H86.2005H86.1234H86.0466H85.9699H85.8934H85.8171H85.741H85.6651H85.5894H85.5139H85.4386H85.3635H85.2886H85.2139H85.1394H85.0652H84.9911H84.9173H84.8437H84.7703H84.6971H84.6241H84.5514H84.4789H84.4066H84.3345H84.2627H84.1911H84.1197H84.0485H83.9776H83.907H83.8365H83.7663H83.6964H83.6267H83.5572H83.488H83.419H83.3503H83.2819H83.2136H83.1457H83.078H83.0105H82.9434H82.8764H82.8098H82.7434H82.6773H82.6114H82.5458H82.4805H82.4154H82.3507H82.2862H82.222H82.158H82.0944H82.031H81.9679H81.9051H81.8426H81.7803H81.7184H81.6568H81.5954H81.5344H81.4736H81.4131C75.9406 0.841553 72.9769 3.09595 71.4306 5.48478C70.6759 6.65064 70.2828 7.81037 70.0773 8.67536C69.9742 9.10938 69.9172 9.47412 69.8857 9.7354C69.87 9.8662 69.8605 9.97157 69.855 10.0473C69.8522 10.0852 69.8503 10.1157 69.8492 10.1383L69.8478 10.1663L69.8474 10.1758L69.8473 10.1794L69.8473 10.1808C69.8472 10.1815 69.8472 10.1821 70.8467 10.2148L69.8472 10.1821L69.8467 10.1985V10.2148H70.8467C69.8467 10.2148 69.8467 10.2148 69.8467 10.2149V10.2154V10.2161V10.2171V10.2184V10.22V10.2219V10.224V10.2265V10.2292V10.2322V10.2355V10.2391V10.2429V10.2471V10.2515V10.2562V10.2611V10.2664V10.2719V10.2777V10.2837V10.2901V10.2967V10.3036V10.3107V10.3181V10.3258V10.3338V10.342V10.3505V10.3592V10.3682V10.3775V10.387V10.3968V10.4069V10.4172V10.4278V10.4387V10.4498V10.4611V10.4727V10.4846V10.4967V10.5091V10.5217V10.5346V10.5477V10.5611V10.5747V10.5886V10.6027V10.6171V10.6317V10.6465V10.6616V10.677V10.6926V10.7084V10.7245V10.7408V10.7573V10.7741V10.7912V10.8084V10.8259V10.8436V10.8616V10.8798V10.8982V10.9169V10.9358V10.9549V10.9743V10.9938V11.0136V11.0337V11.0539V11.0744V11.0951V11.1161V11.1372V11.1586V11.1802V11.202V11.224V11.2463V11.2687V11.2914V11.3143V11.3374V11.3608V11.3843V11.4081V11.432V11.4562V11.4806V11.5052V11.53V11.555V11.5802V11.6056V11.6312V11.6571V11.6831V11.7093V11.7358V11.7624V11.7892V11.8163V11.8435V11.8709V11.8986V11.9264V11.9544V11.9826V12.011V12.0396V12.0684V12.0973V12.1265V12.1559V12.1854V12.2151V12.245V12.2751V12.3054V12.3359V12.3665V12.3974V12.4284V12.4596V12.4909V12.5225V12.5542V12.5861V12.6182V12.6504V12.6829V12.7155V12.7482V12.7812V12.8143V12.8476V12.8811V12.9147V12.9485V12.9824V13.0166V13.0509V13.0853V13.1199V13.1547V13.1897V13.2248V13.26V13.2954V13.331V13.3668V13.4027V13.4387V13.4749V13.5113V13.5478V13.5845V13.6213V13.6582V13.6954V13.7326V13.7701V13.8076V13.8453V13.8832V13.9212V13.9593V13.9976V14.0361V14.0746V14.1133V14.1522V14.1912V14.2303V14.2696V14.309V14.3485V14.3882V14.428V14.468V14.508V14.5482V14.5886V14.629V14.6696V14.7104V14.7512V14.7922V14.8333V14.8745V14.9159V14.9574V14.999V15.0407V15.0825V15.1245V15.1665V15.2087V15.2511V15.2935V15.336V15.3787V15.4215V15.4644V15.5074V15.5505V15.5937V15.637V15.6805V15.724V15.7677V15.8114V15.8553V15.8993V15.9433V15.9875V16.0318V16.0762V16.1207V16.1652V16.2099V16.2547V16.2996V16.3446V16.3896V16.4348V16.48V16.5254V16.5708V16.6164V16.662V16.7077V16.7535V16.7994V16.8454V16.8914V16.9376V16.9838V17.0301V17.0765V17.123V17.1696V17.2162V17.2629V17.3097V17.3566V17.4035V17.4506V17.4977V17.5449V17.5921V17.6394V17.6868V17.7343V17.7819V17.8295V17.8771V17.9249V17.9727V18.0206V18.0685V18.1165V18.1646V18.2127V18.2609V18.3092V18.3575V18.4059V18.4543V18.5028V18.5514V18.6V18.6486V18.6973V18.7461V18.7949V18.8438V18.8927V18.9417V18.9907V19.0398V19.0889V19.1381V19.1873V19.2365V19.2858V19.3352V19.3846V19.434V19.4835V19.533V19.5825V19.6321V19.6817V19.7314V19.7811V19.8308V19.8806V19.9304V19.9802V20.0301V20.08V20.1299V20.1798V20.2298V20.2798V20.3299V20.3799V20.43V20.4801V20.5303V20.5804V20.6306V20.6808V20.731V20.7812V20.8315V20.8818V20.9321V20.9824V21.0327V21.083V21.1334V21.1837V21.2341V21.2845V21.3349V21.3853V21.4357V21.4861V21.5365V21.5869V21.6374V21.6878V21.7382V21.7887V21.8391V21.8895V21.94V21.9904V22.0409V22.0913V22.1417V22.1922V22.2426V22.293V22.3434V22.3938V22.4442V22.4946V22.545V22.5953V22.6457V22.696V22.7463V22.7966V22.8469V22.8972V22.9475V22.9977V23.0479V23.0981V23.1483V23.1985V23.2486V23.2987V23.3488V23.3989V23.449V23.499V23.549V23.5989V23.6489V23.6988V23.7486V23.7985V23.8483V23.8981V23.9478V23.9975V24.0472V24.0968V24.1464V24.196V24.2455V24.295V24.3444V24.3938V24.4432V24.4925V24.5418V24.591V24.6402V24.6893V24.7384V24.7874V24.8364V24.8853V24.9342V24.9831V25.0319V25.0806V25.1293V25.1779V25.2264V25.275V25.3234V25.3718V25.4201V25.4684V25.5166V25.5648V25.6129V25.6609V25.7089V25.7568V25.8046V25.8524V25.9001V25.9477V25.9953V26.0428V26.0902V26.1375V26.1848V26.232V26.2791V26.3262V26.3732V26.4201V26.4669V26.5136V26.5603V26.6069V26.6534V26.6998V26.7462V26.7924V26.8386V26.8847V26.9307V26.9766V27.0224V27.0682V27.1138V27.1594V27.2048V27.2502V27.2955V27.3407V27.3858V27.4308V27.4757V27.5205V27.5652V27.6098V27.6544V27.6988V27.7431V27.7873V27.8314V27.8754V27.9193V27.9631V28.0068V28.0504V28.0938V28.1372V28.1805V28.2236V28.2666V28.3096V28.3524V28.3951V28.4377V28.4801V28.5225V28.5647V28.6068V28.6488V28.6907V28.7325V28.7741V28.8156V28.857V28.8983V28.9394V28.9804V29.0213V29.0621V29.1027V29.1432V29.1836V29.2238V29.264V29.3039V29.3438V29.3835V29.4231V29.4625V29.5019V29.541V29.5801C69.8467 30.1067 69.8855 30.625 69.9633 31.1316H71.9928C71.8954 30.6319 71.8467 30.1135 71.8467 29.5801V29.541V29.5019V29.4625V29.4231V29.3835V29.3438V29.3039V29.264V29.2238V29.1836V29.1432V29.1027V29.0621V29.0213V28.9804V28.9394V28.8983V28.857V28.8156V28.7741V28.7325V28.6907V28.6488V28.6068V28.5647V28.5225V28.4801V28.4377V28.3951V28.3524V28.3096V28.2666V28.2236V28.1805V28.1372V28.0938V28.0504V28.0068V27.9631V27.9193V27.8754V27.8314V27.7873V27.7431V27.6988V27.6544V27.6098V27.5652V27.5205V27.4757V27.4308V27.3858V27.3407V27.2955V27.2502V27.2048V27.1594V27.1138V27.0682V27.0224V26.9766V26.9307V26.8847V26.8386V26.7924V26.7462V26.6998V26.6534V26.6069V26.5603V26.5136V26.4669V26.4201V26.3732V26.3262V26.2791V26.232V26.1848V26.1375V26.0902V26.0428V25.9953V25.9477V25.9001V25.8524V25.8046V25.7568V25.7089V25.6609V25.6129V25.5648V25.5166V25.4684V25.4201V25.3718V25.3234V25.275V25.2264V25.1779V25.1293V25.0806V25.0319V24.9831V24.9342V24.8853V24.8364V24.7874V24.7384V24.6893V24.6402V24.591V24.5418V24.4925V24.4432V24.3938V24.3444V24.295V24.2455V24.196V24.1464V24.0968V24.0472V23.9975V23.9478V23.8981V23.8483V23.7985V23.7486V23.6988V23.6489V23.5989V23.549V23.499V23.449V23.3989V23.3488V23.2987V23.2486V23.1985V23.1483V23.0981V23.0479V22.9977V22.9475V22.8972V22.8469V22.7966V22.7463V22.696V22.6457V22.5953V22.545V22.4946V22.4442V22.3938V22.3434V22.293V22.2426V22.1922V22.1417V22.0913V22.0409V21.9904V21.94V21.8895V21.8391V21.7887V21.7382V21.6878V21.6374V21.5869V21.5365V21.4861V21.4357V21.3853V21.3349V21.2845V21.2341V21.1837V21.1334V21.083V21.0327V20.9824V20.9321V20.8818V20.8315V20.7812V20.731V20.6808V20.6306V20.5804V20.5303V20.4801V20.43V20.3799V20.3299V20.2798V20.2298V20.1798V20.1299V20.08V20.0301V19.9802V19.9304V19.8806V19.8308V19.7811V19.7314V19.6817V19.6321V19.5825V19.533V19.4835V19.434V19.3846V19.3352V19.2858V19.2365V19.1873V19.1381V19.0889V19.0398V18.9907V18.9417V18.8927V18.8438V18.7949V18.7461V18.6973V18.6486V18.6V18.5514V18.5028V18.4543V18.4059V18.3575V18.3092V18.2609V18.2127V18.1646V18.1165V18.0685V18.0206V17.9727V17.9249V17.8771V17.8295V17.7819V17.7343V17.6868V17.6394V17.5921V17.5449V17.4977V17.4506V17.4035V17.3566V17.3097V17.2629V17.2162V17.1696V17.123V17.0765V17.0301V16.9838V16.9376V16.8914V16.8454V16.7994V16.7535V16.7077V16.662V16.6164V16.5708V16.5254V16.48V16.4348V16.3896V16.3446V16.2996V16.2547V16.2099V16.1652V16.1207V16.0762V16.0318V15.9875V15.9433V15.8993V15.8553V15.8114V15.7677V15.724V15.6805V15.637V15.5937V15.5505V15.5074V15.4644V15.4215V15.3787V15.336V15.2935V15.2511V15.2087V15.1665V15.1245V15.0825V15.0407V14.999V14.9574V14.9159V14.8745V14.8333V14.7922V14.7512V14.7104V14.6696V14.629V14.5886V14.5482V14.508V14.468V14.428V14.3882V14.3485V14.309V14.2696V14.2303V14.1912V14.1522V14.1133V14.0746V14.0361V13.9976V13.9593V13.9212V13.8832V13.8453V13.8076V13.7701V13.7326V13.6954V13.6582V13.6213V13.5845V13.5478V13.5113V13.4749V13.4387V13.4027V13.3668V13.331V13.2954V13.26V13.2248V13.1897V13.1547V13.1199V13.0853V13.0509V13.0166V12.9824V12.9485V12.9147V12.8811V12.8476V12.8143V12.7812V12.7482V12.7155V12.6829V12.6504V12.6182V12.5861V12.5542V12.5225V12.4909V12.4596V12.4284V12.3974V12.3665V12.3359V12.3054V12.2751V12.245V12.2151V12.1854V12.1559V12.1265V12.0973V12.0684V12.0396V12.011V11.9826V11.9544V11.9264V11.8986V11.8709V11.8435V11.8163V11.7892V11.7624V11.7358V11.7093V11.6831V11.6571V11.6312V11.6056V11.5802V11.555V11.53V11.5052V11.4806V11.4562V11.432V11.4081V11.3843V11.3608V11.3374V11.3143V11.2914V11.2687V11.2463V11.224V11.202V11.1802V11.1586V11.1372V11.1161V11.0951V11.0744V11.0539V11.0337V11.0136V10.9938V10.9743V10.9549V10.9358V10.9169V10.8982V10.8798V10.8616V10.8436V10.8259V10.8084V10.7912V10.7741V10.7573V10.7408V10.7245V10.7084V10.6926V10.677V10.6616V10.6465V10.6317V10.6171V10.6027V10.5886V10.5747V10.5611V10.5477V10.5346V10.5217V10.5091V10.4967V10.4846V10.4727V10.4611V10.4498V10.4387V10.4278V10.4172V10.4069V10.3968V10.387V10.3775V10.3682V10.3592V10.3505V10.342V10.3338V10.3258V10.3181V10.3107V10.3036V10.2967V10.2901V10.2837V10.2777V10.2719V10.2664V10.2611V10.2562V10.2515V10.2471V10.2429V10.2391Z" fill="url(#paint8_linear_503_2)"/>
<defs>
<linearGradient id="paint0_linear_503_2" x1="85.3316" y1="4.17139" x2="85.3316" y2="8.54059" gradientUnits="userSpaceOnUse">
<stop stop-color="#B48A3D"/>
<stop offset="0.484375" stop-color="#FCEBCD"/>
<stop offset="0.989583" stop-color="#CEAE70"/>
</linearGradient>
<linearGradient id="paint1_linear_503_2" x1="90.1017" y1="4.11133" x2="90.1017" y2="8.60053" gradientUnits="userSpaceOnUse">
<stop stop-color="#B48A3D"/>
<stop offset="0.484375" stop-color="#FCEBCD"/>
<stop offset="0.989583" stop-color="#CEAE70"/>
</linearGradient>
<linearGradient id="paint2_linear_503_2" x1="94.5522" y1="4.17139" x2="94.5522" y2="8.54059" gradientUnits="userSpaceOnUse">
<stop stop-color="#B48A3D"/>
<stop offset="0.484375" stop-color="#FCEBCD"/>
<stop offset="0.989583" stop-color="#CEAE70"/>
</linearGradient>
<linearGradient id="paint3_linear_503_2" x1="98.4659" y1="4.17139" x2="98.4659" y2="8.54059" gradientUnits="userSpaceOnUse">
<stop stop-color="#B48A3D"/>
<stop offset="0.484375" stop-color="#FCEBCD"/>
<stop offset="0.989583" stop-color="#CEAE70"/>
</linearGradient>
<linearGradient id="paint4_linear_503_2" x1="101.463" y1="4.17139" x2="101.463" y2="8.54059" gradientUnits="userSpaceOnUse">
<stop stop-color="#B48A3D"/>
<stop offset="0.484375" stop-color="#FCEBCD"/>
<stop offset="0.989583" stop-color="#CEAE70"/>
</linearGradient>
<linearGradient id="paint5_linear_503_2" x1="104.729" y1="4.17139" x2="104.729" y2="8.54059" gradientUnits="userSpaceOnUse">
<stop stop-color="#B48A3D"/>
<stop offset="0.484375" stop-color="#FCEBCD"/>
<stop offset="0.989583" stop-color="#CEAE70"/>
</linearGradient>
<linearGradient id="paint6_linear_503_2" x1="109.412" y1="4.09424" x2="109.412" y2="8.58338" gradientUnits="userSpaceOnUse">
<stop stop-color="#B48A3D"/>
<stop offset="0.484375" stop-color="#FCEBCD"/>
<stop offset="0.989583" stop-color="#CEAE70"/>
</linearGradient>
<linearGradient id="paint7_linear_503_2" x1="58.079" y1="1.84153" x2="58.079" y2="38.7211" gradientUnits="userSpaceOnUse">
<stop stop-color="#B48A3D"/>
<stop offset="0.505208" stop-color="#FCECCE"/>
<stop offset="1" stop-color="#CCAB6C"/>
</linearGradient>
<linearGradient id="paint8_linear_503_2" x1="94.1817" y1="0.841553" x2="94.1817" y2="39.6425" gradientUnits="userSpaceOnUse">
<stop stop-color="#B48A3D"/>
<stop offset="0.541667" stop-color="#FAE9C9"/>
<stop offset="0.994792" stop-color="#CEAD6F"/>
</linearGradient>
</defs>
</svg>
