<svg width="154" height="52" viewBox="0 0 154 52" fill="none" xmlns="http://www.w3.org/2000/svg">
<path d="M111 4.00254H110.9V4.10254V9.92008V10.0201H111H111.473H111.573V9.92008V7.15694H115.012V9.92008V10.0201H115.112H115.574H115.674V9.92008V4.10254V4.00254H115.574H115.112H115.012V4.10254V6.53488H111.563V4.10254V4.00254H111.463H111Z" fill="url(#paint0_linear_1_135774)" stroke="#DFC492" stroke-width="0.2"/>
<path d="M119.675 3.92278C118.744 3.92287 118.024 4.27045 117.538 4.83597C117.054 5.3996 116.81 6.17153 116.81 7.0114C116.81 7.86345 117.065 8.63509 117.546 9.19538C118.029 9.75732 118.732 10.1 119.612 10.1C120.577 10.1 121.295 9.7254 121.769 9.1405C122.242 8.55835 122.467 7.77582 122.467 6.96577C122.467 6.09619 122.204 5.33253 121.719 4.78629C121.234 4.2388 120.533 3.91698 119.675 3.92278ZM119.675 3.92278C119.675 3.92278 119.675 3.92278 119.675 3.92278L119.675 4.02278V3.92278C119.675 3.92278 119.675 3.92278 119.675 3.92278ZM119.644 9.48937C118.945 9.48937 118.417 9.18834 118.06 8.7282C117.701 8.26551 117.514 7.63806 117.514 6.98859C117.514 6.34257 117.681 5.72733 118.031 5.27605C118.378 4.82819 118.911 4.53343 119.665 4.53343C120.366 4.53343 120.889 4.81633 121.239 5.25837C121.591 5.7031 121.773 6.31554 121.773 6.97718C121.773 7.65313 121.611 8.28273 121.266 8.74075C120.925 9.19484 120.397 9.48937 119.644 9.48937Z" fill="url(#paint1_linear_1_135774)" stroke="#DFC492" stroke-width="0.2"/>
<path d="M123.703 4.00254H123.603V4.10254V9.92008V10.0201H123.703H127.342H127.423L127.44 9.94015L127.524 9.5295L127.548 9.40943H127.426H124.266V4.10254V4.00254H124.166H123.703Z" fill="url(#paint2_linear_1_135774)" stroke="#DFC492" stroke-width="0.2"/>
<path d="M128.362 4.00254H128.262V4.10254V9.92008V10.0201H128.362H130.36C131.237 10.0201 131.971 9.70541 132.486 9.16184C133 8.61879 133.289 7.85436 133.289 6.96568C133.289 6.07041 132.991 5.32792 132.473 4.80898C131.955 4.29012 131.224 4.00254 130.37 4.00254H128.362ZM130.297 9.39802H128.935V4.61319H130.297C131.107 4.61319 131.675 4.89946 132.041 5.3308C132.41 5.7647 132.584 6.35568 132.584 6.97709C132.584 7.67838 132.391 8.28276 132.015 8.71042C131.64 9.1362 131.072 9.39802 130.297 9.39802Z" fill="url(#paint3_linear_1_135774)" stroke="#DFC492" stroke-width="0.2"/>
<path d="M135.097 4.10254V4.00254H134.997H134.535H134.435V4.10254V9.92008V10.0201H134.535H134.997H135.097V9.92008V4.10254Z" fill="url(#paint4_linear_1_135774)" stroke="#DFC492" stroke-width="0.2"/>
<path d="M136.675 9.92008V10.0201H136.775H137.248H137.348V9.92008V7.21663C137.348 7.03465 137.348 6.85888 137.349 6.68868C137.35 6.01286 137.351 5.42469 137.332 4.88276C137.608 5.29569 138.075 5.9972 138.589 6.76811C139.363 7.92979 140.242 9.24904 140.73 9.97585L140.76 10.0201H140.813H141.454H141.554V9.92008V4.10254V4.00254H141.454H140.981H140.881V4.10254V6.73754C140.881 6.87413 140.881 7.00893 140.881 7.14218C140.88 7.79788 140.879 8.41586 140.904 9.0226C140.31 8.09898 138.794 5.87158 137.873 4.51903C137.755 4.34552 137.647 4.18642 137.552 4.0463L137.522 4.00254H137.469H136.775H136.675V4.10254V9.92008Z" fill="url(#paint5_linear_1_135774)" stroke="#DFC492" stroke-width="0.2"/>
<path d="M147.358 9.96206L147.384 10.0202H147.448H147.837H147.858H147.958V9.9202V6.84033V6.74033H147.858H145.45H145.35V6.84033V7.25098V7.35098H145.45H147.306C147.303 7.97388 147.194 8.49502 146.921 8.86083C146.648 9.22677 146.196 9.45518 145.461 9.45518C144.75 9.45518 144.244 9.16985 143.912 8.72935C143.578 8.2852 143.416 7.6753 143.416 7.02284C143.416 6.30109 143.586 5.6752 143.931 5.23205C144.273 4.79252 144.794 4.52206 145.524 4.52206C146.034 4.52206 146.425 4.64088 146.718 4.85123C147.011 5.06144 147.216 5.36952 147.343 5.76434L147.365 5.83385H147.438H147.901H148.02L147.999 5.71647C147.9 5.15655 147.622 4.69994 147.195 4.38443C146.769 4.06968 146.203 3.9 145.534 3.9C144.619 3.9 143.907 4.23891 143.425 4.808C142.944 5.37497 142.7 6.16127 142.7 7.04565C142.7 7.88931 142.926 8.64706 143.383 9.19577C143.843 9.74692 144.53 10.0772 145.429 10.0772C146.077 10.0772 146.53 9.92485 146.852 9.71449C147.043 9.59002 147.185 9.447 147.293 9.3078C147.298 9.44302 147.303 9.55594 147.309 9.64754C147.314 9.72567 147.321 9.78968 147.328 9.83942C147.334 9.88554 147.343 9.93021 147.358 9.96206Z" fill="url(#paint6_linear_1_135774)" stroke="#DFC492" stroke-width="0.2"/>
<path d="M139.454 50.1047H78.073L61.5636 33.5954C61.5636 34.7242 61.5636 34.8653 61.5636 39.9451C61.5636 45.0249 58.6004 50.1047 48.0175 50.1047C37.4346 50.1047 24.0579 50.1047 14.5756 50.1047C2.2993 50.1047 0.74714 40.5096 1.02935 35.712V1.42332H16.2687C17.4317 1.42332 18.2178 1.42332 18.2178 1.42332C18.2178 1.42332 18.3521 31.8175 18.2192 33.1721C18.0864 34.5267 19.4034 34.8653 20.0786 34.8653C26.8517 34.8653 41.5414 34.8653 42.9377 34.8653C44.8255 34.8653 44.631 33.5954 44.631 33.1721C44.631 24.0002 44.631 1.00002 44.631 1.00002L46.3242 1.00001C50.1341 1.00001 58.1771 1.00001 59.8703 1.00001C61.5636 1.00001 62.4102 1.00004 62.4102 1.00004V13.2762L77.2263 1.00001C82.3061 1.00001 90.8067 1.00001 92.5 1.00001C94.1933 1.00001 96 1 96.7332 1L72.1465 24.2824L94.3772 39.9451" stroke="url(#paint7_linear_1_135774)" stroke-width="2"/>
<path d="M102.5 45C102.5 45 98.0798 44.6197 93.4234 40.3865L93.4233 38C94.6933 38.8466 93.3866 37.3098 95.5 40C97.6134 42.6902 102.5 45 102.5 45Z" fill="#E6CFA2"/>
<path fill-rule="evenodd" clip-rule="evenodd" d="M95 12.1721V12.1711L95.0001 12.1693C95.0008 12.155 95.0023 12.1307 95.0047 12.0971C95.0097 12.0299 95.0188 11.9255 95.0352 11.7894C95.0681 11.5169 95.1297 11.1191 95.244 10.638C95.4733 9.67277 95.9098 8.39223 96.7347 7.11783C98.3476 4.62613 101.543 2 108.069 2H108.15H108.231H108.312H108.393H108.476H108.558H108.641H108.724H108.808H108.892H108.976H109.061H109.146H109.232H109.317H109.404H109.49H109.577H109.665H109.752H109.84H109.929H110.017H110.107H110.196H110.286H110.376H110.466H110.557H110.648H110.74H110.832H110.924H111.016H111.109H111.202H111.296H111.39H111.484H111.578H111.673H111.768H111.863H111.959H112.055H112.151H112.248H112.345H112.442H112.539H112.637H112.735H112.833H112.932H113.031H113.13H113.229H113.329H113.429H113.529H113.63H113.731H113.832H113.933H114.035H114.136H114.238H114.341H114.443H114.546H114.649H114.753H114.856H114.96H115.064H115.169H115.273H115.378H115.483H115.588H115.694H115.799H115.905H116.011H116.118H116.224H116.331H116.438H116.545H116.653H116.76H116.868H116.976H117.084H117.193H117.301H117.41H117.519H117.628H117.738H117.847H117.957H118.067H118.177H118.287H118.397H118.508H118.619H118.73H118.841H118.952H119.063H119.175H119.287H119.398H119.51H119.623H119.735H119.847H119.96H120.073H120.186H120.299H120.412H120.525H120.638H120.752H120.865H120.979H121.093H121.207H121.321H121.435H121.55H121.664H121.779H121.893H122.008H122.123H122.238H122.353H122.468H122.583H122.699H122.814H122.93H123.045H123.161H123.277H123.392H123.508H123.624H123.74H123.856H123.973H124.089H124.205H124.321H124.438H124.554H124.671H124.787H124.904H125.021H125.137H125.254H125.371H125.488H125.604H125.721H125.838H125.955H126.072H126.189H126.306H126.423H126.54H126.657H126.774H126.891H127.008H127.126H127.243H127.36H127.477H127.594H127.711H127.828H127.945H128.062H128.179H128.296H128.413H128.53H128.647H128.764H128.881H128.998H129.115H129.232H129.349H129.465H129.582H129.699H129.816H129.932H130.049H130.165H130.282H130.398H130.514H130.631H130.747H130.863H130.979H131.095H131.211H131.327H131.443H131.558H131.674H131.79H131.905H132.02H132.136H132.251H132.366H132.481H132.596H132.711H132.826H132.94H133.055H133.169H133.284H133.398H133.512H133.626H133.74H133.853H133.967H134.081H134.194H134.307H134.42H134.533H134.646H134.759H134.871H134.984H135.096H135.208H135.32H135.432H135.544H135.655H135.767H135.878H135.989H136.1H136.211H136.321H136.431H136.542H136.652H136.762H136.871H136.981H137.09H137.199H137.308H137.417H137.525H137.634H137.742H137.85H137.958H138.065H138.173H138.28H138.387H138.494H138.6H138.706H138.812H138.918H139.024H139.129H139.235H139.34H139.444H139.549H139.653H139.757H139.861H139.965H140.068H140.171H140.274H140.376H140.479H140.581H140.682H140.784H140.885H140.986H141.087H141.188H141.288H141.388H141.487H141.587H141.686H141.785H141.883H141.982H142.08H142.177H142.275H142.372H142.469H142.565H142.661H142.757H142.853H142.948H143.043H143.138H143.232H143.326H143.42H143.513H143.606H143.699H143.792H143.884H143.975H144.067H144.158H144.249H144.339H144.429H144.519H144.608H144.697H144.786H144.874H144.962H145.05H145.137H145.224H145.311H145.397H145.483H145.568H145.653H145.738H145.822H145.906H145.99H146.073H146.156H146.238H146.32H146.402H146.483H146.564H146.644H146.724H146.804H146.883H146.962H147.04H147.118H147.196H147.273H147.35H147.426H147.502H147.578H147.653H147.727H147.802H147.875H147.949H148.022H148.094H148.166H148.238H148.309H148.379H148.45H148.519H148.589H148.658H148.726H148.794H148.861H148.928H148.995H149.061H149.127H149.192H149.256H149.321H149.384H149.447H149.51H149.572H149.634H149.695H149.756H149.816H149.876H149.935H149.994H150.052H150.11H150.167H150.224H150.28H150.336H150.391H150.446H150.5H150.554H150.607H150.659H150.711H150.763H150.814H150.864H150.914H150.963H151.012H151.06H151.108H151.155H151.202H151.248H151.293H151.338H151.383H151.426H151.47H151.512H151.554H151.596H151.637H151.677H151.717H151.756H151.795H151.833H151.87H151.907H151.943H151.963V11.7453H110.629C110.594 11.7418 110.549 11.7379 110.496 11.7344C110.378 11.7267 110.215 11.721 110.022 11.7272C109.644 11.7394 109.113 11.7987 108.566 12.0041C108.011 12.2122 107.416 12.5801 106.97 13.2157C106.522 13.8528 106.283 14.675 106.295 15.688C106.295 16.1223 106.284 21.1749 106.272 26.1343L106.257 32.9382L106.252 35.1629L106.25 35.7845L106.25 35.9481L106.25 35.9901L106.25 36.0007L106.25 36.0033L106.25 36.004C106.25 36.0042 106.25 36.0042 107.25 36.0066L106.25 36.0042L106.249 36.2629L106.374 36.4894L107.25 36.0066C106.374 36.4894 106.374 36.4898 106.374 36.4902L106.375 36.4911L106.376 36.4929L106.378 36.4971L106.384 36.5074L106.4 36.535C106.413 36.5564 106.429 36.5839 106.45 36.6165C106.492 36.6817 106.551 36.7682 106.627 36.8687C106.779 37.0688 107.005 37.3309 107.312 37.593C107.931 38.1218 108.893 38.6582 110.209 38.6582H135.615H136.561C136.595 38.6617 136.64 38.6657 136.693 38.6694C136.81 38.6775 136.971 38.6842 137.163 38.6803C137.54 38.6725 138.069 38.6232 138.614 38.4399C139.164 38.2552 139.771 37.9205 140.233 37.3197C140.703 36.7095 140.955 35.9139 140.941 34.9369C140.918 33.3636 140.918 31.1117 140.924 29.248C140.927 28.3173 140.931 27.4852 140.934 26.8859C140.936 26.5863 140.938 26.3448 140.939 26.1784L140.94 25.987L140.941 25.9374L140.941 25.9248L140.941 25.9217L140.941 25.9209V25.9207L140.949 24.9104L139.938 24.9129L122.228 24.9563V18.0581H151.917V36.5112V36.5851L151.928 36.6562L151.928 36.6565L151.928 36.6572L151.928 36.6581L151.928 36.659L151.931 36.6786C151.933 36.6978 151.937 36.7291 151.942 36.7718C151.951 36.8571 151.964 36.9873 151.975 37.156C151.997 37.4939 152.013 37.9835 151.986 38.5733C151.932 39.7591 151.706 41.3166 151.038 42.8577C150.374 44.388 149.274 45.9035 147.45 47.0446C145.622 48.1887 142.996 49 139.212 49H113H110.037H110.036H110.036H110.036H110.035H110.035H110.034H110.034H110.033H110.033H110.032H110.031H110.031H110.03H110.029H110.028H110.028H110.027H110.027H110.026H110.026H110.025H110.025H110.024H110.024H110.023H110.022H110.02H110.019H110.018H110.018H110.017H110.016H110.016H110.015H110.014H110.013H110.013H110.012H110.01H110.009H110.008H110.007H110.007H110.006H110.005H110.004H110.003H110.003H110.001H109.999H109.999H109.998H109.997H109.996H109.995H109.994H109.993H109.991H109.989H109.988H109.987H109.986H109.985H109.984H109.983H109.981H109.979H109.979H109.977H109.976H109.975H109.974H109.971H109.971H109.969H109.968H109.967H109.965H109.965H109.962H109.96H109.96H109.958H109.957H109.956H109.953H109.951H109.95H109.949H109.947H109.947H109.944H109.944H109.942H109.941H109.939H109.937H109.937H109.934H109.934H109.932H109.93H109.929H109.927H109.924H109.923H109.922H109.919H109.919H109.916H109.916H109.914H109.912H109.911H109.908H109.908H109.906H109.904H109.903H109.9H109.897H109.896H109.895H109.892H109.889H109.888H109.886H109.883H109.88H109.879H109.877H109.875H109.872H109.87H109.869H109.865H109.863H109.861H109.86H109.857H109.856H109.854H109.851H109.851H109.848H109.846H109.845H109.842H109.838H109.837H109.835H109.832H109.832H109.829H109.826H109.826H109.823H109.821H109.82H109.816H109.816H109.813H109.811H109.81H109.807H109.805H109.804H109.8H109.8H109.797H109.794H109.791H109.788H109.788H109.784H109.783H109.781H109.778H109.777H109.775H109.771H109.768H109.765H109.765H109.761H109.759H109.758H109.755H109.753H109.751H109.748H109.747H109.745H109.742H109.741H109.738H109.735H109.734H109.732H109.728H109.728H109.725H109.721H109.718H109.715H109.712H109.708H99.9749C102.48 50.2478 105.625 50.9591 109.38 50.9983L109.38 51H109.38H109.38H109.38H109.38H109.38H109.38H109.38H109.38H109.38H109.381H109.381H109.381H109.381H109.381H109.381H109.382H109.382H109.382H109.382H109.383H109.383H109.383H109.383H109.384H109.384H109.384H109.384H109.385H109.385H109.386H109.386H109.387H109.387H109.387H109.388H109.388H109.389H109.389H109.39H109.39H109.391H109.391H109.392H109.392H109.393H109.394H109.394H109.395H109.395H109.396H109.396H109.397H109.397H109.398H109.399H109.4H109.4H109.401H109.402H109.402H109.403H109.403H109.405H109.405H109.406H109.406H109.408H109.408H109.409H109.41H109.411H109.412H109.412H109.413H109.414H109.415H109.415H109.417H109.417H109.419H109.419H109.42H109.421H109.422H109.424H109.424H109.426H109.426H109.427H109.428H109.429H109.43H109.431H109.433H109.433H109.435H109.435H109.437H109.438H109.439H109.44H109.441H109.443H109.443H109.445H109.446H109.447H109.448H109.449H109.451H109.452H109.454H109.454H109.456H109.457H109.458H109.46H109.461H109.463H109.463H109.465H109.466H109.467H109.469H109.47H109.472H109.472H109.475H109.476H109.477H109.479H109.48H109.482H109.483H109.485H109.486H109.487H109.49H109.492H109.493H109.495H109.497H109.497H109.5H109.501H109.503H109.505H109.505H109.508H109.508H109.511H109.512H109.514H109.516H109.516H109.519H109.52H109.522H109.525H109.525H109.528H109.529H109.53H109.533H109.533H109.536H109.538H109.539H109.542H109.542H109.545H109.546H109.548H109.551H109.551H109.554H109.556H109.557H109.56H109.56H109.563H109.565H109.566H109.569H109.57H109.572H109.575H109.575H109.578H109.58H109.581H109.584H109.585H109.587H109.59H109.591H109.594H109.595H109.597H109.6H109.601H109.603H109.606H109.606H109.61H109.611H109.613H109.616H109.617H109.619H109.622H109.622H109.626H109.628H109.629H109.632H109.634H109.635H109.639H109.64H109.642H109.645H109.645H109.648H109.651H109.652H109.655H109.657H109.658H109.662H109.663H109.665H109.668H109.67H109.672H109.675H109.676H109.678H109.682H109.682H109.685H109.688H109.689H109.692H109.695H109.695H109.698H109.702H109.702H109.705H109.708H109.712H109.715H109.718H109.722H109.725H109.728H109.728H109.732H109.734H109.735H109.738H109.741H109.742H109.745H109.747H109.748H109.751H109.753H109.755H109.758H109.759H109.761H109.765H109.765H109.768H109.771H109.775H109.777H109.778H109.781H109.783H109.784H109.788H109.788H109.791H109.794H109.797H109.8H109.8H109.804H109.805H109.807H109.81H109.811H109.813H109.816H109.816H109.82H109.821H109.823H109.826H109.826H109.829H109.832H109.832H109.835H109.837H109.838H109.841H109.845H109.846H109.848H109.851H109.851H109.854H109.856H109.857H109.86H109.861H109.863H109.866H109.869H109.87H109.872H109.874H109.877H109.879H109.88H109.883H109.886H109.888H109.889H109.892H109.895H109.896H109.897H109.9H109.903H109.904H109.906H109.908H109.908H109.911H109.912H109.914H109.916H109.916H109.919H109.919H109.922H109.923H109.924H109.927H109.929H109.93H109.932H109.934H109.934H109.937H109.937H109.939H109.941H109.942H109.944H109.944H109.947H109.947H109.949H109.95H109.951H109.954H109.956H109.957H109.958H109.96H109.96H109.963H109.965H109.965H109.967H109.968H109.969H109.971H109.971H109.973H109.975H109.976H109.977H109.979H109.979H109.981H109.983H109.984H109.985H109.986H109.987H109.988H109.989H109.991H109.993H109.994H109.995H109.996H109.997H109.998H109.999H109.999H110.001H110.003H110.003H110.004H110.005H110.006H110.007H110.007H110.008H110.009H110.01H110.012H110.013H110.013H110.014H110.015H110.016H110.016H110.017H110.018H110.018H110.019H110.02H110.022H110.023H110.024H110.024H110.025H110.025H110.026H110.026H110.027H110.027H110.028H110.028H110.029H110.03H110.031H110.031H110.032H110.033H110.033H110.034H110.034H110.035H110.035H110.035H110.036H110.036H110.036H110.037H139.212C143.283 51 146.297 50.1252 148.511 48.7401C150.729 47.3522 152.074 45.4954 152.873 43.6535C153.667 41.8225 153.923 40.0077 153.984 38.6644C154.015 37.9897 153.997 37.4254 153.971 37.0256C153.957 36.8255 153.942 36.666 153.93 36.5537C153.925 36.5104 153.921 36.4741 153.917 36.4452V17.0581V16.0581H152.917H121.228H120.228V17.0581V25.9588V26.9613L121.23 26.9588L138.934 26.9154C138.931 27.5128 138.927 28.33 138.924 29.2419C138.918 31.106 138.918 33.3733 138.941 34.9657C138.95 35.5716 138.798 35.9058 138.648 36.1C138.492 36.3034 138.264 36.4476 137.978 36.544C137.687 36.6416 137.376 36.6755 137.122 36.6807C136.999 36.6832 136.898 36.6788 136.831 36.6741C136.816 36.6731 136.803 36.6721 136.792 36.6711C136.778 36.67 136.767 36.6689 136.759 36.6681L136.749 36.667L136.748 36.6668L136.747 36.6667L136.747 36.6667L136.747 36.6667L136.685 36.6582H136.617H135.615H110.209C109.476 36.6582 108.958 36.3688 108.61 36.0718C108.453 35.9378 108.333 35.8038 108.25 35.6987L108.252 35.1675L108.257 32.9428L108.272 26.1389C108.284 21.1564 108.295 16.0731 108.295 15.6816H108.295L108.295 15.6682C108.286 14.9869 108.445 14.5956 108.606 14.3654C108.77 14.1321 108.998 13.9781 109.268 13.8766C109.546 13.7723 109.844 13.734 110.087 13.7262C110.205 13.7223 110.302 13.726 110.366 13.7301C110.397 13.7322 110.42 13.7343 110.433 13.7356L110.442 13.7367L110.443 13.7368L110.505 13.7453H110.573H152.963H153.963V12.7453V1V0H152.963V1C152.963 0 152.963 0 152.962 0H152.961H152.96H152.957H152.954H152.95H152.945H152.94H152.934H152.927H152.92H152.912H152.903H152.894H152.884H152.873H152.861H152.849H152.836H152.823H152.809H152.794H152.778H152.762H152.745H152.728H152.71H152.691H152.671H152.651H152.631H152.609H152.587H152.564H152.541H152.517H152.493H152.467H152.441H152.415H152.388H152.36H152.332H152.303H152.273H152.243H152.212H152.181H152.148H152.116H152.083H152.049H152.014H151.979H151.943H151.907H151.87H151.833H151.795H151.756H151.717H151.677H151.637H151.596H151.554H151.512H151.47H151.426H151.383H151.338H151.293H151.248H151.202H151.155H151.108H151.06H151.012H150.963H150.914H150.864H150.814H150.763H150.711H150.659H150.607H150.554H150.5H150.446H150.391H150.336H150.28H150.224H150.167H150.11H150.052H149.994H149.935H149.876H149.816H149.756H149.695H149.634H149.572H149.51H149.447H149.384H149.321H149.256H149.192H149.127H149.061H148.995H148.928H148.861H148.794H148.726H148.658H148.589H148.519H148.45H148.379H148.309H148.238H148.166H148.094H148.022H147.949H147.875H147.802H147.727H147.653H147.578H147.502H147.426H147.35H147.273H147.196H147.118H147.04H146.962H146.883H146.804H146.724H146.644H146.564H146.483H146.402H146.32H146.238H146.156H146.073H145.99H145.906H145.822H145.738H145.653H145.568H145.483H145.397H145.311H145.224H145.137H145.05H144.962H144.874H144.786H144.697H144.608H144.519H144.429H144.339H144.249H144.158H144.067H143.975H143.884H143.792H143.699H143.606H143.513H143.42H143.326H143.232H143.138H143.043H142.948H142.853H142.757H142.661H142.565H142.469H142.372H142.275H142.177H142.08H141.982H141.883H141.785H141.686H141.587H141.487H141.388H141.288H141.188H141.087H140.986H140.885H140.784H140.682H140.581H140.479H140.376H140.274H140.171H140.068H139.965H139.861H139.757H139.653H139.549H139.444H139.34H139.235H139.129H139.024H138.918H138.812H138.706H138.6H138.494H138.387H138.28H138.173H138.065H137.958H137.85H137.742H137.634H137.525H137.417H137.308H137.199H137.09H136.981H136.871H136.762H136.652H136.542H136.431H136.321H136.211H136.1H135.989H135.878H135.767H135.655H135.544H135.432H135.32H135.208H135.096H134.984H134.871H134.759H134.646H134.533H134.42H134.307H134.194H134.081H133.967H133.853H133.74H133.626H133.512H133.398H133.284H133.169H133.055H132.94H132.826H132.711H132.596H132.481H132.366H132.251H132.136H132.02H131.905H131.79H131.674H131.558H131.443H131.327H131.211H131.095H130.979H130.863H130.747H130.631H130.514H130.398H130.282H130.165H130.049H129.932H129.816H129.699H129.582H129.465H129.349H129.232H129.115H128.998H128.881H128.764H128.647H128.53H128.413H128.296H128.179H128.062H127.945H127.828H127.711H127.594H127.477H127.36H127.243H127.126H127.008H126.891H126.774H126.657H126.54H126.423H126.306H126.189H126.072H125.955H125.838H125.721H125.604H125.488H125.371H125.254H125.137H125.021H124.904H124.787H124.671H124.554H124.438H124.321H124.205H124.089H123.973H123.856H123.74H123.624H123.508H123.392H123.277H123.161H123.045H122.93H122.814H122.699H122.583H122.468H122.353H122.238H122.123H122.008H121.893H121.779H121.664H121.55H121.435H121.321H121.207H121.093H120.979H120.865H120.752H120.638H120.525H120.412H120.299H120.186H120.073H119.96H119.847H119.735H119.623H119.51H119.398H119.287H119.175H119.063H118.952H118.841H118.73H118.619H118.508H118.397H118.287H118.177H118.067H117.957H117.847H117.738H117.628H117.519H117.41H117.301H117.193H117.084H116.976H116.868H116.76H116.653H116.545H116.438H116.331H116.224H116.118H116.011H115.905H115.799H115.694H115.588H115.483H115.378H115.273H115.169H115.064H114.96H114.856H114.753H114.649H114.546H114.443H114.341H114.238H114.136H114.035H113.933H113.832H113.731H113.63H113.529H113.429H113.329H113.229H113.13H113.031H112.932H112.833H112.735H112.637H112.539H112.442H112.345H112.248H112.151H112.055H111.959H111.863H111.768H111.673H111.578H111.484H111.39H111.296H111.202H111.109H111.016H110.924H110.832H110.74H110.648H110.557H110.466H110.376H110.286H110.196H110.107H110.017H109.929H109.84H109.752H109.665H109.577H109.49H109.404H109.317H109.232H109.146H109.061H108.976H108.892H108.808H108.724H108.641H108.558H108.476H108.393H108.312H108.231H108.15H108.069C100.891 0 97.0512 2.94831 95.0558 6.03104C94.0765 7.54386 93.5654 9.05055 93.2981 10.1757C93.1641 10.7399 93.0902 11.213 93.0496 11.5502C93.0293 11.719 93.0172 11.8542 93.0101 11.9502C93.0066 11.9983 93.0043 12.0366 93.0028 12.0645L93.0012 12.0984L93.0008 12.1094L93.0006 12.1133L93.0006 12.1149C93.0006 12.1156 93.0005 12.1162 94 12.1489L93.0005 12.1162L93 12.1325V12.1489H94C93 12.1489 93 12.1489 93 12.1491V12.1496V12.1506V12.152V12.1537V12.1558V12.1583V12.1612V12.1644V12.1681V12.1721V12.1765V12.1812V12.1863V12.1918V12.1977V12.204V12.2106V12.2175V12.2249V12.2326V12.2407V12.2491V12.2579V12.2671V12.2766V12.2864V12.2967V12.3073V12.3182V12.3295V12.3412V12.3532V12.3655V12.3782V12.3913V12.4047V12.4184V12.4325V12.4469V12.4617V12.4768V12.4923V12.5081V12.5242V12.5407V12.5575V12.5747V12.5921V12.61V12.6281V12.6466V12.6654V12.6845V12.704V12.7237V12.7439V12.7643V12.785V12.8061V12.8275V12.8492V12.8713V12.8936V12.9163V12.9393V12.9626V12.9862V13.0101V13.0343V13.0589V13.0837V13.1089V13.1343V13.1601V13.1862V13.2125V13.2392V13.2662V13.2935V13.321V13.3489V13.3771V13.4055V13.4343V13.4633V13.4927V13.5223V13.5522V13.5824V13.6129V13.6437V13.6747V13.7061V13.7377V13.7696V13.8018V13.8343V13.867V13.9V13.9333V13.9669V14.0008V14.0349V14.0693V14.1039V14.1388V14.174V14.2095V14.2452V14.2812V14.3175V14.354V14.3908V14.4278V14.4651V14.5027V14.5405V14.5786V14.6169V14.6555V14.6943V14.7334V14.7727V14.8123V14.8521V14.8922V14.9325V14.9731V15.0139V15.0549V15.0962V15.1378V15.1795V15.2215V15.2638V15.3063V15.349V15.3919V15.4351V15.4785V15.5221V15.566V15.6101V15.6544V15.699V15.7437V15.7887V15.834V15.8794V15.9251V15.9709V16.017V16.0633V16.1099V16.1566V16.2036V16.2507V16.2981V16.3457V16.3935V16.4415V16.4897V16.5381V16.5867V16.6355V16.6846V16.7338V16.7832V16.8328V16.8827V16.9327V16.9829V17.0333V17.0839V17.1347V17.1857V17.2368V17.2882V17.3397V17.3915V17.4434V17.4955V17.5478V17.6003V17.6529V17.7057V17.7587V17.8119V17.8653V17.9188V17.9725V18.0264V18.0805V18.1347V18.1891V18.2436V18.2984V18.3533V18.4083V18.4635V18.5189V18.5745V18.6302V18.6861V18.7421V18.7983V18.8546V18.9111V18.9678V19.0246V19.0815V19.1386V19.1959V19.2533V19.3108V19.3685V19.4263V19.4843V19.5425V19.6007V19.6591V19.7177V19.7764V19.8352V19.8942V19.9532V20.0125V20.0718V20.1313V20.191V20.2507V20.3106V20.3706V20.4307V20.491V20.5514V20.6119V20.6725V20.7332V20.7941V20.8551V20.9162V20.9774V21.0387V21.1002V21.1617V21.2234V21.2852V21.3471V21.4091V21.4712V21.5334V21.5957V21.6581V21.7206V21.7832V21.846V21.9088V21.9717V22.0347V22.0978V22.161V22.2243V22.2877V22.3512V22.4148V22.4784V22.5422V22.606V22.6699V22.7339V22.798V22.8622V22.9265V22.9908V23.0552V23.1197V23.1843V23.2489V23.3136V23.3784V23.4433V23.5082V23.5732V23.6383V23.7034V23.7686V23.8339V23.8992V23.9646V24.0301V24.0956V24.1612V24.2269V24.2926V24.3583V24.4241V24.49V24.5559V24.6219V24.6879V24.754V24.8201V24.8863V24.9525V25.0188V25.0851V25.1514V25.2178V25.2842V25.3507V25.4172V25.4838V25.5504V25.617V25.6836V25.7503V25.817V25.8838V25.9506V26.0174V26.0842V26.1511V26.218V26.2849V26.3518V26.4188V26.4858V26.5528V26.6198V26.6868V26.7539V26.8209V26.888V26.9551V27.0222V27.0893V27.1565V27.2236V27.2907V27.3579V27.425V27.4922V27.5594V27.6265V27.6937V27.7608V27.828V27.8952V27.9623V28.0295V28.0966V28.1637V28.2309V28.298V28.3651V28.4322V28.4993V28.5664V28.6334V28.7005V28.7675V28.8345V28.9015V28.9684V29.0354V29.1023V29.1692V29.2361V29.3029V29.3697V29.4365V29.5033V29.57V29.6367V29.7034V29.77V29.8366V29.9032V29.9697V30.0362V30.1026V30.169V30.2354V30.3017V30.368V30.4342V30.5004V30.5665V30.6326V30.6987V30.7646V30.8306V30.8965V30.9623V31.0281V31.0938V31.1595V31.2251V31.2906V31.3561V31.4215V31.4869V31.5522V31.6174V31.6825V31.7476V31.8127V31.8776V31.9425V32.0073V32.0721V32.1367V32.2013V32.2658V32.3303V32.3946V32.4589V32.5231V32.5872V32.6512V32.7152V32.7791V32.8428V32.9065V32.9701V33.0336V33.0971V33.1604V33.2236V33.2868V33.3498V33.4128V33.4756V33.5384V33.601V33.6636V33.726V33.7884V33.8506V33.9127V33.9748V34.0367V34.0985V34.1602V34.2218V34.2833V34.3446V34.4059V34.467V34.528V34.5889V34.6497V34.7104V34.7709V34.8314V34.8917V34.9518V35.0119V35.0718V35.1316V35.1912V35.2508V35.3102V35.3694V35.4286V35.4876V35.5465V35.6052V35.6638V35.7222V35.7805V35.8387V35.8967V35.9546V36.0124V36.07V36.1274V36.1847V36.2419V36.2989V36.3557V36.4124V36.4689V36.5253V36.5816V36.6376V36.6936V36.7493V36.8049V36.8604V36.9156V36.9708V37.0257V37.0805V37.1351V37.1895V37.2438V37.2979V37.3519V37.4056V37.4592V37.5126V37.5659V37.6189V37.6718V37.7245V37.777V37.8294V37.8815V37.9335C93 38.6357 93.0531 39.326 93.1594 40H95.1886C95.0629 39.3329 95 38.6425 95 37.9335V37.8815V37.8294V37.777V37.7245V37.6718V37.6189V37.5659V37.5126V37.4592V37.4056V37.3519V37.2979V37.2438V37.1895V37.1351V37.0805V37.0257V36.9708V36.9156V36.8604V36.8049V36.7493V36.6936V36.6376V36.5816V36.5253V36.4689V36.4124V36.3557V36.2989V36.2419V36.1847V36.1274V36.07V36.0124V35.9546V35.8967V35.8387V35.7805V35.7222V35.6638V35.6052V35.5465V35.4876V35.4286V35.3694V35.3102V35.2508V35.1912V35.1316V35.0718V35.0119V34.9518V34.8917V34.8314V34.7709V34.7104V34.6497V34.5889V34.528V34.467V34.4059V34.3446V34.2833V34.2218V34.1602V34.0985V34.0367V33.9748V33.9127V33.8506V33.7884V33.726V33.6636V33.601V33.5384V33.4756V33.4128V33.3498V33.2868V33.2236V33.1604V33.0971V33.0336V32.9701V32.9065V32.8428V32.7791V32.7152V32.6512V32.5872V32.5231V32.4589V32.3946V32.3303V32.2658V32.2013V32.1367V32.0721V32.0073V31.9425V31.8776V31.8127V31.7476V31.6825V31.6174V31.5522V31.4869V31.4215V31.3561V31.2906V31.2251V31.1595V31.0938V31.0281V30.9623V30.8965V30.8306V30.7646V30.6987V30.6326V30.5665V30.5004V30.4342V30.368V30.3017V30.2354V30.169V30.1026V30.0362V29.9697V29.9032V29.8366V29.77V29.7034V29.6367V29.57V29.5033V29.4365V29.3697V29.3029V29.2361V29.1692V29.1023V29.0354V28.9684V28.9015V28.8345V28.7675V28.7005V28.6334V28.5664V28.4993V28.4322V28.3651V28.298V28.2309V28.1637V28.0966V28.0295V27.9623V27.8952V27.828V27.7608V27.6937V27.6265V27.5594V27.4922V27.425V27.3579V27.2907V27.2236V27.1565V27.0893V27.0222V26.9551V26.888V26.8209V26.7539V26.6868V26.6198V26.5528V26.4858V26.4188V26.3518V26.2849V26.218V26.1511V26.0842V26.0174V25.9506V25.8838V25.817V25.7503V25.6836V25.617V25.5504V25.4838V25.4172V25.3507V25.2842V25.2178V25.1514V25.0851V25.0188V24.9525V24.8863V24.8201V24.754V24.6879V24.6219V24.5559V24.49V24.4241V24.3583V24.2926V24.2269V24.1612V24.0956V24.0301V23.9646V23.8992V23.8339V23.7686V23.7034V23.6383V23.5732V23.5082V23.4433V23.3784V23.3136V23.2489V23.1843V23.1197V23.0552V22.9908V22.9265V22.8622V22.798V22.7339V22.6699V22.606V22.5422V22.4784V22.4148V22.3512V22.2877V22.2243V22.161V22.0978V22.0347V21.9717V21.9088V21.846V21.7832V21.7206V21.6581V21.5957V21.5334V21.4712V21.4091V21.3471V21.2852V21.2234V21.1617V21.1002V21.0387V20.9774V20.9162V20.8551V20.7941V20.7332V20.6725V20.6119V20.5514V20.491V20.4307V20.3706V20.3106V20.2507V20.191V20.1313V20.0718V20.0125V19.9532V19.8942V19.8352V19.7764V19.7177V19.6591V19.6007V19.5425V19.4843V19.4263V19.3685V19.3108V19.2533V19.1959V19.1386V19.0815V19.0246V18.9678V18.9111V18.8546V18.7983V18.7421V18.6861V18.6302V18.5745V18.5189V18.4635V18.4083V18.3533V18.2984V18.2436V18.1891V18.1347V18.0805V18.0264V17.9725V17.9188V17.8653V17.8119V17.7587V17.7057V17.6529V17.6003V17.5478V17.4955V17.4434V17.3915V17.3397V17.2882V17.2368V17.1857V17.1347V17.0839V17.0333V16.9829V16.9327V16.8827V16.8328V16.7832V16.7338V16.6846V16.6355V16.5867V16.5381V16.4897V16.4415V16.3935V16.3457V16.2981V16.2507V16.2036V16.1566V16.1099V16.0633V16.017V15.9709V15.9251V15.8794V15.834V15.7887V15.7437V15.699V15.6544V15.6101V15.566V15.5221V15.4785V15.4351V15.3919V15.349V15.3063V15.2638V15.2215V15.1795V15.1378V15.0962V15.0549V15.0139V14.9731V14.9325V14.8922V14.8521V14.8123V14.7727V14.7334V14.6943V14.6555V14.6169V14.5786V14.5405V14.5027V14.4651V14.4278V14.3908V14.354V14.3175V14.2812V14.2452V14.2095V14.174V14.1388V14.1039V14.0693V14.0349V14.0008V13.9669V13.9333V13.9V13.867V13.8343V13.8018V13.7696V13.7377V13.7061V13.6747V13.6437V13.6129V13.5824V13.5522V13.5223V13.4927V13.4633V13.4343V13.4055V13.3771V13.3489V13.321V13.2935V13.2662V13.2392V13.2125V13.1862V13.1601V13.1343V13.1089V13.0837V13.0589V13.0343V13.0101V12.9862V12.9626V12.9393V12.9163V12.8936V12.8713V12.8492V12.8275V12.8061V12.785V12.7643V12.7439V12.7237V12.704V12.6845V12.6654V12.6466V12.6281V12.61V12.5921V12.5747V12.5575V12.5407V12.5242V12.5081V12.4923V12.4768V12.4617V12.4469V12.4325V12.4184V12.4047V12.3913V12.3782V12.3655V12.3532V12.3412V12.3295V12.3182V12.3073V12.2967V12.2864V12.2766V12.2671V12.2579V12.2491V12.2407V12.2326V12.2249V12.2175V12.2106V12.204V12.1977V12.1918V12.1863V12.1812V12.1765V12.1721Z" fill="url(#paint8_linear_1_135774)"/>
<defs>
<linearGradient id="paint0_linear_1_135774" x1="113.287" y1="4.10254" x2="113.287" y2="9.92008" gradientUnits="userSpaceOnUse">
<stop stop-color="#B48A3D"/>
<stop offset="0.484375" stop-color="#FCEBCD"/>
<stop offset="0.989583" stop-color="#CEAE70"/>
</linearGradient>
<linearGradient id="paint1_linear_1_135774" x1="119.639" y1="4.02271" x2="119.639" y2="10" gradientUnits="userSpaceOnUse">
<stop stop-color="#B48A3D"/>
<stop offset="0.484375" stop-color="#FCEBCD"/>
<stop offset="0.989583" stop-color="#CEAE70"/>
</linearGradient>
<linearGradient id="paint2_linear_1_135774" x1="125.564" y1="4.10254" x2="125.564" y2="9.92008" gradientUnits="userSpaceOnUse">
<stop stop-color="#B48A3D"/>
<stop offset="0.484375" stop-color="#FCEBCD"/>
<stop offset="0.989583" stop-color="#CEAE70"/>
</linearGradient>
<linearGradient id="paint3_linear_1_135774" x1="130.775" y1="4.10254" x2="130.775" y2="9.92008" gradientUnits="userSpaceOnUse">
<stop stop-color="#B48A3D"/>
<stop offset="0.484375" stop-color="#FCEBCD"/>
<stop offset="0.989583" stop-color="#CEAE70"/>
</linearGradient>
<linearGradient id="paint4_linear_1_135774" x1="134.766" y1="4.10254" x2="134.766" y2="9.92008" gradientUnits="userSpaceOnUse">
<stop stop-color="#B48A3D"/>
<stop offset="0.484375" stop-color="#FCEBCD"/>
<stop offset="0.989583" stop-color="#CEAE70"/>
</linearGradient>
<linearGradient id="paint5_linear_1_135774" x1="139.115" y1="4.10254" x2="139.115" y2="9.92008" gradientUnits="userSpaceOnUse">
<stop stop-color="#B48A3D"/>
<stop offset="0.484375" stop-color="#FCEBCD"/>
<stop offset="0.989583" stop-color="#CEAE70"/>
</linearGradient>
<linearGradient id="paint6_linear_1_135774" x1="145.35" y1="4" x2="145.35" y2="9.97724" gradientUnits="userSpaceOnUse">
<stop stop-color="#B48A3D"/>
<stop offset="0.484375" stop-color="#FCEBCD"/>
<stop offset="0.989583" stop-color="#CEAE70"/>
</linearGradient>
<linearGradient id="paint7_linear_1_135774" x1="77" y1="0.99997" x2="77" y2="50.1047" gradientUnits="userSpaceOnUse">
<stop stop-color="#B48A3D"/>
<stop offset="0.505208" stop-color="#FCECCE"/>
<stop offset="1" stop-color="#CCAB6C"/>
</linearGradient>
<linearGradient id="paint8_linear_1_135774" x1="125.053" y1="0" x2="125.053" y2="51" gradientUnits="userSpaceOnUse">
<stop stop-color="#B48A3D"/>
<stop offset="0.541667" stop-color="#FAE9C9"/>
<stop offset="0.994792" stop-color="#CEAD6F"/>
</linearGradient>
</defs>
</svg>
