<svg width="1920" height="1134" viewBox="0 0 1920 1134" fill="none" xmlns="http://www.w3.org/2000/svg">
<g opacity="0.3">
<path d="M2371 491.644C1866.46 354.55 1707.78 774.539 1361.11 753.968C1121.48 739.732 1062.17 439.753 845.464 424.307C497.153 399.489 260.138 961.981 83.8827 1028.94" stroke="#000002" stroke-width="0.25" stroke-miterlimit="10"/>
<path d="M2369.6 492.878C1869.68 352.557 1709.06 773.044 1361.44 751.69C1122.31 737.217 1062.27 436.669 844.895 421.246C497.51 396.547 261.087 956.833 84.0491 1023.91" stroke="#010103" stroke-width="0.25" stroke-miterlimit="10"/>
<path d="M2368.18 494.112C1872.89 350.54 1710.42 771.55 1361.8 749.412C1123.22 734.726 1062.34 433.584 844.325 418.186C497.936 393.605 262.036 951.66 84.1912 1018.71" stroke="#020103" stroke-width="0.25" stroke-miterlimit="10"/>
<path d="M2366.78 495.369C1876.11 348.547 1711.72 770.055 1362.15 747.111C1124.14 732.092 1062.41 430.524 843.779 415.125C498.221 390.686 262.985 946.511 84.3569 1013.59" stroke="#020204" stroke-width="0.25" stroke-miterlimit="10"/>
<path d="M2365.35 496.603C1879.34 346.531 1712.91 768.56 1362.49 744.833C1125.07 729.553 1062.5 427.439 843.21 412.04C498.577 387.72 263.934 941.339 84.5233 1008.49" stroke="#030304" stroke-width="0.25" stroke-miterlimit="10"/>
<path d="M2363.88 497.837C1882.47 344.537 1714.31 766.33 1362.68 742.532C1125.85 726.516 1062.41 424.355 842.499 409.003C498.909 384.778 264.883 936.19 84.6897 1003.36" stroke="#040405" stroke-width="0.25" stroke-miterlimit="10"/>
<path d="M2362.53 499.094C1885.77 342.497 1715.71 764.835 1363.2 740.254C1126.96 723.859 1062.65 421.294 842.095 405.943C499.265 381.836 265.832 931.042 84.8318 998.236" stroke="#050405" stroke-width="0.25" stroke-miterlimit="10"/>
<path d="M2361.11 500.328C1888.97 340.528 1717.01 763.198 1363.53 737.976C1127.89 721.225 1062.72 418.209 841.573 402.858C499.621 378.823 266.781 925.869 84.9976 993.135" stroke="#050506" stroke-width="0.25" stroke-miterlimit="10"/>
<path d="M2359.71 501.562C1892.2 338.487 1718.34 761.466 1363.89 735.675C1128.82 718.591 1062.81 415.125 840.98 399.797C499.977 375.952 267.73 920.72 85.1638 988.01" stroke="#060606" stroke-width="0.25" stroke-miterlimit="10"/>
<path d="M2358.28 502.796C1895.43 336.518 1719.67 759.829 1364.19 733.397C1129.72 715.958 1062.88 412.064 840.387 396.737C500.309 373.01 268.608 915.548 85.3065 982.908" stroke="#070707" stroke-width="0.25" stroke-miterlimit="10"/>
<path d="M2356.88 504.053C1898.63 334.501 1720.93 758.215 1364.57 731.119C1130.67 713.371 1062.95 408.98 839.865 393.676C500.593 370.068 269.652 910.399 85.401 977.783" stroke="#080708" stroke-width="0.25" stroke-miterlimit="10"/>
<path d="M2355.46 505.287C1901.86 332.508 1722.3 756.578 1365.05 728.818C1131.59 710.69 1063.05 405.895 839.296 390.686C501.044 367.125 270.6 905.227 85.6382 972.658" stroke="#080808" stroke-width="0.25" stroke-miterlimit="10"/>
<path d="M2354.04 506.521C1905.08 330.515 1723.63 754.965 1365.26 726.54C1132.54 708.057 1063.12 402.834 838.75 387.554C501.448 364.183 271.55 900.078 85.8049 967.557" stroke="#090909" stroke-width="0.25" stroke-miterlimit="10"/>
<path d="M2352.64 507.778C1908.29 328.498 1724.96 753.351 1365.66 724.238C1133.51 705.447 1063.24 399.75 838.228 384.494C501.756 361.241 272.499 894.929 85.9703 962.503" stroke="#0A0A09" stroke-width="0.25" stroke-miterlimit="10"/>
<path d="M2351.21 509.012C1911.51 326.624 1726.27 751.738 1365.97 721.96C1134.39 702.813 1063.29 396.665 837.611 381.433C502.112 358.299 273.448 889.757 86.1129 957.331" stroke="#0B0A0A" stroke-width="0.25" stroke-miterlimit="10"/>
<path d="M2349.81 510.246C1914.74 324.488 1727.59 750.148 1366.31 719.683C1135.32 700.203 1063.36 393.605 837.066 378.372C502.468 355.357 274.397 884.608 86.2555 952.206" stroke="#0B0B0A" stroke-width="0.25" stroke-miterlimit="10"/>
<path d="M2348.39 511.48C1917.85 322.495 1728.92 748.535 1366.66 717.381C1136.24 697.593 1063.43 390.52 836.497 375.311C502.824 352.415 275.346 879.459 86.4456 947.081" stroke="#0C0C0B" stroke-width="0.25" stroke-miterlimit="10"/>
<path d="M2346.97 512.737C1921.17 320.55 1730.11 746.921 1367.11 715.103C1137.29 694.959 1063.5 387.436 835.974 372.25C503.18 349.473 276.295 874.287 86.6115 941.98" stroke="#0D0C0B" stroke-width="0.25" stroke-miterlimit="10"/>
<path d="M2345.57 514.066C1924.4 318.486 1731.56 745.331 1367.42 712.826C1138.19 692.349 1063.74 384.375 835.452 369.19C503.535 346.507 277.244 869.114 86.7534 936.855" stroke="#0E0D0C" stroke-width="0.25" stroke-miterlimit="10"/>
<path d="M2344.14 515.205C1927.6 316.469 1732.79 743.718 1367.71 710.524C1139.04 689.645 1063.74 381.196 834.812 366.129C503.82 343.565 278.193 863.966 86.9198 931.658" stroke="#0E0E0D" stroke-width="0.25" stroke-miterlimit="10"/>
<path d="M2342.74 516.439C1930.83 314.452 1734.21 742.105 1368.04 708.223C1139.97 687.106 1063.74 378.182 834.219 363.044C504.247 340.623 279.142 858.817 87.0857 926.628" stroke="#0F0F0D" stroke-width="0.25" stroke-miterlimit="10"/>
<path d="M2341.32 517.696C1934.05 312.388 1735.52 740.539 1368.39 705.945C1140.89 684.519 1063.74 375.145 833.602 360.007C504.603 337.68 280.091 853.644 87.252 921.503" stroke="#100F0E" stroke-width="0.25" stroke-miterlimit="10"/>
<path d="M2339.9 518.93C1937.25 310.466 1736.85 738.949 1368.75 703.667C1141.84 681.933 1063.9 372.061 833.151 356.923C504.959 334.738 281.04 848.614 87.394 916.402" stroke="#11100E" stroke-width="0.25" stroke-miterlimit="10"/>
<path d="M2338.5 520.164C1940.48 308.449 1738.25 737.359 1369.08 701.389C1142.77 679.323 1063.97 368.976 832.582 353.862C505.315 331.796 281.989 843.323 87.6079 911.277" stroke="#11110F" stroke-width="0.25" stroke-miterlimit="10"/>
<path d="M2337.07 521.421C1943.68 306.456 1739.5 735.769 1369.44 699.135C1143.69 676.761 1064.05 365.963 832.012 350.849C505.671 328.854 282.938 838.175 87.7262 906.152" stroke="#12120F" stroke-width="0.25" stroke-miterlimit="10"/>
<path d="M2335.67 522.655C1946.91 304.463 1740.81 734.18 1369.79 696.763C1144.64 674.08 1064.16 362.783 831.49 347.693C506.027 325.912 283.887 833.002 87.8926 901.051" stroke="#131210" stroke-width="0.25" stroke-miterlimit="10"/>
<path d="M2334.25 523.889C1950.14 302.446 1742.14 732.685 1370.13 694.532C1145.54 671.541 1064.21 359.841 830.897 344.68C506.383 322.97 284.836 827.853 88.0352 895.926" stroke="#141310" stroke-width="0.25" stroke-miterlimit="10"/>
<path d="M2332.85 525.146C1953.43 300.524 1743.47 731.024 1370.48 692.231C1146.47 668.931 1064.28 356.686 830.351 341.619C506.738 320.028 285.785 822.705 88.2004 890.825" stroke="#141411" stroke-width="0.25" stroke-miterlimit="10"/>
<path d="M2331.43 526.38C1956.57 298.436 1744.79 729.458 1370.81 689.953C1147.42 666.345 1064.38 353.601 829.877 338.558C507.094 317.133 286.734 817.532 88.3668 885.699" stroke="#151512" stroke-width="0.25" stroke-miterlimit="10"/>
<path d="M2330 527.614C1959.89 296.443 1746.12 727.892 1371.17 687.652C1148.34 663.759 1064.45 350.517 829.213 335.498C507.427 314.143 287.683 812.407 88.5332 880.575" stroke="#161512" stroke-width="0.25" stroke-miterlimit="10"/>
<path d="M2328.6 528.848C1963 294.426 1747.33 726.326 1371.5 685.445C1149.27 661.172 1064.52 347.456 828.667 332.437C507.782 311.201 288.632 807.211 88.6277 875.473" stroke="#171613" stroke-width="0.25" stroke-miterlimit="10"/>
<path d="M2327.18 530.105C1966.22 292.433 1748.76 724.665 1371.86 683.096C1150.19 658.586 1064.59 344.371 828.098 329.376C508.138 308.259 289.534 802.062 88.8416 870.348" stroke="#171713" stroke-width="0.25" stroke-miterlimit="10"/>
<path d="M2325.78 531.339C1969.45 290.417 1750.09 723.194 1372.21 680.818C1151.12 656.024 1064.69 341.311 827.552 326.339C508.565 305.27 290.53 796.89 89.0073 865.223" stroke="#181714" stroke-width="0.25" stroke-miterlimit="10"/>
<path d="M2324.36 532.573C1972.65 288.424 1751.41 721.628 1372.55 678.517C1152.04 653.414 1064.76 338.226 826.982 323.255C508.85 302.375 291.479 791.67 89.1737 860.122" stroke="#191814" stroke-width="0.25" stroke-miterlimit="10"/>
<path d="M2322.93 533.83C1975.88 286.407 1752.72 720.086 1372.9 676.191C1152.99 650.851 1064.83 335.142 826.484 320.194C509.206 299.433 292.428 786.592 89.3158 854.997" stroke="#1A1915" stroke-width="0.25" stroke-miterlimit="10"/>
<path d="M2321.53 535.064C1979.11 284.414 1754.14 718.52 1373.26 673.937C1153.89 648.265 1064.92 332.057 825.867 317.133C509.562 296.491 293.377 781.42 89.4822 849.896" stroke="#1A1A15" stroke-width="0.25" stroke-miterlimit="10"/>
<path d="M2320.11 536.298C1982.31 282.421 1755.45 716.978 1373.59 671.66C1154.84 645.702 1064.99 328.997 825.298 314.049C509.918 293.549 294.326 776.271 89.6479 844.771" stroke="#1B1A16" stroke-width="0.25" stroke-miterlimit="10"/>
<path d="M2318.8 537.532C1985.63 280.404 1756.78 715.483 1374.04 669.382C1155.77 643.116 1065.16 325.912 824.847 311.106C510.274 290.606 295.275 771.099 89.8143 839.669" stroke="#1C1B17" stroke-width="0.25" stroke-miterlimit="10"/>
<path d="M2317.29 538.789C1988.76 278.411 1758.01 713.87 1374.28 667.08C1156.69 640.554 1065.14 322.827 824.111 307.927C510.558 287.664 296.153 765.855 89.8851 834.663" stroke="#1D1C17" stroke-width="0.25" stroke-miterlimit="10"/>
<path d="M2315.86 540.023C1991.96 276.394 1759.34 712.327 1374.54 664.802C1157.52 637.991 1065.14 319.767 823.518 304.866C510.938 284.722 297.173 760.825 90.1222 829.419" stroke="#1D1D18" stroke-width="0.25" stroke-miterlimit="10"/>
<path d="M2314.46 541.257C1995.19 274.401 1760.67 710.785 1374.94 662.501C1158.5 635.405 1065.26 316.682 823.02 301.853C511.341 281.78 298.122 755.629 90.2886 824.318" stroke="#1E1D18" stroke-width="0.25" stroke-miterlimit="10"/>
<path d="M2313.04 542.538C1998.51 272.384 1761.97 709.267 1375.32 660.223C1159.42 632.842 1065.37 313.598 822.522 298.745C511.697 278.838 299.071 750.48 90.4548 819.193" stroke="#1F1E19" stroke-width="0.25" stroke-miterlimit="10"/>
<path d="M2311.69 543.748C2001.67 270.391 1763.35 707.724 1375.72 657.945C1160.39 630.327 1065.47 310.537 821.953 295.779C512.053 275.991 299.997 745.402 90.5975 814.187" stroke="#201F19" stroke-width="0.25" stroke-miterlimit="10"/>
<path d="M2310.22 544.911C2004.85 268.303 1764.53 706.253 1376.03 655.573C1161.32 627.646 1065.54 307.381 821.384 292.552C512.409 272.954 300.969 740.159 90.7633 808.967" stroke="#20201A" stroke-width="0.25" stroke-miterlimit="10"/>
<path d="M2308.79 546.216C2008 266.381 1766.01 704.664 1376.37 653.366C1162.27 625.155 1065.56 304.368 820.838 289.562C512.765 270.012 301.918 734.987 91.0005 803.842" stroke="#21201A" stroke-width="0.25" stroke-miterlimit="10"/>
<path d="M2307.39 547.473C2011.28 264.365 1767.26 703.145 1376.72 651.088C1163.19 622.616 1065.68 301.307 820.268 286.502C513.121 267.069 302.867 729.838 91.0005 798.788" stroke="#22211B" stroke-width="0.25" stroke-miterlimit="10"/>
<path d="M2305.97 548.707C2014.5 262.371 1768.57 701.627 1377.05 648.787C1164.12 620.054 1065.78 298.223 819.698 283.393C513.476 264.08 303.816 724.713 91.332 793.521" stroke="#23221C" stroke-width="0.25" stroke-miterlimit="10"/>
<path d="M2304.57 549.941C2017.71 260.473 1769.9 700.108 1377.41 646.509C1165.04 617.491 1065.85 295.138 819.153 280.38C513.833 261.161 304.765 719.517 91.4039 788.491" stroke="#23221C" stroke-width="0.25" stroke-miterlimit="10"/>
<path d="M2303.15 551.198C2020.93 258.362 1771.22 698.59 1377.86 644.208C1166.06 614.952 1066.01 292.077 818.678 277.319C514.188 258.219 305.714 714.368 91.5697 783.389" stroke="#24231D" stroke-width="0.25" stroke-miterlimit="10"/>
<path d="M2301.75 552.432C2024.16 256.369 1772.53 697.166 1378.1 641.93C1166.94 612.39 1066.01 288.993 818.038 274.164C514.544 255.182 306.663 709.101 91.7361 778.169" stroke="#25241D" stroke-width="0.25" stroke-miterlimit="10"/>
<path d="M2300.32 553.666C2027.36 254.352 1773.86 695.576 1378.45 639.652C1167.82 609.851 1066.11 285.909 817.469 271.174C514.9 252.335 307.636 704.047 91.8782 773.163" stroke="#26251E" stroke-width="0.25" stroke-miterlimit="10"/>
<path d="M2298.9 554.9C2030.59 252.359 1775.16 694.058 1378.81 637.445C1168.74 607.312 1066.11 282.848 816.994 268.113C515.256 249.393 308.585 698.874 92.0444 767.943" stroke="#26251E" stroke-width="0.25" stroke-miterlimit="10"/>
<path d="M2297.45 556.157C2033.82 250.342 1776.49 692.563 1379.14 635.073C1169.67 604.75 1066.23 279.763 816.353 265.053C515.683 246.451 309.534 693.726 92.2103 762.913" stroke="#27261F" stroke-width="0.25" stroke-miterlimit="10"/>
<path d="M2296.08 557.391C2037.02 248.325 1777.87 691.068 1379.5 632.7C1170.5 602.211 1066.32 276.797 815.784 261.992C515.944 243.509 310.436 688.553 92.3767 757.883" stroke="#28271F" stroke-width="0.25" stroke-miterlimit="10"/>
<path d="M2294.68 558.625C2040.25 246.332 1779.13 689.644 1379.83 630.493C1171.52 599.649 1066.39 273.618 815.167 258.931C516.229 240.566 311.361 683.404 92.4475 752.687" stroke="#292820" stroke-width="0.25" stroke-miterlimit="10"/>
<path d="M2293.25 559.882C2043.45 244.315 1780.43 688.007 1380.18 628.216C1172.45 597.11 1066.47 270.533 814.622 255.87C516.608 237.624 312.334 678.208 92.6376 747.585" stroke="#292820" stroke-width="0.25" stroke-miterlimit="10"/>
<path d="M2291.83 561.116C2046.68 242.322 1781.74 686.608 1380.54 625.914C1173.37 594.595 1066.56 267.449 814.099 252.809C517.011 234.682 313.33 673.036 92.8508 742.461" stroke="#2A2921" stroke-width="0.25" stroke-miterlimit="10"/>
<path d="M2290.33 562.35C2049.81 240.329 1782.97 685.113 1380.78 623.636C1174.3 592.056 1066.63 264.388 813.554 249.749C517.368 231.716 314.279 667.934 93.0172 737.335" stroke="#2B2A22" stroke-width="0.25" stroke-miterlimit="10"/>
<path d="M2289.01 563.584C2053.1 238.312 1784.37 683.642 1381.23 621.359C1175.25 589.517 1066.7 261.304 812.984 246.688C517.723 228.798 315.228 662.762 93.1593 732.353" stroke="#2C2A22" stroke-width="0.25" stroke-miterlimit="10"/>
<path d="M2287.61 564.841C2056.33 236.319 1785.67 682.147 1381.66 619.057C1176.12 586.978 1066.8 258.219 812.439 243.58C518.056 225.856 316.177 657.613 93.3732 727.109" stroke="#2C2B23" stroke-width="0.25" stroke-miterlimit="10"/>
<path d="M2286.18 566.075C2059.56 234.326 1787 680.676 1381.92 616.779C1177.05 584.463 1066.87 255.158 811.869 240.566C518.435 222.914 317.126 652.441 93.4915 722.008" stroke="#2D2C23" stroke-width="0.25" stroke-miterlimit="10"/>
<path d="M2284.76 567.309C2062.76 232.31 1788.31 679.205 1382.27 614.502C1177.97 581.925 1066.94 252.074 811.3 237.506C518.791 219.972 318.075 647.292 93.6573 716.788" stroke="#2E2D24" stroke-width="0.25" stroke-miterlimit="10"/>
<path d="M2283.36 568.638C2065.99 230.316 1789.73 677.781 1382.6 612.2C1178.9 579.41 1067.06 248.989 810.825 234.445C519.147 217.029 319.024 642.191 93.7999 711.758" stroke="#2F2D24" stroke-width="0.25" stroke-miterlimit="10"/>
<path d="M2281.94 569.8C2069.21 228.3 1790.82 676.286 1382.96 609.922C1179.82 576.871 1067.11 245.952 810.185 231.384C519.503 214.087 319.973 636.971 93.9663 706.657" stroke="#2F2E25" stroke-width="0.25" stroke-miterlimit="10"/>
<path d="M2280.54 571.01C2072.42 226.283 1792.25 674.792 1383.32 607.597C1180.75 574.38 1067.18 242.821 809.639 228.276C519.858 211.145 320.922 631.822 94.1321 701.508" stroke="#302F25" stroke-width="0.25" stroke-miterlimit="10"/>
<path d="M2279.11 572.268C2075.64 224.29 1793.55 673.368 1383.65 605.343C1181.67 571.817 1067.25 239.76 809.069 225.239C520.214 208.203 321.871 626.65 94.2979 696.431" stroke="#313026" stroke-width="0.25" stroke-miterlimit="10"/>
<path d="M2277.71 573.525C2078.87 222.226 1794.85 671.921 1384.03 603.065C1182.58 569.302 1067.34 236.675 808.5 222.226C520.57 205.308 322.82 621.549 94.3691 691.353" stroke="#323027" stroke-width="0.25" stroke-miterlimit="10"/>
<path d="M2276.29 574.759C2082.07 220.28 1796.16 670.473 1384.36 600.859C1183.5 566.787 1067.41 233.615 807.955 219.117C520.879 202.319 323.769 616.329 94.6068 686.18" stroke="#323127" stroke-width="0.25" stroke-miterlimit="10"/>
<path d="M2274.86 575.993C2085.3 218.287 1797.46 669.026 1384.69 598.486C1184.43 564.272 1067.49 230.53 807.503 216.057C521.4 199.448 324.836 611.18 94.891 681.103" stroke="#333228" stroke-width="0.25" stroke-miterlimit="10"/>
<path d="M2273.47 577.25C2088.53 216.27 1798.77 667.579 1385.05 596.232C1185.35 561.733 1067.56 227.445 806.839 212.996C521.638 196.387 325.667 606.031 94.9385 675.954" stroke="#343328" stroke-width="0.25" stroke-miterlimit="10"/>
<path d="M2272.04 578.484C2091.73 214.277 1800.08 666.131 1385.38 593.907C1186.25 559.147 1067.65 224.385 806.27 209.935C521.994 193.492 326.616 600.859 95.0811 670.853" stroke="#353329" stroke-width="0.25" stroke-miterlimit="10"/>
<path d="M2270.64 579.718C2094.96 212.284 1801.38 664.708 1385.69 591.582C1187.11 556.774 1067.72 221.3 805.701 206.874C522.35 190.55 327.565 595.71 95.2474 665.728" stroke="#353429" stroke-width="0.25" stroke-miterlimit="10"/>
<path d="M2269.22 580.952C2098.16 210.362 1802.68 663.284 1386.09 589.327C1188.11 554.212 1067.79 218.216 805.132 203.814C522.801 187.608 328.491 590.561 95.39 660.603" stroke="#36352A" stroke-width="0.25" stroke-miterlimit="10"/>
<path d="M2267.79 582.209C2101.39 208.274 1803.99 661.86 1386.42 586.955C1189.03 551.697 1067.89 215.108 804.585 200.871C523.061 184.666 329.463 585.389 95.5791 655.502" stroke="#37352A" stroke-width="0.25" stroke-miterlimit="10"/>
<path d="M2266.39 583.443C2104.61 206.186 1805.29 660.437 1386.78 584.772C1189.86 549.182 1067.96 212.071 804.04 197.692C523.417 181.724 330.412 580.216 95.7454 650.377" stroke="#38362B" stroke-width="0.25" stroke-miterlimit="10"/>
<path d="M2264.97 584.677C2107.82 204.264 1806.58 659.013 1387.14 582.47C1190.88 546.667 1068.05 208.986 803.494 194.631C523.797 178.782 331.361 575.068 95.9113 645.275" stroke="#38372C" stroke-width="0.25" stroke-miterlimit="10"/>
<path d="M2263.57 585.934C2111.04 202.248 1807.88 657.589 1387.47 580.193C1191.85 544.151 1068.1 205.925 802.925 191.571C524.129 175.84 332.31 569.919 96.0538 640.15" stroke="#39382C" stroke-width="0.25" stroke-miterlimit="10"/>
<path d="M2262.15 587.168C2114.27 200.254 1809.18 656.19 1387.82 577.915C1192.68 541.66 1068.2 202.841 802.355 188.51C524.485 172.874 333.259 564.746 96.2196 635.073" stroke="#3A382D" stroke-width="0.25" stroke-miterlimit="10"/>
<path d="M2260.72 588.402C2117.47 198.238 1810.49 654.837 1388.16 575.613C1193.61 539.145 1068.27 199.756 801.786 185.449C524.817 170.027 334.208 559.598 96.3622 629.924" stroke="#3B392D" stroke-width="0.25" stroke-miterlimit="10"/>
<path d="M2259.33 589.636C2120.7 196.245 1811.77 653.366 1388.61 573.336C1194.53 536.654 1068.34 196.696 801.241 182.364C525.173 166.989 335.157 554.402 96.5286 624.799" stroke="#3B3A2E" stroke-width="0.25" stroke-miterlimit="10"/>
<path d="M2257.9 590.893C2123.92 194.228 1813.08 651.966 1388.77 571.01C1195.44 534.139 1068.48 193.611 800.671 179.304C525.458 164.047 336.106 549.277 96.6943 619.674" stroke="#3C3B2E" stroke-width="0.25" stroke-miterlimit="10"/>
<path d="M2256.5 592.127C2127.13 192.235 1814.36 650.59 1389.2 568.756C1196.36 531.647 1068.48 190.526 800.125 176.243C525.885 161.105 337.055 544.009 96.8602 614.573" stroke="#3D3B2F" stroke-width="0.25" stroke-miterlimit="10"/>
<path d="M2255.08 593.361C2130.35 190.242 1815.66 649.309 1389.56 566.478C1197.26 529.132 1068.48 187.466 799.556 173.182C526.241 158.163 338.004 538.955 97.0028 609.448" stroke="#3E3C2F" stroke-width="0.25" stroke-miterlimit="10"/>
<path d="M2253.66 594.737C2133.58 188.344 1816.94 647.909 1389.89 564.296C1198.19 526.641 1068.65 184.381 798.987 170.027C526.597 155.221 338.954 533.807 97.1692 604.347" stroke="#3E3D30" stroke-width="0.25" stroke-miterlimit="10"/>
<path d="M2252.37 595.852C2136.78 186.232 1818.2 646.414 1390.24 561.899C1199.09 524.15 1068.74 181.297 798.441 167.061C526.952 152.279 339.902 528.634 97.335 599.222" stroke="#3F3E31" stroke-width="0.25" stroke-miterlimit="10"/>
<path d="M2250.83 597.11C2140.01 184.263 1819.53 645.038 1390.6 559.621C1200.01 521.659 1068.81 178.236 797.871 164C527.308 149.337 340.851 523.557 97.5009 594.097" stroke="#403E31" stroke-width="0.25" stroke-miterlimit="10"/>
<path d="M2249.43 598.32C2143.24 182.222 1820.81 643.662 1390.93 557.32C1200.92 519.167 1068.89 175.152 797.326 160.939C527.664 146.3 341.8 518.313 97.6434 588.995" stroke="#413F32" stroke-width="0.25" stroke-miterlimit="10"/>
<path d="M2248.01 599.482C2146.44 180.11 1822.11 642.191 1391.29 554.947C1201.84 516.676 1068.98 172.067 796.756 157.878C528.02 143.452 342.749 513.164 97.8092 583.87" stroke="#414032" stroke-width="0.25" stroke-miterlimit="10"/>
<path d="M2246.61 600.811C2149.67 178.212 1823.4 640.933 1391.64 552.741C1202.74 514.184 1068.98 169.006 796.139 154.818C528.328 140.581 343.651 507.992 97.928 578.769" stroke="#424033" stroke-width="0.25" stroke-miterlimit="10"/>
<path d="M2245.26 602.045C2152.94 176.196 1824.75 639.557 1392.05 550.463C1203.72 511.693 1069.12 165.922 795.641 151.757C528.732 137.521 344.648 502.914 98.1182 573.644" stroke="#434133" stroke-width="0.25" stroke-miterlimit="10"/>
<path d="M2243.76 603.279C2155.98 174.203 1825.96 638.205 1392.33 548.185C1204.57 509.321 1069.19 162.909 795.072 148.672C529.088 134.626 345.62 497.694 98.2839 568.638" stroke="#444234" stroke-width="0.25" stroke-miterlimit="10"/>
<path d="M2242.36 604.536C2159.32 172.186 1827.17 636.852 1392.66 545.884C1205.47 506.711 1069.29 159.777 794.526 145.635C529.443 131.684 346.569 492.522 98.4498 563.418" stroke="#444334" stroke-width="0.25" stroke-miterlimit="10"/>
<path d="M2240.94 605.77C2162.64 170.193 1828.52 635.5 1393.02 543.606C1206.4 504.219 1069.36 156.692 793.957 142.622C529.918 128.742 347.518 487.373 98.6162 558.293" stroke="#454335" stroke-width="0.25" stroke-miterlimit="10"/>
<path d="M2239.54 607.004C2165.75 168.2 1829.8 634.171 1393.38 541.328C1207.3 501.728 1069.43 153.608 793.387 139.49C530.155 125.8 348.467 482.201 98.782 553.191" stroke="#464436" stroke-width="0.25" stroke-miterlimit="10"/>
<path d="M2238.14 608.261C2169 166.183 1831.11 632.819 1393.73 539.026C1208.2 499.26 1069.53 150.547 792.842 136.429C530.511 122.858 349.416 477.052 98.9246 548.066" stroke="#474536" stroke-width="0.25" stroke-miterlimit="10"/>
<path d="M2236.69 609.495C2172.18 164.19 1832.44 631.49 1394.06 536.749C1209.01 496.769 1069.6 147.462 792.272 133.392C530.867 119.915 350.365 471.88 99.0903 542.941" stroke="#474637" stroke-width="0.25" stroke-miterlimit="10"/>
<path d="M2235.29 610.729C2175.41 162.292 1833.62 630.161 1394.42 534.447C1210.03 494.278 1069.67 144.378 791.798 130.308C531.223 116.973 351.314 466.731 99.2567 537.793" stroke="#484637" stroke-width="0.25" stroke-miterlimit="10"/>
<path d="M2233.87 611.963C2178.64 160.18 1834.81 629.544 1394.75 532.169C1210.83 492.095 1069.74 141.317 791.157 127.318C531.579 114.031 352.263 461.582 99.4231 532.715" stroke="#494738" stroke-width="0.25" stroke-miterlimit="10"/>
<path d="M2232.47 613.22C2181.84 158.163 1836.04 627.955 1395.11 529.892C1211.78 489.556 1069.83 138.233 790.588 124.163C531.982 111.065 353.212 456.338 99.5652 527.519" stroke="#4A4838" stroke-width="0.25" stroke-miterlimit="10"/>
<path d="M2231.02 614.454C2185.04 156.17 1837.32 626.555 1395.42 527.59C1212.73 486.994 1069.88 135.148 790.018 121.126C532.29 108.147 354.161 451.261 99.731 522.489" stroke="#4A4939" stroke-width="0.25" stroke-miterlimit="10"/>
<path d="M2229.62 615.688C2188.32 154.153 1838.68 625.06 1395.89 525.312C1213.63 484.431 1069.98 132.064 789.473 118.065C532.646 105.205 355.11 446.088 99.8973 517.364" stroke="#4B4939" stroke-width="0.25" stroke-miterlimit="10"/>
<path d="M2228.22 616.945C2191.49 152.16 1839.98 623.565 1396.15 523.035C1214.56 481.892 1070.07 129.003 788.927 114.933C533.002 102.263 356.059 440.94 100.063 512.263" stroke="#4C4A3A" stroke-width="0.25" stroke-miterlimit="10"/>
<path d="M-35.6688 492.854C78.2125 546.24 115.129 397.116 459.573 441.414C697.775 472.046 736.328 775.417 951.398 805.693C1297.17 854.38 1608.42 275.777 1999.87 218.833" stroke="#181100" stroke-width="0.25" stroke-miterlimit="10"/>
<path d="M-35.8114 491.739C72.9216 546.311 110.028 406.322 455.587 446.041C695.212 473.161 735.331 780.898 952.963 810.723C1298.4 858.58 1609.18 279.55 2001.12 226.496" stroke="#191202" stroke-width="0.25" stroke-miterlimit="10"/>
<path d="M-35.9297 490.624C67.6074 546.24 104.927 415.623 451.601 450.691C692.721 474.252 734.406 786.379 954.577 815.777C1299.61 862.851 1609.96 283.299 2002.38 234.089" stroke="#1B1403" stroke-width="0.25" stroke-miterlimit="10"/>
<path d="M-36.0723 489.509C62.3165 546.239 99.755 425.731 447.615 455.318C690.159 475.961 733.552 791.409 956.119 820.712C1300.92 866.22 1610.72 286.976 2003.64 241.777" stroke="#1C1505" stroke-width="0.25" stroke-miterlimit="10"/>
<path d="M-36.2144 488.393C57.0023 546.239 94.6543 435.245 443.629 459.921C687.644 477.194 732.651 796.7 957.709 825.789C1302.18 870.324 1611.48 290.844 2004.9 249.535" stroke="#1D1706" stroke-width="0.25" stroke-miterlimit="10"/>
<path d="M-36.3569 487.278C51.6876 546.239 89.5532 444.736 439.643 464.595C685.129 478.476 731.773 802.086 959.346 830.867C1303.36 874.358 1612.34 294.64 2006.22 257.199" stroke="#1F1808" stroke-width="0.25" stroke-miterlimit="10"/>
<path d="M-36.4995 486.163C46.3966 546.239 84.4994 454.227 435.634 469.246C682.59 479.78 730.847 807.448 960.84 835.897C1304.64 878.392 1613.02 298.389 2007.41 264.934" stroke="#201A09" stroke-width="0.25" stroke-miterlimit="10"/>
<path d="M-36.6416 485.048C41.0824 546.239 79.375 463.694 431.672 473.873C680.099 480.991 729.97 812.811 962.454 840.927C1305.88 882.449 1613.78 302.138 2008.74 272.574" stroke="#221B0B" stroke-width="0.25" stroke-miterlimit="10"/>
<path d="M-36.7842 483.933C35.7914 546.24 74.3925 473.161 427.662 478.476C677.608 482.248 728.973 818.125 964.019 845.91C1307.11 886.577 1614.57 305.91 2009.92 280.238" stroke="#231D0C" stroke-width="0.25" stroke-miterlimit="10"/>
<path d="M-36.9261 482.818C30.4774 546.24 69.2445 486.922 423.676 483.15C675.164 480.469 728.167 823.535 965.609 850.916C1308.34 890.587 1615.33 309.683 2011.16 287.925" stroke="#241E0E" stroke-width="0.25" stroke-miterlimit="10"/>
<path d="M-37.1157 481.702C25.1394 546.239 64.12 492.024 419.643 487.776C672.555 484.763 727.218 828.921 967.128 856.017C1309.53 894.692 1616.04 313.455 2012.37 295.589" stroke="#26200F" stroke-width="0.25" stroke-miterlimit="10"/>
<path d="M-37.1157 480.587C19.9436 546.239 59.1852 501.443 415.776 492.451C670.111 485.997 726.34 834.378 968.836 861.047C1310.81 898.773 1616.87 317.133 2013.67 303.276" stroke="#272111" stroke-width="0.25" stroke-miterlimit="10"/>
<path d="M-37.3296 479.472C14.5813 546.239 54.0365 510.839 411.719 497.054C667.525 487.207 725.438 839.693 970.331 866.077C1311.97 902.901 1617.63 321.001 2014.93 310.869" stroke="#282312" stroke-width="0.25" stroke-miterlimit="10"/>
<path d="M-37.4717 478.476C9.26713 546.358 48.9832 520.353 407.733 501.823C665.153 488.393 724.466 845.079 971.92 871.108C1313.26 907.006 1618.39 324.749 2016.19 318.628" stroke="#2A2414" stroke-width="0.25" stroke-miterlimit="10"/>
<path d="M-37.6143 477.242C3.97616 546.239 43.9295 529.607 403.676 506.331C662.566 489.603 723.564 850.37 973.415 876.137C1314.39 911.158 1619.1 328.522 2017.33 326.292" stroke="#2B2615" stroke-width="0.25" stroke-miterlimit="10"/>
<path d="M-37.7563 476.103C-1.33804 546.239 38.8763 538.955 399.738 510.981C660.17 490.79 722.71 855.875 975.076 881.12C1315.7 915.287 1619.93 332.295 2018.7 333.979" stroke="#2D2717" stroke-width="0.25" stroke-miterlimit="10"/>
<path d="M-37.8989 474.988C-6.62901 546.168 33.8226 548.304 395.752 515.608C657.679 491.881 721.808 861.284 976.665 886.198C1316.91 919.439 1620.69 336.114 2019.87 341.643" stroke="#2E2918" stroke-width="0.25" stroke-miterlimit="10"/>
<path d="M-38.0415 473.873C-11.9437 546.239 28.7689 557.652 391.766 520.259C655.187 493.115 720.906 866.718 978.326 891.323C1318.21 923.71 1621.57 339.935 2021.31 349.425" stroke="#2F2A1A" stroke-width="0.25" stroke-miterlimit="10"/>
<path d="M-38.1836 472.757C-17.2342 546.311 23.7157 566.953 387.78 524.956C652.697 494.349 719.934 872.199 979.821 896.329C1319.35 927.791 1622.23 343.588 2022.48 356.994" stroke="#312B1C" stroke-width="0.25" stroke-miterlimit="10"/>
<path d="M-38.3024 471.642C-22.5488 546.239 18.6383 576.278 383.794 529.536C650.229 495.417 719.08 877.561 981.386 901.288C1320.66 931.967 1623.01 347.361 2023.73 364.682" stroke="#322D1D" stroke-width="0.25" stroke-miterlimit="10"/>
<path d="M-38.4445 470.527C-27.8393 546.239 13.6088 585.555 379.809 534.162C647.738 496.555 718.155 882.947 982.976 906.318C1321.77 936.143 1623.77 351.11 2024.99 372.464" stroke="#332E1F" stroke-width="0.25" stroke-miterlimit="10"/>
<path d="M-38.587 469.412C-33.1539 546.239 8.55513 594.832 375.823 538.789C645.247 497.694 717.348 888.452 984.542 911.348C1322.98 940.342 1624.53 354.906 2026.25 380.033" stroke="#353020" stroke-width="0.25" stroke-miterlimit="10"/>
<path d="M-38.7296 468.297C-38.4449 546.239 3.50139 604.109 371.836 543.44C642.755 498.809 716.327 893.909 986.131 916.378C1324.19 944.566 1625.31 358.797 2027.5 387.697" stroke="#363122" stroke-width="0.25" stroke-miterlimit="10"/>
<path d="M-38.8717 467.182C-43.7591 546.239 -1.52813 613.363 367.827 548.066C640.264 499.83 715.402 899.366 987.816 921.408C1325.43 948.765 1626.03 362.451 2028.76 395.432" stroke="#383323" stroke-width="0.25" stroke-miterlimit="10"/>
<path d="M-39.0143 466.066C-49.0501 546.239 -6.62927 622.664 363.841 552.717C637.773 501.016 714.501 904.823 989.287 926.438C1326.64 953.012 1626.83 366.2 2030.02 403.048" stroke="#393425" stroke-width="0.25" stroke-miterlimit="10"/>
<path d="M-39.1566 464.951C-54.3645 546.239 -11.6828 631.846 359.855 557.344C635.282 502.202 713.575 910.304 990.876 931.469C1327.78 957.212 1627.62 369.973 2031.25 410.735" stroke="#3A3626" stroke-width="0.25" stroke-miterlimit="10"/>
<path d="M-39.2989 463.836C-59.6552 546.239 -16.7599 641.076 355.869 561.994C632.791 503.199 712.603 915.761 992.561 936.404C1329.18 961.364 1628.4 373.65 2032.63 418.304" stroke="#3C3728" stroke-width="0.25" stroke-miterlimit="10"/>
<path d="M-39.4887 462.721C-65.0171 546.239 -21.8608 650.305 351.836 566.621C630.252 504.29 711.701 921.242 993.985 941.505C1330.22 965.683 1629.09 377.494 2033.72 426.063" stroke="#3D3929" stroke-width="0.25" stroke-miterlimit="10"/>
<path d="M-39.4889 461.606C-70.3318 546.239 -26.8908 659.511 347.898 571.271C627.856 505.358 710.894 926.747 995.598 946.559C1331.48 969.953 1629.92 381.195 2035.03 433.75" stroke="#3E3A2B" stroke-width="0.25" stroke-miterlimit="10"/>
<path d="M-39.7022 460.491C-75.5748 546.239 -31.9678 668.694 343.912 575.898C625.294 506.426 709.922 932.228 997.306 951.589C1332.81 974.224 1630.77 385.039 2036.47 441.462" stroke="#403C2C" stroke-width="0.25" stroke-miterlimit="10"/>
<path d="M-39.8445 459.494C-80.8655 546.239 -37.1161 677.9 339.902 580.501C622.803 507.446 708.996 937.709 998.753 956.595C1333.9 978.471 1631.44 388.788 2037.54 449.078" stroke="#413D2E" stroke-width="0.25" stroke-miterlimit="10"/>
<path d="M-39.9872 458.26C-86.1803 546.239 -42.1462 687.082 335.916 585.175C620.287 508.537 708.071 943.237 1000.22 961.649C1334.99 982.766 1632.1 392.584 2038.68 456.789" stroke="#433F2F" stroke-width="0.25" stroke-miterlimit="10"/>
<path d="M-40.1288 457.121C-91.4941 546.216 -47.2464 696.217 331.931 589.778C617.702 509.582 707.146 948.765 1001.91 966.703C1336.44 987.037 1633 396.357 2040.06 464.453" stroke="#444031" stroke-width="0.25" stroke-miterlimit="10"/>
<path d="M-40.2719 456.006C-96.7855 546.168 -52.3243 705.399 327.944 594.452C615.258 510.602 706.244 954.27 1003.5 971.709C1337.53 991.331 1633.74 400.177 2041.22 472.14" stroke="#454232" stroke-width="0.25" stroke-miterlimit="10"/>
<path d="M-40.4139 454.891C-102.1 546.239 -57.4249 714.558 323.959 599.079C612.743 511.693 705.319 959.799 1005.09 976.74C1338.74 995.721 1634.52 403.902 2042.57 479.804" stroke="#474334" stroke-width="0.25" stroke-miterlimit="10"/>
<path d="M-40.5564 453.776C-107.391 546.311 -62.526 723.716 320.068 603.73C610.299 512.666 704.417 965.351 1006.75 981.793C1340.04 999.921 1635.47 407.604 2043.92 487.492" stroke="#484436" stroke-width="0.25" stroke-miterlimit="10"/>
<path d="M-40.6748 452.661C-112.705 546.239 -67.6267 732.851 315.987 608.356C607.808 513.686 703.492 970.879 1008.24 986.823C1341.16 1004.21 1636.04 411.423 2045.04 495.155" stroke="#494637" stroke-width="0.25" stroke-miterlimit="10"/>
<path d="M-40.8175 451.546C-117.996 546.239 -72.7517 741.986 312.001 612.888C605.151 514.588 702.567 976.312 1009.81 991.735C1342.34 1008.34 1636.82 415.172 2046.34 502.724" stroke="#4B4739" stroke-width="0.25" stroke-miterlimit="10"/>
<path d="M-40.9596 450.43C-123.31 546.239 -77.8524 751.121 307.992 617.633C602.612 515.727 701.642 981.983 1011.4 996.883C1343.55 1012.85 1637.58 418.969 2047.6 510.483" stroke="#4C493A" stroke-width="0.25" stroke-miterlimit="10"/>
<path d="M-41.1019 449.315C-128.601 546.239 -82.977 760.137 304.006 622.284C600.074 516.723 700.716 987.677 1012.96 1001.91C1344.76 1017.07 1638.36 422.741 2048.86 518.194" stroke="#4E4A3C" stroke-width="0.25" stroke-miterlimit="10"/>
<path d="M-41.2446 448.2C-133.916 546.239 -88.1257 769.367 300.02 626.911C597.535 517.767 699.815 993.111 1014.55 1006.94C1346.07 1021.49 1639.12 426.49 2050.12 525.929" stroke="#4F4C3D" stroke-width="0.25" stroke-miterlimit="10"/>
<path d="M-41.3868 447.085C-139.135 546.239 -93.2503 778.478 296.034 631.538C594.973 518.716 698.889 998.687 1016.12 1011.97C1347.18 1025.83 1639.88 430.263 2051.35 533.546" stroke="#504D3F" stroke-width="0.25" stroke-miterlimit="10"/>
<path d="M-41.5293 445.97C-144.521 546.239 -98.47 787.636 292.048 636.188C592.434 519.713 697.964 1004.29 1017.71 1017.07C1348.44 1030.15 1640.66 434.035 2052.61 541.209" stroke="#524F40" stroke-width="0.25" stroke-miterlimit="10"/>
<path d="M-41.6711 444.855C-149.811 546.24 -103.523 796.676 288.11 640.815C589.896 520.686 697.039 1009.96 1019.3 1022.03C1349.6 1034.49 1641.42 437.808 2053.86 548.897" stroke="#535042" stroke-width="0.25" stroke-miterlimit="10"/>
<path d="M-41.8611 443.74C-155.173 546.239 -108.719 805.764 284.029 645.418C587.333 521.682 696.138 1015.46 1020.87 1027.06C1350.84 1038.93 1642.18 441.58 2055.12 556.561" stroke="#545243" stroke-width="0.25" stroke-miterlimit="10"/>
<path d="M-41.8609 442.624C-160.487 546.24 -113.843 814.851 280.067 650.092C584.771 522.655 695.26 1021.06 1022.46 1032.09C1352.05 1043.17 1642.97 445.258 2056.38 564.248" stroke="#565345" stroke-width="0.25" stroke-miterlimit="10"/>
<path d="M-42.0743 441.509C-165.73 546.239 -118.992 823.938 276.058 654.742C582.114 523.557 694.287 1026.68 1024.02 1037.12C1353.19 1047.54 1643.73 449.102 2057.64 571.936" stroke="#575546" stroke-width="0.25" stroke-miterlimit="10"/>
<path d="M-42.2167 440.513C-171.021 546.358 -124.496 832.409 272.096 659.488C579.386 524.245 693.362 1033.04 1025.61 1042.27C1354.44 1052.64 1644.48 452.993 2058.89 579.718" stroke="#595648" stroke-width="0.25" stroke-miterlimit="10"/>
<path d="M-42.3594 439.279C-176.336 546.239 -129.645 841.496 268.11 664.02C576.87 525.123 692.436 1038.43 1027.18 1047.18C1355.56 1056.75 1645.27 456.647 2060.2 587.287" stroke="#5A5849" stroke-width="0.25" stroke-miterlimit="10"/>
<path d="M-42.502 438.14C-181.627 546.24 -134.675 850.821 264.195 668.646C574.403 526.285 691.606 1043.89 1028.84 1052.21C1356.96 1060.97 1646.1 460.42 2061.48 594.951" stroke="#5B594B" stroke-width="0.25" stroke-miterlimit="10"/>
<path d="M-42.6441 437.048C-186.941 546.192 -139.775 860.074 260.138 673.273C571.817 527.353 690.633 1049.37 1030.33 1057.24C1358.1 1065.17 1646.79 464.239 2062.57 602.638" stroke="#5D5B4C" stroke-width="0.25" stroke-miterlimit="10"/>
<path d="M-42.7867 435.91C-192.256 546.24 -144.805 869.328 256.152 677.924C569.326 528.444 689.708 1054.85 1031.97 1062.3C1359.38 1069.42 1647.62 467.965 2064.02 610.326" stroke="#5E5C4E" stroke-width="0.25" stroke-miterlimit="10"/>
<path d="M2247.63 412.04C1796.85 84.6098 1645.41 337.23 1298.81 314.926C1059.18 299.48 1010.66 190.313 794.123 171.616C446.097 141.554 190.647 468.985 99.5652 912.796" stroke="#181100" stroke-width="0.25" stroke-miterlimit="10"/>
<path d="M2244.99 419.158C1798.6 88.24 1643.08 332.769 1296.24 312.388C1057.88 298.389 1008.31 192.258 792.177 173.585C444.958 143.618 189.887 464.643 97.1449 905.559" stroke="#1A1301" stroke-width="0.25" stroke-miterlimit="10"/>
<path d="M2242.36 426.277C1800.38 91.728 1640.78 328.237 1293.47 309.801C1056.41 297.203 1005.78 194.133 790.019 175.531C443.819 145.707 189.129 460.301 94.7019 898.156" stroke="#1C1503" stroke-width="0.25" stroke-miterlimit="10"/>
<path d="M2239.75 433.395C1802.14 95.4057 1638.51 323.729 1290.74 307.239C1054.98 296.064 1003.29 196.031 787.931 177.477C442.68 147.795 188.274 455.959 92.2816 890.825" stroke="#1E1704" stroke-width="0.25" stroke-miterlimit="10"/>
<path d="M2237.12 440.513C1803.97 99.0833 1636.23 319.316 1288.11 304.771C1053.65 294.972 1000.89 198.001 785.914 179.541C441.565 149.882 187.61 451.617 89.8376 883.493" stroke="#1F1806" stroke-width="0.25" stroke-miterlimit="10"/>
<path d="M2234.48 447.749C1805.67 102.713 1633.95 314.879 1285.47 302.233C1052.35 293.81 998.397 199.97 783.921 181.51C440.426 151.97 186.85 447.275 87.4178 876.161" stroke="#211A07" stroke-width="0.25" stroke-miterlimit="10"/>
<path d="M2231.85 454.891C1807.43 106.32 1631.6 310.3 1282.84 299.694C1051.04 292.576 996.073 201.915 781.928 183.432C439.288 154.058 186.092 442.885 84.9744 868.83" stroke="#231C09" stroke-width="0.25" stroke-miterlimit="10"/>
<path d="M2229.22 462.033C1809.28 109.95 1629.44 305.792 1280.06 297.155C1049.6 291.461 993.534 203.837 779.769 185.496C438.149 156.146 185.332 438.567 82.5541 861.498" stroke="#251E0A" stroke-width="0.25" stroke-miterlimit="10"/>
<path d="M2226.58 469.175C1811.08 113.557 1627.21 301.26 1277.41 294.616C1048.27 290.274 991.09 205.759 777.728 187.466C437.01 158.234 184.596 434.225 80.2051 854.19" stroke="#27200C" stroke-width="0.25" stroke-miterlimit="10"/>
<path d="M2223.9 476.316C1812.65 117.187 1624.91 296.752 1274.65 292.077C1046.89 289.064 988.551 207.705 775.593 189.459C435.894 160.322 183.79 429.883 77.6902 846.835" stroke="#29220D" stroke-width="0.25" stroke-miterlimit="10"/>
<path d="M2221.34 483.458C1814.48 120.793 1622.78 292.196 1272.04 289.539C1045.59 287.83 986.179 209.627 773.624 191.428C434.756 162.41 183.031 425.541 75.2467 839.503" stroke="#2B240E" stroke-width="0.25" stroke-miterlimit="10"/>
<path d="M2218.71 490.6C1816.25 124.424 1620.57 287.641 1269.36 287.024C1044.26 286.597 983.735 211.549 771.583 193.421C433.617 164.498 182.271 421.199 72.8264 832.195" stroke="#2C2510" stroke-width="0.25" stroke-miterlimit="10"/>
<path d="M2216.07 497.742C1818.01 128.03 1618.39 283.085 1266.68 284.485C1042.93 285.363 981.292 213.494 769.52 195.391C432.479 166.586 181.513 416.786 70.3834 824.887" stroke="#2E2711" stroke-width="0.25" stroke-miterlimit="10"/>
<path d="M2213.44 504.907C1819.77 131.66 1616.2 278.529 1264 281.875C1041.6 284.01 978.824 215.44 767.479 197.312C431.34 168.674 180.753 412.515 67.9631 817.532" stroke="#302913" stroke-width="0.25" stroke-miterlimit="10"/>
<path d="M2210.83 512.049C1821.55 135.29 1614.02 273.95 1261.32 279.407C1040.3 282.824 976.38 217.362 765.463 199.377C430.272 170.762 180.041 408.173 65.5667 810.201" stroke="#322B14" stroke-width="0.25" stroke-miterlimit="10"/>
<path d="M2208.2 519.191C1823.3 138.897 1611.79 269.371 1258.66 276.797C1038.99 281.543 973.96 219.212 763.375 201.275C429.086 172.803 179.235 403.76 63.0994 802.798" stroke="#342D16" stroke-width="0.25" stroke-miterlimit="10"/>
<path d="M2205.56 526.333C1825.06 142.527 1609.7 264.768 1255.91 274.425C1037.64 280.333 971.422 221.3 761.264 203.434C427.9 174.914 178.476 399.465 60.6559 795.537" stroke="#362F17" stroke-width="0.25" stroke-miterlimit="10"/>
<path d="M2202.93 533.474C1826.84 146.134 1607.57 260.189 1253.3 271.791C1036.36 278.909 969.026 223.151 759.27 205.356C426.808 177.05 177.716 395.171 58.2356 788.253" stroke="#373019" stroke-width="0.25" stroke-miterlimit="10"/>
<path d="M2200.3 540.616C1828.59 149.764 1605.43 255.443 1250.62 269.252C1035.08 277.58 966.582 225.073 757.135 207.301C425.669 179.09 176.957 390.686 55.8159 780.874" stroke="#39321A" stroke-width="0.25" stroke-miterlimit="10"/>
<path d="M2197.66 547.758C1830.35 153.418 1603.3 250.911 1247.94 266.713C1033.77 276.204 964.138 227.018 755.166 209.271C424.53 181.178 176.269 386.439 53.3718 773.543" stroke="#3B341B" stroke-width="0.25" stroke-miterlimit="10"/>
<path d="M2195.05 554.9C1832.06 157 1601.19 246.261 1245.26 264.175C1032.47 274.899 961.695 228.94 753.126 211.264C423.344 183.266 175.439 382.097 50.8575 766.235" stroke="#3D361D" stroke-width="0.25" stroke-miterlimit="10"/>
<path d="M2192.42 562.042C1833.88 160.536 1599.07 241.611 1242.58 261.636C1031.19 273.499 959.251 230.791 751.085 213.233C422.276 185.354 174.679 377.755 48.5081 758.951" stroke="#3F381E" stroke-width="0.25" stroke-miterlimit="10"/>
<path d="M2189.79 569.183C1835.64 164.237 1596.96 237.007 1239.9 259.097C1029.9 272.147 956.783 232.808 749.021 215.226C421.137 187.442 173.896 373.413 46.0883 751.572" stroke="#413A20" stroke-width="0.25" stroke-miterlimit="10"/>
<path d="M2187.15 576.325C1837.42 167.844 1594.88 232.286 1237.24 256.558C1028.62 270.795 954.34 234.73 746.981 217.219C419.999 189.53 173.138 369.071 43.5503 744.216" stroke="#433C21" stroke-width="0.25" stroke-miterlimit="10"/>
<path d="M2184.52 583.467C1839.17 171.474 1592.81 227.564 1234.56 254.02C1027.34 269.347 951.896 236.675 744.917 219.189C418.86 191.618 172.378 364.729 41.1775 736.908" stroke="#443D23" stroke-width="0.25" stroke-miterlimit="10"/>
<path d="M2181.89 590.609C1840.93 175.08 1590.7 222.842 1231.88 251.504C1026.06 267.923 949.547 238.597 742.876 221.182C417.745 193.753 171.666 360.387 38.8047 729.577" stroke="#463F24" stroke-width="0.25" stroke-miterlimit="10"/>
<path d="M2179.28 597.75C1842.71 178.711 1588.52 218.121 1229.2 248.966C1024.78 266.476 946.985 240.519 740.836 223.151C416.606 195.794 170.86 356.045 36.4325 722.245" stroke="#484126" stroke-width="0.25" stroke-miterlimit="10"/>
<path d="M2176.64 604.892C1844.49 182.341 1586.55 213.399 1226.52 246.427C1023.4 264.934 944.541 242.465 738.7 225.144C415.467 197.882 170.1 351.679 33.9172 714.914" stroke="#4A4327" stroke-width="0.25" stroke-miterlimit="10"/>
<path d="M2174.08 612.034C1846.29 185.947 1584.58 208.678 1223.91 243.888C1022.24 263.582 942.169 244.386 736.803 227.113C414.329 199.97 169.294 347.337 31.4974 707.582" stroke="#4C4528" stroke-width="0.25" stroke-miterlimit="10"/>
<path d="M2171.38 619.176C1847.98 189.577 1582.44 203.956 1221.15 241.349C1020.96 262.11 939.654 246.332 734.786 229.106C413.19 202.034 168.582 342.995 29.0535 700.25" stroke="#4E472A" stroke-width="0.25" stroke-miterlimit="10"/>
<path d="M2168.74 626.318C1849.76 193.184 1580.35 199.234 1218.5 238.811C1019.68 260.616 937.186 248.302 732.627 231.1C412.075 204.122 167.823 338.653 26.6337 692.943" stroke="#50492B" stroke-width="0.25" stroke-miterlimit="10"/>
<path d="M2166.13 633.459C1851.42 196.814 1578.34 194.323 1215.82 236.272C1018.42 259.121 934.742 250.176 730.586 233.069C410.935 206.21 167.063 334.311 24.1896 685.611" stroke="#514A2D" stroke-width="0.25" stroke-miterlimit="10"/>
<path d="M2163.5 640.601C1853.27 200.421 1576.2 189.506 1213.21 233.733C1017.21 257.602 932.37 252.121 728.594 235.062C409.868 208.298 166.304 329.969 21.8412 678.279" stroke="#534C2E" stroke-width="0.25" stroke-miterlimit="10"/>
<path d="M2160.86 647.743C1855.05 204.051 1574.26 184.69 1210.45 231.194C1015.91 256.06 929.855 254.043 726.458 237.031C408.658 210.362 165.545 325.627 19.3501 670.948" stroke="#554E30" stroke-width="0.25" stroke-miterlimit="10"/>
<path d="M2158.23 654.885C1856.8 207.657 1572.22 179.849 1207.77 228.656C1014.63 254.542 927.388 255.989 724.466 239.024C407.52 212.474 164.786 321.285 16.9066 663.545" stroke="#575031" stroke-width="0.25" stroke-miterlimit="10"/>
<path d="M2155.6 662.026C1858.53 211.287 1570.2 174.985 1205.09 226.117C1013.34 253.071 924.944 257.816 722.378 240.994C406.404 214.562 164.027 316.919 14.4863 656.213" stroke="#595233" stroke-width="0.25" stroke-miterlimit="10"/>
<path d="M2152.96 669.168C1860.34 214.894 1568.18 170.027 1202.41 223.578C1012.09 251.41 922.452 259.833 720.337 242.987C405.265 216.65 163.267 312.601 12.0422 648.953" stroke="#5B5434" stroke-width="0.25" stroke-miterlimit="10"/>
<path d="M2150.35 676.31C1862.09 218.524 1566.17 165.281 1199.73 221.039C1010.83 249.82 920.056 261.778 718.273 244.98C404.174 218.738 162.485 308.235 9.62256 641.621" stroke="#5D5635" stroke-width="0.25" stroke-miterlimit="10"/>
<path d="M2147.72 683.452C1863.85 222.226 1564.15 160.322 1197.07 218.524C1009.64 248.23 917.613 263.605 716.233 246.996C403.059 220.897 161.726 303.941 7.17908 634.337" stroke="#5E5737" stroke-width="0.25" stroke-miterlimit="10"/>
<path d="M2145.09 690.617C1865.65 225.761 1562.11 155.387 1194.39 215.985C1008.29 246.641 915.145 265.646 714.192 248.942C401.849 222.843 160.966 299.551 4.80627 626.982" stroke="#605938" stroke-width="0.25" stroke-miterlimit="10"/>
<path d="M2142.45 697.759C1867.38 229.344 1560.09 150.452 1191.71 213.447C1007.03 245.027 912.702 267.568 712.128 250.911C400.734 225.002 160.207 295.209 2.31519 619.65" stroke="#625B3A" stroke-width="0.25" stroke-miterlimit="10"/>
<path d="M2139.82 704.901C1869.14 232.998 1558.1 145.469 1189.03 210.908C1005.78 243.39 910.258 269.49 710.088 252.904C399.595 227.09 159.448 290.867 -0.104492 612.319" stroke="#645D3B" stroke-width="0.25" stroke-miterlimit="10"/>
<path d="M2137.21 712.043C1870.92 236.628 1556.08 140.487 1186.35 208.369C1004.52 241.753 907.814 271.435 708.024 254.874C398.456 229.178 158.688 286.525 -2.54858 604.987" stroke="#665F3D" stroke-width="0.25" stroke-miterlimit="10"/>
<path d="M2134.58 719.184C1872.77 240.234 1554.07 135.48 1183.67 205.83C1003.24 240.092 905.347 273.357 705.983 256.867C397.318 231.242 157.93 282.183 -4.96826 597.656" stroke="#68613E" stroke-width="0.25" stroke-miterlimit="10"/>
<path d="M2131.94 726.326C1874.43 243.864 1552.05 130.474 1180.99 203.244C1002.05 238.431 902.903 275.302 703.943 258.836C396.179 233.33 157.17 277.818 -7.41187 590.324" stroke="#696240" stroke-width="0.25" stroke-miterlimit="10"/>
<path d="M2129.31 733.468C1876.21 247.471 1550.11 125.42 1178.33 200.871C1000.72 236.865 900.46 277.343 701.879 260.948C395.064 235.536 156.411 273.618 -9.87915 583.111" stroke="#6B6441" stroke-width="0.25" stroke-miterlimit="10"/>
<path d="M2126.63 740.61C1877.96 251.101 1548.02 120.366 1175.65 198.214C999.441 235.062 898.063 279.146 699.838 262.822C393.924 237.506 155.651 269.157 -12.2761 575.756" stroke="#6D6642" stroke-width="0.25" stroke-miterlimit="10"/>
<path d="M2124.04 747.751C1879.72 254.708 1546 115.265 1172.87 195.675C998.089 233.353 895.453 281.092 697.679 264.792C392.691 239.594 154.797 264.792 -14.7909 568.329" stroke="#6F6844" stroke-width="0.25" stroke-miterlimit="10"/>
<path d="M2121.43 754.893C1881.5 258.338 1543.98 110.164 1170.29 193.137C996.903 231.645 893.105 283.014 695.782 266.69C391.695 241.587 154.181 260.355 -17.0918 560.903" stroke="#716A45" stroke-width="0.25" stroke-miterlimit="10"/>
<path d="M2118.8 762.035C1883.26 261.944 1541.94 105.039 1167.61 190.598C995.646 229.913 890.661 284.959 693.623 268.754C390.509 243.77 153.374 256.108 -19.5591 553.69" stroke="#736C47" stroke-width="0.25" stroke-miterlimit="10"/>
<path d="M2116.17 769.177C1885.01 265.575 1539.93 99.8901 1164.93 188.059C994.364 228.181 888.17 286.881 691.63 270.747C389.393 245.953 152.686 251.766 -21.9794 546.358" stroke="#756E48" stroke-width="0.25" stroke-miterlimit="10"/>
<path d="M2113.53 776.319C1886.79 269.181 1537.89 94.7176 1162.15 185.52C993.083 226.425 885.797 288.803 689.589 272.716C388.278 247.946 151.832 247.424 -24.5417 539.027" stroke="#766F4A" stroke-width="0.25" stroke-miterlimit="10"/>
<path d="M2110.9 783.46C1888.55 272.811 1535.87 89.5213 1159.56 183.005C991.826 224.669 883.307 290.749 687.431 274.709C387.116 250.033 151.073 243.081 -26.8427 531.695" stroke="#78714B" stroke-width="0.25" stroke-miterlimit="10"/>
<path d="M2108.27 790.602C1890.3 276.441 1533.83 84.3015 1156.88 180.466C990.521 222.914 880.839 292.671 685.461 276.702C385.977 252.121 150.314 238.834 -29.2867 524.363" stroke="#7A734D" stroke-width="0.25" stroke-miterlimit="10"/>
<path d="M2105.66 797.744C1892.13 280.048 1531.77 79.0578 1154.27 177.928C989.31 221.11 878.466 294.616 683.492 278.672C384.838 254.209 149.554 234.397 -31.707 517.032" stroke="#7C754E" stroke-width="0.25" stroke-miterlimit="10"/>
<path d="M2103.02 804.886C1893.84 283.678 1529.73 73.7905 1151.52 175.389C987.935 219.331 875.951 296.538 681.357 280.665C383.723 256.297 148.795 230.056 -34.1505 509.7" stroke="#7E7750" stroke-width="0.25" stroke-miterlimit="10"/>
<path d="M2100.39 812.028C1895.59 287.285 1527.66 68.4757 1148.86 172.85C986.677 217.48 873.508 298.46 679.388 282.634C382.584 258.385 147.941 225.713 -36.5703 502.369" stroke="#807951" stroke-width="0.25" stroke-miterlimit="10"/>
<path d="M2097.76 819.169C1897.37 291.033 1525.6 63.2556 1146.18 170.311C985.443 215.724 871.064 300.524 677.276 284.627C381.445 260.473 147.277 221.371 -39.0143 495.084" stroke="#827B52" stroke-width="0.25" stroke-miterlimit="10"/>
<path d="M2095.12 826.311C1899.13 294.521 1523.53 57.8223 1143.5 167.772C984.091 213.897 868.62 302.327 675.235 286.597C380.307 262.561 146.518 217.006 -41.4341 487.729" stroke="#837C54" stroke-width="0.25" stroke-miterlimit="10"/>
<path d="M2092.51 833.453C1900.88 298.152 1521.45 52.46 1140.82 165.281C982.81 212.118 866.177 304.321 673.195 288.661C379.168 264.626 145.759 212.735 -43.8776 480.397" stroke="#857E55" stroke-width="0.25" stroke-miterlimit="10"/>
<path d="M2089.88 840.595C1902.66 301.758 1519.26 47.074 1138.16 162.695C981.576 210.149 863.709 306.195 671.131 290.559C378.076 266.713 144.999 208.322 -46.2979 473.066" stroke="#878057" stroke-width="0.25" stroke-miterlimit="10"/>
<path d="M2087.25 847.737C1904.42 305.388 1517.27 41.6406 1135.48 160.156C980.2 208.369 861.266 308.117 669.091 292.552C376.914 268.825 144.24 203.98 -48.7413 465.758" stroke="#898258" stroke-width="0.25" stroke-miterlimit="10"/>
<path d="M2084.61 854.878C1906.17 308.995 1515.21 36.3021 1132.8 157.617C978.895 206.495 858.822 310.062 667.027 294.545C375.775 270.818 143.481 199.638 -51.1611 458.403" stroke="#8B845A" stroke-width="0.25" stroke-miterlimit="10"/>
<path d="M2081.98 862.02C1907.95 312.625 1513.02 30.7263 1130.17 155.079C977.614 204.62 856.426 311.984 665.152 296.514C374.636 272.977 142.722 195.296 -53.6051 451.071" stroke="#8D865B" stroke-width="0.25" stroke-miterlimit="10"/>
<path d="M2079.35 869.186C1909.71 316.35 1510.89 25.2216 1127.44 152.635C976.262 202.841 853.911 313.977 662.946 298.602C373.497 275.16 141.962 191.048 -55.9303 443.834" stroke="#8E875D" stroke-width="0.25" stroke-miterlimit="10"/>
<path d="M2076.81 876.327C1911.54 319.862 1508.82 19.7882 1124.83 150.025C974.933 200.872 851.467 315.852 660.882 300.524C372.382 277.153 141.179 186.635 -58.4689 436.408" stroke="#90895E" stroke-width="0.25" stroke-miterlimit="10"/>
<path d="M2074.1 883.469C1913.24 323.516 1506.59 14.1411 1122.08 147.486C973.581 198.973 849.023 317.774 658.842 302.47C371.244 279.17 140.42 182.27 -60.8412 429.076" stroke="#928B5F" stroke-width="0.25" stroke-miterlimit="10"/>
<path d="M2071.47 890.611C1915 327.098 1504.41 8.68399 1119.4 144.947C972.3 197.146 846.556 319.719 656.754 304.439C370.105 281.329 139.661 177.928 -63.2139 421.745" stroke="#948D61" stroke-width="0.25" stroke-miterlimit="10"/>
<path d="M2068.83 897.753C1916.76 330.681 1502.23 2.94207 1116.74 142.408C970.947 195.153 844.136 321.641 654.737 306.432C368.966 283.417 138.902 173.562 -65.7524 414.413" stroke="#968F62" stroke-width="0.25" stroke-miterlimit="10"/>
<path d="M2066.2 904.894C1918.53 334.335 1500.02 -2.70491 1114.06 139.87C969.595 193.231 841.668 323.587 652.696 308.33C367.827 285.505 138.142 169.22 -68.1727 407.105" stroke="#989164" stroke-width="0.25" stroke-miterlimit="10"/>
<path d="M2063.59 912.036C1920.22 337.965 1497.91 -8.37565 1111.38 137.331C968.266 191.286 839.225 325.509 650.632 310.395C366.712 287.593 137.383 164.878 -70.6162 399.774" stroke="#9A9365" stroke-width="0.25" stroke-miterlimit="10"/>
<path d="M2060.96 919.178C1922.05 341.572 1495.54 -14.07 1108.82 134.792C966.914 189.34 836.781 327.43 648.545 312.388C365.573 289.681 136.624 160.536 -73.036 392.442" stroke="#9B9467" stroke-width="0.25" stroke-miterlimit="10"/>
<path d="M2058.32 926.32C1923.83 345.202 1493.33 -19.7883 1106.02 132.253C965.562 187.395 834.338 329.376 646.528 314.357C364.435 291.745 135.865 156.194 -75.4795 385.11" stroke="#9D9668" stroke-width="0.25" stroke-miterlimit="10"/>
<path d="M2055.69 933.462C1925.58 348.808 1491.05 -25.5776 1103.33 129.691C964.091 185.449 831.87 331.369 644.487 316.35C363.295 293.833 135.106 151.852 -77.8998 377.779" stroke="#9F986A" stroke-width="0.25" stroke-miterlimit="10"/>
<path d="M2053.08 940.603C1927.34 352.438 1488.75 -31.367 1100.65 127.176C962.833 183.48 829.426 333.22 642.447 318.319C362.156 295.921 134.346 147.486 -80.3439 370.518" stroke="#A19A6B" stroke-width="0.25" stroke-miterlimit="10"/>
<path d="M2050.42 947.745C1929.12 356.045 1486.45 -37.1799 1098 124.637C961.457 181.582 826.982 335.165 640.383 320.312C361.042 298.009 133.706 143.168 -82.7635 363.116" stroke="#A39C6C" stroke-width="0.25" stroke-miterlimit="10"/>
<path d="M2047.81 954.887C1930.87 359.675 1484.13 -43.0406 1095.32 122.098C960.081 179.541 824.539 337.087 638.343 322.282C359.903 300.097 132.828 138.826 -85.2783 355.784" stroke="#A59E6E" stroke-width="0.25" stroke-miterlimit="10"/>
<path d="M2045.18 962.029C1932.63 363.282 1481.75 -48.9248 1092.63 119.56C958.681 177.572 822.166 339.033 636.279 324.275C358.764 302.185 132.069 134.436 -87.6273 348.452" stroke="#A7A06F" stroke-width="0.25" stroke-miterlimit="10"/>
<path d="M2042.55 969.17C1934.45 366.959 1479.38 -54.8328 1089.95 117.045C957.282 175.579 819.628 340.86 634.309 326.268C357.625 304.273 131.333 130.142 -90.0709 341.145" stroke="#A8A171" stroke-width="0.25" stroke-miterlimit="10"/>
<path d="M2039.91 976.312C1936.16 370.542 1476.98 -60.7882 1087.27 114.506C955.882 173.586 817.184 342.877 632.198 328.237C356.486 306.361 130.55 125.776 -92.4911 333.742" stroke="#AAA372" stroke-width="0.25" stroke-miterlimit="10"/>
<path d="M2037.28 983.454C1937.92 374.077 1474.56 -66.7674 1084.59 111.967C954.482 171.593 814.74 344.822 630.134 330.254C355.371 308.473 129.767 121.458 -94.9347 326.505" stroke="#ACA574" stroke-width="0.25" stroke-miterlimit="10"/>
<path d="M2034.65 990.596C1939.75 377.779 1472.12 -72.7704 1081.91 109.428C953.059 169.599 812.273 346.697 628.094 332.199C354.351 310.537 128.961 117.092 -97.3544 319.15" stroke="#AEA775" stroke-width="0.25" stroke-miterlimit="10"/>
<path d="M2032.04 997.738C1941.57 381.385 1469.63 -78.8207 1079.25 106.889C951.659 167.654 809.877 348.69 626.053 334.193C353.212 312.625 128.249 112.75 -99.798 311.818" stroke="#B0A977" stroke-width="0.25" stroke-miterlimit="10"/>
<path d="M2029.36 1004.88C1943.21 385.015 1467.07 -84.8948 1076.57 104.351C950.211 165.566 807.504 350.612 623.989 336.114C351.979 314.76 127.49 108.337 -102.218 304.487" stroke="#B2AB78" stroke-width="0.25" stroke-miterlimit="10"/>
<path d="M2026.77 1012.02C1944.97 388.622 1464.69 -90.9688 1073.89 101.812C948.788 163.502 804.942 352.533 621.949 338.155C350.816 316.801 126.731 104.066 -104.638 297.155" stroke="#B4AD79" stroke-width="0.25" stroke-miterlimit="10"/>
<path d="M2024.14 1019.16C1946.74 392.252 1462.04 -97.1377 1071.21 99.2731C947.341 161.532 802.498 354.479 619.884 340.148C349.606 318.889 125.971 99.724 -107.082 289.823" stroke="#B5AE7B" stroke-width="0.25" stroke-miterlimit="10"/>
<path d="M2021.5 1026.3C1948.5 395.859 1459.45 -103.33 1068.48 96.7343C945.845 159.492 799.982 356.401 617.701 342.117C348.419 320.953 125.069 95.3581 -109.645 282.492" stroke="#B7B07C" stroke-width="0.25" stroke-miterlimit="10"/>
<path d="M2018.89 1033.45C1950.26 399.489 1456.84 -109.523 1065.85 94.1006C944.422 157.475 797.587 358.346 615.803 344.11C347.423 323.041 124.453 91.0398 -111.946 275.184" stroke="#B9B27E" stroke-width="0.25" stroke-miterlimit="10"/>
<path d="M2016.26 1040.59C1952.04 403.095 1454.18 -115.763 1063.17 91.7279C942.952 155.506 795.072 360.34 613.74 346.151C346.285 325.2 123.694 86.769 -114.365 267.852" stroke="#BBB47F" stroke-width="0.25" stroke-miterlimit="10"/>
<path d="M2013.63 1047.75C1953.79 406.725 1451.5 -121.98 1060.49 89.1891C941.48 153.418 792.699 362.214 611.699 347.978C345.145 327.122 122.958 82.2372 -116.81 260.426" stroke="#BDB681" stroke-width="0.25" stroke-miterlimit="10"/>
<path d="M2010.99 1054.9C1955.55 410.332 1448.7 -128.339 1057.83 86.5793C940.009 151.354 790.232 364.183 609.635 349.947C343.911 329.21 122.175 77.8952 -119.23 253.094" stroke="#BFB882" stroke-width="0.25" stroke-miterlimit="10"/>
<path d="M2008.36 1062.16C1957.33 414.081 1446.07 -134.555 1055.15 84.1591C938.515 149.432 787.788 366.176 607.595 352.273C342.892 331.369 121.416 73.6481 -121.673 245.952" stroke="#C0B984" stroke-width="0.25" stroke-miterlimit="10"/>
<path d="M2005.63 1069.27C1959.08 417.592 1443.34 -141.032 1052.47 81.5254C936.996 147.272 785.344 368.003 605.554 354.028C341.753 333.481 120.657 69.3061 -124.093 238.526" stroke="#C2BB85" stroke-width="0.25" stroke-miterlimit="10"/>
<path d="M2003.12 1076.39C1960.84 421.199 1440.42 -147.439 1049.79 78.9866C935.62 145.232 782.901 369.925 603.466 355.998C340.59 335.569 119.874 64.9641 -126.56 231.194" stroke="#C4BD86" stroke-width="0.25" stroke-miterlimit="10"/>
<path d="M2000.48 1083.51C1962.62 424.829 1437.58 -153.869 1047.13 76.4478C934.007 143.168 780.457 371.847 601.474 357.991C339.476 337.657 119.115 60.622 -128.956 223.863" stroke="#C6BF88" stroke-width="0.25" stroke-miterlimit="10"/>
<path d="M1997.85 1090.63C1964.37 428.436 1434.66 -160.346 1044.42 73.909C932.441 141.127 777.99 373.793 599.386 359.96C338.408 339.745 118.356 56.2563 -131.353 216.531" stroke="#C8C189" stroke-width="0.25" stroke-miterlimit="10"/>
<path d="M1995.21 1097.75C1966.13 432.066 1431.74 -166.895 1041.74 71.3703C930.875 139.182 775.546 375.715 597.345 361.953C337.221 341.833 117.596 51.938 -133.821 209.2" stroke="#CAC38B" stroke-width="0.25" stroke-miterlimit="10"/>
<path d="M1992.58 1104.86C1967.91 435.767 1428.75 -173.372 1039.09 68.8316C929.357 137.023 773.102 377.66 595.423 363.922C336.082 343.921 116.837 47.5961 -136.264 201.892" stroke="#CCC58C" stroke-width="0.25" stroke-miterlimit="10"/>
<path d="M1989.97 1111.98C1969.66 439.302 1425.74 -179.921 1036.41 66.2927C927.815 134.958 770.682 379.487 593.241 365.915C334.944 346.009 116.078 43.2302 -138.684 194.56" stroke="#CDC68E" stroke-width="0.25" stroke-miterlimit="10"/>
<path d="M1987.34 1119.1C1971.42 442.885 1422.68 -186.588 1033.72 63.6829C926.249 132.823 768.191 381.433 591.2 367.814C333.805 348.097 115.319 38.8883 -141.128 187.229" stroke="#CFC88F" stroke-width="0.25" stroke-miterlimit="10"/>
<path d="M1984.7 1126.22C1973.2 446.539 1419.62 -192.994 1031.04 61.2152C924.659 130.853 765.747 383.568 589.231 369.878C332.761 350.184 114.725 34.5462 -143.453 179.897" stroke="#D1CA91" stroke-width="0.25" stroke-miterlimit="10"/>
<path d="M1982.07 1133.46C1974.95 450.122 1416.44 -199.78 1028.32 58.629C923.046 128.742 763.256 385.324 587.025 371.823C331.48 352.201 113.729 30.1568 -146.086 172.518" stroke="#D3CC92" stroke-width="0.25" stroke-miterlimit="10"/>
<path d="M2295.22 396.784C1795.59 167.512 1673.88 629.07 1327.23 606.767C1087.6 591.32 1039.09 482.153 822.546 463.456C474.567 433.394 309.534 532.003 107.608 416.786" stroke="#151102" stroke-width="0.25" stroke-miterlimit="10"/>
<path d="M2295.29 401.719C1799.15 168.579 1674.33 627.717 1327.3 608C1087.68 594.073 1037.85 485.688 821.953 466.28C474.14 434.866 308.656 528.848 107.062 415.671" stroke="#171303" stroke-width="0.25" stroke-miterlimit="10"/>
<path d="M2295.36 406.678C1802.71 169.623 1674.78 626.365 1327.09 609.258C1087.7 596.825 1036.36 489.224 820.837 469.103C473.689 436.337 307.731 525.668 106.493 414.532" stroke="#191505" stroke-width="0.25" stroke-miterlimit="10"/>
<path d="M2295.43 411.613C1806.34 170.691 1675.23 624.989 1327.09 610.492C1087.79 599.483 1035.05 492.712 820.031 471.927C473.333 437.831 306.9 522.513 105.995 413.44" stroke="#1B1706" stroke-width="0.25" stroke-miterlimit="10"/>
<path d="M2295.51 416.572C1809.83 171.735 1675.66 624.538 1327.09 611.725C1087.91 602.947 1033.77 496.294 819.367 474.75C472.978 439.302 306.046 519.333 105.449 412.325" stroke="#1D1808" stroke-width="0.25" stroke-miterlimit="10"/>
<path d="M2295.58 421.531C1813.46 172.803 1676.11 623.399 1326.92 612.983C1087.87 605.865 1032.32 499.83 818.346 477.598C472.503 440.797 305.168 516.154 104.927 411.163" stroke="#1E1A09" stroke-width="0.25" stroke-miterlimit="10"/>
<path d="M2295.65 426.443C1816.94 173.87 1676.56 622.236 1326.85 614.217C1087.94 608.736 1030.95 503.365 817.492 480.421C472.076 442.268 304.314 512.998 104.381 410.095" stroke="#201C0B" stroke-width="0.25" stroke-miterlimit="10"/>
<path d="M2295.72 431.401C1820.5 174.914 1677.01 621.216 1326.78 615.474C1087.98 611.631 1029.6 506.948 816.638 483.221C471.672 443.716 303.436 509.795 103.835 408.956" stroke="#221E0C" stroke-width="0.25" stroke-miterlimit="10"/>
<path d="M2295.79 436.337C1824.06 175.982 1677.46 619.935 1326.71 616.661C1088.03 614.454 1028.22 510.388 815.784 486.021C471.269 445.187 302.583 506.616 103.314 407.722" stroke="#24200D" stroke-width="0.25" stroke-miterlimit="10"/>
<path d="M2295.86 441.272C1827.69 177.145 1677.94 618.772 1326.64 617.942C1088.1 617.396 1026.8 514.422 814.93 488.892C470.771 447.441 301.705 503.484 102.863 406.749" stroke="#26220F" stroke-width="0.25" stroke-miterlimit="10"/>
<path d="M2295.93 446.231C1831.18 178.117 1678.39 617.61 1326.57 619.199C1088.17 620.267 1025.42 518.004 814.099 491.739C470.367 449.031 300.85 500.328 102.341 405.634" stroke="#282410" stroke-width="0.25" stroke-miterlimit="10"/>
<path d="M2295.98 451.166C1834.81 179.161 1678.86 616.424 1326.49 620.433C1088.22 623.138 1024.04 521.587 813.221 494.681C469.917 450.668 299.972 497.267 101.7 404.638" stroke="#2A2512" stroke-width="0.25" stroke-miterlimit="10"/>
<path d="M2296.05 456.101C1838.3 180.205 1679.34 615.261 1326.42 621.691C1088.29 626.009 1022.74 525.17 812.367 497.386C469.49 452.115 299.095 493.993 101.155 403.428" stroke="#2C2713" stroke-width="0.25" stroke-miterlimit="10"/>
<path d="M2296.12 461.06C1841.93 181.273 1679.81 614.074 1326.35 622.925C1088.36 628.88 1021.32 528.729 811.514 500.209C469.063 453.657 298.217 490.719 100.609 402.312" stroke="#2D2915" stroke-width="0.25" stroke-miterlimit="10"/>
<path d="M2296.19 465.995C1845.41 182.341 1680.29 612.888 1326.28 624.158C1088.44 631.751 1019.94 532.312 810.683 503.151C468.636 455.199 297.411 487.634 100.087 401.197" stroke="#2F2B16" stroke-width="0.25" stroke-miterlimit="10"/>
<path d="M2296.27 470.93C1849.04 183.385 1680.76 611.702 1326.21 625.416C1088.51 634.598 1018.66 535.895 809.877 505.88C468.233 456.742 296.485 484.478 99.5419 400.177" stroke="#312D17" stroke-width="0.25" stroke-miterlimit="10"/>
<path d="M2296.34 475.889C1852.53 184.453 1681.24 610.515 1326.14 626.65C1088.58 637.469 1017.19 539.454 808.928 508.704C467.782 458.284 295.631 481.299 98.9958 398.967" stroke="#332F19" stroke-width="0.25" stroke-miterlimit="10"/>
<path d="M2296.41 480.848C1856.09 185.52 1681.73 609.329 1326.04 627.955C1088.62 640.364 1015.79 543.084 808.097 511.574C467.354 459.85 294.753 478.143 98.4736 397.804" stroke="#35301A" stroke-width="0.25" stroke-miterlimit="10"/>
<path d="M2296.48 485.76C1859.65 186.564 1682.21 608.095 1326.11 629.141C1088.86 643.164 1014.55 546.595 807.385 514.351C467.046 461.369 293.994 474.964 97.9993 396.737" stroke="#37321C" stroke-width="0.25" stroke-miterlimit="10"/>
<path d="M2296.55 490.719C1863.28 187.632 1682.68 606.885 1325.9 630.327C1088.79 645.963 1013.06 550.13 806.318 517.126C466.5 462.911 293.021 471.808 97.3826 395.621" stroke="#39341D" stroke-width="0.25" stroke-miterlimit="10"/>
<path d="M2296.62 495.654C1866.77 188.676 1683.18 605.675 1325.83 631.632C1088.86 648.834 1011.68 553.737 805.558 520.116C466.073 464.548 292.143 468.724 96.8602 394.601" stroke="#3B361F" stroke-width="0.25" stroke-miterlimit="10"/>
<path d="M2296.67 500.589C1870.33 189.767 1683.68 604.442 1325.76 632.866C1088.96 651.682 1010.21 557.32 804.704 522.845C465.646 465.9 291.265 465.473 96.3147 393.391" stroke="#3D3820" stroke-width="0.25" stroke-miterlimit="10"/>
<path d="M2296.74 505.548C1873.88 190.811 1684.15 603.231 1325.69 634.124C1089.03 654.505 1008.93 560.879 803.731 525.668C465.219 467.538 290.411 462.294 95.7454 392.276" stroke="#3E3A21" stroke-width="0.25" stroke-miterlimit="10"/>
<path d="M2296.81 510.483C1877.51 191.855 1684.65 601.998 1325.62 635.357C1089.1 657.352 1007.56 564.438 803.02 528.587C464.792 468.985 289.534 459.114 95.2474 391.161" stroke="#403C23" stroke-width="0.25" stroke-miterlimit="10"/>
<path d="M2296.88 515.418C1881.03 192.923 1685.15 600.835 1325.55 636.615C1089.17 660.176 1006.2 568.021 802.166 531.315C464.365 470.598 288.68 455.959 94.7019 390.046" stroke="#423D24" stroke-width="0.25" stroke-miterlimit="10"/>
<path d="M2296.95 520.377C1884.63 193.967 1685.62 599.482 1325.47 637.849C1089.27 662.999 1004.83 571.58 801.312 534.162C463.938 472.117 287.92 452.779 94.1558 388.93" stroke="#443F26" stroke-width="0.25" stroke-miterlimit="10"/>
<path d="M2297.02 525.312C1888.14 195.035 1686.12 598.272 1325.4 639.083C1089.34 665.799 1003.45 575.139 800.457 537.057C463.487 473.73 286.924 449.624 93.634 387.815" stroke="#464127" stroke-width="0.25" stroke-miterlimit="10"/>
<path d="M2297.1 530.248C1891.75 196.126 1686.62 597.11 1325.33 640.34C1089.43 668.623 1002.07 578.65 799.603 539.81C463.084 475.178 286.069 446.444 93.088 386.7" stroke="#484328" stroke-width="0.25" stroke-miterlimit="10"/>
<path d="M2297.17 535.206C1895.26 197.146 1687.12 595.757 1325.26 641.574C1089.5 671.422 1000.7 582.257 798.749 542.633C462.657 476.696 285.192 443.289 92.5425 385.585" stroke="#4A452A" stroke-width="0.25" stroke-miterlimit="10"/>
<path d="M2297.24 540.165C1898.87 198.214 1687.71 594.5 1325.19 642.831C1089.57 674.246 999.323 585.887 797.895 545.551C462.23 478.309 284.314 440.204 92.0203 384.565" stroke="#4C472B" stroke-width="0.25" stroke-miterlimit="10"/>
<path d="M2297.31 545.101C1902.38 199.258 1688.11 593.219 1325.12 644.065C1089.67 677.046 997.946 589.375 797.041 548.304C461.802 479.757 283.46 436.93 91.4746 383.355" stroke="#4D492D" stroke-width="0.25" stroke-miterlimit="10"/>
<path d="M2297.45 550.036C1905.98 200.326 1688.68 591.937 1325.12 645.299C1089.81 679.845 996.642 592.934 796.282 551.127C461.352 481.275 282.582 433.774 91.0005 382.24" stroke="#4F4A2E" stroke-width="0.25" stroke-miterlimit="10"/>
<path d="M2297.45 554.971C1909.52 201.441 1689.13 590.68 1325 646.557C1089.86 682.645 995.218 596.493 795.38 554.022C460.853 482.841 281.751 430.642 90.4307 381.196" stroke="#514C30" stroke-width="0.25" stroke-miterlimit="10"/>
<path d="M2297.45 559.93C1913.1 202.437 1689.56 589.375 1324.86 647.719C1089.84 685.421 993.819 600.028 794.503 556.774C460.498 484.289 280.85 427.439 89.8618 380.009" stroke="#534E31" stroke-width="0.25" stroke-miterlimit="10"/>
<path d="M2297.57 564.865C1916.61 203.505 1690.2 588.094 1324.83 649.048C1089.95 688.221 992.443 603.587 793.648 559.598C460.071 485.807 279.972 424.355 89.3396 378.894" stroke="#555032" stroke-width="0.25" stroke-miterlimit="10"/>
<path d="M2297.64 569.8C1920.22 204.573 1690.61 586.812 1324.72 650.282C1090.02 690.997 991.019 607.146 792.747 562.492C459.644 487.326 279.118 421.104 88.7941 377.802" stroke="#575234" stroke-width="0.25" stroke-miterlimit="10"/>
<path d="M2297.71 574.759C1923.73 205.617 1691.1 585.507 1324.71 651.516C1090.17 693.773 989.714 610.682 791.964 565.268C459.217 488.844 278.24 417.925 88.248 376.687" stroke="#595435" stroke-width="0.25" stroke-miterlimit="10"/>
<path d="M2297.78 579.694C1927.34 206.685 1691.6 584.202 1324.71 652.773C1090.36 696.573 988.433 614.241 791.205 568.092C458.742 490.339 277.362 414.769 87.7262 375.572" stroke="#5B5637" stroke-width="0.25" stroke-miterlimit="10"/>
<path d="M2297.86 584.629C1930.85 207.729 1692.1 582.874 1324.53 654.054C1090.31 699.373 986.938 617.847 790.232 571.01C458.363 491.952 276.508 411.685 87.1807 374.552" stroke="#5C5738" stroke-width="0.25" stroke-miterlimit="10"/>
<path d="M2297.93 589.588C1934.45 208.796 1692.58 581.569 1324.45 655.264C1090.4 702.101 985.562 621.335 789.377 573.739C457.935 493.352 275.63 408.41 86.6346 373.342" stroke="#5E593A" stroke-width="0.25" stroke-miterlimit="10"/>
<path d="M2298 594.524C1937.97 209.864 1693 580.288 1324.38 656.498C1090.48 704.877 984.21 624.894 788.524 576.586C457.508 494.847 274.776 405.255 86.1129 372.227" stroke="#605B3B" stroke-width="0.25" stroke-miterlimit="10"/>
<path d="M2298.07 599.482C1941.57 210.908 1693.57 578.935 1324.31 657.732C1090.55 707.558 982.834 628.429 787.693 579.433C457.082 496.389 273.899 402.099 85.5674 371.135" stroke="#625D3C" stroke-width="0.25" stroke-miterlimit="10"/>
<path d="M2298.14 604.418C1945.08 211.976 1694.07 577.583 1324.24 658.989C1090.64 710.405 981.458 631.965 786.839 582.233C456.655 497.86 273.021 398.919 85.0219 369.996" stroke="#645F3E" stroke-width="0.25" stroke-miterlimit="10"/>
<path d="M2298.19 609.353C1948.64 213.114 1694.57 576.135 1324.17 660.223C1090.71 713.158 980.153 635.524 785.985 585.057C456.203 499.355 272.166 395.74 84.4995 368.881" stroke="#66613F" stroke-width="0.25" stroke-miterlimit="10"/>
<path d="M2298.26 614.288C1952.2 214.087 1695.07 574.925 1324.1 661.481C1090.78 715.91 978.705 639.059 785.131 587.928C455.8 500.85 271.312 392.584 83.8827 367.766" stroke="#686241" stroke-width="0.25" stroke-miterlimit="10"/>
<path d="M2298.33 619.247C1955.81 215.107 1695.54 573.573 1324.03 662.714C1090.88 718.662 977.329 642.594 784.276 590.727C455.373 502.345 270.411 389.405 83.408 366.651" stroke="#6A6442" stroke-width="0.25" stroke-miterlimit="10"/>
<path d="M2298.4 624.182C1959.32 216.08 1696.04 572.22 1323.96 663.972C1090.95 721.415 975.954 646.129 783.423 593.551C454.947 503.84 269.557 386.249 82.8867 365.536" stroke="#6C6644" stroke-width="0.25" stroke-miterlimit="10"/>
<path d="M2298.47 629.117C1962.93 217.267 1696.54 570.868 1323.89 665.206C1091.02 724.167 974.578 649.665 782.569 596.398C454.52 505.334 268.68 383.094 82.3412 364.444" stroke="#6D6845" stroke-width="0.25" stroke-miterlimit="10"/>
<path d="M2298.54 634.076C1966.39 218.311 1697.01 569.492 1323.81 666.44C1091.09 726.896 973.225 653.2 781.715 599.198C454.092 506.805 267.825 379.89 81.8188 363.305" stroke="#6F6A46" stroke-width="0.25" stroke-miterlimit="10"/>
<path d="M2298.61 639.011C1970.04 219.378 1697.51 568.139 1323.74 667.697C1091.23 729.648 971.849 656.735 780.884 602.021C453.689 508.3 266.947 376.735 81.2728 362.214" stroke="#716C48" stroke-width="0.25" stroke-miterlimit="10"/>
<path d="M2298.69 643.947C1973.65 220.446 1697.98 566.763 1323.58 668.931C1091.07 732.377 970.378 660.271 779.935 604.869C453.262 509.771 266.069 373.556 80.7273 361.075" stroke="#736E49" stroke-width="0.25" stroke-miterlimit="10"/>
<path d="M2298.76 648.906C1977.11 221.49 1698.51 565.387 1323.65 670.26C1091.35 735.176 969.145 663.877 779.224 607.763C452.882 511.314 265.263 370.495 80.2294 360.031" stroke="#756F4B" stroke-width="0.25" stroke-miterlimit="10"/>
<path d="M2298.83 653.841C1980.67 222.558 1698.96 564.011 1323.53 671.422C1091.38 737.857 967.649 667.341 778.322 610.515C452.408 512.737 264.337 367.22 79.6595 358.845" stroke="#77714C" stroke-width="0.25" stroke-miterlimit="10"/>
<path d="M2298.87 658.8C1984.28 223.625 1699.43 562.611 1323.46 672.656C1091.45 740.562 966.368 670.877 777.468 613.339C451.98 514.208 263.459 364.065 79.1377 357.73" stroke="#79734E" stroke-width="0.25" stroke-miterlimit="10"/>
<path d="M2298.95 663.735C1987.79 224.788 1699.91 561.235 1323.39 673.914C1091.52 743.291 964.992 674.412 776.661 616.091C451.625 515.679 262.605 360.885 78.5685 356.615" stroke="#7B754F" stroke-width="0.25" stroke-miterlimit="10"/>
<path d="M2299.02 668.67C1991.4 225.737 1700.38 559.835 1323.29 675.147C1091.59 746.019 963.616 677.947 775.759 619.01C451.15 517.15 261.822 357.706 78.0461 355.499" stroke="#7C7750" stroke-width="0.25" stroke-miterlimit="10"/>
<path d="M2299.09 673.605C1994.93 226.781 1700.86 558.435 1323.22 676.405C1091.66 748.724 962.24 681.459 774.905 621.833C450.723 518.621 260.873 354.55 77.5006 354.384" stroke="#7E7952" stroke-width="0.25" stroke-miterlimit="10"/>
<path d="M2299.16 678.564C1998.49 227.754 1701.28 557.035 1323.15 677.639C1091.73 751.453 960.888 684.994 774.075 624.657C450.296 520.092 259.996 351.371 76.9551 353.269" stroke="#807B53" stroke-width="0.25" stroke-miterlimit="10"/>
<path d="M2299.23 683.499C2002.05 228.917 1701.8 555.635 1323.08 678.754C1091.78 754.039 959.512 688.387 773.221 627.361C449.893 521.445 259.118 348.097 76.4329 352.13" stroke="#827C55" stroke-width="0.25" stroke-miterlimit="10"/>
<path d="M2299.3 688.458C2005.63 229.961 1702.26 554.212 1323.01 680.154C1091.85 756.886 958.136 692.017 772.367 630.327C449.466 523.035 258.264 345.036 75.8873 351.062" stroke="#847E56" stroke-width="0.25" stroke-miterlimit="10"/>
<path d="M2299.37 693.393C2009.17 231.028 1702.73 552.788 1322.94 681.364C1091.92 759.662 956.783 695.6 771.513 633.151C449.062 524.506 257.386 341.88 75.3418 349.947" stroke="#868058" stroke-width="0.25" stroke-miterlimit="10"/>
<path d="M2299.44 698.329C2012.75 232.072 1703.2 551.364 1322.86 682.526C1091.97 762.296 955.407 699.135 770.658 635.974C448.635 525.929 256.508 338.701 74.8195 348.832" stroke="#888259" stroke-width="0.25" stroke-miterlimit="10"/>
<path d="M2299.52 703.287C2016.28 233.14 1703.66 549.941 1322.79 683.855C1092.04 765.001 954.031 702.599 769.805 638.774C448.208 527.424 255.654 335.545 74.3928 347.717" stroke="#8A845A" stroke-width="0.25" stroke-miterlimit="10"/>
<path d="M2299.59 708.222C2019.84 234.208 1704.08 548.517 1322.72 685.089C1092.09 767.682 952.608 706.135 768.95 641.621C447.805 528.871 254.705 332.366 73.7285 346.602" stroke="#8C865C" stroke-width="0.25" stroke-miterlimit="10"/>
<path d="M2299.63 713.158C2023.4 235.252 1704.56 547.07 1322.65 686.346C1092.21 770.316 951.303 709.646 768.096 644.564C447.402 530.342 253.922 329.186 73.2067 345.605" stroke="#8D875D" stroke-width="0.25" stroke-miterlimit="10"/>
<path d="M2299.82 718.117C2026.98 236.319 1705.03 545.646 1322.58 687.58C1092.21 772.997 949.951 713.158 767.242 647.245C446.88 531.79 253.044 326.031 72.6611 344.371" stroke="#8F895F" stroke-width="0.25" stroke-miterlimit="10"/>
<path d="M2299.82 723.052C2030.52 237.387 1705.48 544.199 1322.51 688.838C1092.21 775.773 948.574 716.693 766.412 650.116C446.571 533.237 252.166 322.851 72.02 343.233" stroke="#918B60" stroke-width="0.25" stroke-miterlimit="10"/>
<path d="M2299.82 727.987C2034.1 238.431 1705.89 542.752 1322.34 690.024C1092.21 778.43 947.127 720.157 765.463 652.892C446.049 534.637 251.217 319.648 71.4983 342.07" stroke="#938D62" stroke-width="0.25" stroke-miterlimit="10"/>
<path d="M2299.82 732.946C2037.54 239.428 1706.26 541.304 1322.34 691.329C1092.33 781.159 945.822 723.716 764.798 655.739C445.741 536.132 250.434 316.516 71.0474 341.026" stroke="#958F63" stroke-width="0.25" stroke-miterlimit="10"/>
<path d="M2299.99 737.881C2041.22 240.543 1706.81 539.857 1322.34 692.563C1092.44 783.864 944.541 727.228 763.897 658.586C445.385 537.579 249.604 313.36 70.5493 339.911" stroke="#979164" stroke-width="0.25" stroke-miterlimit="10"/>
<path d="M2300.06 742.816C2044.75 241.61 1707.24 538.41 1322.34 693.797C1092.56 786.545 943.236 730.739 763.114 661.433C445.053 539.026 248.821 310.276 70.0983 338.748" stroke="#999366" stroke-width="0.25" stroke-miterlimit="10"/>
<path d="M2300.13 747.775C2048.34 242.678 1707.69 536.939 1322.15 695.054C1092.49 789.226 941.765 734.251 762.236 664.209C444.507 540.474 247.824 307.025 69.434 337.68" stroke="#9B9467" stroke-width="0.25" stroke-miterlimit="10"/>
<path d="M2300.2 752.71C2051.87 243.722 1708.12 535.42 1322.08 696.288C1092.54 791.907 940.365 737.762 761.287 667.08C444.104 541.921 246.97 303.846 68.8884 336.565" stroke="#9C9669" stroke-width="0.25" stroke-miterlimit="10"/>
<path d="M2300.27 757.646C2055.45 244.79 1708.54 533.996 1322.01 697.545C1092.59 794.588 939.037 741.274 760.433 669.904C443.701 543.345 246.093 300.666 68.3667 335.355" stroke="#9E986A" stroke-width="0.25" stroke-miterlimit="10"/>
<path d="M2300.35 762.605C2058.99 245.834 1708.97 532.454 1321.92 698.779C1092.63 797.27 937.685 744.786 759.627 672.68C443.297 544.911 245.215 297.511 67.8212 334.335" stroke="#A09A6C" stroke-width="0.25" stroke-miterlimit="10"/>
<path d="M2300.39 767.54C2062.57 246.902 1709.4 531.054 1321.84 700.013C1092.66 799.951 936.308 748.297 758.748 675.575C442.894 546.216 244.361 294.332 67.2751 333.22" stroke="#A29C6D" stroke-width="0.25" stroke-miterlimit="10"/>
<path d="M2300.46 772.475C2066.11 247.969 1709.82 529.583 1321.77 701.294C1092.71 802.655 935.051 751.809 757.895 678.422C442.491 547.663 243.483 291.176 66.7533 332.105" stroke="#A49E6E" stroke-width="0.25" stroke-miterlimit="10"/>
<path d="M2300.54 777.434C2069.69 249.013 1710.25 528.088 1321.7 702.505C1092.73 805.289 933.604 755.297 757.04 681.15C442.134 549.087 242.605 287.996 66.2073 330.989" stroke="#A6A070" stroke-width="0.25" stroke-miterlimit="10"/>
<path d="M2300.61 782.369C2073.22 250.081 1710.65 526.617 1321.63 703.881C1092.78 808.089 932.251 758.927 756.186 684.164C441.707 550.629 241.75 284.959 65.78 329.993" stroke="#A8A171" stroke-width="0.25" stroke-miterlimit="10"/>
<path d="M2300.68 787.304C2076.78 251.077 1711.08 525.123 1321.56 704.996C1092.8 810.651 930.875 762.32 755.308 686.868C441.304 552.029 240.873 281.661 65.14 328.759" stroke="#AAA373" stroke-width="0.25" stroke-miterlimit="10"/>
<path d="M2300.75 792.263C2080.34 252.193 1711.44 523.557 1321.49 706.253C1092.82 813.333 929.523 765.831 754.454 689.645C440.901 553.381 240.019 278.506 64.5939 327.644" stroke="#ABA574" stroke-width="0.25" stroke-miterlimit="10"/>
<path d="M2300.82 797.198C2083.92 253.26 1711.89 522.133 1321.42 707.487C1092.85 815.966 928.171 769.319 753.624 692.539C440.521 554.805 239.141 275.326 64.0483 326.624" stroke="#ADA775" stroke-width="0.25" stroke-miterlimit="10"/>
<path d="M2300.89 802.134C2087.36 254.304 1712.29 520.638 1321.35 708.721C1092.87 818.647 926.819 772.783 752.77 695.363C440.118 556.228 238.263 272.052 63.5266 325.437" stroke="#AFA977" stroke-width="0.25" stroke-miterlimit="10"/>
<path d="M2300.96 807.092C2091.04 255.443 1712.69 519.143 1321.27 709.978C1092.9 821.305 925.466 776.414 751.868 698.115C439.762 557.652 237.409 268.991 62.9806 324.251" stroke="#B1AB78" stroke-width="0.25" stroke-miterlimit="10"/>
<path d="M2301.03 812.027C2094.62 256.44 1713.1 517.649 1321.18 711.212C1092.9 823.962 924.09 779.806 751.062 701.01C439.335 559.147 236.531 265.812 62.5302 323.207" stroke="#B3AD7A" stroke-width="0.25" stroke-miterlimit="10"/>
<path d="M2301.08 816.963C2098.13 257.484 1713.48 516.13 1321.23 712.446C1093.04 826.62 922.856 783.318 750.325 703.857C438.955 560.475 235.724 262.561 61.9127 322.092" stroke="#B5AE7B" stroke-width="0.25" stroke-miterlimit="10"/>
<path d="M2301.15 821.922C2101.72 258.551 1713.81 514.635 1321.06 713.704C1092.97 829.301 921.409 786.806 749.282 706.585C438.481 561.852 234.704 259.382 61.2489 320.882" stroke="#B7B07D" stroke-width="0.25" stroke-miterlimit="10"/>
<path d="M2301.22 826.857C2105.28 259.595 1714.26 513.117 1320.99 714.937C1092.99 831.958 920.033 790.318 748.523 709.504C438.172 563.299 233.921 256.321 60.8218 319.862" stroke="#B9B27E" stroke-width="0.25" stroke-miterlimit="10"/>
<path d="M2301.3 831.816C2108.84 260.663 1714.64 511.693 1320.92 716.195C1092.99 834.616 918.704 793.805 747.669 712.327C437.793 564.723 233.067 253.07 60.2999 318.746" stroke="#BBB47F" stroke-width="0.25" stroke-miterlimit="10"/>
<path d="M2301.37 836.751C2112.39 261.731 1715.02 510.08 1320.85 717.429C1093.09 837.273 917.352 797.293 746.815 715.056C437.39 566.122 232.19 249.962 59.7544 317.631" stroke="#BCB681" stroke-width="0.25" stroke-miterlimit="10"/>
<path d="M2301.44 841.686C2115.95 262.751 1715.42 508.561 1320.78 718.686C1093.01 839.93 916 800.805 745.961 717.998C437.034 567.546 231.312 246.807 59.2089 316.516" stroke="#BEB882" stroke-width="0.25" stroke-miterlimit="10"/>
<path d="M2301.51 846.645C2119.51 263.842 1715.78 506.948 1320.71 719.92C1092.94 842.588 914.671 804.293 745.106 720.822C436.678 568.97 230.458 243.627 58.6866 315.401" stroke="#C0B984" stroke-width="0.25" stroke-miterlimit="10"/>
<path d="M2301.58 851.58C2123.07 264.934 1716.18 505.524 1320.61 721.154C1093.04 845.221 913.319 807.78 744.276 723.645C436.275 570.346 229.58 240.472 58.1411 314.286" stroke="#C2BB85" stroke-width="0.25" stroke-miterlimit="10"/>
<path d="M2301.65 856.515C2126.63 265.954 1716.51 504.006 1320.54 722.411C1093.06 847.879 911.895 811.268 743.445 726.469C435.895 571.746 228.607 237.292 57.595 313.171" stroke="#C4BD87" stroke-width="0.25" stroke-miterlimit="10"/>
<path d="M2301.72 861.474C2130.19 267.022 1716.89 502.463 1320.47 723.645C1093.06 850.536 910.78 814.448 742.568 729.292C435.824 572.552 227.848 234.089 57.0732 312.055" stroke="#C6BF88" stroke-width="0.25" stroke-miterlimit="10"/>
<path d="M2301.79 866.41C2133.75 268.066 1717.25 501.016 1320.4 724.903C1093.06 853.194 909.427 817.983 741.713 732.139C435.396 574.047 226.875 230.957 56.5272 310.94" stroke="#C8C189" stroke-width="0.25" stroke-miterlimit="10"/>
<path d="M2301.84 871.345C2137.31 269.134 1717.61 499.403 1320.33 726.136C1093.06 855.851 908.051 821.518 740.859 734.963C435.017 575.518 226.234 227.801 55.9817 309.825" stroke="#CAC38B" stroke-width="0.25" stroke-miterlimit="10"/>
<path d="M2301.91 876.304C2140.86 270.201 1717.56 497.172 1320.25 727.37C1092.82 858.081 906.699 825.054 740.005 737.786C434.566 577.013 225.238 224.598 55.4124 308.71" stroke="#CBC58C" stroke-width="0.25" stroke-miterlimit="10"/>
<path d="M2301.98 881.239C2144.42 271.245 1717.99 495.796 1320.18 728.628C1092.87 860.834 905.323 828.589 739.152 740.61C434.163 578.484 224.36 221.443 54.9144 307.642" stroke="#CDC68E" stroke-width="0.25" stroke-miterlimit="10"/>
<path d="M2302.05 886.174C2147.98 272.313 1718.56 494.444 1320.11 729.98C1092.94 863.705 903.948 832.243 738.298 743.552C433.76 580.074 223.459 218.406 54.3689 306.598" stroke="#CFC88F" stroke-width="0.25" stroke-miterlimit="10"/>
<path d="M2302.2 891.133C2151.54 273.357 1718.89 493.091 1319.97 731.119C1092.92 866.362 902.524 835.659 737.372 746.28C433.332 581.45 222.628 215.107 53.8466 305.269" stroke="#D1CA91" stroke-width="0.25" stroke-miterlimit="10"/>
<path d="M2302.2 896.068C2155.1 274.425 1719.34 491.715 1319.97 732.353C674.429 1121.31 313.093 161.912 53.301 304.249" stroke="#D3CC92" stroke-width="0.25" stroke-miterlimit="10"/>
<path d="M-45.4672 318.462C71.3798 347.669 21.2958 270.154 362.892 332.698C615.567 378.965 802.237 557.486 1017.71 585.365C1364.1 630.161 1567.21 357.943 1950.78 365.322" stroke="#383302" stroke-width="0.25" stroke-miterlimit="10"/>
<path d="M-50.0938 314.452C62.9335 343.636 12.7071 279.17 360.496 335.687C614.973 377.091 799.817 560.808 1017.35 588.71C1359 632.771 1569.32 363.305 1953.77 370.423" stroke="#393404" stroke-width="0.25" stroke-miterlimit="10"/>
<path d="M-54.6967 310.442C54.4396 339.579 4.26068 288.163 358.123 338.677C614.356 375.287 797.444 564.082 1017.05 592.056C1354.06 635.334 1571.51 368.454 1956.8 375.43" stroke="#3A3506" stroke-width="0.25" stroke-miterlimit="10"/>
<path d="M-59.3234 306.408C46.0643 335.545 -4.30444 297.25 355.679 341.667C613.715 373.508 794.953 567.356 1016.67 595.378C1349.03 637.896 1573.59 373.674 1959.75 380.46" stroke="#3B3609" stroke-width="0.25" stroke-miterlimit="10"/>
<path d="M-63.9495 302.399C37.6422 331.488 -12.9164 306.409 353.26 344.656C612.957 371.705 792.533 570.631 1016.29 598.7C1344.05 640.482 1575.73 378.918 1962.71 385.49" stroke="#3C370B" stroke-width="0.25" stroke-miterlimit="10"/>
<path d="M-68.5762 298.389C29.1957 327.454 -21.5527 315.614 350.839 347.646C612.339 370.139 790.113 573.905 1015.98 602.045C1339.09 643.045 1577.89 384.161 1965.75 390.544" stroke="#3D380D" stroke-width="0.25" stroke-miterlimit="10"/>
<path d="M-73.1786 294.355C20.7498 323.397 -30.2121 324.892 348.443 350.612C611.652 368.525 787.693 577.179 1015.62 605.367C1334.13 645.702 1580.02 389.452 1968.74 395.574" stroke="#3E3A0F" stroke-width="0.25" stroke-miterlimit="10"/>
<path d="M-77.8047 290.345C12.3514 319.363 -38.8952 334.216 346.024 353.601C610.916 366.959 785.274 580.501 1015.27 608.688C1329.15 648.194 1582.16 394.625 1971.73 400.628" stroke="#3F3B11" stroke-width="0.25" stroke-miterlimit="10"/>
<path d="M-82.4314 286.288C3.88119 315.259 -47.5789 343.565 343.627 356.543C610.181 365.393 782.83 583.704 1015.05 611.986C1324.31 650.732 1584.46 399.821 1974.86 405.563" stroke="#403C14" stroke-width="0.25" stroke-miterlimit="10"/>
<path d="M-86.9392 282.302C-4.44641 311.272 -56.0963 353.079 341.302 359.58C609.54 363.97 780.505 587.026 1014.67 615.356C1319.31 653.319 1586.45 405.112 1977.92 410.688" stroke="#413D16" stroke-width="0.25" stroke-miterlimit="10"/>
<path d="M-91.6842 278.292C-13.0112 307.239 -64.8747 351.205 338.764 362.57C608.568 370.163 777.966 590.348 1014.22 618.677C1314.2 655.929 1588.54 410.332 1980.7 415.742" stroke="#423E18" stroke-width="0.25" stroke-miterlimit="10"/>
<path d="M-96.2871 274.282C-21.4101 303.182 -73.7481 372.179 336.391 365.536C607.95 361.17 775.617 593.076 1013.91 622.023C1309.36 657.874 1590.72 415.599 1983.73 420.772" stroke="#433F1A" stroke-width="0.25" stroke-miterlimit="10"/>
<path d="M-100.913 270.249C-29.7375 299.148 -82.4788 381.765 333.971 368.525C607.191 359.818 773.197 596.303 1013.56 625.345C1304.38 660.437 1592.81 420.819 1986.65 425.826" stroke="#44401C" stroke-width="0.25" stroke-miterlimit="10"/>
<path d="M-105.516 266.239C-38.2787 295.091 -91.2809 391.517 331.575 371.515C606.456 358.513 770.777 599.601 1013.2 628.666C1299.4 662.999 1594.97 426.063 1989.71 430.856" stroke="#45411F" stroke-width="0.25" stroke-miterlimit="10"/>
<path d="M-110.143 262.229C-46.6065 291.033 -99.9172 401.268 329.154 374.504C605.696 357.255 768.357 602.852 1012.87 632.012C1294.44 665.562 1597.1 431.283 1992.72 435.91" stroke="#464221" stroke-width="0.25" stroke-miterlimit="10"/>
<path d="M-114.769 258.196C-55.1474 287 -108.648 411.091 326.735 377.494C604.961 356.021 765.937 606.126 1012.51 635.334C1289.46 668.148 1599.26 436.526 1995.69 440.94" stroke="#474323" stroke-width="0.25" stroke-miterlimit="10"/>
<path d="M-119.395 254.186C-63.5933 282.966 -117.355 420.938 324.268 380.46C604.226 354.835 763.446 609.377 1012.11 638.655C1284.43 670.71 1601.33 441.723 1998.63 445.97" stroke="#484525" stroke-width="0.25" stroke-miterlimit="10"/>
<path d="M-123.998 250.176C-72.0397 278.909 -126.062 430.856 322.037 383.449C603.585 353.649 761.192 612.651 1011.94 642.072C1279.64 673.392 1603.65 447.109 2001.81 451.118" stroke="#494627" stroke-width="0.25" stroke-miterlimit="10"/>
<path d="M-128.625 246.142C-80.4624 274.876 -134.746 440.845 319.522 386.439C602.754 352.534 758.653 615.925 1011.54 645.323C1274.58 675.883 1605.72 452.234 2004.73 456.054" stroke="#4A4729" stroke-width="0.25" stroke-miterlimit="10"/>
<path d="M-133.251 242.132C-88.9083 270.818 -143.429 450.929 317.102 389.429C602.019 351.466 756.234 619.223 1011.14 648.644C1269.58 678.493 1607.81 457.477 2007.6 461.202" stroke="#4B482C" stroke-width="0.25" stroke-miterlimit="10"/>
<path d="M-137.854 238.123C-97.331 266.785 -152.089 460.918 314.682 392.347C601.307 350.279 753.814 622.497 1010.81 651.895C1264.67 681.008 1609.94 462.65 2010.68 466.066" stroke="#4C492E" stroke-width="0.25" stroke-miterlimit="10"/>
<path d="M-142.48 234.089C-105.777 262.727 -160.748 471.049 312.286 395.432C600.62 349.33 751.37 625.843 1010.45 655.359C1259.57 683.831 1612.08 467.917 2013.67 471.239" stroke="#4D4A30" stroke-width="0.25" stroke-miterlimit="10"/>
<path d="M-147.107 230.079C-114.2 258.694 -169.361 481.204 309.866 398.374C599.908 348.263 748.95 629.094 1010.12 658.634C1254.65 686.299 1614.16 473.185 2016.66 476.222" stroke="#4E4B32" stroke-width="0.25" stroke-miterlimit="10"/>
<path d="M-151.733 226.069C-122.646 254.542 -177.973 491.407 307.446 401.363C599.267 347.242 746.364 632.914 1009.71 661.955C1249.58 689.36 1616.3 478.428 2019.6 481.252" stroke="#4F4C34" stroke-width="0.25" stroke-miterlimit="10"/>
<path d="M-156.336 222.036C-131.068 250.698 -186.585 501.633 305.05 404.353C598.579 346.27 743.968 636.188 1009.43 665.348C1244.64 692.017 1618.48 483.672 2022.67 486.305" stroke="#504D37" stroke-width="0.25" stroke-miterlimit="10"/>
<path d="M-160.962 218.026C-139.61 246.498 -195.15 511.93 302.63 407.343C597.914 345.297 741.547 639.462 1009.07 668.623C1239.68 694.509 1620.62 488.915 2025.65 491.336" stroke="#514E39" stroke-width="0.25" stroke-miterlimit="10"/>
<path d="M-165.589 214.016C-147.937 242.488 -203.691 522.252 300.234 410.308C597.251 344.348 739.151 642.831 1008.74 671.944C1234.7 697.095 1622.78 494.135 2028.64 496.366" stroke="#52503B" stroke-width="0.25" stroke-miterlimit="10"/>
<path d="M-170.191 209.982C-156.383 238.455 -212.233 532.668 297.814 413.298C596.752 343.422 736.731 646.011 1008.39 675.29C1229.81 699.657 1624.91 499.379 2031.73 501.419" stroke="#53513D" stroke-width="0.25" stroke-miterlimit="10"/>
<path d="M-174.722 205.973C-164.71 234.445 -220.655 542.894 295.489 416.287C596.112 342.497 734.407 649.285 1008.15 678.612C1224.86 702.338 1627.14 504.623 2034.74 506.449" stroke="#54523F" stroke-width="0.25" stroke-miterlimit="10"/>
<path d="M-179.468 201.963C-173.276 230.435 -229.291 553.429 292.974 419.277C595.376 341.595 731.891 652.583 1007.67 681.933C1219.78 704.806 1629.28 509.866 2037.61 511.503" stroke="#555342" stroke-width="0.25" stroke-miterlimit="10"/>
<path d="M-184.071 197.929C-181.698 226.402 -237.524 564.557 290.577 422.267C594.901 341.097 729.495 655.857 1007.37 685.279C1214.82 707.368 1631.34 515.086 2040.63 516.533" stroke="#565444" stroke-width="0.25" stroke-miterlimit="10"/>
<path d="M-188.673 193.919C-190.121 222.392 -246.16 574.356 288.205 425.232C594.261 339.816 727.123 659.132 1007.08 688.6C1209.93 709.955 1633.43 520.33 2043.69 521.587" stroke="#575546" stroke-width="0.25" stroke-miterlimit="10"/>
</g>
</svg>
