<svg width="79" height="79" viewBox="0 0 79 79" fill="none" xmlns="http://www.w3.org/2000/svg">
<mask id="mask0_1_103840" style="mask-type:alpha" maskUnits="userSpaceOnUse" x="0" y="0" width="79" height="79">
<path d="M78.8927 53.4654L74.9428 44.249L74.9376 44.2517C74.931 44.2359 74.9297 44.2174 74.9218 44.2016C74.7032 43.7421 74.2411 43.4498 73.7329 43.4498H69.0839L69.4775 42.9772C69.8883 42.4834 69.8844 41.7646 69.4644 41.2774L61.5646 32.061L61.5633 32.0624C61.3171 31.774 60.9563 31.6002 60.5666 31.6002H43.4505C43.0871 31.6002 42.7395 31.7503 42.4907 32.0163L31.772 43.4498H26.3343C25.971 43.4498 25.6234 43.5999 25.3745 43.8659L5.62514 64.9319C5.61856 64.9385 5.61592 64.9477 5.60934 64.9543C5.56326 65.0056 5.52771 65.0675 5.48953 65.1255C5.45793 65.1742 5.42106 65.2203 5.39605 65.2729C5.3921 65.2821 5.3842 65.2887 5.38025 65.2979L0.113747 77.1476C-0.0679474 77.5557 -0.0297652 78.0258 0.212494 78.3997C0.454753 78.7736 0.872123 78.9987 1.31846 78.9987H31.6008H61.8832C62.3243 78.9987 62.7338 78.7776 62.9773 78.4115L62.9787 78.4128L62.9852 78.4023C62.9852 78.401 62.9866 78.401 62.9879 78.3997C62.9879 78.3984 62.9879 78.3984 62.9892 78.397L78.7782 54.7136C79.0257 54.3436 79.0691 53.8736 78.8927 53.4654ZM70.9666 46.0831L55.99 64.5159H51.528L66.889 46.0831H70.9666ZM60.5943 34.9708L66.7416 42.1438L65.2617 43.9212L65.2604 43.9225L49.0606 63.3625L44.9817 54.1869L60.5943 34.9708ZM46.6907 64.5159H36.8673H26.3343H20.4609L23.5813 57.4943L24.5556 55.2995H42.5947L46.6907 64.5159ZM44.0219 34.2335H57.8017L42.8238 52.6662H26.7412L44.0219 34.2335ZM26.9058 46.0831H29.302L22.7413 53.0823C22.7347 53.0889 22.7321 53.0968 22.7268 53.1033C22.6807 53.1547 22.6452 53.2166 22.607 53.2745C22.5754 53.3232 22.5385 53.3693 22.5135 53.422C22.5095 53.4312 22.5016 53.4378 22.4977 53.447L17.5788 64.5159H9.62505L26.9058 46.0831ZM3.34475 76.3655L7.43945 67.1491H18.4346H25.4799L29.5746 76.3655H3.34475ZM28.3606 67.1491H34.8411L31.6008 74.4393L28.3606 67.1491ZM33.6271 76.3655L37.7218 67.1491H48.717H55.7622L59.8569 76.3655H33.6271ZM62.115 74.9607L58.148 66.0353L73.3813 47.2865L76.191 53.8446L62.115 74.9607Z" fill="black"/>
<path d="M11.8526 5.26821C9.67486 5.26821 7.90268 3.49603 7.90268 1.31833C7.90268 0.590241 7.31415 0.00170898 6.58606 0.00170898C5.85796 0.00170898 5.26943 0.590241 5.26943 1.31833C5.26943 3.49603 3.49725 5.26821 1.31956 5.26821C0.591461 5.26821 0.00292969 5.85674 0.00292969 6.58484C0.00292969 7.31293 0.591461 7.90146 1.31956 7.90146C3.49725 7.90146 5.26943 9.67364 5.26943 11.8513C5.26943 12.5794 5.85796 13.168 6.58606 13.168C7.31415 13.168 7.90268 12.5794 7.90268 11.8513C7.90268 9.67364 9.67486 7.90146 11.8526 7.90146C12.5807 7.90146 13.1692 7.31293 13.1692 6.58484C13.1692 5.85674 12.5807 5.26821 11.8526 5.26821ZM6.58606 7.90541C6.21082 7.40509 5.7658 6.96007 5.26548 6.58484C5.7658 6.2096 6.21082 5.76458 6.58606 5.26426C6.9613 5.76458 7.40631 6.2096 7.90663 6.58484C7.40631 6.96007 6.9613 7.40509 6.58606 7.90541Z" fill="black"/>
<path d="M31.6006 28.9669C29.4229 28.9669 27.6507 27.1948 27.6507 25.0171C27.6507 24.289 27.0622 23.7004 26.3341 23.7004C25.606 23.7004 25.0175 24.289 25.0175 25.0171C25.0175 27.1948 23.2453 28.9669 21.0676 28.9669C20.3395 28.9669 19.751 29.5555 19.751 30.2836C19.751 31.0117 20.3395 31.6002 21.0676 31.6002C23.2453 31.6002 25.0175 33.3724 25.0175 35.5501C25.0175 36.2782 25.606 36.8667 26.3341 36.8667C27.0622 36.8667 27.6507 36.2782 27.6507 35.5501C27.6507 33.3724 29.4229 31.6002 31.6006 31.6002C32.3287 31.6002 32.9172 31.0117 32.9172 30.2836C32.9172 29.5555 32.3287 28.9669 31.6006 28.9669ZM26.3341 31.6041C25.9589 31.1038 25.5138 30.6588 25.0135 30.2836C25.5138 29.9083 25.9589 29.4633 26.3341 28.963C26.7093 29.4633 27.1544 29.9083 27.6547 30.2836C27.1544 30.6588 26.7093 31.1038 26.3341 31.6041Z" fill="black"/>
<path d="M35.5512 1.31787H32.918V3.95112H35.5512V1.31787Z" fill="black"/>
<path d="M9.21821 18.434H6.58496V21.0672H9.21821V18.434Z" fill="black"/>
<path d="M77.6834 10.5342C72.6026 10.5342 68.467 6.3987 68.467 1.31785C68.467 0.589752 67.8785 0.0012207 67.1504 0.0012207C66.4223 0.0012207 65.8338 0.589752 65.8338 1.31785C65.8338 6.3987 61.6983 10.5342 56.6174 10.5342C55.8893 10.5342 55.3008 11.1228 55.3008 11.8508C55.3008 12.5789 55.8893 13.1675 56.6174 13.1675C61.6983 13.1675 65.8338 17.303 65.8338 22.3839C65.8338 23.1119 66.4223 23.7005 67.1504 23.7005C67.8785 23.7005 68.467 23.1119 68.467 22.3839C68.467 17.303 72.6026 13.1675 77.6834 13.1675C78.4115 13.1675 79 12.5789 79 11.8508C79 11.1228 78.4115 10.5342 77.6834 10.5342ZM67.1504 16.958C66.0207 14.7724 64.2288 12.9805 62.0432 11.8508C64.2288 10.7212 66.0207 8.92926 67.1504 6.74366C68.2801 8.92926 70.072 10.7212 72.2576 11.8508C70.072 12.9805 68.2801 14.7724 67.1504 16.958Z" fill="black"/>
<path d="M56.6166 23.7004H53.9834V26.3337H56.6166V23.7004Z" fill="black"/>
<path d="M78.9995 32.9167H76.3662V35.55H78.9995V32.9167Z" fill="black"/>
<path d="M2.6352 46.083H0.00195312V48.7163H2.6352V46.083Z" fill="black"/>
</mask>
<g mask="url(#mask0_1_103840)">
<rect x="-14" y="-5" width="110" height="91" fill="url(#paint0_linear_1_103840)"/>
</g>
<defs>
<linearGradient id="paint0_linear_1_103840" x1="41" y1="-5" x2="41" y2="86" gradientUnits="userSpaceOnUse">
<stop stop-color="#B48A3D"/>
<stop offset="1" stop-color="#FCECCE"/>
</linearGradient>
</defs>
</svg>
