<svg width="31" height="31" viewBox="0 0 31 31" fill="none" xmlns="http://www.w3.org/2000/svg">
<path d="M30.4464 6.64278H20.4821C20.176 6.64278 19.9286 6.89078 19.9286 7.19635V12.7321V13.2856H10.5179C10.2117 13.2856 9.96428 13.5336 9.96428 13.8392V19.3749V19.9285H0.553571C0.247446 19.9285 0 20.1765 0 20.4821V26.0178V28.2321V30.4464C0 30.7519 0.247446 30.9999 0.553571 30.9999H10.5179H20.4821H30.4464C30.7526 30.9999 31 30.7519 31 30.4464V28.2321V26.0178V23.8035V21.5892V19.3749V17.1606V14.9463V12.7321V7.19635C31 6.89078 30.7526 6.64278 30.4464 6.64278ZM21.0357 7.74992H29.8929V12.1785H21.0357V7.74992ZM1.10714 26.5714H9.96428V27.6785H1.10714V26.5714ZM11.0714 24.3571H19.9286V25.4642H11.0714V24.3571ZM11.0714 22.1428H19.9286V23.2499H11.0714V22.1428ZM19.9286 21.0356H11.0714V20.4821V19.9285H19.9286V21.0356ZM11.0714 26.5714H19.9286V27.6785H11.0714V26.5714ZM21.0357 26.5714H29.8929V27.6785H21.0357V26.5714ZM21.0357 24.3571H29.8929V25.4642H21.0357V24.3571ZM21.0357 22.1428H29.8929V23.2499H21.0357V22.1428ZM21.0357 19.9285H29.8929V21.0356H21.0357V19.9285ZM21.0357 17.7142H29.8929V18.8213H21.0357V17.7142ZM21.0357 15.4999H29.8929V16.6071H21.0357V15.4999ZM21.0357 13.8392V13.2856H29.8929V14.3928H21.0357V13.8392ZM11.0714 14.3928H19.9286V14.9463V17.1606V18.8213H11.0714V14.3928ZM1.10714 21.0356H9.96428V21.5892V23.8035V25.4642H1.10714V21.0356ZM1.10714 28.7856H9.96428V29.8928H1.10714V28.7856ZM11.0714 28.7856H19.9286V29.8928H11.0714V28.7856ZM21.0357 29.8928V28.7856H29.8929V29.8928H21.0357Z" fill="#3D3D3D"/>
<path d="M5.53571 21.5893C4.62011 21.5893 3.875 22.3344 3.875 23.25C3.875 24.1656 4.62011 24.9107 5.53571 24.9107C6.45132 24.9107 7.19643 24.1656 7.19643 23.25C7.19643 22.3344 6.45132 21.5893 5.53571 21.5893ZM5.53571 23.8035C5.23014 23.8035 4.98214 23.555 4.98214 23.25C4.98214 22.945 5.23014 22.6964 5.53571 22.6964C5.84129 22.6964 6.08929 22.945 6.08929 23.25C6.08929 23.555 5.84129 23.8035 5.53571 23.8035Z" fill="#3D3D3D"/>
<path d="M15.5001 14.9465C14.5845 14.9465 13.8394 15.6916 13.8394 16.6072C13.8394 17.5228 14.5845 18.2679 15.5001 18.2679C16.4157 18.2679 17.1608 17.5228 17.1608 16.6072C17.1608 15.6916 16.4157 14.9465 15.5001 14.9465ZM15.5001 17.1608C15.1945 17.1608 14.9465 16.9122 14.9465 16.6072C14.9465 16.3022 15.1945 16.0536 15.5001 16.0536C15.8056 16.0536 16.0536 16.3022 16.0536 16.6072C16.0536 16.9122 15.8056 17.1608 15.5001 17.1608Z" fill="#3D3D3D"/>
<path d="M25.4644 8.30351C24.5488 8.30351 23.8037 9.04862 23.8037 9.96423C23.8037 10.8798 24.5488 11.6249 25.4644 11.6249C26.38 11.6249 27.1251 10.8798 27.1251 9.96423C27.1251 9.04862 26.38 8.30351 25.4644 8.30351ZM25.4644 10.5178C25.1589 10.5178 24.9109 10.2692 24.9109 9.96423C24.9109 9.65921 25.1589 9.41066 25.4644 9.41066C25.77 9.41066 26.018 9.65921 26.018 9.96423C26.018 10.2692 25.77 10.5178 25.4644 10.5178Z" fill="#3D3D3D"/>
<path d="M10.5178 6.87204L13.4478 9.80209C13.6643 10.0185 14.0141 10.0185 14.2306 9.80209L22.1428 1.88989V3.32143H23.2499V0.553571C23.2499 0.248 23.0025 0 22.6963 0H19.9285V1.10714H21.36L13.8392 8.62796L10.9091 5.69791C10.6927 5.48146 10.3428 5.48146 10.1264 5.69791L0.162109 15.6622L0.944859 16.4449L10.5178 6.87204Z" fill="#3D3D3D"/>
</svg>
