<svg width="31" height="31" viewBox="0 0 31 31" fill="none" xmlns="http://www.w3.org/2000/svg">
<path d="M15.5 0C6.95341 0 0 6.95341 0 15.5C0 24.0466 6.95341 31 15.5 31C24.0466 31 31 24.0466 31 15.5C31 6.95341 24.0466 0 15.5 0ZM29.879 14.9464H25.9902C25.8601 12.4642 24.8697 10.2117 23.307 8.47629L26.0549 5.72836C28.3174 8.17016 29.7434 11.3953 29.879 14.9464ZM8.47629 23.3065C10.2117 24.8697 12.4642 25.8595 14.9464 25.9896V29.8785C11.3953 29.7434 8.17016 28.3168 5.72836 26.0544L8.47629 23.3065ZM16.0536 25.9896C18.5358 25.8595 20.7883 24.8692 22.5237 23.3065L25.2716 26.0544C22.8298 28.3174 19.6047 29.7434 16.0536 29.879V25.9896ZM15.5 24.9107C10.3108 24.9107 6.08929 20.6892 6.08929 15.5C6.08929 10.3108 10.3108 6.08929 15.5 6.08929C20.6892 6.08929 24.9107 10.3108 24.9107 15.5C24.9107 20.6892 20.6892 24.9107 15.5 24.9107ZM22.5237 7.69354C20.7883 6.13025 18.5358 5.14046 16.0536 5.01037V1.12098C19.6047 1.25605 22.8298 2.68261 25.2716 4.94505L22.5237 7.69354ZM14.9464 5.01037C12.4642 5.14046 10.2117 6.1308 8.47629 7.69354L5.72836 4.94561C8.17016 2.68261 11.3953 1.25661 14.9464 1.12098V5.01037ZM4.94505 5.72836L7.69298 8.47629C6.1297 10.2117 5.13991 12.4642 5.00982 14.9464H1.12098C1.25661 11.3953 2.68261 8.17016 4.94505 5.72836ZM1.12098 16.0536H5.00982C5.13991 18.5358 6.13025 20.7883 7.69298 22.5237L4.94505 25.2716C2.68261 22.8298 1.25661 19.6047 1.12098 16.0536ZM26.0549 25.2716L23.307 22.5237C24.8703 20.7883 25.8601 18.5358 25.9902 16.0536H29.879C29.7434 19.6047 28.3174 22.8298 26.0549 25.2716Z" fill="#3D3D3D"/>
<path d="M14.338 16.2865H15.3586C15.2781 16.7931 15.1236 17.1161 14.6537 17.5713C14.1838 18.0265 13.5769 18.2541 12.8329 18.2541C12.0399 18.2541 11.3816 17.9972 10.8579 17.4832C10.339 16.9644 10.0796 16.333 10.0796 15.589C10.0796 14.8401 10.3366 14.2062 10.8505 13.6874C11.3694 13.1685 12.0106 12.9091 12.7741 12.9091C13.2489 12.9091 13.6846 13.0168 14.081 13.2321C14.4775 13.4475 14.7883 13.7387 15.0135 14.1059L14.1471 14.6051C14.0247 14.3946 13.8387 14.2233 13.5891 14.0912C13.3395 13.959 13.0654 13.8929 12.7668 13.8929C12.2724 13.8929 11.8686 14.0545 11.5554 14.3775C11.2421 14.6908 11.0855 15.0946 11.0855 15.589C11.0855 16.0735 11.2445 16.4749 11.5627 16.7931C11.8809 17.1063 12.3067 17.263 12.8402 17.263C13.2269 17.263 13.55 17.1773 13.8094 17.006C14.0688 16.8347 14.245 16.5948 14.338 16.2865Z" fill="#3D3D3D"/>
<path d="M18.5462 15.3907H21.1233V15.7872C21.1233 16.5214 20.8883 17.1161 20.4184 17.5713C19.9485 18.0265 19.3416 18.2541 18.5976 18.2541C17.8046 18.2541 17.1463 17.9972 16.6226 17.4832C16.1037 16.9644 15.8443 16.333 15.8443 15.589C15.8443 14.8401 16.1013 14.2062 16.6152 13.6874C17.1341 13.1685 17.7753 12.9091 18.5388 12.9091C19.0136 12.9091 19.4493 13.0168 19.8457 13.2321C20.2422 13.4475 20.553 13.7387 20.7782 14.1059L19.9118 14.6051C19.7894 14.3946 19.6034 14.2233 19.3538 14.0912C19.1042 13.959 18.8301 13.8929 18.5315 13.8929C18.0371 13.8929 17.6333 14.0545 17.3201 14.3775C17.0068 14.6908 16.8502 15.0946 16.8502 15.589C16.8502 16.0735 17.0092 16.4749 17.3274 16.7931C17.6456 17.1063 18.0714 17.263 18.6049 17.263C18.9916 17.263 19.3147 17.1773 19.5741 17.006C19.8335 16.8347 20.0097 16.5948 20.1027 16.2865H18.5462V15.3907Z" fill="#3D3D3D"/>
</svg>
