<svg width="100" height="99" viewBox="0 0 100 99" fill="none" xmlns="http://www.w3.org/2000/svg">
<mask id="mask0_2_330" style="mask-type:alpha" maskUnits="userSpaceOnUse" x="0" y="0" width="100" height="100">
<path d="M70.3734 54.66C70.3158 54.3237 70.4271 53.981 70.6715 53.7428L84.7463 40.0232C85.8263 38.9707 86.2075 37.4257 85.7415 35.9915C85.2755 34.5574 84.0588 33.5315 82.5663 33.3148L63.1155 30.4884C62.7779 30.4394 62.4861 30.2273 62.3353 29.9216L53.6367 12.296C52.9693 10.9437 51.6178 10.1036 50.1097 10.1036C48.6016 10.1036 47.2503 10.9437 46.5828 12.296L42.2014 21.1736C41.8474 21.8909 42.1419 22.7595 42.8592 23.1135C43.5764 23.4675 44.4449 23.173 44.7991 22.4557L49.1806 13.578C49.4378 13.0567 49.9162 13.0003 50.1097 13.0003C50.3034 13.0003 50.7818 13.0567 51.039 13.578L59.7378 31.2037C60.3111 32.3646 61.4179 33.1688 62.6991 33.355L82.15 36.1814C82.7253 36.265 82.9265 36.7024 82.9864 36.8867C83.0464 37.0709 83.1405 37.5431 82.7243 37.9488L68.6495 51.6685C67.7223 52.5723 67.2996 53.8736 67.5186 55.1497L70.8411 74.5222C70.9394 75.0952 70.5856 75.4219 70.4288 75.5357C70.272 75.6494 69.8527 75.8854 69.3376 75.6145L62.3013 71.9153C61.5933 71.5434 60.7175 71.8153 60.3451 72.5233C59.9728 73.2315 60.2451 74.1071 60.9531 74.4795L67.9894 78.1786C68.5702 78.4837 69.1984 78.6346 69.8233 78.6346C70.6354 78.6346 71.4421 78.38 72.1314 77.8793C73.3514 76.9928 73.951 75.5187 73.6961 74.0324L70.3734 54.66Z" fill="black"/>
<path d="M56.7931 69.0193L51.9399 66.4681C50.7937 65.8653 49.4254 65.8653 48.2794 66.4681L30.8821 75.6145C30.3678 75.8853 29.9475 75.6496 29.7907 75.5357C29.6341 75.4218 29.2803 75.0952 29.3786 74.522L32.7011 55.1498C32.9199 53.8736 32.4972 52.5721 31.57 51.6685L17.4952 37.9489C17.079 37.5431 17.1733 37.0709 17.2331 36.8867C17.293 36.7024 17.4944 36.265 18.0698 36.1814L37.5206 33.355C38.8018 33.1688 39.909 32.3646 40.482 31.2036L42.0492 28.028C42.4032 27.3106 42.1086 26.4421 41.3914 26.0881C40.6737 25.7339 39.8052 26.0286 39.4514 26.7459L37.8842 29.9214C37.7332 30.2271 37.4416 30.4392 37.104 30.4882L17.653 33.3146C16.1605 33.5315 14.944 34.5572 14.478 35.9914C14.012 37.4255 14.3934 38.9705 15.4732 40.023L29.548 53.7427C29.7923 53.9808 29.9037 54.3236 29.846 54.66L26.5234 74.032C26.2685 75.5185 26.868 76.9924 28.0881 77.8789C28.7776 78.3799 29.5841 78.6344 30.3964 78.6342C31.0213 78.6342 31.6497 78.4834 32.2303 78.1782L49.6276 69.0318C49.9295 68.8731 50.29 68.8731 50.5919 69.0318L55.4451 71.5832C56.1537 71.9555 57.0291 71.6829 57.4013 70.9751C57.7734 70.2672 57.5011 69.3914 56.7931 69.0193Z" fill="black"/>
<path d="M8.0261 12.3857L19.7959 18.2719C20.2498 18.4989 20.7351 18.6099 21.2162 18.6099C21.9825 18.6099 22.7376 18.3283 23.3361 17.7851C24.31 16.9009 24.6345 15.5363 24.1625 14.3086L19.4415 2.02508C18.8382 0.455545 17.0526 -0.378177 15.4608 0.167016C11.3527 1.57355 8.35846 4.29101 6.56143 8.2441C5.86522 9.77578 6.52223 11.6336 8.0261 12.3857ZM9.19875 9.44302C10.6731 6.19948 13.0284 4.06178 16.3994 2.90785C16.4228 2.89974 16.4475 2.89607 16.4728 2.89607C16.5819 2.89607 16.6995 2.96579 16.7376 3.06448L21.4587 15.348C21.4765 15.3944 21.524 15.5178 21.3892 15.64C21.2548 15.7625 21.1364 15.7034 21.0918 15.681L9.32177 9.7947C9.20551 9.73657 9.14449 9.56237 9.19875 9.44302Z" fill="black"/>
<path d="M76.8832 17.7849C77.4817 18.328 78.2368 18.6097 79.0033 18.6097C79.4842 18.6097 79.9699 18.4987 80.4236 18.2718L92.1934 12.3855C93.6971 11.6337 94.3541 9.7758 93.6582 8.24412C91.8612 4.29104 88.867 1.57338 84.7588 0.166845C83.1671 -0.377962 81.3815 0.455567 80.7781 2.0249L76.057 14.3085C75.585 15.5362 75.9093 16.9008 76.8832 17.7849ZM78.7609 15.3479L83.4821 3.06411C83.5199 2.96543 83.6376 2.89571 83.7467 2.89571C83.7722 2.89571 83.7971 2.89957 83.8202 2.90749C87.1911 4.0616 89.5464 6.19931 91.0207 9.44246C91.075 9.56182 91.014 9.73621 90.8975 9.79434L79.1277 15.6806C79.0835 15.7028 78.9651 15.7621 78.8303 15.6397C78.6957 15.5176 78.743 15.3942 78.7609 15.3479Z" fill="black"/>
<path d="M23.3361 81.2152C22.362 80.331 20.9725 80.1398 19.7959 80.7283L8.0261 86.6146C6.52223 87.3666 5.86522 89.2245 6.56143 90.756C8.35846 94.709 11.3527 97.4267 15.4608 98.8332C15.7915 98.9464 16.1304 99.0001 16.4657 99.0001C17.7434 99.0001 18.9638 98.2185 19.4415 96.9752L24.1627 84.6916C24.6345 83.4639 24.3102 82.0993 23.3361 81.2152ZM21.4587 83.6524L16.7374 95.9362C16.6907 96.0576 16.523 96.1351 16.3992 96.0928C13.0284 94.9387 10.6731 92.8012 9.19875 89.5574C9.14449 89.4381 9.20551 89.2639 9.32197 89.2057L21.0918 83.3195C21.1154 83.3077 21.1598 83.2855 21.2162 83.2855C21.2662 83.2855 21.3259 83.3029 21.3892 83.3604C21.5238 83.4825 21.4765 83.6059 21.4587 83.6524Z" fill="black"/>
<path d="M92.1934 86.6144L90.1745 85.6045C89.4592 85.2467 88.5889 85.5368 88.2313 86.2521C87.8734 86.9676 88.1633 87.8376 88.879 88.1955L90.898 89.2054C91.0144 89.2635 91.0752 89.4377 91.021 89.557C89.5468 92.8006 87.1917 94.9383 83.8209 96.0922C83.6973 96.1347 83.5291 96.0571 83.4825 95.9356L78.7614 83.652C78.7434 83.6057 78.6961 83.4823 78.8307 83.36C78.9651 83.238 79.0837 83.2971 79.1281 83.3193L83.2977 85.4045C84.0134 85.7625 84.8833 85.4722 85.2409 84.7567C85.5988 84.0412 85.3089 83.1712 84.5932 82.8135L80.4236 80.7283C79.2473 80.1399 77.8575 80.3311 76.8836 81.215C75.9095 82.0991 75.585 83.4637 76.057 84.6914L80.7782 96.975C81.2562 98.2183 82.4763 98.9999 83.7542 98.9999C84.0891 98.9999 84.4283 98.9462 84.7589 98.833C88.867 97.4265 91.8613 94.7089 93.6579 90.7558C94.3541 89.2245 93.6973 87.3664 92.1934 86.6144Z" fill="black"/>
<path d="M11.8067 49.5245C11.8281 48.5081 11.2777 47.5919 10.3702 47.1336L4.9272 44.3847C4.29664 44.0662 3.55214 44.016 2.88451 44.247C2.21552 44.4783 1.68269 44.9571 1.3847 45.5952C0.160476 48.2155 0.160862 50.7536 1.38566 53.139C1.84974 54.0429 2.76516 54.567 3.719 54.567C4.08073 54.567 4.44805 54.4915 4.79819 54.3327L10.2704 51.8528C11.1968 51.433 11.7855 50.5409 11.8067 49.5245ZM3.84936 51.5823C3.19892 50.1676 3.21031 48.6968 3.88413 47.1031L8.54231 49.4558L3.84936 51.5823Z" fill="black"/>
<path d="M98.8344 45.5955C98.5364 44.9574 98.0038 44.4786 97.3348 44.2471C96.6672 44.0159 95.9227 44.0663 95.2921 44.3847L89.8491 47.1337C88.9416 47.5922 88.391 48.5082 88.4126 49.5246C88.434 50.541 89.0225 51.4331 89.9485 51.8527L95.4209 54.3328C95.7711 54.4916 96.1384 54.5669 96.5003 54.5669C97.454 54.5669 98.3696 54.0428 98.8335 53.1391C100.058 50.7533 100.059 48.2152 98.8344 45.5955ZM96.3701 51.5823L91.6774 49.4556L96.3354 47.1032C97.0092 48.6969 97.0206 50.1675 96.3701 51.5823Z" fill="black"/>
<path d="M34.9327 10.3525C35.1135 10.9902 35.694 11.4064 36.3255 11.4064C36.4563 11.4064 36.5891 11.3887 36.7212 11.3512C37.4908 11.1332 37.9379 10.3325 37.7199 9.56266L36.1621 4.06573C35.9441 3.29612 35.1436 2.84865 34.3736 3.06708C33.604 3.28511 33.1569 4.08581 33.375 4.85561L34.9327 10.3525Z" fill="black"/>
<path d="M16.0083 25.9753C16.3347 25.2449 16.0074 24.3884 15.2771 24.0619L10.9569 22.1306C10.226 21.8042 9.36983 22.1314 9.04345 22.8618C8.71707 23.5922 9.04441 24.4487 9.77462 24.7753L14.0948 26.7065C14.287 26.7923 14.4877 26.833 14.6852 26.833C15.2389 26.833 15.7677 26.5136 16.0083 25.9753Z" fill="black"/>
<path d="M9.28929 65.8563C8.6203 66.2949 8.43355 67.1927 8.87214 67.8617C9.15024 68.2858 9.61277 68.5162 10.0848 68.5162C10.3573 68.5162 10.6327 68.4395 10.8776 68.2789L14.8351 65.6842C15.5041 65.2456 15.6908 64.3478 15.2522 63.6788C14.8136 63.0098 13.9156 62.8229 13.2468 63.2617L9.28929 65.8563Z" fill="black"/>
<path d="M39.2713 86.9727C38.5676 86.5915 37.6888 86.8526 37.3078 87.5559L35.0531 91.7164C34.6718 92.4198 34.9329 93.2989 35.6363 93.6799C35.8557 93.7989 36.0921 93.8553 36.3252 93.8553C36.8397 93.8553 37.3377 93.5807 37.6 93.0967L39.8547 88.9362C40.2358 88.233 39.9747 87.3539 39.2713 86.9727Z" fill="black"/>
<path d="M63.4983 11.3511C63.6304 11.3886 63.7632 11.4063 63.894 11.4063C64.5255 11.4063 65.106 10.99 65.2868 10.3525L66.8445 4.85553C67.0628 4.08592 66.6155 3.28523 65.8459 3.06699C65.0761 2.84876 64.2754 3.29623 64.0574 4.06564L62.4996 9.56257C62.2814 10.3322 62.7285 11.1329 63.4983 11.3511Z" fill="black"/>
<path d="M91.176 22.8616C90.8496 22.1312 89.9925 21.8044 89.2627 22.1304L84.9425 24.0617C84.2121 24.3883 83.8847 25.2448 84.2113 25.9752C84.452 26.5134 84.9805 26.8328 85.5344 26.8328C85.732 26.8328 85.9326 26.7923 86.1248 26.7064L90.445 24.7751C91.1752 24.4485 91.5026 23.592 91.176 22.8616Z" fill="black"/>
<path d="M84.967 63.6781C84.5284 64.3471 84.7152 65.2449 85.3842 65.6835L89.3417 68.2782C89.5868 68.4388 89.862 68.5155 90.1345 68.5155C90.6063 68.5155 91.069 68.2851 91.3471 67.861C91.7857 67.192 91.5989 66.2942 90.93 65.8556L86.9724 63.261C86.3033 62.8224 85.4058 63.0091 84.967 63.6781Z" fill="black"/>
<path d="M62.9119 87.5562C62.531 86.8528 61.6519 86.5913 60.9484 86.9727C60.245 87.3538 59.9839 88.2329 60.3649 88.9362L62.6197 93.0967C62.8817 93.5807 63.38 93.8553 63.8945 93.8553C64.1276 93.8553 64.364 93.7989 64.5832 93.6802C65.2865 93.2989 65.5476 92.4198 65.1666 91.7167L62.9119 87.5562Z" fill="black"/>
</mask>
<g mask="url(#mask0_2_330)">
<rect x="-19.0727" y="-16.9342" width="138.079" height="132.868" fill="url(#paint0_linear_2_330)"/>
</g>
<defs>
<linearGradient id="paint0_linear_2_330" x1="-19.0727" y1="-16.9342" x2="119.006" y2="115.934" gradientUnits="userSpaceOnUse">
<stop stop-color="#B99147"/>
<stop offset="0.515625" stop-color="#E9DABA"/>
<stop offset="1" stop-color="#A58B59"/>
</linearGradient>
</defs>
</svg>
