<svg width="80" height="80" viewBox="0 0 80 80" fill="none" xmlns="http://www.w3.org/2000/svg">
<mask id="mask0_1_103813" style="mask-type:alpha" maskUnits="userSpaceOnUse" x="0" y="0" width="80" height="80">
<path d="M21.9691 4.22266C20.5888 4.22461 19.2657 4.77388 18.2898 5.75C17.314 6.72612 16.765 8.04942 16.7634 9.42969C16.7634 9.74152 16.8873 10.0406 17.1078 10.2611C17.3283 10.4816 17.6274 10.6055 17.9392 10.6055C18.251 10.6055 18.5501 10.4816 18.7706 10.2611C18.9911 10.0406 19.115 9.74152 19.115 9.42969C19.1157 8.67259 19.4168 7.9467 19.9521 7.41135C20.4875 6.876 21.2134 6.57493 21.9705 6.57422H29.6224C29.9343 6.57422 30.2333 6.45034 30.4538 6.22984C30.6743 6.00934 30.7982 5.71027 30.7982 5.39844C30.7982 5.0866 30.6743 4.78754 30.4538 4.56703C30.2333 4.34653 29.9343 4.22266 29.6224 4.22266H21.9691Z" fill="black"/>
<path d="M36.6666 4.22266H34.5837C34.2719 4.22266 33.9728 4.34653 33.7523 4.56703C33.5318 4.78754 33.408 5.0866 33.408 5.39844C33.408 5.71027 33.5318 6.00934 33.7523 6.22984C33.9728 6.45034 34.2719 6.57422 34.5837 6.57422H36.6666C36.9784 6.57422 37.2775 6.45034 37.498 6.22984C37.7185 6.00934 37.8423 5.71027 37.8423 5.39844C37.8423 5.0866 37.7185 4.78754 37.498 4.56703C37.2775 4.34653 36.9784 4.22266 36.6666 4.22266Z" fill="black"/>
<path d="M30.2098 2.54297H36.6659C36.9777 2.54297 37.2768 2.41909 37.4973 2.19859C37.7178 1.97809 37.8417 1.67902 37.8417 1.36719C37.8417 1.05535 37.7178 0.756286 37.4973 0.535785C37.2768 0.315283 36.9777 0.191406 36.6659 0.191406H30.2098C29.898 0.191406 29.5989 0.315283 29.3784 0.535785C29.1579 0.756286 29.0341 1.05535 29.0341 1.36719C29.0341 1.67902 29.1579 1.97809 29.3784 2.19859C29.5989 2.41909 29.898 2.54297 30.2098 2.54297Z" fill="black"/>
<path d="M13.9066 10.6055C14.0612 10.6057 14.2142 10.5755 14.3571 10.5165C14.4999 10.4576 14.6297 10.371 14.7391 10.2618C14.8484 10.1525 14.9351 10.0228 14.9943 9.88005C15.0534 9.73727 15.0838 9.58423 15.0837 9.42968C15.0857 7.60405 15.8117 5.85372 17.1025 4.56268C18.3933 3.27163 20.1435 2.54528 21.9691 2.54297H25.0732C25.385 2.54297 25.6841 2.41909 25.9046 2.19859C26.1251 1.97809 26.249 1.67902 26.249 1.36719C26.249 1.05535 26.1251 0.756286 25.9046 0.535785C25.6841 0.315283 25.385 0.191406 25.0732 0.191406H21.9691C19.52 0.194429 17.1721 1.16876 15.4405 2.90066C13.7088 4.63255 12.7348 6.98059 12.7322 9.42968C12.7321 9.584 12.7624 9.73683 12.8214 9.87943C12.8803 10.022 12.9668 10.1516 13.0759 10.2608C13.1849 10.37 13.3144 10.4566 13.457 10.5158C13.5995 10.5749 13.7523 10.6054 13.9066 10.6055Z" fill="black"/>
<path d="M52.5564 4.22266C51.1759 4.22426 49.8524 4.77337 48.8762 5.74953C47.9001 6.72569 47.351 8.04919 47.3494 9.42969C47.3494 9.74152 47.4732 10.0406 47.6937 10.2611C47.9142 10.4816 48.2133 10.6055 48.5251 10.6055C48.837 10.6055 49.136 10.4816 49.3565 10.2611C49.577 10.0406 49.7009 9.74152 49.7009 9.42969C49.7016 8.67259 50.0027 7.9467 50.5381 7.41135C51.0734 6.876 51.7993 6.57493 52.5564 6.57422H56.1019C56.4137 6.57422 56.7128 6.45034 56.9333 6.22984C57.1538 6.00934 57.2777 5.71027 57.2777 5.39844C57.2777 5.0866 57.1538 4.78754 56.9333 4.56703C56.7128 4.34653 56.4137 4.22266 56.1019 4.22266H52.5564Z" fill="black"/>
<path d="M59.8809 5.39844C59.8808 5.55287 59.9111 5.7058 59.9702 5.8485C60.0292 5.99119 60.1158 6.12084 60.225 6.23004C60.3342 6.33924 60.4639 6.42584 60.6066 6.4849C60.7493 6.54396 60.9022 6.57431 61.0566 6.57422H67.2533C67.5652 6.57422 67.8642 6.45034 68.0847 6.22984C68.3052 6.00934 68.4291 5.71028 68.4291 5.39844C68.4291 5.0866 68.3052 4.78754 68.0847 4.56703C67.8642 4.34653 67.5652 4.22266 67.2533 4.22266H61.0566C60.9022 4.22257 60.7493 4.25292 60.6066 4.31198C60.4639 4.37103 60.3342 4.45764 60.225 4.56684C60.1158 4.67604 60.0292 4.80569 59.9702 4.94838C59.9111 5.09107 59.8808 5.24401 59.8809 5.39844Z" fill="black"/>
<path d="M65.6334 2.54297H67.2533C67.5652 2.54297 67.8642 2.41909 68.0847 2.19859C68.3052 1.97809 68.4291 1.67902 68.4291 1.36719C68.4291 1.05535 68.3052 0.756286 68.0847 0.535785C67.8642 0.315283 67.5652 0.191406 67.2533 0.191406H65.6334C65.3216 0.191406 65.0225 0.315283 64.802 0.535785C64.5815 0.756286 64.4576 1.05535 64.4576 1.36719C64.4576 1.67902 64.5815 1.97809 64.802 2.19859C65.0225 2.41909 65.3216 2.54297 65.6334 2.54297Z" fill="black"/>
<path d="M44.4939 10.6055C44.8057 10.6055 45.1048 10.4816 45.3253 10.2611C45.5458 10.0406 45.6697 9.74152 45.6697 9.42969C45.6716 7.60382 46.3978 5.85329 47.6889 4.5622C48.98 3.27112 50.7305 2.54492 52.5564 2.54297H59.167C59.4788 2.54297 59.7779 2.41909 59.9984 2.19859C60.2189 1.97809 60.3428 1.67902 60.3428 1.36719C60.3428 1.05535 60.2189 0.756286 59.9984 0.535785C59.7779 0.315283 59.4788 0.191406 59.167 0.191406H52.5564C50.1071 0.194074 47.7588 1.16825 46.0269 2.90018C44.295 4.63212 43.3208 6.98036 43.3181 9.42969C43.318 9.58412 43.3484 9.73705 43.4074 9.87974C43.4665 10.0224 43.5531 10.1521 43.6623 10.2613C43.7715 10.3705 43.9011 10.4571 44.0438 10.5161C44.1865 10.5752 44.3395 10.6056 44.4939 10.6055Z" fill="black"/>
<path d="M70.3789 39.15C70.0671 39.15 69.768 39.2739 69.5475 39.4944C69.327 39.7149 69.2031 40.014 69.2031 40.3258V44.3571C69.2031 44.6689 69.327 44.968 69.5475 45.1885C69.768 45.409 70.0671 45.5328 70.3789 45.5328C70.6907 45.5328 70.9898 45.409 71.2103 45.1885C71.4308 44.968 71.5547 44.6689 71.5547 44.3571V40.3258C71.5547 40.014 71.4308 39.7149 71.2103 39.4944C70.9898 39.2739 70.6907 39.15 70.3789 39.15Z" fill="black"/>
<path d="M78.4414 73.4258H75.5859V31.7024L78.5818 31.3422C78.8858 31.2985 79.1606 31.1375 79.3475 30.8938C79.5343 30.6501 79.6184 30.3429 79.5817 30.038C79.545 29.7331 79.3904 29.4546 79.1511 29.2622C78.9118 29.0697 78.6067 28.9786 78.301 29.0082L54.3533 31.8851L53.7083 18.3562C53.9153 18.2639 54.091 18.1136 54.2144 17.9236C54.3378 17.7336 54.4036 17.5119 54.4037 17.2853V13.254C54.4036 12.9422 54.2796 12.6433 54.0592 12.4228C53.8387 12.2024 53.5397 12.0784 53.228 12.0782H39.7905C39.4786 12.0782 39.1796 12.2021 38.959 12.4226C38.7385 12.6431 38.6147 12.9422 38.6147 13.254V17.2853C38.6143 17.5128 38.6801 17.7356 38.804 17.9265C38.928 18.1173 39.1047 18.2681 39.3128 18.3603L38.5804 33.7838L23.9382 35.5415L23.1239 18.3549C23.3304 18.2625 23.5058 18.1124 23.629 17.9226C23.7521 17.7328 23.8177 17.5115 23.818 17.2853V13.254C23.818 12.9422 23.6941 12.6431 23.4736 12.4226C23.2531 12.2021 22.954 12.0782 22.6422 12.0782H9.20469C8.89285 12.0782 8.59379 12.2021 8.37328 12.4226C8.15278 12.6431 8.02891 12.9422 8.02891 13.254V17.2853C8.0289 17.5132 8.09522 17.7362 8.21977 17.9271C8.34432 18.118 8.52172 18.2685 8.73034 18.3603L6.58505 63.3477H5.69078C5.38871 63.3477 5.09823 63.4639 4.87957 63.6723C4.66091 63.8807 4.53084 64.1653 4.51634 64.467L4.08634 73.4258H1.17578C1.02135 73.4257 0.868417 73.4561 0.725725 73.5151C0.583033 73.5742 0.453381 73.6608 0.344182 73.77C0.234983 73.8792 0.148379 74.0088 0.0893214 74.1515C0.0302641 74.2942 -8.81296e-05 74.4472 1.92201e-07 74.6016V78.6328C-8.81296e-05 78.7873 0.0302641 78.9402 0.0893214 79.0829C0.148379 79.2256 0.234983 79.3552 0.344182 79.4644C0.453381 79.5736 0.583033 79.6602 0.725725 79.7193C0.868417 79.7784 1.02135 79.8087 1.17578 79.8086H78.4414C78.5958 79.8087 78.7488 79.7784 78.8915 79.7193C79.0342 79.6602 79.1638 79.5736 79.273 79.4644C79.3822 79.3552 79.4688 79.2256 79.5279 79.0829C79.5869 78.9402 79.6173 78.7873 79.6172 78.6328V74.6016C79.6173 74.4472 79.5869 74.2942 79.5279 74.1515C79.4688 74.0088 79.3822 73.8792 79.273 73.77C79.1638 73.6608 79.0342 73.5742 78.8915 73.5151C78.7488 73.4561 78.5958 73.4257 78.4414 73.4258ZM66.6372 73.4258V61.1641C66.6372 60.8523 66.5134 60.5532 66.2929 60.3327C66.0723 60.1122 65.7733 59.9883 65.4615 59.9883H57.399C57.2445 59.9882 57.0916 60.0186 56.9489 60.0776C56.8062 60.1367 56.6766 60.2233 56.5674 60.3325C56.4582 60.4417 56.3715 60.5713 56.3125 60.714C56.2534 60.8567 56.2231 61.0097 56.2232 61.1641V73.4258H54.4091V61.1641C54.4091 60.8523 54.2852 60.5532 54.0647 60.3327C53.8442 60.1122 53.5452 59.9883 53.2333 59.9883H45.1708C45.0164 59.9882 44.8635 60.0186 44.7208 60.0776C44.5781 60.1367 44.4484 60.2233 44.3392 60.3325C44.23 60.4417 44.1434 60.5713 44.0844 60.714C44.0253 60.8567 43.995 61.0097 43.995 61.1641V73.4258H17.0992V38.7322L73.2344 31.9859V73.4258H66.6372ZM64.2857 73.4258H58.5747V62.3399H64.2857V73.4258ZM52.0575 73.4258H46.3466V62.3399H52.0575V73.4258ZM40.9716 14.4298H52.0575V16.1095H40.9716V14.4298ZM41.6677 18.4611H51.3595L52.0125 32.1673L40.9508 33.497L41.6677 18.4611ZM10.3845 14.4298H21.4664V16.1095H10.3805L10.3845 14.4298ZM11.0839 18.4611H20.775L21.5968 35.8223L11.7504 37.0068C11.4535 37.0432 11.1817 37.1914 10.9902 37.4211C10.7987 37.6509 10.702 37.945 10.7197 38.2436C10.7374 38.5421 10.8683 38.8227 11.0856 39.0282C11.3029 39.2337 11.5904 39.3487 11.8895 39.3497C11.9369 39.3496 11.9842 39.3469 12.0313 39.3416L14.7477 39.0144V63.3477H8.9393L11.0839 18.4611ZM6.81147 65.6992H14.7477V73.4258H6.44059L6.81147 65.6992ZM77.2656 77.4571H2.35156V75.7774H77.2656V77.4571Z" fill="black"/>
<path d="M37.4221 56.0692H23.9846C23.6728 56.0692 23.3737 56.1931 23.1532 56.4136C22.9327 56.6341 22.8088 56.9332 22.8088 57.245C22.8088 57.5568 22.9327 57.8559 23.1532 58.0764C23.3737 58.2969 23.6728 58.4208 23.9846 58.4208H37.4221C37.734 58.4208 38.033 58.2969 38.2535 58.0764C38.474 57.8559 38.5979 57.5568 38.5979 57.245C38.5979 56.9332 38.474 56.6341 38.2535 56.4136C38.033 56.1931 37.734 56.0692 37.4221 56.0692Z" fill="black"/>
<path d="M37.4221 48.0067H23.9846C23.6728 48.0067 23.3737 48.1306 23.1532 48.3511C22.9327 48.5716 22.8088 48.8707 22.8088 49.1825C22.8088 49.4943 22.9327 49.7934 23.1532 50.0139C23.3737 50.2344 23.6728 50.3583 23.9846 50.3583H37.4221C37.734 50.3583 38.033 50.2344 38.2535 50.0139C38.474 49.7934 38.5979 49.4943 38.5979 49.1825C38.5979 48.8707 38.474 48.5716 38.2535 48.3511C38.033 48.1306 37.734 48.0067 37.4221 48.0067Z" fill="black"/>
<path d="M37.4221 52.038H23.9846C23.6728 52.038 23.3737 52.1618 23.1532 52.3823C22.9327 52.6028 22.8088 52.9019 22.8088 53.2137C22.8088 53.5256 22.9327 53.8246 23.1532 54.0451C23.3737 54.2656 23.6728 54.3895 23.9846 54.3895H37.4221C37.734 54.3895 38.033 54.2656 38.2535 54.0451C38.474 53.8246 38.5979 53.5256 38.5979 53.2137C38.5979 52.9019 38.474 52.6028 38.2535 52.3823C38.033 52.1618 37.734 52.038 37.4221 52.038Z" fill="black"/>
<path d="M51.2156 50.0223H47.1843C47.0299 50.0223 46.877 50.0526 46.7343 50.1117C46.5916 50.1707 46.4619 50.2573 46.3527 50.3665C46.2435 50.4757 46.1569 50.6054 46.0979 50.7481C46.0388 50.8908 46.0085 51.0437 46.0085 51.1981V55.2294C46.0085 55.3838 46.0388 55.5367 46.0979 55.6794C46.1569 55.8221 46.2435 55.9518 46.3527 56.061C46.4619 56.1702 46.5916 56.2568 46.7343 56.3158C46.877 56.3749 47.0299 56.4052 47.1843 56.4052H51.2156C51.5274 56.4052 51.8265 56.2813 52.047 56.0608C52.2675 55.8403 52.3914 55.5412 52.3914 55.2294V51.1981C52.3914 50.8863 52.2675 50.5872 52.047 50.3667C51.8265 50.1462 51.5274 50.0223 51.2156 50.0223ZM50.0398 54.0536H48.3601V52.3739H50.0398V54.0536Z" fill="black"/>
<path d="M63.4462 50.0223H59.4149C59.2605 50.0223 59.1076 50.0526 58.9649 50.1117C58.8222 50.1707 58.6925 50.2573 58.5833 50.3665C58.4741 50.4757 58.3875 50.6054 58.3285 50.7481C58.2694 50.8908 58.239 51.0437 58.2391 51.1981V55.2294C58.239 55.3838 58.2694 55.5367 58.3285 55.6794C58.3875 55.8221 58.4741 55.9518 58.5833 56.061C58.6925 56.1702 58.8222 56.2568 58.9649 56.3158C59.1076 56.3749 59.2605 56.4052 59.4149 56.4052H63.4462C63.758 56.4052 64.0571 56.2813 64.2776 56.0608C64.4981 55.8403 64.622 55.5412 64.622 55.2294V51.1981C64.622 50.8863 64.4981 50.5872 64.2776 50.3667C64.0571 50.1462 63.758 50.0223 63.4462 50.0223ZM62.2704 54.0536H60.5907V52.3739H62.2704V54.0536Z" fill="black"/>
</mask>
<g mask="url(#mask0_1_103813)">
<rect x="-24.1914" y="-8" width="146" height="99" fill="url(#paint0_linear_1_103813)"/>
</g>
<defs>
<linearGradient id="paint0_linear_1_103813" x1="48.8086" y1="-8" x2="48.8086" y2="91" gradientUnits="userSpaceOnUse">
<stop stop-color="#B48A3D"/>
<stop offset="1" stop-color="#FCECCE"/>
</linearGradient>
</defs>
</svg>
