<svg width="98" height="80" viewBox="0 0 98 80" fill="none" xmlns="http://www.w3.org/2000/svg">
<mask id="mask0_1_103833" style="mask-type:alpha" maskUnits="userSpaceOnUse" x="0" y="0" width="99" height="80">
<path d="M9.10682 52.3726H7.57251C6.77971 52.3726 6.13696 53.0153 6.13696 53.8081C6.13696 54.6009 6.77971 55.2437 7.57251 55.2437H9.10682C9.89963 55.2437 10.5424 54.6009 10.5424 53.8081C10.5424 53.0153 9.89963 52.3726 9.10682 52.3726Z" fill="black"/>
<path d="M16.7792 52.3726H15.2449C14.4521 52.3726 13.8093 53.0153 13.8093 53.8081C13.8093 54.6009 14.4521 55.2437 15.2449 55.2437H16.7792C17.572 55.2437 18.2147 54.6009 18.2147 53.8081C18.2147 53.0153 17.572 52.3726 16.7792 52.3726Z" fill="black"/>
<path d="M96.1254 30.2181L78.9141 2.33866C77.6066 0.227451 74.8249 -0.426966 72.7133 0.879764C70.6017 2.18688 69.9471 4.96858 71.254 7.08075L72.5273 9.13722L49.8244 20.5397C47.9689 21.4716 46.5632 23.147 45.9679 25.1365L43.3279 33.9609H36.7251C35.0874 33.9609 33.7553 35.2931 33.7553 36.9307V46.2356H2.96986C1.33219 46.2354 0 47.5676 0 49.2052V58.4113C0 60.049 1.33219 61.3812 2.96986 61.3812H30.6868V64.6473H13.7102C9.53452 64.6473 6.13744 68.0446 6.13744 72.2203C6.13744 76.396 9.53471 79.7931 13.7102 79.7931H65.8776C70.0533 79.7931 73.4504 76.3959 73.4504 72.2203C73.4504 68.0446 70.0532 64.6473 65.8776 64.6473H56.6712C55.8784 64.6473 55.2356 65.2901 55.2356 66.0829C55.2356 66.8757 55.8784 67.5184 56.6712 67.5184H59.9477C58.9206 68.8112 58.3046 70.4446 58.3046 72.2203C58.3046 73.9958 58.9204 75.6295 59.9477 76.922H19.6402C20.6673 75.6293 21.2832 73.9958 21.2832 72.2203C21.2832 70.4446 20.6675 68.8112 19.6402 67.5184H27.926C27.7281 68.0251 27.6182 68.5756 27.6182 69.1515C27.6182 71.6352 29.6389 73.6557 32.1224 73.6557C34.6059 73.6557 36.6265 71.635 36.6265 69.1515C36.6265 68.5756 36.5167 68.0251 36.3188 67.5184H43.2691C43.0712 68.0251 42.9613 68.5756 42.9613 69.1515C42.9613 71.6352 44.982 73.6557 47.4655 73.6557C49.949 73.6557 51.9697 71.635 51.9697 69.1515C51.9697 67.1697 50.6827 65.4842 48.901 64.8831V61.381H54.9336C55.785 61.381 56.5965 61.0148 57.16 60.3765C57.7235 59.7381 57.9861 58.8875 57.8805 58.0427L55.1954 36.5619C55.1675 36.3387 55.1126 36.1251 55.0385 35.9211V29.5721C55.0385 28.9656 55.3715 28.4126 55.9077 28.1287L77.2803 16.8138L83.8708 27.4588C83.2252 28.0231 82.8544 28.8249 82.8544 29.6897V49.0077L81.1825 50.7321C80.6305 51.3013 80.6444 52.2101 81.2139 52.762C81.4927 53.0324 81.853 53.1668 82.213 53.1668C82.5878 53.1668 82.9622 53.0209 83.2437 52.7306L96.1367 39.434C97.3383 38.1948 98.0002 36.5615 98.0002 34.8303C98 33.0561 97.2968 31.4198 96.1254 30.2181ZM74.2245 3.32096C74.9901 2.84704 75.999 3.08438 76.4722 3.84847L91.395 28.021L86.9 26.8972L79.4183 14.8126C79.5639 14.5379 79.6836 14.2464 79.7718 13.94C80.1125 12.7569 79.9615 11.5179 79.3463 10.4514C78.4974 8.9795 76.9306 8.16717 75.3298 8.20909L73.6954 5.56941C73.2215 4.80359 73.4588 3.79488 74.2245 3.32096ZM61.1759 72.2203C61.1759 69.6277 63.2852 67.5184 65.8776 67.5184C68.47 67.5184 70.5793 69.6277 70.5793 72.2203C70.5793 74.8129 68.47 76.922 65.8776 76.922C63.2852 76.922 61.1759 74.8129 61.1759 72.2203ZM18.4119 72.2203C18.4119 74.8129 16.3026 76.922 13.7102 76.922C11.1178 76.922 9.00853 74.8127 9.00853 72.2203C9.00853 69.6279 11.1178 67.5184 13.7102 67.5184C16.3026 67.5184 18.4119 69.6277 18.4119 72.2203ZM33.7554 69.1515C33.7554 70.0521 33.0227 70.7846 32.1224 70.7846C31.222 70.7846 30.4893 70.0519 30.4893 69.1515C30.4893 68.2509 31.222 67.5184 32.1224 67.5184C33.0227 67.5184 33.7554 68.2511 33.7554 69.1515ZM47.4657 70.7848C46.5651 70.7848 45.8326 70.0521 45.8326 69.1517C45.8326 68.2511 46.5653 67.5186 47.4657 67.5186C48.3661 67.5186 49.0988 68.2513 49.0988 69.1517C49.0988 70.0521 48.3661 70.7848 47.4657 70.7848ZM46.0301 64.6473H33.5579V61.3812H46.0301V64.6473ZM55.0077 58.4766C54.9782 58.5101 54.9458 58.5101 54.9336 58.5101H2.96986C2.91531 58.5101 2.87109 58.4659 2.87109 58.4113V49.2052C2.87109 49.1507 2.91531 49.1065 2.96986 49.1065H35.191C35.9838 49.1065 36.6265 48.4637 36.6265 47.6709V36.9306C36.6265 36.876 36.6708 36.8318 36.7253 36.8318H52.2485C52.2983 36.8318 52.3404 36.8689 52.3467 36.9183L54.2784 52.3728H42.8628C42.8082 52.3728 42.764 52.3286 42.764 52.2741V41.5337C42.764 40.7409 42.1212 40.0981 41.3284 40.0981C40.5356 40.0981 39.8929 40.7409 39.8929 41.5337V52.2741C39.8929 53.9117 41.2251 55.2439 42.8628 55.2439H54.6373L55.0316 58.3991C55.0331 58.4111 55.0371 58.4433 55.0077 58.4766ZM54.5642 25.5913C53.0858 26.3739 52.1674 27.8992 52.1674 29.5721V33.9607H46.3249L48.7186 25.9593C49.0882 24.7242 49.9611 23.6839 51.1131 23.1053L74.7252 11.2463C75.4922 10.8608 76.4299 11.1416 76.859 11.8858C77.081 12.2709 77.1356 12.7182 77.0127 13.1455C76.8896 13.5727 76.6056 13.9224 76.2126 14.1304L54.5642 25.5913ZM94.0754 37.4355L85.7253 46.0469V29.6897C85.7253 29.6753 85.7253 29.6414 85.7634 29.6118C85.7854 29.5945 85.8059 29.5901 85.8218 29.5901C85.8333 29.5901 85.8423 29.5924 85.8482 29.594L92.2999 31.2069C93.9657 31.6234 95.1291 33.1135 95.1291 34.8356C95.1289 35.8114 94.7547 36.7348 94.0754 37.4355Z" fill="black"/>
</mask>
<g mask="url(#mask0_1_103833)">
<rect x="-18" y="-5" width="134" height="91" fill="url(#paint0_linear_1_103833)"/>
</g>
<defs>
<linearGradient id="paint0_linear_1_103833" x1="49" y1="-5" x2="49" y2="86" gradientUnits="userSpaceOnUse">
<stop stop-color="#B48A3D"/>
<stop offset="1" stop-color="#FCECCE"/>
</linearGradient>
</defs>
</svg>
