<svg width="78" height="74" viewBox="0 0 78 74" fill="none" xmlns="http://www.w3.org/2000/svg">
<mask id="mask0_1_103871" style="mask-type:alpha" maskUnits="userSpaceOnUse" x="0" y="0" width="78" height="74">
<path d="M52.7109 27.8594C51.4487 27.8594 50.4258 28.8824 50.4258 30.1446C50.4258 31.4062 51.4487 32.4297 52.7109 32.4297C56.491 32.4297 59.5664 35.5052 59.5664 39.2852C59.5664 40.5468 60.5894 41.5704 61.8516 41.5704C63.1132 41.5704 64.1368 40.5468 64.1368 39.2852C64.1368 35.5052 67.2122 32.4297 70.9922 32.4297C72.2538 32.4297 73.2774 31.4062 73.2774 30.1446C73.2774 28.8824 72.2538 27.8594 70.9922 27.8594C67.2122 27.8594 64.1368 24.7839 64.1368 21.0039C64.1368 19.7417 63.1132 18.7188 61.8516 18.7188C60.5894 18.7188 59.5664 19.7417 59.5664 21.0039C59.5664 24.7839 56.491 27.8594 52.7109 27.8594ZM61.8516 27.8523C62.5032 28.7199 63.2757 29.4923 64.1439 30.1446C63.2757 30.7962 62.5032 31.5686 61.8516 32.4369C61.1994 31.5686 60.4269 30.7962 59.5593 30.1446C60.4269 29.4923 61.1994 28.7199 61.8516 27.8523Z" fill="black"/>
<path d="M11.5781 16.4335C16.618 16.4335 20.7188 20.5337 20.7188 25.5742C20.7188 26.8358 21.7417 27.8593 23.0039 27.8593C24.2661 27.8593 25.2891 26.8358 25.2891 25.5742C25.2891 20.5337 29.3893 16.4335 34.4298 16.4335C35.6919 16.4335 36.7149 15.41 36.7149 14.1484C36.7149 12.8862 35.6919 11.8632 34.4298 11.8632C29.3893 11.8632 25.2891 7.76239 25.2891 2.72254C25.2891 1.46035 24.2661 0.437378 23.0039 0.437378C21.7417 0.437378 20.7188 1.46035 20.7188 2.72254C20.7188 7.76239 16.618 11.8632 11.5781 11.8632C10.3159 11.8632 9.29297 12.8862 9.29297 14.1484C9.29297 15.41 10.3159 16.4335 11.5781 16.4335ZM23.0039 10.2939C24.0186 11.8209 25.3314 13.1331 26.8578 14.1484C25.3314 15.1636 24.0186 16.4758 23.0039 18.0022C21.9887 16.4758 20.6765 15.1636 19.1495 14.1484C20.6765 13.1331 21.9887 11.8209 23.0039 10.2939Z" fill="black"/>
<path d="M0.225536 72.4189C0.605801 73.2109 1.4068 73.715 2.28516 73.715H75.715C76.5934 73.715 77.3944 73.2109 77.7747 72.4189C78.1549 71.6268 78.0478 70.6865 77.4985 70.001L51.4911 37.5297C48.4389 33.7145 43.8858 31.5264 39.0001 31.5264C34.1144 31.5264 29.5613 33.7145 26.5103 37.5285L0.50166 70.001C-0.0476121 70.6871 -0.155324 71.6268 0.225536 72.4189ZM30.0778 40.3849C32.2583 37.6594 35.5099 36.0967 39.0001 36.0967C42.4897 36.0967 45.7419 37.6594 47.9229 40.3855L70.9567 69.1447H7.04353L30.0778 40.3849Z" fill="black"/>
<path d="M41.2852 2.72254C41.2852 3.98474 40.2622 5.0077 39 5.0077C37.7378 5.0077 36.7148 3.98474 36.7148 2.72254C36.7148 1.46035 37.7378 0.437378 39 0.437378C40.2622 0.437378 41.2852 1.46035 41.2852 2.72254Z" fill="black"/>
<path d="M45.8555 21.0039C45.8555 22.2661 44.8325 23.2891 43.5703 23.2891C42.3081 23.2891 41.2852 22.2661 41.2852 21.0039C41.2852 19.7417 42.3081 18.7188 43.5703 18.7188C44.8325 18.7188 45.8555 19.7417 45.8555 21.0039Z" fill="black"/>
<path d="M27.5742 57.5664C27.5742 58.828 26.5513 59.8516 25.2891 59.8516C24.0269 59.8516 23.0039 58.828 23.0039 57.5664C23.0039 56.3042 24.0269 55.2812 25.2891 55.2812C26.5513 55.2812 27.5742 56.3042 27.5742 57.5664Z" fill="black"/>
<path d="M36.7149 48.4258C36.7149 49.6874 35.6919 50.7109 34.4297 50.7109C33.1675 50.7109 32.1445 49.6874 32.1445 48.4258C32.1445 47.1636 33.1675 46.1406 34.4297 46.1406C35.6919 46.1406 36.7149 47.1636 36.7149 48.4258Z" fill="black"/>
<path d="M36.7149 57.5664C36.7149 58.828 35.6919 59.8516 34.4297 59.8516C33.1675 59.8516 32.1445 58.828 32.1445 57.5664C32.1445 56.3042 33.1675 55.2812 34.4297 55.2812C35.6919 55.2812 36.7149 56.3042 36.7149 57.5664Z" fill="black"/>
<path d="M13.8633 30.1445C13.8633 31.4067 12.8403 32.4297 11.5781 32.4297C10.3159 32.4297 9.29297 31.4067 9.29297 30.1445C9.29297 28.8823 10.3159 27.8594 11.5781 27.8594C12.8403 27.8594 13.8633 28.8823 13.8633 30.1445Z" fill="black"/>
<path d="M52.7109 5.00781C51.4488 5.00781 50.4258 6.03078 50.4258 7.29297V9.57814H48.1406C46.8784 9.57814 45.8555 10.6011 45.8555 11.8633C45.8555 13.1249 46.8784 14.1485 48.1406 14.1485H50.4258V16.4336C50.4258 17.6952 51.4488 18.7188 52.7109 18.7188C53.9725 18.7188 54.9961 17.6952 54.9961 16.4336V14.1485H57.2813C58.5429 14.1485 59.5664 13.1249 59.5664 11.8633C59.5664 10.6011 58.5429 9.57814 57.2813 9.57814H54.9961V7.29297C54.9961 6.03078 53.9725 5.00781 52.7109 5.00781Z" fill="black"/>
</mask>
<g mask="url(#mask0_1_103871)">
<rect x="-18" y="-5" width="134" height="91" fill="url(#paint0_linear_1_103871)"/>
</g>
<defs>
<linearGradient id="paint0_linear_1_103871" x1="49" y1="-5" x2="49" y2="86" gradientUnits="userSpaceOnUse">
<stop stop-color="#B48A3D"/>
<stop offset="1" stop-color="#FCECCE"/>
</linearGradient>
</defs>
</svg>
