<svg width="78" height="71" viewBox="0 0 78 71" fill="none" xmlns="http://www.w3.org/2000/svg">
<mask id="mask0_1_103895" style="mask-type:alpha" maskUnits="userSpaceOnUse" x="0" y="0" width="78" height="71">
<path d="M77.8122 22.1045L69.6385 8.40333C69.6346 8.39671 69.6266 8.39273 69.6226 8.38611C69.5321 8.24034 69.4122 8.11709 69.2711 8.01505C69.2485 7.99783 69.2272 7.98192 69.2032 7.96602C69.1793 7.95012 69.1593 7.93024 69.1327 7.91566L54.8781 0.16198C54.3935 -0.101733 53.7945 -0.039449 53.3725 0.319677L7.76129 39.2988C7.75197 39.3068 7.74532 39.3187 7.736 39.3266C7.71869 39.3425 7.70538 39.3611 7.68941 39.3783C7.58957 39.479 7.50969 39.593 7.44713 39.7162C7.43781 39.7335 7.42183 39.7441 7.41385 39.7613L0.117491 55.9617C-0.171382 56.6005 0.0895352 57.3519 0.712541 57.6765L25.9137 70.8489C25.9336 70.8595 25.9563 70.8635 25.9776 70.8728C25.9949 70.8807 26.0082 70.894 26.0268 70.9019C26.0454 70.9099 26.0654 70.9059 26.0841 70.9125C26.2305 70.9642 26.3796 71 26.5327 71C26.6804 71 26.8269 70.9669 26.968 70.9178C27.0106 70.9033 27.0478 70.8834 27.0891 70.8635C27.1397 70.8396 27.1943 70.8251 27.2422 70.7959C27.2955 70.7628 27.3367 70.7177 27.3846 70.678C27.4033 70.6621 27.4259 70.6568 27.4445 70.6409L77.5805 23.7464C78.0345 23.321 78.133 22.6385 77.8122 22.1045ZM54.4082 2.92633L66.212 9.3482L25.4384 46.052L11.1159 39.9256L54.4082 2.92633ZM3.05813 55.9101L9.30683 42.038L24.3987 48.4943L25.1149 67.4392L3.05813 55.9101ZM27.7534 66.7157L27.0518 48.1736L49.078 28.3461L68.1835 11.1478L74.9794 22.5418L27.7534 66.7157Z" fill="black"/>
<line x1="18.0707" y1="37.505" x2="25.0707" y2="38.505" stroke="black"/>
<line x1="60.1923" y1="24.9425" x2="61.782" y2="31.8326" stroke="black"/>
<line x1="63.3015" y1="20.7062" x2="70.3563" y2="21.1862" stroke="black"/>
<line x1="3.03394" y1="55.5012" x2="10.0887" y2="55.9811" stroke="black"/>
<line x1="29.0969" y1="31.5808" x2="35.4701" y2="28.5177" stroke="black"/>
<line x1="40.5162" y1="47.7161" x2="42.3003" y2="40.8738" stroke="black"/>
<line x1="20.5162" y1="52.7161" x2="22.3003" y2="45.8738" stroke="black"/>
<line x1="39.6641" y1="19.9992" x2="41.6679" y2="26.7804" stroke="black"/>
<line x1="48.8737" y1="37.1125" x2="54.5297" y2="32.8687" stroke="black"/>
<line x1="47.8763" y1="13.6641" x2="54.4836" y2="16.1828" stroke="black"/>
<line x1="31.1781" y1="50.5328" x2="37.7854" y2="53.0514" stroke="black"/>
</mask>
<g mask="url(#mask0_1_103895)">
<rect x="-18" y="-5" width="118" height="80" fill="url(#paint0_linear_1_103895)"/>
</g>
<defs>
<linearGradient id="paint0_linear_1_103895" x1="41" y1="-5" x2="41" y2="75" gradientUnits="userSpaceOnUse">
<stop stop-color="#B48A3D"/>
<stop offset="1" stop-color="#FCECCE"/>
</linearGradient>
</defs>
</svg>
