<svg width="80" height="80" viewBox="0 0 80 80" fill="none" xmlns="http://www.w3.org/2000/svg">
<mask id="mask0_1_103885" style="mask-type:alpha" maskUnits="userSpaceOnUse" x="0" y="0" width="80" height="80">
<path d="M42.3894 46.4222C42.3894 47.0693 42.9139 47.594 43.5613 47.594C44.2086 47.594 44.7331 47.0693 44.7331 46.4222C44.7331 44.3147 43.0939 42.7397 41.1719 42.8464V42.1984C41.1719 41.5512 40.6474 41.0266 40 41.0266C39.3528 41.0266 38.8282 41.5512 38.8282 42.1984V42.8464C36.8954 42.7161 35.2635 44.3476 35.2669 46.4222V48.0247C35.2572 50.0731 36.8954 51.7492 38.8282 51.6004V55.667C38.1627 55.7473 37.6107 55.2484 37.6107 54.4349C37.6107 53.7878 37.086 53.2631 36.4388 53.2631C35.7916 53.2631 35.2669 53.7878 35.2669 54.4349C35.2669 56.4832 36.8954 58.1596 38.8282 58.0107V58.6588C38.8282 59.306 39.3528 59.8307 40 59.8307C40.6474 59.8307 41.1719 59.306 41.1719 58.6588V58.0107C43.0863 58.1173 44.7383 56.527 44.7331 54.4349V52.8323C44.7378 50.7243 43.0938 49.1503 41.1719 49.2565V45.1901C41.8174 45.0794 42.3894 45.6314 42.3894 46.4222ZM38.8282 49.2568C38.1628 49.3373 37.6116 48.8381 37.6107 48.0248V46.4223C37.6091 45.6487 38.1846 45.0703 38.8282 45.1903V49.2568ZM42.3894 52.8324V54.4351C42.3795 55.2045 41.8246 55.7906 41.1719 55.6671V51.6006C41.8174 51.4893 42.3906 52.0418 42.3894 52.8324ZM45.3906 12.4829C45.3906 9.51059 42.9724 7.09232 40 7.09232C37.0277 7.09232 34.6094 9.51059 34.6094 12.4829C34.6094 15.4553 37.0277 17.8735 40 17.8735C42.9724 17.8735 45.3906 15.4553 45.3906 12.4829ZM36.9532 12.4829C36.9532 10.8029 38.32 9.43606 40 9.43606C41.68 9.43606 43.0469 10.8029 43.0469 12.4829C43.0469 14.1629 41.68 15.5298 40 15.5298C38.32 15.5298 36.9532 14.1629 36.9532 12.4829ZM40 37.0009C32.596 37.0009 26.5723 43.0247 26.5723 50.4287C26.5723 57.8327 32.596 63.8565 40 63.8565C47.4042 63.8565 53.4278 57.8327 53.4278 50.4287C53.4278 43.0247 47.4042 37.0009 40 37.0009ZM40 61.5127C33.8883 61.5127 28.916 56.5404 28.916 50.4287C28.916 44.317 33.8883 39.3447 40 39.3447C46.1117 39.3447 51.084 44.317 51.084 50.4287C51.084 56.5404 46.1117 61.5127 40 61.5127ZM74.7455 30.2488C77.4578 30.4185 80.023 28.4461 79.9999 25.5613V22.0457C79.9805 21.7099 79.87 21.2844 79.3842 21.0141L42.841 0.75531C41.0622 -0.230937 38.938 -0.230937 37.1591 0.75531L22.4154 8.92903C21.8493 9.24278 21.6448 9.95606 21.9587 10.5221C22.2724 11.0882 22.9859 11.2929 23.5518 10.9789L38.2955 2.80515C39.363 2.21343 40.6374 2.21358 41.7047 2.80515L74.2974 20.8738H5.70282L18.7146 13.6603C19.2807 13.3465 19.4853 12.6332 19.1714 12.0671C18.8576 11.501 18.1443 11.2965 17.5782 11.6104L0.616121 21.014C0.346747 21.1718 -0.00450115 21.5093 0.00018633 22.0457V25.5613C-0.0248136 28.3207 2.46955 30.55 5.25454 30.2488L9.37515 36.0489V64.8085L5.25454 70.6085H2.73455C1.2269 70.6085 0.00018633 71.8352 0.00018633 73.3428V77.2491C0.00018633 78.7567 1.2269 79.9834 2.73455 79.9834H77.2655C78.7732 79.9834 79.9999 78.7567 79.9999 77.2491V73.3428C79.9999 71.8352 78.7732 70.6085 77.2655 70.6085H74.7455L70.6249 64.8085V36.0489L74.7455 30.2488ZM4.68767 27.905C3.39533 27.905 2.34393 26.8536 2.34393 25.5613V23.2176H77.6561V25.5613C77.6561 26.8536 76.6047 27.905 75.3124 27.905H4.68767ZM60.0388 51.435C60.6862 51.435 61.2107 50.9103 61.2107 50.2631V36.8469H68.2812V64.0105H61.2107V55.7318C61.2107 55.0846 60.6862 54.5599 60.0388 54.5599C59.3915 54.5599 58.867 55.0846 58.867 55.7318V64.8085L54.7464 70.6085H25.2538L21.1332 64.8085V36.0489L25.2538 30.2488H54.7465L58.8671 36.0489V50.2631C58.867 50.9103 59.3917 51.435 60.0388 51.435ZM8.12968 30.2488H22.3788L19.3565 34.5031H11.152L8.12968 30.2488ZM18.7895 36.8469V64.0105H11.7189V36.8469H18.7895ZM11.152 66.3543H19.3564L22.3787 70.6085H8.12968L11.152 66.3543ZM77.2655 72.9522C77.481 72.9522 77.6561 73.1275 77.6561 73.3428V77.2491C77.6561 77.4644 77.481 77.6397 77.2655 77.6397H2.73455C2.51924 77.6397 2.34393 77.4644 2.34393 77.2491V73.3428C2.34393 73.1275 2.51924 72.9522 2.73455 72.9522H77.2655ZM71.8705 70.6085H57.6215L60.644 66.3543H68.8482L71.8705 70.6085ZM68.848 34.5031H60.6438L57.6214 30.2488H71.8704L68.848 34.5031Z" fill="black"/>
</mask>
<g mask="url(#mask0_1_103885)">
<rect x="-18" y="-5" width="134" height="91" fill="url(#paint0_linear_1_103885)"/>
</g>
<defs>
<linearGradient id="paint0_linear_1_103885" x1="49" y1="-5" x2="49" y2="86" gradientUnits="userSpaceOnUse">
<stop stop-color="#B48A3D"/>
<stop offset="1" stop-color="#FCECCE"/>
</linearGradient>
</defs>
</svg>
