<svg width="32" height="32" viewBox="0 0 32 32" fill="none" xmlns="http://www.w3.org/2000/svg">
<path fill-rule="evenodd" clip-rule="evenodd" d="M15.5888 10.0892C14.8593 10.3172 14.2198 10.8309 14.2198 11.1889V11.3237H18.9349C21.7291 11.3237 23.6613 11.3061 23.6776 11.2804C23.6928 11.2567 23.5697 10.9589 23.4041 10.6186L23.103 10L19.4803 10.0026C16.146 10.0049 15.8363 10.0118 15.5888 10.0892ZM13.51 12.0071C13.0513 12.1046 12.928 12.1712 12.0931 12.7735C11.2019 13.4162 10.4957 13.9783 9.80912 14.5911L9.33414 15.015L8.04904 15.1543C5.35691 15.446 4.43409 15.6208 4.1381 15.8949C3.90191 16.1138 3.70962 16.8605 3.70835 17.5637L3.70776 17.9183L3.47578 17.9892C3.27288 18.0512 3.22844 18.0898 3.12156 18.2965C3.01322 18.506 2.99943 18.5919 3.00002 19.0529C3.0009 19.6882 3.12665 20.1388 3.38318 20.4259L3.55029 20.6129L4.26483 20.6291L4.97942 20.6454V20.1309C4.97942 19.8253 5.00963 19.502 5.05383 19.3346C5.36458 18.1576 6.3866 17.3725 7.60369 17.3758C8.39548 17.3779 8.91451 17.5788 9.44112 18.0869C9.9686 18.5958 10.2085 19.2018 10.2258 20.0691L10.2352 20.5419L14.348 20.5419L18.4607 20.542L18.4658 20.1646C18.4844 18.7734 19.4371 17.6301 20.7583 17.4136C21.7758 17.2469 22.8288 17.7649 23.3216 18.6748C23.5509 19.098 23.6529 19.4853 23.6899 20.0727L23.7194 20.542H24.7192C25.8354 20.542 25.9547 20.5164 26.1811 20.2295C26.4194 19.9275 26.5035 19.5542 26.5286 18.6865L26.5517 17.8947H27.0862C27.6867 17.8947 27.86 17.8403 27.9531 17.623C27.9946 17.5261 28.0068 17.0034 27.9966 15.7495L27.9826 14.0104L27.823 13.8725L27.6633 13.7346L26.9918 13.7353C26.6225 13.7357 26.2962 13.7517 26.2666 13.7708C26.1402 13.8523 26.1003 14.0359 26.1003 14.5351C26.1003 15.0159 26.0929 15.0583 26.0083 15.0583C25.9323 15.0583 25.8584 14.8947 25.5866 14.1246C25.4054 13.6111 25.196 13.0601 25.1213 12.9002C24.9533 12.5405 24.6606 12.2511 24.2986 12.087L24.0225 11.9618L18.9134 11.9532C14.8328 11.9464 13.745 11.9573 13.51 12.0071ZM16.5112 12.5478C16.5668 12.5819 16.5479 12.8327 16.398 14.0481C16.2991 14.8507 16.198 15.5552 16.1734 15.6137L16.1287 15.7201H13.486C11.1891 15.7201 10.8396 15.7109 10.8153 15.6496C10.7732 15.5435 11.1985 14.7365 11.5044 14.3422C12.1254 13.5416 12.9979 12.8328 13.6262 12.6183C13.9342 12.5132 14.0152 12.5075 15.1976 12.5072C15.8833 12.5071 16.4744 12.5253 16.5112 12.5478ZM20.404 12.5646C20.4445 12.6793 20.6356 15.5768 20.6073 15.6479C20.5824 15.7108 20.3488 15.7201 18.7955 15.7201C17.8148 15.7201 17.0029 15.7041 16.9915 15.6846C16.9693 15.6471 17.3329 12.6658 17.3719 12.5646C17.3894 12.5191 17.7383 12.5055 18.8889 12.5055C20.0406 12.5055 20.388 12.5191 20.404 12.5646ZM22.9651 12.5538C23.7318 12.6319 23.9973 12.8328 24.2418 13.5199C24.3424 13.8026 24.7314 15.4829 24.7314 15.6347C24.7314 15.7154 24.6395 15.7201 23.0713 15.7201H21.4113L21.3862 15.5664C21.3506 15.348 21.1624 12.9403 21.1624 12.703V12.5055L21.8346 12.5063C22.2044 12.5068 22.7131 12.5281 22.9651 12.5538ZM6.91942 18.0323C6.3581 18.2109 5.94111 18.5748 5.66869 19.1238C5.50118 19.4614 5.49278 19.502 5.49278 19.9747C5.49278 20.4483 5.50089 20.4873 5.66981 20.8256C6.07385 21.6349 6.79875 22.047 7.72817 21.9957C8.08816 21.9759 8.21464 21.9459 8.48867 21.8155C10.0872 21.0547 10.0724 18.8482 8.46408 18.1187C8.17665 17.9884 8.07153 17.9668 7.66843 17.9552C7.31367 17.9449 7.13674 17.9632 6.91942 18.0323ZM20.3741 18.0484C19.955 18.19 19.5622 18.4798 19.329 18.8195C18.3519 20.2428 19.4307 22.0958 21.1784 21.9961C21.89 21.9556 22.4315 21.6639 22.8123 21.1162C23.0977 20.7055 23.1827 20.3974 23.1584 19.8615C23.142 19.5008 23.1137 19.3791 22.9838 19.1108C22.7834 18.697 22.4158 18.3401 21.9729 18.1293C21.6713 17.9858 21.5837 17.9667 21.1662 17.9537C20.7766 17.9416 20.6434 17.9575 20.3741 18.0484ZM7.32619 19.3601V19.7383H6.95951C6.56882 19.7383 6.54784 19.7223 6.66181 19.5114C6.76355 19.3231 7.15189 19.0089 7.31397 18.9838C7.32071 18.9828 7.32619 19.1521 7.32619 19.3601ZM20.8201 19.3601V19.7383H20.4534C20.1852 19.7383 20.0867 19.7218 20.0867 19.6769C20.0867 19.5411 20.3601 19.2187 20.5721 19.1046C20.6951 19.0384 20.8012 18.9837 20.8079 18.9831C20.8146 18.9825 20.8201 19.1521 20.8201 19.3601ZM8.13846 19.1271C8.31496 19.2326 8.46789 19.4153 8.54602 19.6139L8.59491 19.7383H8.20501H7.8151V19.3838C7.8151 18.9822 7.84981 18.9546 8.13846 19.1271ZM21.6324 19.1271C21.8089 19.2326 21.9618 19.4153 22.0399 19.6139L22.0888 19.7383H21.6989H21.309V19.3838C21.309 18.9822 21.3437 18.9546 21.6324 19.1271ZM7.32619 20.5656C7.32619 20.7816 7.30614 20.9202 7.27485 20.9202C7.05988 20.9202 6.59282 20.4691 6.59282 20.2614C6.59282 20.2302 6.73255 20.2111 6.95951 20.2111H7.32619V20.5656ZM8.54602 20.3354C8.46789 20.5341 8.31496 20.7168 8.13846 20.8223C7.84981 20.9948 7.8151 20.9672 7.8151 20.5656V20.2111H8.20501H8.59491L8.54602 20.3354ZM20.8201 20.5905V20.9698L20.6612 20.8924C20.3813 20.7557 20.0867 20.4319 20.0867 20.2607C20.0867 20.2304 20.23 20.2111 20.4534 20.2111H20.8201V20.5905ZM22.0399 20.3354C21.9618 20.5341 21.8089 20.7168 21.6324 20.8223C21.3437 20.9948 21.309 20.9672 21.309 20.5656V20.2111H21.6989H22.0888L22.0399 20.3354Z" fill="url(#paint0_linear_804_1520)"/>
<rect x="0.5" y="0.5" width="31" height="31" rx="15.5" stroke="url(#paint1_linear_804_1520)"/>
<defs>
<linearGradient id="paint0_linear_804_1520" x1="3" y1="9.52033" x2="14.4591" y2="26.2636" gradientUnits="userSpaceOnUse">
<stop stop-color="#B48A3D"/>
<stop offset="0.447917" stop-color="#FCECCD"/>
<stop offset="1" stop-color="#CCAB6C"/>
</linearGradient>
<linearGradient id="paint1_linear_804_1520" x1="-2.22411e-07" y1="-1.27913" x2="30.8212" y2="20.3372" gradientUnits="userSpaceOnUse">
<stop stop-color="#B48A3D"/>
<stop offset="0.447917" stop-color="#FCECCD"/>
<stop offset="1" stop-color="#CCAB6C"/>
</linearGradient>
</defs>
</svg>
