<svg width="32" height="32" viewBox="0 0 32 32" fill="none" xmlns="http://www.w3.org/2000/svg">
<path d="M8.73077 9.72488C8.73077 9.65229 8.76008 9.58278 8.81205 9.53211L13.6582 4.80711C13.7085 4.75809 13.7759 4.73065 13.8462 4.73065L18.1538 4.73065C18.2241 4.73065 18.2915 4.75809 18.3418 4.80711L23.1879 9.53211C23.2399 9.58278 23.2692 9.65229 23.2692 9.72488L23.2692 21.2749C23.2692 21.3475 23.2399 21.417 23.1879 21.4676L18.3418 26.1926C18.2915 26.2417 18.2241 26.2691 18.1538 26.2691L13.8462 26.2691C13.7759 26.2691 13.7085 26.2417 13.6582 26.1926L8.81205 21.4676C8.76008 21.417 8.73077 21.3475 8.73077 21.2749L8.73077 9.72488Z" fill="#A8BECF" stroke="#8DA0B0" stroke-width="0.538461" stroke-linejoin="round"/>
<path d="M9 21.275L9 9.72498L13.0385 11.0375L13.0385 19.9625L9 21.275Z" fill="#B4C7D7"/>
<path d="M13.8462 4.99988L9 9.72488L13.0385 11.0374L16 7.62488L18.1538 4.99988L13.8462 4.99988Z" fill="#BED2E1"/>
<path d="M18.9616 19.9624L16 23.3749L13.8462 25.9999L18.1539 25.9999L23 21.2749L23 9.72488L18.1539 4.99988L16 7.62488L18.9616 11.0374L18.9616 19.9624Z" fill="#DCECF9"/>
<path d="M22.9999 9.72498L22.9999 21.275L18.9614 19.9625L18.9614 11.0375L22.9999 9.72498Z" fill="#BED2E1"/>
<ellipse cx="21.9232" cy="12.3498" rx="0.538461" ry="0.525" fill="#98AFC3"/>
<ellipse cx="21.25" cy="14.5811" rx="0.403846" ry="0.39375" fill="#98AFC3"/>
<ellipse cx="22.1921" cy="13.9249" rx="0.269231" ry="0.2625" fill="#98AFC3"/>
<ellipse cx="20.8464" cy="13.1375" rx="0.269231" ry="0.2625" fill="#98AFC3"/>
<ellipse cx="22.1921" cy="10.775" rx="0.269231" ry="0.2625" fill="#98AFC3"/>
<ellipse cx="22.1921" cy="17.0749" rx="0.269231" ry="0.2625" fill="#98AFC3"/>
<ellipse cx="22.1921" cy="15.7625" rx="0.269231" ry="0.2625" fill="#98AFC3"/>
<path d="M13.0386 11.0375L13.0386 19.9625L16.0001 23.375L18.9616 19.9748L18.9616 11.0375L16.0001 7.625L13.0386 11.0375Z" fill="#CDDEEC"/>
<path d="M13.0386 19.9625L13.0386 11.0375L16.0001 7.625L18.9616 11.0375L13.0386 19.9625Z" fill="#DCECF9"/>
<path d="M16.0002 8.41235L13.5771 11.2999V16.8124" stroke="#FEFFFF" stroke-width="0.538461" stroke-linecap="round" stroke-linejoin="round"/>
<path d="M9.53857 10.5125V20.4874" stroke="#EBF6FF" stroke-width="0.538461" stroke-linecap="round" stroke-linejoin="round"/>
<path d="M10.0771 9.46252L14.1156 5.52502" stroke="#FFFEFD" stroke-width="0.538461" stroke-linecap="round" stroke-linejoin="round"/>
<ellipse cx="20.981" cy="21.9311" rx="0.403846" ry="0.39375" fill="#8DA0B0" fill-opacity="0.62"/>
<ellipse cx="18.2886" cy="24.5562" rx="0.403846" ry="0.39375" fill="#8DA0B0" fill-opacity="0.62"/>
<ellipse cx="19.3653" cy="23.5063" rx="0.403846" ry="0.39375" fill="#8DA0B0" fill-opacity="0.62"/>
<ellipse cx="18.154" cy="22.85" rx="0.269231" ry="0.2625" fill="#8DA0B0" fill-opacity="0.62"/>
<ellipse cx="20.0383" cy="22.85" rx="0.269231" ry="0.2625" fill="#8DA0B0" fill-opacity="0.62"/>
<ellipse cx="19.2308" cy="21.7999" rx="0.538461" ry="0.525" fill="#8DA0B0" fill-opacity="0.62"/>
<rect x="0.5" y="0.5" width="31" height="31" rx="15.5" stroke="url(#paint0_linear_803_643)"/>
<defs>
<linearGradient id="paint0_linear_803_643" x1="-2.22411e-07" y1="-1.27913" x2="30.8212" y2="20.3372" gradientUnits="userSpaceOnUse">
<stop stop-color="#B48A3D"/>
<stop offset="0.447917" stop-color="#FCECCD"/>
<stop offset="1" stop-color="#CCAB6C"/>
</linearGradient>
</defs>
</svg>
