<svg width="32" height="32" viewBox="0 0 32 32" fill="none" xmlns="http://www.w3.org/2000/svg">
<path d="M9.5 10.0001L9.5 21.0001L14 25.5001L18 25.5001L22.5 21.0001L22.5 10.0001L18 5.50012L14 5.50012L9.5 10.0001Z" fill="url(#paint0_linear_804_708)"/>
<path fill-rule="evenodd" clip-rule="evenodd" d="M9.14645 9.64645C9.05268 9.74021 9 9.86739 9 10L9 21C9 21.1326 9.05268 21.2598 9.14645 21.3536L13.6464 25.8536C13.7402 25.9473 13.8674 26 14 26L18 26C18.1326 26 18.2598 25.9473 18.3536 25.8536L22.8536 21.3536C22.9473 21.2598 23 21.1326 23 21L23 10C23 9.86739 22.9473 9.74021 22.8536 9.64645L18.3536 5.14645C18.2598 5.05268 18.1326 5 18 5L14 5C13.8674 5 13.7402 5.05268 13.6464 5.14645L9.14645 9.64645ZM14 5.5L9.5 10L9.5 21L14 25.5L18 25.5L22.5 21L22.5 10L18 5.5L14 5.5Z" fill="url(#paint1_linear_804_708)"/>
<path d="M9.5 21.0001L9.5 10.0001L13.25 11.2501L13.25 19.7501L9.5 21.0001Z" fill="url(#paint2_linear_804_708)"/>
<path d="M14 5.50012L9.5 10.0001L13.25 11.2501L16 8.00012L18 5.50012L14 5.50012Z" fill="#FFEEC1"/>
<path d="M18.75 19.7501L16 23.0001L14 25.5001L18 25.5001L22.5 21.0001L22.5 10.0001L18 5.50012L16 8.00012L18.75 11.2501L18.75 19.7501Z" fill="url(#paint3_linear_804_708)"/>
<path d="M22.5 10.0001L22.5 21.0001L18.75 19.7501L18.75 11.2501L22.5 10.0001Z" fill="url(#paint4_linear_804_708)"/>
<path d="M22 12.5C22 12.7761 21.7761 13 21.5 13C21.2239 13 21 12.7761 21 12.5C21 12.2239 21.2239 12 21.5 12C21.7761 12 22 12.2239 22 12.5Z" fill="url(#paint5_linear_804_708)"/>
<path d="M21.25 14.625C21.25 14.8321 21.0821 15 20.875 15C20.6679 15 20.5 14.8321 20.5 14.625C20.5 14.4179 20.6679 14.25 20.875 14.25C21.0821 14.25 21.25 14.4179 21.25 14.625Z" fill="url(#paint6_linear_804_708)"/>
<path d="M22 14C22 14.1381 21.8881 14.25 21.75 14.25C21.6119 14.25 21.5 14.1381 21.5 14C21.5 13.8619 21.6119 13.75 21.75 13.75C21.8881 13.75 22 13.8619 22 14Z" fill="url(#paint7_linear_804_708)"/>
<path d="M20.75 13.25C20.75 13.3881 20.6381 13.5 20.5 13.5C20.3619 13.5 20.25 13.3881 20.25 13.25C20.25 13.1119 20.3619 13 20.5 13C20.6381 13 20.75 13.1119 20.75 13.25Z" fill="url(#paint8_linear_804_708)"/>
<path d="M22 11C22 11.1381 21.8881 11.25 21.75 11.25C21.6119 11.25 21.5 11.1381 21.5 11C21.5 10.8619 21.6119 10.75 21.75 10.75C21.8881 10.75 22 10.8619 22 11Z" fill="url(#paint9_linear_804_708)"/>
<path d="M22 17C22 17.1381 21.8881 17.25 21.75 17.25C21.6119 17.25 21.5 17.1381 21.5 17C21.5 16.8619 21.6119 16.75 21.75 16.75C21.8881 16.75 22 16.8619 22 17Z" fill="url(#paint10_linear_804_708)"/>
<path d="M22 15.75C22 15.8881 21.8881 16 21.75 16C21.6119 16 21.5 15.8881 21.5 15.75C21.5 15.6119 21.6119 15.5 21.75 15.5C21.8881 15.5 22 15.6119 22 15.75Z" fill="url(#paint11_linear_804_708)"/>
<path d="M13.25 11.25L13.25 19.75L16 23L18.75 19.7617L18.75 11.25L16 8L13.25 11.25Z" fill="url(#paint12_linear_804_708)"/>
<path d="M13.25 19.75L13.25 11.25L16 8L18.75 11.25L13.25 19.75Z" fill="url(#paint13_linear_804_708)"/>
<path fill-rule="evenodd" clip-rule="evenodd" d="M16.1583 8.55664C16.2652 8.64407 16.2809 8.80158 16.1935 8.90844L14 11.5894V16.7501C14 16.8882 13.8881 17.0001 13.75 17.0001C13.6119 17.0001 13.5 16.8882 13.5 16.7501V11.5001C13.5 11.4424 13.52 11.3865 13.5565 11.3418L15.8065 8.59182C15.8939 8.48496 16.0514 8.46921 16.1583 8.55664Z" fill="#FFEAC2"/>
<path fill-rule="evenodd" clip-rule="evenodd" d="M10 10.5C10.1381 10.5 10.25 10.6119 10.25 10.75V20.25C10.25 20.3881 10.1381 20.5 10 20.5C9.86193 20.5 9.75 20.3881 9.75 20.25V10.75C9.75 10.6119 9.86193 10.5 10 10.5Z" fill="url(#paint14_linear_804_708)"/>
<path fill-rule="evenodd" clip-rule="evenodd" d="M14.4268 5.82322C14.5244 5.92085 14.5244 6.07915 14.4268 6.17678L10.6768 9.92678C10.5791 10.0244 10.4209 10.0244 10.3232 9.92678C10.2256 9.82915 10.2256 9.67085 10.3232 9.57322L14.0732 5.82322C14.1709 5.72559 14.3291 5.72559 14.4268 5.82322Z" fill="url(#paint15_linear_804_708)"/>
<path d="M21 21.625C21 21.8321 20.8321 22 20.625 22C20.4179 22 20.25 21.8321 20.25 21.625C20.25 21.4179 20.4179 21.25 20.625 21.25C20.8321 21.25 21 21.4179 21 21.625Z" fill="url(#paint16_linear_804_708)"/>
<path d="M18.5 24.125C18.5 24.3321 18.3321 24.5 18.125 24.5C17.9179 24.5 17.75 24.3321 17.75 24.125C17.75 23.9179 17.9179 23.75 18.125 23.75C18.3321 23.75 18.5 23.9179 18.5 24.125Z" fill="url(#paint17_linear_804_708)"/>
<path d="M19.5 23.125C19.5 23.3321 19.3321 23.5 19.125 23.5C18.9179 23.5 18.75 23.3321 18.75 23.125C18.75 22.9179 18.9179 22.75 19.125 22.75C19.3321 22.75 19.5 22.9179 19.5 23.125Z" fill="url(#paint18_linear_804_708)"/>
<path d="M18.25 22.5C18.25 22.6381 18.1381 22.75 18 22.75C17.8619 22.75 17.75 22.6381 17.75 22.5C17.75 22.3619 17.8619 22.25 18 22.25C18.1381 22.25 18.25 22.3619 18.25 22.5Z" fill="url(#paint19_linear_804_708)"/>
<path d="M20 22.5C20 22.6381 19.8881 22.75 19.75 22.75C19.6119 22.75 19.5 22.6381 19.5 22.5C19.5 22.3619 19.6119 22.25 19.75 22.25C19.8881 22.25 20 22.3619 20 22.5Z" fill="url(#paint20_linear_804_708)"/>
<path d="M19.5 21.5C19.5 21.7761 19.2761 22 19 22C18.7239 22 18.5 21.7761 18.5 21.5C18.5 21.2239 18.7239 21 19 21C19.2761 21 19.5 21.2239 19.5 21.5Z" fill="url(#paint21_linear_804_708)"/>
<rect x="0.5" y="0.5" width="31" height="31" rx="15.5" stroke="url(#paint22_linear_804_708)"/>
<defs>
<linearGradient id="paint0_linear_804_708" x1="8.98035" y1="5.50012" x2="23.3082" y2="18.779" gradientUnits="userSpaceOnUse">
<stop stop-color="#B48A3D"/>
<stop offset="0.447917" stop-color="#FCECCD"/>
<stop offset="1" stop-color="#CCAB6C"/>
</linearGradient>
<linearGradient id="paint1_linear_804_708" x1="8.44038" y1="5" x2="23.5087" y2="19.3233" gradientUnits="userSpaceOnUse">
<stop stop-color="#B48A3D"/>
<stop offset="0.447917" stop-color="#FCECCD"/>
<stop offset="1" stop-color="#CCAB6C"/>
</linearGradient>
<linearGradient id="paint2_linear_804_708" x1="9.3501" y1="10.0001" x2="15.5648" y2="13.021" gradientUnits="userSpaceOnUse">
<stop stop-color="#B48A3D"/>
<stop offset="0.447917" stop-color="#FCECCD"/>
<stop offset="1" stop-color="#CCAB6C"/>
</linearGradient>
<linearGradient id="paint3_linear_804_708" x1="13.6602" y1="5.50012" x2="26.3978" y2="13.2188" gradientUnits="userSpaceOnUse">
<stop stop-color="#B48A3D"/>
<stop offset="0.447917" stop-color="#FCECCD"/>
<stop offset="1" stop-color="#CCAB6C"/>
</linearGradient>
<linearGradient id="paint4_linear_804_708" x1="18.6001" y1="10.0001" x2="24.8148" y2="13.021" gradientUnits="userSpaceOnUse">
<stop stop-color="#B48A3D"/>
<stop offset="0.447917" stop-color="#FCECCD"/>
<stop offset="1" stop-color="#CCAB6C"/>
</linearGradient>
<linearGradient id="paint5_linear_804_708" x1="21" y1="11.96" x2="21.9632" y2="12.6355" gradientUnits="userSpaceOnUse">
<stop stop-color="#B48A3D"/>
<stop offset="0.447917" stop-color="#FCECCD"/>
<stop offset="1" stop-color="#CCAB6C"/>
</linearGradient>
<linearGradient id="paint6_linear_804_708" x1="20.5" y1="14.22" x2="21.2224" y2="14.7267" gradientUnits="userSpaceOnUse">
<stop stop-color="#B48A3D"/>
<stop offset="0.447917" stop-color="#FCECCD"/>
<stop offset="1" stop-color="#CCAB6C"/>
</linearGradient>
<linearGradient id="paint7_linear_804_708" x1="21.5" y1="13.73" x2="21.9816" y2="14.0678" gradientUnits="userSpaceOnUse">
<stop stop-color="#B48A3D"/>
<stop offset="0.447917" stop-color="#FCECCD"/>
<stop offset="1" stop-color="#CCAB6C"/>
</linearGradient>
<linearGradient id="paint8_linear_804_708" x1="20.25" y1="12.98" x2="20.7316" y2="13.3178" gradientUnits="userSpaceOnUse">
<stop stop-color="#B48A3D"/>
<stop offset="0.447917" stop-color="#FCECCD"/>
<stop offset="1" stop-color="#CCAB6C"/>
</linearGradient>
<linearGradient id="paint9_linear_804_708" x1="21.5" y1="10.73" x2="21.9816" y2="11.0678" gradientUnits="userSpaceOnUse">
<stop stop-color="#B48A3D"/>
<stop offset="0.447917" stop-color="#FCECCD"/>
<stop offset="1" stop-color="#CCAB6C"/>
</linearGradient>
<linearGradient id="paint10_linear_804_708" x1="21.5" y1="16.73" x2="21.9816" y2="17.0678" gradientUnits="userSpaceOnUse">
<stop stop-color="#B48A3D"/>
<stop offset="0.447917" stop-color="#FCECCD"/>
<stop offset="1" stop-color="#CCAB6C"/>
</linearGradient>
<linearGradient id="paint11_linear_804_708" x1="21.5" y1="15.48" x2="21.9816" y2="15.8178" gradientUnits="userSpaceOnUse">
<stop stop-color="#B48A3D"/>
<stop offset="0.447917" stop-color="#FCECCD"/>
<stop offset="1" stop-color="#CCAB6C"/>
</linearGradient>
<linearGradient id="paint12_linear_804_708" x1="13.0301" y1="8" x2="21.8798" y2="12.6266" gradientUnits="userSpaceOnUse">
<stop stop-color="#B48A3D"/>
<stop offset="0.447917" stop-color="#FCECCD"/>
<stop offset="1" stop-color="#CCAB6C"/>
</linearGradient>
<linearGradient id="paint13_linear_804_708" x1="13.0301" y1="8" x2="20.8261" y2="13.2031" gradientUnits="userSpaceOnUse">
<stop stop-color="#B48A3D"/>
<stop offset="0.447917" stop-color="#FCECCD"/>
<stop offset="1" stop-color="#CCAB6C"/>
</linearGradient>
<linearGradient id="paint14_linear_804_708" x1="9.75" y1="10.1003" x2="10.4676" y2="10.1254" gradientUnits="userSpaceOnUse">
<stop stop-color="#B48A3D"/>
<stop offset="0.447917" stop-color="#FCECCD"/>
<stop offset="1" stop-color="#CCAB6C"/>
</linearGradient>
<linearGradient id="paint15_linear_804_708" x1="10.25" y1="5.58012" x2="14.3434" y2="8.45103" gradientUnits="userSpaceOnUse">
<stop stop-color="#B48A3D"/>
<stop offset="0.447917" stop-color="#FCECCD"/>
<stop offset="1" stop-color="#CCAB6C"/>
</linearGradient>
<linearGradient id="paint16_linear_804_708" x1="20.25" y1="21.22" x2="20.9724" y2="21.7267" gradientUnits="userSpaceOnUse">
<stop stop-color="#B48A3D"/>
<stop offset="0.447917" stop-color="#FCECCD"/>
<stop offset="1" stop-color="#CCAB6C"/>
</linearGradient>
<linearGradient id="paint17_linear_804_708" x1="17.75" y1="23.72" x2="18.4724" y2="24.2267" gradientUnits="userSpaceOnUse">
<stop stop-color="#B48A3D"/>
<stop offset="0.447917" stop-color="#FCECCD"/>
<stop offset="1" stop-color="#CCAB6C"/>
</linearGradient>
<linearGradient id="paint18_linear_804_708" x1="18.75" y1="22.72" x2="19.4724" y2="23.2267" gradientUnits="userSpaceOnUse">
<stop stop-color="#B48A3D"/>
<stop offset="0.447917" stop-color="#FCECCD"/>
<stop offset="1" stop-color="#CCAB6C"/>
</linearGradient>
<linearGradient id="paint19_linear_804_708" x1="17.75" y1="22.23" x2="18.2316" y2="22.5678" gradientUnits="userSpaceOnUse">
<stop stop-color="#B48A3D"/>
<stop offset="0.447917" stop-color="#FCECCD"/>
<stop offset="1" stop-color="#CCAB6C"/>
</linearGradient>
<linearGradient id="paint20_linear_804_708" x1="19.5" y1="22.23" x2="19.9816" y2="22.5678" gradientUnits="userSpaceOnUse">
<stop stop-color="#B48A3D"/>
<stop offset="0.447917" stop-color="#FCECCD"/>
<stop offset="1" stop-color="#CCAB6C"/>
</linearGradient>
<linearGradient id="paint21_linear_804_708" x1="18.5" y1="20.96" x2="19.4632" y2="21.6355" gradientUnits="userSpaceOnUse">
<stop stop-color="#B48A3D"/>
<stop offset="0.447917" stop-color="#FCECCD"/>
<stop offset="1" stop-color="#CCAB6C"/>
</linearGradient>
<linearGradient id="paint22_linear_804_708" x1="-2.22411e-07" y1="-1.27913" x2="30.8212" y2="20.3372" gradientUnits="userSpaceOnUse">
<stop stop-color="#B48A3D"/>
<stop offset="0.447917" stop-color="#FCECCD"/>
<stop offset="1" stop-color="#CCAB6C"/>
</linearGradient>
</defs>
</svg>
