<svg width="32" height="32" viewBox="0 0 32 32" fill="none" xmlns="http://www.w3.org/2000/svg">
<path d="M24.9097 18.555C23.5926 23.3884 18.6646 26.2896 13.9028 25.035C9.14092 23.7803 6.34839 18.8449 7.66548 14.0115C8.98258 9.17805 13.9105 6.27686 18.6724 7.5315C23.4343 8.78615 26.2268 13.7215 24.9097 18.555Z" fill="url(#paint0_linear_804_891)"/>
<path fill-rule="evenodd" clip-rule="evenodd" d="M25.4664 18.7016C24.0715 23.8206 18.8398 26.922 13.7542 25.582C8.66861 24.2421 5.71477 18.984 7.10969 13.865C8.50461 8.74596 13.7363 5.64464 18.8219 6.98459C23.9075 8.32453 26.8614 13.5826 25.4664 18.7016ZM13.9033 25.035C18.6651 26.2897 23.5931 23.3885 24.9102 18.555C26.2273 13.7216 23.4347 8.78621 18.6729 7.53157C13.911 6.27692 8.98305 9.17812 7.66596 14.0116C6.34886 18.845 9.14139 23.7804 13.9033 25.035Z" fill="url(#paint1_linear_804_891)"/>
<path d="M24.334 17.9888C23.0169 22.8223 18.089 25.7234 13.3271 24.4688C8.56523 23.2142 5.7727 18.2788 7.0898 13.4453C8.40689 8.61189 13.3349 5.7107 18.0967 6.96534C22.8586 8.21999 25.6511 13.1554 24.334 17.9888Z" fill="url(#paint2_linear_804_891)"/>
<path fill-rule="evenodd" clip-rule="evenodd" d="M24.8908 18.1353C23.4958 23.2544 18.2641 26.3557 13.1785 25.0157C8.09293 23.6758 5.13909 18.4178 6.53401 13.2987C7.92893 8.17968 13.1607 5.07836 18.2462 6.4183C23.3318 7.75824 26.2857 13.0163 24.8908 18.1353ZM13.3276 24.4687C18.0894 25.7234 23.0174 22.8222 24.3345 17.9888C25.6516 13.1553 22.859 8.21993 18.0972 6.96528C13.3353 5.71064 8.40737 8.61183 7.09027 13.4453C5.77318 18.2787 8.56571 23.2141 13.3276 24.4687Z" fill="url(#paint3_linear_804_891)"/>
<path d="M22.6653 17.5489C21.5951 21.4761 17.6145 23.8395 13.7743 22.8277C9.93407 21.8158 7.68849 17.812 8.75863 13.8848C9.82877 9.95765 13.8094 7.59428 17.6496 8.60609C21.4898 9.61791 23.7354 13.6217 22.6653 17.5489Z" fill="url(#paint4_linear_804_891)"/>
<path fill-rule="evenodd" clip-rule="evenodd" d="M23.2215 17.6957C22.0746 21.9045 17.793 24.473 13.6252 23.3748C9.45743 22.2767 7.05546 17.9473 8.20235 13.7385C9.34925 9.5296 13.6309 6.96118 17.7986 8.0593C21.9664 9.15742 24.3684 13.4868 23.2215 17.6957ZM13.7743 22.8278C17.6145 23.8397 21.5951 21.4763 22.6652 17.5491C23.7354 13.6219 21.4898 9.61809 17.6496 8.60628C13.8094 7.59447 9.82876 9.95784 8.75862 13.885C7.68848 17.8122 9.93406 21.816 13.7743 22.8278Z" fill="url(#paint5_linear_804_891)"/>
<path fill-rule="evenodd" clip-rule="evenodd" d="M21.0567 10.6752C20.2656 9.98197 19.3087 9.45804 18.2248 9.17246C14.3846 8.16065 10.404 10.524 9.33387 14.4512C8.64331 16.9854 9.33345 19.5515 10.9418 21.325C8.92995 19.5619 7.98988 16.7037 8.75798 13.8849C9.82812 9.95774 13.8087 7.59437 17.649 8.60618C19.0111 8.96508 20.1726 9.70042 21.0567 10.6752Z" fill="url(#paint6_linear_804_891)"/>
<path d="M20.7756 18.8689C20.8693 19.0709 20.7787 19.3094 20.5732 19.4016C20.3678 19.4937 20.1252 19.4047 20.0315 19.2026C19.9378 19.0006 20.0284 18.7621 20.2338 18.6699C20.4393 18.5778 20.6818 18.6669 20.7756 18.8689Z" fill="url(#paint7_linear_804_891)"/>
<path d="M22.422 17.2463C22.5158 17.4484 22.4252 17.6869 22.2197 17.779C22.0142 17.8712 21.7717 17.7821 21.678 17.5801C21.5843 17.378 21.6749 17.1395 21.8803 17.0474C22.0858 16.9552 22.3283 17.0443 22.422 17.2463Z" fill="url(#paint8_linear_804_891)"/>
<path d="M20.4279 17.083C20.5216 17.285 20.431 17.5235 20.2256 17.6157C20.0201 17.7078 19.7776 17.6188 19.6839 17.4167C19.5901 17.2147 19.6807 16.9762 19.8862 16.884C20.0917 16.7919 20.3342 16.881 20.4279 17.083Z" fill="url(#paint9_linear_804_891)"/>
<path d="M21.2643 17.6784C21.3296 17.8191 21.2665 17.9852 21.1234 18.0493C20.9803 18.1135 20.8114 18.0515 20.7461 17.9108C20.6808 17.7701 20.7439 17.604 20.887 17.5398C21.0301 17.4756 21.199 17.5377 21.2643 17.6784Z" fill="url(#paint10_linear_804_891)"/>
<path d="M21.1539 16.4497C21.2192 16.5904 21.1561 16.7565 21.013 16.8207C20.8699 16.8849 20.701 16.8228 20.6358 16.6821C20.5705 16.5414 20.6336 16.3753 20.7767 16.3112C20.9198 16.247 21.0887 16.309 21.1539 16.4497Z" fill="url(#paint11_linear_804_891)"/>
<path d="M22.4547 16.1742C22.52 16.3149 22.4569 16.481 22.3138 16.5452C22.1707 16.6094 22.0018 16.5473 21.9365 16.4066C21.8713 16.2659 21.9344 16.0998 22.0775 16.0356C22.2205 15.9715 22.3895 16.0335 22.4547 16.1742Z" fill="url(#paint12_linear_804_891)"/>
<path d="M22.6222 14.4258C22.6875 14.5665 22.6244 14.7326 22.4813 14.7968C22.3382 14.861 22.1693 14.7989 22.104 14.6582C22.0387 14.5175 22.1018 14.3514 22.2449 14.2872C22.388 14.2231 22.5569 14.2851 22.6222 14.4258Z" fill="url(#paint13_linear_804_891)"/>
<path d="M21.7413 15.5708C21.8066 15.7115 21.7435 15.8776 21.6004 15.9418C21.4573 16.006 21.2884 15.9439 21.2232 15.8032C21.1579 15.6625 21.221 15.4964 21.3641 15.4323C21.5072 15.3681 21.6761 15.4301 21.7413 15.5708Z" fill="url(#paint14_linear_804_891)"/>
<path d="M21.9743 18.4258C22.0395 18.5665 21.9764 18.7326 21.8333 18.7968C21.6902 18.861 21.5213 18.7989 21.4561 18.6582C21.3908 18.5175 21.4539 18.3514 21.597 18.2872C21.7401 18.2231 21.909 18.2851 21.9743 18.4258Z" fill="url(#paint15_linear_804_891)"/>
<path d="M20.6789 20.0782C20.7393 20.2082 20.681 20.3617 20.5487 20.421C20.4165 20.4803 20.2604 20.423 20.2 20.293C20.1397 20.1629 20.198 20.0094 20.3303 19.9501C20.4625 19.8908 20.6186 19.9481 20.6789 20.0782Z" fill="url(#paint16_linear_804_891)"/>
<path d="M21.2978 19.3756C21.3347 19.4551 21.2991 19.549 21.2182 19.5853C21.1372 19.6216 21.0417 19.5865 21.0048 19.507C20.9679 19.4274 21.0036 19.3335 21.0845 19.2972C21.1654 19.2609 21.2609 19.296 21.2978 19.3756Z" fill="url(#paint17_linear_804_891)"/>
<path d="M20.1599 18.0792C20.2101 18.1874 20.1616 18.3152 20.0515 18.3646C19.9415 18.4139 19.8115 18.3662 19.7613 18.258C19.7111 18.1498 19.7596 18.022 19.8697 17.9726C19.9798 17.9233 20.1097 17.971 20.1599 18.0792Z" fill="url(#paint18_linear_804_891)"/>
<path d="M21.8254 14.6805C21.8757 14.7888 21.8271 14.9165 21.7171 14.9659C21.607 15.0153 21.477 14.9675 21.4268 14.8593C21.3766 14.7511 21.4252 14.6233 21.5352 14.5739C21.6453 14.5246 21.7752 14.5723 21.8254 14.6805Z" fill="url(#paint19_linear_804_891)"/>
<path d="M22.4832 15.4748C22.5334 15.5831 22.4848 15.7108 22.3748 15.7602C22.2647 15.8096 22.1348 15.7619 22.0846 15.6536C22.0344 15.5454 22.0829 15.4176 22.193 15.3683C22.303 15.3189 22.433 15.3666 22.4832 15.4748Z" fill="url(#paint20_linear_804_891)"/>
<path d="M19.8792 19.6019C19.9294 19.7101 19.8808 19.8379 19.7708 19.8873C19.6607 19.9366 19.5308 19.8889 19.4806 19.7807C19.4303 19.6725 19.4789 19.5447 19.5889 19.4953C19.699 19.446 19.829 19.4937 19.8792 19.6019Z" fill="url(#paint21_linear_804_891)"/>
<path d="M19.7551 20.8573C19.8053 20.9655 19.7568 21.0933 19.6467 21.1426C19.5367 21.192 19.4067 21.1443 19.3565 21.0361C19.3063 20.9278 19.3549 20.8001 19.4649 20.7507C19.575 20.7013 19.7049 20.7491 19.7551 20.8573Z" fill="url(#paint22_linear_804_891)"/>
<path fill-rule="evenodd" clip-rule="evenodd" d="M14.5019 11.1974C15.2918 10.9158 16.1551 10.9654 16.8649 11.1147C17.5542 11.2597 18.1377 11.4705 18.639 11.8015C19.1485 12.1379 19.5012 12.551 19.7921 12.9926C20.1378 13.5177 19.9853 14.2189 19.4513 14.5589C18.9174 14.8988 18.2042 14.7488 17.8585 14.2238C17.679 13.9512 17.5294 13.7972 17.355 13.6821C17.1723 13.5615 16.8903 13.4364 16.383 13.3297C15.896 13.2272 15.5147 13.2457 15.2871 13.3269C15.1868 13.3626 15.131 13.4048 15.0954 13.4443C15.0611 13.4823 15.008 13.5591 14.9728 13.7207C14.9377 13.8823 14.9542 13.9738 14.9697 14.0223C14.9857 14.0726 15.0191 14.1335 15.0957 14.2065C15.2696 14.3721 15.6099 14.5424 16.0968 14.6448C16.8066 14.7941 17.615 15.0962 18.2186 15.671C18.8816 16.3023 19.2218 17.1995 18.9915 18.2578C18.7613 19.3161 18.0775 19.9979 17.2099 20.3072C16.42 20.5889 15.5566 20.5393 14.8469 20.39C13.3671 20.0787 12.3683 19.2938 11.8846 18.4551C11.5708 17.9111 11.765 17.2198 12.3183 16.9113C12.8716 16.6027 13.5746 16.7937 13.8884 17.3378C14.0105 17.5495 14.4152 17.9828 15.3288 18.175C15.8157 18.2774 16.1971 18.2589 16.4247 18.1778C16.525 18.142 16.5807 18.0999 16.6164 18.0604C16.6506 18.0224 16.7038 17.9456 16.7389 17.784C16.7741 17.6224 16.7576 17.5309 16.7421 17.4824C16.726 17.432 16.6927 17.3711 16.6161 17.2982C16.4422 17.1326 16.1019 16.9623 15.6149 16.8598C14.9052 16.7105 14.0968 16.4084 13.4932 15.8337C12.8302 15.2023 12.49 14.3051 12.7203 13.2468C12.9505 12.1885 13.6342 11.5068 14.5019 11.1974Z" fill="url(#paint23_linear_804_891)"/>
<path fill-rule="evenodd" clip-rule="evenodd" d="M17.2488 9.34973C17.8709 9.48058 18.2673 10.0825 18.1342 10.6942L17.7728 12.3554C17.6397 12.9671 17.0275 13.3568 16.4055 13.226C15.7835 13.0951 15.3871 12.4932 15.5202 11.8815L15.8816 10.2203C16.0147 9.60864 16.6268 9.21887 17.2488 9.34973Z" fill="#826C43"/>
<path fill-rule="evenodd" clip-rule="evenodd" d="M15.3289 18.175C15.951 18.3059 16.3473 18.9078 16.2143 19.5195L15.8528 21.1807C15.7198 21.7924 15.1076 22.1821 14.4856 22.0513C13.8636 21.9204 13.4672 21.3185 13.6003 20.7069L13.9617 19.0456C14.0948 18.434 14.7069 18.0442 15.3289 18.175Z" fill="#C7A769"/>
<path fill-rule="evenodd" clip-rule="evenodd" d="M14.7471 11.8629C15.3613 11.644 16.0741 11.6723 16.7142 11.8069C17.3466 11.94 17.8359 12.124 18.2376 12.3892C18.6424 12.6565 18.9317 12.9886 19.1877 13.3774C19.3174 13.5743 19.2602 13.8373 19.0599 13.9648C18.8597 14.0923 18.5923 14.036 18.4626 13.8391C18.2483 13.5137 18.0352 13.2787 17.7561 13.0944C17.4739 12.9081 17.0977 12.7562 16.5335 12.6376C15.9769 12.5205 15.4449 12.5177 15.0416 12.6615C14.6674 12.7949 14.3804 13.0594 14.2688 13.5727C14.1571 14.0859 14.3089 14.4428 14.5948 14.715C14.903 15.0085 15.3896 15.22 15.9461 15.3371C16.5862 15.4717 17.2484 15.7326 17.7177 16.1796C18.2093 16.6477 18.4638 17.2992 18.2875 18.1098C18.1111 18.9204 17.6077 19.4125 16.9644 19.6418C16.3502 19.8608 15.6375 19.8325 14.9974 19.6978C13.6945 19.4238 12.8813 18.7488 12.5107 18.106C12.393 17.902 12.4658 17.6428 12.6733 17.5271C12.8808 17.4114 13.1444 17.483 13.2621 17.687C13.4972 18.0946 14.0876 18.6378 15.1781 18.8672C15.7347 18.9843 16.2666 18.9871 16.6699 18.8433C17.0441 18.7099 17.3311 18.4453 17.4428 17.9321C17.5544 17.4188 17.4026 17.062 17.1167 16.7897C16.8085 16.4963 16.322 16.2848 15.7654 16.1677C15.1253 16.033 14.4632 15.7721 13.9939 15.3252C13.5023 14.8571 13.2477 14.2055 13.4241 13.395C13.6004 12.5844 14.1038 12.0923 14.7471 11.8629Z" fill="url(#paint24_linear_804_891)"/>
<path fill-rule="evenodd" clip-rule="evenodd" d="M17.0981 10.0419C17.3314 10.0909 17.48 10.3166 17.4301 10.546L17.0687 12.2073C17.0188 12.4366 16.7893 12.5828 16.556 12.5337C16.3227 12.4846 16.1741 12.2589 16.224 12.0296L16.5854 10.3683C16.6353 10.1389 16.8649 9.99278 17.0981 10.0419Z" fill="url(#paint25_linear_804_891)"/>
<path fill-rule="evenodd" clip-rule="evenodd" d="M15.1782 18.8672C15.4115 18.9162 15.5601 19.142 15.5102 19.3713L15.1488 21.0326C15.0989 21.2619 14.8693 21.4081 14.6361 21.359C14.4028 21.31 14.2542 21.0842 14.3041 20.8549L14.6655 19.1936C14.7154 18.9643 14.945 18.8181 15.1782 18.8672Z" fill="url(#paint26_linear_804_891)"/>
<path fill-rule="evenodd" clip-rule="evenodd" d="M7.80468 13.0092C7.65571 12.9545 7.58007 12.7914 7.63574 12.6449C8.62964 10.0295 10.8554 8.00543 13.6198 7.25521C13.773 7.21361 13.9316 7.30208 13.9739 7.45281C14.0162 7.60355 13.9263 7.75947 13.773 7.80108C11.188 8.50263 9.10495 10.3965 8.17519 12.8431C8.11953 12.9896 7.95364 13.064 7.80468 13.0092Z" fill="url(#paint27_linear_804_891)"/>
<path fill-rule="evenodd" clip-rule="evenodd" d="M22.8862 20.0077C23.0206 20.0912 23.0608 20.2661 22.9758 20.3983C22.3023 21.4467 21.4092 22.3451 20.36 23.0311C20.2276 23.1177 20.0488 23.0823 19.9608 22.9521C19.8727 22.8218 19.9087 22.6461 20.0411 22.5595C21.0229 21.9176 21.8587 21.0769 22.489 20.0958C22.5739 19.9636 22.7517 19.9242 22.8862 20.0077Z" fill="url(#paint28_linear_804_891)"/>
<path fill-rule="evenodd" clip-rule="evenodd" d="M10.9763 9.15721C10.9762 9.15724 10.9763 9.15717 10.9763 9.15721L10.8166 8.92162C10.9763 9.15721 10.9762 9.15723 10.9763 9.15721L10.9752 9.15789L10.9694 9.1618C10.964 9.16547 10.9555 9.17125 10.9442 9.17907C10.9216 9.19472 10.8879 9.21851 10.8454 9.24988C10.7602 9.3127 10.64 9.40556 10.5023 9.52402C10.2253 9.76233 9.88536 10.0977 9.61643 10.4944C9.52821 10.6245 9.34944 10.6596 9.21712 10.5729C9.0848 10.4862 9.04905 10.3104 9.13726 10.1803C9.44422 9.7275 9.82413 9.35504 10.123 9.09785C10.2733 8.96857 10.405 8.86677 10.4998 8.79686C10.5473 8.76188 10.5856 8.73479 10.6125 8.71615C10.6259 8.70683 10.6365 8.69961 10.644 8.69457L10.6529 8.68865L10.6555 8.68692L10.6563 8.68637L10.6566 8.68618C10.6567 8.68614 10.6568 8.68603 10.8166 8.92162L10.6566 8.68618C10.7889 8.59944 10.9679 8.63445 11.0561 8.76456C11.1443 8.89462 11.1085 9.07043 10.9763 9.15721Z" fill="url(#paint29_linear_804_891)"/>
<path fill-rule="evenodd" clip-rule="evenodd" d="M12.1286 10.573C12.1286 10.573 12.1287 10.5729 12.1286 10.573L11.9689 10.3374C12.1286 10.573 12.1286 10.573 12.1286 10.573L12.1276 10.5737L12.1218 10.5776C12.1163 10.5812 12.1078 10.587 12.0965 10.5948C12.0739 10.6105 12.0402 10.6343 11.9977 10.6657C11.9125 10.7285 11.7923 10.8213 11.6546 10.9398C11.3776 11.1781 11.0377 11.5135 10.7688 11.9101C10.6806 12.0403 10.5018 12.0754 10.3695 11.9887C10.2371 11.9019 10.2014 11.7261 10.2896 11.596C10.5966 11.1433 10.9765 10.7708 11.2754 10.5136C11.4256 10.3843 11.5574 10.2825 11.6522 10.2126C11.6996 10.1776 11.7379 10.1506 11.7648 10.1319C11.7783 10.1226 11.7889 10.1154 11.7964 10.1103L11.8052 10.1044L11.8078 10.1027L11.8087 10.1021L11.809 10.1019C11.809 10.1019 11.8092 10.1018 11.9689 10.3374L11.809 10.1019C11.9413 10.0152 12.1203 10.0502 12.2085 10.1803C12.2967 10.3104 12.2608 10.4862 12.1286 10.573Z" fill="url(#paint30_linear_804_891)"/>
<rect x="0.5" y="0.5" width="31" height="31" rx="15.5" stroke="url(#paint31_linear_804_891)"/>
<defs>
<linearGradient id="paint0_linear_804_891" x1="10.2409" y1="4.5601" x2="23.8408" y2="20.5793" gradientUnits="userSpaceOnUse">
<stop stop-color="#B48A3D"/>
<stop offset="0.447917" stop-color="#FCECCD"/>
<stop offset="1" stop-color="#CCAB6C"/>
</linearGradient>
<linearGradient id="paint1_linear_804_891" x1="9.84613" y1="3.82289" x2="24.2995" y2="20.8778" gradientUnits="userSpaceOnUse">
<stop stop-color="#B48A3D"/>
<stop offset="0.447917" stop-color="#FCECCD"/>
<stop offset="1" stop-color="#CCAB6C"/>
</linearGradient>
<linearGradient id="paint2_linear_804_891" x1="9.66526" y1="3.99394" x2="23.2651" y2="20.0131" gradientUnits="userSpaceOnUse">
<stop stop-color="#B48A3D"/>
<stop offset="0.447917" stop-color="#FCECCD"/>
<stop offset="1" stop-color="#CCAB6C"/>
</linearGradient>
<linearGradient id="paint3_linear_804_891" x1="9.27044" y1="3.25661" x2="23.7239" y2="20.3115" gradientUnits="userSpaceOnUse">
<stop stop-color="#B48A3D"/>
<stop offset="0.447917" stop-color="#FCECCD"/>
<stop offset="1" stop-color="#CCAB6C"/>
</linearGradient>
<linearGradient id="paint4_linear_804_891" x1="10.8512" y1="6.20557" x2="21.89" y2="19.1173" gradientUnits="userSpaceOnUse">
<stop stop-color="#B48A3D"/>
<stop offset="0.447917" stop-color="#FCECCD"/>
<stop offset="1" stop-color="#CCAB6C"/>
</linearGradient>
<linearGradient id="paint5_linear_804_891" x1="10.4559" y1="5.46848" x2="22.3485" y2="19.4161" gradientUnits="userSpaceOnUse">
<stop stop-color="#B48A3D"/>
<stop offset="0.447917" stop-color="#FCECCD"/>
<stop offset="1" stop-color="#CCAB6C"/>
</linearGradient>
<linearGradient id="paint6_linear_804_891" x1="8.49121" y1="7.85443" x2="20.8335" y2="16.2518" gradientUnits="userSpaceOnUse">
<stop stop-color="#B48A3D"/>
<stop offset="0.447917" stop-color="#FCECCD"/>
<stop offset="1" stop-color="#CCAB6C"/>
</linearGradient>
<linearGradient id="paint7_linear_804_891" x1="19.8483" y1="18.8075" x2="20.7931" y2="18.9861" gradientUnits="userSpaceOnUse">
<stop stop-color="#B48A3D"/>
<stop offset="0.447917" stop-color="#FCECCD"/>
<stop offset="1" stop-color="#CCAB6C"/>
</linearGradient>
<linearGradient id="paint8_linear_804_891" x1="21.4947" y1="17.185" x2="22.4396" y2="17.3635" gradientUnits="userSpaceOnUse">
<stop stop-color="#B48A3D"/>
<stop offset="0.447917" stop-color="#FCECCD"/>
<stop offset="1" stop-color="#CCAB6C"/>
</linearGradient>
<linearGradient id="paint9_linear_804_891" x1="19.5006" y1="17.0217" x2="20.4454" y2="17.2002" gradientUnits="userSpaceOnUse">
<stop stop-color="#B48A3D"/>
<stop offset="0.447917" stop-color="#FCECCD"/>
<stop offset="1" stop-color="#CCAB6C"/>
</linearGradient>
<linearGradient id="paint10_linear_804_891" x1="20.6185" y1="17.6356" x2="21.2765" y2="17.76" gradientUnits="userSpaceOnUse">
<stop stop-color="#B48A3D"/>
<stop offset="0.447917" stop-color="#FCECCD"/>
<stop offset="1" stop-color="#CCAB6C"/>
</linearGradient>
<linearGradient id="paint11_linear_804_891" x1="20.5081" y1="16.407" x2="21.1661" y2="16.5313" gradientUnits="userSpaceOnUse">
<stop stop-color="#B48A3D"/>
<stop offset="0.447917" stop-color="#FCECCD"/>
<stop offset="1" stop-color="#CCAB6C"/>
</linearGradient>
<linearGradient id="paint12_linear_804_891" x1="21.8089" y1="16.1315" x2="22.4669" y2="16.2558" gradientUnits="userSpaceOnUse">
<stop stop-color="#B48A3D"/>
<stop offset="0.447917" stop-color="#FCECCD"/>
<stop offset="1" stop-color="#CCAB6C"/>
</linearGradient>
<linearGradient id="paint13_linear_804_891" x1="21.9764" y1="14.3831" x2="22.6344" y2="14.5074" gradientUnits="userSpaceOnUse">
<stop stop-color="#B48A3D"/>
<stop offset="0.447917" stop-color="#FCECCD"/>
<stop offset="1" stop-color="#CCAB6C"/>
</linearGradient>
<linearGradient id="paint14_linear_804_891" x1="21.0955" y1="15.5281" x2="21.7535" y2="15.6524" gradientUnits="userSpaceOnUse">
<stop stop-color="#B48A3D"/>
<stop offset="0.447917" stop-color="#FCECCD"/>
<stop offset="1" stop-color="#CCAB6C"/>
</linearGradient>
<linearGradient id="paint15_linear_804_891" x1="21.3284" y1="18.3831" x2="21.9864" y2="18.5074" gradientUnits="userSpaceOnUse">
<stop stop-color="#B48A3D"/>
<stop offset="0.447917" stop-color="#FCECCD"/>
<stop offset="1" stop-color="#CCAB6C"/>
</linearGradient>
<linearGradient id="paint16_linear_804_891" x1="20.0821" y1="20.0387" x2="20.6902" y2="20.1536" gradientUnits="userSpaceOnUse">
<stop stop-color="#B48A3D"/>
<stop offset="0.447917" stop-color="#FCECCD"/>
<stop offset="1" stop-color="#CCAB6C"/>
</linearGradient>
<linearGradient id="paint17_linear_804_891" x1="20.9326" y1="19.3514" x2="21.3047" y2="19.4217" gradientUnits="userSpaceOnUse">
<stop stop-color="#B48A3D"/>
<stop offset="0.447917" stop-color="#FCECCD"/>
<stop offset="1" stop-color="#CCAB6C"/>
</linearGradient>
<linearGradient id="paint18_linear_804_891" x1="19.6631" y1="18.0463" x2="20.1693" y2="18.142" gradientUnits="userSpaceOnUse">
<stop stop-color="#B48A3D"/>
<stop offset="0.447917" stop-color="#FCECCD"/>
<stop offset="1" stop-color="#CCAB6C"/>
</linearGradient>
<linearGradient id="paint19_linear_804_891" x1="21.3287" y1="14.6477" x2="21.8348" y2="14.7433" gradientUnits="userSpaceOnUse">
<stop stop-color="#B48A3D"/>
<stop offset="0.447917" stop-color="#FCECCD"/>
<stop offset="1" stop-color="#CCAB6C"/>
</linearGradient>
<linearGradient id="paint20_linear_804_891" x1="21.9864" y1="15.442" x2="22.4925" y2="15.5376" gradientUnits="userSpaceOnUse">
<stop stop-color="#B48A3D"/>
<stop offset="0.447917" stop-color="#FCECCD"/>
<stop offset="1" stop-color="#CCAB6C"/>
</linearGradient>
<linearGradient id="paint21_linear_804_891" x1="19.3824" y1="19.569" x2="19.8885" y2="19.6647" gradientUnits="userSpaceOnUse">
<stop stop-color="#B48A3D"/>
<stop offset="0.447917" stop-color="#FCECCD"/>
<stop offset="1" stop-color="#CCAB6C"/>
</linearGradient>
<linearGradient id="paint22_linear_804_891" x1="19.2584" y1="20.8244" x2="19.7645" y2="20.9201" gradientUnits="userSpaceOnUse">
<stop stop-color="#B48A3D"/>
<stop offset="0.447917" stop-color="#FCECCD"/>
<stop offset="1" stop-color="#CCAB6C"/>
</linearGradient>
<linearGradient id="paint23_linear_804_891" x1="16.8649" y1="11.1147" x2="14.9108" y2="20.4034" gradientUnits="userSpaceOnUse">
<stop stop-color="#826C43"/>
<stop offset="1" stop-color="#CCAB6C"/>
</linearGradient>
<linearGradient id="paint24_linear_804_891" x1="13.9671" y1="10.8992" x2="19.7197" y2="15.5162" gradientUnits="userSpaceOnUse">
<stop stop-color="#B48A3D"/>
<stop offset="0.447917" stop-color="#FCECCD"/>
<stop offset="1" stop-color="#CCAB6C"/>
</linearGradient>
<linearGradient id="paint25_linear_804_891" x1="16.6975" y1="9.8534" x2="17.784" y2="10.3742" gradientUnits="userSpaceOnUse">
<stop stop-color="#B48A3D"/>
<stop offset="0.447917" stop-color="#FCECCD"/>
<stop offset="1" stop-color="#CCAB6C"/>
</linearGradient>
<linearGradient id="paint26_linear_804_891" x1="14.7775" y1="18.6787" x2="15.8641" y2="19.1995" gradientUnits="userSpaceOnUse">
<stop stop-color="#B48A3D"/>
<stop offset="0.447917" stop-color="#FCECCD"/>
<stop offset="1" stop-color="#CCAB6C"/>
</linearGradient>
<linearGradient id="paint27_linear_804_891" x1="13.9844" y1="13.2584" x2="8.2534" y2="8.83257" gradientUnits="userSpaceOnUse">
<stop stop-color="#B48A3D"/>
<stop offset="0.447917" stop-color="#FCECCD"/>
<stop offset="1" stop-color="#CCAB6C"/>
</linearGradient>
<linearGradient id="paint28_linear_804_891" x1="19.9126" y1="19.8394" x2="22.9102" y2="21.9371" gradientUnits="userSpaceOnUse">
<stop stop-color="#B48A3D"/>
<stop offset="0.447917" stop-color="#FCECCD"/>
<stop offset="1" stop-color="#CCAB6C"/>
</linearGradient>
<linearGradient id="paint29_linear_804_891" x1="9.08887" y1="8.55933" x2="11.0085" y2="9.92856" gradientUnits="userSpaceOnUse">
<stop stop-color="#B48A3D"/>
<stop offset="0.447917" stop-color="#FCECCD"/>
<stop offset="1" stop-color="#CCAB6C"/>
</linearGradient>
<linearGradient id="paint30_linear_804_891" x1="10.2412" y1="9.9751" x2="12.1609" y2="11.3443" gradientUnits="userSpaceOnUse">
<stop stop-color="#B48A3D"/>
<stop offset="0.447917" stop-color="#FCECCD"/>
<stop offset="1" stop-color="#CCAB6C"/>
</linearGradient>
<linearGradient id="paint31_linear_804_891" x1="-2.22411e-07" y1="-1.27913" x2="30.8212" y2="20.3372" gradientUnits="userSpaceOnUse">
<stop stop-color="#B48A3D"/>
<stop offset="0.447917" stop-color="#FCECCD"/>
<stop offset="1" stop-color="#CCAB6C"/>
</linearGradient>
</defs>
</svg>
