<svg width="31" height="31" viewBox="0 0 31 31" fill="none" xmlns="http://www.w3.org/2000/svg">
<g clip-path="url(#clip0_1_53984)">
<path d="M26.0569 30.9982C25.2701 30.9982 24.4815 30.6978 23.8807 30.0989L15.5001 21.7199L7.12107 30.0989C5.91782 31.3002 3.96644 31.3002 2.7648 30.0989L0.90123 28.235C-0.30041 27.0337 -0.30041 25.0804 0.90123 23.8787L9.2799 15.5001L0.90123 7.12107C-0.30041 5.91782 -0.30041 3.96451 0.90123 2.7648L2.7648 0.90123C3.96451 -0.29848 5.91782 -0.30041 7.11946 0.90123L15.5001 9.2799L23.8787 0.90123C25.0839 -0.30041 27.0353 -0.30041 28.235 0.90123L30.0989 2.7648C31.3002 3.96644 31.3002 5.91975 30.0989 7.12107L21.7199 15.5001L30.0989 23.8787C31.3002 25.0804 31.3002 27.0337 30.0989 28.235L28.235 30.0989C27.6345 30.6978 26.8458 30.9982 26.0569 30.9982ZM15.5001 18.5389C15.8497 18.5389 16.1852 18.6775 16.4309 18.9252L25.7407 28.235C25.9131 28.4055 26.201 28.4055 26.3714 28.235L28.235 26.3714C28.4074 26.201 28.4055 25.9112 28.235 25.7391L18.9252 16.4309C18.4106 15.9163 18.4106 15.0819 18.9252 14.5673L28.235 5.2575C28.4055 5.08703 28.4074 4.79723 28.235 4.62676L26.3714 2.7648C26.1994 2.59433 25.9131 2.59433 25.7391 2.7648L16.4309 12.0746C15.9375 12.5683 15.0626 12.5683 14.5673 12.0746L5.2575 2.7648C5.08542 2.59433 4.79723 2.59433 4.62676 2.7648L2.7648 4.62869C2.59272 4.79884 2.59433 5.08864 2.7648 5.26103L12.0746 14.5689C12.5892 15.0835 12.5892 15.9182 12.0746 16.4328L2.7648 25.7426C2.59433 25.9131 2.59272 26.2029 2.7648 26.373L4.62869 28.2369C4.80077 28.4074 5.08703 28.4074 5.26103 28.2369L14.5689 18.9271C14.815 18.6775 15.1504 18.5389 15.5001 18.5389Z" fill="url(#paint0_linear_1_53984)"/>
</g>
<defs>
<linearGradient id="paint0_linear_1_53984" x1="17.0164" y1="-1.92445e-05" x2="17.0164" y2="30.9999" gradientUnits="userSpaceOnUse">
<stop stop-color="#B48A3D"/>
<stop offset="0.505208" stop-color="#FCECCE"/>
<stop offset="1" stop-color="#CCAB6C"/>
</linearGradient>
<clipPath id="clip0_1_53984">
<rect width="31" height="31" fill="white"/>
</clipPath>
</defs>
</svg>
