<svg width="104" height="104" viewBox="0 0 104 104" fill="none" xmlns="http://www.w3.org/2000/svg">
<mask id="mask0_1_114002" style="mask-type:alpha" maskUnits="userSpaceOnUse" x="0" y="0" width="104" height="104">
<path d="M52 0C23.3276 0 0 23.3276 0 52C0 80.6724 23.3276 104 52 104C80.6724 104 104 80.6724 104 52C104 23.3276 80.6724 0 52 0ZM100.239 50.1429H87.1928C86.7564 41.8154 83.434 34.2587 78.1913 28.4366L87.4101 19.2177C95.0003 27.4096 99.7843 38.2293 100.239 50.1429ZM28.4366 78.1894C34.2587 83.434 41.8154 86.7546 50.1429 87.191V100.237C38.2293 99.7843 27.4096 94.9984 19.2177 87.4083L28.4366 78.1894ZM53.8571 87.191C62.1846 86.7546 69.7413 83.4321 75.5634 78.1894L84.7823 87.4083C76.5904 95.0003 65.7707 99.7843 53.8571 100.239V87.191ZM52 83.5714C34.5911 83.5714 20.4286 69.4089 20.4286 52C20.4286 34.5911 34.5911 20.4286 52 20.4286C69.4089 20.4286 83.5714 34.5911 83.5714 52C83.5714 69.4089 69.4089 83.5714 52 83.5714ZM75.5634 25.8106C69.7413 20.566 62.1846 17.2454 53.8571 16.809V3.76071C65.7707 4.21386 76.5904 8.99971 84.7823 16.5899L75.5634 25.8106ZM50.1429 16.809C41.8154 17.2454 34.2587 20.5679 28.4366 25.8106L19.2177 16.5917C27.4096 8.99971 38.2293 4.21571 50.1429 3.76071V16.809ZM16.5899 19.2177L25.8087 28.4366C20.5641 34.2587 17.2436 41.8154 16.8071 50.1429H3.76071C4.21571 38.2293 8.99971 27.4096 16.5899 19.2177ZM3.76071 53.8571H16.8071C17.2436 62.1846 20.566 69.7413 25.8087 75.5634L16.5899 84.7823C8.99971 76.5904 4.21571 65.7707 3.76071 53.8571ZM87.4101 84.7823L78.1913 75.5634C83.4359 69.7413 86.7564 62.1846 87.1928 53.8571H100.239C99.7843 65.7707 95.0003 76.5904 87.4101 84.7823Z" fill="#3D3D3D"/>
<path d="M48.1018 54.6386H51.2335C50.9923 56.3382 50.3679 57.7799 49.1609 58.9492C47.5845 60.4763 45.5483 61.2399 43.0523 61.2399C40.3921 61.2399 38.1834 60.3778 36.4264 58.6536C34.6857 56.9129 33.8154 54.7946 33.8154 52.2986C33.8154 49.7862 34.6775 47.6597 36.4017 45.9191C38.1424 44.1784 40.2935 43.3081 42.8552 43.3081C44.4481 43.3081 45.9095 43.6694 47.2396 44.3919C48.5698 45.1144 49.6125 46.0915 50.3679 47.3231L47.4613 48.998C47.0508 48.2919 46.4268 47.7172 45.5893 47.2738C44.7519 46.8304 43.8323 46.6087 42.8306 46.6087C41.1721 46.6087 39.8173 47.1506 38.7664 48.2344C37.7154 49.2854 37.19 50.6401 37.19 52.2986C37.19 53.9243 37.7236 55.2708 38.791 56.3382C39.8584 57.3892 41.287 57.9146 43.0769 57.9146C44.3742 57.9146 45.458 57.6273 46.3283 57.0525C47.1986 56.4778 47.7898 55.6732 48.1018 54.6386Z" fill="#3D3D3D"/>
<path d="M62.2195 51.6336H70.8652V52.9637C70.8652 55.4268 70.077 57.422 68.5005 58.9492C66.9241 60.4763 64.8879 61.2399 62.3919 61.2399C59.7317 61.2399 57.5231 60.3778 55.766 58.6536C54.0254 56.9129 53.1551 54.7946 53.1551 52.2986C53.1551 49.7862 54.0172 47.6597 55.7414 45.9191C57.482 44.1784 59.6332 43.3081 62.1949 43.3081C63.7877 43.3081 65.2492 43.6694 66.5793 44.3919C67.9094 45.1144 68.9521 46.0915 69.7075 47.3231L66.801 48.998C66.3904 48.2919 65.7664 47.7172 64.929 47.2738C64.0915 46.8304 63.1719 46.6087 62.1702 46.6087C60.5117 46.6087 59.157 47.1506 58.106 48.2344C57.0551 49.2854 56.5296 50.6401 56.5296 52.2986C56.5296 53.9243 57.0633 55.2708 58.1307 56.3382C59.198 57.3892 60.6267 57.9146 62.4165 57.9146C63.7138 57.9146 64.7976 57.6273 65.6679 57.0525C66.5382 56.4778 67.1294 55.6732 67.4414 54.6386H62.2195V51.6336Z" fill="#3D3D3D"/>
</mask>
<g mask="url(#mask0_1_114002)">
<rect x="-6" width="116" height="105" fill="url(#paint0_linear_1_114002)"/>
</g>
<defs>
<linearGradient id="paint0_linear_1_114002" x1="52" y1="0" x2="52" y2="105" gradientUnits="userSpaceOnUse">
<stop stop-color="#B48A3D"/>
<stop offset="1" stop-color="#FCECCE"/>
</linearGradient>
</defs>
</svg>
