<svg width="85" height="94" viewBox="0 0 85 94" fill="none" xmlns="http://www.w3.org/2000/svg">
<path d="M57.1758 25.309H13.3516C12.8793 25.309 12.4335 25.4554 12.0952 25.7152C11.7563 25.9753 11.5054 26.3696 11.5054 26.8427C11.5054 27.3158 11.7563 27.7101 12.0952 27.9702C12.4335 28.23 12.8793 28.3764 13.3516 28.3764H57.176C57.6483 28.3764 58.0941 28.23 58.4324 27.9702C58.7713 27.7101 59.0222 27.3158 59.0222 26.8427C59.0222 26.3696 58.7712 25.9753 58.4323 25.7151C58.094 25.4554 57.6481 25.309 57.1758 25.309Z" fill="url(#paint0_linear_1_113976)" stroke="#131313"/>
<path d="M13.3062 19.073H34.4798C35.3611 19.073 36.2807 18.4875 36.2807 17.5393C36.2807 16.5912 35.3611 16.0056 34.4798 16.0056H13.3062C12.4249 16.0056 11.5054 16.5912 11.5054 17.5393C11.5054 18.4876 12.425 19.073 13.3062 19.073Z" fill="url(#paint1_linear_1_113976)" stroke="#131313"/>
<path d="M59.0222 35.1124V35.1122C59.0221 34.6392 58.7711 34.245 58.4323 33.9848C58.094 33.7251 57.6481 33.5786 57.1758 33.5786H13.3516C12.8793 33.5786 12.4335 33.7251 12.0952 33.9848C11.7563 34.245 11.5054 34.6393 11.5054 35.1124C11.5054 35.5854 11.7563 35.9797 12.0952 36.2399C12.4335 36.4996 12.8793 36.6461 13.3516 36.6461H57.176C57.6483 36.6461 58.0941 36.4996 58.4324 36.2399C58.7713 35.9797 59.0222 35.5854 59.0222 35.1124Z" fill="url(#paint2_linear_1_113976)" stroke="#131313"/>
<path d="M22.7245 82.5745H8.58956C6.54149 82.5745 4.88188 80.9233 4.88188 78.9041V7.86014C4.88188 5.84087 6.54152 4.18952 8.58956 4.18952H49.2V12.1059C49.2 16.169 52.533 19.4661 56.6211 19.4661H64.6122V42.2531C64.6122 43.2762 65.4476 44.098 66.469 44.098C67.4903 44.098 68.3258 43.2762 68.3258 42.2531V19.3521C68.3258 17.7428 67.6923 16.2282 66.5457 15.0915L66.1937 15.4466L66.5457 15.0915L53.6027 2.26256C52.4563 1.12622 50.9305 0.5 49.3109 0.5H8.58956C4.50117 0.5 1.16846 3.79722 1.16846 7.86014V78.9041C1.16846 82.967 4.50138 86.264 8.58956 86.264H22.7245C23.7458 86.264 24.5813 85.4423 24.5813 84.4192C24.5813 83.396 23.7457 82.5745 22.7245 82.5745ZM61.9788 15.7765H56.6213C54.5733 15.7765 52.9137 14.1252 52.9137 12.1059V6.79123L61.9788 15.7765Z" fill="url(#paint3_linear_1_113976)" stroke="#131313"/>
<mask id="path-5-outside-1_1_113976" maskUnits="userSpaceOnUse" x="10.0054" y="44.4832" width="75" height="50" fill="black">
<rect fill="white" x="10.0054" y="44.4832" width="75" height="50"/>
<path d="M82.9147 67.278L71.4194 47.9386C70.5816 46.5286 68.7583 46.0625 67.3429 46.8982L64.5468 48.5494C62.3764 49.8309 61.459 52.4243 62.2042 54.7225C61.2621 55.0627 60.2293 55.0573 59.2782 54.6909C57.0706 53.9986 55.3922 52.606 52.6202 53.3047C47.9134 54.4992 48.0565 54.4394 47.6306 54.5848C44.8747 53.0209 43.2181 52.5555 40.2924 53.6835L37.6846 54.6884C36.4772 55.1534 35.1467 55.0432 34.031 54.3843L33.3193 53.9661C33.6666 51.8922 32.7438 49.7035 30.7898 48.5498C30.7898 48.5498 30.7898 48.5498 30.7896 48.5496L27.9937 46.8986C26.5822 46.0654 24.7536 46.5318 23.9174 47.9386L12.4217 67.2782C11.5839 68.6879 12.0501 70.5057 13.4652 71.3411L16.2611 72.9921C17.1072 73.4917 18.037 73.7292 18.9556 73.7292C19.98 73.7292 20.99 73.4334 21.8535 72.8761L22.4362 73.2188L21.206 74.9267C19.7399 76.9623 20.2057 79.7928 22.2484 81.2542C23.1929 81.93 24.3796 82.2386 25.6068 82.0465C25.8015 83.181 26.4251 84.2427 27.4349 84.9655C28.3833 85.6442 29.5646 85.9532 30.794 85.7602C30.9892 86.8937 31.6125 87.9546 32.6217 88.6769C33.9781 89.6472 35.6644 89.7595 37.0696 89.1612C37.3771 89.9573 37.9115 90.6762 38.6571 91.2097C40.6039 92.6024 43.2856 92.2392 44.7983 90.4349L48.0676 92.3652C50.2297 93.6422 53.0193 92.9325 54.3013 90.7751C54.6291 90.2235 54.8325 89.6225 54.9069 89.0047L54.9143 89.0092C57.0731 90.2835 59.869 89.57 61.1479 87.4189C61.5183 86.7957 61.7213 86.1198 61.7706 85.4424C63.6735 85.9192 65.7473 85.1226 66.7975 83.356C67.142 82.7765 67.3418 82.1504 67.4076 81.5205C69.447 82.3181 71.8306 81.5472 72.9823 79.6097C73.6018 78.5675 73.777 77.3474 73.4757 76.1738C73.3033 75.5023 72.9863 74.8928 72.5511 74.3781L74.3531 73.3287C75.8775 73.9524 77.6172 73.8526 79.0751 72.9919L81.8707 71.3409C83.2858 70.5061 83.7532 68.6886 82.9147 67.278ZM17.6441 70.6655L14.8482 69.0143C14.7239 68.9409 14.6826 68.7804 14.7561 68.6565L26.2519 49.3166C26.3259 49.1921 26.4875 49.1518 26.611 49.225L29.4068 50.8758C30.6491 51.6096 31.0379 53.1977 30.3152 54.4133L21.1933 69.7599C20.4653 70.9851 18.8733 71.391 17.6441 70.6655ZM23.8306 79.0573C23.0067 78.4677 22.8183 77.3255 23.4102 76.5039L25.2185 73.9933C25.7945 73.1935 26.9425 72.9746 27.7802 73.5741C28.6025 74.1624 28.7911 75.3077 28.201 76.1273L26.3925 78.6379C25.8023 79.4578 24.6525 79.6452 23.8306 79.0573ZM29.0174 82.7688C28.1951 82.1802 28.0065 81.0346 28.5968 80.2152L30.4051 77.7048C30.4051 77.7048 30.4051 77.7048 30.4051 77.7046C30.4051 77.7046 30.4051 77.7045 30.4052 77.7045L32.4009 74.9339C32.6869 74.5369 33.1108 74.2745 33.5946 74.1955C33.6951 74.179 33.7958 74.1709 33.8958 74.1709C34.2765 74.1709 34.6471 74.289 34.9626 74.5147C35.3607 74.7998 35.6241 75.222 35.7033 75.7043C35.7828 76.1867 35.6691 76.6709 35.3831 77.0678L31.579 82.3494C30.9878 83.1707 29.8416 83.3587 29.0174 82.7688ZM34.2041 86.4799C33.3822 85.8918 33.1934 84.747 33.7826 83.9277C33.7828 83.9273 33.7832 83.9269 33.7834 83.9266L37.5875 78.6452C38.1774 77.8258 39.3273 77.6377 40.1492 78.2258C40.9715 78.8142 41.1601 79.9596 40.5698 80.7792L38.8797 83.1259C38.8797 83.1259 38.8797 83.1259 38.8795 83.126L36.7657 86.0607C36.1754 86.8803 35.0266 87.0686 34.2041 86.4799ZM40.2395 89.0128C39.4177 88.4246 39.2288 87.2804 39.8176 86.4609L41.0837 84.7032C41.6738 83.8835 42.8236 83.696 43.6455 84.284C44.4676 84.8722 44.6564 86.0178 44.0661 86.8374L42.8011 88.5934C42.211 89.4131 41.0614 89.6013 40.2395 89.0128ZM70.6484 78.2314C70.1322 79.0998 69.0038 79.3878 68.1324 78.8734C66.6568 78.0021 57.1381 72.3815 56.1233 71.7822C55.4784 71.4016 54.6464 71.6136 54.2646 72.2561C53.8827 72.8987 54.0954 73.7281 54.7401 74.1088L63.8191 79.4698L63.8192 79.47C64.6909 79.9845 64.9816 81.1057 64.4634 81.9779C63.9469 82.8467 62.8181 83.1341 61.947 82.6201C58.5891 80.6373 55.8625 79.0273 52.8632 77.2562C52.2181 76.8756 51.3863 77.0876 51.0044 77.7301C50.6226 78.3727 50.8353 79.2021 51.48 79.5827L58.1695 83.5329L58.171 83.5338C59.0432 84.0499 59.331 85.1706 58.8139 86.0409C58.2974 86.9097 57.1689 87.1975 56.2973 86.683L52.7072 84.5632C52.7068 84.563 52.7063 84.5628 52.7059 84.5625C52.7056 84.5623 52.7052 84.5621 52.7048 84.5619L50.0849 83.0147C49.44 82.6339 48.608 82.846 48.2262 83.4887C47.8443 84.1312 48.057 84.9607 48.7017 85.3413L51.3222 86.8887C51.3225 86.8889 51.3229 86.8892 51.3233 86.8894C52.1949 87.404 52.4856 88.525 51.9674 89.3972C51.451 90.2659 50.3225 90.5537 49.4508 90.0392L46.3939 88.2343C47.7043 86.2189 47.2059 83.5029 45.2279 82.0878C44.647 81.6723 44.0002 81.4136 43.3386 81.3025C44.0403 79.4323 43.4353 77.2488 41.7315 76.0298C40.7228 75.3077 39.515 75.0583 38.3752 75.2364C38.1723 74.0542 37.5237 73.0186 36.5451 72.3186C34.7045 71.0021 32.2033 71.2551 30.6583 72.8129C30.3444 72.2633 29.911 71.7703 29.3627 71.378C27.8332 70.284 25.8475 70.2737 24.3333 71.1953L23.7117 70.8296L32.2443 56.4742L32.6505 56.713C34.4446 57.7722 36.6339 57.9931 38.6628 57.211L41.2707 56.2062C42.7631 55.6313 43.5861 55.5938 45.0622 56.288C44.0964 57.3696 43.523 58.7895 43.523 60.3198V66.3154C43.523 67.9078 44.8219 69.2042 46.4184 69.2053H46.4224C48.0237 69.2053 49.5295 68.584 50.6624 67.4556C51.3227 66.7978 51.8101 66.0136 52.1023 65.1576C53.854 66.1915 68.3267 74.7335 70.0046 75.7244C70.4267 75.9736 70.726 76.3716 70.8476 76.8452C70.9692 77.3183 70.8984 77.8108 70.6484 78.2314ZM80.4884 69.0143L77.6923 70.6655C76.4631 71.3908 74.8711 70.9845 74.1434 69.7601L69.8679 62.5671C69.4859 61.9245 68.6533 61.7125 68.0092 62.0927C67.3645 62.4733 67.1516 63.3028 67.5333 63.9453L71.8088 71.1385C71.8893 71.2739 71.9767 71.4026 72.0671 71.5281L70.8784 72.2202C70.6381 72.3621 70.407 72.5183 70.186 72.6879L51.7548 61.8091C50.8519 61.2764 49.707 61.9258 49.707 62.9725C49.6927 63.0532 49.8471 64.4432 48.7442 65.5421C48.1238 66.1599 47.2992 66.5003 46.4222 66.5003C46.4215 66.5003 46.4207 66.5003 46.42 66.5003C46.3186 66.5003 46.2361 66.417 46.2361 66.3147V60.3191C46.2361 58.7529 47.3172 57.4315 48.7793 57.0626L53.2854 55.9259C54.9204 55.5141 55.8446 56.3843 58.2927 57.2101C59.9922 57.8654 61.8402 57.825 63.4804 57.1268L64.2993 58.5046C64.6813 59.1475 65.5135 59.3593 66.158 58.9789C66.8027 58.5983 67.0156 57.7688 66.6339 57.1263L65.021 54.413C64.2913 53.1853 64.6979 51.6033 65.9294 50.8756L68.7254 49.2248C68.8475 49.1525 69.0091 49.1894 69.0847 49.3166L80.5801 68.6561C80.6543 68.7809 80.6134 68.9405 80.4884 69.0143Z"/>
</mask>
<path d="M82.9147 67.278L71.4194 47.9386C70.5816 46.5286 68.7583 46.0625 67.3429 46.8982L64.5468 48.5494C62.3764 49.8309 61.459 52.4243 62.2042 54.7225C61.2621 55.0627 60.2293 55.0573 59.2782 54.6909C57.0706 53.9986 55.3922 52.606 52.6202 53.3047C47.9134 54.4992 48.0565 54.4394 47.6306 54.5848C44.8747 53.0209 43.2181 52.5555 40.2924 53.6835L37.6846 54.6884C36.4772 55.1534 35.1467 55.0432 34.031 54.3843L33.3193 53.9661C33.6666 51.8922 32.7438 49.7035 30.7898 48.5498C30.7898 48.5498 30.7898 48.5498 30.7896 48.5496L27.9937 46.8986C26.5822 46.0654 24.7536 46.5318 23.9174 47.9386L12.4217 67.2782C11.5839 68.6879 12.0501 70.5057 13.4652 71.3411L16.2611 72.9921C17.1072 73.4917 18.037 73.7292 18.9556 73.7292C19.98 73.7292 20.99 73.4334 21.8535 72.8761L22.4362 73.2188L21.206 74.9267C19.7399 76.9623 20.2057 79.7928 22.2484 81.2542C23.1929 81.93 24.3796 82.2386 25.6068 82.0465C25.8015 83.181 26.4251 84.2427 27.4349 84.9655C28.3833 85.6442 29.5646 85.9532 30.794 85.7602C30.9892 86.8937 31.6125 87.9546 32.6217 88.6769C33.9781 89.6472 35.6644 89.7595 37.0696 89.1612C37.3771 89.9573 37.9115 90.6762 38.6571 91.2097C40.6039 92.6024 43.2856 92.2392 44.7983 90.4349L48.0676 92.3652C50.2297 93.6422 53.0193 92.9325 54.3013 90.7751C54.6291 90.2235 54.8325 89.6225 54.9069 89.0047L54.9143 89.0092C57.0731 90.2835 59.869 89.57 61.1479 87.4189C61.5183 86.7957 61.7213 86.1198 61.7706 85.4424C63.6735 85.9192 65.7473 85.1226 66.7975 83.356C67.142 82.7765 67.3418 82.1504 67.4076 81.5205C69.447 82.3181 71.8306 81.5472 72.9823 79.6097C73.6018 78.5675 73.777 77.3474 73.4757 76.1738C73.3033 75.5023 72.9863 74.8928 72.5511 74.3781L74.3531 73.3287C75.8775 73.9524 77.6172 73.8526 79.0751 72.9919L81.8707 71.3409C83.2858 70.5061 83.7532 68.6886 82.9147 67.278ZM17.6441 70.6655L14.8482 69.0143C14.7239 68.9409 14.6826 68.7804 14.7561 68.6565L26.2519 49.3166C26.3259 49.1921 26.4875 49.1518 26.611 49.225L29.4068 50.8758C30.6491 51.6096 31.0379 53.1977 30.3152 54.4133L21.1933 69.7599C20.4653 70.9851 18.8733 71.391 17.6441 70.6655ZM23.8306 79.0573C23.0067 78.4677 22.8183 77.3255 23.4102 76.5039L25.2185 73.9933C25.7945 73.1935 26.9425 72.9746 27.7802 73.5741C28.6025 74.1624 28.7911 75.3077 28.201 76.1273L26.3925 78.6379C25.8023 79.4578 24.6525 79.6452 23.8306 79.0573ZM29.0174 82.7688C28.1951 82.1802 28.0065 81.0346 28.5968 80.2152L30.4051 77.7048C30.4051 77.7048 30.4051 77.7048 30.4051 77.7046C30.4051 77.7046 30.4051 77.7045 30.4052 77.7045L32.4009 74.9339C32.6869 74.5369 33.1108 74.2745 33.5946 74.1955C33.6951 74.179 33.7958 74.1709 33.8958 74.1709C34.2765 74.1709 34.6471 74.289 34.9626 74.5147C35.3607 74.7998 35.6241 75.222 35.7033 75.7043C35.7828 76.1867 35.6691 76.6709 35.3831 77.0678L31.579 82.3494C30.9878 83.1707 29.8416 83.3587 29.0174 82.7688ZM34.2041 86.4799C33.3822 85.8918 33.1934 84.747 33.7826 83.9277C33.7828 83.9273 33.7832 83.9269 33.7834 83.9266L37.5875 78.6452C38.1774 77.8258 39.3273 77.6377 40.1492 78.2258C40.9715 78.8142 41.1601 79.9596 40.5698 80.7792L38.8797 83.1259C38.8797 83.1259 38.8797 83.1259 38.8795 83.126L36.7657 86.0607C36.1754 86.8803 35.0266 87.0686 34.2041 86.4799ZM40.2395 89.0128C39.4177 88.4246 39.2288 87.2804 39.8176 86.4609L41.0837 84.7032C41.6738 83.8835 42.8236 83.696 43.6455 84.284C44.4676 84.8722 44.6564 86.0178 44.0661 86.8374L42.8011 88.5934C42.211 89.4131 41.0614 89.6013 40.2395 89.0128ZM70.6484 78.2314C70.1322 79.0998 69.0038 79.3878 68.1324 78.8734C66.6568 78.0021 57.1381 72.3815 56.1233 71.7822C55.4784 71.4016 54.6464 71.6136 54.2646 72.2561C53.8827 72.8987 54.0954 73.7281 54.7401 74.1088L63.8191 79.4698L63.8192 79.47C64.6909 79.9845 64.9816 81.1057 64.4634 81.9779C63.9469 82.8467 62.8181 83.1341 61.947 82.6201C58.5891 80.6373 55.8625 79.0273 52.8632 77.2562C52.2181 76.8756 51.3863 77.0876 51.0044 77.7301C50.6226 78.3727 50.8353 79.2021 51.48 79.5827L58.1695 83.5329L58.171 83.5338C59.0432 84.0499 59.331 85.1706 58.8139 86.0409C58.2974 86.9097 57.1689 87.1975 56.2973 86.683L52.7072 84.5632C52.7068 84.563 52.7063 84.5628 52.7059 84.5625C52.7056 84.5623 52.7052 84.5621 52.7048 84.5619L50.0849 83.0147C49.44 82.6339 48.608 82.846 48.2262 83.4887C47.8443 84.1312 48.057 84.9607 48.7017 85.3413L51.3222 86.8887C51.3225 86.8889 51.3229 86.8892 51.3233 86.8894C52.1949 87.404 52.4856 88.525 51.9674 89.3972C51.451 90.2659 50.3225 90.5537 49.4508 90.0392L46.3939 88.2343C47.7043 86.2189 47.2059 83.5029 45.2279 82.0878C44.647 81.6723 44.0002 81.4136 43.3386 81.3025C44.0403 79.4323 43.4353 77.2488 41.7315 76.0298C40.7228 75.3077 39.515 75.0583 38.3752 75.2364C38.1723 74.0542 37.5237 73.0186 36.5451 72.3186C34.7045 71.0021 32.2033 71.2551 30.6583 72.8129C30.3444 72.2633 29.911 71.7703 29.3627 71.378C27.8332 70.284 25.8475 70.2737 24.3333 71.1953L23.7117 70.8296L32.2443 56.4742L32.6505 56.713C34.4446 57.7722 36.6339 57.9931 38.6628 57.211L41.2707 56.2062C42.7631 55.6313 43.5861 55.5938 45.0622 56.288C44.0964 57.3696 43.523 58.7895 43.523 60.3198V66.3154C43.523 67.9078 44.8219 69.2042 46.4184 69.2053H46.4224C48.0237 69.2053 49.5295 68.584 50.6624 67.4556C51.3227 66.7978 51.8101 66.0136 52.1023 65.1576C53.854 66.1915 68.3267 74.7335 70.0046 75.7244C70.4267 75.9736 70.726 76.3716 70.8476 76.8452C70.9692 77.3183 70.8984 77.8108 70.6484 78.2314ZM80.4884 69.0143L77.6923 70.6655C76.4631 71.3908 74.8711 70.9845 74.1434 69.7601L69.8679 62.5671C69.4859 61.9245 68.6533 61.7125 68.0092 62.0927C67.3645 62.4733 67.1516 63.3028 67.5333 63.9453L71.8088 71.1385C71.8893 71.2739 71.9767 71.4026 72.0671 71.5281L70.8784 72.2202C70.6381 72.3621 70.407 72.5183 70.186 72.6879L51.7548 61.8091C50.8519 61.2764 49.707 61.9258 49.707 62.9725C49.6927 63.0532 49.8471 64.4432 48.7442 65.5421C48.1238 66.1599 47.2992 66.5003 46.4222 66.5003C46.4215 66.5003 46.4207 66.5003 46.42 66.5003C46.3186 66.5003 46.2361 66.417 46.2361 66.3147V60.3191C46.2361 58.7529 47.3172 57.4315 48.7793 57.0626L53.2854 55.9259C54.9204 55.5141 55.8446 56.3843 58.2927 57.2101C59.9922 57.8654 61.8402 57.825 63.4804 57.1268L64.2993 58.5046C64.6813 59.1475 65.5135 59.3593 66.158 58.9789C66.8027 58.5983 67.0156 57.7688 66.6339 57.1263L65.021 54.413C64.2913 53.1853 64.6979 51.6033 65.9294 50.8756L68.7254 49.2248C68.8475 49.1525 69.0091 49.1894 69.0847 49.3166L80.5801 68.6561C80.6543 68.7809 80.6134 68.9405 80.4884 69.0143Z" fill="url(#paint4_linear_1_113976)"/>
<path d="M82.9147 67.278L71.4194 47.9386C70.5816 46.5286 68.7583 46.0625 67.3429 46.8982L64.5468 48.5494C62.3764 49.8309 61.459 52.4243 62.2042 54.7225C61.2621 55.0627 60.2293 55.0573 59.2782 54.6909C57.0706 53.9986 55.3922 52.606 52.6202 53.3047C47.9134 54.4992 48.0565 54.4394 47.6306 54.5848C44.8747 53.0209 43.2181 52.5555 40.2924 53.6835L37.6846 54.6884C36.4772 55.1534 35.1467 55.0432 34.031 54.3843L33.3193 53.9661C33.6666 51.8922 32.7438 49.7035 30.7898 48.5498C30.7898 48.5498 30.7898 48.5498 30.7896 48.5496L27.9937 46.8986C26.5822 46.0654 24.7536 46.5318 23.9174 47.9386L12.4217 67.2782C11.5839 68.6879 12.0501 70.5057 13.4652 71.3411L16.2611 72.9921C17.1072 73.4917 18.037 73.7292 18.9556 73.7292C19.98 73.7292 20.99 73.4334 21.8535 72.8761L22.4362 73.2188L21.206 74.9267C19.7399 76.9623 20.2057 79.7928 22.2484 81.2542C23.1929 81.93 24.3796 82.2386 25.6068 82.0465C25.8015 83.181 26.4251 84.2427 27.4349 84.9655C28.3833 85.6442 29.5646 85.9532 30.794 85.7602C30.9892 86.8937 31.6125 87.9546 32.6217 88.6769C33.9781 89.6472 35.6644 89.7595 37.0696 89.1612C37.3771 89.9573 37.9115 90.6762 38.6571 91.2097C40.6039 92.6024 43.2856 92.2392 44.7983 90.4349L48.0676 92.3652C50.2297 93.6422 53.0193 92.9325 54.3013 90.7751C54.6291 90.2235 54.8325 89.6225 54.9069 89.0047L54.9143 89.0092C57.0731 90.2835 59.869 89.57 61.1479 87.4189C61.5183 86.7957 61.7213 86.1198 61.7706 85.4424C63.6735 85.9192 65.7473 85.1226 66.7975 83.356C67.142 82.7765 67.3418 82.1504 67.4076 81.5205C69.447 82.3181 71.8306 81.5472 72.9823 79.6097C73.6018 78.5675 73.777 77.3474 73.4757 76.1738C73.3033 75.5023 72.9863 74.8928 72.5511 74.3781L74.3531 73.3287C75.8775 73.9524 77.6172 73.8526 79.0751 72.9919L81.8707 71.3409C83.2858 70.5061 83.7532 68.6886 82.9147 67.278ZM17.6441 70.6655L14.8482 69.0143C14.7239 68.9409 14.6826 68.7804 14.7561 68.6565L26.2519 49.3166C26.3259 49.1921 26.4875 49.1518 26.611 49.225L29.4068 50.8758C30.6491 51.6096 31.0379 53.1977 30.3152 54.4133L21.1933 69.7599C20.4653 70.9851 18.8733 71.391 17.6441 70.6655ZM23.8306 79.0573C23.0067 78.4677 22.8183 77.3255 23.4102 76.5039L25.2185 73.9933C25.7945 73.1935 26.9425 72.9746 27.7802 73.5741C28.6025 74.1624 28.7911 75.3077 28.201 76.1273L26.3925 78.6379C25.8023 79.4578 24.6525 79.6452 23.8306 79.0573ZM29.0174 82.7688C28.1951 82.1802 28.0065 81.0346 28.5968 80.2152L30.4051 77.7048C30.4051 77.7048 30.4051 77.7048 30.4051 77.7046C30.4051 77.7046 30.4051 77.7045 30.4052 77.7045L32.4009 74.9339C32.6869 74.5369 33.1108 74.2745 33.5946 74.1955C33.6951 74.179 33.7958 74.1709 33.8958 74.1709C34.2765 74.1709 34.6471 74.289 34.9626 74.5147C35.3607 74.7998 35.6241 75.222 35.7033 75.7043C35.7828 76.1867 35.6691 76.6709 35.3831 77.0678L31.579 82.3494C30.9878 83.1707 29.8416 83.3587 29.0174 82.7688ZM34.2041 86.4799C33.3822 85.8918 33.1934 84.747 33.7826 83.9277C33.7828 83.9273 33.7832 83.9269 33.7834 83.9266L37.5875 78.6452C38.1774 77.8258 39.3273 77.6377 40.1492 78.2258C40.9715 78.8142 41.1601 79.9596 40.5698 80.7792L38.8797 83.1259C38.8797 83.1259 38.8797 83.1259 38.8795 83.126L36.7657 86.0607C36.1754 86.8803 35.0266 87.0686 34.2041 86.4799ZM40.2395 89.0128C39.4177 88.4246 39.2288 87.2804 39.8176 86.4609L41.0837 84.7032C41.6738 83.8835 42.8236 83.696 43.6455 84.284C44.4676 84.8722 44.6564 86.0178 44.0661 86.8374L42.8011 88.5934C42.211 89.4131 41.0614 89.6013 40.2395 89.0128ZM70.6484 78.2314C70.1322 79.0998 69.0038 79.3878 68.1324 78.8734C66.6568 78.0021 57.1381 72.3815 56.1233 71.7822C55.4784 71.4016 54.6464 71.6136 54.2646 72.2561C53.8827 72.8987 54.0954 73.7281 54.7401 74.1088L63.8191 79.4698L63.8192 79.47C64.6909 79.9845 64.9816 81.1057 64.4634 81.9779C63.9469 82.8467 62.8181 83.1341 61.947 82.6201C58.5891 80.6373 55.8625 79.0273 52.8632 77.2562C52.2181 76.8756 51.3863 77.0876 51.0044 77.7301C50.6226 78.3727 50.8353 79.2021 51.48 79.5827L58.1695 83.5329L58.171 83.5338C59.0432 84.0499 59.331 85.1706 58.8139 86.0409C58.2974 86.9097 57.1689 87.1975 56.2973 86.683L52.7072 84.5632C52.7068 84.563 52.7063 84.5628 52.7059 84.5625C52.7056 84.5623 52.7052 84.5621 52.7048 84.5619L50.0849 83.0147C49.44 82.6339 48.608 82.846 48.2262 83.4887C47.8443 84.1312 48.057 84.9607 48.7017 85.3413L51.3222 86.8887C51.3225 86.8889 51.3229 86.8892 51.3233 86.8894C52.1949 87.404 52.4856 88.525 51.9674 89.3972C51.451 90.2659 50.3225 90.5537 49.4508 90.0392L46.3939 88.2343C47.7043 86.2189 47.2059 83.5029 45.2279 82.0878C44.647 81.6723 44.0002 81.4136 43.3386 81.3025C44.0403 79.4323 43.4353 77.2488 41.7315 76.0298C40.7228 75.3077 39.515 75.0583 38.3752 75.2364C38.1723 74.0542 37.5237 73.0186 36.5451 72.3186C34.7045 71.0021 32.2033 71.2551 30.6583 72.8129C30.3444 72.2633 29.911 71.7703 29.3627 71.378C27.8332 70.284 25.8475 70.2737 24.3333 71.1953L23.7117 70.8296L32.2443 56.4742L32.6505 56.713C34.4446 57.7722 36.6339 57.9931 38.6628 57.211L41.2707 56.2062C42.7631 55.6313 43.5861 55.5938 45.0622 56.288C44.0964 57.3696 43.523 58.7895 43.523 60.3198V66.3154C43.523 67.9078 44.8219 69.2042 46.4184 69.2053H46.4224C48.0237 69.2053 49.5295 68.584 50.6624 67.4556C51.3227 66.7978 51.8101 66.0136 52.1023 65.1576C53.854 66.1915 68.3267 74.7335 70.0046 75.7244C70.4267 75.9736 70.726 76.3716 70.8476 76.8452C70.9692 77.3183 70.8984 77.8108 70.6484 78.2314ZM80.4884 69.0143L77.6923 70.6655C76.4631 71.3908 74.8711 70.9845 74.1434 69.7601L69.8679 62.5671C69.4859 61.9245 68.6533 61.7125 68.0092 62.0927C67.3645 62.4733 67.1516 63.3028 67.5333 63.9453L71.8088 71.1385C71.8893 71.2739 71.9767 71.4026 72.0671 71.5281L70.8784 72.2202C70.6381 72.3621 70.407 72.5183 70.186 72.6879L51.7548 61.8091C50.8519 61.2764 49.707 61.9258 49.707 62.9725C49.6927 63.0532 49.8471 64.4432 48.7442 65.5421C48.1238 66.1599 47.2992 66.5003 46.4222 66.5003C46.4215 66.5003 46.4207 66.5003 46.42 66.5003C46.3186 66.5003 46.2361 66.417 46.2361 66.3147V60.3191C46.2361 58.7529 47.3172 57.4315 48.7793 57.0626L53.2854 55.9259C54.9204 55.5141 55.8446 56.3843 58.2927 57.2101C59.9922 57.8654 61.8402 57.825 63.4804 57.1268L64.2993 58.5046C64.6813 59.1475 65.5135 59.3593 66.158 58.9789C66.8027 58.5983 67.0156 57.7688 66.6339 57.1263L65.021 54.413C64.2913 53.1853 64.6979 51.6033 65.9294 50.8756L68.7254 49.2248C68.8475 49.1525 69.0091 49.1894 69.0847 49.3166L80.5801 68.6561C80.6543 68.7809 80.6134 68.9405 80.4884 69.0143Z" stroke="#131313" stroke-width="2" mask="url(#path-5-outside-1_1_113976)"/>
<defs>
<linearGradient id="paint0_linear_1_113976" x1="35.2638" y1="25.809" x2="35.2638" y2="27.8764" gradientUnits="userSpaceOnUse">
<stop stop-color="#B58C40"/>
<stop offset="1" stop-color="#FAEACB"/>
</linearGradient>
<linearGradient id="paint1_linear_1_113976" x1="23.893" y1="16.5056" x2="23.893" y2="18.573" gradientUnits="userSpaceOnUse">
<stop stop-color="#B58C40"/>
<stop offset="1" stop-color="#FAEACB"/>
</linearGradient>
<linearGradient id="paint2_linear_1_113976" x1="35.2638" y1="34.0786" x2="35.2638" y2="36.1461" gradientUnits="userSpaceOnUse">
<stop stop-color="#B58C40"/>
<stop offset="1" stop-color="#FAEACB"/>
</linearGradient>
<linearGradient id="paint3_linear_1_113976" x1="34.7471" y1="1" x2="34.7471" y2="85.764" gradientUnits="userSpaceOnUse">
<stop stop-color="#B58C40"/>
<stop offset="1" stop-color="#FAEACB"/>
</linearGradient>
<linearGradient id="paint4_linear_1_113976" x1="47.6683" y1="46.4832" x2="47.6683" y2="93" gradientUnits="userSpaceOnUse">
<stop stop-color="#B58C40"/>
<stop offset="1" stop-color="#FAEACB"/>
</linearGradient>
</defs>
</svg>
