<svg width="1920" height="1754" viewBox="0 0 1920 1754" fill="none" xmlns="http://www.w3.org/2000/svg">
<g filter="url(#filter0_f_503_125)">
<path d="M1319.37 1296.83C1383.57 1502.25 574.565 1407.83 551.127 1404.31C-82.7066 1316.27 397.733 1273.64 667.775 1226.69C937.816 1179.74 1255.17 1091.41 1319.37 1296.83Z" fill="#E4C995" fill-opacity="0.25"/>
</g>
<g filter="url(#filter1_f_503_125)">
<path d="M2401.44 568.899C2465.61 897.84 1642.03 1133.54 1618.6 1127.9C985.023 986.926 1480.17 531.769 1750.1 456.583C2020.03 381.397 2337.26 239.959 2401.44 568.899Z" fill="url(#paint0_linear_503_125)" fill-opacity="0.25"/>
</g>
<g filter="url(#filter2_f_503_125)">
<path d="M808.437 532.899C872.609 861.84 49.0303 1097.54 25.6021 1091.9C-607.977 950.927 -112.832 495.769 157.101 420.583C427.034 345.397 744.264 203.959 808.437 532.899Z" fill="url(#paint1_linear_503_125)" fill-opacity="0.25"/>
</g>
<defs>
<filter id="filter0_f_503_125" x="-87" y="842" width="1735" height="912" filterUnits="userSpaceOnUse" color-interpolation-filters="sRGB">
<feFlood flood-opacity="0" result="BackgroundImageFix"/>
<feBlend mode="normal" in="SourceGraphic" in2="BackgroundImageFix" result="shape"/>
<feGaussianBlur stdDeviation="162.5" result="effect1_foregroundBlur_503_125"/>
</filter>
<filter id="filter1_f_503_125" x="985" y="36" width="1745" height="1417" filterUnits="userSpaceOnUse" color-interpolation-filters="sRGB">
<feFlood flood-opacity="0" result="BackgroundImageFix"/>
<feBlend mode="normal" in="SourceGraphic" in2="BackgroundImageFix" result="shape"/>
<feGaussianBlur stdDeviation="162.5" result="effect1_foregroundBlur_503_125"/>
</filter>
<filter id="filter2_f_503_125" x="-608" y="0" width="1745" height="1417" filterUnits="userSpaceOnUse" color-interpolation-filters="sRGB">
<feFlood flood-opacity="0" result="BackgroundImageFix"/>
<feBlend mode="normal" in="SourceGraphic" in2="BackgroundImageFix" result="shape"/>
<feGaussianBlur stdDeviation="162.5" result="effect1_foregroundBlur_503_125"/>
</filter>
<linearGradient id="paint0_linear_503_125" x1="1484.5" y1="1051.5" x2="1857.5" y2="1128" gradientUnits="userSpaceOnUse">
<stop stop-color="#E4C995" stop-opacity="0.55"/>
<stop offset="1" stop-color="#E4C995" stop-opacity="0"/>
</linearGradient>
<linearGradient id="paint1_linear_503_125" x1="-108.5" y1="1015.5" x2="264.5" y2="1092" gradientUnits="userSpaceOnUse">
<stop stop-color="#E4C995" stop-opacity="0.64"/>
<stop offset="1" stop-color="#E4C995" stop-opacity="0"/>
</linearGradient>
</defs>
</svg>
