<svg width="1920" height="608" viewBox="0 0 1920 608" fill="none" xmlns="http://www.w3.org/2000/svg">
<path d="M2199.42 572.761C2027.89 -21.6917 1614.59 213.75 1218.17 434.931C990.76 561.823 808.479 525.734 640.266 440.578C333.522 283.839 125.547 -54.6246 -45.228 23.3418" stroke="#C6BF88" stroke-width="0.25" stroke-miterlimit="10"/>
<path d="M2199.49 577.696C2031.45 -20.6477 1614.95 212.302 1218.1 436.189C990.76 564.48 807.126 529.269 639.412 443.426C333.095 285.334 124.574 -57.7565 -45.7739 22.2267" stroke="#C8C189" stroke-width="0.25" stroke-miterlimit="10"/>
<path d="M2199.54 582.631C2035 -19.5802 1615.3 210.689 1218.02 437.423C990.759 567.137 805.75 532.805 638.558 446.249C332.715 286.805 123.933 -60.9123 -46.3198 21.1114" stroke="#CAC38B" stroke-width="0.25" stroke-miterlimit="10"/>
<path d="M2199.61 587.59C2038.56 -18.5122 1615.26 208.459 1217.95 438.657C990.523 569.368 804.398 536.34 637.704 449.073C332.265 288.3 122.937 -64.1152 -46.8887 19.9965" stroke="#CBC58C" stroke-width="0.25" stroke-miterlimit="10"/>
<path d="M2199.68 592.525C2042.12 -17.4682 1615.68 207.083 1217.88 439.914C990.571 572.12 803.022 539.875 636.85 451.896C331.862 289.771 122.059 -67.2709 -47.3867 18.9287" stroke="#CDC68E" stroke-width="0.25" stroke-miterlimit="10"/>
<path d="M2199.75 597.46C2045.68 -16.4007 1616.25 205.73 1217.81 441.266C990.642 574.991 801.646 543.529 635.996 454.838C331.458 291.36 121.157 -70.308 -47.9326 17.8847" stroke="#CFC88F" stroke-width="0.25" stroke-miterlimit="10"/>
<path d="M2199.9 602.419C2049.24 -15.3567 1616.59 204.378 1217.67 442.405C990.618 577.648 800.223 546.946 635.071 457.567C331.031 292.736 120.327 -73.6062 -48.4546 16.5559" stroke="#D1CA91" stroke-width="0.25" stroke-miterlimit="10"/>
<path d="M2199.9 607.355C2052.8 -14.2889 1617.04 203.002 1217.67 443.639C572.128 832.593 210.792 -126.802 -49 15.5358" stroke="#D3CC92" stroke-width="0.25" stroke-miterlimit="10"/>
</svg>
