<svg width="72" height="72" viewBox="0 0 72 72" fill="none" xmlns="http://www.w3.org/2000/svg">
<g clip-path="url(#clip0_1_113873)">
<path d="M0.15 36.0001C0.15 16.2324 16.2324 0.15 36.0001 0.15C55.7676 0.15 71.8499 16.2324 71.8499 36.0001C71.8499 55.7678 55.7675 71.8501 35.9999 71.8501C16.2324 71.8501 0.15 55.7678 0.15 36.0001ZM4.06879 36.0001C4.06879 53.6071 18.3929 67.9312 36.0001 67.9312C53.6071 67.9312 67.9312 53.6072 67.9312 36.0001C67.9312 18.3929 53.6072 4.06879 36.0001 4.06879C18.3929 4.06879 4.06879 18.3931 4.06879 36.0001Z" fill="#3D3D3D" stroke="black" stroke-width="0.3"/>
<path d="M8.5875 35.9999C8.5875 20.8847 20.8849 8.58726 36.0001 8.58726C51.1152 8.58726 63.4128 20.8847 63.4128 35.9999C63.4128 51.1151 51.1153 63.4125 36.0001 63.4125C20.8849 63.4125 8.5875 51.1151 8.5875 35.9999ZM12.5063 35.9997C12.5063 48.9544 23.0455 59.4936 36.0001 59.4936C48.9546 59.4936 59.494 48.9545 59.494 35.9999C59.494 23.0452 48.9548 12.506 36.0001 12.506C23.0455 12.506 12.5063 23.0451 12.5063 35.9997Z" fill="#3D3D3D" stroke="black" stroke-width="0.3"/>
<path d="M43.2449 30.7725L43.1835 30.6931L37.5497 23.4108C37.1786 22.9311 36.6063 22.6502 35.9999 22.6502C35.3936 22.6502 34.8213 22.9311 34.4502 23.4108L28.8164 30.6931L28.7549 30.7725L28.6581 30.746L22.2779 28.9969C21.596 28.8099 20.8663 29.005 20.3685 29.507L43.2449 30.7725ZM43.2449 30.7725L43.3418 30.746M43.2449 30.7725L43.3418 30.746M43.3418 30.746L49.7217 28.9969C50.4046 28.8097 51.1352 29.0054 51.6329 29.5089L51.6329 29.5089C52.1307 30.0123 52.3181 30.7453 52.1233 31.426L48.1837 45.1839L48.3279 45.2252M43.3418 30.746L48.3279 45.2252M48.3279 45.2252L48.1837 45.1839C47.9431 46.0245 47.1745 46.6039 46.3001 46.6039H25.6573C24.7809 46.6039 24.011 46.0219 23.7721 45.1785L19.8746 31.4206C19.6819 30.7403 19.8707 30.0091 20.3685 29.507L48.3279 45.2252ZM44.7102 42.685H44.8233L44.8544 42.5763L47.3232 33.9542L47.3967 33.6977L47.1394 33.7683L43.0159 34.8988L43.0159 34.8988C42.2509 35.1088 41.4339 34.8359 40.9481 34.208L36.1186 27.9652L35.9999 27.8118L35.8813 27.9652L31.0519 34.208C30.5662 34.8358 29.7495 35.1085 28.9841 34.8988C28.9841 34.8988 28.9841 34.8987 28.9841 34.8987L24.8484 33.7649L24.5919 33.6946L24.6644 33.9504L27.1079 42.5759L27.1388 42.685H27.2522H44.7102Z" fill="#3D3D3D" stroke="black" stroke-width="0.3"/>
</g>
<defs>
<clipPath id="clip0_1_113873">
<rect width="72" height="72" fill="white"/>
</clipPath>
</defs>
</svg>
