<svg width="71" height="71" viewBox="0 0 71 71" fill="none" xmlns="http://www.w3.org/2000/svg">
<path d="M70.6875 35.5C70.6875 54.9032 54.9032 70.6875 35.5 70.6875C16.0968 70.6875 0.3125 54.9032 0.3125 35.5C0.3125 16.0968 16.0968 0.3125 35.5 0.3125C54.9032 0.3125 70.6875 16.0968 70.6875 35.5ZM66.125 35.5C66.125 18.6051 52.3949 4.875 35.5 4.875C18.6051 4.875 4.875 18.6051 4.875 35.5C4.875 52.3949 18.6051 66.125 35.5 66.125C52.3949 66.125 66.125 52.3949 66.125 35.5Z" fill="#3D3D3D" stroke="black" stroke-width="0.5"/>
<path d="M63.5775 35.5C63.5775 50.9825 50.9827 63.5773 35.5002 63.5773C20.0177 63.5773 7.42295 50.9825 7.42295 35.5C7.42295 20.0175 20.0177 7.42271 35.5002 7.42271C50.9827 7.42271 63.5775 20.0175 63.5775 35.5ZM59.845 35.5C59.845 22.0697 48.9305 11.1552 35.5002 11.1552C22.0699 11.1552 11.1554 22.0697 11.1554 35.5C11.1554 48.9303 22.0699 59.8448 35.5002 59.8448C48.9305 59.8448 59.845 48.9303 59.845 35.5Z" fill="#3D3D3D" stroke="black" stroke-width="0.3"/>
<path d="M24.8353 27.7676L24.5762 28.1563H25.0433H50.6882C51.949 28.1563 52.9694 29.1778 52.9694 30.4375C52.9694 31.6973 51.949 32.7188 50.6882 32.7188H20.3132C19.4722 32.7188 18.6993 32.2556 18.3018 31.5136C17.9053 30.7716 17.9487 29.8715 18.4154 29.1722L18.4154 29.1721L23.4779 21.5784L23.4781 21.5781C24.175 20.5293 25.5907 20.245 26.6413 20.9458L26.6414 20.9458C27.6892 21.644 27.9724 23.0609 27.2739 24.1092C27.2739 24.1092 27.2739 24.1092 27.2739 24.1092L24.8353 27.7676Z" fill="#3D3D3D" stroke="black" stroke-width="0.5"/>
<path d="M46.1666 43.2325L46.4258 42.8438H45.9586H20.3125C19.0528 42.8438 18.0312 41.8222 18.0312 40.5625C18.0312 39.3028 19.0528 38.2812 20.3125 38.2812H50.6875C51.5296 38.2812 52.3027 38.7446 52.6991 39.4863C53.0955 40.2281 53.0511 41.1285 52.5854 41.8281L47.523 49.4217L47.5229 49.4218C47.0843 50.0806 46.3607 50.4375 45.6225 50.4375C45.1883 50.4375 44.7498 50.3141 44.3592 50.0541C43.3102 49.356 43.0272 47.9392 43.7267 46.8909L43.7267 46.8909L46.1666 43.2325Z" fill="#3D3D3D" stroke="black" stroke-width="0.5"/>
</svg>
