<svg width="1920" height="1227" viewBox="0 0 1920 1227" fill="none" xmlns="http://www.w3.org/2000/svg">
<g opacity="0.3">
<path d="M2294 584.644C1789.46 447.55 1630.78 867.539 1284.11 846.968C1044.48 832.732 985.171 532.754 768.464 517.307C420.154 492.489 183.138 1054.98 6.88281 1121.94" stroke="#000002" stroke-width="0.25" stroke-miterlimit="10"/>
<path d="M2292.6 585.878C1792.68 445.557 1632.06 866.044 1284.44 844.69C1045.31 830.217 985.266 529.669 767.895 514.246C420.509 489.547 184.087 1049.83 7.04883 1116.91" stroke="#010103" stroke-width="0.25" stroke-miterlimit="10"/>
<path d="M2291.18 587.112C1795.89 443.54 1633.42 864.55 1284.8 842.412C1046.22 827.726 985.337 526.584 767.325 511.186C420.936 486.605 185.036 1044.66 7.19092 1111.71" stroke="#020103" stroke-width="0.25" stroke-miterlimit="10"/>
<path d="M2289.78 588.369C1799.11 441.547 1634.72 863.055 1285.15 840.111C1047.14 825.092 985.408 523.524 766.779 508.125C421.221 483.686 185.985 1039.51 7.35693 1106.59" stroke="#020204" stroke-width="0.25" stroke-miterlimit="10"/>
<path d="M2288.35 589.603C1802.34 439.531 1635.91 861.56 1285.49 837.833C1048.07 822.553 985.503 520.439 766.21 505.04C421.577 480.72 186.934 1034.34 7.52344 1101.49" stroke="#030304" stroke-width="0.25" stroke-miterlimit="10"/>
<path d="M2286.88 590.837C1805.47 437.537 1637.31 859.33 1285.68 835.532C1048.85 819.516 985.408 517.355 765.499 502.003C421.909 477.778 187.883 1029.19 7.68945 1096.36" stroke="#040405" stroke-width="0.25" stroke-miterlimit="10"/>
<path d="M2285.53 592.094C1808.77 435.497 1638.71 857.835 1286.2 833.254C1049.96 816.859 985.645 514.294 765.095 498.943C422.265 474.836 188.832 1024.04 7.83154 1091.24" stroke="#050405" stroke-width="0.25" stroke-miterlimit="10"/>
<path d="M2284.11 593.328C1811.97 433.528 1640.01 856.198 1286.53 830.976C1050.89 814.225 985.716 511.209 764.573 495.858C422.621 471.823 189.781 1018.87 7.99756 1086.13" stroke="#050506" stroke-width="0.25" stroke-miterlimit="10"/>
<path d="M2282.71 594.562C1815.2 431.487 1641.34 854.466 1286.89 828.675C1051.82 811.591 985.812 508.125 763.98 492.798C422.977 468.952 190.73 1013.72 8.16406 1081.01" stroke="#060606" stroke-width="0.25" stroke-miterlimit="10"/>
<path d="M2281.28 595.796C1818.43 429.518 1642.67 852.829 1287.19 826.397C1052.72 808.958 985.883 505.064 763.387 489.737C423.309 466.01 191.608 1008.55 8.30664 1075.91" stroke="#070707" stroke-width="0.25" stroke-miterlimit="10"/>
<path d="M2279.88 597.053C1821.63 427.501 1643.93 851.215 1287.57 824.119C1053.67 806.371 985.954 501.98 762.865 486.676C423.593 463.068 192.651 1003.4 8.40088 1070.78" stroke="#080708" stroke-width="0.25" stroke-miterlimit="10"/>
<path d="M2278.46 598.287C1824.86 425.508 1645.3 849.578 1288.05 821.818C1054.59 803.69 986.049 498.895 762.296 483.686C424.044 460.126 193.6 998.227 8.63818 1065.66" stroke="#080808" stroke-width="0.25" stroke-miterlimit="10"/>
<path d="M2277.04 599.521C1828.08 423.515 1646.63 847.964 1288.26 819.54C1055.54 801.056 986.121 495.834 761.751 480.554C424.448 457.183 194.55 993.078 8.80518 1060.56" stroke="#090909" stroke-width="0.25" stroke-miterlimit="10"/>
<path d="M2275.64 600.778C1831.29 421.498 1647.96 846.351 1288.66 817.238C1056.51 798.447 986.238 492.75 761.228 477.494C424.756 454.241 195.498 987.929 8.97021 1055.5" stroke="#0A0A09" stroke-width="0.25" stroke-miterlimit="10"/>
<path d="M2274.21 602.012C1834.51 419.624 1649.27 844.738 1288.97 814.961C1057.39 795.813 986.286 489.666 760.611 474.433C425.112 451.299 196.448 982.757 9.11279 1050.33" stroke="#0B0A0A" stroke-width="0.25" stroke-miterlimit="10"/>
<path d="M2272.81 603.246C1837.74 417.488 1650.59 843.148 1289.31 812.683C1058.32 793.203 986.357 486.605 760.066 471.372C425.468 448.357 197.397 977.608 9.25537 1045.21" stroke="#0B0B0A" stroke-width="0.25" stroke-miterlimit="10"/>
<path d="M2271.39 604.48C1840.85 415.495 1651.92 841.535 1289.66 810.381C1059.24 790.593 986.429 483.52 759.497 468.311C425.825 445.415 198.346 972.459 9.4458 1040.08" stroke="#0C0C0B" stroke-width="0.25" stroke-miterlimit="10"/>
<path d="M2269.97 605.737C1844.17 413.55 1653.11 839.921 1290.11 808.103C1060.29 787.959 986.5 480.436 758.974 465.25C426.18 442.473 199.295 967.287 9.61133 1034.98" stroke="#0D0C0B" stroke-width="0.25" stroke-miterlimit="10"/>
<path d="M2268.57 607.066C1847.4 411.486 1654.56 838.331 1290.42 805.826C1061.19 785.349 986.737 477.375 758.452 462.19C426.535 439.507 200.244 962.114 9.75342 1029.85" stroke="#0E0D0C" stroke-width="0.25" stroke-miterlimit="10"/>
<path d="M2267.14 608.205C1850.6 409.469 1655.79 836.718 1290.71 803.524C1062.04 782.645 986.737 474.196 757.812 459.129C426.821 436.565 201.193 956.966 9.91992 1024.66" stroke="#0E0E0D" stroke-width="0.25" stroke-miterlimit="10"/>
<path d="M2265.74 609.439C1853.82 407.452 1657.21 835.105 1291.04 801.223C1062.97 780.106 986.737 471.182 757.218 456.044C427.247 433.623 202.142 951.817 10.0854 1019.63" stroke="#0F0F0D" stroke-width="0.25" stroke-miterlimit="10"/>
<path d="M2264.32 610.696C1857.05 405.388 1658.52 833.539 1291.39 798.945C1063.89 777.52 986.737 468.145 756.602 453.008C427.603 430.681 203.091 946.645 10.252 1014.5" stroke="#100F0E" stroke-width="0.25" stroke-miterlimit="10"/>
<path d="M2262.9 611.93C1860.25 403.466 1659.85 831.949 1291.75 796.667C1064.84 774.933 986.903 465.061 756.151 449.923C427.959 427.738 204.04 941.614 10.394 1009.4" stroke="#11100E" stroke-width="0.25" stroke-miterlimit="10"/>
<path d="M2261.5 613.164C1863.48 401.449 1661.25 830.359 1292.08 794.389C1065.77 772.323 986.974 461.976 755.582 446.862C428.315 424.796 204.989 936.323 10.6079 1004.28" stroke="#11110F" stroke-width="0.25" stroke-miterlimit="10"/>
<path d="M2260.07 614.421C1866.68 399.456 1662.5 828.77 1292.44 792.135C1066.69 769.761 987.045 458.963 755.012 443.849C428.671 421.854 205.938 931.175 10.7261 999.152" stroke="#12120F" stroke-width="0.25" stroke-miterlimit="10"/>
<path d="M2258.67 615.655C1869.91 397.463 1663.81 827.18 1292.79 789.763C1067.64 767.08 987.164 455.783 754.49 440.693C429.027 418.912 206.887 926.002 10.8926 994.051" stroke="#131210" stroke-width="0.25" stroke-miterlimit="10"/>
<path d="M2257.25 616.889C1873.14 395.446 1665.14 825.685 1293.13 787.532C1068.54 764.541 987.212 452.841 753.897 437.68C429.383 415.97 207.836 920.854 11.0352 988.926" stroke="#141310" stroke-width="0.25" stroke-miterlimit="10"/>
<path d="M2255.85 618.146C1876.43 393.524 1666.47 824.024 1293.48 785.231C1069.47 761.931 987.283 449.686 753.351 434.619C429.738 413.028 208.785 915.705 11.2007 983.825" stroke="#141411" stroke-width="0.25" stroke-miterlimit="10"/>
<path d="M2254.43 619.38C1879.57 391.436 1667.79 822.458 1293.81 782.953C1070.42 759.345 987.377 446.601 752.876 431.558C430.094 410.133 209.734 910.532 11.3667 978.699" stroke="#151512" stroke-width="0.25" stroke-miterlimit="10"/>
<path d="M2253 620.614C1882.89 389.443 1669.12 820.892 1294.17 780.652C1071.34 756.759 987.449 443.517 752.213 428.498C430.427 407.144 210.683 905.407 11.5332 973.575" stroke="#161512" stroke-width="0.25" stroke-miterlimit="10"/>
<path d="M2251.6 621.848C1886 387.427 1670.33 819.326 1294.5 778.445C1072.27 754.172 987.52 440.456 751.667 425.437C430.782 404.201 211.632 900.211 11.6279 968.473" stroke="#171613" stroke-width="0.25" stroke-miterlimit="10"/>
<path d="M2250.18 623.105C1889.22 385.433 1671.76 817.665 1294.86 776.096C1073.19 751.586 987.592 437.371 751.098 422.376C431.139 401.259 212.534 895.062 11.8418 963.348" stroke="#171713" stroke-width="0.25" stroke-miterlimit="10"/>
<path d="M2248.78 624.339C1892.45 383.417 1673.09 816.194 1295.21 773.818C1074.12 749.024 987.686 434.311 750.552 419.339C431.565 398.27 213.53 889.89 12.0073 958.223" stroke="#181714" stroke-width="0.25" stroke-miterlimit="10"/>
<path d="M2247.36 625.573C1895.65 381.424 1674.41 814.628 1295.55 771.517C1075.04 746.414 987.757 431.226 749.983 416.255C431.85 395.375 214.479 884.67 12.1738 953.122" stroke="#191814" stroke-width="0.25" stroke-miterlimit="10"/>
<path d="M2245.93 626.83C1898.88 379.407 1675.72 813.086 1295.9 769.192C1075.99 743.851 987.828 428.142 749.484 413.194C432.206 392.433 215.428 879.593 12.3159 947.997" stroke="#1A1915" stroke-width="0.25" stroke-miterlimit="10"/>
<path d="M2244.53 628.064C1902.11 377.414 1677.14 811.52 1296.26 766.937C1076.89 741.265 987.923 425.057 748.867 410.133C432.562 389.491 216.377 874.42 12.4819 942.896" stroke="#1A1A15" stroke-width="0.25" stroke-miterlimit="10"/>
<path d="M2243.11 629.298C1905.31 375.421 1678.45 809.978 1296.59 764.66C1077.84 738.702 987.994 421.997 748.298 407.049C432.918 386.549 217.326 869.271 12.6479 937.771" stroke="#1B1A16" stroke-width="0.25" stroke-miterlimit="10"/>
<path d="M2241.8 630.532C1908.63 373.404 1679.78 808.483 1297.04 762.382C1078.77 736.116 988.161 418.912 747.847 404.106C433.274 383.606 218.275 864.099 12.8145 932.669" stroke="#1C1B17" stroke-width="0.25" stroke-miterlimit="10"/>
<path d="M2240.29 631.789C1911.76 371.411 1681.01 806.869 1297.28 760.08C1079.69 733.554 988.137 415.827 747.112 400.927C433.558 380.664 219.153 858.855 12.8853 927.663" stroke="#1D1C17" stroke-width="0.25" stroke-miterlimit="10"/>
<path d="M2238.86 633.023C1914.96 369.394 1682.34 805.327 1297.54 757.802C1080.52 730.991 988.136 412.767 746.518 397.866C433.937 377.722 220.173 853.825 13.1221 922.419" stroke="#1D1D18" stroke-width="0.25" stroke-miterlimit="10"/>
<path d="M2237.46 634.257C1918.19 367.401 1683.67 803.785 1297.94 755.501C1081.5 728.405 988.255 409.682 746.02 394.853C434.341 374.78 221.122 848.629 13.2886 917.318" stroke="#1E1D18" stroke-width="0.25" stroke-miterlimit="10"/>
<path d="M2236.04 635.538C1921.51 365.384 1684.97 802.267 1298.32 753.223C1082.42 725.842 988.374 406.598 745.522 391.745C434.697 371.838 222.071 843.48 13.4551 912.193" stroke="#1F1E19" stroke-width="0.25" stroke-miterlimit="10"/>
<path d="M2234.69 636.748C1924.67 363.391 1686.35 800.724 1298.72 750.945C1083.39 723.327 988.469 403.537 744.953 388.779C435.054 368.991 222.997 838.402 13.5977 907.187" stroke="#201F19" stroke-width="0.25" stroke-miterlimit="10"/>
<path d="M2233.22 637.911C1927.85 361.303 1687.53 799.253 1299.03 748.573C1084.32 720.646 988.54 400.381 744.383 385.552C435.409 365.954 223.969 833.159 13.7632 901.967" stroke="#20201A" stroke-width="0.25" stroke-miterlimit="10"/>
<path d="M2231.79 639.216C1931 359.381 1689.01 797.664 1299.37 746.366C1085.27 718.155 988.564 397.368 743.838 382.562C435.765 363.012 224.918 827.987 14.0005 896.842" stroke="#21201A" stroke-width="0.25" stroke-miterlimit="10"/>
<path d="M2230.39 640.473C1934.28 357.365 1690.26 796.145 1299.72 744.088C1086.19 715.616 988.682 394.307 743.268 379.502C436.121 360.069 225.867 822.838 14.0005 891.788" stroke="#22211B" stroke-width="0.25" stroke-miterlimit="10"/>
<path d="M2228.97 641.707C1937.5 355.371 1691.57 794.627 1300.05 741.787C1087.12 713.054 988.777 391.223 742.698 376.393C436.476 357.08 226.816 817.713 14.332 886.521" stroke="#23221C" stroke-width="0.25" stroke-miterlimit="10"/>
<path d="M2227.57 642.941C1940.71 353.473 1692.9 793.108 1300.41 739.509C1088.04 710.491 988.849 388.138 742.153 373.38C436.832 354.161 227.765 812.517 14.4038 881.491" stroke="#23221C" stroke-width="0.25" stroke-miterlimit="10"/>
<path d="M2226.15 644.199C1943.93 351.362 1694.22 791.59 1300.86 737.208C1089.06 707.953 989.015 385.078 741.679 370.319C437.188 351.219 228.714 807.368 14.5698 876.39" stroke="#24231D" stroke-width="0.25" stroke-miterlimit="10"/>
<path d="M2224.75 645.432C1947.16 349.369 1695.53 790.166 1301.1 734.93C1089.94 705.39 989.015 381.993 741.038 367.164C437.545 348.182 229.664 802.101 14.7363 871.169" stroke="#25241D" stroke-width="0.25" stroke-miterlimit="10"/>
<path d="M2223.32 646.666C1950.36 347.352 1696.86 788.576 1301.45 732.652C1090.82 702.851 989.109 378.909 740.468 364.174C437.9 345.335 230.636 797.047 14.8779 866.163" stroke="#26251E" stroke-width="0.25" stroke-miterlimit="10"/>
<path d="M2221.9 647.9C1953.59 345.359 1698.16 787.058 1301.81 730.445C1091.74 700.312 989.109 375.848 739.994 361.113C438.256 342.393 231.585 791.874 15.0444 860.943" stroke="#26251E" stroke-width="0.25" stroke-miterlimit="10"/>
<path d="M2220.45 649.157C1956.82 343.342 1699.49 785.563 1302.14 728.073C1092.67 697.75 989.228 372.763 739.354 358.053C438.683 339.451 232.534 786.726 15.2104 855.913" stroke="#27261F" stroke-width="0.25" stroke-miterlimit="10"/>
<path d="M2219.08 650.391C1960.02 341.325 1700.87 784.068 1302.5 725.7C1093.5 695.211 989.323 369.797 738.784 354.992C438.944 336.509 233.436 781.553 15.3765 850.883" stroke="#28271F" stroke-width="0.25" stroke-miterlimit="10"/>
<path d="M2217.68 651.625C1963.25 339.332 1702.13 782.644 1302.83 723.493C1094.52 692.649 989.394 366.618 738.167 351.931C439.228 333.566 234.36 776.404 15.4473 845.687" stroke="#292820" stroke-width="0.25" stroke-miterlimit="10"/>
<path d="M2216.25 652.882C1966.45 337.315 1703.43 781.007 1303.18 721.216C1095.45 690.11 989.466 363.533 737.622 348.87C439.608 330.624 235.334 771.208 15.6377 840.585" stroke="#292820" stroke-width="0.25" stroke-miterlimit="10"/>
<path d="M2214.83 654.116C1969.68 335.322 1704.74 779.608 1303.54 718.914C1096.37 687.595 989.56 360.449 737.1 345.809C440.012 327.682 236.33 766.036 15.8511 835.461" stroke="#2A2921" stroke-width="0.25" stroke-miterlimit="10"/>
<path d="M2213.33 655.35C1972.81 333.329 1705.97 778.113 1303.78 716.636C1097.3 685.056 989.631 357.388 736.554 342.749C440.367 324.716 237.279 760.934 16.0171 830.335" stroke="#2B2A22" stroke-width="0.25" stroke-miterlimit="10"/>
<path d="M2212.01 656.584C1976.1 331.313 1707.37 776.642 1304.23 714.359C1098.25 682.517 989.702 354.304 735.984 339.688C440.723 321.798 238.228 755.762 16.1592 825.353" stroke="#2C2A22" stroke-width="0.25" stroke-miterlimit="10"/>
<path d="M2210.61 657.841C1979.33 329.319 1708.67 775.147 1304.66 712.057C1099.12 679.979 989.797 351.219 735.439 336.58C441.055 318.856 239.177 750.613 16.373 820.109" stroke="#2C2B23" stroke-width="0.25" stroke-miterlimit="10"/>
<path d="M2209.18 659.075C1982.56 327.326 1710 773.676 1304.92 709.779C1100.05 677.463 989.869 348.158 734.869 333.566C441.435 315.914 240.126 745.441 16.4917 815.008" stroke="#2D2C23" stroke-width="0.25" stroke-miterlimit="10"/>
<path d="M2207.76 660.309C1985.76 325.309 1711.31 772.205 1305.27 707.502C1100.97 674.925 989.94 345.074 734.3 330.506C441.791 312.971 241.075 740.292 16.6572 809.788" stroke="#2E2D24" stroke-width="0.25" stroke-miterlimit="10"/>
<path d="M2206.36 661.638C1988.99 323.317 1712.73 770.781 1305.6 705.2C1101.9 672.41 990.058 341.99 733.825 327.445C442.147 310.03 242.024 735.191 16.7998 804.758" stroke="#2F2D24" stroke-width="0.25" stroke-miterlimit="10"/>
<path d="M2204.94 662.8C1992.21 321.3 1713.82 769.286 1305.96 702.922C1102.82 669.871 990.106 338.952 733.185 324.384C442.503 307.087 242.973 729.971 16.9663 799.657" stroke="#2F2E25" stroke-width="0.25" stroke-miterlimit="10"/>
<path d="M2203.54 664.01C1995.42 319.283 1715.25 767.791 1306.32 700.597C1103.75 667.379 990.177 335.82 732.639 321.276C442.858 304.145 243.922 724.822 17.1318 794.508" stroke="#302F25" stroke-width="0.25" stroke-miterlimit="10"/>
<path d="M2202.11 665.268C1998.64 317.29 1716.55 766.368 1306.65 698.343C1104.67 664.817 990.248 332.76 732.069 318.239C443.214 301.203 244.871 719.65 17.2979 789.431" stroke="#313026" stroke-width="0.25" stroke-miterlimit="10"/>
<path d="M2200.71 666.525C2001.87 315.226 1717.85 764.921 1307.03 696.065C1105.58 662.302 990.343 329.675 731.5 315.226C443.57 298.308 245.82 714.549 17.3691 784.353" stroke="#323027" stroke-width="0.25" stroke-miterlimit="10"/>
<path d="M2199.29 667.759C2005.07 313.28 1719.16 763.473 1307.36 693.859C1106.5 659.787 990.415 326.615 730.955 312.118C443.879 295.319 246.769 709.329 17.6069 779.181" stroke="#323127" stroke-width="0.25" stroke-miterlimit="10"/>
<path d="M2197.86 668.993C2008.3 311.287 1720.46 762.026 1307.69 691.486C1107.43 657.272 990.485 323.53 730.504 309.057C444.4 292.448 247.837 704.18 17.8911 774.103" stroke="#333228" stroke-width="0.25" stroke-miterlimit="10"/>
<path d="M2196.47 670.25C2011.53 309.27 1721.77 760.579 1308.05 689.232C1108.35 654.733 990.556 320.445 729.839 305.996C444.638 289.387 248.667 699.031 17.9385 768.954" stroke="#343328" stroke-width="0.25" stroke-miterlimit="10"/>
<path d="M2195.04 671.484C2014.73 307.277 1723.08 759.131 1308.38 686.907C1109.25 652.147 990.652 317.385 729.27 302.935C444.994 286.492 249.616 693.859 18.0811 763.853" stroke="#353329" stroke-width="0.25" stroke-miterlimit="10"/>
<path d="M2193.64 672.718C2017.96 305.284 1724.38 757.708 1308.69 684.582C1110.11 649.774 990.723 314.3 728.701 299.874C445.35 283.55 250.566 688.71 18.2476 758.728" stroke="#353429" stroke-width="0.25" stroke-miterlimit="10"/>
<path d="M2192.22 673.952C2021.16 303.362 1725.68 756.284 1309.09 682.327C1111.11 647.212 990.794 311.216 728.132 296.814C445.801 280.608 251.491 683.561 18.3901 753.603" stroke="#36352A" stroke-width="0.25" stroke-miterlimit="10"/>
<path d="M2190.79 675.209C2024.39 301.274 1726.99 754.861 1309.42 679.955C1112.03 644.697 990.888 308.108 727.585 293.872C446.061 277.666 252.463 678.389 18.5791 748.502" stroke="#37352A" stroke-width="0.25" stroke-miterlimit="10"/>
<path d="M2189.39 676.443C2027.61 299.186 1728.29 753.437 1309.78 677.772C1112.86 642.181 990.96 305.07 727.04 290.692C446.417 274.724 253.412 673.216 18.7456 743.377" stroke="#38362B" stroke-width="0.25" stroke-miterlimit="10"/>
<path d="M2187.97 677.677C2030.81 297.265 1729.58 752.013 1310.14 675.471C1113.88 639.667 991.054 301.986 726.494 287.631C446.797 271.782 254.361 668.068 18.9111 738.275" stroke="#38372C" stroke-width="0.25" stroke-miterlimit="10"/>
<path d="M2186.57 678.934C2034.04 295.248 1730.88 750.589 1310.47 673.193C1114.85 637.151 991.102 298.925 725.925 284.571C447.129 268.84 255.31 662.919 19.0537 733.15" stroke="#39382C" stroke-width="0.25" stroke-miterlimit="10"/>
<path d="M2185.15 680.168C2037.27 293.254 1732.18 749.19 1310.82 670.915C1115.68 634.66 991.197 295.841 725.355 281.51C447.485 265.874 256.259 657.746 19.2197 728.073" stroke="#3A382D" stroke-width="0.25" stroke-miterlimit="10"/>
<path d="M2183.72 681.402C2040.47 291.238 1733.49 747.837 1311.16 668.613C1116.61 632.145 991.268 292.756 724.786 278.449C447.817 263.027 257.208 652.598 19.3623 722.924" stroke="#3B392D" stroke-width="0.25" stroke-miterlimit="10"/>
<path d="M2182.32 682.636C2043.7 289.245 1734.77 746.366 1311.61 666.336C1117.53 629.654 991.34 289.696 724.24 275.364C448.173 259.989 258.157 647.402 19.5283 717.799" stroke="#3B3A2E" stroke-width="0.25" stroke-miterlimit="10"/>
<path d="M2180.9 683.893C2046.92 287.228 1736.08 744.966 1311.77 664.01C1118.44 627.139 991.482 286.611 723.671 272.304C448.458 257.047 259.106 642.277 19.6943 712.674" stroke="#3C3B2E" stroke-width="0.25" stroke-miterlimit="10"/>
<path d="M2179.5 685.127C2050.13 285.235 1737.36 743.59 1312.2 661.756C1119.36 624.647 991.482 283.526 723.125 269.243C448.885 254.105 260.055 637.009 19.8604 707.573" stroke="#3D3B2F" stroke-width="0.25" stroke-miterlimit="10"/>
<path d="M2178.08 686.361C2053.35 283.242 1738.66 742.309 1312.56 659.478C1120.26 622.132 991.482 280.466 722.556 266.182C449.241 251.163 261.004 631.955 20.0029 702.448" stroke="#3E3C2F" stroke-width="0.25" stroke-miterlimit="10"/>
<path d="M2176.65 687.737C2056.58 281.344 1739.94 740.909 1312.89 657.296C1121.19 619.641 991.648 277.381 721.987 263.027C449.597 248.221 261.953 626.807 20.1689 697.347" stroke="#3E3D30" stroke-width="0.25" stroke-miterlimit="10"/>
<path d="M2175.37 688.852C2059.78 279.232 1741.2 739.414 1313.24 654.899C1122.09 617.15 991.743 274.297 721.441 260.061C449.952 245.279 262.902 621.634 20.335 692.222" stroke="#3F3E31" stroke-width="0.25" stroke-miterlimit="10"/>
<path d="M2173.83 690.11C2063.01 277.263 1742.53 738.038 1313.6 652.621C1123.01 614.659 991.814 271.236 720.871 257C450.308 242.337 263.851 616.557 20.501 687.097" stroke="#403E31" stroke-width="0.25" stroke-miterlimit="10"/>
<path d="M2172.43 691.32C2066.24 275.222 1743.81 736.662 1313.93 650.32C1123.92 612.167 991.885 268.151 720.326 253.939C450.664 239.3 264.8 611.313 20.6436 681.995" stroke="#413F32" stroke-width="0.25" stroke-miterlimit="10"/>
<path d="M2171.01 692.483C2069.44 273.111 1745.11 735.191 1314.29 647.947C1124.84 609.676 991.98 265.067 719.756 250.878C451.02 236.453 265.749 606.164 20.8091 676.87" stroke="#414032" stroke-width="0.25" stroke-miterlimit="10"/>
<path d="M2169.61 693.811C2072.67 271.212 1746.4 733.933 1314.64 645.741C1125.74 607.184 991.98 262.006 719.139 247.818C451.328 233.581 266.651 600.992 20.9282 671.769" stroke="#424033" stroke-width="0.25" stroke-miterlimit="10"/>
<path d="M2168.26 695.045C2075.94 269.196 1747.75 732.557 1315.05 643.463C1126.72 604.693 992.123 258.922 718.641 244.757C451.732 230.521 267.648 595.914 21.1182 666.644" stroke="#434133" stroke-width="0.25" stroke-miterlimit="10"/>
<path d="M2166.76 696.279C2078.98 267.203 1748.96 731.205 1315.33 641.185C1127.57 602.321 992.194 255.909 718.072 241.672C452.088 227.626 268.62 590.694 21.2842 661.638" stroke="#444234" stroke-width="0.25" stroke-miterlimit="10"/>
<path d="M2165.36 697.536C2082.32 265.186 1750.17 729.852 1315.66 638.884C1128.47 599.711 992.288 252.777 717.526 238.635C452.443 224.684 269.569 585.522 21.4497 656.418" stroke="#444334" stroke-width="0.25" stroke-miterlimit="10"/>
<path d="M2163.94 698.77C2085.64 263.193 1751.52 728.5 1316.02 636.606C1129.4 597.219 992.36 249.692 716.957 235.622C452.918 221.742 270.518 580.373 21.6162 651.293" stroke="#454335" stroke-width="0.25" stroke-miterlimit="10"/>
<path d="M2162.54 700.004C2088.75 261.2 1752.8 727.171 1316.38 634.328C1130.3 594.728 992.431 246.608 716.387 232.49C453.155 218.8 271.467 575.201 21.7822 646.191" stroke="#464436" stroke-width="0.25" stroke-miterlimit="10"/>
<path d="M2161.14 701.262C2092 259.183 1754.11 725.819 1316.73 632.027C1131.2 592.26 992.526 243.547 715.842 229.429C453.511 215.858 272.416 570.052 21.9248 641.067" stroke="#474536" stroke-width="0.25" stroke-miterlimit="10"/>
<path d="M2159.69 702.495C2095.18 257.19 1755.44 724.49 1317.06 629.749C1132.01 589.769 992.597 240.462 715.272 226.392C453.867 212.915 273.365 564.88 22.0903 635.941" stroke="#474637" stroke-width="0.25" stroke-miterlimit="10"/>
<path d="M2158.29 703.729C2098.41 255.292 1756.62 723.161 1317.42 627.447C1133.03 587.278 992.668 237.378 714.798 223.308C454.223 209.973 274.314 559.731 22.2568 630.793" stroke="#484637" stroke-width="0.25" stroke-miterlimit="10"/>
<path d="M2156.87 704.963C2101.64 253.18 1757.81 722.544 1317.75 625.169C1133.83 585.095 992.739 234.317 714.157 220.318C454.579 207.031 275.263 554.582 22.4229 625.715" stroke="#494738" stroke-width="0.25" stroke-miterlimit="10"/>
<path d="M2155.47 706.22C2104.84 251.163 1759.04 720.955 1318.11 622.892C1134.78 582.556 992.834 231.233 713.588 217.163C454.982 204.065 276.212 549.338 22.5649 620.519" stroke="#4A4838" stroke-width="0.25" stroke-miterlimit="10"/>
<path d="M2154.02 707.454C2108.04 249.17 1760.32 719.555 1318.42 620.59C1135.73 579.994 992.881 228.148 713.018 214.126C455.29 201.147 277.161 544.261 22.731 615.489" stroke="#4A4939" stroke-width="0.25" stroke-miterlimit="10"/>
<path d="M2152.62 708.688C2111.32 247.153 1761.68 718.06 1318.89 618.312C1136.63 577.431 992.977 225.064 712.473 211.065C455.647 198.205 278.11 539.088 22.8975 610.364" stroke="#4B4939" stroke-width="0.25" stroke-miterlimit="10"/>
<path d="M2151.22 709.945C2114.49 245.16 1762.98 716.565 1319.15 616.035C1137.56 574.892 993.071 222.003 711.927 207.933C456.002 195.263 279.059 533.94 23.063 605.263" stroke="#4C4A3A" stroke-width="0.25" stroke-miterlimit="10"/>
<path d="M-112.669 585.854C1.2124 639.24 38.129 490.116 382.573 534.414C620.774 565.046 659.328 868.417 874.398 898.693C1220.17 947.38 1531.42 368.777 1922.87 311.833" stroke="#181100" stroke-width="0.25" stroke-miterlimit="10"/>
<path d="M-112.812 584.739C-4.07857 639.311 33.0278 499.322 378.586 539.041C618.212 566.161 658.331 873.898 875.963 903.723C1221.4 951.58 1532.18 372.55 1924.12 319.497" stroke="#191202" stroke-width="0.25" stroke-miterlimit="10"/>
<path d="M-112.93 583.624C-9.39256 639.24 27.9273 508.623 374.601 543.691C615.721 567.252 657.406 879.379 877.577 908.777C1222.61 955.851 1532.96 376.299 1925.38 327.089" stroke="#1B1403" stroke-width="0.25" stroke-miterlimit="10"/>
<path d="M-113.072 582.509C-14.6835 639.239 22.755 518.731 370.615 548.318C613.159 568.961 656.552 884.409 879.119 913.712C1223.92 959.22 1533.72 379.976 1926.64 334.777" stroke="#1C1505" stroke-width="0.25" stroke-miterlimit="10"/>
<path d="M-113.214 581.394C-19.9977 639.24 17.6543 528.245 366.629 552.921C610.644 570.194 655.651 889.7 880.709 918.789C1225.18 963.325 1534.48 383.844 1927.9 342.535" stroke="#1D1706" stroke-width="0.25" stroke-miterlimit="10"/>
<path d="M-113.357 580.278C-25.3124 639.239 12.5532 537.736 362.643 557.595C608.129 571.476 654.773 895.086 882.346 923.867C1226.36 967.358 1535.34 387.64 1929.22 350.199" stroke="#1F1808" stroke-width="0.25" stroke-miterlimit="10"/>
<path d="M-113.5 579.163C-30.6034 639.239 7.49942 547.227 358.634 562.246C605.59 572.78 653.847 900.448 883.84 928.897C1227.64 971.392 1536.02 391.389 1930.41 357.934" stroke="#201A09" stroke-width="0.25" stroke-miterlimit="10"/>
<path d="M-113.642 578.048C-35.9176 639.239 2.37502 556.694 354.672 566.873C603.099 573.991 652.97 905.811 885.454 933.927C1228.88 975.449 1536.78 395.138 1931.74 365.574" stroke="#221B0B" stroke-width="0.25" stroke-miterlimit="10"/>
<path d="M-113.784 576.933C-41.2086 639.24 -2.60749 566.161 350.662 571.476C600.608 575.248 651.973 911.125 887.019 938.91C1230.11 979.577 1537.57 398.91 1932.92 373.238" stroke="#231D0C" stroke-width="0.25" stroke-miterlimit="10"/>
<path d="M-113.926 575.818C-46.5227 639.24 -7.75564 579.922 346.676 576.15C598.164 573.469 651.167 916.535 888.609 943.916C1231.34 983.587 1538.33 402.683 1934.16 380.925" stroke="#241E0E" stroke-width="0.25" stroke-miterlimit="10"/>
<path d="M-114.116 574.702C-51.8606 639.24 -12.88 585.024 342.643 580.777C595.555 577.763 650.218 921.921 890.128 949.017C1232.53 987.692 1539.04 406.455 1935.37 388.589" stroke="#26200F" stroke-width="0.25" stroke-miterlimit="10"/>
<path d="M-114.116 573.587C-57.0564 639.239 -17.8148 594.443 338.776 585.451C593.111 578.997 649.34 927.378 891.836 954.047C1233.81 991.773 1539.87 410.133 1936.67 396.277" stroke="#272111" stroke-width="0.25" stroke-miterlimit="10"/>
<path d="M-114.33 572.472C-62.4187 639.239 -22.9635 603.839 334.719 590.054C590.525 580.207 648.438 932.693 893.331 959.077C1234.97 995.901 1540.63 414.001 1937.93 403.869" stroke="#282312" stroke-width="0.25" stroke-miterlimit="10"/>
<path d="M-114.472 571.476C-67.7329 639.358 -28.0168 613.354 330.733 594.823C588.153 581.394 647.466 938.079 894.92 964.108C1236.26 1000.01 1541.39 417.749 1939.19 411.628" stroke="#2A2414" stroke-width="0.25" stroke-miterlimit="10"/>
<path d="M-114.614 570.242C-73.0238 639.239 -33.0705 622.607 326.676 599.331C585.566 582.603 646.564 943.37 896.415 969.137C1237.39 1004.16 1542.1 421.522 1940.33 419.292" stroke="#2B2615" stroke-width="0.25" stroke-miterlimit="10"/>
<path d="M-114.756 569.103C-78.338 639.24 -38.1237 631.955 322.738 603.981C583.17 583.79 645.71 948.875 898.076 974.12C1238.7 1008.29 1542.93 425.295 1941.7 426.979" stroke="#2D2717" stroke-width="0.25" stroke-miterlimit="10"/>
<path d="M-114.899 567.988C-83.629 639.168 -43.1774 641.304 318.752 608.608C580.679 584.881 644.808 954.284 899.665 979.198C1239.91 1012.44 1543.69 429.114 1942.87 434.643" stroke="#2E2918" stroke-width="0.25" stroke-miterlimit="10"/>
<path d="M-115.042 566.873C-88.9437 639.239 -48.2311 650.652 314.766 613.259C578.187 586.115 643.906 959.718 901.326 984.323C1241.21 1016.71 1544.57 432.935 1944.31 442.425" stroke="#2F2A1A" stroke-width="0.25" stroke-miterlimit="10"/>
<path d="M-115.184 565.757C-94.2342 639.311 -53.2843 659.953 310.78 617.956C575.697 587.349 642.934 965.199 902.821 989.329C1242.35 1020.79 1545.23 436.588 1945.48 449.994" stroke="#312B1C" stroke-width="0.25" stroke-miterlimit="10"/>
<path d="M-115.302 564.642C-99.5487 639.24 -58.3616 669.278 306.794 622.536C573.229 588.417 642.08 970.561 904.387 994.288C1243.66 1024.97 1546.01 440.361 1946.73 457.682" stroke="#322D1D" stroke-width="0.25" stroke-miterlimit="10"/>
<path d="M-115.444 563.527C-104.839 639.24 -63.3911 678.555 302.809 627.163C570.738 589.556 641.155 975.947 905.976 999.318C1244.77 1029.14 1546.77 444.11 1947.99 465.464" stroke="#332E1F" stroke-width="0.25" stroke-miterlimit="10"/>
<path d="M-115.587 562.412C-110.154 639.239 -68.4448 687.832 298.823 631.789C568.247 590.694 640.348 981.452 907.542 1004.35C1245.98 1033.34 1547.53 447.906 1949.25 473.033" stroke="#353020" stroke-width="0.25" stroke-miterlimit="10"/>
<path d="M-115.729 561.297C-115.445 639.24 -73.4985 697.109 294.836 636.44C565.755 591.81 639.327 986.909 909.131 1009.38C1247.19 1037.57 1548.31 451.797 1950.5 480.697" stroke="#363122" stroke-width="0.25" stroke-miterlimit="10"/>
<path d="M-115.872 560.182C-120.759 639.239 -78.528 706.363 290.827 641.066C563.265 592.83 638.402 992.366 910.816 1014.41C1248.43 1041.77 1549.03 455.451 1951.76 488.432" stroke="#383323" stroke-width="0.25" stroke-miterlimit="10"/>
<path d="M-116.014 559.067C-126.05 639.24 -83.6294 715.664 286.841 645.717C560.773 594.016 637.5 997.823 912.287 1019.44C1249.64 1046.01 1549.83 459.2 1953.02 496.048" stroke="#393425" stroke-width="0.25" stroke-miterlimit="10"/>
<path d="M-116.157 557.951C-131.365 639.24 -88.6828 724.846 282.855 650.344C558.282 595.203 636.575 1003.3 913.876 1024.47C1250.78 1050.21 1550.62 462.973 1954.25 503.736" stroke="#3A3626" stroke-width="0.25" stroke-miterlimit="10"/>
<path d="M-116.299 556.836C-136.655 639.24 -93.7599 734.076 278.869 654.994C555.791 596.199 635.603 1008.76 915.561 1029.4C1252.18 1054.36 1551.4 466.65 1955.63 511.304" stroke="#3C3728" stroke-width="0.25" stroke-miterlimit="10"/>
<path d="M-116.489 555.721C-142.017 639.239 -98.8607 743.305 274.836 659.621C553.252 597.29 634.701 1014.24 916.985 1034.5C1253.22 1058.68 1552.09 470.494 1956.72 519.063" stroke="#3D3929" stroke-width="0.25" stroke-miterlimit="10"/>
<path d="M-116.489 554.606C-147.332 639.239 -103.891 752.511 270.898 664.271C550.856 598.358 633.894 1019.75 918.598 1039.56C1254.48 1062.95 1552.92 474.195 1958.03 526.75" stroke="#3E3A2B" stroke-width="0.25" stroke-miterlimit="10"/>
<path d="M-116.702 553.491C-152.575 639.24 -108.968 761.694 266.912 668.898C548.294 599.426 632.922 1025.23 920.306 1044.59C1255.81 1067.22 1553.77 478.039 1959.47 534.462" stroke="#403C2C" stroke-width="0.25" stroke-miterlimit="10"/>
<path d="M-116.844 552.494C-157.865 639.239 -114.116 770.9 262.903 673.501C545.803 600.446 631.997 1030.71 921.754 1049.6C1256.9 1071.47 1554.44 481.788 1960.54 542.078" stroke="#413D2E" stroke-width="0.25" stroke-miterlimit="10"/>
<path d="M-116.987 551.26C-163.181 639.24 -119.146 780.082 258.916 678.175C543.287 601.538 631.071 1036.24 923.224 1054.65C1257.99 1075.77 1555.1 485.584 1961.68 549.789" stroke="#433F2F" stroke-width="0.25" stroke-miterlimit="10"/>
<path d="M-117.129 550.122C-168.494 639.216 -124.247 789.217 254.931 682.778C540.702 602.582 630.146 1041.77 924.909 1059.7C1259.44 1080.04 1556 489.357 1963.06 557.453" stroke="#444031" stroke-width="0.25" stroke-miterlimit="10"/>
<path d="M-117.272 549.006C-173.785 639.168 -129.324 798.399 250.945 687.453C538.258 603.602 629.244 1047.27 926.498 1064.71C1260.53 1084.33 1556.74 493.177 1964.22 565.141" stroke="#454232" stroke-width="0.25" stroke-miterlimit="10"/>
<path d="M-117.414 547.891C-179.099 639.239 -134.425 807.558 246.959 692.079C535.743 604.693 628.319 1052.8 928.088 1069.74C1261.74 1088.72 1557.52 496.902 1965.57 572.804" stroke="#474334" stroke-width="0.25" stroke-miterlimit="10"/>
<path d="M-117.556 546.776C-184.391 639.311 -139.526 816.716 243.068 696.73C533.299 605.666 627.417 1058.35 929.749 1074.79C1263.04 1092.92 1558.47 500.603 1966.92 580.492" stroke="#484436" stroke-width="0.25" stroke-miterlimit="10"/>
<path d="M-117.675 545.661C-189.705 639.239 -144.627 825.851 238.987 701.356C530.808 606.686 626.492 1063.88 931.243 1079.82C1264.16 1097.21 1559.04 504.423 1968.04 588.155" stroke="#494637" stroke-width="0.25" stroke-miterlimit="10"/>
<path d="M-117.817 544.545C-194.996 639.239 -149.752 834.986 235.001 705.888C528.151 607.588 625.567 1069.31 932.809 1084.73C1265.34 1101.34 1559.82 508.172 1969.34 595.724" stroke="#4B4739" stroke-width="0.25" stroke-miterlimit="10"/>
<path d="M-117.96 543.43C-200.31 639.239 -154.853 844.121 230.992 710.633C525.612 608.727 624.641 1074.98 934.399 1089.88C1266.55 1105.85 1560.58 511.969 1970.6 603.483" stroke="#4C493A" stroke-width="0.25" stroke-miterlimit="10"/>
<path d="M-118.102 542.315C-205.601 639.24 -159.977 853.137 227.006 715.284C523.074 609.723 623.716 1080.68 935.965 1094.91C1267.76 1110.08 1561.36 515.741 1971.86 611.194" stroke="#4E4A3C" stroke-width="0.25" stroke-miterlimit="10"/>
<path d="M-118.245 541.2C-210.916 639.24 -165.126 862.367 223.02 719.911C520.535 610.767 622.814 1086.11 937.554 1099.94C1269.07 1114.49 1562.12 519.49 1973.11 618.929" stroke="#4F4C3D" stroke-width="0.25" stroke-miterlimit="10"/>
<path d="M-118.387 540.085C-216.135 639.239 -170.25 871.478 219.034 724.538C517.973 611.716 621.889 1091.69 939.12 1104.97C1270.18 1118.83 1562.88 523.263 1974.35 626.546" stroke="#504D3F" stroke-width="0.25" stroke-miterlimit="10"/>
<path d="M-118.529 538.97C-221.521 639.24 -175.47 880.637 215.048 729.188C515.434 612.713 620.964 1097.29 940.71 1110.08C1271.44 1123.15 1563.66 527.035 1975.61 634.21" stroke="#524F40" stroke-width="0.25" stroke-miterlimit="10"/>
<path d="M-118.671 537.855C-226.811 639.24 -180.523 889.676 211.11 733.815C512.896 613.686 620.039 1102.96 942.3 1115.03C1272.6 1127.49 1564.42 530.808 1976.86 641.897" stroke="#535042" stroke-width="0.25" stroke-miterlimit="10"/>
<path d="M-118.861 536.74C-232.173 639.239 -185.719 898.764 207.029 738.418C510.333 614.682 619.137 1108.46 943.865 1120.06C1273.84 1131.93 1565.18 534.58 1978.12 649.561" stroke="#545243" stroke-width="0.25" stroke-miterlimit="10"/>
<path d="M-118.861 535.625C-237.487 639.24 -190.843 907.851 203.067 743.092C507.771 615.655 618.26 1114.06 945.455 1125.09C1275.05 1136.17 1565.97 538.258 1979.38 657.248" stroke="#565345" stroke-width="0.25" stroke-miterlimit="10"/>
<path d="M-119.075 534.509C-242.731 639.24 -195.992 916.939 199.058 747.742C505.114 616.557 617.287 1119.68 947.021 1130.12C1276.19 1140.54 1566.73 542.102 1980.64 664.936" stroke="#575546" stroke-width="0.25" stroke-miterlimit="10"/>
<path d="M-119.217 533.513C-248.021 639.358 -201.496 925.409 195.096 752.488C502.386 617.245 616.362 1126.04 948.611 1135.27C1277.44 1145.64 1567.48 545.993 1981.89 672.718" stroke="#595648" stroke-width="0.25" stroke-miterlimit="10"/>
<path d="M-119.36 532.279C-253.336 639.239 -206.645 934.496 191.109 757.02C499.87 618.123 615.436 1131.43 950.176 1140.18C1278.56 1149.75 1568.27 549.647 1983.2 680.287" stroke="#5A5849" stroke-width="0.25" stroke-miterlimit="10"/>
<path d="M-119.502 531.14C-258.627 639.24 -211.675 943.821 187.195 761.646C497.403 619.285 614.606 1136.89 951.837 1145.21C1279.96 1153.97 1569.1 553.42 1984.48 687.951" stroke="#5B594B" stroke-width="0.25" stroke-miterlimit="10"/>
<path d="M-119.644 530.049C-263.941 639.192 -216.775 953.075 183.138 766.273C494.817 620.353 613.634 1142.37 953.332 1150.24C1281.1 1158.17 1569.79 557.24 1985.57 695.638" stroke="#5D5B4C" stroke-width="0.25" stroke-miterlimit="10"/>
<path d="M-119.787 528.91C-269.256 639.24 -221.805 962.328 179.152 770.924C492.326 621.444 612.708 1147.85 954.969 1155.3C1282.38 1162.42 1570.62 560.965 1987.02 703.326" stroke="#5E5C4E" stroke-width="0.25" stroke-miterlimit="10"/>
<path d="M2170.63 505.04C1719.85 177.61 1568.41 430.23 1221.81 407.926C982.181 392.48 933.663 283.313 717.123 264.616C369.096 234.554 113.646 561.985 22.5649 1005.8" stroke="#181100" stroke-width="0.25" stroke-miterlimit="10"/>
<path d="M2167.99 512.158C1721.6 181.24 1566.08 425.769 1219.24 405.388C980.877 391.389 931.314 285.258 715.177 266.585C367.958 236.618 112.887 557.643 20.145 998.559" stroke="#1A1301" stroke-width="0.25" stroke-miterlimit="10"/>
<path d="M2165.36 519.277C1723.38 184.728 1563.78 421.237 1216.47 402.801C979.406 390.203 928.776 287.133 713.018 268.531C366.819 238.707 112.128 553.301 17.7017 991.156" stroke="#1C1503" stroke-width="0.25" stroke-miterlimit="10"/>
<path d="M2162.75 526.395C1725.14 188.406 1561.51 416.729 1213.74 400.239C977.983 389.064 926.285 289.031 710.931 270.477C365.68 240.795 111.274 548.959 15.2817 983.825" stroke="#1E1704" stroke-width="0.25" stroke-miterlimit="10"/>
<path d="M2160.12 533.513C1726.97 192.083 1559.23 412.316 1211.11 397.771C976.653 387.972 923.888 291 708.913 272.541C364.565 242.882 110.609 544.617 12.8374 976.493" stroke="#1F1806" stroke-width="0.25" stroke-miterlimit="10"/>
<path d="M2157.48 540.749C1728.67 195.713 1556.95 407.879 1208.47 395.233C975.349 386.81 921.398 292.97 706.921 274.51C363.426 244.97 109.851 540.275 10.418 969.161" stroke="#211A07" stroke-width="0.25" stroke-miterlimit="10"/>
<path d="M2154.85 547.891C1730.43 199.32 1554.6 403.3 1205.84 392.694C974.044 385.576 919.072 294.915 704.928 276.432C362.288 247.058 109.091 535.885 7.97412 961.83" stroke="#231C09" stroke-width="0.25" stroke-miterlimit="10"/>
<path d="M2152.22 555.033C1732.28 202.95 1552.44 398.792 1203.06 390.155C972.597 384.461 916.534 296.837 702.769 278.496C361.149 249.146 108.332 531.567 5.5542 954.498" stroke="#251E0A" stroke-width="0.25" stroke-miterlimit="10"/>
<path d="M2149.58 562.175C1734.08 206.557 1550.21 394.26 1200.41 387.616C971.268 383.274 914.09 298.759 700.728 280.466C360.01 251.234 107.596 527.225 3.20508 947.19" stroke="#27200C" stroke-width="0.25" stroke-miterlimit="10"/>
<path d="M2146.9 569.316C1735.65 210.187 1547.91 389.752 1197.65 385.077C969.892 382.064 911.551 300.705 698.593 282.459C358.895 253.322 106.79 522.883 0.69043 939.835" stroke="#29220D" stroke-width="0.25" stroke-miterlimit="10"/>
<path d="M2144.34 576.458C1737.48 213.793 1545.78 385.196 1195.04 382.539C968.587 380.83 909.179 302.627 696.624 284.428C357.756 255.41 106.031 518.541 -1.75342 932.503" stroke="#2B240E" stroke-width="0.25" stroke-miterlimit="10"/>
<path d="M2141.71 583.6C1739.26 217.424 1543.57 380.641 1192.36 380.024C967.258 379.597 906.735 304.549 694.584 286.421C356.617 257.498 105.271 514.199 -4.17334 925.195" stroke="#2C2510" stroke-width="0.25" stroke-miterlimit="10"/>
<path d="M2139.07 590.742C1741.01 221.03 1541.39 376.085 1189.68 377.485C965.93 378.363 904.292 306.494 692.52 288.391C355.479 259.586 104.513 509.786 -6.6167 917.887" stroke="#2E2711" stroke-width="0.25" stroke-miterlimit="10"/>
<path d="M2136.44 597.907C1742.77 224.66 1539.2 371.529 1187 374.875C964.601 377.01 901.824 308.44 690.479 290.312C354.34 261.674 103.753 505.515 -9.03662 910.532" stroke="#302913" stroke-width="0.25" stroke-miterlimit="10"/>
<path d="M2133.83 605.049C1744.55 228.29 1537.02 366.95 1184.32 372.407C963.296 375.824 899.381 310.362 688.463 292.377C353.272 263.762 103.041 501.173 -11.4331 903.201" stroke="#322B14" stroke-width="0.25" stroke-miterlimit="10"/>
<path d="M2131.2 612.191C1746.3 231.897 1534.79 362.371 1181.66 369.798C961.992 374.543 896.961 312.212 686.375 294.275C352.086 265.803 102.235 496.76 -13.9004 895.798" stroke="#342D16" stroke-width="0.25" stroke-miterlimit="10"/>
<path d="M2128.56 619.333C1748.06 235.527 1532.7 357.768 1178.91 367.425C960.639 373.333 894.422 314.3 684.263 296.434C350.899 267.914 101.476 492.465 -16.3442 888.538" stroke="#362F17" stroke-width="0.25" stroke-miterlimit="10"/>
<path d="M2125.93 626.474C1749.84 239.134 1530.57 353.189 1176.3 364.791C959.358 371.909 892.026 316.151 682.271 298.356C349.808 270.05 100.716 488.171 -18.7642 881.253" stroke="#373019" stroke-width="0.25" stroke-miterlimit="10"/>
<path d="M2123.3 633.616C1751.59 242.764 1528.43 348.443 1173.62 362.252C958.077 370.58 889.582 318.073 680.135 300.302C348.669 272.09 99.9572 483.686 -21.1841 873.874" stroke="#39321A" stroke-width="0.25" stroke-miterlimit="10"/>
<path d="M2120.66 640.758C1753.35 246.418 1526.3 343.911 1170.94 359.713C956.772 369.204 887.138 320.018 678.166 302.271C347.53 274.178 99.269 479.439 -23.6279 866.543" stroke="#3B341B" stroke-width="0.25" stroke-miterlimit="10"/>
<path d="M2118.05 647.9C1755.06 250 1524.19 339.261 1168.26 357.175C955.467 367.899 884.695 321.94 676.126 304.264C346.344 276.266 98.4389 475.097 -26.1426 859.235" stroke="#3D361D" stroke-width="0.25" stroke-miterlimit="10"/>
<path d="M2115.42 655.042C1756.88 253.536 1522.07 334.611 1165.58 354.636C954.185 366.499 882.25 323.791 674.085 306.233C345.276 278.354 97.6789 470.755 -28.4922 851.951" stroke="#3F381E" stroke-width="0.25" stroke-miterlimit="10"/>
<path d="M2112.79 662.183C1758.64 257.237 1519.96 330.007 1162.9 352.097C952.905 365.147 879.783 325.808 672.021 308.226C344.138 280.442 96.8965 466.413 -30.9116 844.572" stroke="#413A20" stroke-width="0.25" stroke-miterlimit="10"/>
<path d="M2110.15 669.325C1760.42 260.844 1517.88 325.286 1160.24 349.558C951.624 363.794 877.34 327.73 669.981 310.219C342.999 282.53 96.1378 462.071 -33.4497 837.216" stroke="#433C21" stroke-width="0.25" stroke-miterlimit="10"/>
<path d="M2107.52 676.467C1762.17 264.474 1515.81 320.564 1157.56 347.02C950.343 362.347 874.896 329.675 667.917 312.189C341.86 284.618 95.3785 457.729 -35.8223 829.908" stroke="#443D23" stroke-width="0.25" stroke-miterlimit="10"/>
<path d="M2104.89 683.609C1763.93 268.08 1513.7 315.842 1154.88 344.504C949.061 360.923 872.547 331.597 665.876 314.182C340.745 286.753 94.6663 453.387 -38.1953 822.577" stroke="#463F24" stroke-width="0.25" stroke-miterlimit="10"/>
<path d="M2102.28 690.75C1765.71 271.711 1511.52 311.121 1152.2 341.966C947.781 359.476 869.985 333.519 663.836 316.151C339.607 288.794 93.8601 449.045 -40.5674 815.245" stroke="#484126" stroke-width="0.25" stroke-miterlimit="10"/>
<path d="M2099.64 697.892C1767.49 275.341 1509.55 306.399 1149.52 339.427C946.404 357.934 867.541 335.465 661.7 318.144C338.467 290.882 93.1001 444.679 -43.083 807.914" stroke="#4A4327" stroke-width="0.25" stroke-miterlimit="10"/>
<path d="M2097.08 705.034C1769.29 278.947 1507.58 301.678 1146.91 336.888C945.242 356.582 865.169 337.387 659.803 320.113C337.329 292.97 92.294 440.337 -45.5024 800.582" stroke="#4C4528" stroke-width="0.25" stroke-miterlimit="10"/>
<path d="M2094.37 712.176C1770.98 282.577 1505.44 296.956 1144.15 334.349C943.96 355.11 862.653 339.332 657.785 322.106C336.189 295.034 91.5816 435.995 -47.9468 793.25" stroke="#4E472A" stroke-width="0.25" stroke-miterlimit="10"/>
<path d="M2091.74 719.318C1772.76 286.184 1503.36 292.234 1141.5 331.811C942.679 353.616 860.186 341.302 655.627 324.1C335.075 297.122 90.8229 431.653 -50.3662 785.943" stroke="#50492B" stroke-width="0.25" stroke-miterlimit="10"/>
<path d="M2089.13 726.459C1774.42 289.814 1501.34 287.323 1138.82 329.272C941.421 352.121 857.742 343.176 653.586 326.069C333.935 299.21 90.0631 427.311 -52.8105 778.611" stroke="#514A2D" stroke-width="0.25" stroke-miterlimit="10"/>
<path d="M2086.5 733.601C1776.27 293.421 1499.2 282.506 1136.21 326.733C940.212 350.602 855.37 345.121 651.594 328.062C332.868 301.298 89.3045 422.969 -55.1587 771.279" stroke="#534C2E" stroke-width="0.25" stroke-miterlimit="10"/>
<path d="M2083.86 740.743C1778.05 297.051 1497.26 277.69 1133.45 324.194C938.907 349.06 852.855 347.043 649.458 330.031C331.658 303.362 88.5453 418.627 -57.6499 763.948" stroke="#554E30" stroke-width="0.25" stroke-miterlimit="10"/>
<path d="M2081.23 747.885C1779.8 300.657 1495.22 272.849 1130.77 321.656C937.626 347.542 850.388 348.989 647.466 332.024C330.52 305.474 87.7864 414.285 -60.0933 756.545" stroke="#575031" stroke-width="0.25" stroke-miterlimit="10"/>
<path d="M2078.6 755.026C1781.53 304.288 1493.2 267.986 1128.09 319.117C936.344 346.071 847.944 350.816 645.378 333.994C329.404 307.562 87.0268 409.92 -62.5137 749.213" stroke="#595233" stroke-width="0.25" stroke-miterlimit="10"/>
<path d="M2075.96 762.168C1783.34 307.894 1491.18 263.027 1125.41 316.578C935.087 344.41 845.453 352.833 643.337 335.987C328.265 309.65 86.2674 405.601 -64.9575 741.953" stroke="#5B5434" stroke-width="0.25" stroke-miterlimit="10"/>
<path d="M2073.35 769.31C1785.09 311.524 1489.17 258.281 1122.73 314.039C933.829 342.82 843.056 354.778 641.273 337.98C327.174 311.738 85.4845 401.235 -67.3774 734.621" stroke="#5D5635" stroke-width="0.25" stroke-miterlimit="10"/>
<path d="M2070.72 776.452C1786.85 315.226 1487.15 253.322 1120.07 311.524C932.644 341.23 840.613 356.605 639.233 339.996C326.059 313.897 84.7257 396.941 -69.8208 727.337" stroke="#5E5737" stroke-width="0.25" stroke-miterlimit="10"/>
<path d="M2068.09 783.617C1788.65 318.761 1485.11 248.387 1117.39 308.985C931.291 339.641 838.145 358.646 637.192 341.942C324.849 315.843 83.9659 392.551 -72.1938 719.982" stroke="#605938" stroke-width="0.25" stroke-miterlimit="10"/>
<path d="M2065.45 790.759C1790.38 322.344 1483.09 243.452 1114.71 306.447C930.034 338.027 835.702 360.568 635.128 343.911C323.734 318.002 83.2072 388.209 -74.6846 712.65" stroke="#625B3A" stroke-width="0.25" stroke-miterlimit="10"/>
<path d="M2062.82 797.901C1792.14 325.998 1481.1 238.469 1112.03 303.908C928.776 336.39 833.258 362.49 633.088 345.904C322.595 320.09 82.448 383.867 -77.1045 705.319" stroke="#645D3B" stroke-width="0.25" stroke-miterlimit="10"/>
<path d="M2060.21 805.043C1793.92 329.628 1479.08 233.487 1109.35 301.369C927.519 334.753 830.814 364.435 631.024 347.874C321.456 322.178 81.6887 379.525 -79.5483 697.987" stroke="#665F3D" stroke-width="0.25" stroke-miterlimit="10"/>
<path d="M2057.58 812.185C1795.77 333.234 1477.07 228.48 1106.67 298.83C926.237 333.092 828.347 366.357 628.983 349.867C320.318 324.242 80.9295 375.184 -81.9683 690.656" stroke="#68613E" stroke-width="0.25" stroke-miterlimit="10"/>
<path d="M2054.94 819.326C1797.43 336.864 1475.05 223.474 1103.99 296.244C925.052 331.431 825.904 368.302 626.944 351.836C319.179 326.33 80.1707 370.818 -84.4116 683.324" stroke="#696240" stroke-width="0.25" stroke-miterlimit="10"/>
<path d="M2052.31 826.468C1799.21 340.471 1473.11 218.42 1101.33 293.871C923.723 329.865 823.46 370.343 624.88 353.948C318.064 328.536 79.4116 366.618 -86.8789 676.111" stroke="#6B6441" stroke-width="0.25" stroke-miterlimit="10"/>
<path d="M2049.63 833.61C1800.96 344.101 1471.02 213.366 1098.65 291.214C922.441 328.062 821.063 372.146 622.838 355.822C316.924 330.506 78.6512 362.157 -89.2764 668.756" stroke="#6D6642" stroke-width="0.25" stroke-miterlimit="10"/>
<path d="M2047.04 840.752C1802.72 347.708 1469 208.265 1095.87 288.675C921.089 326.354 818.453 374.092 620.679 357.792C315.691 332.594 77.7973 357.792 -91.791 661.329" stroke="#6F6844" stroke-width="0.25" stroke-miterlimit="10"/>
<path d="M2044.43 847.893C1804.5 351.338 1466.98 203.164 1093.29 286.137C919.903 324.645 816.105 376.014 618.782 359.69C314.695 334.587 77.181 353.355 -94.0918 653.903" stroke="#716A45" stroke-width="0.25" stroke-miterlimit="10"/>
<path d="M2041.8 855.035C1806.26 354.944 1464.94 198.039 1090.61 283.598C918.646 322.913 813.661 377.959 616.623 361.754C313.509 336.77 76.3745 349.108 -96.5591 646.69" stroke="#736C47" stroke-width="0.25" stroke-miterlimit="10"/>
<path d="M2039.17 862.177C1808.01 358.575 1462.93 192.89 1087.93 281.059C917.364 321.181 811.17 379.881 614.629 363.747C312.393 338.953 75.686 344.766 -98.9795 639.358" stroke="#756E48" stroke-width="0.25" stroke-miterlimit="10"/>
<path d="M2036.53 869.319C1809.79 362.181 1460.89 187.717 1085.15 278.52C916.083 319.425 808.797 381.803 612.589 365.716C311.278 340.945 74.8318 340.423 -101.542 632.026" stroke="#766F4A" stroke-width="0.25" stroke-miterlimit="10"/>
<path d="M2033.9 876.46C1811.55 365.811 1458.87 182.521 1082.56 276.005C914.826 317.669 806.307 383.749 610.431 367.709C310.116 343.033 74.0731 336.081 -103.843 624.695" stroke="#78714B" stroke-width="0.25" stroke-miterlimit="10"/>
<path d="M2031.27 883.602C1813.3 369.441 1456.83 177.301 1079.88 273.466C913.521 315.914 803.839 385.671 608.461 369.702C308.977 345.121 73.3138 331.834 -106.287 617.363" stroke="#7A734D" stroke-width="0.25" stroke-miterlimit="10"/>
<path d="M2028.66 890.744C1815.13 373.048 1454.77 172.058 1077.27 270.928C912.31 314.11 801.466 387.616 606.492 371.672C307.838 347.209 72.5541 327.397 -108.707 610.032" stroke="#7C754E" stroke-width="0.25" stroke-miterlimit="10"/>
<path d="M2026.02 897.886C1816.84 376.678 1452.73 166.791 1074.52 268.389C910.935 312.331 798.951 389.538 604.357 373.665C306.723 349.297 71.7953 323.056 -111.15 602.7" stroke="#7E7750" stroke-width="0.25" stroke-miterlimit="10"/>
<path d="M2023.39 905.028C1818.59 380.285 1450.66 161.476 1071.86 265.85C909.677 310.48 796.508 391.46 602.388 375.634C305.584 351.385 70.9412 318.713 -113.57 595.369" stroke="#807951" stroke-width="0.25" stroke-miterlimit="10"/>
<path d="M2020.76 912.169C1820.37 384.033 1448.6 156.256 1069.18 263.311C908.443 308.724 794.064 393.524 600.276 377.627C304.445 353.473 70.2767 314.371 -116.014 588.084" stroke="#827B52" stroke-width="0.25" stroke-miterlimit="10"/>
<path d="M2018.12 919.311C1822.13 387.521 1446.53 150.822 1066.5 260.773C907.091 306.898 791.62 395.328 598.235 379.597C303.307 355.561 69.5176 310.006 -118.434 580.729" stroke="#837C54" stroke-width="0.25" stroke-miterlimit="10"/>
<path d="M2015.51 926.453C1823.88 391.152 1444.45 145.46 1063.82 258.281C905.811 305.118 789.177 397.321 596.196 381.661C302.168 357.626 68.7588 305.735 -120.877 573.398" stroke="#857E55" stroke-width="0.25" stroke-miterlimit="10"/>
<path d="M2012.88 933.595C1825.66 394.758 1442.26 140.074 1061.16 255.695C904.576 303.149 786.709 399.195 594.131 383.559C301.076 359.713 67.9991 301.322 -123.298 566.066" stroke="#878057" stroke-width="0.25" stroke-miterlimit="10"/>
<path d="M2010.25 940.737C1827.42 398.388 1440.27 134.641 1058.48 253.156C903.2 301.369 784.266 401.117 592.091 385.552C299.914 361.825 67.2402 296.98 -125.741 558.758" stroke="#898258" stroke-width="0.25" stroke-miterlimit="10"/>
<path d="M2007.61 947.878C1829.17 401.995 1438.21 129.302 1055.8 250.618C901.895 299.495 781.822 403.063 590.027 387.545C298.775 363.818 66.4811 292.638 -128.161 551.403" stroke="#8B845A" stroke-width="0.25" stroke-miterlimit="10"/>
<path d="M2004.98 955.02C1830.95 405.625 1436.02 123.726 1053.17 248.079C900.614 297.62 779.426 404.984 588.152 389.514C297.636 365.977 65.7217 288.296 -130.605 544.071" stroke="#8D865B" stroke-width="0.25" stroke-miterlimit="10"/>
<path d="M2002.35 962.186C1832.71 409.35 1433.89 118.222 1050.44 245.635C899.262 295.841 776.911 406.977 585.946 391.602C296.497 368.16 64.9624 284.048 -132.93 536.834" stroke="#8E875D" stroke-width="0.25" stroke-miterlimit="10"/>
<path d="M1999.81 969.327C1834.54 412.862 1431.82 112.788 1047.83 243.025C897.933 293.872 774.467 408.852 583.882 393.524C295.382 370.153 64.1795 279.635 -135.469 529.408" stroke="#90895E" stroke-width="0.25" stroke-miterlimit="10"/>
<path d="M1997.1 976.469C1836.24 416.516 1429.59 107.141 1045.08 240.486C896.581 291.973 772.023 410.774 581.841 395.47C294.244 372.17 63.4203 275.27 -137.841 522.076" stroke="#928B5F" stroke-width="0.25" stroke-miterlimit="10"/>
<path d="M1994.47 983.611C1838 420.098 1427.41 101.684 1042.4 237.947C895.3 290.146 769.556 412.719 579.754 397.439C293.105 374.329 62.661 270.928 -140.214 514.745" stroke="#948D61" stroke-width="0.25" stroke-miterlimit="10"/>
<path d="M1991.83 990.753C1839.76 423.681 1425.23 95.9421 1039.74 235.408C893.947 288.153 767.136 414.641 577.737 399.432C291.966 376.417 61.9018 266.562 -142.752 507.413" stroke="#968F62" stroke-width="0.25" stroke-miterlimit="10"/>
<path d="M1989.2 997.895C1841.53 427.335 1423.02 90.2952 1037.06 232.87C892.595 286.232 764.668 416.587 575.696 401.33C290.827 378.505 61.1422 262.22 -145.173 500.105" stroke="#989164" stroke-width="0.25" stroke-miterlimit="10"/>
<path d="M1986.59 1005.04C1843.22 430.965 1420.91 84.6245 1034.38 230.331C891.266 284.286 762.225 418.509 573.632 403.395C289.712 380.593 60.3833 257.878 -147.616 492.774" stroke="#9A9365" stroke-width="0.25" stroke-miterlimit="10"/>
<path d="M1983.96 1012.18C1845.05 434.572 1418.54 78.93 1031.82 227.792C889.914 282.34 759.781 420.43 571.545 405.388C288.573 382.681 59.6242 253.536 -150.036 485.442" stroke="#9B9467" stroke-width="0.25" stroke-miterlimit="10"/>
<path d="M1981.32 1019.32C1846.83 438.202 1416.33 73.2118 1029.02 225.253C888.562 280.395 757.338 422.376 569.528 407.357C287.435 384.745 58.8653 249.194 -152.479 478.11" stroke="#9D9668" stroke-width="0.25" stroke-miterlimit="10"/>
<path d="M1978.69 1026.46C1848.58 441.808 1414.05 67.4224 1026.33 222.691C887.091 278.449 754.87 424.369 567.487 409.35C286.295 386.833 58.1056 244.852 -154.9 470.779" stroke="#9F986A" stroke-width="0.25" stroke-miterlimit="10"/>
<path d="M1976.08 1033.6C1850.34 445.438 1411.75 61.633 1023.65 220.176C885.833 276.48 752.426 426.22 565.447 411.319C285.156 388.921 57.3463 240.486 -157.344 463.518" stroke="#A19A6B" stroke-width="0.25" stroke-miterlimit="10"/>
<path d="M1973.42 1040.75C1852.12 449.045 1409.45 55.8199 1021 217.637C884.457 274.581 749.982 428.165 563.383 413.312C284.041 391.009 56.7058 236.168 -159.764 456.116" stroke="#A39C6C" stroke-width="0.25" stroke-miterlimit="10"/>
<path d="M1970.81 1047.89C1853.87 452.675 1407.13 49.9596 1018.32 215.098C883.081 272.541 747.539 430.087 561.343 415.282C282.903 393.097 55.8282 231.826 -162.278 448.784" stroke="#A59E6E" stroke-width="0.25" stroke-miterlimit="10"/>
<path d="M1968.18 1055.03C1855.63 456.282 1404.75 44.0752 1015.63 212.56C881.681 270.572 745.166 432.033 559.278 417.275C281.764 395.185 55.0687 227.436 -164.627 441.452" stroke="#A7A06F" stroke-width="0.25" stroke-miterlimit="10"/>
<path d="M1965.55 1062.17C1857.46 459.959 1402.38 38.1671 1012.95 210.044C880.282 268.579 742.628 433.86 557.31 419.268C280.625 397.273 54.3335 223.142 -167.071 434.144" stroke="#A8A171" stroke-width="0.25" stroke-miterlimit="10"/>
<path d="M1962.91 1069.31C1859.16 463.542 1399.98 32.2119 1010.27 207.506C878.882 266.586 740.184 435.877 555.198 421.237C279.486 399.361 53.5502 218.776 -169.491 426.742" stroke="#AAA372" stroke-width="0.25" stroke-miterlimit="10"/>
<path d="M1960.28 1076.45C1860.92 467.077 1397.56 26.2326 1007.59 204.967C877.482 264.593 737.74 437.822 553.134 423.254C278.371 401.473 52.7675 214.458 -171.935 419.505" stroke="#ACA574" stroke-width="0.25" stroke-miterlimit="10"/>
<path d="M1957.65 1083.6C1862.75 470.779 1395.12 20.2298 1004.91 202.428C876.058 262.6 735.273 439.697 551.093 425.2C277.351 403.537 51.9609 210.092 -174.354 412.15" stroke="#AEA775" stroke-width="0.25" stroke-miterlimit="10"/>
<path d="M1955.04 1090.74C1864.57 474.385 1392.63 14.1795 1002.25 199.889C874.659 260.654 732.877 441.69 549.053 427.193C276.213 405.625 51.2495 205.75 -176.798 404.818" stroke="#B0A977" stroke-width="0.25" stroke-miterlimit="10"/>
<path d="M1952.36 1097.88C1866.21 478.015 1390.07 8.10523 999.572 197.351C873.211 258.566 730.504 443.612 546.989 429.114C274.979 407.76 50.4899 201.337 -179.218 397.487" stroke="#B2AB78" stroke-width="0.25" stroke-miterlimit="10"/>
<path d="M1949.77 1105.02C1867.97 481.622 1387.69 2.03123 996.891 194.812C871.788 256.502 727.942 445.533 544.949 431.155C273.816 409.801 49.7307 197.066 -181.638 390.155" stroke="#B4AD79" stroke-width="0.25" stroke-miterlimit="10"/>
<path d="M1947.14 1112.16C1869.74 485.252 1385.04 -4.13773 994.21 192.273C870.341 254.532 725.498 447.479 542.884 433.148C272.606 411.889 48.9714 192.724 -184.082 382.823" stroke="#B5AE7B" stroke-width="0.25" stroke-miterlimit="10"/>
<path d="M1944.5 1119.3C1871.5 488.859 1382.45 -10.3304 991.481 189.734C868.845 252.492 722.982 449.401 540.701 435.117C271.419 413.953 48.0692 188.358 -186.645 375.492" stroke="#B7B07C" stroke-width="0.25" stroke-miterlimit="10"/>
<path d="M1941.89 1126.45C1873.26 492.489 1379.84 -16.5232 988.848 187.101C867.422 250.475 720.587 451.346 538.803 437.11C270.423 416.041 47.4529 184.04 -188.946 368.184" stroke="#B9B27E" stroke-width="0.25" stroke-miterlimit="10"/>
<path d="M1939.26 1133.59C1875.04 496.095 1377.18 -22.7634 986.167 184.728C865.951 248.506 718.072 453.339 536.739 439.151C269.284 418.2 46.6937 179.769 -191.366 360.852" stroke="#BBB47F" stroke-width="0.25" stroke-miterlimit="10"/>
<path d="M1936.63 1140.75C1876.79 499.726 1374.5 -28.9797 983.486 182.189C864.48 246.418 715.699 455.214 534.699 440.978C268.145 420.122 45.9581 175.237 -193.81 353.426" stroke="#BDB681" stroke-width="0.25" stroke-miterlimit="10"/>
<path d="M1933.99 1147.9C1878.55 503.332 1371.7 -35.3385 980.829 179.579C863.009 244.354 713.231 457.183 532.635 442.947C266.911 422.21 45.1748 170.895 -196.23 346.094" stroke="#BFB882" stroke-width="0.25" stroke-miterlimit="10"/>
<path d="M1931.36 1155.16C1880.33 507.081 1369.07 -41.555 978.149 177.159C861.515 242.432 710.788 459.176 530.595 445.273C265.892 424.369 44.4164 166.648 -198.673 338.952" stroke="#C0B984" stroke-width="0.25" stroke-miterlimit="10"/>
<path d="M1928.63 1162.27C1882.08 510.593 1366.34 -48.0323 975.467 174.526C859.996 240.273 708.344 461.003 528.554 447.028C264.753 426.481 43.6567 162.306 -201.093 331.526" stroke="#C2BB85" stroke-width="0.25" stroke-miterlimit="10"/>
<path d="M1926.12 1169.39C1883.84 514.199 1363.42 -54.4386 972.786 171.987C858.62 238.232 705.901 462.925 526.466 448.998C263.59 428.569 42.8739 157.964 -203.561 324.194" stroke="#C4BD86" stroke-width="0.25" stroke-miterlimit="10"/>
<path d="M1923.48 1176.51C1885.62 517.829 1360.58 -60.8687 970.129 169.448C857.007 236.168 703.457 464.847 524.474 450.991C262.475 430.657 42.115 153.622 -205.957 316.863" stroke="#C6BF88" stroke-width="0.25" stroke-miterlimit="10"/>
<path d="M1920.85 1183.63C1887.37 521.436 1357.66 -67.3461 967.424 166.909C855.441 234.127 700.99 466.793 522.386 452.96C261.408 432.745 41.3556 149.256 -208.353 309.531" stroke="#C8C189" stroke-width="0.25" stroke-miterlimit="10"/>
<path d="M1918.21 1190.75C1889.13 525.066 1354.74 -73.8946 964.743 164.37C853.875 232.182 698.545 468.715 520.345 454.953C260.221 434.833 40.596 144.938 -210.821 302.2" stroke="#CAC38B" stroke-width="0.25" stroke-miterlimit="10"/>
<path d="M1915.58 1197.86C1890.91 528.767 1351.75 -80.3722 962.086 161.831C852.357 230.022 696.102 470.66 518.423 456.922C259.082 436.921 39.8371 140.596 -213.264 294.892" stroke="#CCC58C" stroke-width="0.25" stroke-miterlimit="10"/>
<path d="M1912.97 1204.98C1892.66 532.302 1348.74 -86.9208 959.405 159.293C850.815 227.958 693.682 472.487 516.241 458.915C257.944 439.009 39.078 136.23 -215.684 287.56" stroke="#CDC68E" stroke-width="0.25" stroke-miterlimit="10"/>
<path d="M1910.34 1212.1C1894.42 535.885 1345.68 -93.5881 956.724 156.683C849.249 225.823 691.191 474.433 514.2 460.813C256.805 441.096 38.3186 131.888 -218.128 280.228" stroke="#CFC88F" stroke-width="0.25" stroke-miterlimit="10"/>
<path d="M1907.7 1219.22C1896.2 539.539 1342.62 -99.9942 954.043 154.215C847.659 223.853 688.747 476.568 512.231 462.878C255.761 443.184 37.7254 127.546 -220.453 272.897" stroke="#D1CA91" stroke-width="0.25" stroke-miterlimit="10"/>
<path d="M1905.07 1226.46C1897.95 543.122 1339.44 -106.78 951.315 151.629C846.046 221.742 686.256 478.324 510.025 464.823C254.48 445.201 36.7292 123.157 -223.086 265.518" stroke="#D3CC92" stroke-width="0.25" stroke-miterlimit="10"/>
<path d="M2218.22 489.784C1718.59 260.512 1596.88 722.07 1250.23 699.767C1010.6 684.32 962.086 575.153 745.546 556.456C397.567 526.394 232.534 625.003 30.6079 509.786" stroke="#151102" stroke-width="0.25" stroke-miterlimit="10"/>
<path d="M2218.29 494.719C1722.15 261.579 1597.33 720.717 1250.3 701C1010.68 687.073 960.853 578.688 744.953 559.28C397.14 527.866 231.656 621.848 30.0625 508.671" stroke="#171303" stroke-width="0.25" stroke-miterlimit="10"/>
<path d="M2218.36 499.678C1725.71 262.623 1597.78 719.365 1250.09 702.258C1010.7 689.825 959.358 582.224 743.837 562.104C396.689 529.337 230.731 618.668 29.4927 507.532" stroke="#191505" stroke-width="0.25" stroke-miterlimit="10"/>
<path d="M2218.43 504.613C1729.34 263.691 1598.23 717.989 1250.09 703.492C1010.79 692.483 958.053 585.712 743.031 564.927C396.333 530.831 229.9 615.513 28.9946 506.44" stroke="#1B1706" stroke-width="0.25" stroke-miterlimit="10"/>
<path d="M2218.51 509.572C1732.83 264.735 1598.66 717.538 1250.09 704.726C1010.91 695.947 956.772 589.294 742.367 567.751C395.978 532.303 229.046 612.333 28.4492 505.325" stroke="#1D1808" stroke-width="0.25" stroke-miterlimit="10"/>
<path d="M2218.58 514.531C1736.46 265.803 1599.11 716.399 1249.92 705.983C1010.87 698.865 955.324 592.83 741.346 570.598C395.503 533.797 228.168 609.154 27.9268 504.163" stroke="#1E1A09" stroke-width="0.25" stroke-miterlimit="10"/>
<path d="M2218.65 519.443C1739.94 266.87 1599.56 715.237 1249.85 707.217C1010.94 701.736 953.949 596.365 740.492 573.421C395.076 535.268 227.314 605.998 27.3813 503.095" stroke="#201C0B" stroke-width="0.25" stroke-miterlimit="10"/>
<path d="M2218.72 524.401C1743.5 267.914 1600.01 714.216 1249.78 708.474C1010.98 704.631 952.596 599.948 739.638 576.221C394.672 536.716 226.436 602.795 26.8354 501.956" stroke="#221E0C" stroke-width="0.25" stroke-miterlimit="10"/>
<path d="M2218.79 529.337C1747.06 268.982 1600.46 712.935 1249.71 709.661C1011.03 707.454 951.22 603.388 738.784 579.021C394.269 538.187 225.583 599.616 26.314 500.722" stroke="#24200D" stroke-width="0.25" stroke-miterlimit="10"/>
<path d="M2218.86 534.272C1750.69 270.145 1600.94 711.773 1249.64 710.942C1011.1 710.396 949.797 607.422 737.93 581.892C393.771 540.441 224.705 596.484 25.8633 499.749" stroke="#26220F" stroke-width="0.25" stroke-miterlimit="10"/>
<path d="M2218.93 539.231C1754.18 271.117 1601.39 710.61 1249.57 712.199C1011.17 713.267 948.42 611.004 737.099 584.739C393.367 542.031 223.85 593.328 25.3408 498.634" stroke="#282410" stroke-width="0.25" stroke-miterlimit="10"/>
<path d="M2218.98 544.166C1757.81 272.161 1601.86 709.424 1249.49 713.433C1011.22 716.138 947.044 614.587 736.221 587.681C392.917 543.668 222.972 590.267 24.7002 497.638" stroke="#2A2512" stroke-width="0.25" stroke-miterlimit="10"/>
<path d="M2219.05 549.101C1761.3 273.205 1602.34 708.261 1249.42 714.691C1011.29 719.009 945.739 618.17 735.367 590.386C392.49 545.115 222.095 586.993 24.1548 496.428" stroke="#2C2713" stroke-width="0.25" stroke-miterlimit="10"/>
<path d="M2219.12 554.06C1764.93 274.273 1602.81 707.074 1249.35 715.925C1011.36 721.88 944.316 621.729 734.514 593.209C392.063 546.657 221.217 583.719 23.6094 495.312" stroke="#2D2915" stroke-width="0.25" stroke-miterlimit="10"/>
<path d="M2219.19 558.995C1768.41 275.341 1603.29 705.888 1249.28 717.158C1011.44 724.751 942.94 625.312 733.683 596.151C391.636 548.199 220.411 580.634 23.0874 494.197" stroke="#2F2B16" stroke-width="0.25" stroke-miterlimit="10"/>
<path d="M2219.27 563.93C1772.04 276.385 1603.76 704.702 1249.21 718.416C1011.51 727.598 941.659 628.895 732.877 598.88C391.233 549.742 219.486 577.478 22.542 493.177" stroke="#312D17" stroke-width="0.25" stroke-miterlimit="10"/>
<path d="M2219.34 568.889C1775.53 277.453 1604.24 703.515 1249.14 719.65C1011.58 730.469 940.188 632.454 731.928 601.704C390.782 551.284 218.631 574.299 21.9961 491.967" stroke="#332F19" stroke-width="0.25" stroke-miterlimit="10"/>
<path d="M2219.41 573.848C1779.09 278.52 1604.73 702.329 1249.04 720.955C1011.62 733.364 938.788 636.084 731.097 604.574C390.354 552.85 217.753 571.143 21.4736 490.804" stroke="#35301A" stroke-width="0.25" stroke-miterlimit="10"/>
<path d="M2219.48 578.76C1782.65 279.564 1605.21 701.095 1249.11 722.141C1011.86 736.164 937.554 639.595 730.385 607.351C390.046 554.369 216.994 567.964 20.9995 489.737" stroke="#37321C" stroke-width="0.25" stroke-miterlimit="10"/>
<path d="M2219.55 583.719C1786.28 280.632 1605.68 699.885 1248.9 723.327C1011.79 738.963 936.06 643.13 729.317 610.126C389.5 555.911 216.021 564.808 20.3823 488.621" stroke="#39341D" stroke-width="0.25" stroke-miterlimit="10"/>
<path d="M2219.62 588.654C1789.77 281.676 1606.18 698.675 1248.83 724.632C1011.86 741.834 934.684 646.737 728.558 613.116C389.073 557.548 215.143 561.724 19.8604 487.601" stroke="#3B361F" stroke-width="0.25" stroke-miterlimit="10"/>
<path d="M2219.67 593.589C1793.32 282.767 1606.68 697.442 1248.76 725.866C1011.96 744.682 933.212 650.32 727.704 615.845C388.646 558.9 214.265 558.473 19.3145 486.391" stroke="#3D3820" stroke-width="0.25" stroke-miterlimit="10"/>
<path d="M2219.74 598.548C1796.88 283.811 1607.15 696.231 1248.69 727.124C1012.03 747.505 931.931 653.879 726.732 618.668C388.219 560.538 213.412 555.294 18.7456 485.276" stroke="#3E3A21" stroke-width="0.25" stroke-miterlimit="10"/>
<path d="M2219.81 603.483C1800.51 284.855 1607.65 694.998 1248.62 728.358C1012.1 750.352 930.556 657.438 726.02 621.587C387.792 561.985 212.534 552.115 18.2476 484.161" stroke="#403C23" stroke-width="0.25" stroke-miterlimit="10"/>
<path d="M2219.88 608.418C1804.03 285.923 1608.15 693.835 1248.55 729.615C1012.17 753.176 929.203 661.021 725.166 624.315C387.365 563.598 211.68 548.959 17.7017 483.046" stroke="#423D24" stroke-width="0.25" stroke-miterlimit="10"/>
<path d="M2219.95 613.377C1807.63 286.967 1608.62 692.482 1248.47 730.849C1012.27 755.999 927.827 664.58 724.312 627.162C386.938 565.117 210.92 545.779 17.1558 481.93" stroke="#443F26" stroke-width="0.25" stroke-miterlimit="10"/>
<path d="M2220.02 618.313C1811.14 288.035 1609.12 691.273 1248.4 732.083C1012.34 758.799 926.451 668.139 723.458 630.057C386.488 566.73 209.924 542.624 16.6343 480.815" stroke="#464127" stroke-width="0.25" stroke-miterlimit="10"/>
<path d="M2220.1 623.248C1814.75 289.126 1609.62 690.11 1248.33 733.34C1012.43 761.623 925.075 671.65 722.603 632.81C386.084 568.178 209.069 539.444 16.0879 479.7" stroke="#484328" stroke-width="0.25" stroke-miterlimit="10"/>
<path d="M2220.17 628.206C1818.26 290.146 1610.12 688.757 1248.26 734.574C1012.5 764.422 923.699 675.257 721.749 635.633C385.657 569.696 208.192 536.289 15.5425 478.585" stroke="#4A452A" stroke-width="0.25" stroke-miterlimit="10"/>
<path d="M2220.24 633.165C1821.87 291.214 1610.71 687.5 1248.19 735.831C1012.57 767.246 922.322 678.887 720.895 638.551C385.229 571.309 207.313 533.204 15.02 477.565" stroke="#4C472B" stroke-width="0.25" stroke-miterlimit="10"/>
<path d="M2220.31 638.101C1825.38 292.258 1611.11 686.219 1248.12 737.065C1012.67 770.046 920.946 682.375 720.041 641.304C384.802 572.757 206.46 529.93 14.4746 476.355" stroke="#4D492D" stroke-width="0.25" stroke-miterlimit="10"/>
<path d="M2220.45 643.036C1828.98 293.326 1611.68 684.937 1248.12 738.299C1012.81 772.845 919.642 685.934 719.282 644.127C384.352 574.275 205.582 526.774 14.0005 475.24" stroke="#4F4A2E" stroke-width="0.25" stroke-miterlimit="10"/>
<path d="M2220.45 647.971C1832.52 294.441 1612.13 683.68 1248 739.557C1012.86 775.645 918.218 689.493 718.38 647.022C383.853 575.841 204.751 523.642 13.4307 474.196" stroke="#514C30" stroke-width="0.25" stroke-miterlimit="10"/>
<path d="M2220.45 652.93C1836.1 295.438 1612.56 682.375 1247.86 740.719C1012.84 778.421 916.819 693.028 717.503 649.774C383.498 577.289 203.85 520.439 12.8618 473.009" stroke="#534E31" stroke-width="0.25" stroke-miterlimit="10"/>
<path d="M2220.57 657.865C1839.61 296.505 1613.2 681.094 1247.83 742.048C1012.95 781.221 915.442 696.587 716.648 652.598C383.071 578.807 202.972 517.355 12.3394 471.894" stroke="#555032" stroke-width="0.25" stroke-miterlimit="10"/>
<path d="M2220.64 662.8C1843.22 297.573 1613.61 679.812 1247.72 743.282C1013.02 783.997 914.019 700.146 715.747 655.492C382.644 580.326 202.118 514.104 11.7939 470.802" stroke="#575234" stroke-width="0.25" stroke-miterlimit="10"/>
<path d="M2220.71 667.759C1846.73 298.617 1614.1 678.508 1247.71 744.516C1013.17 786.773 912.714 703.682 714.964 658.269C382.217 581.844 201.24 510.925 11.248 469.688" stroke="#595435" stroke-width="0.25" stroke-miterlimit="10"/>
<path d="M2220.78 672.694C1850.34 299.685 1614.6 677.202 1247.71 745.773C1013.36 789.573 911.433 707.241 714.204 661.092C381.742 583.339 200.362 507.769 10.7261 468.572" stroke="#5B5637" stroke-width="0.25" stroke-miterlimit="10"/>
<path d="M2220.86 677.629C1853.85 300.729 1615.1 675.874 1247.53 747.054C1013.31 792.373 909.938 710.847 713.232 664.01C381.363 584.952 199.508 504.685 10.1807 467.552" stroke="#5C5738" stroke-width="0.25" stroke-miterlimit="10"/>
<path d="M2220.93 682.588C1857.45 301.796 1615.58 674.569 1247.45 748.264C1013.4 795.101 908.562 714.335 712.378 666.739C380.935 586.352 198.63 501.41 9.63477 466.342" stroke="#5E593A" stroke-width="0.25" stroke-miterlimit="10"/>
<path d="M2221 687.524C1860.97 302.864 1616 673.288 1247.38 749.498C1013.47 797.877 907.209 717.894 711.523 669.586C380.508 587.847 197.776 498.255 9.11279 465.227" stroke="#605B3B" stroke-width="0.25" stroke-miterlimit="10"/>
<path d="M2221.07 692.482C1864.57 303.908 1616.57 671.935 1247.31 750.732C1013.55 800.558 905.834 721.429 710.693 672.433C380.082 589.389 196.899 495.099 8.56738 464.135" stroke="#625D3C" stroke-width="0.25" stroke-miterlimit="10"/>
<path d="M2221.14 697.418C1868.08 304.976 1617.07 670.583 1247.24 751.99C1013.64 803.406 904.458 724.965 709.84 675.233C379.655 590.861 196.021 491.92 8.02197 462.997" stroke="#645F3E" stroke-width="0.25" stroke-miterlimit="10"/>
<path d="M2221.19 702.353C1871.64 306.115 1617.57 669.135 1247.17 753.223C1013.71 806.158 903.153 728.524 708.985 678.057C379.203 592.355 195.166 488.74 7.49951 461.881" stroke="#66613F" stroke-width="0.25" stroke-miterlimit="10"/>
<path d="M2221.26 707.288C1875.2 307.087 1618.07 667.925 1247.1 754.481C1013.78 808.91 901.706 732.059 708.131 680.928C378.8 593.85 194.313 485.584 6.88281 460.766" stroke="#686241" stroke-width="0.25" stroke-miterlimit="10"/>
<path d="M2221.33 712.247C1878.81 308.107 1618.54 666.573 1247.03 755.714C1013.88 811.662 900.329 735.594 707.277 683.727C378.373 595.345 193.411 482.405 6.4082 459.651" stroke="#6A6442" stroke-width="0.25" stroke-miterlimit="10"/>
<path d="M2221.4 717.182C1882.32 309.08 1619.04 665.22 1246.96 756.972C1013.95 814.415 898.954 739.129 706.423 686.551C377.947 596.839 192.557 479.249 5.88672 458.536" stroke="#6C6644" stroke-width="0.25" stroke-miterlimit="10"/>
<path d="M2221.47 722.117C1885.93 310.267 1619.54 663.868 1246.89 758.206C1014.02 817.167 897.578 742.665 705.569 689.398C377.52 598.334 191.68 476.094 5.34131 457.444" stroke="#6D6845" stroke-width="0.25" stroke-miterlimit="10"/>
<path d="M2221.54 727.076C1889.39 311.311 1620.01 662.492 1246.81 759.44C1014.09 819.896 896.225 746.2 704.715 692.198C377.092 599.805 190.825 472.89 4.81885 456.305" stroke="#6F6A46" stroke-width="0.25" stroke-miterlimit="10"/>
<path d="M2221.61 732.011C1893.04 312.379 1620.51 661.139 1246.74 760.697C1014.23 822.648 894.849 749.735 703.884 695.021C376.689 601.3 189.947 469.735 4.27295 455.214" stroke="#716C48" stroke-width="0.25" stroke-miterlimit="10"/>
<path d="M2221.69 736.947C1896.65 313.446 1620.98 659.763 1246.58 761.931C1014.07 825.377 893.378 753.271 702.935 697.869C376.262 602.771 189.069 466.556 3.72754 454.075" stroke="#736E49" stroke-width="0.25" stroke-miterlimit="10"/>
<path d="M2221.76 741.906C1900.11 314.49 1621.51 658.387 1246.65 763.26C1014.35 828.176 892.145 756.877 702.224 700.763C375.882 604.314 188.263 463.495 3.22949 453.031" stroke="#756F4B" stroke-width="0.25" stroke-miterlimit="10"/>
<path d="M2221.83 746.841C1903.67 315.558 1621.96 657.011 1246.53 764.422C1014.38 830.857 890.65 760.341 701.322 703.515C375.408 605.737 187.337 460.22 2.65967 451.845" stroke="#77714C" stroke-width="0.25" stroke-miterlimit="10"/>
<path d="M2221.87 751.8C1907.28 316.626 1622.43 655.611 1246.46 765.656C1014.45 833.562 889.368 763.877 700.468 706.339C374.98 607.208 186.459 457.065 2.1377 450.73" stroke="#79734E" stroke-width="0.25" stroke-miterlimit="10"/>
<path d="M2221.95 756.735C1910.79 317.788 1622.91 654.235 1246.39 766.914C1014.52 836.291 887.992 767.412 699.661 709.091C374.625 608.679 185.605 453.885 1.56836 449.615" stroke="#7B754F" stroke-width="0.25" stroke-miterlimit="10"/>
<path d="M2222.02 761.67C1914.4 318.737 1623.38 652.835 1246.29 768.147C1014.59 839.019 886.616 770.947 698.759 712.01C374.15 610.15 184.822 450.706 1.04639 448.499" stroke="#7C7750" stroke-width="0.25" stroke-miterlimit="10"/>
<path d="M2222.09 766.605C1917.93 319.781 1623.86 651.435 1246.22 769.405C1014.66 841.725 885.24 774.459 697.905 714.833C373.723 611.622 183.873 447.55 0.500488 447.384" stroke="#7E7952" stroke-width="0.25" stroke-miterlimit="10"/>
<path d="M2222.16 771.564C1921.49 320.754 1624.28 650.035 1246.15 770.639C1014.73 844.453 883.888 777.994 697.075 717.657C373.296 613.092 182.996 444.371 -0.0449219 446.269" stroke="#807B53" stroke-width="0.25" stroke-miterlimit="10"/>
<path d="M2222.23 776.499C1925.05 321.917 1624.8 648.635 1246.08 771.754C1014.78 847.039 882.511 781.387 696.22 720.362C372.892 614.445 182.117 441.097 -0.567383 445.13" stroke="#827C55" stroke-width="0.25" stroke-miterlimit="10"/>
<path d="M2222.3 781.458C1928.63 322.961 1625.26 647.212 1246.01 773.154C1014.85 849.887 881.135 785.017 695.366 723.328C372.465 616.035 181.263 438.036 -1.11279 444.062" stroke="#847E56" stroke-width="0.25" stroke-miterlimit="10"/>
<path d="M2222.37 786.393C1932.17 324.028 1625.73 645.788 1245.94 774.364C1014.92 852.662 879.783 788.6 694.513 726.151C372.062 617.506 180.386 434.88 -1.6582 442.947" stroke="#868058" stroke-width="0.25" stroke-miterlimit="10"/>
<path d="M2222.44 791.329C1935.75 325.072 1626.2 644.364 1245.86 775.526C1014.97 855.296 878.407 792.135 693.658 728.974C371.635 618.929 179.508 431.701 -2.18066 441.832" stroke="#888259" stroke-width="0.25" stroke-miterlimit="10"/>
<path d="M2222.52 796.287C1939.28 326.14 1626.66 642.941 1245.79 776.855C1015.04 858.001 877.031 795.599 692.804 731.774C371.208 620.424 178.654 428.545 -2.60742 440.717" stroke="#8A845A" stroke-width="0.25" stroke-miterlimit="10"/>
<path d="M2222.59 801.222C1942.84 327.208 1627.08 641.517 1245.72 778.089C1015.09 860.682 875.608 799.135 691.95 734.621C370.805 621.871 177.705 425.366 -3.27148 439.602" stroke="#8C865C" stroke-width="0.25" stroke-miterlimit="10"/>
<path d="M2222.63 806.158C1946.4 328.252 1627.56 640.07 1245.65 779.346C1015.21 863.316 874.303 802.646 691.096 737.564C370.402 623.342 176.922 422.186 -3.79346 438.605" stroke="#8D875D" stroke-width="0.25" stroke-miterlimit="10"/>
<path d="M2222.82 811.117C1949.98 329.319 1628.03 638.646 1245.58 780.58C1015.21 865.997 872.951 806.158 690.242 740.245C369.88 624.79 176.044 419.031 -4.33887 437.371" stroke="#8F895F" stroke-width="0.25" stroke-miterlimit="10"/>
<path d="M2222.82 816.052C1953.52 330.387 1628.48 637.199 1245.51 781.838C1015.21 868.773 871.574 809.693 689.412 743.116C369.571 626.237 175.166 415.851 -4.97998 436.233" stroke="#918B60" stroke-width="0.25" stroke-miterlimit="10"/>
<path d="M2222.82 820.987C1957.1 331.431 1628.89 635.752 1245.34 783.024C1015.21 871.43 870.127 813.157 688.463 745.892C369.049 627.637 174.217 412.648 -5.50195 435.07" stroke="#938D62" stroke-width="0.25" stroke-miterlimit="10"/>
<path d="M2222.82 825.946C1960.54 332.428 1629.26 634.304 1245.34 784.329C1015.33 874.159 868.822 816.716 687.798 748.739C368.741 629.132 173.434 409.516 -5.95264 434.026" stroke="#958F63" stroke-width="0.25" stroke-miterlimit="10"/>
<path d="M2222.99 830.881C1964.22 333.543 1629.81 632.857 1245.34 785.563C1015.44 876.864 867.541 820.228 686.897 751.586C368.385 630.579 172.604 406.36 -6.45068 432.911" stroke="#979164" stroke-width="0.25" stroke-miterlimit="10"/>
<path d="M2223.06 835.816C1967.75 334.61 1630.24 631.41 1245.34 786.797C1015.56 879.545 866.236 823.739 686.114 754.433C368.052 632.026 171.821 403.276 -6.90186 431.748" stroke="#999366" stroke-width="0.25" stroke-miterlimit="10"/>
<path d="M2223.13 840.775C1971.34 335.678 1630.69 629.939 1245.15 788.054C1015.49 882.226 864.765 827.251 685.236 757.209C367.507 633.474 170.824 400.025 -7.56592 430.68" stroke="#9B9467" stroke-width="0.25" stroke-miterlimit="10"/>
<path d="M2223.2 845.711C1974.87 336.722 1631.12 628.42 1245.08 789.288C1015.54 884.907 863.366 830.763 684.287 760.08C367.104 634.921 169.971 396.846 -8.11133 429.565" stroke="#9C9669" stroke-width="0.25" stroke-miterlimit="10"/>
<path d="M2223.27 850.646C1978.45 337.79 1631.54 626.996 1245.01 790.546C1015.59 887.588 862.037 834.274 683.433 762.904C366.701 636.345 169.093 393.667 -8.6333 428.355" stroke="#9E986A" stroke-width="0.25" stroke-miterlimit="10"/>
<path d="M2223.35 855.605C1981.99 338.834 1631.97 625.454 1244.92 791.779C1015.63 890.27 860.685 837.786 682.627 765.68C366.298 637.911 168.215 390.511 -9.17871 427.335" stroke="#A09A6C" stroke-width="0.25" stroke-miterlimit="10"/>
<path d="M2223.39 860.54C1985.57 339.902 1632.4 624.054 1244.84 793.013C1015.66 892.951 859.308 841.297 681.748 768.575C365.894 639.216 167.36 387.332 -9.7251 426.22" stroke="#A29C6D" stroke-width="0.25" stroke-miterlimit="10"/>
<path d="M2223.47 865.475C1989.11 340.969 1632.82 622.583 1244.77 794.294C1015.71 895.655 858.051 844.809 680.895 771.422C365.491 640.663 166.483 384.176 -10.2466 425.105" stroke="#A49E6E" stroke-width="0.25" stroke-miterlimit="10"/>
<path d="M2223.54 870.434C1992.69 342.013 1633.25 621.088 1244.7 795.505C1015.73 898.289 856.603 848.297 680.04 774.15C365.134 642.087 165.605 380.996 -10.793 423.989" stroke="#A6A070" stroke-width="0.25" stroke-miterlimit="10"/>
<path d="M2223.61 875.369C1996.22 343.081 1633.65 619.617 1244.63 796.881C1015.78 901.089 855.251 851.927 679.186 777.164C364.707 643.629 164.751 377.959 -11.2197 422.993" stroke="#A8A171" stroke-width="0.25" stroke-miterlimit="10"/>
<path d="M2223.68 880.304C1999.78 344.077 1634.08 618.123 1244.56 797.996C1015.8 903.651 853.876 855.32 678.309 779.868C364.304 645.029 163.873 374.661 -11.8599 421.759" stroke="#AAA373" stroke-width="0.25" stroke-miterlimit="10"/>
<path d="M2223.75 885.263C2003.34 345.193 1634.44 616.557 1244.49 799.253C1015.82 906.333 852.523 858.832 677.454 782.645C363.9 646.381 163.018 371.506 -12.4062 420.644" stroke="#ABA574" stroke-width="0.25" stroke-miterlimit="10"/>
<path d="M2223.82 890.198C2006.92 346.26 1634.89 615.133 1244.42 800.487C1015.85 908.966 851.171 862.319 676.624 785.539C363.521 647.805 162.141 368.326 -12.9517 419.624" stroke="#ADA775" stroke-width="0.25" stroke-miterlimit="10"/>
<path d="M2223.89 895.134C2010.36 347.304 1635.29 613.638 1244.35 801.721C1015.87 911.647 849.819 865.783 675.77 788.363C363.118 649.228 161.264 365.052 -13.4731 418.437" stroke="#AFA977" stroke-width="0.25" stroke-miterlimit="10"/>
<path d="M2223.96 900.092C2014.04 348.443 1635.69 612.143 1244.27 802.978C1015.89 914.305 848.466 869.414 674.868 791.115C362.762 650.652 160.409 361.991 -14.0195 417.251" stroke="#B1AB78" stroke-width="0.25" stroke-miterlimit="10"/>
<path d="M2224.03 905.027C2017.62 349.44 1636.1 610.649 1244.18 804.212C1015.9 916.962 847.09 872.806 674.062 794.01C362.335 652.147 159.531 358.812 -14.4697 416.207" stroke="#B3AD7A" stroke-width="0.25" stroke-miterlimit="10"/>
<path d="M2224.08 909.963C2021.13 350.484 1636.48 609.13 1244.23 805.446C1016.04 919.62 845.856 876.318 673.325 796.857C361.955 653.476 158.724 355.561 -15.0874 415.092" stroke="#B5AE7B" stroke-width="0.25" stroke-miterlimit="10"/>
<path d="M2224.15 914.922C2024.72 351.551 1636.81 607.635 1244.06 806.704C1015.97 922.301 844.409 879.806 672.282 799.586C361.481 654.852 157.705 352.382 -15.751 413.882" stroke="#B7B07D" stroke-width="0.25" stroke-miterlimit="10"/>
<path d="M2224.22 919.857C2028.28 352.595 1637.26 606.117 1243.99 807.937C1015.99 924.958 843.033 883.318 671.523 802.504C361.172 656.299 156.921 349.321 -16.1782 412.862" stroke="#B9B27E" stroke-width="0.25" stroke-miterlimit="10"/>
<path d="M2224.3 924.816C2031.84 353.663 1637.64 604.693 1243.92 809.195C1015.99 927.616 841.704 886.805 670.669 805.327C360.793 657.723 156.067 346.07 -16.7002 411.746" stroke="#BBB47F" stroke-width="0.25" stroke-miterlimit="10"/>
<path d="M2224.37 929.751C2035.39 354.731 1638.02 603.08 1243.85 810.429C1016.09 930.273 840.352 890.293 669.815 808.056C360.39 659.122 155.19 342.962 -17.2456 410.631" stroke="#BCB681" stroke-width="0.25" stroke-miterlimit="10"/>
<path d="M2224.44 934.686C2038.95 355.751 1638.42 601.561 1243.78 811.686C1016.01 932.93 839 893.805 668.961 810.998C360.034 660.546 154.312 339.807 -17.791 409.516" stroke="#BEB882" stroke-width="0.25" stroke-miterlimit="10"/>
<path d="M2224.51 939.645C2042.51 356.842 1638.78 599.948 1243.71 812.92C1015.94 935.588 837.671 897.293 668.106 813.822C359.678 661.97 153.458 336.627 -18.3135 408.401" stroke="#C0B984" stroke-width="0.25" stroke-miterlimit="10"/>
<path d="M2224.58 944.58C2046.07 357.934 1639.18 598.524 1243.61 814.154C1016.04 938.222 836.319 900.781 667.276 816.645C359.275 663.346 152.58 333.472 -18.8589 407.286" stroke="#C2BB85" stroke-width="0.25" stroke-miterlimit="10"/>
<path d="M2224.65 949.516C2049.63 358.954 1639.51 597.006 1243.54 815.411C1016.06 940.879 834.895 904.268 666.446 819.469C358.895 664.746 151.607 330.292 -19.4048 406.171" stroke="#C4BD87" stroke-width="0.25" stroke-miterlimit="10"/>
<path d="M2224.72 954.474C2053.19 360.022 1639.89 595.463 1243.47 816.645C1016.06 943.536 833.78 907.448 665.568 822.292C358.824 665.552 150.848 327.089 -19.9268 405.055" stroke="#C6BF88" stroke-width="0.25" stroke-miterlimit="10"/>
<path d="M2224.79 959.41C2056.75 361.066 1640.25 594.016 1243.4 817.903C1016.06 946.194 832.427 910.983 664.713 825.139C358.396 667.047 149.875 323.957 -20.4727 403.94" stroke="#C8C189" stroke-width="0.25" stroke-miterlimit="10"/>
<path d="M2224.84 964.345C2060.3 362.134 1640.6 592.403 1243.33 819.137C1016.06 948.851 831.051 914.518 663.859 827.963C358.016 668.519 149.234 320.802 -21.0186 402.825" stroke="#CAC38B" stroke-width="0.25" stroke-miterlimit="10"/>
<path d="M2224.91 969.304C2063.87 363.201 1640.56 590.172 1243.25 820.37C1015.82 951.081 829.699 918.054 663.006 830.786C357.566 670.013 148.238 317.598 -21.5874 401.71" stroke="#CBC58C" stroke-width="0.25" stroke-miterlimit="10"/>
<path d="M2224.98 974.239C2067.42 364.245 1640.99 588.796 1243.18 821.628C1015.87 953.834 828.324 921.589 662.152 833.61C357.163 671.484 147.361 314.443 -22.0854 400.642" stroke="#CDC68E" stroke-width="0.25" stroke-miterlimit="10"/>
<path d="M2225.05 979.174C2070.98 365.313 1641.55 587.444 1243.11 822.98C1015.94 956.705 826.947 925.243 661.297 836.552C356.76 673.074 146.459 311.406 -22.6313 399.598" stroke="#CFC88F" stroke-width="0.25" stroke-miterlimit="10"/>
<path d="M2225.2 984.133C2074.54 366.357 1641.89 586.091 1242.97 824.119C1015.92 959.362 825.524 928.659 660.372 839.28C356.333 674.45 145.628 308.107 -23.1533 398.269" stroke="#D1CA91" stroke-width="0.25" stroke-miterlimit="10"/>
<path d="M2225.2 989.068C2078.1 367.425 1642.34 584.715 1242.97 825.353C597.429 1214.31 236.093 254.912 -23.6987 397.249" stroke="#D3CC92" stroke-width="0.25" stroke-miterlimit="10"/>
<path style="mix-blend-mode:color-dodge" d="M1129.11 230.663C1288.75 230.663 1418.16 172.312 1418.16 100.332C1418.16 28.3514 1288.75 -30 1129.11 -30C969.477 -30 840.067 28.3514 840.067 100.332C840.067 172.312 969.477 230.663 1129.11 230.663Z" fill="url(#paint0_radial_1_110508)"/>
<path style="mix-blend-mode:color-dodge" d="M922.702 1083.65C1226.26 1083.65 1472.35 972.698 1472.35 835.827C1472.35 698.956 1226.26 588 922.702 588C619.142 588 373.059 698.956 373.059 835.827C373.059 972.698 619.142 1083.65 922.702 1083.65Z" fill="url(#paint1_radial_1_110508)"/>
<path style="mix-blend-mode:color-dodge" d="M1840.82 636.368C2000.46 636.368 2129.87 578.017 2129.87 506.037C2129.87 434.057 2000.46 375.705 1840.82 375.705C1681.19 375.705 1551.78 434.057 1551.78 506.037C1551.78 578.017 1681.19 636.368 1840.82 636.368Z" fill="url(#paint2_radial_1_110508)"/>
<path style="mix-blend-mode:color-dodge" d="M1417.58 669.505C1455.93 608.596 1377.52 490.256 1242.43 405.184C1107.35 320.113 966.754 300.525 928.4 361.435C890.046 422.344 968.46 540.684 1103.54 625.756C1238.62 710.827 1379.22 730.415 1417.58 669.505Z" fill="url(#paint3_radial_1_110508)"/>
<path style="mix-blend-mode:color-dodge" d="M518.162 586.281C660.999 586.281 776.792 533.443 776.792 468.264C776.792 403.085 660.999 350.247 518.162 350.247C375.325 350.247 259.533 403.085 259.533 468.264C259.533 533.443 375.325 586.281 518.162 586.281Z" fill="url(#paint4_radial_1_110508)"/>
<path style="mix-blend-mode:color-dodge" d="M1790.06 662.731C1803.03 654.857 1767.86 573.213 1711.51 480.374C1655.15 387.536 1598.95 318.659 1585.98 326.533C1573.01 334.408 1608.18 416.052 1664.54 508.89C1720.89 601.729 1777.09 670.606 1790.06 662.731Z" fill="url(#paint5_radial_1_110508)"/>
<path d="M-122.467 411.462C-5.62028 440.669 -55.7043 363.154 285.892 425.698C538.566 471.965 725.237 650.486 940.71 678.365C1287.1 723.161 1490.21 450.943 1873.78 458.322" stroke="#383302" stroke-width="0.25" stroke-miterlimit="10"/>
<path d="M-127.094 407.452C-14.0665 436.636 -64.2929 372.17 283.496 428.687C537.973 470.091 722.817 653.808 940.354 681.71C1282 725.771 1492.32 456.305 1876.77 463.423" stroke="#393404" stroke-width="0.25" stroke-miterlimit="10"/>
<path d="M-131.697 403.442C-22.5605 432.579 -72.7394 381.163 281.123 431.677C537.356 468.288 720.444 657.082 940.045 685.056C1277.06 728.334 1494.51 461.454 1879.8 468.43" stroke="#3A3506" stroke-width="0.25" stroke-miterlimit="10"/>
<path d="M-136.323 399.408C-30.9356 428.545 -81.3043 390.25 278.679 434.667C536.715 466.508 717.953 660.356 939.666 688.378C1272.03 730.896 1496.59 466.674 1882.75 473.46" stroke="#3B3609" stroke-width="0.25" stroke-miterlimit="10"/>
<path d="M-140.95 395.399C-39.3581 424.488 -89.9166 399.409 276.259 437.656C535.956 464.705 715.533 663.631 939.286 691.7C1267.05 733.482 1498.73 471.918 1885.71 478.49" stroke="#3C370B" stroke-width="0.25" stroke-miterlimit="10"/>
<path d="M-145.576 391.389C-47.8043 420.454 -98.5527 408.615 273.839 440.646C535.339 463.139 713.113 666.905 938.978 695.045C1262.09 736.045 1500.89 477.161 1888.75 483.544" stroke="#3D380D" stroke-width="0.25" stroke-miterlimit="10"/>
<path d="M-150.179 387.355C-56.2503 416.397 -107.212 417.892 271.443 443.612C534.651 461.525 710.693 670.179 938.622 698.367C1257.13 738.702 1503.02 482.452 1891.74 488.574" stroke="#3E3A0F" stroke-width="0.25" stroke-miterlimit="10"/>
<path d="M-154.805 383.345C-64.6486 412.363 -115.895 427.216 269.024 446.601C533.916 459.959 708.274 673.501 938.266 701.688C1252.15 741.194 1505.16 487.625 1894.73 493.628" stroke="#3F3B11" stroke-width="0.25" stroke-miterlimit="10"/>
<path d="M-159.432 379.288C-73.1191 408.259 -124.579 436.565 266.627 449.543C533.181 458.393 705.829 676.704 938.053 704.986C1247.31 743.732 1507.46 492.821 1897.86 498.563" stroke="#403C14" stroke-width="0.25" stroke-miterlimit="10"/>
<path d="M-163.939 375.302C-81.4467 404.272 -133.097 446.079 264.302 452.58C532.54 456.97 703.504 680.026 937.673 708.356C1242.31 746.319 1509.45 498.112 1900.92 503.688" stroke="#413D16" stroke-width="0.25" stroke-miterlimit="10"/>
<path d="M-168.684 371.292C-90.011 400.239 -141.875 444.205 261.764 455.57C531.568 463.163 700.966 683.348 937.223 711.677C1237.21 748.929 1511.54 503.332 1903.7 508.742" stroke="#423E18" stroke-width="0.25" stroke-miterlimit="10"/>
<path d="M-173.287 367.282C-98.4101 396.182 -150.748 465.179 259.391 458.536C530.95 454.17 698.617 686.076 936.914 715.023C1232.36 750.874 1513.72 508.599 1906.73 513.772" stroke="#433F1A" stroke-width="0.25" stroke-miterlimit="10"/>
<path d="M-177.913 363.249C-106.737 392.148 -159.479 474.765 256.971 461.525C530.192 452.818 696.198 689.303 936.558 718.345C1227.38 753.437 1515.81 513.819 1909.65 518.826" stroke="#44401C" stroke-width="0.25" stroke-miterlimit="10"/>
<path d="M-182.516 359.239C-115.279 388.091 -168.281 484.517 254.575 464.515C529.456 451.513 693.777 692.601 936.202 721.667C1222.4 755.999 1517.97 519.063 1912.71 523.856" stroke="#45411F" stroke-width="0.25" stroke-miterlimit="10"/>
<path d="M-187.143 355.229C-123.607 384.033 -176.917 494.268 252.154 467.504C528.696 450.255 691.357 695.852 935.869 725.012C1217.44 758.562 1520.1 524.283 1915.72 528.91" stroke="#464221" stroke-width="0.25" stroke-miterlimit="10"/>
<path d="M-191.769 351.196C-132.147 380 -185.648 504.091 249.735 470.494C527.961 449.021 688.937 699.126 935.514 728.334C1212.46 761.148 1522.26 529.526 1918.69 533.94" stroke="#474323" stroke-width="0.25" stroke-miterlimit="10"/>
<path d="M-196.395 347.186C-140.593 375.966 -194.355 513.938 247.268 473.46C527.226 447.835 686.446 702.377 935.111 731.656C1207.43 763.711 1524.33 534.723 1921.63 538.97" stroke="#484525" stroke-width="0.25" stroke-miterlimit="10"/>
<path d="M-200.998 343.176C-149.04 371.909 -203.062 523.856 245.037 476.449C526.585 446.649 684.192 705.651 934.945 735.072C1202.64 766.392 1526.65 540.109 1924.81 544.118" stroke="#494627" stroke-width="0.25" stroke-miterlimit="10"/>
<path d="M-205.625 339.142C-157.462 367.876 -211.746 533.845 242.522 479.439C525.755 445.534 681.654 708.925 934.541 738.323C1197.58 768.883 1528.72 545.234 1927.73 549.054" stroke="#4A4729" stroke-width="0.25" stroke-miterlimit="10"/>
<path d="M-210.251 335.133C-165.908 363.818 -220.429 543.929 240.102 482.429C525.019 444.466 679.233 712.223 934.138 741.645C1192.58 771.493 1530.81 550.477 1930.6 554.203" stroke="#4B482C" stroke-width="0.25" stroke-miterlimit="10"/>
<path d="M-214.854 331.123C-174.331 359.785 -229.089 553.918 237.682 485.347C524.307 443.279 676.813 715.497 933.806 744.895C1187.67 774.008 1532.94 555.65 1933.68 559.066" stroke="#4C492E" stroke-width="0.25" stroke-miterlimit="10"/>
<path d="M-219.48 327.089C-182.777 355.727 -237.748 564.049 235.286 488.432C523.62 442.33 674.37 718.843 933.45 748.359C1182.57 776.831 1535.08 560.917 1936.67 564.239" stroke="#4D4A30" stroke-width="0.25" stroke-miterlimit="10"/>
<path d="M-224.106 323.079C-191.199 351.694 -246.361 574.204 232.866 491.374C522.908 441.263 671.95 722.094 933.118 751.633C1177.65 779.299 1537.16 566.184 1939.66 569.221" stroke="#4E4B32" stroke-width="0.25" stroke-miterlimit="10"/>
<path d="M-228.733 319.069C-199.646 347.542 -254.973 584.407 230.446 494.363C522.267 440.242 669.364 725.914 932.715 754.955C1172.58 782.36 1539.3 571.428 1942.6 574.252" stroke="#4F4C34" stroke-width="0.25" stroke-miterlimit="10"/>
<path d="M-233.335 315.036C-208.068 343.698 -263.585 594.633 228.05 497.353C521.579 439.27 666.968 729.188 932.43 758.348C1167.64 785.017 1541.48 576.672 1945.67 579.306" stroke="#504D37" stroke-width="0.25" stroke-miterlimit="10"/>
<path d="M-237.962 311.026C-216.61 339.498 -272.151 604.931 225.63 500.343C520.914 438.297 664.547 732.462 932.073 761.623C1162.68 787.509 1543.62 581.916 1948.65 584.336" stroke="#514E39" stroke-width="0.25" stroke-miterlimit="10"/>
<path d="M-242.588 307.016C-224.937 335.488 -280.691 615.252 223.234 503.308C520.251 437.348 662.152 735.831 931.742 764.944C1157.7 790.095 1545.78 587.135 1951.64 589.366" stroke="#52503B" stroke-width="0.25" stroke-miterlimit="10"/>
<path d="M-247.191 302.982C-233.383 331.455 -289.233 625.668 220.814 506.298C519.752 436.422 659.731 739.011 931.386 768.29C1152.81 792.657 1547.91 592.379 1954.73 594.419" stroke="#53513D" stroke-width="0.25" stroke-miterlimit="10"/>
<path d="M-251.723 298.973C-241.711 327.445 -297.655 635.894 218.489 509.287C519.112 435.497 657.406 742.285 931.149 771.612C1147.86 795.338 1550.14 597.623 1957.74 599.449" stroke="#54523F" stroke-width="0.25" stroke-miterlimit="10"/>
<path d="M-256.468 294.963C-250.275 323.435 -306.291 646.429 215.974 512.277C518.376 434.595 654.891 745.583 930.674 774.933C1142.78 797.806 1552.28 602.866 1960.61 604.503" stroke="#555342" stroke-width="0.25" stroke-miterlimit="10"/>
<path d="M-261.071 290.929C-258.698 319.402 -314.524 657.557 213.577 515.267C517.901 434.097 652.495 748.858 930.365 778.279C1137.82 800.369 1554.34 608.086 1963.62 609.534" stroke="#565444" stroke-width="0.25" stroke-miterlimit="10"/>
<path d="M-265.673 286.919C-267.121 315.392 -323.16 667.356 211.205 518.232C517.261 432.816 650.123 752.132 930.081 781.6C1132.93 802.955 1556.43 613.33 1966.69 614.587" stroke="#575546" stroke-width="0.25" stroke-miterlimit="10"/>
</g>
<defs>
<radialGradient id="paint0_radial_1_110508" cx="0" cy="0" r="1" gradientUnits="userSpaceOnUse" gradientTransform="translate(1127.11 99.3894) scale(288.744 130.793)">
<stop stop-color="#D8D8D8"/>
<stop offset="1"/>
</radialGradient>
<radialGradient id="paint1_radial_1_110508" cx="0" cy="0" r="1" gradientUnits="userSpaceOnUse" gradientTransform="translate(920.923 837.76) scale(549.053 248.705)">
<stop stop-color="#D8D8D8"/>
<stop offset="0.05" stop-color="#BEBEBE"/>
<stop offset="0.16" stop-color="#8C8C8C"/>
<stop offset="0.27" stop-color="#616161"/>
<stop offset="0.38" stop-color="#3E3E3E"/>
<stop offset="0.5" stop-color="#232323"/>
<stop offset="0.61" stop-color="#0F0F0F"/>
<stop offset="0.73" stop-color="#040404"/>
<stop offset="0.85"/>
</radialGradient>
<radialGradient id="paint2_radial_1_110508" cx="0" cy="0" r="1" gradientUnits="userSpaceOnUse" gradientTransform="translate(371183 20347.7) scale(41385.5 18660.9)">
<stop stop-color="#D8D8D8"/>
<stop offset="1"/>
</radialGradient>
<radialGradient id="paint3_radial_1_110508" cx="0" cy="0" r="1" gradientUnits="userSpaceOnUse" gradientTransform="translate(1171.21 515.855) rotate(32.2017) scale(288.749 130.79)">
<stop stop-color="#696969"/>
<stop offset="1"/>
</radialGradient>
<radialGradient id="paint4_radial_1_110508" cx="0" cy="0" r="1" gradientUnits="userSpaceOnUse" gradientTransform="translate(517.282 468.264) scale(258.441 118.017)">
<stop stop-color="#DBDBDB"/>
<stop offset="1"/>
</radialGradient>
<radialGradient id="paint5_radial_1_110508" cx="0" cy="0" r="1" gradientUnits="userSpaceOnUse" gradientTransform="translate(1682.42 491.971) rotate(58.7417) scale(196.502 27.6262)">
<stop stop-color="#EDEDED"/>
<stop offset="1"/>
</radialGradient>
</defs>
</svg>
