<svg width="31" height="34" viewBox="0 0 31 34" fill="none" xmlns="http://www.w3.org/2000/svg">
<path d="M30.3061 22.1746C29.8643 21.8026 29.2807 21.6482 28.7179 21.7459L16.895 23.8021L13.5369 20.4439C13.4254 20.3319 13.274 20.2693 13.1154 20.2693H7.15385C7.15385 19.9402 6.88737 19.6731 6.55769 19.6731H4.17308H0V20.8654H3.57692V29.2116H0V30.4039H4.17308H6.55769C6.88737 30.4039 7.15385 30.1368 7.15385 29.8077H8.80162L15.1751 32.9948C15.4511 33.1325 15.7492 33.2016 16.0473 33.201C16.3859 33.201 16.7251 33.1122 17.0285 32.9351L30.0342 25.3485C30.6298 25.0003 31 24.3553 31 23.6656C31 23.0891 30.7466 22.5454 30.3061 22.1746ZM5.96154 29.2116H4.76923V20.8654H5.96154V29.2116ZM29.4327 24.3189L16.4276 31.905C16.207 32.0338 15.9382 32.0427 15.7087 31.9282L9.20938 28.6786C9.12652 28.6369 9.03471 28.6154 8.94231 28.6154H7.15385V21.4616H12.8686L17.5657 26.1581C17.7713 26.3643 17.8846 26.638 17.8846 26.9289C17.8846 27.5304 17.3958 28.0193 16.7948 28.0193C16.5081 28.0193 16.2273 27.903 16.024 27.6997L12.9407 24.617L12.0977 25.46L15.1811 28.5427C15.6121 28.9743 16.1844 29.2116 16.7948 29.2116C18.0527 29.2116 19.0769 28.188 19.0769 26.9289C19.0769 26.3196 18.8397 25.7467 18.4086 25.3151L17.9263 24.8328L28.9218 22.9204C29.1436 22.8816 29.3671 22.943 29.5382 23.0867C29.7093 23.231 29.8077 23.442 29.8077 23.6656C29.8077 23.9332 29.664 24.1836 29.4327 24.3189Z" fill="#3D3D3D"/>
<path d="M20.4246 6.15786L14.4629 12.7152L15.3455 13.5176L21.3073 6.96032L20.4246 6.15786Z" fill="#3D3D3D"/>
<path d="M15.4999 9.83643C16.4859 9.83643 17.2883 9.034 17.2883 8.04796C17.2883 7.06193 16.4859 6.2595 15.4999 6.2595C14.5138 6.2595 13.7114 7.06193 13.7114 8.04796C13.7114 9.034 14.5138 9.83643 15.4999 9.83643ZM15.4999 7.45181C15.829 7.45181 16.096 7.71948 16.096 8.04796C16.096 8.37644 15.829 8.64412 15.4999 8.64412C15.1708 8.64412 14.9037 8.37644 14.9037 8.04796C14.9037 7.71948 15.1708 7.45181 15.4999 7.45181Z" fill="#3D3D3D"/>
<path d="M18.481 11.625C18.481 12.6111 19.2834 13.4135 20.2694 13.4135C21.2555 13.4135 22.0579 12.6111 22.0579 11.625C22.0579 10.639 21.2555 9.83656 20.2694 9.83656C19.2834 9.83656 18.481 10.639 18.481 11.625ZM20.8656 11.625C20.8656 11.9535 20.5985 12.2212 20.2694 12.2212C19.9403 12.2212 19.6733 11.9535 19.6733 11.625C19.6733 11.2965 19.9403 11.0289 20.2694 11.0289C20.5985 11.0289 20.8656 11.2965 20.8656 11.625Z" fill="#3D3D3D"/>
<path d="M17.4519 22.4678C17.5652 22.5865 17.7214 22.6538 17.8847 22.6538C18.048 22.6538 18.2042 22.5865 18.3175 22.4678L27.7713 12.5073C30.479 9.65412 30.479 5.01187 27.7713 2.15927C26.4496 0.766654 24.6904 0 22.8173 0C20.9537 0 19.2034 0.758308 17.8847 2.13662C16.566 0.758308 14.8157 0 12.9521 0C11.079 0 9.31976 0.766654 7.99808 2.15927C5.29035 5.01246 5.29035 9.65471 7.99808 12.5073L17.4519 22.4678ZM8.8631 2.98017C9.95704 1.82721 11.4093 1.19231 12.9521 1.19231C14.4956 1.19231 15.9472 1.82721 17.0411 2.98017L17.4519 3.41358C17.6778 3.65025 18.091 3.65025 18.3169 3.41358L18.7277 2.98017C19.8222 1.82721 21.2744 1.19231 22.8173 1.19231C24.3601 1.19231 25.8118 1.82721 26.9057 2.98017C29.1842 5.38029 29.1842 9.28629 26.9057 11.6864L17.8847 21.1915L8.8631 11.6864C6.5846 9.28629 6.5846 5.38029 8.8631 2.98017Z" fill="#3D3D3D"/>
<path d="M16.0961 14.3077H14.9038V15.5H16.0961V14.3077Z" fill="#3D3D3D"/>
<path d="M18.4809 14.3077H17.2886V15.5H18.4809V14.3077Z" fill="#3D3D3D"/>
<path d="M20.8652 14.3077H19.6729V15.5H20.8652V14.3077Z" fill="#3D3D3D"/>
</svg>
