<svg width="448" height="194" viewBox="0 0 448 194" fill="none" xmlns="http://www.w3.org/2000/svg">
<g filter="url(#filter0_d_1_100145)">
<mask id="mask0_1_100145" style="mask-type:alpha" maskUnits="userSpaceOnUse" x="21" y="0" width="406" height="148">
<path d="M351.899 147.489C328.428 147.489 309.318 128.379 309.318 104.908C309.318 81.4363 328.428 62.3261 351.899 62.3261C375.37 62.3261 394.481 81.4363 394.481 104.908C394.481 128.379 375.37 147.489 351.899 147.489ZM351.899 70.1763C332.789 70.1763 317.247 85.7182 317.247 104.828C317.247 123.939 332.789 139.48 351.899 139.48C371.009 139.48 386.551 123.939 386.551 104.828C386.551 85.7182 371.009 70.1763 351.899 70.1763Z" fill="white"/>
<path d="M94.8239 147.489C71.3525 147.489 52.2423 128.379 52.2423 104.908C52.2423 81.4363 71.3525 62.3261 94.8239 62.3261C118.295 62.3261 137.405 81.4363 137.405 104.908C137.405 128.379 118.295 147.489 94.8239 147.489ZM94.8239 70.1763C75.7137 70.1763 60.1719 85.7182 60.1719 104.828C60.1719 123.939 75.7137 139.56 94.8239 139.56C113.934 139.56 129.476 124.018 129.476 104.908C129.476 85.7975 113.934 70.1763 94.8239 70.1763Z" fill="white"/>
<path d="M94.8239 127.824C82.2159 127.824 71.9075 117.515 71.9075 104.908C71.9075 92.2996 82.2159 81.9912 94.8239 81.9912C107.432 81.9912 117.74 92.2996 117.74 104.908C117.74 117.515 107.432 127.824 94.8239 127.824ZM94.8239 89.8415C86.5772 89.8415 79.8371 96.5816 79.8371 104.828C79.8371 113.075 86.5772 119.815 94.8239 119.815C103.071 119.815 109.811 113.075 109.811 104.828C109.811 96.5816 103.071 89.8415 94.8239 89.8415Z" fill="white"/>
<path d="M351.74 127.824C339.132 127.824 328.824 117.515 328.824 104.908C328.824 92.2996 339.132 81.9912 351.74 81.9912C364.348 81.9912 374.657 92.2996 374.657 104.908C374.657 117.515 364.348 127.824 351.74 127.824ZM351.74 89.8415C343.494 89.8415 336.754 96.5816 336.754 104.828C336.754 113.075 343.494 119.815 351.74 119.815C359.987 119.815 366.727 113.075 366.727 104.828C366.727 96.5816 359.987 89.8415 351.74 89.8415Z" fill="white"/>
<path d="M413.511 127.665H385.52V119.736H409.547V104.828C409.547 104.273 409.626 103.718 409.864 103.242L418.111 84.4494L402.331 72.6344C384.886 59.5507 363.318 52.3349 341.511 52.3349H308.049C307.256 52.3349 306.463 52.097 305.829 51.6212L270.701 27.7533C251.511 14.7489 229.15 7.85022 205.996 7.85022H123.053L28.9295 36.6344V40.4406H33.6872C35.9075 40.4406 37.652 42.1851 37.652 44.4053V78.5023C37.652 80.7226 35.9075 82.467 33.6872 82.467H28.9295V104.115L40.8238 119.736H61.1234V127.665H38.8414C37.5727 127.665 36.4626 127.11 35.6696 126.079L21.793 107.842C21.2379 107.128 21 106.335 21 105.463V78.5023C21 76.282 22.7445 74.5375 24.9648 74.5375H29.7225V48.3701H24.9648C22.7445 48.3701 21 46.6256 21 44.4053V33.7005C21 31.956 22.1101 30.4494 23.7753 29.8943L121.308 0.158588C121.705 0.0792928 122.101 0 122.498 0H205.996C230.736 0 254.683 7.37446 275.141 21.2511L309.238 44.4053H341.511C364.983 44.4053 388.296 52.1763 407.089 66.2908L425.406 80.0089C426.912 81.119 427.388 83.1014 426.674 84.7666L417.476 105.701V123.701C417.476 125.921 415.732 127.665 413.511 127.665Z" fill="white"/>
<path d="M261.423 119.736H318.198V127.665H261.423V119.736Z" fill="white"/>
<path d="M128.445 119.736H245.564V127.665H128.445V119.736Z" fill="white"/>
<path d="M50.8943 82.467H33.6872C31.467 82.467 29.7225 80.7225 29.7225 78.5023V44.4053C29.7225 42.185 31.467 40.4406 33.6872 40.4406H50.9736C52.5595 40.4406 53.9868 41.3921 54.6212 42.8194L62.9472 62.2467C63.423 63.3569 63.3437 64.7049 62.7886 65.7357L54.4626 80.4053C53.6696 81.6741 52.3216 82.467 50.8943 82.467ZM37.652 74.5375H48.5947L54.7798 63.5948L48.3569 48.3701H37.652V74.5375Z" fill="white"/>
<path d="M283.467 50.749H223.996C223.758 50.749 223.599 50.749 223.361 50.6697L143.67 38.3789L144.859 30.5287L224.313 42.8195H271.097L267.846 40.5199C248.181 26.4846 225.027 19.0309 200.842 19.0309H130.19L109.414 25.1366L129.079 28.1498L127.89 36.0001L90.6212 30.2908C88.7975 29.9736 87.3701 28.467 87.2908 26.6432C87.1323 24.8194 88.3217 23.0749 90.1455 22.5992L128.604 11.3393C129 11.26 129.317 11.1807 129.714 11.1807H200.921C226.771 11.1807 251.511 19.1102 272.525 34.097L285.846 43.6124C287.273 44.6432 287.829 46.3878 287.353 48.053C286.718 49.6389 285.212 50.749 283.467 50.749Z" fill="white"/>
<path d="M175.784 43.3745C175.546 43.3745 175.388 43.3745 175.15 43.2952L158.974 40.837C157.071 40.5198 155.643 38.8547 155.643 36.9516V15.0661C155.643 12.8458 157.388 11.1013 159.608 11.1013H175.784C178.005 11.1013 179.749 12.8458 179.749 15.0661V39.3304C179.749 40.5198 179.273 41.5507 178.401 42.3436C177.687 42.978 176.736 43.3745 175.784 43.3745ZM163.573 33.4626L171.82 34.7313V19.0308H163.573V33.4626Z" fill="white"/>
<path d="M303.45 108.793L174.516 101.101C173.405 101.022 172.375 100.467 171.661 99.5948L147.159 68.6697C146.366 67.7181 146.128 66.4494 146.445 65.26C146.762 64.0705 147.555 63.119 148.665 62.5639L174.278 51.0661C174.991 50.7489 175.705 50.6696 176.498 50.7489L302.102 69.7798L300.912 77.63L176.419 58.837L156.595 67.7181L176.815 93.2512L304.005 100.864L303.45 108.793Z" fill="white"/>
<path d="M398.445 79.2952H423.027V87.2247H398.445V79.2952Z" fill="white"/>
</mask>
<g mask="url(#mask0_1_100145)">
<rect x="-56.7431" y="-47.1891" width="552.84" height="250.505" rx="12" fill="url(#paint0_linear_1_100145)"/>
</g>
</g>
<defs>
<filter id="filter0_d_1_100145" x="0" y="0" width="448" height="193.489" filterUnits="userSpaceOnUse" color-interpolation-filters="sRGB">
<feFlood flood-opacity="0" result="BackgroundImageFix"/>
<feColorMatrix in="SourceAlpha" type="matrix" values="0 0 0 0 0 0 0 0 0 0 0 0 0 0 0 0 0 0 127 0" result="hardAlpha"/>
<feOffset dy="25"/>
<feGaussianBlur stdDeviation="10.5"/>
<feComposite in2="hardAlpha" operator="out"/>
<feColorMatrix type="matrix" values="0 0 0 0 0.894118 0 0 0 0 0.788235 0 0 0 0 0.584314 0 0 0 0.17 0"/>
<feBlend mode="normal" in2="BackgroundImageFix" result="effect1_dropShadow_1_100145"/>
<feBlend mode="normal" in="SourceGraphic" in2="effect1_dropShadow_1_100145" result="shape"/>
</filter>
<linearGradient id="paint0_linear_1_100145" x1="-5.31614" y1="-22.6297" x2="446.73" y2="89.2987" gradientUnits="userSpaceOnUse">
<stop stop-color="#B48A3D"/>
<stop offset="0.478771" stop-color="#FCECCE"/>
<stop offset="1" stop-color="#CCAB6C"/>
</linearGradient>
</defs>
</svg>
