<svg width="54" height="54" viewBox="0 0 54 54" fill="none" xmlns="http://www.w3.org/2000/svg">
<path d="M28.9209 17.1996L38.9443 7.88263C38.9526 7.87493 38.96 7.8667 38.9679 7.85869C38.9735 7.85299 38.9791 7.84751 38.9846 7.84171C39.0068 7.81798 39.0276 7.7933 39.0464 7.76756C39.0488 7.76429 39.0509 7.76081 39.0532 7.75754C39.071 7.73234 39.0872 7.70639 39.1018 7.67971C39.1035 7.67665 39.1057 7.67401 39.1073 7.67085C39.1082 7.66905 39.1089 7.66705 39.1098 7.66526C39.1252 7.63594 39.1387 7.60588 39.1502 7.57508C39.1522 7.5697 39.1539 7.56422 39.1558 7.55884C39.1655 7.53131 39.1737 7.50326 39.1804 7.47489C39.1815 7.47004 39.183 7.46518 39.1841 7.46033C39.1907 7.42932 39.1953 7.398 39.1982 7.36647C39.1988 7.35929 39.1993 7.35223 39.1998 7.34505C39.2018 7.31531 39.2025 7.28546 39.2012 7.25562C39.2011 7.25298 39.2012 7.25045 39.2011 7.24781C39.1994 7.21564 39.1953 7.18358 39.1897 7.15162C39.1885 7.14509 39.1872 7.13855 39.186 7.13201C39.1733 7.06862 39.153 7.00639 39.1247 6.94638C39.1214 6.93953 39.1182 6.93278 39.1147 6.92603C39.0998 6.89671 39.0838 6.86781 39.0651 6.83996L34.7128 0.358805C34.7082 0.351949 34.7026 0.345938 34.6979 0.339188C34.6856 0.322102 34.6732 0.305437 34.6598 0.289512C34.652 0.28023 34.6437 0.271477 34.6355 0.262617C34.6204 0.24627 34.6052 0.230238 34.5889 0.215156C34.5814 0.208301 34.5736 0.201973 34.5659 0.195434C34.5478 0.17993 34.5294 0.164848 34.5101 0.151031C34.5038 0.146496 34.497 0.142488 34.4905 0.138164C34.4689 0.123715 34.4471 0.109793 34.4243 0.0975586C34.4202 0.0953438 34.4159 0.0936562 34.4118 0.0915469C34.2991 0.0331172 34.1728 0 34.0415 0H19.9675C19.9316 0 19.8961 0.00242578 19.8609 0.00706641C19.6292 0.0351211 19.4191 0.162316 19.2872 0.358805L14.9351 6.83996C14.9163 6.86781 14.9003 6.89681 14.8854 6.92613C14.8821 6.93288 14.8787 6.93953 14.8755 6.94638C14.8473 7.00639 14.8268 7.06873 14.8141 7.13211C14.8129 7.13855 14.8116 7.14498 14.8105 7.15152C14.8049 7.18348 14.8008 7.21554 14.7991 7.24781C14.799 7.25034 14.7991 7.25298 14.799 7.25562C14.7977 7.28557 14.7983 7.31542 14.8003 7.34516C14.8009 7.35223 14.8013 7.35919 14.8019 7.36636C14.8049 7.39789 14.8094 7.42932 14.816 7.46033C14.8171 7.46518 14.8186 7.47004 14.8197 7.47489C14.8264 7.50326 14.8346 7.53131 14.8443 7.55895C14.8462 7.56432 14.8478 7.5697 14.8499 7.57498C14.8615 7.60577 14.875 7.63583 14.8904 7.66526C14.8914 7.66705 14.8919 7.66905 14.8929 7.67085C14.8946 7.67391 14.8967 7.67654 14.8984 7.67971C14.9131 7.70639 14.9292 7.73234 14.947 7.75754C14.9494 7.76081 14.9515 7.76429 14.9538 7.76756C14.9727 7.7933 14.9933 7.81798 15.0156 7.84171C15.0211 7.84751 15.0267 7.8531 15.0324 7.85869C15.0403 7.8667 15.0477 7.87493 15.0559 7.88263L25.0793 17.1996C17.0075 18.1531 10.7254 25.0364 10.7254 33.3604C10.7254 42.3343 18.0262 49.6351 27.0001 49.6351C35.974 49.6351 43.2748 42.3343 43.2748 33.3604C43.2748 25.0364 36.9928 18.1531 28.9209 17.1996ZM28.7673 15.1349L31.1123 8.09884H36.3368L28.7673 15.1349ZM27.0021 15.319L24.608 8.09895H29.4084L27.0021 15.319ZM34.1147 2.36809L36.8774 6.48221H31.8816L34.1147 2.36809ZM32.6825 1.61779L30.5225 5.59744L28.3625 1.61779H32.6825ZM29.1632 6.48221H24.8458L27.0045 2.50509L29.1632 6.48221ZM25.6466 1.61779L23.4866 5.59754L21.3266 1.61779H25.6466ZM19.8903 2.36071L22.1274 6.48221H17.1228L19.8903 2.36071ZM17.6632 8.09895H22.9047L25.2399 15.1417L17.6632 8.09895ZM27 48.0182C18.9176 48.0182 12.3421 41.4427 12.3421 33.3603C12.3421 25.2779 18.9176 18.7024 27 18.7024C35.0824 18.7024 41.6579 25.2779 41.6579 33.3603C41.6579 41.4427 35.0824 48.0182 27 48.0182Z" fill="#B9B9B9"/>
<path d="M35.1019 14.3734C34.6912 14.198 34.2163 14.3889 34.041 14.7993C33.8656 15.2099 34.0563 15.6848 34.4669 15.8602C41.4869 18.8591 46.023 25.7283 46.023 33.3604C46.023 43.8497 37.4893 52.3834 27 52.3834C16.5107 52.3834 7.97703 43.8496 7.97703 33.3603C7.97703 25.7138 12.5249 18.8395 19.5633 15.8473C19.9741 15.6726 20.1655 15.198 19.991 14.7871C19.8161 14.3761 19.3415 14.1848 18.9308 14.3595C11.2944 17.606 6.3603 25.0642 6.3603 33.3603C6.3603 44.7411 15.6192 54 27 54C38.3808 54 47.6397 44.7411 47.6397 33.3603C47.6397 25.0797 42.7183 17.627 35.1019 14.3734Z" fill="#B9B9B9"/>
</svg>
