<svg width="95" height="36" viewBox="0 0 95 36" fill="none" xmlns="http://www.w3.org/2000/svg">
<mask id="mask0_1_100190" style="mask-type:alpha" maskUnits="userSpaceOnUse" x="0" y="0" width="95" height="36">
<path d="M76.6137 35.0742C71.1793 35.0742 66.7547 30.6496 66.7547 25.2152C66.7547 19.7809 71.1793 15.3562 76.6137 15.3562C82.0481 15.3562 86.4727 19.7809 86.4727 25.2152C86.4727 30.6496 82.0481 35.0742 76.6137 35.0742ZM76.6137 17.1738C72.1891 17.1738 68.5906 20.7723 68.5906 25.1969C68.5906 29.6215 72.1891 33.2199 76.6137 33.2199C81.0383 33.2199 84.6367 29.6215 84.6367 25.1969C84.6367 20.7723 81.0383 17.1738 76.6137 17.1738Z" fill="white"/>
<path d="M17.0926 35.0742C11.6582 35.0742 7.2336 30.6496 7.2336 25.2152C7.2336 19.7809 11.6582 15.3562 17.0926 15.3562C22.527 15.3562 26.9516 19.7809 26.9516 25.2152C26.9516 30.6496 22.527 35.0742 17.0926 35.0742ZM17.0926 17.1738C12.668 17.1738 9.06953 20.7723 9.06953 25.1969C9.06953 29.6215 12.668 33.2383 17.0926 33.2383C21.5172 33.2383 25.1156 29.6398 25.1156 25.2152C25.1156 20.7906 21.5172 17.1738 17.0926 17.1738Z" fill="white"/>
<path d="M17.0926 30.5211C14.1734 30.5211 11.7867 28.1344 11.7867 25.2152C11.7867 22.2961 14.1734 19.9094 17.0926 19.9094C20.0117 19.9094 22.3984 22.2961 22.3984 25.2152C22.3984 28.1344 20.0117 30.5211 17.0926 30.5211ZM17.0926 21.727C15.1832 21.727 13.6227 23.2875 13.6227 25.1969C13.6227 27.1063 15.1832 28.6668 17.0926 28.6668C19.0019 28.6668 20.5625 27.1063 20.5625 25.1969C20.5625 23.2875 19.0019 21.727 17.0926 21.727Z" fill="white"/>
<path d="M76.5769 30.5211C73.6578 30.5211 71.2711 28.1344 71.2711 25.2152C71.2711 22.2961 73.6578 19.9094 76.5769 19.9094C79.4961 19.9094 81.8828 22.2961 81.8828 25.2152C81.8828 28.1344 79.4961 30.5211 76.5769 30.5211ZM76.5769 21.727C74.6676 21.727 73.107 23.2875 73.107 25.1969C73.107 27.1063 74.6676 28.6668 76.5769 28.6668C78.4863 28.6668 80.0469 27.1063 80.0469 25.1969C80.0469 23.2875 78.4863 21.727 76.5769 21.727Z" fill="white"/>
<path d="M90.8789 30.4844H84.398V28.6484H89.9609V25.1969C89.9609 25.0684 89.9793 24.9398 90.0344 24.8297L91.9437 20.4785L88.2902 17.743C84.2512 14.7137 79.2574 13.043 74.2086 13.043H66.4609C66.2773 13.043 66.0938 12.9879 65.9469 12.8777L57.8137 7.35156C53.3707 4.34063 48.1934 2.74336 42.8324 2.74336H23.6285L1.83594 9.40781V10.2891H2.9375C3.45156 10.2891 3.85547 10.693 3.85547 11.207V19.1016C3.85547 19.6156 3.45156 20.0195 2.9375 20.0195H1.83594V25.0316L4.58984 28.6484H9.28984V30.4844H4.13086C3.83711 30.4844 3.58008 30.3559 3.39648 30.1172L0.183594 25.8945C0.0550781 25.7293 0 25.5457 0 25.3438V19.1016C0 18.5875 0.403906 18.1836 0.917969 18.1836H2.01953V12.125H0.917969C0.403906 12.125 0 11.7211 0 11.207V8.72852C0 8.32461 0.257031 7.97578 0.642578 7.84727L23.2246 0.962499C23.3164 0.94414 23.4082 0.925781 23.5 0.925781H42.8324C48.5605 0.925781 54.1051 2.6332 58.8418 5.84609L66.7363 11.207H74.2086C79.643 11.207 85.0406 13.0063 89.3918 16.2742L93.6328 19.4504C93.9816 19.7074 94.0918 20.1664 93.9266 20.552L91.7969 25.3988V29.5664C91.7969 30.0805 91.393 30.4844 90.8789 30.4844Z" fill="white"/>
<path d="M55.6656 28.6484H68.8109V30.4844H55.6656V28.6484Z" fill="white"/>
<path d="M24.877 28.6484H51.9938V30.4844H24.877V28.6484Z" fill="white"/>
<path d="M6.92148 20.0195H2.9375C2.42344 20.0195 2.01953 19.6156 2.01953 19.1016V11.207C2.01953 10.693 2.42344 10.2891 2.9375 10.2891H6.93984C7.30703 10.2891 7.6375 10.5094 7.78438 10.8398L9.71211 15.3379C9.82227 15.5949 9.80391 15.907 9.67539 16.1457L7.74766 19.5422C7.56406 19.8359 7.25195 20.0195 6.92148 20.0195ZM3.85547 18.1836H6.38906L7.82109 15.65L6.33398 12.125H3.85547V18.1836Z" fill="white"/>
<path d="M60.7695 12.6758H47C46.9449 12.6758 46.9082 12.6758 46.8531 12.6574L28.402 9.81171L28.6774 7.99414L47.0734 10.8398H57.9055L57.1527 10.3074C52.5996 7.05781 47.2387 5.33203 41.6391 5.33203H25.2809L20.4707 6.7457L25.0238 7.44336L24.7484 9.26093L16.1195 7.93906C15.6973 7.86562 15.3668 7.51679 15.3484 7.09453C15.3117 6.67226 15.5871 6.26836 16.0094 6.1582L24.9137 3.55117C25.0055 3.53281 25.0789 3.51445 25.1707 3.51445H41.6574C47.6426 3.51445 53.3707 5.35039 58.2359 8.82031L61.3203 11.0234C61.6508 11.2621 61.7793 11.666 61.6691 12.0516C61.5223 12.4187 61.1734 12.6758 60.7695 12.6758Z" fill="white"/>
<path d="M35.8375 10.9684C35.7824 10.9684 35.7457 10.9684 35.6906 10.95L31.9453 10.3809C31.5047 10.3074 31.1742 9.92187 31.1742 9.48125V4.41406C31.1742 3.9 31.5781 3.49609 32.0922 3.49609H35.8375C36.3516 3.49609 36.7555 3.9 36.7555 4.41406V10.032C36.7555 10.3074 36.6453 10.5461 36.4434 10.7297C36.2781 10.8766 36.0578 10.9684 35.8375 10.9684ZM33.0102 8.67344L34.9195 8.96719V5.33203H33.0102V8.67344Z" fill="white"/>
<path d="M65.3961 26.1148L35.5438 24.334C35.2867 24.3156 35.048 24.1871 34.8828 23.9852L29.2098 16.825C29.0262 16.6047 28.9711 16.3109 29.0445 16.0355C29.118 15.7602 29.3016 15.5398 29.5586 15.4113L35.4887 12.7492C35.6539 12.6758 35.8191 12.6574 36.0027 12.6758L65.084 17.082L64.8086 18.8996L35.9844 14.5484L31.3945 16.6047L36.0762 22.5164L65.5246 24.2789L65.3961 26.1148Z" fill="white"/>
<path d="M87.3906 19.2852H93.082V21.1211H87.3906V19.2852Z" fill="white"/>
</mask>
<g mask="url(#mask0_1_100190)">
<rect x="-18" y="-10" width="128" height="58" rx="12" fill="url(#paint0_linear_1_100190)"/>
</g>
<defs>
<linearGradient id="paint0_linear_1_100190" x1="-6.09303" y1="-4.31371" x2="98.57" y2="21.6013" gradientUnits="userSpaceOnUse">
<stop stop-color="#B48A3D"/>
<stop offset="0.478771" stop-color="#FCECCE"/>
<stop offset="1" stop-color="#CCAB6C"/>
</linearGradient>
</defs>
</svg>
