<svg width="50" height="50" viewBox="0 0 50 50" fill="none" xmlns="http://www.w3.org/2000/svg">
<g clip-path="url(#clip0_193_12)">
<path d="M49.9321 33.8389L47.4322 28.0057L47.4288 28.0074C47.4247 27.9974 47.4238 27.9857 47.4188 27.9757C47.2805 27.6849 46.988 27.4999 46.6664 27.4999H43.724L43.9731 27.2007C44.2331 26.8882 44.2306 26.4333 43.9648 26.1249L38.9649 20.2918L38.9641 20.2926C38.8083 20.1101 38.58 20.0001 38.3333 20.0001H27.5003C27.2703 20.0001 27.0503 20.0951 26.8928 20.2634L20.1089 27.4999H16.6673C16.4373 27.4999 16.2173 27.5949 16.0598 27.7632L3.56022 41.0961C3.55605 41.1003 3.55438 41.1061 3.55022 41.1103C3.52105 41.1428 3.49855 41.182 3.47439 41.2186C3.45439 41.2495 3.43105 41.2786 3.41522 41.312C3.41272 41.3178 3.40772 41.322 3.40522 41.3278L0.0719917 48.8276C-0.0430047 49.0859 -0.0188388 49.3834 0.13449 49.62C0.287818 49.8567 0.551977 49.9992 0.834468 49.9992H20.0005H39.1666C39.4458 49.9992 39.7049 49.8592 39.8591 49.6275L39.8599 49.6284L39.8641 49.6217C39.8641 49.6209 39.8649 49.6209 39.8657 49.62C39.8657 49.6192 39.8657 49.6192 39.8666 49.6184L49.8596 34.6288C50.0163 34.3947 50.0438 34.0972 49.9321 33.8389ZM44.9156 29.1665L35.4367 40.8328H32.6126L42.3348 29.1665H44.9156ZM38.3508 22.1334L42.2415 26.6733L41.3049 27.7982L41.304 27.799L31.051 40.1028L28.4694 34.2955L38.3508 22.1334ZM29.5511 40.8328H23.3338H16.6673H12.9499L14.9249 36.3888L15.5415 34.9997H26.9587L29.5511 40.8328ZM27.862 21.6667H36.5834L27.1036 33.333H16.9248L27.862 21.6667ZM17.029 29.1665H18.5456L14.3932 33.5964C14.389 33.6005 14.3874 33.6055 14.384 33.6097C14.3549 33.6422 14.3324 33.6814 14.3082 33.718C14.2882 33.7489 14.2649 33.778 14.249 33.8114C14.2465 33.8172 14.2415 33.8214 14.239 33.8272L11.1258 40.8328H6.0918L17.029 29.1665ZM2.11693 48.3326L4.70851 42.4994H11.6675H16.1265L18.7181 48.3326H2.11693ZM17.9498 42.4994H22.0513L20.0005 47.1135L17.9498 42.4994ZM21.283 48.3326L23.8746 42.4994H30.8335H35.2926L37.8841 48.3326H21.283ZM39.3133 47.4434L36.8025 41.7944L46.4439 29.9281L48.2222 34.0789L39.3133 47.4434Z" fill="url(#paint0_linear_193_12)"/>
<path d="M7.50123 3.33408C6.12294 3.33408 5.00131 2.21245 5.00131 0.834162C5.00131 0.373343 4.62882 0.000854492 4.168 0.000854492C3.70718 0.000854492 3.33469 0.373343 3.33469 0.834162C3.33469 2.21245 2.21306 3.33408 0.834772 3.33408C0.373953 3.33408 0.00146484 3.70657 0.00146484 4.16739C0.00146484 4.62821 0.373953 5.0007 0.834772 5.0007C2.21306 5.0007 3.33469 6.12233 3.33469 7.50062C3.33469 7.96144 3.70718 8.33393 4.168 8.33393C4.62882 8.33393 5.00131 7.96144 5.00131 7.50062C5.00131 6.12233 6.12294 5.0007 7.50123 5.0007C7.96205 5.0007 8.33454 4.62821 8.33454 4.16739C8.33454 3.70657 7.96205 3.33408 7.50123 3.33408ZM4.168 5.0032C3.93051 4.68654 3.64885 4.40488 3.33219 4.16739C3.64885 3.9299 3.93051 3.64824 4.168 3.33158C4.40549 3.64824 4.68715 3.9299 5.00381 4.16739C4.68715 4.40488 4.40549 4.68654 4.168 5.0032Z" fill="url(#paint1_linear_193_12)"/>
<path d="M20.0007 18.3335C18.6225 18.3335 17.5008 17.2118 17.5008 15.8336C17.5008 15.3727 17.1283 15.0002 16.6675 15.0002C16.2067 15.0002 15.8342 15.3727 15.8342 15.8336C15.8342 17.2118 14.7126 18.3335 13.3343 18.3335C12.8735 18.3335 12.501 18.706 12.501 19.1668C12.501 19.6276 12.8735 20.0001 13.3343 20.0001C14.7126 20.0001 15.8342 21.1217 15.8342 22.5C15.8342 22.9608 16.2067 23.3333 16.6675 23.3333C17.1283 23.3333 17.5008 22.9608 17.5008 22.5C17.5008 21.1217 18.6225 20.0001 20.0007 20.0001C20.4616 20.0001 20.8341 19.6276 20.8341 19.1668C20.8341 18.706 20.4616 18.3335 20.0007 18.3335ZM16.6675 20.0026C16.43 19.6859 16.1484 19.4043 15.8317 19.1668C16.1484 18.9293 16.43 18.6476 16.6675 18.331C16.905 18.6476 17.1867 18.9293 17.5033 19.1668C17.1867 19.4043 16.905 19.6859 16.6675 20.0026Z" fill="url(#paint2_linear_193_12)"/>
<path d="M22.5006 0.834045H20.834V2.50066H22.5006V0.834045Z" fill="url(#paint3_linear_193_12)"/>
<path d="M5.8341 11.6671H4.16748V13.3337H5.8341V11.6671Z" fill="url(#paint4_linear_193_12)"/>
<path d="M49.1662 6.66719C45.9505 6.66719 43.3331 4.04977 43.3331 0.834039C43.3331 0.373221 42.9606 0.000732422 42.4998 0.000732422C42.0389 0.000732422 41.6665 0.373221 41.6665 0.834039C41.6665 4.04977 39.049 6.66719 35.8333 6.66719C35.3725 6.66719 35 7.03968 35 7.5005C35 7.96131 35.3725 8.3338 35.8333 8.3338C39.049 8.3338 41.6665 10.9512 41.6665 14.167C41.6665 14.6278 42.0389 15.0003 42.4998 15.0003C42.9606 15.0003 43.3331 14.6278 43.3331 14.167C43.3331 10.9512 45.9505 8.3338 49.1662 8.3338C49.627 8.3338 49.9995 7.96131 49.9995 7.5005C49.9995 7.03968 49.627 6.66719 49.1662 6.66719ZM42.4998 10.7329C41.7848 9.3496 40.6507 8.21547 39.2674 7.5005C40.6507 6.78552 41.7848 5.65139 42.4998 4.2681C43.2147 5.65139 44.3489 6.78552 45.7322 7.5005C44.3489 8.21547 43.2147 9.3496 42.4998 10.7329Z" fill="url(#paint5_linear_193_12)"/>
<path d="M35.8331 15.0002H34.1665V16.6669H35.8331V15.0002Z" fill="url(#paint6_linear_193_12)"/>
<path d="M49.9996 20.8334H48.333V22.5H49.9996V20.8334Z" fill="url(#paint7_linear_193_12)"/>
<path d="M1.66759 29.1665H0.000976562V30.8331H1.66759V29.1665Z" fill="url(#paint8_linear_193_12)"/>
</g>
<defs>
<linearGradient id="paint0_linear_193_12" x1="-3.47517e-07" y1="18.801" x2="30.3606" y2="54.2909" gradientUnits="userSpaceOnUse">
<stop stop-color="#B48A3D"/>
<stop offset="0.447917" stop-color="#FCECCD"/>
<stop offset="1" stop-color="#CCAB6C"/>
</linearGradient>
<linearGradient id="paint1_linear_193_12" x1="0.00146479" y1="-0.332243" x2="8.02757" y2="5.29683" gradientUnits="userSpaceOnUse">
<stop stop-color="#B48A3D"/>
<stop offset="0.447917" stop-color="#FCECCD"/>
<stop offset="1" stop-color="#CCAB6C"/>
</linearGradient>
<linearGradient id="paint2_linear_193_12" x1="12.501" y1="14.6671" x2="20.5271" y2="20.2962" gradientUnits="userSpaceOnUse">
<stop stop-color="#B48A3D"/>
<stop offset="0.447917" stop-color="#FCECCD"/>
<stop offset="1" stop-color="#CCAB6C"/>
</linearGradient>
<linearGradient id="paint3_linear_193_12" x1="20.834" y1="0.767426" x2="22.4392" y2="1.89324" gradientUnits="userSpaceOnUse">
<stop stop-color="#B48A3D"/>
<stop offset="0.447917" stop-color="#FCECCD"/>
<stop offset="1" stop-color="#CCAB6C"/>
</linearGradient>
<linearGradient id="paint4_linear_193_12" x1="4.16748" y1="11.6004" x2="5.7727" y2="12.7262" gradientUnits="userSpaceOnUse">
<stop stop-color="#B48A3D"/>
<stop offset="0.447917" stop-color="#FCECCD"/>
<stop offset="1" stop-color="#CCAB6C"/>
</linearGradient>
<linearGradient id="paint5_linear_193_12" x1="35" y1="-0.598842" x2="49.447" y2="9.53348" gradientUnits="userSpaceOnUse">
<stop stop-color="#B48A3D"/>
<stop offset="0.447917" stop-color="#FCECCD"/>
<stop offset="1" stop-color="#CCAB6C"/>
</linearGradient>
<linearGradient id="paint6_linear_193_12" x1="34.1665" y1="14.9336" x2="35.7717" y2="16.0594" gradientUnits="userSpaceOnUse">
<stop stop-color="#B48A3D"/>
<stop offset="0.447917" stop-color="#FCECCD"/>
<stop offset="1" stop-color="#CCAB6C"/>
</linearGradient>
<linearGradient id="paint7_linear_193_12" x1="48.333" y1="20.7668" x2="49.9382" y2="21.8926" gradientUnits="userSpaceOnUse">
<stop stop-color="#B48A3D"/>
<stop offset="0.447917" stop-color="#FCECCD"/>
<stop offset="1" stop-color="#CCAB6C"/>
</linearGradient>
<linearGradient id="paint8_linear_193_12" x1="0.000976551" y1="29.0999" x2="1.6062" y2="30.2257" gradientUnits="userSpaceOnUse">
<stop stop-color="#B48A3D"/>
<stop offset="0.447917" stop-color="#FCECCD"/>
<stop offset="1" stop-color="#CCAB6C"/>
</linearGradient>
<clipPath id="clip0_193_12">
<rect width="50" height="50" fill="white"/>
</clipPath>
</defs>
</svg>
