<svg width="29" height="43" viewBox="0 0 29 43" fill="none" xmlns="http://www.w3.org/2000/svg">
<path d="M14.5002 39.344C20.4796 39.344 25.3441 34.4795 25.3441 28.5002C25.3441 22.5208 20.4796 17.6562 14.5002 17.6562C8.52077 17.6562 3.65625 22.5208 3.65625 28.5002C3.65617 34.4795 8.52077 39.344 14.5002 39.344ZM14.5002 18.8933C19.7973 18.8933 24.107 23.2029 24.107 28.5001C24.107 33.7973 19.7973 38.1069 14.5002 38.1069C9.20299 38.1069 4.89335 33.7973 4.89335 28.5002C4.89335 23.203 9.20291 18.8933 14.5002 18.8933Z" fill="#B6B6B6"/>
<path d="M11.6687 32.9383C12.5079 33.4873 13.0782 33.6456 13.8236 33.684V34.4221C13.8236 34.7638 14.1005 35.0406 14.4421 35.0406C14.7838 35.0406 15.0607 34.7638 15.0607 34.4221V33.6361C16.5254 33.3615 17.3809 32.1597 17.5696 31.0372C17.8104 29.6047 17.0608 28.3591 15.6599 27.8638C15.4631 27.7943 15.2615 27.7212 15.0607 27.6449V24.4565C15.8052 24.5468 16.3392 24.868 16.3511 24.8752C16.6396 25.0553 17.0199 24.9687 17.2018 24.6806C17.3841 24.3916 17.2975 24.0096 17.0086 23.8273C16.962 23.798 16.1698 23.3091 15.0607 23.2119V22.578C15.0607 22.2363 14.7838 21.9595 14.4421 21.9595C14.1005 21.9595 13.8236 22.2363 13.8236 22.578V23.2851C13.7181 23.3077 13.6116 23.3344 13.504 23.3668C12.5829 23.6443 11.8944 24.4331 11.7075 25.4252C11.5373 26.3287 11.8259 27.1994 12.4609 27.6975C12.8045 27.967 13.2334 28.2138 13.8236 28.4751V32.4457C13.2937 32.4116 12.9387 32.2909 12.346 31.9031C12.0601 31.7161 11.6767 31.7962 11.4897 32.0821C11.3026 32.3679 11.3828 32.7513 11.6687 32.9383ZM13.2243 26.724C12.9542 26.5121 12.8387 26.1021 12.9232 25.6542C13.0006 25.2431 13.2783 24.7468 13.8236 24.5642V27.1019C13.597 26.9818 13.3925 26.8559 13.2243 26.724ZM15.2475 29.0302C16.4781 29.465 16.4021 30.5194 16.3495 30.8321C16.2451 31.4531 15.8068 32.1136 15.0606 32.3585V28.9633C15.1221 28.9855 15.1835 29.0076 15.2475 29.0302Z" fill="#B6B6B6"/>
<path d="M5.82117 10.6456L6.59766 10.0252V13.9587C6.59766 14.3004 6.87453 14.5773 7.21621 14.5773C7.5579 14.5773 7.83476 14.3004 7.83476 13.9587V10.0252L8.61125 10.6456C8.72531 10.7366 8.86155 10.7809 8.99698 10.7809C9.1785 10.7809 9.35854 10.7013 9.4806 10.5485C9.69388 10.2816 9.65041 9.89237 9.38345 9.67917L7.60227 8.2561C7.37646 8.07565 7.05588 8.07565 6.83007 8.2561L5.04889 9.67917C4.78201 9.89237 4.73847 10.2816 4.95174 10.5485C5.1651 10.8153 5.55421 10.8589 5.82117 10.6456Z" fill="#B6B6B6"/>
<path d="M19.5182 10.5485C19.7315 10.8153 20.1205 10.859 20.3875 10.6457L21.164 10.0253V13.9588C21.164 14.3005 21.4409 14.5774 21.7826 14.5774C22.1243 14.5774 22.4011 14.3005 22.4011 13.9588V10.0253L23.1776 10.6457C23.2917 10.7367 23.4279 10.781 23.5633 10.781C23.7449 10.781 23.9249 10.7014 24.047 10.5486C24.2602 10.2817 24.2168 9.89246 23.9498 9.67927L22.1686 8.25619C21.9428 8.07574 21.6222 8.07574 21.3964 8.25619L19.6153 9.67927C19.3484 9.89229 19.3049 10.2816 19.5182 10.5485Z" fill="#B6B6B6"/>
<path d="M14.5 13.9998C6.50467 13.9998 0 20.5045 0 28.4999C0 32.2102 1.40106 35.7407 3.94519 38.4409C4.1795 38.6895 4.57092 38.7011 4.81966 38.4669C5.06831 38.2326 5.07986 37.8412 4.84564 37.5925C2.51865 35.1227 1.2371 31.8935 1.2371 28.4998C1.2371 21.1865 7.1868 15.2368 14.5 15.2368C21.8131 15.2368 27.7629 21.1866 27.7629 28.4998C27.7629 35.8129 21.8131 41.7628 14.5 41.7628C11.6367 41.7628 8.91041 40.8645 6.61559 39.1651C6.34096 38.9618 5.95375 39.0197 5.75037 39.2941C5.54707 39.5686 5.6048 39.956 5.87927 40.1593C8.38869 42.0176 11.3696 42.9999 14.5 42.9999C22.4953 42.9999 29 36.4952 29 28.4999C29 20.5045 22.4953 13.9998 14.5 13.9998Z" fill="#B6B6B6"/>
<path d="M13.3592 3.39066L14.4999 2.26234L17.738 5.46594H17.1527C16.5391 5.46594 16.0399 5.96515 16.0399 6.57875V12.5377C16.0399 12.8794 16.3167 13.1562 16.6584 13.1562C17.0001 13.1562 17.277 12.8794 17.277 12.5377V6.70304H19.2427C19.4935 6.70304 19.7194 6.55162 19.8149 6.3197C19.9103 6.08779 19.8561 5.82115 19.6778 5.64474L14.9348 0.952504C14.6938 0.714074 14.3058 0.714074 14.0648 0.952504L12.4892 2.51117C12.2464 2.75141 12.2442 3.14308 12.4845 3.38588C12.7249 3.62893 13.1165 3.63099 13.3592 3.39066Z" fill="#B6B6B6"/>
<path d="M9.7562 6.70302H11.722V12.5377C11.722 12.8794 11.9988 13.1562 12.3405 13.1562C12.6822 13.1562 12.9591 12.8794 12.9591 12.5377V6.57874C12.9591 5.96514 12.4598 5.46593 11.8462 5.46593H11.2608L11.6003 5.13009C11.8432 4.88977 11.8453 4.49818 11.6051 4.25538C11.3647 4.01242 10.973 4.01035 10.7304 4.2506L9.32124 5.64473C9.14293 5.82114 9.08883 6.08769 9.18417 6.31969C9.27951 6.55169 9.5054 6.70302 9.7562 6.70302Z" fill="#B6B6B6"/>
</svg>
