<svg width="31" height="24" viewBox="0 0 31 24" fill="none" xmlns="http://www.w3.org/2000/svg">
<path d="M28.5089 0H21.8661C20.4927 0 19.3751 1.11035 19.3751 2.47478C19.3751 3.83921 20.4927 4.94956 21.8661 4.94956H22.4673L18.5447 8.84651L14.4666 4.79557C14.7777 4.40786 14.9465 3.92995 14.9465 3.42729C14.9465 2.8394 14.7162 2.28725 14.2977 1.87203C13.5947 1.17305 12.4388 1.04216 11.6057 1.53271C11.5902 1.51621 11.5736 1.49917 11.5576 1.48322C10.7211 0.651692 9.26245 0.651692 8.42601 1.48322C8.00807 1.89843 7.77778 2.45113 7.77778 3.03848C7.77778 3.62583 8.00807 4.17798 8.42657 4.59429C8.44262 4.61024 8.45923 4.62619 8.47583 4.64159C8.27599 4.97651 8.16916 5.36092 8.16916 5.76019C8.16916 6.34808 8.39999 6.90023 8.81794 7.31545C9.65438 8.14697 11.113 8.14642 11.9489 7.316C11.9772 7.28795 12.0043 7.25935 12.0309 7.2302L16.1012 11.274L13.2858 14.071L9.80218 10.6102C9.58574 10.3952 9.23588 10.3952 9.01944 10.6102L0.162334 19.4094C-0.0541114 19.6244 -0.0541114 19.972 0.162334 20.187L2.93018 22.9368C3.03812 23.044 3.17984 23.0979 3.32155 23.0979C3.46327 23.0979 3.60498 23.044 3.71293 22.9368L9.41081 17.2762L12.8944 20.737C13.1109 20.952 13.4607 20.952 13.6772 20.737L26.0179 8.47694V9.07419C26.0179 10.4386 27.1355 11.549 28.5089 11.549C29.8823 11.549 31 10.4386 31 9.07419V2.47478C31 1.11035 29.8823 0 28.5089 0ZM11.9312 5.80363C11.893 5.80363 11.8543 5.80748 11.8161 5.81518C11.6323 5.85368 11.4817 5.98237 11.4142 6.15615C11.3572 6.30299 11.2741 6.43113 11.1667 6.53782C10.7482 6.95358 10.0192 6.95358 9.60069 6.53782C9.39144 6.32994 9.27629 6.05386 9.27629 5.76019C9.27629 5.46651 9.39144 5.19044 9.59017 4.993C9.60068 4.98531 9.64442 4.95121 9.65383 4.94241C9.79499 4.82032 9.86474 4.63554 9.83872 4.4513C9.81326 4.26707 9.69534 4.10813 9.52595 4.02894C9.39752 3.969 9.29345 3.89915 9.20876 3.81501C9.00006 3.60713 8.88492 3.33105 8.88492 3.03738C8.88492 2.7437 9.00006 2.46763 9.20876 2.25975C9.62726 1.84399 10.3558 1.84344 10.7748 2.2603C10.8595 2.34389 10.9298 2.44673 10.989 2.57322C11.0687 2.7426 11.2293 2.85974 11.4153 2.88504C11.6002 2.91419 11.7878 2.84105 11.9107 2.69916C11.9179 2.69036 11.9423 2.65681 11.9489 2.64801C12.3674 2.23225 13.0959 2.23225 13.5144 2.64801C13.7242 2.85754 13.8394 3.13362 13.8394 3.42729C13.8394 3.72097 13.7242 3.99704 13.5144 4.20547C13.4657 4.25442 13.412 4.29402 13.3572 4.33141C13.2221 4.42436 13.1363 4.57229 13.1214 4.73398C13.107 4.89676 13.1657 5.0568 13.2814 5.17229L19.1459 10.999L18.2679 11.8712L12.3226 5.96477C12.2174 5.86028 12.0762 5.80363 11.9312 5.80363ZM29.8929 9.07419C29.8929 9.83257 29.2718 10.4491 28.5089 10.4491C27.7461 10.4491 27.125 9.83257 27.125 9.07419V7.14936C27.125 6.92718 26.9899 6.7259 26.7835 6.64121C26.5759 6.55541 26.3384 6.60326 26.1801 6.76055L13.2858 19.5706L9.80218 16.1097C9.58574 15.8947 9.23588 15.8947 9.01944 16.1097L3.32155 21.7704L1.33645 19.7982L9.41081 11.7766L12.8944 15.2375C13.1109 15.4525 13.4607 15.4525 13.6772 15.2375L16.884 12.0516L17.4852 12.6489L16.7694 13.36L17.5521 14.1376L18.6593 13.0377L20.32 11.3878L21.4271 10.2879L20.6444 9.5103L19.9286 10.2214L19.3274 9.62414L24.195 4.78842C24.3533 4.63114 24.4009 4.39466 24.3151 4.18898C24.2293 3.98329 24.0272 3.84966 23.8036 3.84966H21.8661C21.1033 3.84966 20.4822 3.23316 20.4822 2.47478C20.4822 1.7164 21.1033 1.0999 21.8661 1.0999H28.5089C29.2718 1.0999 29.8929 1.7164 29.8929 2.47478V9.07419Z" fill="#3D3D3D"/>
<path d="M3.32149 8.24908H2.21436V9.34899H3.32149V8.24908Z" fill="#3D3D3D"/>
<path d="M5.53585 8.24908H4.42871V9.34899H5.53585V8.24908Z" fill="#3D3D3D"/>
<path d="M7.7502 8.24908H6.64307V9.34899H7.7502V8.24908Z" fill="#3D3D3D"/>
<path d="M23.8034 13.7487H22.6963V14.8486H23.8034V13.7487Z" fill="#3D3D3D"/>
<path d="M26.0178 13.7487H24.9106V14.8486H26.0178V13.7487Z" fill="#3D3D3D"/>
<path d="M28.2321 13.7487H27.125V14.8486H28.2321V13.7487Z" fill="#3D3D3D"/>
</svg>
