<svg width="31" height="31" viewBox="0 0 31 31" fill="none" xmlns="http://www.w3.org/2000/svg">
<path d="M4.42851 14.393C1.94522 14.393 0 15.6086 0 17.1608V28.2321C0 29.7843 1.94522 30.9999 4.42851 30.9999C6.9118 30.9999 8.85702 29.7843 8.85702 28.2321V17.1608C8.85702 15.6086 6.9118 14.393 4.42851 14.393ZM4.42851 29.8928C2.47111 29.8928 1.10713 29.0176 1.10713 28.2321V27.3093C1.91256 27.8773 3.09055 28.2321 4.42851 28.2321C5.76647 28.2321 6.94446 27.8773 7.74989 27.3093V28.2321C7.74989 29.0176 6.38591 29.8928 4.42851 29.8928ZM4.42851 27.125C2.47111 27.125 1.10713 26.2498 1.10713 25.4643V24.5415C1.91256 25.1094 3.09055 25.4643 4.42851 25.4643C5.76647 25.4643 6.94446 25.1094 7.74989 24.5415V25.4643C7.74989 26.2498 6.38591 27.125 4.42851 27.125ZM4.42851 24.3571C2.47111 24.3571 1.10713 23.482 1.10713 22.6965V21.7737C1.91256 22.3416 3.09055 22.6965 4.42851 22.6965C5.76647 22.6965 6.94446 22.3416 7.74989 21.7737V22.6965C7.74989 23.482 6.38591 24.3571 4.42851 24.3571ZM4.42851 21.5893C2.47111 21.5893 1.10713 20.7141 1.10713 19.9286V19.0058C1.91256 19.5738 3.09055 19.9286 4.42851 19.9286C5.76647 19.9286 6.94446 19.5738 7.74989 19.0058V19.9286C7.74989 20.7141 6.38591 21.5893 4.42851 21.5893ZM4.42851 18.8215C2.47111 18.8215 1.10713 17.9463 1.10713 17.1608C1.10713 16.3753 2.47111 15.5001 4.42851 15.5001C6.38591 15.5001 7.74989 16.3753 7.74989 17.1608C7.74989 17.9463 6.38591 18.8215 4.42851 18.8215Z" fill="white" fill-opacity="0.22"/>
<path d="M26.5711 0.554024C24.0878 0.554024 22.1426 1.76965 22.1426 3.32184V28.2322C22.1426 29.7844 24.0878 31 26.5711 31C29.0544 31 30.9996 29.7844 30.9996 28.2322V3.32184C30.9996 1.76965 29.0544 0.554024 26.5711 0.554024ZM26.5711 1.66115C28.5285 1.66115 29.8925 2.53634 29.8925 3.32184C29.8925 4.10735 28.5285 4.98253 26.5711 4.98253C24.6137 4.98253 23.2497 4.10735 23.2497 3.32184C23.2497 2.53634 24.6137 1.66115 26.5711 1.66115ZM26.5711 29.8929C24.6137 29.8929 23.2497 29.0177 23.2497 28.2322V27.3094C24.0551 27.8774 25.2331 28.2322 26.5711 28.2322C27.9091 28.2322 29.087 27.8774 29.8925 27.3094V28.2322C29.8925 29.0177 28.5285 29.8929 26.5711 29.8929ZM26.5711 27.1251C24.6137 27.1251 23.2497 26.2499 23.2497 25.4644V24.5416C24.0551 25.1096 25.2331 25.4644 26.5711 25.4644C27.9091 25.4644 29.087 25.1096 29.8925 24.5416V25.4644C29.8925 26.2499 28.5285 27.1251 26.5711 27.1251ZM26.5711 24.3573C24.6137 24.3573 23.2497 23.4821 23.2497 22.6966V21.7738C24.0551 22.3417 25.2331 22.6966 26.5711 22.6966C27.9091 22.6966 29.087 22.3417 29.8925 21.7738V22.6966C29.8925 23.4821 28.5285 24.3573 26.5711 24.3573ZM26.5711 21.5894C24.6137 21.5894 23.2497 20.7143 23.2497 19.9288V19.006C24.0551 19.5739 25.2331 19.9288 26.5711 19.9288C27.9091 19.9288 29.087 19.5739 29.8925 19.006V19.9288C29.8925 20.7143 28.5285 21.5894 26.5711 21.5894ZM26.5711 18.8216C24.6137 18.8216 23.2497 17.9464 23.2497 17.1609V16.2381C24.0551 16.8061 25.2331 17.1609 26.5711 17.1609C27.9091 17.1609 29.087 16.8061 29.8925 16.2381V17.1609C29.8925 17.9464 28.5285 18.8216 26.5711 18.8216ZM26.5711 16.0538C24.6137 16.0538 23.2497 15.1786 23.2497 14.3931V13.4703C24.0551 14.0383 25.2331 14.3931 26.5711 14.3931C27.9091 14.3931 29.087 14.0383 29.8925 13.4703V14.3931C29.8925 15.1786 28.5285 16.0538 26.5711 16.0538ZM26.5711 13.286C24.6137 13.286 23.2497 12.4108 23.2497 11.6253V10.7025C24.0551 11.2705 25.2331 11.6253 26.5711 11.6253C27.9091 11.6253 29.087 11.2705 29.8925 10.7025V11.6253C29.8925 12.4108 28.5285 13.286 26.5711 13.286ZM26.5711 10.5182C24.6137 10.5182 23.2497 9.64299 23.2497 8.85748V7.93469C24.0551 8.50264 25.2331 8.85748 26.5711 8.85748C27.9091 8.85748 29.087 8.50264 29.8925 7.93469V8.85748C29.8925 9.64299 28.5285 10.5182 26.5711 10.5182ZM26.5711 7.75035C24.6137 7.75035 23.2497 6.87517 23.2497 6.08966V5.16632C24.0551 5.73427 25.2331 6.08911 26.5711 6.08911C27.9091 6.08911 29.087 5.73427 29.8925 5.16632V6.08911C29.8925 6.87517 28.5285 7.75035 26.5711 7.75035Z" fill="white" fill-opacity="0.22"/>
<path d="M20.5246 2.25731C20.4316 2.24236 18.2434 1.94178 17.0122 3.17346C16.0274 4.1588 16.0236 5.75196 16.0678 6.39963L15.1085 7.35895C15.0045 7.46247 14.9463 7.60307 14.9463 7.75032V8.07471L13.2856 6.41402V4.42894H13.2818C13.3056 3.5925 13.1976 2.05913 12.2123 1.07379C10.8328 -0.3068 8.36889 0.0319811 8.26537 0.0480344C8.02235 0.0834625 7.83193 0.273888 7.79705 0.516349C7.78211 0.620419 7.44222 3.08322 8.82281 4.46326C9.73453 5.37498 11.119 5.53607 11.9837 5.53607C12.0545 5.53607 12.1154 5.53385 12.1785 5.53164V6.64319C12.1785 6.79044 12.2366 6.93105 12.3407 7.03456L14.2699 8.96373C12.4044 9.28978 11.0714 10.341 11.0714 11.6253V28.2322C11.0714 29.7844 13.0166 31 15.4999 31C17.9832 31 19.9284 29.7844 19.9284 28.2322V11.6253C19.9284 10.191 18.2655 9.04566 16.0535 8.88014V7.9795L16.8511 7.18181C16.9641 7.18956 17.098 7.1962 17.2602 7.1962C18.028 7.1962 19.2619 7.05228 20.0768 6.23798C21.3084 5.00575 21.0062 2.81807 20.9929 2.72562C20.9575 2.48261 20.7671 2.29218 20.5246 2.25731ZM9.6061 3.68052C8.90307 2.97805 8.83886 1.76021 8.86045 1.11088C9.51476 1.09482 10.7282 1.1535 11.4301 1.85653C12.1331 2.559 12.1973 3.77684 12.1757 4.42617C11.5236 4.44499 10.3086 4.38355 9.6061 3.68052ZM15.4999 29.8929C13.5425 29.8929 12.1785 29.0177 12.1785 28.2322V27.3094C12.9839 27.8773 14.1619 28.2322 15.4999 28.2322C16.8379 28.2322 18.0158 27.8773 18.8213 27.3094V28.2322C18.8213 29.0177 17.4573 29.8929 15.4999 29.8929ZM15.4999 27.1251C13.5425 27.1251 12.1785 26.2499 12.1785 25.4644V24.5416C12.9839 25.1095 14.1619 25.4644 15.4999 25.4644C16.8379 25.4644 18.0158 25.1095 18.8213 24.5416V25.4644C18.8213 26.2499 17.4573 27.1251 15.4999 27.1251ZM15.4999 24.3572C13.5425 24.3572 12.1785 23.482 12.1785 22.6965V21.7738C12.9839 22.3417 14.1619 22.6965 15.4999 22.6965C16.8379 22.6965 18.0158 22.3417 18.8213 21.7738V22.6965C18.8213 23.482 17.4573 24.3572 15.4999 24.3572ZM15.4999 21.5894C13.5425 21.5894 12.1785 20.7142 12.1785 19.9287V19.0059C12.9839 19.5739 14.1619 19.9287 15.4999 19.9287C16.8379 19.9287 18.0158 19.5739 18.8213 19.0059V19.9287C18.8213 20.7142 17.4573 21.5894 15.4999 21.5894ZM15.4999 18.8216C13.5425 18.8216 12.1785 17.9464 12.1785 17.1609V16.2381C12.9839 16.8061 14.1619 17.1609 15.4999 17.1609C16.8379 17.1609 18.0158 16.8061 18.8213 16.2381V17.1609C18.8213 17.9464 17.4573 18.8216 15.4999 18.8216ZM15.4999 16.0538C13.5425 16.0538 12.1785 15.1786 12.1785 14.3931V13.4703C12.9839 14.0383 14.1619 14.3931 15.4999 14.3931C16.8379 14.3931 18.0158 14.0383 18.8213 13.4703V14.3931C18.8213 15.1786 17.4573 16.0538 15.4999 16.0538ZM18.8213 11.6253C18.8213 12.4108 17.4573 13.286 15.4999 13.286C13.5425 13.286 12.1785 12.4108 12.1785 11.6253C12.1785 10.9162 13.2912 10.1367 14.9463 9.99115V11.6253H16.0535V9.99115C17.7086 10.1367 18.8213 10.9162 18.8213 11.6253ZM19.294 5.45469C18.7183 6.0304 17.733 6.09904 17.1617 6.08852C17.149 5.51891 17.2209 4.53079 17.7955 3.95619C18.3701 3.3816 19.3527 3.31627 19.9278 3.32236C19.94 3.89253 19.8681 4.88065 19.294 5.45469Z" fill="white" fill-opacity="0.22"/>
</svg>
