<svg width="31" height="31" viewBox="0 0 31 31" fill="none" xmlns="http://www.w3.org/2000/svg">
<path d="M24.4508 16.6189C24.4508 16.4706 24.3921 16.3279 24.2869 16.2233L24.123 16.0594L24.2869 15.8955C24.3921 15.7909 24.4508 15.6482 24.4508 15.5V13.4939L31 6.94471L30.209 6.15368L26.6885 9.67414L21.3259 4.31149L24.8463 0.791027L24.0553 0L17.5061 6.54919H15.5C15.3518 6.54919 15.2091 6.60793 15.1045 6.7131L14.9406 6.87702L14.7767 6.7131L14.5646 6.50108L12.539 4.4754C12.4343 4.37023 12.2917 4.31149 12.1434 4.31149H11.2562L6.94471 0L6.15368 0.791027L7.43644 2.07379L2.07379 7.43644L0.791027 6.15368L0 6.94471L4.31149 11.2562V14.3811C4.31149 14.5294 4.37023 14.6721 4.4754 14.7767L5.98977 16.291V18.0655L0 24.0553L0.791027 24.8463L3.75207 21.8853L9.11472 27.2479L6.15368 30.209L6.94471 31L12.9345 25.0102H14.9406C15.0888 25.0102 15.2315 24.9515 15.3361 24.8463L15.7316 24.4508H17.5061L24.0553 31L24.8463 30.209L21.3259 26.6885L26.6885 21.3259L30.209 24.8463L31 24.0553L24.4508 17.5061V16.6189ZM20.5348 5.10252L25.8975 10.4652L23.8914 12.4713L18.5287 7.10862L20.5348 5.10252ZM17.5061 7.66804L23.332 13.4939V15.2684L15.7316 7.66804H17.5061ZM23.332 16.8505V17.5061L17.5061 23.332H15.7316L12.7029 20.3032V19.6476L13.4262 20.3709L14.2172 19.5799L7.85153 13.2142C7.7335 13.0956 7.66804 12.9384 7.66804 12.7706C7.66804 12.4248 7.94944 12.1434 8.29516 12.1434C8.46299 12.1434 8.62019 12.2089 8.73878 12.3269L12.8668 16.4549L13.6578 15.6639L9.52981 11.5359C9.41177 11.4173 9.34632 11.2601 9.34632 11.0923C9.34632 10.7466 9.62771 10.4652 9.97344 10.4652C10.1413 10.4652 10.2985 10.5306 10.4171 10.6487L14.5451 14.7767L15.3361 13.9856L11.2081 9.85763C11.09 9.73904 11.0246 9.58184 11.0246 9.41401C11.0246 9.06829 11.306 8.78689 11.6517 8.78689C11.8195 8.78689 11.9767 8.85235 12.0953 8.97039L16.2233 13.0984L17.0144 12.3074L12.8864 8.17936C12.7683 8.06076 12.7029 7.90356 12.7029 7.73573C12.7029 7.39001 12.9843 7.10862 13.33 7.10862C13.4978 7.10862 13.655 7.17407 13.7736 7.29211L13.9856 7.50413L23.332 16.8505ZM8.22747 2.86482L10.2336 4.87092L4.87092 10.2336L2.86482 8.22747L8.22747 2.86482ZM5.43034 11.2562L11.2562 5.43034H11.9118L12.6234 6.14193C12.0304 6.40598 11.6142 6.99002 11.5902 7.6742C10.6772 7.70664 9.94435 8.43949 9.9119 9.35247C8.99892 9.38492 8.26607 10.1178 8.23362 11.0307C7.29994 11.0638 6.54919 11.8291 6.54919 12.7706C6.54919 13.2371 6.73101 13.6757 7.06051 14.0052L7.43644 14.3811L6.54919 15.2684L5.43034 14.1495V11.2562ZM9.90575 26.4569L4.54309 21.0943L6.54919 19.0882L11.9118 24.4508L9.90575 26.4569ZM12.9345 23.8914L7.10862 18.0655V16.291L8.22747 15.1722L11.584 18.5287V20.5348C11.584 20.6831 11.6428 20.8257 11.7479 20.9303L14.709 23.8914H12.9345ZM20.5348 25.8975L18.5287 23.8914L23.8914 18.5287L25.8975 20.5348L20.5348 25.8975Z" fill="#3D3D3D"/>
<path d="M23.4956 20.1394L22.377 21.2581L23.1681 22.0492L24.2868 20.9306L23.4956 20.1394Z" fill="#3D3D3D"/>
<path d="M9.18225 22.9364L8.39111 23.7275L9.50979 24.8462L10.3009 24.0551L9.18225 22.9364Z" fill="#3D3D3D"/>
<path d="M7.83156 4.47542L6.71289 5.59409L7.50403 6.38522L8.6227 5.26655L7.83156 4.47542Z" fill="#3D3D3D"/>
<path d="M20.9303 6.71326L20.1392 7.50439L21.2578 8.62307L22.049 7.83193L20.9303 6.71326Z" fill="#3D3D3D"/>
</svg>
