<svg width="32" height="32" viewBox="0 0 32 32" fill="none" xmlns="http://www.w3.org/2000/svg">
<path fill-rule="evenodd" clip-rule="evenodd" d="M14.953 4.0703C12.5626 4.46353 10.7897 5.79275 10.2666 7.58386C10.1302 8.05112 10.1174 8.74734 10.2118 10.582C10.2489 11.3041 10.264 12.1174 10.2453 12.3894L10.2112 12.8839L9.69175 12.9352C9.06175 12.9973 8.66994 13.1265 8.36495 13.3726C7.96577 13.6946 7.87308 14.1557 8.19173 14.2341C8.37779 14.2798 8.78955 14.2653 9.29989 14.1951C9.87203 14.1164 9.98155 14.0372 10.0357 13.6633C10.0543 13.5341 10.1037 13.4026 10.1453 13.371C10.2434 13.2964 10.2433 13.3204 10.135 15.7161C10.0348 17.9366 10.021 22.7194 10.1118 23.7606C10.2216 25.0174 10.5091 25.6791 11.2436 26.3645C12.4156 27.4583 13.9925 27.9992 16.0108 28C16.8548 28.0003 17.3368 27.9499 18.0301 27.7887C19.1054 27.5387 19.8329 27.168 20.5636 26.4979C21.0283 26.0717 21.3003 25.7249 21.5086 25.2931C21.7394 24.8149 21.7866 24.5197 21.833 23.2648C21.8573 22.6072 21.9047 21.5628 21.9382 20.9439C22.0145 19.5375 21.9752 17.1263 21.8191 13.6442C21.808 13.3964 21.8186 13.3409 21.8694 13.3796C21.9049 13.4065 21.9491 13.5341 21.9678 13.6633C22.0219 14.0372 22.1314 14.1164 22.7036 14.1951C23.4509 14.298 23.7562 14.2864 23.9052 14.1499C24.1979 13.8817 23.7786 13.316 23.1166 13.0857C22.9596 13.0311 22.5966 12.9633 22.31 12.935L21.7889 12.8835L21.7705 10.4434L21.752 8.0033L21.6173 7.54822C21.058 5.65913 19.5257 4.42007 17.3123 4.06701C16.7437 3.97629 15.5139 3.97798 14.953 4.0703ZM18.9305 5.02007C19.6856 5.37242 20.2366 5.79955 20.6514 6.35408C20.8262 6.58766 21.1686 7.22963 21.1686 7.32364C21.1686 7.39148 20.4254 6.83607 19.7602 6.27114C19.0858 5.69842 18.2473 4.79159 18.392 4.79159C18.4189 4.79159 18.6612 4.89441 18.9305 5.02007ZM13.5705 5.10808C13.252 5.56564 12.4332 6.34498 11.5556 7.02591C11.1782 7.31871 10.8599 7.54954 10.8482 7.53889C10.8136 7.5071 11.0669 6.96604 11.2516 6.6774C11.4498 6.36753 12.0758 5.771 12.4425 5.54234C12.6935 5.38592 13.5318 4.98505 13.616 4.98115C13.6404 4.98003 13.6199 5.03718 13.5705 5.10808ZM17.3194 11.1637C18.5526 11.3828 19.5714 11.8247 20.4435 12.5189C20.9781 12.9444 20.9662 12.8277 20.601 14.0592C20.4263 14.6481 20.2791 15.1353 20.274 15.1418C20.2689 15.1483 19.9443 15.0917 19.5528 15.0162C18.2712 14.7687 17.5635 14.7086 15.9506 14.71C14.3722 14.7114 13.514 14.7863 12.2366 15.0343C11.9044 15.0988 11.62 15.1328 11.6046 15.1098C11.5893 15.0869 11.4638 14.59 11.3258 14.0057L11.0751 12.9431L11.4282 12.6149C12.3228 11.7834 13.5991 11.246 15.0809 11.0767C15.6241 11.0147 16.7205 11.0573 17.3194 11.1637ZM11.2517 16.1381C11.3815 16.8135 11.4073 18.0141 11.3057 18.6465C11.2021 19.291 10.9232 20.4171 10.8837 20.3506C10.7472 20.1203 10.68 17.5427 10.7832 16.4897C10.8466 15.8425 10.9404 15.191 10.9788 15.1316C11.0182 15.0705 11.1156 15.4298 11.2517 16.1381ZM21.1101 15.5623C21.2311 16.4083 21.2708 17.0356 21.2708 18.1048C21.2709 19.1552 21.1995 20.2161 21.1198 20.3506C21.0801 20.4174 20.8006 19.2876 20.6981 18.6465C20.6199 18.1565 20.6201 16.8663 20.6985 16.4194C20.8087 15.7915 20.976 15.1078 21.0141 15.1294C21.0345 15.141 21.0778 15.3358 21.1101 15.5623ZM13.3781 21.2283C13.766 21.2682 14.7411 21.3131 15.545 21.3281C17.0872 21.3568 18.1168 21.3109 19.2962 21.1609C19.7494 21.1032 19.9572 21.0931 19.9712 21.128C20.0814 21.4022 20.2989 22.0283 20.2989 22.0716C20.2989 22.1864 18.7414 22.7452 17.8905 22.9356C17.0225 23.1299 16.4097 23.1885 15.5724 23.1576C14.3638 23.1129 13.1501 22.8159 11.8012 22.2348L11.6678 22.1773L11.8669 21.6591C11.9765 21.374 12.0761 21.126 12.0883 21.1078C12.1006 21.0897 12.2371 21.093 12.3917 21.1153C12.5463 21.1375 12.9902 21.1883 13.3781 21.2283Z" fill="url(#paint0_linear_804_1549)"/>
<rect x="0.5" y="0.5" width="31" height="31" rx="15.5" stroke="url(#paint1_linear_804_1549)"/>
<defs>
<linearGradient id="paint0_linear_804_1549" x1="8" y1="3.04065" x2="26.8664" y2="11.8619" gradientUnits="userSpaceOnUse">
<stop stop-color="#B48A3D"/>
<stop offset="0.447917" stop-color="#FCECCD"/>
<stop offset="1" stop-color="#CCAB6C"/>
</linearGradient>
<linearGradient id="paint1_linear_804_1549" x1="-2.22411e-07" y1="-1.27913" x2="30.8212" y2="20.3372" gradientUnits="userSpaceOnUse">
<stop stop-color="#B48A3D"/>
<stop offset="0.447917" stop-color="#FCECCD"/>
<stop offset="1" stop-color="#CCAB6C"/>
</linearGradient>
</defs>
</svg>
