<svg width="32" height="32" viewBox="0 0 32 32" fill="none" xmlns="http://www.w3.org/2000/svg">
<path d="M8.66667 9.725C8.66667 9.63513 8.70295 9.54907 8.7673 9.48633L13.6135 4.76133C13.6757 4.70064 13.7592 4.66667 13.8462 4.66667L18.1538 4.66667C18.2408 4.66667 18.3243 4.70064 18.3865 4.76133L23.2327 9.48633C23.297 9.54907 23.3333 9.63513 23.3333 9.725L23.3333 21.275C23.3333 21.3649 23.297 21.4509 23.2327 21.5137L18.3865 26.2387C18.3243 26.2994 18.2408 26.3333 18.1538 26.3333L13.8462 26.3333C13.7592 26.3333 13.6757 26.2994 13.6135 26.2387L8.7673 21.5137C8.70295 21.4509 8.66667 21.3649 8.66667 21.275L8.66667 9.725Z" fill="#E9B465" stroke="#604105" stroke-width="0.666667" stroke-linejoin="round"/>
<path d="M9 21.275L9 9.72498L13.0385 11.0375L13.0385 19.9625L9 21.275Z" fill="#DFAE73"/>
<path d="M13.8462 5L9 9.72501L13.0385 11.0375L16 7.625L18.1538 5L13.8462 5Z" fill="#DFAE73"/>
<path d="M18.9611 19.9625L15.9996 23.375L13.8457 26L18.1534 26L22.9995 21.275L22.9995 9.725L18.1534 5L15.9995 7.625L18.9611 11.0375L18.9611 19.9625Z" fill="#A8671B"/>
<path d="M22.9999 9.72498L22.9999 21.275L18.9614 19.9625L18.9614 11.0375L22.9999 9.72498Z" fill="#CA693F"/>
<ellipse cx="21.9227" cy="12.3501" rx="0.538462" ry="0.525" fill="#DE7A50"/>
<ellipse cx="21.25" cy="14.5818" rx="0.403846" ry="0.394226" fill="#DE7A50"/>
<ellipse cx="22.1921" cy="13.9254" rx="0.269231" ry="0.262817" fill="#DE7A50"/>
<ellipse cx="20.8459" cy="13.1379" rx="0.269231" ry="0.262817" fill="#DE7A50"/>
<ellipse cx="22.1921" cy="10.7754" rx="0.269231" ry="0.262817" fill="#DE7A50"/>
<ellipse cx="22.1921" cy="17.0754" rx="0.269231" ry="0.262817" fill="#DE7A50"/>
<ellipse cx="22.1921" cy="15.7629" rx="0.269231" ry="0.262817" fill="#DE7A50"/>
<path d="M13.0386 11.0375L13.0386 19.9625L16.0001 23.375L18.9617 19.9748L18.9616 11.0375L16.0001 7.625L13.0386 11.0375Z" fill="#FFB547"/>
<path d="M13.0386 19.9625L13.0386 11.0375L16.0001 7.625L18.9616 11.0375L13.0386 19.9625Z" fill="#FFCB7C"/>
<path d="M15.9997 8.41248L13.5767 11.3V16.8125" stroke="#FFEAC2" stroke-width="0.666667" stroke-linecap="round" stroke-linejoin="round"/>
<path d="M9.53809 10.5125V20.4875" stroke="#FFD5A3" stroke-width="0.666667" stroke-linecap="round" stroke-linejoin="round"/>
<path d="M10.0767 9.46265L14.1151 5.52515" stroke="#FFFEFD" stroke-width="0.666667" stroke-linecap="round" stroke-linejoin="round"/>
<ellipse cx="20.9805" cy="21.9318" rx="0.403846" ry="0.394226" fill="#CA8028"/>
<ellipse cx="18.2881" cy="24.5568" rx="0.403846" ry="0.394226" fill="#CA8028"/>
<ellipse cx="19.3653" cy="23.5069" rx="0.403846" ry="0.394226" fill="#CA8028"/>
<ellipse cx="18.1535" cy="22.8505" rx="0.269231" ry="0.262817" fill="#CA8028"/>
<ellipse cx="20.0378" cy="22.8505" rx="0.269231" ry="0.262817" fill="#CA8028"/>
<ellipse cx="19.2308" cy="21.8001" rx="0.538462" ry="0.525" fill="#CA8028"/>
<rect x="0.5" y="0.5" width="31" height="31" rx="15.5" stroke="url(#paint0_linear_803_603)"/>
<defs>
<linearGradient id="paint0_linear_803_603" x1="-2.22411e-07" y1="-1.27913" x2="30.8212" y2="20.3372" gradientUnits="userSpaceOnUse">
<stop stop-color="#B48A3D"/>
<stop offset="0.447917" stop-color="#FCECCD"/>
<stop offset="1" stop-color="#CCAB6C"/>
</linearGradient>
</defs>
</svg>
