<svg width="32" height="32" viewBox="0 0 32 32" fill="none" xmlns="http://www.w3.org/2000/svg">
<path d="M20.6127 6.96378C20.6393 6.93099 20.6384 6.88378 20.6106 6.85199L18.0652 3.94289C18.0487 3.92407 18.0249 3.91328 17.9999 3.91328H13.6363C13.6113 3.91328 13.5875 3.92407 13.571 3.94289L11.0256 6.85199C10.9977 6.88378 10.9969 6.93099 11.0235 6.96378L15.7508 12.782C15.7673 12.8022 15.792 12.814 15.8181 12.814C15.8442 12.814 15.8689 12.8022 15.8854 12.782L20.6127 6.96378Z" fill="url(#paint0_linear_804_774)" stroke="url(#paint1_linear_804_774)" stroke-width="0.173441" stroke-linecap="round" stroke-linejoin="round"/>
<path d="M18.0652 3.94289C18.0487 3.92407 18.0249 3.91328 17.9999 3.91328H13.6363C13.6113 3.91328 13.5875 3.92407 13.571 3.94289L11.0256 6.85199C11.0031 6.87759 10.9978 6.91394 11.0118 6.94493C11.0259 6.97591 11.0568 6.99581 11.0908 6.99581H20.5454C20.5794 6.99581 20.6103 6.97591 20.6243 6.94493C20.6384 6.91394 20.633 6.87759 20.6106 6.85199L18.0652 3.94289Z" fill="url(#paint2_linear_804_774)" stroke="url(#paint3_linear_804_774)" stroke-width="0.173441" stroke-linecap="round" stroke-linejoin="round"/>
<path d="M20.6129 6.9639C20.6396 6.93111 20.6387 6.8839 20.6109 6.85211L18.0654 3.94302C18.049 3.9242 18.0252 3.9134 18.0002 3.9134H15.8184C15.7705 3.9134 15.7316 3.95223 15.7316 4.00012V12.7274C15.7316 12.7641 15.7548 12.7968 15.7893 12.8091C15.8239 12.8214 15.8625 12.8106 15.8857 12.7821L20.6129 6.9639Z" fill="url(#paint4_linear_804_774)" stroke="url(#paint5_linear_804_774)" stroke-width="0.173441" stroke-linecap="round" stroke-linejoin="round"/>
<path d="M20.5456 6.99593C20.5797 6.99593 20.6105 6.97603 20.6246 6.94505C20.6387 6.91406 20.6333 6.87772 20.6109 6.85211L18.0654 3.94302C18.049 3.9242 18.0252 3.9134 18.0002 3.9134H15.8184C15.7705 3.9134 15.7316 3.95223 15.7316 4.00012V6.90921C15.7316 6.95711 15.7705 6.99593 15.8184 6.99593H20.5456Z" fill="url(#paint6_linear_804_774)" stroke="url(#paint7_linear_804_774)" stroke-width="0.173441" stroke-linecap="round" stroke-linejoin="round"/>
<path d="M11.0238 6.9639C10.9971 6.93111 10.998 6.8839 11.0258 6.85211L13.5713 3.94302C13.5877 3.9242 13.6115 3.9134 13.6365 3.9134H15.8184C15.852 3.9134 15.8826 3.93287 15.8969 3.96334C15.9112 3.99381 15.9065 4.02979 15.885 4.05564L13.4944 6.92436L15.8984 12.694C15.915 12.7338 15.8998 12.7797 15.8628 12.8018C15.8258 12.8239 15.7782 12.8155 15.7511 12.7821L11.0238 6.9639Z" fill="url(#paint8_linear_804_774)" stroke="url(#paint9_linear_804_774)" stroke-width="0.173441" stroke-linecap="round" stroke-linejoin="round"/>
<path d="M13.6938 3.94152C13.7103 3.9236 13.7334 3.9134 13.7578 3.9134H15.8184C15.852 3.9134 15.8826 3.93287 15.8969 3.96334C15.9112 3.99381 15.9065 4.02979 15.885 4.05564L13.4607 6.96473C13.4443 6.9845 13.4199 6.99593 13.3941 6.99593H11.0911C11.0567 6.99593 11.0256 6.97561 11.0117 6.94413C10.9979 6.91265 11.0039 6.87596 11.0272 6.85061L13.6938 3.94152Z" fill="url(#paint10_linear_804_774)" stroke="url(#paint11_linear_804_774)" stroke-width="0.173441" stroke-linecap="round" stroke-linejoin="round"/>
<path d="M11.0238 6.9639C10.9971 6.93111 10.998 6.8839 11.0258 6.85211L13.5713 3.94302C13.5877 3.9242 13.6115 3.9134 13.6365 3.9134H14.485C14.5191 3.9134 14.5499 3.9333 14.564 3.96429C14.5781 3.99527 14.5727 4.03162 14.5503 4.05723L12.0486 6.91635L15.8905 12.6793C15.9162 12.7178 15.9071 12.7697 15.8698 12.7972C15.8325 12.8247 15.7803 12.818 15.7511 12.7821L11.0238 6.9639Z" fill="url(#paint12_linear_804_774)" stroke="url(#paint13_linear_804_774)" stroke-width="0.173441" stroke-linecap="round" stroke-linejoin="round"/>
<path d="M13.5711 3.94302C13.5876 3.9242 13.6114 3.9134 13.6364 3.9134H14.4849C14.5189 3.9134 14.5498 3.9333 14.5638 3.96429C14.5779 3.99527 14.5725 4.03162 14.5501 4.05723L12.0047 6.96632C11.9882 6.98514 11.9644 6.99593 11.9394 6.99593H11.0909C11.0569 6.99593 11.026 6.97603 11.012 6.94505C10.9979 6.91406 11.0033 6.87772 11.0257 6.85211L13.5711 3.94302Z" fill="url(#paint14_linear_804_774)" stroke="url(#paint15_linear_804_774)" stroke-width="0.173441" stroke-linecap="round" stroke-linejoin="round"/>
<path d="M20.6129 6.9639C20.6396 6.93111 20.6387 6.8839 20.6109 6.85211L18.0654 3.94302C18.049 3.9242 18.0252 3.9134 18.0002 3.9134H15.8184C15.7847 3.9134 15.7541 3.93287 15.7398 3.96334C15.7256 3.99381 15.7302 4.02979 15.7517 4.05564L18.1423 6.92436L15.7383 12.694C15.7217 12.7338 15.7369 12.7797 15.7739 12.8018C15.8109 12.8239 15.8585 12.8155 15.8857 12.7821L20.6129 6.9639Z" fill="url(#paint16_linear_804_774)" stroke="url(#paint17_linear_804_774)" stroke-width="0.173441" stroke-linecap="round" stroke-linejoin="round"/>
<path d="M18.0654 3.94302C18.049 3.9242 18.0252 3.9134 18.0002 3.9134H15.8184C15.7847 3.9134 15.7541 3.93287 15.7398 3.96334C15.7256 3.99381 15.7302 4.02979 15.7517 4.05564L18.176 6.96473C18.1925 6.9845 18.2169 6.99593 18.2426 6.99593H20.5456C20.5797 6.99593 20.6105 6.97603 20.6246 6.94505C20.6387 6.91406 20.6333 6.87772 20.6109 6.85211L18.0654 3.94302Z" fill="url(#paint18_linear_804_774)" stroke="url(#paint19_linear_804_774)" stroke-width="0.173441" stroke-linecap="round" stroke-linejoin="round"/>
<path d="M20.6129 6.9639C20.6396 6.93111 20.6387 6.8839 20.6109 6.85211L18.0654 3.94302C18.049 3.9242 18.0252 3.9134 18.0002 3.9134H17.1517C17.1177 3.9134 17.0868 3.9333 17.0727 3.96429C17.0587 3.99527 17.064 4.03162 17.0864 4.05723L19.5882 6.91635L15.7462 12.6793C15.7205 12.7178 15.7296 12.7697 15.7669 12.7972C15.8042 12.8247 15.8565 12.818 15.8857 12.7821L20.6129 6.9639Z" fill="url(#paint20_linear_804_774)" stroke="url(#paint21_linear_804_774)" stroke-width="0.173441" stroke-linecap="round" stroke-linejoin="round"/>
<path d="M18.0651 3.94302C18.0486 3.9242 18.0249 3.9134 17.9999 3.9134H17.1514C17.1173 3.9134 17.0865 3.9333 17.0724 3.96429C17.0583 3.99527 17.0637 4.03162 17.0861 4.05723L19.6316 6.96632C19.648 6.98514 19.6718 6.99593 19.6968 6.99593H20.5453C20.5793 6.99593 20.6102 6.97603 20.6243 6.94505C20.6383 6.91406 20.633 6.87772 20.6106 6.85211L18.0651 3.94302Z" fill="url(#paint22_linear_804_774)" stroke="url(#paint23_linear_804_774)" stroke-width="0.173441" stroke-linecap="round" stroke-linejoin="round"/>
<path d="M11.5757 6.66669L13.1514 4.84851" stroke="url(#paint24_linear_804_774)" stroke-width="0.173441" stroke-linecap="round" stroke-linejoin="round"/>
<path d="M13.8784 6.66681L15.4542 4.84863" stroke="url(#paint25_linear_804_774)" stroke-width="0.173441" stroke-linecap="round" stroke-linejoin="round"/>
<circle cx="16.7872" cy="8.4851" r="0.0778519" fill="url(#paint26_linear_804_774)" stroke="url(#paint27_linear_804_774)" stroke-width="0.0867205"/>
<circle cx="17.151" cy="8.96984" r="0.0778519" fill="url(#paint28_linear_804_774)" stroke="url(#paint29_linear_804_774)" stroke-width="0.0867205"/>
<circle cx="16.6666" cy="9.57617" r="0.0778519" fill="url(#paint30_linear_804_774)" stroke="url(#paint31_linear_804_774)" stroke-width="0.0867205"/>
<circle cx="16.3029" cy="9.81836" r="0.0778519" fill="url(#paint32_linear_804_774)" stroke="url(#paint33_linear_804_774)" stroke-width="0.0867205"/>
<circle cx="16.3029" cy="10.5458" r="0.0778519" fill="url(#paint34_linear_804_774)" stroke="url(#paint35_linear_804_774)" stroke-width="0.0867205"/>
<circle cx="16.4239" cy="8.12146" r="0.0778519" fill="url(#paint36_linear_804_774)" stroke="url(#paint37_linear_804_774)" stroke-width="0.0867205"/>
<circle cx="17.3932" cy="7.8789" r="0.0778519" fill="url(#paint38_linear_804_774)" stroke="url(#paint39_linear_804_774)" stroke-width="0.0867205"/>
<circle cx="16.8478" cy="7.81854" r="0.138458" fill="url(#paint40_linear_804_774)" stroke="url(#paint41_linear_804_774)" stroke-width="0.0867205"/>
<circle cx="16.6056" cy="9.03045" r="0.138458" fill="url(#paint42_linear_804_774)" stroke="url(#paint43_linear_804_774)" stroke-width="0.0867205"/>
<path d="M10.4287 14.8311L10.4287 24.2597L14.2859 28.1169L17.7144 28.1169L21.5716 24.2597L21.5716 14.8311L17.7144 10.974L14.2859 10.974L10.4287 14.8311Z" fill="url(#paint44_linear_804_774)"/>
<path fill-rule="evenodd" clip-rule="evenodd" d="M10.1255 14.5281C10.0452 14.6085 10 14.7175 10 14.8311L10 24.2597C10 24.3734 10.0452 24.4824 10.1255 24.5627L13.9827 28.4199C14.063 28.5003 14.172 28.5454 14.2857 28.5454L17.7143 28.5454C17.8279 28.5454 17.937 28.5003 18.0173 28.4199L21.8745 24.5627C21.9548 24.4824 22 24.3734 22 24.2597L22 14.8311C22 14.7175 21.9548 14.6085 21.8745 14.5281L18.0173 10.6709C17.937 10.5906 17.8279 10.5454 17.7143 10.5454L14.2857 10.5454C14.172 10.5454 14.063 10.5906 13.9827 10.6709L10.1255 14.5281ZM14.2857 10.974L10.4286 14.8311L10.4286 24.2597L14.2857 28.1168L17.7143 28.1168L21.5714 24.2597L21.5714 14.8311L17.7143 10.974L14.2857 10.974Z" fill="url(#paint45_linear_804_774)"/>
<path d="M10.4287 24.2597L10.4287 14.8312L13.643 15.9026L13.643 23.1883L10.4287 24.2597Z" fill="url(#paint46_linear_804_774)"/>
<path d="M14.2859 10.974L10.4287 14.8311L13.643 15.9026L16.0001 13.1169L17.7144 10.974L14.2859 10.974Z" fill="#FFEEC1"/>
<path d="M18.3571 23.1883L15.9999 25.974L14.2856 28.1169L17.7142 28.1169L21.5714 24.2597L21.5714 14.8311L17.7142 10.974L15.9999 13.1169L18.3571 15.9026L18.3571 23.1883Z" fill="url(#paint47_linear_804_774)"/>
<path d="M21.5712 14.8312L21.5712 24.2597L18.3569 23.1883L18.3569 15.9026L21.5712 14.8312Z" fill="url(#paint48_linear_804_774)"/>
<path d="M21.1428 16.974C21.1428 17.2107 20.9509 17.4026 20.7142 17.4026C20.4775 17.4026 20.2856 17.2107 20.2856 16.974C20.2856 16.7373 20.4775 16.5454 20.7142 16.5454C20.9509 16.5454 21.1428 16.7373 21.1428 16.974Z" fill="url(#paint49_linear_804_774)"/>
<path d="M20.4998 18.7954C20.4998 18.9729 20.3559 19.1169 20.1784 19.1169C20.0008 19.1169 19.8569 18.9729 19.8569 18.7954C19.8569 18.6179 20.0008 18.474 20.1784 18.474C20.3559 18.474 20.4998 18.6179 20.4998 18.7954Z" fill="url(#paint50_linear_804_774)"/>
<path d="M21.1429 18.2597C21.1429 18.378 21.047 18.474 20.9286 18.474C20.8103 18.474 20.7144 18.378 20.7144 18.2597C20.7144 18.1413 20.8103 18.0454 20.9286 18.0454C21.047 18.0454 21.1429 18.1413 21.1429 18.2597Z" fill="url(#paint51_linear_804_774)"/>
<path d="M20.0716 17.6169C20.0716 17.7352 19.9757 17.8312 19.8574 17.8312C19.739 17.8312 19.6431 17.7352 19.6431 17.6169C19.6431 17.4985 19.739 17.4026 19.8574 17.4026C19.9757 17.4026 20.0716 17.4985 20.0716 17.6169Z" fill="url(#paint52_linear_804_774)"/>
<path d="M21.1429 15.6883C21.1429 15.8066 21.047 15.9026 20.9286 15.9026C20.8103 15.9026 20.7144 15.8066 20.7144 15.6883C20.7144 15.5699 20.8103 15.474 20.9286 15.474C21.047 15.474 21.1429 15.5699 21.1429 15.6883Z" fill="url(#paint53_linear_804_774)"/>
<path d="M21.1429 20.8312C21.1429 20.9496 21.047 21.0455 20.9286 21.0455C20.8103 21.0455 20.7144 20.9496 20.7144 20.8312C20.7144 20.7129 20.8103 20.6169 20.9286 20.6169C21.047 20.6169 21.1429 20.7129 21.1429 20.8312Z" fill="url(#paint54_linear_804_774)"/>
<path d="M21.1429 19.7597C21.1429 19.878 21.047 19.974 20.9286 19.974C20.8103 19.974 20.7144 19.878 20.7144 19.7597C20.7144 19.6413 20.8103 19.5454 20.9286 19.5454C21.047 19.5454 21.1429 19.6413 21.1429 19.7597Z" fill="url(#paint55_linear_804_774)"/>
<path d="M13.6431 15.9025L13.6431 23.1882L16.0002 25.974L18.3574 23.1983L18.3574 15.9025L16.0002 13.1168L13.6431 15.9025Z" fill="url(#paint56_linear_804_774)"/>
<path d="M13.6431 23.1882L13.6431 15.9025L16.0002 13.1168L18.3574 15.9025L13.6431 23.1882Z" fill="url(#paint57_linear_804_774)"/>
<path fill-rule="evenodd" clip-rule="evenodd" d="M16.1355 13.5939C16.2271 13.6688 16.2406 13.8038 16.1656 13.8954L14.2855 16.1933V20.6168C14.2855 20.7352 14.1896 20.8311 14.0712 20.8311C13.9529 20.8311 13.8569 20.7352 13.8569 20.6168V16.1168C13.8569 16.0674 13.874 16.0194 13.9054 15.9812L15.8339 13.624C15.9089 13.5324 16.0439 13.5189 16.1355 13.5939Z" fill="#FFEAC2"/>
<path fill-rule="evenodd" clip-rule="evenodd" d="M10.8574 15.2596C10.9757 15.2596 11.0716 15.3556 11.0716 15.4739V23.6168C11.0716 23.7351 10.9757 23.8311 10.8574 23.8311C10.739 23.8311 10.6431 23.7351 10.6431 23.6168V15.4739C10.6431 15.3556 10.739 15.2596 10.8574 15.2596Z" fill="url(#paint58_linear_804_774)"/>
<path fill-rule="evenodd" clip-rule="evenodd" d="M14.6514 11.251C14.7351 11.3347 14.7351 11.4704 14.6514 11.554L11.4371 14.7683C11.3534 14.852 11.2177 14.852 11.1341 14.7683C11.0504 14.6846 11.0504 14.549 11.1341 14.4653L14.3483 11.251C14.432 11.1673 14.5677 11.1673 14.6514 11.251Z" fill="url(#paint59_linear_804_774)"/>
<path d="M20.2859 24.7954C20.2859 24.9729 20.142 25.1169 19.9645 25.1169C19.787 25.1169 19.6431 24.9729 19.6431 24.7954C19.6431 24.6179 19.787 24.474 19.9645 24.474C20.142 24.474 20.2859 24.6179 20.2859 24.7954Z" fill="url(#paint60_linear_804_774)"/>
<path d="M18.1429 26.9384C18.1429 27.1159 17.9989 27.2598 17.8214 27.2598C17.6439 27.2598 17.5 27.1159 17.5 26.9384C17.5 26.7609 17.6439 26.6169 17.8214 26.6169C17.9989 26.6169 18.1429 26.7609 18.1429 26.9384Z" fill="url(#paint61_linear_804_774)"/>
<path d="M18.9998 26.0811C18.9998 26.2586 18.8559 26.4025 18.6784 26.4025C18.5008 26.4025 18.3569 26.2586 18.3569 26.0811C18.3569 25.9036 18.5008 25.7596 18.6784 25.7596C18.8559 25.7596 18.9998 25.9036 18.9998 26.0811Z" fill="url(#paint62_linear_804_774)"/>
<path d="M17.9286 25.5455C17.9286 25.6638 17.8326 25.7597 17.7143 25.7597C17.5959 25.7597 17.5 25.6638 17.5 25.5455C17.5 25.4271 17.5959 25.3312 17.7143 25.3312C17.8326 25.3312 17.9286 25.4271 17.9286 25.5455Z" fill="url(#paint63_linear_804_774)"/>
<path d="M19.4286 25.5455C19.4286 25.6638 19.3326 25.7597 19.2143 25.7597C19.0959 25.7597 19 25.6638 19 25.5455C19 25.4271 19.0959 25.3312 19.2143 25.3312C19.3326 25.3312 19.4286 25.4271 19.4286 25.5455Z" fill="url(#paint64_linear_804_774)"/>
<path d="M19.0002 24.6882C19.0002 24.9249 18.8083 25.1168 18.5716 25.1168C18.3349 25.1168 18.1431 24.9249 18.1431 24.6882C18.1431 24.4515 18.3349 24.2596 18.5716 24.2596C18.8083 24.2596 19.0002 24.4515 19.0002 24.6882Z" fill="url(#paint65_linear_804_774)"/>
<rect x="0.5" y="0.5" width="31" height="31" rx="15.5" stroke="url(#paint66_linear_804_774)"/>
<defs>
<linearGradient id="paint0_linear_804_774" x1="11.0908" y1="3.65115" x2="19.7041" y2="10.1954" gradientUnits="userSpaceOnUse">
<stop stop-color="white"/>
<stop offset="0.447917" stop-color="#F2F2F2"/>
<stop offset="1" stop-color="#CEDCEF"/>
</linearGradient>
<linearGradient id="paint1_linear_804_774" x1="11.0908" y1="3.65115" x2="19.7041" y2="10.1954" gradientUnits="userSpaceOnUse">
<stop stop-color="white"/>
<stop offset="0.447917" stop-color="#F2F2F2"/>
<stop offset="1" stop-color="#CEDCEF"/>
</linearGradient>
<linearGradient id="paint2_linear_804_774" x1="11.0908" y1="3.88372" x2="13.2836" y2="8.8819" gradientUnits="userSpaceOnUse">
<stop stop-color="white"/>
<stop offset="0.447917" stop-color="#F2F2F2"/>
<stop offset="1" stop-color="#CEDCEF"/>
</linearGradient>
<linearGradient id="paint3_linear_804_774" x1="11.0908" y1="3.88372" x2="13.2836" y2="8.8819" gradientUnits="userSpaceOnUse">
<stop stop-color="white"/>
<stop offset="0.447917" stop-color="#F2F2F2"/>
<stop offset="1" stop-color="#CEDCEF"/>
</linearGradient>
<linearGradient id="paint4_linear_804_774" x1="15.8184" y1="3.65127" x2="21.7544" y2="5.90635" gradientUnits="userSpaceOnUse">
<stop stop-color="white"/>
<stop offset="0.447917" stop-color="#F2F2F2"/>
<stop offset="1" stop-color="#CEDCEF"/>
</linearGradient>
<linearGradient id="paint5_linear_804_774" x1="15.8184" y1="3.65127" x2="21.7544" y2="5.90635" gradientUnits="userSpaceOnUse">
<stop stop-color="white"/>
<stop offset="0.447917" stop-color="#F2F2F2"/>
<stop offset="1" stop-color="#CEDCEF"/>
</linearGradient>
<linearGradient id="paint6_linear_804_774" x1="15.8184" y1="3.88384" x2="18.7732" y2="7.25139" gradientUnits="userSpaceOnUse">
<stop stop-color="white"/>
<stop offset="0.447917" stop-color="#F2F2F2"/>
<stop offset="1" stop-color="#CEDCEF"/>
</linearGradient>
<linearGradient id="paint7_linear_804_774" x1="15.8184" y1="3.88384" x2="18.7732" y2="7.25139" gradientUnits="userSpaceOnUse">
<stop stop-color="white"/>
<stop offset="0.447917" stop-color="#F2F2F2"/>
<stop offset="1" stop-color="#CEDCEF"/>
</linearGradient>
<linearGradient id="paint8_linear_804_774" x1="15.8184" y1="3.65127" x2="9.8823" y2="5.90635" gradientUnits="userSpaceOnUse">
<stop stop-color="white"/>
<stop offset="0.447917" stop-color="#F2F2F2"/>
<stop offset="1" stop-color="#CEDCEF"/>
</linearGradient>
<linearGradient id="paint9_linear_804_774" x1="15.8184" y1="3.65127" x2="9.8823" y2="5.90635" gradientUnits="userSpaceOnUse">
<stop stop-color="white"/>
<stop offset="0.447917" stop-color="#F2F2F2"/>
<stop offset="1" stop-color="#CEDCEF"/>
</linearGradient>
<linearGradient id="paint10_linear_804_774" x1="15.8184" y1="3.88384" x2="12.8636" y2="7.25139" gradientUnits="userSpaceOnUse">
<stop stop-color="white"/>
<stop offset="0.447917" stop-color="#F2F2F2"/>
<stop offset="1" stop-color="#CEDCEF"/>
</linearGradient>
<linearGradient id="paint11_linear_804_774" x1="15.8184" y1="3.88384" x2="12.8636" y2="7.25139" gradientUnits="userSpaceOnUse">
<stop stop-color="white"/>
<stop offset="0.447917" stop-color="#F2F2F2"/>
<stop offset="1" stop-color="#CEDCEF"/>
</linearGradient>
<linearGradient id="paint12_linear_804_774" x1="15.8184" y1="3.65127" x2="9.8823" y2="5.90635" gradientUnits="userSpaceOnUse">
<stop stop-color="white"/>
<stop offset="0.447917" stop-color="#F2F2F2"/>
<stop offset="1" stop-color="#CEDCEF"/>
</linearGradient>
<linearGradient id="paint13_linear_804_774" x1="15.8184" y1="3.65127" x2="9.8823" y2="5.90635" gradientUnits="userSpaceOnUse">
<stop stop-color="white"/>
<stop offset="0.447917" stop-color="#F2F2F2"/>
<stop offset="1" stop-color="#CEDCEF"/>
</linearGradient>
<linearGradient id="paint14_linear_804_774" x1="14.4849" y1="3.88384" x2="11.5637" y2="6.27401" gradientUnits="userSpaceOnUse">
<stop stop-color="white"/>
<stop offset="0.447917" stop-color="#F2F2F2"/>
<stop offset="1" stop-color="#CEDCEF"/>
</linearGradient>
<linearGradient id="paint15_linear_804_774" x1="14.4849" y1="3.88384" x2="11.5637" y2="6.27401" gradientUnits="userSpaceOnUse">
<stop stop-color="white"/>
<stop offset="0.447917" stop-color="#F2F2F2"/>
<stop offset="1" stop-color="#CEDCEF"/>
</linearGradient>
<linearGradient id="paint16_linear_804_774" x1="15.8184" y1="3.65127" x2="21.7544" y2="5.90635" gradientUnits="userSpaceOnUse">
<stop stop-color="white"/>
<stop offset="0.447917" stop-color="#F2F2F2"/>
<stop offset="1" stop-color="#CEDCEF"/>
</linearGradient>
<linearGradient id="paint17_linear_804_774" x1="15.8184" y1="3.65127" x2="21.7544" y2="5.90635" gradientUnits="userSpaceOnUse">
<stop stop-color="white"/>
<stop offset="0.447917" stop-color="#F2F2F2"/>
<stop offset="1" stop-color="#CEDCEF"/>
</linearGradient>
<linearGradient id="paint18_linear_804_774" x1="15.8184" y1="3.88384" x2="18.7732" y2="7.25139" gradientUnits="userSpaceOnUse">
<stop stop-color="white"/>
<stop offset="0.447917" stop-color="#F2F2F2"/>
<stop offset="1" stop-color="#CEDCEF"/>
</linearGradient>
<linearGradient id="paint19_linear_804_774" x1="15.8184" y1="3.88384" x2="18.7732" y2="7.25139" gradientUnits="userSpaceOnUse">
<stop stop-color="white"/>
<stop offset="0.447917" stop-color="#F2F2F2"/>
<stop offset="1" stop-color="#CEDCEF"/>
</linearGradient>
<linearGradient id="paint20_linear_804_774" x1="15.8184" y1="3.65127" x2="21.7544" y2="5.90635" gradientUnits="userSpaceOnUse">
<stop stop-color="white"/>
<stop offset="0.447917" stop-color="#F2F2F2"/>
<stop offset="1" stop-color="#CEDCEF"/>
</linearGradient>
<linearGradient id="paint21_linear_804_774" x1="15.8184" y1="3.65127" x2="21.7544" y2="5.90635" gradientUnits="userSpaceOnUse">
<stop stop-color="white"/>
<stop offset="0.447917" stop-color="#F2F2F2"/>
<stop offset="1" stop-color="#CEDCEF"/>
</linearGradient>
<linearGradient id="paint22_linear_804_774" x1="17.1514" y1="3.88384" x2="20.0725" y2="6.27401" gradientUnits="userSpaceOnUse">
<stop stop-color="white"/>
<stop offset="0.447917" stop-color="#F2F2F2"/>
<stop offset="1" stop-color="#CEDCEF"/>
</linearGradient>
<linearGradient id="paint23_linear_804_774" x1="17.1514" y1="3.88384" x2="20.0725" y2="6.27401" gradientUnits="userSpaceOnUse">
<stop stop-color="white"/>
<stop offset="0.447917" stop-color="#F2F2F2"/>
<stop offset="1" stop-color="#CEDCEF"/>
</linearGradient>
<linearGradient id="paint24_linear_804_774" x1="11.5757" y1="4.77583" x2="13.2291" y2="5.78082" gradientUnits="userSpaceOnUse">
<stop stop-color="white"/>
<stop offset="0.447917" stop-color="#F2F2F2"/>
<stop offset="1" stop-color="#CEDCEF"/>
</linearGradient>
<linearGradient id="paint25_linear_804_774" x1="13.8784" y1="4.77595" x2="15.5318" y2="5.78094" gradientUnits="userSpaceOnUse">
<stop stop-color="white"/>
<stop offset="0.447917" stop-color="#F2F2F2"/>
<stop offset="1" stop-color="#CEDCEF"/>
</linearGradient>
<linearGradient id="paint26_linear_804_774" x1="16.666" y1="8.3542" x2="16.8995" y2="8.51796" gradientUnits="userSpaceOnUse">
<stop stop-color="white"/>
<stop offset="0.447917" stop-color="#F2F2F2"/>
<stop offset="1" stop-color="#CEDCEF"/>
</linearGradient>
<linearGradient id="paint27_linear_804_774" x1="16.666" y1="8.3542" x2="16.8995" y2="8.51796" gradientUnits="userSpaceOnUse">
<stop stop-color="white"/>
<stop offset="0.447917" stop-color="#F2F2F2"/>
<stop offset="1" stop-color="#CEDCEF"/>
</linearGradient>
<linearGradient id="paint28_linear_804_774" x1="17.0298" y1="8.83894" x2="17.2633" y2="9.0027" gradientUnits="userSpaceOnUse">
<stop stop-color="white"/>
<stop offset="0.447917" stop-color="#F2F2F2"/>
<stop offset="1" stop-color="#CEDCEF"/>
</linearGradient>
<linearGradient id="paint29_linear_804_774" x1="17.0298" y1="8.83894" x2="17.2633" y2="9.0027" gradientUnits="userSpaceOnUse">
<stop stop-color="white"/>
<stop offset="0.447917" stop-color="#F2F2F2"/>
<stop offset="1" stop-color="#CEDCEF"/>
</linearGradient>
<linearGradient id="paint30_linear_804_774" x1="16.5454" y1="9.44527" x2="16.7789" y2="9.60903" gradientUnits="userSpaceOnUse">
<stop stop-color="white"/>
<stop offset="0.447917" stop-color="#F2F2F2"/>
<stop offset="1" stop-color="#CEDCEF"/>
</linearGradient>
<linearGradient id="paint31_linear_804_774" x1="16.5454" y1="9.44527" x2="16.7789" y2="9.60903" gradientUnits="userSpaceOnUse">
<stop stop-color="white"/>
<stop offset="0.447917" stop-color="#F2F2F2"/>
<stop offset="1" stop-color="#CEDCEF"/>
</linearGradient>
<linearGradient id="paint32_linear_804_774" x1="16.1816" y1="9.68745" x2="16.4151" y2="9.85121" gradientUnits="userSpaceOnUse">
<stop stop-color="white"/>
<stop offset="0.447917" stop-color="#F2F2F2"/>
<stop offset="1" stop-color="#CEDCEF"/>
</linearGradient>
<linearGradient id="paint33_linear_804_774" x1="16.1816" y1="9.68745" x2="16.4151" y2="9.85121" gradientUnits="userSpaceOnUse">
<stop stop-color="white"/>
<stop offset="0.447917" stop-color="#F2F2F2"/>
<stop offset="1" stop-color="#CEDCEF"/>
</linearGradient>
<linearGradient id="paint34_linear_804_774" x1="16.1816" y1="10.4149" x2="16.4151" y2="10.5786" gradientUnits="userSpaceOnUse">
<stop stop-color="white"/>
<stop offset="0.447917" stop-color="#F2F2F2"/>
<stop offset="1" stop-color="#CEDCEF"/>
</linearGradient>
<linearGradient id="paint35_linear_804_774" x1="16.1816" y1="10.4149" x2="16.4151" y2="10.5786" gradientUnits="userSpaceOnUse">
<stop stop-color="white"/>
<stop offset="0.447917" stop-color="#F2F2F2"/>
<stop offset="1" stop-color="#CEDCEF"/>
</linearGradient>
<linearGradient id="paint36_linear_804_774" x1="16.3027" y1="7.99055" x2="16.5362" y2="8.15431" gradientUnits="userSpaceOnUse">
<stop stop-color="white"/>
<stop offset="0.447917" stop-color="#F2F2F2"/>
<stop offset="1" stop-color="#CEDCEF"/>
</linearGradient>
<linearGradient id="paint37_linear_804_774" x1="16.3027" y1="7.99055" x2="16.5362" y2="8.15431" gradientUnits="userSpaceOnUse">
<stop stop-color="white"/>
<stop offset="0.447917" stop-color="#F2F2F2"/>
<stop offset="1" stop-color="#CEDCEF"/>
</linearGradient>
<linearGradient id="paint38_linear_804_774" x1="17.272" y1="7.748" x2="17.5055" y2="7.91176" gradientUnits="userSpaceOnUse">
<stop stop-color="white"/>
<stop offset="0.447917" stop-color="#F2F2F2"/>
<stop offset="1" stop-color="#CEDCEF"/>
</linearGradient>
<linearGradient id="paint39_linear_804_774" x1="17.272" y1="7.748" x2="17.5055" y2="7.91176" gradientUnits="userSpaceOnUse">
<stop stop-color="white"/>
<stop offset="0.447917" stop-color="#F2F2F2"/>
<stop offset="1" stop-color="#CEDCEF"/>
</linearGradient>
<linearGradient id="paint40_linear_804_774" x1="16.666" y1="7.62218" x2="17.0163" y2="7.86782" gradientUnits="userSpaceOnUse">
<stop stop-color="white"/>
<stop offset="0.447917" stop-color="#F2F2F2"/>
<stop offset="1" stop-color="#CEDCEF"/>
</linearGradient>
<linearGradient id="paint41_linear_804_774" x1="16.666" y1="7.62218" x2="17.0163" y2="7.86782" gradientUnits="userSpaceOnUse">
<stop stop-color="white"/>
<stop offset="0.447917" stop-color="#F2F2F2"/>
<stop offset="1" stop-color="#CEDCEF"/>
</linearGradient>
<linearGradient id="paint42_linear_804_774" x1="16.4238" y1="8.8341" x2="16.7741" y2="9.07974" gradientUnits="userSpaceOnUse">
<stop stop-color="white"/>
<stop offset="0.447917" stop-color="#F2F2F2"/>
<stop offset="1" stop-color="#CEDCEF"/>
</linearGradient>
<linearGradient id="paint43_linear_804_774" x1="16.4238" y1="8.8341" x2="16.7741" y2="9.07974" gradientUnits="userSpaceOnUse">
<stop stop-color="white"/>
<stop offset="0.447917" stop-color="#F2F2F2"/>
<stop offset="1" stop-color="#CEDCEF"/>
</linearGradient>
<linearGradient id="paint44_linear_804_774" x1="9.9833" y1="10.974" x2="22.2643" y2="22.3559" gradientUnits="userSpaceOnUse">
<stop stop-color="#B48A3D"/>
<stop offset="0.447917" stop-color="#FCECCD"/>
<stop offset="1" stop-color="#CCAB6C"/>
</linearGradient>
<linearGradient id="paint45_linear_804_774" x1="9.52033" y1="10.5454" x2="22.4361" y2="22.8225" gradientUnits="userSpaceOnUse">
<stop stop-color="#B48A3D"/>
<stop offset="0.447917" stop-color="#FCECCD"/>
<stop offset="1" stop-color="#CCAB6C"/>
</linearGradient>
<linearGradient id="paint46_linear_804_774" x1="10.3002" y1="14.8312" x2="15.6271" y2="17.4205" gradientUnits="userSpaceOnUse">
<stop stop-color="#B48A3D"/>
<stop offset="0.447917" stop-color="#FCECCD"/>
<stop offset="1" stop-color="#CCAB6C"/>
</linearGradient>
<linearGradient id="paint47_linear_804_774" x1="13.9944" y1="10.974" x2="24.9123" y2="17.59" gradientUnits="userSpaceOnUse">
<stop stop-color="#B48A3D"/>
<stop offset="0.447917" stop-color="#FCECCD"/>
<stop offset="1" stop-color="#CCAB6C"/>
</linearGradient>
<linearGradient id="paint48_linear_804_774" x1="18.2284" y1="14.8312" x2="23.5553" y2="17.4205" gradientUnits="userSpaceOnUse">
<stop stop-color="#B48A3D"/>
<stop offset="0.447917" stop-color="#FCECCD"/>
<stop offset="1" stop-color="#CCAB6C"/>
</linearGradient>
<linearGradient id="paint49_linear_804_774" x1="20.2856" y1="16.5111" x2="21.1112" y2="17.0902" gradientUnits="userSpaceOnUse">
<stop stop-color="#B48A3D"/>
<stop offset="0.447917" stop-color="#FCECCD"/>
<stop offset="1" stop-color="#CCAB6C"/>
</linearGradient>
<linearGradient id="paint50_linear_804_774" x1="19.8569" y1="18.4483" x2="20.4761" y2="18.8826" gradientUnits="userSpaceOnUse">
<stop stop-color="#B48A3D"/>
<stop offset="0.447917" stop-color="#FCECCD"/>
<stop offset="1" stop-color="#CCAB6C"/>
</linearGradient>
<linearGradient id="paint51_linear_804_774" x1="20.7144" y1="18.0283" x2="21.1271" y2="18.3178" gradientUnits="userSpaceOnUse">
<stop stop-color="#B48A3D"/>
<stop offset="0.447917" stop-color="#FCECCD"/>
<stop offset="1" stop-color="#CCAB6C"/>
</linearGradient>
<linearGradient id="paint52_linear_804_774" x1="19.6431" y1="17.3855" x2="20.0559" y2="17.675" gradientUnits="userSpaceOnUse">
<stop stop-color="#B48A3D"/>
<stop offset="0.447917" stop-color="#FCECCD"/>
<stop offset="1" stop-color="#CCAB6C"/>
</linearGradient>
<linearGradient id="paint53_linear_804_774" x1="20.7144" y1="15.4569" x2="21.1271" y2="15.7464" gradientUnits="userSpaceOnUse">
<stop stop-color="#B48A3D"/>
<stop offset="0.447917" stop-color="#FCECCD"/>
<stop offset="1" stop-color="#CCAB6C"/>
</linearGradient>
<linearGradient id="paint54_linear_804_774" x1="20.7144" y1="20.5998" x2="21.1271" y2="20.8893" gradientUnits="userSpaceOnUse">
<stop stop-color="#B48A3D"/>
<stop offset="0.447917" stop-color="#FCECCD"/>
<stop offset="1" stop-color="#CCAB6C"/>
</linearGradient>
<linearGradient id="paint55_linear_804_774" x1="20.7144" y1="19.5283" x2="21.1271" y2="19.8178" gradientUnits="userSpaceOnUse">
<stop stop-color="#B48A3D"/>
<stop offset="0.447917" stop-color="#FCECCD"/>
<stop offset="1" stop-color="#CCAB6C"/>
</linearGradient>
<linearGradient id="paint56_linear_804_774" x1="13.4546" y1="13.1168" x2="21.04" y2="17.0825" gradientUnits="userSpaceOnUse">
<stop stop-color="#B48A3D"/>
<stop offset="0.447917" stop-color="#FCECCD"/>
<stop offset="1" stop-color="#CCAB6C"/>
</linearGradient>
<linearGradient id="paint57_linear_804_774" x1="13.4546" y1="13.1168" x2="20.1368" y2="17.5766" gradientUnits="userSpaceOnUse">
<stop stop-color="#B48A3D"/>
<stop offset="0.447917" stop-color="#FCECCD"/>
<stop offset="1" stop-color="#CCAB6C"/>
</linearGradient>
<linearGradient id="paint58_linear_804_774" x1="10.6431" y1="14.917" x2="11.2581" y2="14.9386" gradientUnits="userSpaceOnUse">
<stop stop-color="#B48A3D"/>
<stop offset="0.447917" stop-color="#FCECCD"/>
<stop offset="1" stop-color="#CCAB6C"/>
</linearGradient>
<linearGradient id="paint59_linear_804_774" x1="11.0713" y1="11.0426" x2="14.58" y2="13.5034" gradientUnits="userSpaceOnUse">
<stop stop-color="#B48A3D"/>
<stop offset="0.447917" stop-color="#FCECCD"/>
<stop offset="1" stop-color="#CCAB6C"/>
</linearGradient>
<linearGradient id="paint60_linear_804_774" x1="19.6431" y1="24.4483" x2="20.2622" y2="24.8826" gradientUnits="userSpaceOnUse">
<stop stop-color="#B48A3D"/>
<stop offset="0.447917" stop-color="#FCECCD"/>
<stop offset="1" stop-color="#CCAB6C"/>
</linearGradient>
<linearGradient id="paint61_linear_804_774" x1="17.5" y1="26.5912" x2="18.1192" y2="27.0255" gradientUnits="userSpaceOnUse">
<stop stop-color="#B48A3D"/>
<stop offset="0.447917" stop-color="#FCECCD"/>
<stop offset="1" stop-color="#CCAB6C"/>
</linearGradient>
<linearGradient id="paint62_linear_804_774" x1="18.3569" y1="25.7339" x2="18.9761" y2="26.1682" gradientUnits="userSpaceOnUse">
<stop stop-color="#B48A3D"/>
<stop offset="0.447917" stop-color="#FCECCD"/>
<stop offset="1" stop-color="#CCAB6C"/>
</linearGradient>
<linearGradient id="paint63_linear_804_774" x1="17.5" y1="25.314" x2="17.9128" y2="25.6035" gradientUnits="userSpaceOnUse">
<stop stop-color="#B48A3D"/>
<stop offset="0.447917" stop-color="#FCECCD"/>
<stop offset="1" stop-color="#CCAB6C"/>
</linearGradient>
<linearGradient id="paint64_linear_804_774" x1="19" y1="25.314" x2="19.4128" y2="25.6035" gradientUnits="userSpaceOnUse">
<stop stop-color="#B48A3D"/>
<stop offset="0.447917" stop-color="#FCECCD"/>
<stop offset="1" stop-color="#CCAB6C"/>
</linearGradient>
<linearGradient id="paint65_linear_804_774" x1="18.1431" y1="24.2254" x2="18.9686" y2="24.8044" gradientUnits="userSpaceOnUse">
<stop stop-color="#B48A3D"/>
<stop offset="0.447917" stop-color="#FCECCD"/>
<stop offset="1" stop-color="#CCAB6C"/>
</linearGradient>
<linearGradient id="paint66_linear_804_774" x1="-2.22411e-07" y1="-1.27913" x2="30.8212" y2="20.3372" gradientUnits="userSpaceOnUse">
<stop stop-color="#B48A3D"/>
<stop offset="0.447917" stop-color="#FCECCD"/>
<stop offset="1" stop-color="#CCAB6C"/>
</linearGradient>
</defs>
</svg>
