<svg width="32" height="32" viewBox="0 0 32 32" fill="none" xmlns="http://www.w3.org/2000/svg">
<path d="M22.9097 18.555C21.5926 23.3884 16.6646 26.2896 11.9028 25.035C7.14092 23.7803 4.34839 18.8449 5.66548 14.0115C6.98258 9.17805 11.9105 6.27686 16.6724 7.5315C21.4343 8.78615 24.2268 13.7215 22.9097 18.555Z" fill="url(#paint0_linear_804_1017)"/>
<path fill-rule="evenodd" clip-rule="evenodd" d="M23.4664 18.7016C22.0715 23.8206 16.8398 26.922 11.7542 25.582C6.66861 24.2421 3.71477 18.984 5.10969 13.865C6.50461 8.74596 11.7363 5.64464 16.8219 6.98459C21.9075 8.32453 24.8614 13.5826 23.4664 18.7016ZM11.9033 25.035C16.6651 26.2897 21.5931 23.3885 22.9102 18.555C24.2273 13.7216 21.4347 8.78621 16.6729 7.53157C11.911 6.27692 6.98305 9.17812 5.66596 14.0116C4.34886 18.845 7.14139 23.7804 11.9033 25.035Z" fill="url(#paint1_linear_804_1017)"/>
<path d="M22.334 17.9888C21.0169 22.8223 16.089 25.7234 11.3271 24.4688C6.56523 23.2142 3.7727 18.2788 5.0898 13.4453C6.40689 8.61189 11.3349 5.7107 16.0967 6.96534C20.8586 8.21999 23.6511 13.1554 22.334 17.9888Z" fill="url(#paint2_linear_804_1017)"/>
<path fill-rule="evenodd" clip-rule="evenodd" d="M22.8908 18.1353C21.4958 23.2544 16.2641 26.3557 11.1785 25.0157C6.09293 23.6758 3.13909 18.4178 4.53401 13.2987C5.92893 8.17968 11.1607 5.07836 16.2462 6.4183C21.3318 7.75824 24.2857 13.0163 22.8908 18.1353ZM11.3276 24.4687C16.0894 25.7234 21.0174 22.8222 22.3345 17.9888C23.6516 13.1553 20.859 8.21993 16.0972 6.96528C11.3353 5.71064 6.40737 8.61183 5.09027 13.4453C3.77318 18.2787 6.56571 23.2141 11.3276 24.4687Z" fill="url(#paint3_linear_804_1017)"/>
<path d="M20.6653 17.5489C19.5951 21.4761 15.6145 23.8395 11.7743 22.8277C7.93407 21.8158 5.68849 17.812 6.75863 13.8848C7.82877 9.95765 11.8094 7.59428 15.6496 8.60609C19.4898 9.61791 21.7354 13.6217 20.6653 17.5489Z" fill="url(#paint4_linear_804_1017)"/>
<path fill-rule="evenodd" clip-rule="evenodd" d="M21.2215 17.6957C20.0746 21.9045 15.793 24.473 11.6252 23.3748C7.45743 22.2767 5.05546 17.9473 6.20235 13.7385C7.34925 9.5296 11.6309 6.96118 15.7986 8.0593C19.9664 9.15742 22.3684 13.4868 21.2215 17.6957ZM11.7743 22.8278C15.6145 23.8397 19.5951 21.4763 20.6652 17.5491C21.7354 13.6219 19.4898 9.61809 15.6496 8.60628C11.8094 7.59447 7.82876 9.95784 6.75862 13.885C5.68848 17.8122 7.93406 21.816 11.7743 22.8278Z" fill="url(#paint5_linear_804_1017)"/>
<path fill-rule="evenodd" clip-rule="evenodd" d="M19.0567 10.6752C18.2656 9.98197 17.3087 9.45804 16.2248 9.17246C12.3846 8.16065 8.40401 10.524 7.33387 14.4512C6.64331 16.9854 7.33345 19.5515 8.9418 21.325C6.92995 19.5619 5.98988 16.7037 6.75798 13.8849C7.82812 9.95774 11.8087 7.59437 15.649 8.60618C17.0111 8.96508 18.1726 9.70042 19.0567 10.6752Z" fill="url(#paint6_linear_804_1017)"/>
<path d="M18.7756 18.8689C18.8693 19.0709 18.7787 19.3094 18.5732 19.4016C18.3678 19.4937 18.1252 19.4047 18.0315 19.2026C17.9378 19.0006 18.0284 18.7621 18.2338 18.6699C18.4393 18.5778 18.6818 18.6669 18.7756 18.8689Z" fill="url(#paint7_linear_804_1017)"/>
<path d="M20.422 17.2463C20.5158 17.4484 20.4252 17.6869 20.2197 17.779C20.0142 17.8712 19.7717 17.7821 19.678 17.5801C19.5843 17.378 19.6749 17.1395 19.8803 17.0474C20.0858 16.9552 20.3283 17.0443 20.422 17.2463Z" fill="url(#paint8_linear_804_1017)"/>
<path d="M18.4279 17.083C18.5216 17.285 18.431 17.5235 18.2256 17.6157C18.0201 17.7078 17.7776 17.6188 17.6839 17.4167C17.5901 17.2147 17.6807 16.9762 17.8862 16.884C18.0917 16.7919 18.3342 16.881 18.4279 17.083Z" fill="url(#paint9_linear_804_1017)"/>
<path d="M19.2643 17.6784C19.3296 17.8191 19.2665 17.9852 19.1234 18.0493C18.9803 18.1135 18.8114 18.0515 18.7461 17.9108C18.6808 17.7701 18.7439 17.604 18.887 17.5398C19.0301 17.4756 19.199 17.5377 19.2643 17.6784Z" fill="url(#paint10_linear_804_1017)"/>
<path d="M19.1539 16.4497C19.2192 16.5904 19.1561 16.7565 19.013 16.8207C18.8699 16.8849 18.701 16.8228 18.6358 16.6821C18.5705 16.5414 18.6336 16.3753 18.7767 16.3112C18.9198 16.247 19.0887 16.309 19.1539 16.4497Z" fill="url(#paint11_linear_804_1017)"/>
<path d="M20.4547 16.1742C20.52 16.3149 20.4569 16.481 20.3138 16.5452C20.1707 16.6094 20.0018 16.5473 19.9365 16.4066C19.8713 16.2659 19.9344 16.0998 20.0775 16.0356C20.2205 15.9715 20.3895 16.0335 20.4547 16.1742Z" fill="url(#paint12_linear_804_1017)"/>
<path d="M20.6222 14.4258C20.6875 14.5665 20.6244 14.7326 20.4813 14.7968C20.3382 14.861 20.1693 14.7989 20.104 14.6582C20.0387 14.5175 20.1018 14.3514 20.2449 14.2872C20.388 14.2231 20.5569 14.2851 20.6222 14.4258Z" fill="url(#paint13_linear_804_1017)"/>
<path d="M19.7413 15.5708C19.8066 15.7115 19.7435 15.8776 19.6004 15.9418C19.4573 16.006 19.2884 15.9439 19.2232 15.8032C19.1579 15.6625 19.221 15.4964 19.3641 15.4323C19.5072 15.3681 19.6761 15.4301 19.7413 15.5708Z" fill="url(#paint14_linear_804_1017)"/>
<path d="M19.9743 18.4258C20.0395 18.5665 19.9764 18.7326 19.8333 18.7968C19.6902 18.861 19.5213 18.7989 19.4561 18.6582C19.3908 18.5175 19.4539 18.3514 19.597 18.2872C19.7401 18.2231 19.909 18.2851 19.9743 18.4258Z" fill="url(#paint15_linear_804_1017)"/>
<path d="M18.6789 20.0782C18.7393 20.2082 18.681 20.3617 18.5487 20.421C18.4165 20.4803 18.2604 20.423 18.2 20.293C18.1397 20.1629 18.198 20.0094 18.3303 19.9501C18.4625 19.8908 18.6186 19.9481 18.6789 20.0782Z" fill="url(#paint16_linear_804_1017)"/>
<path d="M19.2978 19.3756C19.3347 19.4551 19.2991 19.549 19.2182 19.5853C19.1372 19.6216 19.0417 19.5865 19.0048 19.507C18.9679 19.4274 19.0036 19.3335 19.0845 19.2972C19.1654 19.2609 19.2609 19.296 19.2978 19.3756Z" fill="url(#paint17_linear_804_1017)"/>
<path d="M18.1599 18.0792C18.2101 18.1874 18.1616 18.3152 18.0515 18.3646C17.9415 18.4139 17.8115 18.3662 17.7613 18.258C17.7111 18.1498 17.7596 18.022 17.8697 17.9726C17.9798 17.9233 18.1097 17.971 18.1599 18.0792Z" fill="url(#paint18_linear_804_1017)"/>
<path d="M19.8254 14.6805C19.8757 14.7888 19.8271 14.9165 19.7171 14.9659C19.607 15.0153 19.477 14.9675 19.4268 14.8593C19.3766 14.7511 19.4252 14.6233 19.5352 14.5739C19.6453 14.5246 19.7752 14.5723 19.8254 14.6805Z" fill="url(#paint19_linear_804_1017)"/>
<path d="M20.4832 15.4748C20.5334 15.5831 20.4848 15.7108 20.3748 15.7602C20.2647 15.8096 20.1348 15.7619 20.0846 15.6536C20.0344 15.5454 20.0829 15.4176 20.193 15.3683C20.303 15.3189 20.433 15.3666 20.4832 15.4748Z" fill="url(#paint20_linear_804_1017)"/>
<path d="M17.8792 19.6019C17.9294 19.7101 17.8808 19.8379 17.7708 19.8873C17.6607 19.9366 17.5308 19.8889 17.4806 19.7807C17.4303 19.6725 17.4789 19.5447 17.5889 19.4953C17.699 19.446 17.829 19.4937 17.8792 19.6019Z" fill="url(#paint21_linear_804_1017)"/>
<path d="M17.7551 20.8573C17.8053 20.9655 17.7568 21.0933 17.6467 21.1426C17.5367 21.192 17.4067 21.1443 17.3565 21.0361C17.3063 20.9278 17.3549 20.8001 17.4649 20.7507C17.575 20.7013 17.7049 20.7491 17.7551 20.8573Z" fill="url(#paint22_linear_804_1017)"/>
<path fill-rule="evenodd" clip-rule="evenodd" d="M12.5019 11.1974C13.2918 10.9158 14.1551 10.9654 14.8649 11.1147C15.5542 11.2597 16.1377 11.4705 16.639 11.8015C17.1485 12.1379 17.5012 12.551 17.7921 12.9926C18.1378 13.5177 17.9853 14.2189 17.4513 14.5589C16.9174 14.8988 16.2042 14.7488 15.8585 14.2238C15.679 13.9512 15.5294 13.7972 15.355 13.6821C15.1723 13.5615 14.8903 13.4364 14.383 13.3297C13.896 13.2272 13.5147 13.2457 13.2871 13.3269C13.1868 13.3626 13.131 13.4048 13.0954 13.4443C13.0611 13.4823 13.008 13.5591 12.9728 13.7207C12.9377 13.8823 12.9542 13.9738 12.9697 14.0223C12.9857 14.0726 13.0191 14.1335 13.0957 14.2065C13.2696 14.3721 13.6099 14.5424 14.0968 14.6448C14.8066 14.7941 15.615 15.0962 16.2186 15.671C16.8816 16.3023 17.2218 17.1995 16.9915 18.2578C16.7613 19.3161 16.0775 19.9979 15.2099 20.3072C14.42 20.5889 13.5566 20.5393 12.8469 20.39C11.3671 20.0787 10.3683 19.2938 9.88461 18.4551C9.57081 17.9111 9.76499 17.2198 10.3183 16.9113C10.8716 16.6027 11.5746 16.7937 11.8884 17.3378C12.0105 17.5495 12.4152 17.9828 13.3288 18.175C13.8157 18.2774 14.1971 18.2589 14.4247 18.1778C14.525 18.142 14.5807 18.0999 14.6164 18.0604C14.6506 18.0224 14.7038 17.9456 14.7389 17.784C14.7741 17.6224 14.7576 17.5309 14.7421 17.4824C14.726 17.432 14.6927 17.3711 14.6161 17.2982C14.4422 17.1326 14.1019 16.9623 13.6149 16.8598C12.9052 16.7105 12.0968 16.4084 11.4932 15.8337C10.8302 15.2023 10.49 14.3051 10.7203 13.2468C10.9505 12.1885 11.6342 11.5068 12.5019 11.1974Z" fill="#826C43"/>
<path fill-rule="evenodd" clip-rule="evenodd" d="M15.2488 9.34973C15.8709 9.48058 16.2673 10.0825 16.1342 10.6942L15.7728 12.3554C15.6397 12.9671 15.0275 13.3568 14.4055 13.226C13.7835 13.0951 13.3871 12.4932 13.5202 11.8815L13.8816 10.2203C14.0147 9.60864 14.6268 9.21887 15.2488 9.34973Z" fill="#826C43"/>
<path fill-rule="evenodd" clip-rule="evenodd" d="M13.3289 18.175C13.951 18.3059 14.3473 18.9078 14.2143 19.5195L13.8528 21.1807C13.7198 21.7924 13.1076 22.1821 12.4856 22.0513C11.8636 21.9204 11.4672 21.3185 11.6003 20.7069L11.9617 19.0456C12.0948 18.434 12.7069 18.0442 13.3289 18.175Z" fill="#826C43"/>
<path fill-rule="evenodd" clip-rule="evenodd" d="M12.7471 11.8629C13.3613 11.644 14.0741 11.6723 14.7142 11.8069C15.3466 11.94 15.8359 12.124 16.2376 12.3892C16.6424 12.6565 16.9317 12.9886 17.1877 13.3774C17.3174 13.5743 17.2602 13.8373 17.0599 13.9648C16.8597 14.0923 16.5923 14.036 16.4626 13.8391C16.2483 13.5137 16.0352 13.2787 15.7561 13.0944C15.4739 12.9081 15.0977 12.7562 14.5335 12.6376C13.9769 12.5205 13.4449 12.5177 13.0416 12.6615C12.6674 12.7949 12.3804 13.0594 12.2688 13.5727C12.1571 14.0859 12.3089 14.4428 12.5948 14.715C12.903 15.0085 13.3896 15.22 13.9461 15.3371C14.5862 15.4717 15.2484 15.7326 15.7177 16.1796C16.2093 16.6477 16.4638 17.2992 16.2875 18.1098C16.1111 18.9204 15.6077 19.4125 14.9644 19.6418C14.3502 19.8608 13.6375 19.8325 12.9974 19.6978C11.6945 19.4238 10.8813 18.7488 10.5107 18.106C10.393 17.902 10.4658 17.6428 10.6733 17.5271C10.8808 17.4114 11.1444 17.483 11.2621 17.687C11.4972 18.0946 12.0876 18.6378 13.1781 18.8672C13.7347 18.9843 14.2666 18.9871 14.6699 18.8433C15.0441 18.7099 15.3311 18.4453 15.4428 17.9321C15.5544 17.4188 15.4026 17.062 15.1167 16.7897C14.8085 16.4963 14.322 16.2848 13.7654 16.1677C13.1253 16.033 12.4632 15.7721 11.9939 15.3252C11.5023 14.8571 11.2477 14.2055 11.4241 13.395C11.6004 12.5844 12.1038 12.0923 12.7471 11.8629Z" fill="url(#paint23_linear_804_1017)"/>
<path fill-rule="evenodd" clip-rule="evenodd" d="M15.0981 10.0419C15.3314 10.0909 15.48 10.3166 15.4301 10.546L15.0687 12.2073C15.0188 12.4366 14.7893 12.5828 14.556 12.5337C14.3227 12.4846 14.1741 12.2589 14.224 12.0296L14.5854 10.3683C14.6353 10.1389 14.8649 9.99278 15.0981 10.0419Z" fill="url(#paint24_linear_804_1017)"/>
<path fill-rule="evenodd" clip-rule="evenodd" d="M13.1782 18.8672C13.4115 18.9162 13.5601 19.142 13.5102 19.3713L13.1488 21.0326C13.0989 21.2619 12.8693 21.4081 12.6361 21.359C12.4028 21.31 12.2542 21.0842 12.3041 20.8549L12.6655 19.1936C12.7154 18.9643 12.945 18.8181 13.1782 18.8672Z" fill="url(#paint25_linear_804_1017)"/>
<path fill-rule="evenodd" clip-rule="evenodd" d="M5.80468 13.0092C5.65571 12.9545 5.58007 12.7914 5.63574 12.6449C6.62964 10.0295 8.85542 8.00543 11.6198 7.25521C11.773 7.21361 11.9316 7.30208 11.9739 7.45281C12.0162 7.60355 11.9263 7.75947 11.773 7.80108C9.18796 8.50263 7.10495 10.3965 6.17519 12.8431C6.11953 12.9896 5.95364 13.064 5.80468 13.0092Z" fill="url(#paint26_linear_804_1017)"/>
<path fill-rule="evenodd" clip-rule="evenodd" d="M20.8862 20.0077C21.0206 20.0912 21.0608 20.2661 20.9758 20.3983C20.3023 21.4467 19.4092 22.3451 18.36 23.0311C18.2276 23.1177 18.0488 23.0823 17.9608 22.9521C17.8727 22.8218 17.9087 22.6461 18.0411 22.5595C19.0229 21.9176 19.8587 21.0769 20.489 20.0958C20.5739 19.9636 20.7517 19.9242 20.8862 20.0077Z" fill="url(#paint27_linear_804_1017)"/>
<path fill-rule="evenodd" clip-rule="evenodd" d="M8.97628 9.15721C8.97623 9.15724 8.97634 9.15717 8.97628 9.15721L8.81656 8.92162C8.97628 9.15721 8.97625 9.15723 8.97628 9.15721L8.97525 9.15789L8.96941 9.1618C8.96396 9.16547 8.95545 9.17125 8.94416 9.17907C8.92157 9.19472 8.8879 9.21851 8.84536 9.24988C8.76018 9.3127 8.63996 9.40556 8.50227 9.52402C8.2253 9.76233 7.88536 10.0977 7.61643 10.4944C7.52821 10.6245 7.34944 10.6596 7.21712 10.5729C7.0848 10.4862 7.04905 10.3104 7.13726 10.1803C7.44422 9.7275 7.82413 9.35504 8.12305 9.09785C8.27331 8.96857 8.40503 8.86677 8.49982 8.79686C8.54726 8.76188 8.58557 8.73479 8.61248 8.71615C8.62593 8.70683 8.63654 8.69961 8.64403 8.69457L8.65288 8.68865L8.65549 8.68692L8.65632 8.68637L8.65662 8.68618C8.65667 8.68614 8.65684 8.68603 8.81656 8.92162L8.65662 8.68618C8.78894 8.59944 8.96793 8.63445 9.05615 8.76456C9.14432 8.89462 9.10846 9.07043 8.97628 9.15721Z" fill="url(#paint28_linear_804_1017)"/>
<path fill-rule="evenodd" clip-rule="evenodd" d="M10.1286 10.573C10.1286 10.573 10.1287 10.5729 10.1286 10.573L9.96891 10.3374C10.1286 10.573 10.1286 10.573 10.1286 10.573L10.1276 10.5737L10.1218 10.5776C10.1163 10.5812 10.1078 10.587 10.0965 10.5948C10.0739 10.6105 10.0402 10.6343 9.9977 10.6657C9.91253 10.7285 9.7923 10.8213 9.65462 10.9398C9.37764 11.1781 9.0377 11.5135 8.76877 11.9101C8.68056 12.0403 8.50178 12.0754 8.36946 11.9887C8.23714 11.9019 8.20139 11.7261 8.2896 11.596C8.59656 11.1433 8.97648 10.7708 9.27539 10.5136C9.42565 10.3843 9.55737 10.2825 9.65217 10.2126C9.69961 10.1776 9.73792 10.1506 9.76482 10.1319C9.77828 10.1226 9.78889 10.1154 9.79637 10.1103L9.80523 10.1044L9.80783 10.1027L9.80866 10.1021L9.80896 10.1019C9.80901 10.1019 9.80918 10.1018 9.96891 10.3374L9.80896 10.1019C9.94128 10.0152 10.1203 10.0502 10.2085 10.1803C10.2967 10.3104 10.2608 10.4862 10.1286 10.573Z" fill="url(#paint29_linear_804_1017)"/>
<g filter="url(#filter0_d_804_1017)">
<path d="M26.9097 17.555C25.5926 22.3884 20.6646 25.2896 15.9028 24.035C11.1409 22.7803 8.34839 17.8449 9.66548 13.0115C10.9826 8.17805 15.9105 5.27686 20.6724 6.5315C25.4343 7.78615 28.2268 12.7215 26.9097 17.555Z" fill="url(#paint30_linear_804_1017)"/>
<path fill-rule="evenodd" clip-rule="evenodd" d="M27.4664 17.7016C26.0715 22.8206 20.8398 25.922 15.7542 24.582C10.6686 23.2421 7.71477 17.984 9.10969 12.865C10.5046 7.74596 15.7363 4.64464 20.8219 5.98459C25.9075 7.32453 28.8614 12.5826 27.4664 17.7016ZM15.9033 24.035C20.6651 25.2897 25.5931 22.3885 26.9102 17.555C28.2273 12.7216 25.4347 7.78621 20.6729 6.53157C15.911 5.27692 10.9831 8.17812 9.66596 13.0116C8.34886 17.845 11.1414 22.7804 15.9033 24.035Z" fill="url(#paint31_linear_804_1017)"/>
<path d="M26.334 16.9888C25.0169 21.8223 20.089 24.7234 15.3271 23.4688C10.5652 22.2142 7.7727 17.2788 9.0898 12.4453C10.4069 7.61189 15.3349 4.7107 20.0967 5.96534C24.8586 7.21999 27.6511 12.1554 26.334 16.9888Z" fill="url(#paint32_linear_804_1017)"/>
<path fill-rule="evenodd" clip-rule="evenodd" d="M26.8908 17.1353C25.4958 22.2544 20.2641 25.3557 15.1785 24.0157C10.0929 22.6758 7.13909 17.4178 8.53401 12.2987C9.92893 7.17968 15.1607 4.07836 20.2462 5.4183C25.3318 6.75824 28.2857 12.0163 26.8908 17.1353ZM15.3276 23.4687C20.0894 24.7234 25.0174 21.8222 26.3345 16.9888C27.6516 12.1553 24.859 7.21993 20.0972 5.96528C15.3353 4.71064 10.4074 7.61183 9.09027 12.4453C7.77318 17.2787 10.5657 22.2141 15.3276 23.4687Z" fill="url(#paint33_linear_804_1017)"/>
<path d="M24.6653 16.5489C23.5951 20.4761 19.6145 22.8395 15.7743 21.8277C11.9341 20.8158 9.68849 16.812 10.7586 12.8848C11.8288 8.95765 15.8094 6.59428 19.6496 7.60609C23.4898 8.61791 25.7354 12.6217 24.6653 16.5489Z" fill="url(#paint34_linear_804_1017)"/>
<path fill-rule="evenodd" clip-rule="evenodd" d="M25.2215 16.6957C24.0746 20.9045 19.793 23.473 15.6252 22.3748C11.4574 21.2767 9.05546 16.9473 10.2024 12.7385C11.3492 8.5296 15.6309 5.96118 19.7986 7.0593C23.9664 8.15742 26.3684 12.4868 25.2215 16.6957ZM15.7743 21.8278C19.6145 22.8397 23.5951 20.4763 24.6652 16.5491C25.7354 12.6219 23.4898 8.61809 19.6496 7.60628C15.8094 6.59447 11.8288 8.95784 10.7586 12.885C9.68848 16.8122 11.9341 20.816 15.7743 21.8278Z" fill="url(#paint35_linear_804_1017)"/>
<path fill-rule="evenodd" clip-rule="evenodd" d="M23.0567 9.67525C22.2656 8.98197 21.3087 8.45804 20.2248 8.17246C16.3846 7.16065 12.404 9.52402 11.3339 13.4512C10.6433 15.9854 11.3334 18.5515 12.9418 20.325C10.93 18.5619 9.98988 15.7037 10.758 12.8849C11.8281 8.95774 15.8087 6.59437 19.649 7.60618C21.0111 7.96508 22.1726 8.70042 23.0567 9.67525Z" fill="url(#paint36_linear_804_1017)"/>
<path d="M22.7756 17.8689C22.8693 18.0709 22.7787 18.3094 22.5732 18.4016C22.3678 18.4937 22.1252 18.4047 22.0315 18.2026C21.9378 18.0006 22.0284 17.7621 22.2338 17.6699C22.4393 17.5778 22.6818 17.6669 22.7756 17.8689Z" fill="url(#paint37_linear_804_1017)"/>
<path d="M24.422 16.2463C24.5158 16.4484 24.4252 16.6869 24.2197 16.779C24.0142 16.8712 23.7717 16.7821 23.678 16.5801C23.5843 16.378 23.6749 16.1395 23.8803 16.0474C24.0858 15.9552 24.3283 16.0443 24.422 16.2463Z" fill="url(#paint38_linear_804_1017)"/>
<path d="M22.4279 16.083C22.5216 16.285 22.431 16.5235 22.2256 16.6157C22.0201 16.7078 21.7776 16.6188 21.6839 16.4167C21.5901 16.2147 21.6807 15.9762 21.8862 15.884C22.0917 15.7919 22.3342 15.881 22.4279 16.083Z" fill="url(#paint39_linear_804_1017)"/>
<path d="M23.2643 16.6784C23.3296 16.8191 23.2665 16.9852 23.1234 17.0493C22.9803 17.1135 22.8114 17.0515 22.7461 16.9108C22.6808 16.7701 22.7439 16.604 22.887 16.5398C23.0301 16.4756 23.199 16.5377 23.2643 16.6784Z" fill="url(#paint40_linear_804_1017)"/>
<path d="M23.1539 15.4497C23.2192 15.5904 23.1561 15.7565 23.013 15.8207C22.8699 15.8849 22.701 15.8228 22.6358 15.6821C22.5705 15.5414 22.6336 15.3753 22.7767 15.3112C22.9198 15.247 23.0887 15.309 23.1539 15.4497Z" fill="url(#paint41_linear_804_1017)"/>
<path d="M24.4547 15.1742C24.52 15.3149 24.4569 15.481 24.3138 15.5452C24.1707 15.6094 24.0018 15.5473 23.9365 15.4066C23.8713 15.2659 23.9344 15.0998 24.0775 15.0356C24.2205 14.9715 24.3895 15.0335 24.4547 15.1742Z" fill="url(#paint42_linear_804_1017)"/>
<path d="M24.6222 13.4258C24.6875 13.5665 24.6244 13.7326 24.4813 13.7968C24.3382 13.861 24.1693 13.7989 24.104 13.6582C24.0387 13.5175 24.1018 13.3514 24.2449 13.2872C24.388 13.2231 24.5569 13.2851 24.6222 13.4258Z" fill="url(#paint43_linear_804_1017)"/>
<path d="M23.7413 14.5708C23.8066 14.7115 23.7435 14.8776 23.6004 14.9418C23.4573 15.006 23.2884 14.9439 23.2232 14.8032C23.1579 14.6625 23.221 14.4964 23.3641 14.4323C23.5072 14.3681 23.6761 14.4301 23.7413 14.5708Z" fill="url(#paint44_linear_804_1017)"/>
<path d="M23.9743 17.4258C24.0395 17.5665 23.9764 17.7326 23.8333 17.7968C23.6902 17.861 23.5213 17.7989 23.4561 17.6582C23.3908 17.5175 23.4539 17.3514 23.597 17.2872C23.7401 17.2231 23.909 17.2851 23.9743 17.4258Z" fill="url(#paint45_linear_804_1017)"/>
<path d="M22.6789 19.0782C22.7393 19.2082 22.681 19.3617 22.5487 19.421C22.4165 19.4803 22.2604 19.423 22.2 19.293C22.1397 19.1629 22.198 19.0094 22.3303 18.9501C22.4625 18.8908 22.6186 18.9481 22.6789 19.0782Z" fill="url(#paint46_linear_804_1017)"/>
<path d="M23.2978 18.3756C23.3347 18.4551 23.2991 18.549 23.2182 18.5853C23.1372 18.6216 23.0417 18.5865 23.0048 18.507C22.9679 18.4274 23.0036 18.3335 23.0845 18.2972C23.1654 18.2609 23.2609 18.296 23.2978 18.3756Z" fill="url(#paint47_linear_804_1017)"/>
<path d="M22.1599 17.0792C22.2101 17.1874 22.1616 17.3152 22.0515 17.3646C21.9415 17.4139 21.8115 17.3662 21.7613 17.258C21.7111 17.1498 21.7596 17.022 21.8697 16.9726C21.9798 16.9233 22.1097 16.971 22.1599 17.0792Z" fill="url(#paint48_linear_804_1017)"/>
<path d="M23.8254 13.6805C23.8757 13.7888 23.8271 13.9165 23.7171 13.9659C23.607 14.0153 23.477 13.9675 23.4268 13.8593C23.3766 13.7511 23.4252 13.6233 23.5352 13.5739C23.6453 13.5246 23.7752 13.5723 23.8254 13.6805Z" fill="url(#paint49_linear_804_1017)"/>
<path d="M24.4832 14.4748C24.5334 14.5831 24.4848 14.7108 24.3748 14.7602C24.2647 14.8096 24.1348 14.7619 24.0846 14.6536C24.0344 14.5454 24.0829 14.4176 24.193 14.3683C24.303 14.3189 24.433 14.3666 24.4832 14.4748Z" fill="url(#paint50_linear_804_1017)"/>
<path d="M21.8792 18.6019C21.9294 18.7101 21.8808 18.8379 21.7708 18.8873C21.6607 18.9366 21.5308 18.8889 21.4806 18.7807C21.4303 18.6725 21.4789 18.5447 21.5889 18.4953C21.699 18.446 21.829 18.4937 21.8792 18.6019Z" fill="url(#paint51_linear_804_1017)"/>
<path d="M21.7551 19.8573C21.8053 19.9655 21.7568 20.0933 21.6467 20.1426C21.5367 20.192 21.4067 20.1443 21.3565 20.0361C21.3063 19.9278 21.3549 19.8001 21.4649 19.7507C21.575 19.7013 21.7049 19.7491 21.7551 19.8573Z" fill="url(#paint52_linear_804_1017)"/>
<path fill-rule="evenodd" clip-rule="evenodd" d="M16.5019 10.1974C17.2918 9.91578 18.1551 9.96538 18.8649 10.1147C19.5542 10.2597 20.1377 10.4705 20.639 10.8015C21.1485 11.1379 21.5012 11.551 21.7921 11.9926C22.1378 12.5177 21.9853 13.2189 21.4513 13.5589C20.9174 13.8988 20.2042 13.7488 19.8585 13.2238C19.679 12.9512 19.5294 12.7972 19.355 12.6821C19.1723 12.5615 18.8903 12.4364 18.383 12.3297C17.896 12.2272 17.5147 12.2457 17.2871 12.3269C17.1868 12.3626 17.131 12.4048 17.0954 12.4443C17.0611 12.4823 17.008 12.5591 16.9728 12.7207C16.9377 12.8823 16.9542 12.9738 16.9697 13.0223C16.9857 13.0726 17.0191 13.1335 17.0957 13.2065C17.2696 13.3721 17.6099 13.5424 18.0968 13.6448C18.8066 13.7941 19.615 14.0962 20.2186 14.671C20.8816 15.3023 21.2218 16.1995 20.9915 17.2578C20.7613 18.3161 20.0775 18.9979 19.2099 19.3072C18.42 19.5889 17.5566 19.5393 16.8469 19.39C15.3671 19.0787 14.3683 18.2938 13.8846 17.4551C13.5708 16.9111 13.765 16.2198 14.3183 15.9113C14.8716 15.6027 15.5746 15.7937 15.8884 16.3378C16.0105 16.5495 16.4152 16.9828 17.3288 17.175C17.8157 17.2774 18.1971 17.2589 18.4247 17.1778C18.525 17.142 18.5807 17.0999 18.6164 17.0604C18.6506 17.0224 18.7038 16.9456 18.7389 16.784C18.7741 16.6224 18.7576 16.5309 18.7421 16.4824C18.726 16.432 18.6927 16.3711 18.6161 16.2982C18.4422 16.1326 18.1019 15.9623 17.6149 15.8598C16.9052 15.7105 16.0968 15.4084 15.4932 14.8337C14.8302 14.2023 14.49 13.3051 14.7203 12.2468C14.9505 11.1885 15.6342 10.5068 16.5019 10.1974Z" fill="url(#paint53_linear_804_1017)"/>
<path fill-rule="evenodd" clip-rule="evenodd" d="M19.2488 8.34973C19.8709 8.48058 20.2673 9.0825 20.1342 9.69416L19.7728 11.3554C19.6397 11.9671 19.0275 12.3568 18.4055 12.226C17.7835 12.0951 17.3871 11.4932 17.5202 10.8815L17.8816 9.22029C18.0147 8.60864 18.6268 8.21887 19.2488 8.34973Z" fill="#826C43"/>
<path fill-rule="evenodd" clip-rule="evenodd" d="M17.3289 17.175C17.951 17.3059 18.3473 17.9078 18.2143 18.5195L17.8528 20.1807C17.7198 20.7924 17.1076 21.1821 16.4856 21.0513C15.8636 20.9204 15.4672 20.3185 15.6003 19.7069L15.9617 18.0456C16.0948 17.434 16.7069 17.0442 17.3289 17.175Z" fill="#C9A86A"/>
<path fill-rule="evenodd" clip-rule="evenodd" d="M16.7471 10.8629C17.3613 10.644 18.0741 10.6723 18.7142 10.8069C19.3466 10.94 19.8359 11.124 20.2376 11.3892C20.6424 11.6565 20.9317 11.9886 21.1877 12.3774C21.3174 12.5743 21.2602 12.8373 21.0599 12.9648C20.8597 13.0923 20.5923 13.036 20.4626 12.8391C20.2483 12.5137 20.0352 12.2787 19.7561 12.0944C19.4739 11.9081 19.0977 11.7562 18.5335 11.6376C17.9769 11.5205 17.4449 11.5177 17.0416 11.6615C16.6674 11.7949 16.3804 12.0594 16.2688 12.5727C16.1571 13.0859 16.3089 13.4428 16.5948 13.715C16.903 14.0085 17.3896 14.22 17.9461 14.3371C18.5862 14.4717 19.2484 14.7326 19.7177 15.1796C20.2093 15.6477 20.4638 16.2992 20.2875 17.1098C20.1111 17.9204 19.6077 18.4125 18.9644 18.6418C18.3502 18.8608 17.6375 18.8325 16.9974 18.6978C15.6945 18.4238 14.8813 17.7488 14.5107 17.106C14.393 16.902 14.4658 16.6428 14.6733 16.5271C14.8808 16.4114 15.1444 16.483 15.2621 16.687C15.4972 17.0946 16.0876 17.6378 17.1781 17.8672C17.7347 17.9843 18.2666 17.9871 18.6699 17.8433C19.0441 17.7099 19.3311 17.4453 19.4428 16.9321C19.5544 16.4188 19.4026 16.062 19.1167 15.7897C18.8085 15.4963 18.322 15.2848 17.7654 15.1677C17.1253 15.033 16.4632 14.7721 15.9939 14.3252C15.5023 13.8571 15.2477 13.2055 15.4241 12.395C15.6004 11.5844 16.1038 11.0923 16.7471 10.8629Z" fill="url(#paint54_linear_804_1017)"/>
<path fill-rule="evenodd" clip-rule="evenodd" d="M19.0981 9.04185C19.3314 9.09092 19.48 9.31664 19.4301 9.54601L19.0687 11.2073C19.0188 11.4366 18.7893 11.5828 18.556 11.5337C18.3227 11.4846 18.1741 11.2589 18.224 11.0296L18.5854 9.36831C18.6353 9.13894 18.8649 8.99278 19.0981 9.04185Z" fill="url(#paint55_linear_804_1017)"/>
<path fill-rule="evenodd" clip-rule="evenodd" d="M17.1782 17.8672C17.4115 17.9162 17.5601 18.142 17.5102 18.3713L17.1488 20.0326C17.0989 20.2619 16.8693 20.4081 16.6361 20.359C16.4028 20.31 16.2542 20.0842 16.3041 19.8549L16.6655 18.1936C16.7154 17.9643 16.945 17.8181 17.1782 17.8672Z" fill="url(#paint56_linear_804_1017)"/>
<path fill-rule="evenodd" clip-rule="evenodd" d="M9.80468 12.0092C9.65571 11.9545 9.58007 11.7914 9.63574 11.6449C10.6296 9.02951 12.8554 7.00543 15.6198 6.25521C15.773 6.21361 15.9316 6.30208 15.9739 6.45281C16.0162 6.60355 15.9263 6.75947 15.773 6.80108C13.188 7.50263 11.105 9.39651 10.1752 11.8431C10.1195 11.9896 9.95364 12.064 9.80468 12.0092Z" fill="url(#paint57_linear_804_1017)"/>
<path fill-rule="evenodd" clip-rule="evenodd" d="M24.8862 19.0077C25.0206 19.0912 25.0608 19.2661 24.9758 19.3983C24.3023 20.4467 23.4092 21.3451 22.36 22.0311C22.2276 22.1177 22.0488 22.0823 21.9608 21.9521C21.8727 21.8218 21.9087 21.6461 22.0411 21.5595C23.0229 20.9176 23.8587 20.0769 24.489 19.0958C24.5739 18.9636 24.7517 18.9242 24.8862 19.0077Z" fill="url(#paint58_linear_804_1017)"/>
<path fill-rule="evenodd" clip-rule="evenodd" d="M12.9763 8.15721C12.9762 8.15724 12.9763 8.15717 12.9763 8.15721L12.8166 7.92162C12.9763 8.15721 12.9762 8.15723 12.9763 8.15721L12.9752 8.15789L12.9694 8.1618C12.964 8.16547 12.9555 8.17125 12.9442 8.17907C12.9216 8.19472 12.8879 8.21851 12.8454 8.24988C12.7602 8.3127 12.64 8.40556 12.5023 8.52402C12.2253 8.76233 11.8854 9.09771 11.6164 9.49437C11.5282 9.62448 11.3494 9.65964 11.2171 9.5729C11.0848 9.48616 11.049 9.31037 11.1373 9.18026C11.4442 8.7275 11.8241 8.35504 12.123 8.09785C12.2733 7.96857 12.405 7.86677 12.4998 7.79686C12.5473 7.76188 12.5856 7.73479 12.6125 7.71615C12.6259 7.70683 12.6365 7.69961 12.644 7.69457L12.6529 7.68865L12.6555 7.68692L12.6563 7.68637L12.6566 7.68618C12.6567 7.68614 12.6568 7.68603 12.8166 7.92162L12.6566 7.68618C12.7889 7.59944 12.9679 7.63445 13.0561 7.76456C13.1443 7.89462 13.1085 8.07043 12.9763 8.15721Z" fill="url(#paint59_linear_804_1017)"/>
<path fill-rule="evenodd" clip-rule="evenodd" d="M14.1286 9.57298C14.1286 9.57302 14.1287 9.57294 14.1286 9.57298L13.9689 9.33739C14.1286 9.57298 14.1286 9.573 14.1286 9.57298L14.1276 9.57366L14.1218 9.57757C14.1163 9.58124 14.1078 9.58702 14.0965 9.59484C14.0739 9.61049 14.0402 9.63428 13.9977 9.66566C13.9125 9.72847 13.7923 9.82133 13.6546 9.93979C13.3776 10.1781 13.0377 10.5135 12.7688 10.9101C12.6806 11.0403 12.5018 11.0754 12.3695 10.9887C12.2371 10.9019 12.2014 10.7261 12.2896 10.596C12.5966 10.1433 12.9765 9.77081 13.2754 9.51362C13.4256 9.38434 13.5574 9.28254 13.6522 9.21263C13.6996 9.17765 13.7379 9.15056 13.7648 9.13192C13.7783 9.1226 13.7889 9.11538 13.7964 9.11034L13.8052 9.10442L13.8078 9.1027L13.8087 9.10215L13.809 9.10195C13.809 9.10192 13.8092 9.10181 13.9689 9.33739L13.809 9.10195C13.9413 9.01521 14.1203 9.05022 14.2085 9.18033C14.2967 9.31039 14.2608 9.4862 14.1286 9.57298Z" fill="url(#paint60_linear_804_1017)"/>
</g>
<rect x="0.5" y="0.5" width="31" height="31" rx="15.5" stroke="url(#paint61_linear_804_1017)"/>
<defs>
<filter id="filter0_d_804_1017" x="6.18848" y="5.1062" width="23.6235" height="25.7878" filterUnits="userSpaceOnUse" color-interpolation-filters="sRGB">
<feFlood flood-opacity="0" result="BackgroundImageFix"/>
<feColorMatrix in="SourceAlpha" type="matrix" values="0 0 0 0 0 0 0 0 0 0 0 0 0 0 0 0 0 0 127 0" result="hardAlpha"/>
<feOffset dy="4"/>
<feGaussianBlur stdDeviation="1"/>
<feComposite in2="hardAlpha" operator="out"/>
<feColorMatrix type="matrix" values="0 0 0 0 0 0 0 0 0 0 0 0 0 0 0 0 0 0 0.47 0"/>
<feBlend mode="normal" in2="BackgroundImageFix" result="effect1_dropShadow_804_1017"/>
<feBlend mode="normal" in="SourceGraphic" in2="effect1_dropShadow_804_1017" result="shape"/>
</filter>
<linearGradient id="paint0_linear_804_1017" x1="8.24095" y1="4.5601" x2="21.8408" y2="20.5793" gradientUnits="userSpaceOnUse">
<stop stop-color="#B48A3D"/>
<stop offset="0.447917" stop-color="#FCECCD"/>
<stop offset="1" stop-color="#CCAB6C"/>
</linearGradient>
<linearGradient id="paint1_linear_804_1017" x1="7.84613" y1="3.82289" x2="22.2995" y2="20.8778" gradientUnits="userSpaceOnUse">
<stop stop-color="#B48A3D"/>
<stop offset="0.447917" stop-color="#FCECCD"/>
<stop offset="1" stop-color="#CCAB6C"/>
</linearGradient>
<linearGradient id="paint2_linear_804_1017" x1="7.66526" y1="3.99394" x2="21.2651" y2="20.0131" gradientUnits="userSpaceOnUse">
<stop stop-color="#B48A3D"/>
<stop offset="0.447917" stop-color="#FCECCD"/>
<stop offset="1" stop-color="#CCAB6C"/>
</linearGradient>
<linearGradient id="paint3_linear_804_1017" x1="7.27044" y1="3.25661" x2="21.7239" y2="20.3115" gradientUnits="userSpaceOnUse">
<stop stop-color="#B48A3D"/>
<stop offset="0.447917" stop-color="#FCECCD"/>
<stop offset="1" stop-color="#CCAB6C"/>
</linearGradient>
<linearGradient id="paint4_linear_804_1017" x1="8.8512" y1="6.20557" x2="19.89" y2="19.1173" gradientUnits="userSpaceOnUse">
<stop stop-color="#B48A3D"/>
<stop offset="0.447917" stop-color="#FCECCD"/>
<stop offset="1" stop-color="#CCAB6C"/>
</linearGradient>
<linearGradient id="paint5_linear_804_1017" x1="8.45589" y1="5.46848" x2="20.3485" y2="19.4161" gradientUnits="userSpaceOnUse">
<stop stop-color="#B48A3D"/>
<stop offset="0.447917" stop-color="#FCECCD"/>
<stop offset="1" stop-color="#CCAB6C"/>
</linearGradient>
<linearGradient id="paint6_linear_804_1017" x1="6.49121" y1="7.85443" x2="18.8335" y2="16.2518" gradientUnits="userSpaceOnUse">
<stop stop-color="#B48A3D"/>
<stop offset="0.447917" stop-color="#FCECCD"/>
<stop offset="1" stop-color="#CCAB6C"/>
</linearGradient>
<linearGradient id="paint7_linear_804_1017" x1="17.8483" y1="18.8075" x2="18.7931" y2="18.9861" gradientUnits="userSpaceOnUse">
<stop stop-color="#B48A3D"/>
<stop offset="0.447917" stop-color="#FCECCD"/>
<stop offset="1" stop-color="#CCAB6C"/>
</linearGradient>
<linearGradient id="paint8_linear_804_1017" x1="19.4947" y1="17.185" x2="20.4396" y2="17.3635" gradientUnits="userSpaceOnUse">
<stop stop-color="#B48A3D"/>
<stop offset="0.447917" stop-color="#FCECCD"/>
<stop offset="1" stop-color="#CCAB6C"/>
</linearGradient>
<linearGradient id="paint9_linear_804_1017" x1="17.5006" y1="17.0217" x2="18.4454" y2="17.2002" gradientUnits="userSpaceOnUse">
<stop stop-color="#B48A3D"/>
<stop offset="0.447917" stop-color="#FCECCD"/>
<stop offset="1" stop-color="#CCAB6C"/>
</linearGradient>
<linearGradient id="paint10_linear_804_1017" x1="18.6185" y1="17.6356" x2="19.2765" y2="17.76" gradientUnits="userSpaceOnUse">
<stop stop-color="#B48A3D"/>
<stop offset="0.447917" stop-color="#FCECCD"/>
<stop offset="1" stop-color="#CCAB6C"/>
</linearGradient>
<linearGradient id="paint11_linear_804_1017" x1="18.5081" y1="16.407" x2="19.1661" y2="16.5313" gradientUnits="userSpaceOnUse">
<stop stop-color="#B48A3D"/>
<stop offset="0.447917" stop-color="#FCECCD"/>
<stop offset="1" stop-color="#CCAB6C"/>
</linearGradient>
<linearGradient id="paint12_linear_804_1017" x1="19.8089" y1="16.1315" x2="20.4669" y2="16.2558" gradientUnits="userSpaceOnUse">
<stop stop-color="#B48A3D"/>
<stop offset="0.447917" stop-color="#FCECCD"/>
<stop offset="1" stop-color="#CCAB6C"/>
</linearGradient>
<linearGradient id="paint13_linear_804_1017" x1="19.9764" y1="14.3831" x2="20.6344" y2="14.5074" gradientUnits="userSpaceOnUse">
<stop stop-color="#B48A3D"/>
<stop offset="0.447917" stop-color="#FCECCD"/>
<stop offset="1" stop-color="#CCAB6C"/>
</linearGradient>
<linearGradient id="paint14_linear_804_1017" x1="19.0955" y1="15.5281" x2="19.7535" y2="15.6524" gradientUnits="userSpaceOnUse">
<stop stop-color="#B48A3D"/>
<stop offset="0.447917" stop-color="#FCECCD"/>
<stop offset="1" stop-color="#CCAB6C"/>
</linearGradient>
<linearGradient id="paint15_linear_804_1017" x1="19.3284" y1="18.3831" x2="19.9864" y2="18.5074" gradientUnits="userSpaceOnUse">
<stop stop-color="#B48A3D"/>
<stop offset="0.447917" stop-color="#FCECCD"/>
<stop offset="1" stop-color="#CCAB6C"/>
</linearGradient>
<linearGradient id="paint16_linear_804_1017" x1="18.0821" y1="20.0387" x2="18.6902" y2="20.1536" gradientUnits="userSpaceOnUse">
<stop stop-color="#B48A3D"/>
<stop offset="0.447917" stop-color="#FCECCD"/>
<stop offset="1" stop-color="#CCAB6C"/>
</linearGradient>
<linearGradient id="paint17_linear_804_1017" x1="18.9326" y1="19.3514" x2="19.3047" y2="19.4217" gradientUnits="userSpaceOnUse">
<stop stop-color="#B48A3D"/>
<stop offset="0.447917" stop-color="#FCECCD"/>
<stop offset="1" stop-color="#CCAB6C"/>
</linearGradient>
<linearGradient id="paint18_linear_804_1017" x1="17.6631" y1="18.0463" x2="18.1693" y2="18.142" gradientUnits="userSpaceOnUse">
<stop stop-color="#B48A3D"/>
<stop offset="0.447917" stop-color="#FCECCD"/>
<stop offset="1" stop-color="#CCAB6C"/>
</linearGradient>
<linearGradient id="paint19_linear_804_1017" x1="19.3287" y1="14.6477" x2="19.8348" y2="14.7433" gradientUnits="userSpaceOnUse">
<stop stop-color="#B48A3D"/>
<stop offset="0.447917" stop-color="#FCECCD"/>
<stop offset="1" stop-color="#CCAB6C"/>
</linearGradient>
<linearGradient id="paint20_linear_804_1017" x1="19.9864" y1="15.442" x2="20.4925" y2="15.5376" gradientUnits="userSpaceOnUse">
<stop stop-color="#B48A3D"/>
<stop offset="0.447917" stop-color="#FCECCD"/>
<stop offset="1" stop-color="#CCAB6C"/>
</linearGradient>
<linearGradient id="paint21_linear_804_1017" x1="17.3824" y1="19.569" x2="17.8885" y2="19.6647" gradientUnits="userSpaceOnUse">
<stop stop-color="#B48A3D"/>
<stop offset="0.447917" stop-color="#FCECCD"/>
<stop offset="1" stop-color="#CCAB6C"/>
</linearGradient>
<linearGradient id="paint22_linear_804_1017" x1="17.2584" y1="20.8244" x2="17.7645" y2="20.9201" gradientUnits="userSpaceOnUse">
<stop stop-color="#B48A3D"/>
<stop offset="0.447917" stop-color="#FCECCD"/>
<stop offset="1" stop-color="#CCAB6C"/>
</linearGradient>
<linearGradient id="paint23_linear_804_1017" x1="11.9671" y1="10.8992" x2="17.7197" y2="15.5162" gradientUnits="userSpaceOnUse">
<stop stop-color="#B48A3D"/>
<stop offset="0.447917" stop-color="#FCECCD"/>
<stop offset="1" stop-color="#CCAB6C"/>
</linearGradient>
<linearGradient id="paint24_linear_804_1017" x1="14.6975" y1="9.8534" x2="15.784" y2="10.3742" gradientUnits="userSpaceOnUse">
<stop stop-color="#B48A3D"/>
<stop offset="0.447917" stop-color="#FCECCD"/>
<stop offset="1" stop-color="#CCAB6C"/>
</linearGradient>
<linearGradient id="paint25_linear_804_1017" x1="12.7775" y1="18.6787" x2="13.8641" y2="19.1995" gradientUnits="userSpaceOnUse">
<stop stop-color="#B48A3D"/>
<stop offset="0.447917" stop-color="#FCECCD"/>
<stop offset="1" stop-color="#CCAB6C"/>
</linearGradient>
<linearGradient id="paint26_linear_804_1017" x1="11.9844" y1="13.2584" x2="6.2534" y2="8.83257" gradientUnits="userSpaceOnUse">
<stop stop-color="#B48A3D"/>
<stop offset="0.447917" stop-color="#FCECCD"/>
<stop offset="1" stop-color="#CCAB6C"/>
</linearGradient>
<linearGradient id="paint27_linear_804_1017" x1="17.9126" y1="19.8394" x2="20.9102" y2="21.9371" gradientUnits="userSpaceOnUse">
<stop stop-color="#B48A3D"/>
<stop offset="0.447917" stop-color="#FCECCD"/>
<stop offset="1" stop-color="#CCAB6C"/>
</linearGradient>
<linearGradient id="paint28_linear_804_1017" x1="7.08887" y1="8.55933" x2="9.00854" y2="9.92856" gradientUnits="userSpaceOnUse">
<stop stop-color="#B48A3D"/>
<stop offset="0.447917" stop-color="#FCECCD"/>
<stop offset="1" stop-color="#CCAB6C"/>
</linearGradient>
<linearGradient id="paint29_linear_804_1017" x1="8.24121" y1="9.9751" x2="10.1609" y2="11.3443" gradientUnits="userSpaceOnUse">
<stop stop-color="#B48A3D"/>
<stop offset="0.447917" stop-color="#FCECCD"/>
<stop offset="1" stop-color="#CCAB6C"/>
</linearGradient>
<linearGradient id="paint30_linear_804_1017" x1="12.2409" y1="3.5601" x2="25.8408" y2="19.5793" gradientUnits="userSpaceOnUse">
<stop stop-color="#B48A3D"/>
<stop offset="0.447917" stop-color="#FCECCD"/>
<stop offset="1" stop-color="#CCAB6C"/>
</linearGradient>
<linearGradient id="paint31_linear_804_1017" x1="11.8461" y1="2.82289" x2="26.2995" y2="19.8778" gradientUnits="userSpaceOnUse">
<stop stop-color="#B48A3D"/>
<stop offset="0.447917" stop-color="#FCECCD"/>
<stop offset="1" stop-color="#CCAB6C"/>
</linearGradient>
<linearGradient id="paint32_linear_804_1017" x1="11.6653" y1="2.99394" x2="25.2651" y2="19.0131" gradientUnits="userSpaceOnUse">
<stop stop-color="#B48A3D"/>
<stop offset="0.447917" stop-color="#FCECCD"/>
<stop offset="1" stop-color="#CCAB6C"/>
</linearGradient>
<linearGradient id="paint33_linear_804_1017" x1="11.2704" y1="2.25661" x2="25.7239" y2="19.3115" gradientUnits="userSpaceOnUse">
<stop stop-color="#B48A3D"/>
<stop offset="0.447917" stop-color="#FCECCD"/>
<stop offset="1" stop-color="#CCAB6C"/>
</linearGradient>
<linearGradient id="paint34_linear_804_1017" x1="12.8512" y1="5.20557" x2="23.89" y2="18.1173" gradientUnits="userSpaceOnUse">
<stop stop-color="#B48A3D"/>
<stop offset="0.447917" stop-color="#FCECCD"/>
<stop offset="1" stop-color="#CCAB6C"/>
</linearGradient>
<linearGradient id="paint35_linear_804_1017" x1="12.4559" y1="4.46848" x2="24.3485" y2="18.4161" gradientUnits="userSpaceOnUse">
<stop stop-color="#B48A3D"/>
<stop offset="0.447917" stop-color="#FCECCD"/>
<stop offset="1" stop-color="#CCAB6C"/>
</linearGradient>
<linearGradient id="paint36_linear_804_1017" x1="10.4912" y1="6.85443" x2="22.8335" y2="15.2518" gradientUnits="userSpaceOnUse">
<stop stop-color="#B48A3D"/>
<stop offset="0.447917" stop-color="#FCECCD"/>
<stop offset="1" stop-color="#CCAB6C"/>
</linearGradient>
<linearGradient id="paint37_linear_804_1017" x1="21.8483" y1="17.8075" x2="22.7931" y2="17.9861" gradientUnits="userSpaceOnUse">
<stop stop-color="#B48A3D"/>
<stop offset="0.447917" stop-color="#FCECCD"/>
<stop offset="1" stop-color="#CCAB6C"/>
</linearGradient>
<linearGradient id="paint38_linear_804_1017" x1="23.4947" y1="16.185" x2="24.4396" y2="16.3635" gradientUnits="userSpaceOnUse">
<stop stop-color="#B48A3D"/>
<stop offset="0.447917" stop-color="#FCECCD"/>
<stop offset="1" stop-color="#CCAB6C"/>
</linearGradient>
<linearGradient id="paint39_linear_804_1017" x1="21.5006" y1="16.0217" x2="22.4454" y2="16.2002" gradientUnits="userSpaceOnUse">
<stop stop-color="#B48A3D"/>
<stop offset="0.447917" stop-color="#FCECCD"/>
<stop offset="1" stop-color="#CCAB6C"/>
</linearGradient>
<linearGradient id="paint40_linear_804_1017" x1="22.6185" y1="16.6356" x2="23.2765" y2="16.76" gradientUnits="userSpaceOnUse">
<stop stop-color="#B48A3D"/>
<stop offset="0.447917" stop-color="#FCECCD"/>
<stop offset="1" stop-color="#CCAB6C"/>
</linearGradient>
<linearGradient id="paint41_linear_804_1017" x1="22.5081" y1="15.407" x2="23.1661" y2="15.5313" gradientUnits="userSpaceOnUse">
<stop stop-color="#B48A3D"/>
<stop offset="0.447917" stop-color="#FCECCD"/>
<stop offset="1" stop-color="#CCAB6C"/>
</linearGradient>
<linearGradient id="paint42_linear_804_1017" x1="23.8089" y1="15.1315" x2="24.4669" y2="15.2558" gradientUnits="userSpaceOnUse">
<stop stop-color="#B48A3D"/>
<stop offset="0.447917" stop-color="#FCECCD"/>
<stop offset="1" stop-color="#CCAB6C"/>
</linearGradient>
<linearGradient id="paint43_linear_804_1017" x1="23.9764" y1="13.3831" x2="24.6344" y2="13.5074" gradientUnits="userSpaceOnUse">
<stop stop-color="#B48A3D"/>
<stop offset="0.447917" stop-color="#FCECCD"/>
<stop offset="1" stop-color="#CCAB6C"/>
</linearGradient>
<linearGradient id="paint44_linear_804_1017" x1="23.0955" y1="14.5281" x2="23.7535" y2="14.6524" gradientUnits="userSpaceOnUse">
<stop stop-color="#B48A3D"/>
<stop offset="0.447917" stop-color="#FCECCD"/>
<stop offset="1" stop-color="#CCAB6C"/>
</linearGradient>
<linearGradient id="paint45_linear_804_1017" x1="23.3284" y1="17.3831" x2="23.9864" y2="17.5074" gradientUnits="userSpaceOnUse">
<stop stop-color="#B48A3D"/>
<stop offset="0.447917" stop-color="#FCECCD"/>
<stop offset="1" stop-color="#CCAB6C"/>
</linearGradient>
<linearGradient id="paint46_linear_804_1017" x1="22.0821" y1="19.0387" x2="22.6902" y2="19.1536" gradientUnits="userSpaceOnUse">
<stop stop-color="#B48A3D"/>
<stop offset="0.447917" stop-color="#FCECCD"/>
<stop offset="1" stop-color="#CCAB6C"/>
</linearGradient>
<linearGradient id="paint47_linear_804_1017" x1="22.9326" y1="18.3514" x2="23.3047" y2="18.4217" gradientUnits="userSpaceOnUse">
<stop stop-color="#B48A3D"/>
<stop offset="0.447917" stop-color="#FCECCD"/>
<stop offset="1" stop-color="#CCAB6C"/>
</linearGradient>
<linearGradient id="paint48_linear_804_1017" x1="21.6631" y1="17.0463" x2="22.1693" y2="17.142" gradientUnits="userSpaceOnUse">
<stop stop-color="#B48A3D"/>
<stop offset="0.447917" stop-color="#FCECCD"/>
<stop offset="1" stop-color="#CCAB6C"/>
</linearGradient>
<linearGradient id="paint49_linear_804_1017" x1="23.3287" y1="13.6477" x2="23.8348" y2="13.7433" gradientUnits="userSpaceOnUse">
<stop stop-color="#B48A3D"/>
<stop offset="0.447917" stop-color="#FCECCD"/>
<stop offset="1" stop-color="#CCAB6C"/>
</linearGradient>
<linearGradient id="paint50_linear_804_1017" x1="23.9864" y1="14.442" x2="24.4925" y2="14.5376" gradientUnits="userSpaceOnUse">
<stop stop-color="#B48A3D"/>
<stop offset="0.447917" stop-color="#FCECCD"/>
<stop offset="1" stop-color="#CCAB6C"/>
</linearGradient>
<linearGradient id="paint51_linear_804_1017" x1="21.3824" y1="18.569" x2="21.8885" y2="18.6647" gradientUnits="userSpaceOnUse">
<stop stop-color="#B48A3D"/>
<stop offset="0.447917" stop-color="#FCECCD"/>
<stop offset="1" stop-color="#CCAB6C"/>
</linearGradient>
<linearGradient id="paint52_linear_804_1017" x1="21.2584" y1="19.8244" x2="21.7645" y2="19.9201" gradientUnits="userSpaceOnUse">
<stop stop-color="#B48A3D"/>
<stop offset="0.447917" stop-color="#FCECCD"/>
<stop offset="1" stop-color="#CCAB6C"/>
</linearGradient>
<linearGradient id="paint53_linear_804_1017" x1="18.8649" y1="10.1147" x2="16.9108" y2="19.4034" gradientUnits="userSpaceOnUse">
<stop stop-color="#826C43"/>
<stop offset="1" stop-color="#CCAB6C"/>
</linearGradient>
<linearGradient id="paint54_linear_804_1017" x1="15.9671" y1="9.89918" x2="21.7197" y2="14.5162" gradientUnits="userSpaceOnUse">
<stop stop-color="#B48A3D"/>
<stop offset="0.447917" stop-color="#FCECCD"/>
<stop offset="1" stop-color="#CCAB6C"/>
</linearGradient>
<linearGradient id="paint55_linear_804_1017" x1="18.6975" y1="8.8534" x2="19.784" y2="9.37418" gradientUnits="userSpaceOnUse">
<stop stop-color="#B48A3D"/>
<stop offset="0.447917" stop-color="#FCECCD"/>
<stop offset="1" stop-color="#CCAB6C"/>
</linearGradient>
<linearGradient id="paint56_linear_804_1017" x1="16.7775" y1="17.6787" x2="17.8641" y2="18.1995" gradientUnits="userSpaceOnUse">
<stop stop-color="#B48A3D"/>
<stop offset="0.447917" stop-color="#FCECCD"/>
<stop offset="1" stop-color="#CCAB6C"/>
</linearGradient>
<linearGradient id="paint57_linear_804_1017" x1="15.9844" y1="12.2584" x2="10.2534" y2="7.83257" gradientUnits="userSpaceOnUse">
<stop stop-color="#B48A3D"/>
<stop offset="0.447917" stop-color="#FCECCD"/>
<stop offset="1" stop-color="#CCAB6C"/>
</linearGradient>
<linearGradient id="paint58_linear_804_1017" x1="21.9126" y1="18.8394" x2="24.9102" y2="20.9371" gradientUnits="userSpaceOnUse">
<stop stop-color="#B48A3D"/>
<stop offset="0.447917" stop-color="#FCECCD"/>
<stop offset="1" stop-color="#CCAB6C"/>
</linearGradient>
<linearGradient id="paint59_linear_804_1017" x1="11.0889" y1="7.55933" x2="13.0085" y2="8.92856" gradientUnits="userSpaceOnUse">
<stop stop-color="#B48A3D"/>
<stop offset="0.447917" stop-color="#FCECCD"/>
<stop offset="1" stop-color="#CCAB6C"/>
</linearGradient>
<linearGradient id="paint60_linear_804_1017" x1="12.2412" y1="8.9751" x2="14.1609" y2="10.3443" gradientUnits="userSpaceOnUse">
<stop stop-color="#B48A3D"/>
<stop offset="0.447917" stop-color="#FCECCD"/>
<stop offset="1" stop-color="#CCAB6C"/>
</linearGradient>
<linearGradient id="paint61_linear_804_1017" x1="-2.22411e-07" y1="-1.27913" x2="30.8212" y2="20.3372" gradientUnits="userSpaceOnUse">
<stop stop-color="#B48A3D"/>
<stop offset="0.447917" stop-color="#FCECCD"/>
<stop offset="1" stop-color="#CCAB6C"/>
</linearGradient>
</defs>
</svg>
