<svg width="32" height="32" viewBox="0 0 32 32" fill="none" xmlns="http://www.w3.org/2000/svg">
<g clip-path="url(#clip0_804_1263)">
<path d="M16.0394 24.0237C15.7079 24.0237 15.4391 23.7549 15.4391 23.4234C15.4391 23.092 15.7079 22.8231 16.0394 22.8231C19.8016 22.8231 22.8625 19.7623 22.8625 16C22.8625 14.15 22.1343 12.4183 20.812 11.1239C20.3748 10.6958 19.8827 10.3285 19.3494 10.0321C19.0597 9.87094 18.9554 9.50553 19.1165 9.21571C19.2776 8.92597 19.6431 8.82173 19.9328 8.98273C20.5596 9.33125 21.138 9.76296 21.6518 10.266C23.2067 11.788 24.0631 13.8245 24.0631 16C24.063 20.4242 20.4636 24.0237 16.0394 24.0237ZM12.4371 23.093C12.3384 23.093 12.2383 23.0687 12.146 23.0173C9.59829 21.601 8.01562 18.9121 8.01562 16C8.01562 11.5758 11.615 7.97632 16.0393 7.97632C16.3708 7.97632 16.6396 8.24513 16.6396 8.57659C16.6396 8.90805 16.3708 9.17687 16.0393 9.17687C12.2771 9.17687 9.21617 12.2377 9.21617 16C9.21617 18.4765 10.5623 20.7633 12.7292 21.968C13.0189 22.1291 13.1233 22.4945 12.9622 22.7843C12.8525 22.9817 12.648 23.093 12.4371 23.093Z" fill="url(#paint0_linear_804_1263)"/>
<path d="M18.5234 27.0001H13.5562C12.6087 27.0001 11.8379 26.2292 11.8379 25.2818V22.4921C11.8379 22.1607 12.1067 21.8918 12.4382 21.8918C12.7696 21.8918 13.0384 22.1607 13.0384 22.4921V25.2818C13.0384 25.5673 13.2707 25.7995 13.5562 25.7995H18.5234C18.8089 25.7995 19.0412 25.5673 19.0412 25.2818V22.4921C19.0412 22.1607 19.31 21.8918 19.6414 21.8918C19.9729 21.8918 20.2417 22.1607 20.2417 22.4921V25.2818C20.2417 26.2292 19.4709 27.0001 18.5234 27.0001Z" fill="url(#paint1_linear_804_1263)"/>
<path d="M19.6414 10.1082C19.31 10.1082 19.0412 9.8394 19.0412 9.50794V6.71828C19.0412 6.43279 18.8089 6.20055 18.5234 6.20055H13.5562C13.2707 6.20055 13.0384 6.43279 13.0384 6.71828V9.50794C13.0384 9.8394 12.7696 10.1082 12.4382 10.1082C12.1067 10.1082 11.8379 9.8394 11.8379 9.50794V6.71828C11.8379 5.77082 12.6087 5 13.5562 5H18.5234C19.4709 5 20.2417 5.77082 20.2417 6.71828V9.50794C20.2417 9.8394 19.9729 10.1082 19.6414 10.1082Z" fill="url(#paint2_linear_804_1263)"/>
<path d="M16.0391 21.3047C13.1141 21.3047 10.7344 18.925 10.7344 15.9999C10.7344 13.0748 13.114 10.6952 16.0391 10.6952C18.9642 10.6952 21.3438 13.0749 21.3438 15.9999C21.3438 18.925 18.9641 21.3047 16.0391 21.3047Z" fill="url(#paint3_linear_804_1263)"/>
<path d="M16.0397 21.905C12.7837 21.905 10.1348 19.256 10.1348 16C10.1348 12.744 12.7837 10.0951 16.0397 10.0951C19.2957 10.0951 21.9446 12.744 21.9446 16C21.9446 19.256 19.2957 21.905 16.0397 21.905ZM16.0397 11.2956C13.4457 11.2956 11.3353 13.406 11.3353 16C11.3353 18.5941 13.4457 20.7044 16.0397 20.7044C18.6337 20.7044 20.7441 18.5941 20.7441 16C20.7441 13.406 18.6337 11.2956 16.0397 11.2956Z" fill="url(#paint4_linear_804_1263)"/>
<path d="M16.0289 17.7787C15.8753 17.7787 15.7217 17.7201 15.6045 17.6029L13.9131 15.9115C13.6787 15.6771 13.6787 15.297 13.9131 15.0626C14.1476 14.8282 14.5276 14.8282 14.7621 15.0626L16.029 16.3294L17.8965 14.4619C18.131 14.2275 18.511 14.2275 18.7455 14.4619C18.9799 14.6963 18.9799 15.0764 18.7455 15.3109L16.4534 17.603C16.3362 17.7201 16.1826 17.7787 16.0289 17.7787Z" fill="url(#paint5_linear_804_1263)"/>
<path d="M25.3835 17.1305C25.052 17.1305 24.7832 16.8617 24.7832 16.5302V15.4698C24.7832 15.1383 25.052 14.8695 25.3835 14.8695C25.7149 14.8695 25.9838 15.1383 25.9838 15.4698V16.5302C25.9838 16.8617 25.715 17.1305 25.3835 17.1305Z" fill="url(#paint6_linear_804_1263)"/>
</g>
<rect x="0.5" y="0.5" width="31" height="31" rx="15.5" stroke="url(#paint7_linear_804_1263)"/>
<defs>
<linearGradient id="paint0_linear_804_1263" x1="8.01562" y1="7.33486" x2="23.4719" y2="18.1751" gradientUnits="userSpaceOnUse">
<stop stop-color="#B48A3D"/>
<stop offset="0.447917" stop-color="#FCECCD"/>
<stop offset="1" stop-color="#CCAB6C"/>
</linearGradient>
<linearGradient id="paint1_linear_804_1263" x1="11.8379" y1="21.6877" x2="17.0177" y2="27.6642" gradientUnits="userSpaceOnUse">
<stop stop-color="#B48A3D"/>
<stop offset="0.447917" stop-color="#FCECCD"/>
<stop offset="1" stop-color="#CCAB6C"/>
</linearGradient>
<linearGradient id="paint2_linear_804_1263" x1="11.8379" y1="4.79581" x2="17.0177" y2="10.7724" gradientUnits="userSpaceOnUse">
<stop stop-color="#B48A3D"/>
<stop offset="0.447917" stop-color="#FCECCD"/>
<stop offset="1" stop-color="#CCAB6C"/>
</linearGradient>
<linearGradient id="paint3_linear_804_1263" x1="10.7344" y1="10.2711" x2="20.953" y2="17.4379" gradientUnits="userSpaceOnUse">
<stop stop-color="#B48A3D"/>
<stop offset="0.447917" stop-color="#FCECCD"/>
<stop offset="1" stop-color="#CCAB6C"/>
</linearGradient>
<linearGradient id="paint4_linear_804_1263" x1="10.1348" y1="9.62302" x2="21.5096" y2="17.6007" gradientUnits="userSpaceOnUse">
<stop stop-color="#B48A3D"/>
<stop offset="0.447917" stop-color="#FCECCD"/>
<stop offset="1" stop-color="#CCAB6C"/>
</linearGradient>
<linearGradient id="paint5_linear_804_1263" x1="16.3293" y1="14.2861" x2="16.3293" y2="17.7787" gradientUnits="userSpaceOnUse">
<stop stop-color="#826C43"/>
<stop offset="1" stop-color="#CCAB6C"/>
</linearGradient>
<linearGradient id="paint6_linear_804_1263" x1="24.7832" y1="14.7791" x2="26.2982" y2="15.3433" gradientUnits="userSpaceOnUse">
<stop stop-color="#B48A3D"/>
<stop offset="0.447917" stop-color="#FCECCD"/>
<stop offset="1" stop-color="#CCAB6C"/>
</linearGradient>
<linearGradient id="paint7_linear_804_1263" x1="-2.22411e-07" y1="-1.27913" x2="30.8212" y2="20.3372" gradientUnits="userSpaceOnUse">
<stop stop-color="#B48A3D"/>
<stop offset="0.447917" stop-color="#FCECCD"/>
<stop offset="1" stop-color="#CCAB6C"/>
</linearGradient>
<clipPath id="clip0_804_1263">
<rect width="18" height="22" fill="white" transform="translate(8 5)"/>
</clipPath>
</defs>
</svg>
