<svg width="60" height="66" viewBox="0 0 60 66" fill="none" xmlns="http://www.w3.org/2000/svg">
<path d="M58.5275 34.2419L11.6894 7.44651C10.7652 6.92174 9.63612 6.92174 8.72358 7.43527C7.79939 7.9488 7.22922 8.90673 7.21797 9.94504L6.94434 63.0797C6.94434 63.0797 6.94434 63.0797 6.94434 63.0909C6.94434 64.1176 7.51451 65.0759 8.4158 65.6007C8.88352 65.8631 9.39663 66.0001 9.92141 66.0001C10.4233 66.0001 10.9368 65.8747 11.3929 65.6124L58.5046 39.2843C59.4288 38.7595 59.999 37.8128 59.999 36.7633C59.999 36.7633 59.999 36.7633 59.999 36.752C59.999 35.725 59.4401 34.7666 58.5275 34.2419Z" fill="#B48A3D" fill-opacity="0.48"/>
<path d="M16 7L25.5 12.5" stroke="white" stroke-width="2"/>
<path d="M1.5 0.5V50.5L47 26L34 18" stroke="white" stroke-width="2"/>
</svg>
