<svg width="88" height="51" viewBox="0 0 88 51" fill="none" xmlns="http://www.w3.org/2000/svg">
<g clip-path="url(#clip0_1_113863)">
<path d="M81.5 25.5C81.5 36.5134 72.3545 45.5 61 45.5C49.6455 45.5 40.5 36.5134 40.5 25.5C40.5 14.4866 49.6455 5.5 61 5.5C72.3545 5.5 81.5 14.4866 81.5 25.5Z" stroke="#3D3D3D" stroke-width="3"/>
<path fill-rule="evenodd" clip-rule="evenodd" d="M41.8104 33.5838C37.6377 42.4908 26.904 46.603 17.4033 42.5957C7.67448 38.4921 3.14097 27.5203 7.08668 18.1658C11.0324 8.81128 22.0541 4.40068 31.7829 8.50425C36.2607 10.393 39.6379 13.7367 41.5944 17.708C42.2404 16.8661 42.9845 16.1146 43.805 15.4642C41.4827 11.266 37.7561 7.76777 32.9488 5.74008C21.7537 1.01801 8.93727 6.0592 4.32251 16.9999C-0.292243 27.9406 5.04221 40.6378 16.2373 45.3598C26.8338 49.8294 38.8828 45.552 44.0545 35.804C43.2128 35.1493 42.4612 34.4022 41.8104 33.5838Z" fill="#3D3D3D"/>
<path d="M31.0925 23.8766C30.0663 24.9081 30.0663 26.5863 31.0925 27.6177C31.5896 28.1172 32.2507 28.3924 32.9537 28.3924C33.6568 28.3924 34.3177 28.1172 34.8149 27.6177C34.8205 27.6121 34.8281 27.6089 34.836 27.6089C34.8439 27.6089 34.8515 27.6121 34.8571 27.6177L35.9771 28.7433C35.9799 28.7461 35.9821 28.7494 35.9836 28.7531C35.9851 28.7567 35.9859 28.7607 35.9859 28.7646C35.9859 28.7686 35.9851 28.7725 35.9836 28.7762C35.9821 28.7798 35.9799 28.7831 35.9771 28.7859C35.1696 29.5976 34.0958 30.0446 32.9537 30.0446C31.8116 30.0446 30.7377 29.5976 29.9303 28.7859C28.263 27.1104 28.263 24.3842 29.9303 22.7086C30.7378 21.8969 31.8116 21.4499 32.9537 21.4499C34.0958 21.4499 35.1696 21.8969 35.9772 22.7086C35.9827 22.7142 35.9859 22.7218 35.9859 22.7298C35.9859 22.7377 35.9827 22.7453 35.9772 22.751L34.8571 23.8767C34.8543 23.8795 34.851 23.8818 34.8474 23.8833C34.8438 23.8848 34.8399 23.8856 34.836 23.8856C34.832 23.8856 34.8282 23.8848 34.8245 23.8833C34.8209 23.8818 34.8176 23.8795 34.8149 23.8767C34.3177 23.3772 33.6568 23.102 32.9537 23.102C32.2506 23.102 31.5896 23.377 31.0925 23.8766ZM15.7677 24.9418H17.5135C17.7308 24.9418 17.928 24.8528 18.1052 24.6748C18.3306 24.4482 18.4434 24.163 18.4434 23.8191C18.4434 23.4792 18.3306 23.196 18.1052 22.9693C17.928 22.7914 17.7308 22.7023 17.5135 22.7023H14.6385V30.1066H13V21.5026C13 21.4329 13.0276 21.366 13.0766 21.3167C13.1257 21.2674 13.1922 21.2397 13.2615 21.2397H17.5135C18.2058 21.2397 18.7896 21.4076 19.2648 21.7434C19.6874 22.051 19.9753 22.4535 20.1283 22.9511C20.2732 23.4327 20.2651 23.9121 20.1042 24.3895C19.939 24.8832 19.6371 25.2777 19.1983 25.573C19.7378 25.8118 20.1283 26.188 20.3699 26.7018C20.5993 27.1833 20.6557 27.6871 20.5389 28.2131C20.4221 28.7552 20.1464 29.1962 19.7116 29.5361C19.2285 29.9164 18.6187 30.1065 17.8819 30.1065H14.7895L15.5263 28.6439H17.8819C18.0993 28.6439 18.2964 28.5549 18.4737 28.3768C18.6991 28.1503 18.8118 27.8651 18.8118 27.5211C18.8118 27.1813 18.6991 26.8981 18.4737 26.6715C18.2964 26.4935 18.0993 26.4044 17.8819 26.4044H15.0431L15.7677 24.9418ZM40.8213 24.9434C41.2383 24.9434 41.5264 25.0825 41.6852 25.3604C41.8437 25.6385 41.914 26.0281 41.896 26.5293H39.4338C39.0166 26.5293 38.7286 26.3905 38.57 26.1123C38.4112 25.8344 38.3409 25.4448 38.3592 24.9434H40.8213ZM28.0209 21.4322V23.1128H25.2952C25.2952 23.1128 25.6785 23.3731 25.6785 23.5715V30.0883H24.0197V23.1128H21.3727V21.7339C21.3727 21.7339 21.3727 21.4322 21.6698 21.4322H28.0209ZM58.6002 24.1386C58.8692 23.8338 59.1746 23.5871 59.5163 23.3981C59.8579 23.2092 60.2594 23.1148 60.7207 23.1148C61.0795 23.1148 61.4072 23.19 61.7041 23.3401C62.0009 23.4904 62.2572 23.7083 62.4729 23.9937C62.6885 24.2792 62.8551 24.631 62.9726 25.0496C63.0901 25.4681 63.1487 25.9478 63.1487 26.4886C63.1487 26.9822 63.0825 27.4394 62.9502 27.86C62.8177 28.2807 62.6287 28.6455 62.3832 28.9545C62.1375 29.2636 61.8407 29.505 61.4927 29.6788C61.1445 29.8527 60.7548 29.9396 60.3235 29.9396C59.9562 29.9396 59.6422 29.8827 59.3818 29.769C59.122 29.6559 58.8853 29.4954 58.6835 29.2958V32H57.1011V23.2371H58.0685C58.2735 23.2371 58.408 23.3337 58.4721 23.5269L58.6002 24.1386ZM58.6835 28.1304C58.8628 28.3494 59.0582 28.5038 59.2697 28.594C59.4811 28.6841 59.7106 28.7291 59.9584 28.7291C60.1975 28.7291 60.4132 28.6841 60.6054 28.594C60.7976 28.5038 60.9609 28.3665 61.0955 28.1819C61.23 27.9974 61.3335 27.7646 61.4062 27.4833C61.4788 27.2023 61.5151 26.8706 61.5151 26.4886C61.5151 26.1022 61.4841 25.775 61.4222 25.5067C61.3602 25.2385 61.2717 25.0205 61.1564 24.8532C61.041 24.6858 60.9011 24.5634 60.7368 24.4862C60.5723 24.4089 60.3854 24.3703 60.1762 24.3703C59.8473 24.3703 59.5676 24.4401 59.3369 24.5796C59.1063 24.7191 58.8885 24.9155 58.6835 25.1687V28.1304ZM55.2499 21.0308V29.8613H53.6684V22.3175C53.6684 21.9139 53.8106 21.5965 54.0951 21.3651C54.3795 21.1338 54.7645 21.0225 55.2499 21.0308ZM77.2229 23.7556C77.7408 24.2264 78 24.9364 78 25.8861V29.7973H76.5328V28.9851C76.3421 29.2768 76.0706 29.4995 75.7184 29.6536C75.3661 29.8076 74.9413 29.8847 74.444 29.8847C73.9467 29.8847 73.5115 29.7992 73.1385 29.6286C72.7655 29.4579 72.4774 29.2205 72.2744 28.9163C72.0712 28.6123 71.9697 28.2687 71.9697 27.8854C71.9697 27.2856 72.1915 26.8046 72.6349 26.4422C73.0783 26.0798 73.7768 25.8986 74.73 25.8986H76.4458V25.7986C76.4458 25.3322 76.3069 24.9739 76.0293 24.724C75.7515 24.4741 75.3393 24.3492 74.7922 24.3492C74.4192 24.3492 74.0524 24.4075 73.6918 24.5241C73.3313 24.641 73.0266 24.8033 72.778 25.0115L72.1688 23.8743C72.5169 23.6078 72.9353 23.4038 73.4245 23.262C73.9135 23.1205 74.4316 23.0497 74.9786 23.0497C75.9566 23.0497 76.7048 23.285 77.2229 23.7556ZM75.8055 28.479C76.108 28.2999 76.3215 28.0438 76.4458 27.7105V26.9357H74.842C73.9467 26.9357 73.4991 27.2316 73.4991 27.8229C73.4991 28.1063 73.6109 28.3312 73.8348 28.4977C74.0586 28.6645 74.3694 28.7477 74.7673 28.7477C75.1568 28.7477 75.5028 28.6582 75.8055 28.479ZM47.3184 21.2951C47.3184 21.2951 47.4091 21 47.6135 21H48.9156C49.1239 21 49.2154 21.2951 49.2154 21.2951L52.1286 29.8304H50.3625C50.3625 29.8304 49.9337 28.6007 49.8975 28.466C49.8405 28.2534 50.097 27.9828 50.097 27.9828L46.7015 28.5677L46.3342 29.8303H44.5511L47.3184 21.2951ZM49.0234 26.4768C49.213 26.4107 49.1118 26.0801 49.1118 26.0801L48.3014 23.4746L47.2693 26.7774C47.2695 26.7774 48.9279 26.5101 49.0234 26.4768ZM70.1877 24.6246C70.0916 24.3178 69.9507 24.0538 69.7649 23.8327C69.5791 23.6116 69.3474 23.4399 69.0698 23.3176C68.7921 23.1953 68.4741 23.1341 68.1152 23.1341C67.701 23.1341 67.3401 23.2092 67.0326 23.3595C66.7578 23.4937 66.5048 23.666 66.271 23.8721V21.0317C65.8165 21.0343 65.4524 21.1444 65.1811 21.3651C64.8965 21.5965 64.7542 21.9139 64.7542 22.3175V29.8613H66.271V24.9869C66.4598 24.8101 66.6577 24.6655 66.866 24.557C67.1051 24.4325 67.3614 24.3703 67.6348 24.3703C68.0105 24.3703 68.2904 24.4809 68.4741 24.7019C68.6576 24.923 68.7495 25.2353 68.7495 25.6387V29.843H70.3319V25.6387C70.3319 25.2696 70.2838 24.9315 70.1877 24.6246Z" fill="#3D3D3D"/>
</g>
<defs>
<clipPath id="clip0_1_113863">
<rect width="88" height="51" fill="white"/>
</clipPath>
</defs>
</svg>
