<svg width="49" height="59" viewBox="0 0 49 59" fill="none" xmlns="http://www.w3.org/2000/svg">
<path d="M23.5091 22.2835C24.57 21.2367 25.1422 19.8269 25.1422 18.3333C25.1422 16.8398 24.556 15.444 23.5091 14.3831C21.3316 12.2056 17.7862 12.2056 15.6087 14.3831C13.4312 16.5606 13.4312 20.106 15.6087 22.2835C16.6975 23.3723 18.1212 23.9167 19.5589 23.9167C20.9966 23.9167 22.4204 23.3723 23.5091 22.2835ZM17.5908 16.3652C18.1352 15.8208 18.847 15.5556 19.5589 15.5556C20.2708 15.5556 20.9966 15.8348 21.541 16.3652C22.0714 16.8956 22.3645 17.5935 22.3645 18.3333C22.3645 19.0731 22.0714 19.785 21.541 20.3014C20.4522 21.3902 18.6795 21.3902 17.5908 20.3014C16.502 19.2127 16.502 17.454 17.5908 16.3652Z" fill="#3D3D3D"/>
<path d="M25.4905 24.2518C24.4297 25.3126 23.8574 26.7084 23.8574 28.202C23.8574 29.6955 24.4437 31.0914 25.4905 32.1522C26.5793 33.2409 28.003 33.7853 29.4408 33.7853C30.8785 33.7853 32.3022 33.2409 33.391 32.1522C35.5685 29.9747 35.5685 26.4293 33.391 24.2518C31.1995 22.0743 27.668 22.0743 25.4905 24.2518ZM31.4089 30.1841C30.3201 31.2728 28.5474 31.2728 27.4587 30.1841C26.9283 29.6536 26.6351 28.9557 26.6351 28.2159C26.6351 27.4761 26.9283 26.7643 27.4587 26.2478C28.003 25.7034 28.7149 25.4382 29.4408 25.4382C30.1526 25.4382 30.8645 25.7174 31.4089 26.2478C32.4976 27.3226 32.4976 29.0953 31.4089 30.1841Z" fill="#3D3D3D"/>
<path d="M31.4079 16.3653C30.8635 15.8209 29.9842 15.8209 29.4398 16.3653L17.6031 28.2159C17.0587 28.7603 17.0587 29.6397 17.6031 30.184C17.8823 30.4632 18.2312 30.5888 18.5942 30.5888C18.9571 30.5888 19.306 30.4492 19.5852 30.184L31.4079 18.3334C31.9523 17.7891 31.9523 16.9097 31.4079 16.3653Z" fill="#3D3D3D"/>
<path d="M46.8326 26.806H39.8534V1.58333C39.8534 0.815625 39.2253 0.1875 38.4576 0.1875H10.5409C9.77319 0.1875 9.14507 0.815625 9.14507 1.58333V26.806H2.1659C1.63548 26.806 1.14694 27.1131 0.909649 27.5877C0.672357 28.0623 0.72819 28.6346 1.04923 29.0533L23.3826 58.2681C23.6478 58.6031 24.0665 58.8125 24.4992 58.8125C24.9319 58.8125 25.3507 58.6031 25.6019 58.2681L47.9353 29.0533C48.2563 28.6346 48.3121 28.0623 48.0749 27.5877C47.8515 27.1131 47.363 26.806 46.8326 26.806ZM24.4992 55.1135L4.98548 29.5977H10.5409C11.3086 29.5977 11.9367 28.9696 11.9367 28.2019C11.9367 27.4342 11.9367 28.2019 11.9367 28.2019V2.97917H37.0617V28.2019C37.0617 28.9696 37.6899 29.5977 38.4576 29.5977H44.013L24.4992 55.1135Z" fill="#3D3D3D"/>
</svg>
