<svg width="76" height="76" viewBox="0 0 76 76" fill="none" xmlns="http://www.w3.org/2000/svg">
<path d="M38 0C17.0471 0 0 17.0471 0 38C0 58.9529 17.0471 76 38 76C58.9529 76 76 58.9529 76 38C76 17.0471 58.9529 0 38 0ZM73.2518 36.6429H63.7178C63.3989 30.5574 60.971 25.0352 57.1398 20.7806L63.8766 14.0437C69.4233 20.0301 72.9193 27.9368 73.2518 36.6429ZM20.7806 57.1384C25.0352 60.971 30.5574 63.3976 36.6429 63.7165V73.2504C27.9368 72.9193 20.0301 69.4219 14.0437 63.8753L20.7806 57.1384ZM39.3571 63.7165C45.4426 63.3976 50.9648 60.9696 55.2194 57.1384L61.9563 63.8753C55.9699 69.4233 48.0632 72.9193 39.3571 73.2518V63.7165ZM38 61.0714C25.2781 61.0714 14.9286 50.7218 14.9286 38C14.9286 25.2781 25.2781 14.9286 38 14.9286C50.7218 14.9286 61.0714 25.2781 61.0714 38C61.0714 50.7218 50.7218 61.0714 38 61.0714ZM55.2194 18.8616C50.9648 15.029 45.4426 12.6024 39.3571 12.2835V2.74821C48.0632 3.07936 55.9699 6.57671 61.9563 12.1234L55.2194 18.8616ZM36.6429 12.2835C30.5574 12.6024 25.0352 15.0304 20.7806 18.8616L14.0437 12.1247C20.0301 6.57671 27.9368 3.08071 36.6429 2.74821V12.2835ZM12.1234 14.0437L18.8602 20.7806C15.0276 25.0352 12.6011 30.5574 12.2821 36.6429H2.74821C3.08071 27.9368 6.57671 20.0301 12.1234 14.0437ZM2.74821 39.3571H12.2821C12.6011 45.4426 15.029 50.9648 18.8602 55.2194L12.1234 61.9563C6.57671 55.9699 3.08071 48.0632 2.74821 39.3571ZM63.8766 61.9563L57.1398 55.2194C60.9723 50.9648 63.3989 45.4426 63.7178 39.3571H73.2518C72.9193 48.0632 69.4233 55.9699 63.8766 61.9563Z" fill="#3D3D3D"/>
<path d="M35.1514 39.928H37.44C37.2637 41.17 36.8074 42.2235 35.9254 43.078C34.7734 44.194 33.2854 44.752 31.4614 44.752C29.5174 44.752 27.9034 44.122 26.6194 42.862C25.3474 41.59 24.7114 40.042 24.7114 38.218C24.7114 36.3819 25.3414 34.8279 26.6014 33.5559C27.8734 32.2839 29.4454 31.6479 31.3174 31.6479C32.4814 31.6479 33.5494 31.9119 34.5214 32.4399C35.4934 32.9679 36.2554 33.6819 36.8074 34.582L34.6834 35.806C34.3834 35.2899 33.9274 34.87 33.3154 34.5459C32.7034 34.2219 32.0314 34.0599 31.2994 34.0599C30.0874 34.0599 29.0974 34.456 28.3294 35.248C27.5614 36.016 27.1774 37.0059 27.1774 38.218C27.1774 39.406 27.5674 40.39 28.3474 41.17C29.1274 41.938 30.1714 42.3219 31.4794 42.3219C32.4274 42.3219 33.2194 42.112 33.8554 41.692C34.4914 41.272 34.9234 40.684 35.1514 39.928Z" fill="#3D3D3D"/>
<path d="M45.4682 37.732H51.7862V38.704C51.7862 40.504 51.2102 41.962 50.0582 43.078C48.9062 44.194 47.4182 44.752 45.5942 44.752C43.6502 44.752 42.0362 44.122 40.7522 42.862C39.4802 41.59 38.8442 40.042 38.8442 38.218C38.8442 36.3819 39.4742 34.8279 40.7342 33.5559C42.0062 32.2839 43.5782 31.6479 45.4502 31.6479C46.6142 31.6479 47.6822 31.9119 48.6542 32.4399C49.6262 32.9679 50.3882 33.6819 50.9402 34.582L48.8162 35.806C48.5162 35.2899 48.0602 34.87 47.4482 34.5459C46.8362 34.2219 46.1642 34.0599 45.4322 34.0599C44.2202 34.0599 43.2302 34.456 42.4622 35.248C41.6942 36.016 41.3102 37.0059 41.3102 38.218C41.3102 39.406 41.7002 40.39 42.4802 41.17C43.2602 41.938 44.3042 42.3219 45.6122 42.3219C46.5602 42.3219 47.3522 42.112 47.9882 41.692C48.6242 41.272 49.0562 40.684 49.2842 39.928H45.4682V37.732Z" fill="#3D3D3D"/>
</svg>
