<svg width="106" height="106" viewBox="0 0 106 106" fill="none" xmlns="http://www.w3.org/2000/svg">
<g clip-path="url(#clip0_1_135668)">
<mask id="mask0_1_135668" style="mask-type:alpha" maskUnits="userSpaceOnUse" x="0" y="0" width="106" height="107">
<path d="M36.4209 82.766C43.6827 82.766 49.5907 76.858 49.5907 69.5962C49.5907 62.3343 43.6827 56.4263 36.4209 56.4263C29.159 56.4263 23.251 62.3343 23.251 69.5962C23.251 76.858 29.159 82.766 36.4209 82.766ZM36.4209 59.5317C41.9703 59.5317 46.4853 64.0467 46.4853 69.5962C46.4853 75.1458 41.9703 79.6606 36.4209 79.6606C30.8714 79.6606 26.3564 75.1456 26.3564 69.5962C26.3564 64.0467 30.8714 59.5317 36.4209 59.5317Z" fill="black"/>
<path d="M71.1679 63.08L65.1622 61.9251C64.4893 59.3994 63.4842 56.9781 62.1644 54.7037L65.5986 49.6341C65.9698 49.0861 65.9528 48.3627 65.5559 47.8327C64.3678 46.2454 63.2896 44.9813 62.1627 43.8546C61.0362 42.7282 59.7721 41.6499 58.1844 40.4614C57.6544 40.0645 56.931 40.0475 56.383 40.4187L51.3134 43.8528C49.0392 42.5329 46.618 41.528 44.0922 40.8552L42.9374 34.8494C42.8123 34.1991 42.2887 33.6999 41.6335 33.6057C39.6706 33.3236 38.0142 33.1919 36.4211 33.1919C34.8279 33.1919 33.1717 33.3234 31.2086 33.6057C30.5534 33.6999 30.0298 34.1993 29.9047 34.8494L28.7499 40.8552C26.2241 41.528 23.8029 42.5331 21.5287 43.8528L16.4591 40.4187C15.9109 40.0475 15.1879 40.0645 14.6579 40.4612C13.0708 41.6491 11.8067 42.7273 10.6796 43.8544C9.55254 44.9815 8.47432 46.2456 7.28616 47.8327C6.88949 48.3627 6.87231 49.0859 7.24372 49.6341L10.678 54.7037C9.35813 56.9781 8.353 59.3994 7.68015 61.9251L1.67438 63.08C1.0243 63.205 0.524938 63.7286 0.430738 64.3838C0.148555 66.3463 0.0170898 68.0027 0.0170898 69.5963C0.0170898 71.1898 0.148555 72.846 0.430738 74.8087C0.525145 75.4639 1.0243 75.9875 1.67438 76.1124L7.68015 77.2674C8.353 79.7932 9.35813 82.2142 10.678 84.4886L7.24393 89.558C6.87272 90.106 6.8897 90.8294 7.28637 91.3594C8.47432 92.9465 9.55254 94.2104 10.6798 95.3377C11.8069 96.4648 13.071 97.543 14.6581 98.7309C15.1881 99.1278 15.9113 99.1448 16.4595 98.7734L21.5289 95.3394C23.8033 96.6592 26.2246 97.6643 28.7503 98.3372L29.9052 104.343C30.0302 104.993 30.5536 105.492 31.2088 105.587C33.1707 105.869 34.8269 106 36.4213 106C38.0156 106 39.6721 105.869 41.6337 105.587C42.2889 105.492 42.8123 104.993 42.9374 104.343L44.0922 98.3372C46.618 97.6643 49.0392 96.6592 51.3136 95.3394L56.383 98.7734C56.931 99.1446 57.6542 99.1276 58.1844 98.7309C59.7717 97.543 61.0358 96.4648 62.1629 95.3377C63.29 94.2106 64.3682 92.9463 65.5562 91.3594C65.9528 90.8292 65.97 90.106 65.5986 89.558L62.1646 84.4886C63.4844 82.2142 64.4893 79.793 65.1624 77.2674L71.1681 76.1124C71.8182 75.9873 72.3176 75.4639 72.4118 74.8087C72.694 72.846 72.8254 71.1898 72.8254 69.5963C72.8254 68.0027 72.694 66.3465 72.4118 64.3838C72.3174 63.7284 71.818 63.205 71.1679 63.08ZM69.4823 73.2742L63.6012 74.4052C62.9972 74.5213 62.5188 74.983 62.3811 75.5824C61.7207 78.457 60.5853 81.1927 59.0061 83.7131C58.6796 84.2342 58.6914 84.8992 59.0363 85.4083L62.3995 90.3731C61.5619 91.4389 60.775 92.3337 59.9669 93.1419C59.1589 93.95 58.2641 94.7367 57.1981 95.5745L52.2333 92.2113C51.724 91.8664 51.0592 91.8546 50.5381 92.1811C48.0177 93.7601 45.282 94.8957 42.4074 95.5561C41.808 95.6938 41.3463 96.1722 41.2302 96.7762L40.0992 102.657C38.7535 102.819 37.5645 102.895 36.4213 102.895C35.278 102.895 34.0891 102.819 32.7434 102.657L31.6123 96.7762C31.4962 96.1722 31.0345 95.6938 30.4352 95.5561C27.5605 94.8957 24.8248 93.7601 22.3044 92.1811C21.7833 91.8546 21.1183 91.8664 20.6092 92.2113L15.6444 95.5745C14.5786 94.7371 13.6841 93.95 12.8758 93.1419C12.0676 92.3337 11.2808 91.4391 10.443 90.3731L13.8062 85.4083C14.1511 84.8992 14.1631 84.2342 13.8364 83.7131C12.2574 81.1927 11.1218 78.457 10.4614 75.5824C10.3237 74.983 9.84528 74.5213 9.24137 74.4052L3.36023 73.2742C3.19895 71.9279 3.12277 70.7389 3.12277 69.5961C3.12277 68.4535 3.19895 67.2645 3.36023 65.9179L9.24137 64.7871C9.84528 64.671 10.3237 64.2093 10.4614 63.61C11.1218 60.7353 12.2574 57.9996 13.8364 55.4792C14.1631 54.9581 14.1511 54.2931 13.8062 53.784L10.4428 48.8192C11.2804 47.7534 12.0676 46.8586 12.8756 46.0504C13.6836 45.2424 14.5784 44.4552 15.6442 43.6178L20.609 46.9812C21.1183 47.3261 21.7831 47.3379 22.3042 47.0114C24.8246 45.4324 27.5601 44.2968 30.4347 43.6366C31.0341 43.4989 31.4958 43.0203 31.6119 42.4164L32.7427 36.5352C34.0895 36.3738 35.2785 36.2976 36.4208 36.2976C37.5632 36.2976 38.7522 36.3738 40.099 36.5352L41.2298 42.4164C41.3459 43.0203 41.8076 43.4989 42.4069 43.6366C45.2816 44.2968 48.0173 45.4324 50.5375 47.0114C51.0586 47.3379 51.7234 47.3261 52.2327 46.9812L57.1975 43.6178C58.2639 44.4558 59.1585 45.2428 59.9663 46.0506C60.7741 46.8586 61.5611 47.7532 62.3989 48.8194L59.0355 53.7843C58.6906 54.2933 58.6786 54.9581 59.0053 55.4794C60.5843 58 61.7199 60.7357 62.3803 63.6102C62.518 64.2097 62.9964 64.6712 63.6003 64.7873L69.4815 65.9181C69.6427 67.2645 69.7189 68.4537 69.7189 69.5963C69.7198 70.7389 69.6436 71.9279 69.4823 73.2742Z" fill="black"/>
<path d="M47.0442 54.6424C47.7427 55.1396 48.7122 54.9767 49.2097 54.2782C49.7072 53.5797 49.5441 52.6101 48.8456 52.1128C44.7584 49.2024 39.7414 47.8145 34.7211 48.2047C29.6382 48.5999 24.8509 50.8056 21.2408 54.4157C17.6308 58.0257 15.4251 62.813 15.0299 67.8957C14.6397 72.917 16.0276 77.933 18.9378 82.0202C19.2407 82.4456 19.7185 82.6723 20.204 82.6723C20.5156 82.6723 20.8303 82.5789 21.1034 82.3843C21.8019 81.8868 21.965 80.9173 21.4675 80.2188C16.2526 72.8955 17.0808 62.9673 23.4366 56.6114C29.7929 50.2556 39.7211 49.4272 47.0442 54.6424Z" fill="black"/>
<path d="M51.7385 56.807C51.0399 57.3045 50.8768 58.274 51.3743 58.9726C56.5892 66.2957 55.7611 76.224 49.4052 82.5799C43.0493 88.9358 33.121 89.7639 25.7978 84.549C25.0993 84.0517 24.1298 84.2146 23.6323 84.9131C23.1348 85.6117 23.2979 86.5812 23.9965 87.0787C27.6315 89.6672 32.0011 91.0512 36.456 91.0512C37.01 91.0512 37.5657 91.0297 38.121 90.9866C43.2038 90.5914 47.991 88.3859 51.601 84.7757C55.211 81.1657 57.4167 76.3783 57.8119 71.2957C58.2022 66.2743 56.8144 61.2584 53.904 57.1712C53.4065 56.4727 52.437 56.3097 51.7385 56.807Z" fill="black"/>
<path d="M38.858 22.9751C39.2806 24.5017 39.8729 25.9309 40.6188 27.2232C41.3652 28.5157 42.3066 29.7431 43.4173 30.8721C43.8525 31.3143 44.5092 31.4549 45.087 31.23L46.808 30.5607C47.8966 31.3984 49.0829 32.0836 50.3514 32.608L50.6319 34.4314C50.7263 35.0444 51.1764 35.5427 51.7768 35.6984C53.3099 36.0959 54.844 36.2973 56.336 36.2973C57.8283 36.2973 59.3624 36.0959 60.8953 35.6984C61.4957 35.5427 61.946 35.0446 62.0402 34.4314L62.3207 32.608C63.589 32.0836 64.7752 31.3982 65.864 30.5605L67.5851 31.2298C68.1631 31.4549 68.8196 31.3139 69.2548 30.8719C70.3655 29.7429 71.3071 28.5154 72.0532 27.223C72.7992 25.9309 73.3915 24.5017 73.814 22.9751C73.9794 22.3772 73.7732 21.7381 73.2892 21.3499L71.8565 20.2C71.9487 19.5112 71.995 18.8243 71.995 18.1486C71.995 17.4728 71.9485 16.7859 71.8565 16.0971L73.2892 14.9472C73.773 14.5591 73.9792 13.92 73.8138 13.322C73.3913 11.7952 72.799 10.3661 72.053 9.07397C71.3069 7.78189 70.3655 6.5542 69.2546 5.42505C68.8196 4.98283 68.1633 4.84205 67.5849 5.06688L65.8638 5.73622C64.7752 4.89857 63.5892 4.21329 62.3207 3.68888L62.0402 1.86535C61.9458 1.25233 61.4957 0.754215 60.8953 0.598527C59.3624 0.201648 57.8285 0 56.3362 0C54.844 0 53.3101 0.201648 51.777 0.599148C51.1766 0.754836 50.7263 1.25295 50.6321 1.86597L50.3516 3.6895C49.0833 4.21371 47.897 4.89919 46.8085 5.73684L45.0874 5.0675C44.5092 4.84246 43.8527 4.98345 43.4177 5.42567C42.3068 6.55482 41.3654 7.7823 40.6192 9.07459C39.8733 10.3665 39.281 11.7956 38.8584 13.3225C38.693 13.9204 38.8992 14.5595 39.3831 14.9477L40.8157 16.0975C40.7236 16.7863 40.6772 17.4732 40.6772 18.149C40.6772 18.8249 40.7238 19.5117 40.8157 20.2005L39.3831 21.3503C38.899 21.7381 38.6926 22.3772 38.858 22.9751ZM44.0183 20.5491C43.8618 19.7415 43.7825 18.9338 43.7825 18.1486C43.7825 17.3633 43.8618 16.5557 44.0183 15.748C44.1278 15.1824 43.915 14.6025 43.4657 14.2419L42.1502 13.1862C42.4641 12.2753 42.8521 11.4178 43.3086 10.6271C43.7653 9.83626 44.3139 9.07128 44.9458 8.34419L46.5269 8.95907C47.0645 9.16817 47.6738 9.06196 48.109 8.6833C49.3305 7.62041 50.7253 6.81464 52.2542 6.28837C52.7995 6.10059 53.1958 5.62628 53.2834 5.05612L53.5409 3.38186C54.4864 3.19822 55.423 3.10547 56.3364 3.10547C57.2499 3.10547 58.1865 3.19822 59.132 3.38186L59.3897 5.05632C59.4773 5.62628 59.8736 6.10059 60.4189 6.28837C61.9478 6.81464 63.3426 7.62061 64.5639 8.6833C64.9991 9.06196 65.6083 9.16817 66.146 8.95907L67.7271 8.34398C68.359 9.07128 68.9076 9.83605 69.3643 10.6269C69.8208 11.4176 70.2088 12.2751 70.5226 13.186L69.2072 14.2417C68.7577 14.6023 68.5449 15.1822 68.6546 15.7478C68.8109 16.5555 68.8904 17.3631 68.8904 18.1484C68.8904 18.9336 68.8111 19.7411 68.6546 20.5489C68.5451 21.1145 68.7579 21.6944 69.2072 22.055L70.5226 23.1107C70.2088 24.0216 69.8208 24.8792 69.3643 25.6698C68.9076 26.4609 68.359 27.2259 67.7271 27.9527L66.146 27.3379C65.6083 27.1285 64.9991 27.235 64.5639 27.6136C63.3424 28.6765 61.9478 29.4823 60.4187 30.0088C59.8736 30.1965 59.4771 30.6709 59.3895 31.2408L59.1318 32.9153C58.1863 33.0989 57.2497 33.1917 56.3362 33.1917C55.4228 33.1917 54.4862 33.0989 53.5407 32.9153L53.2831 31.241C53.1956 30.6711 52.7993 30.1968 52.254 30.009C50.7251 29.4827 49.3303 28.6767 48.1088 27.6138C47.6734 27.235 47.0639 27.1288 46.5267 27.3381L44.9456 27.9529C44.3139 27.2261 43.7651 26.4611 43.3084 25.6702C42.8519 24.8794 42.4639 24.0218 42.15 23.1109L43.4655 22.0552C43.915 21.6946 44.1278 21.1147 44.0183 20.5491Z" fill="black"/>
<path d="M56.3362 26.3394C60.8528 26.3394 64.5274 22.665 64.5274 18.1484C64.5274 17.4559 64.4404 16.7671 64.269 16.1013C64.0552 15.2707 63.2084 14.7709 62.3782 14.9848C61.5476 15.1986 61.0478 16.0452 61.2615 16.8756C61.3679 17.2886 61.4217 17.7168 61.4217 18.1482C61.4217 20.9525 59.1402 23.2337 56.336 23.2337C53.5318 23.2337 51.2505 20.9523 51.2505 18.1482C51.2505 15.3442 53.532 13.0627 56.336 13.0627C56.7677 13.0627 57.1958 13.1165 57.6086 13.2227C58.4392 13.4362 59.2856 12.9366 59.4994 12.106C59.7133 11.2754 59.2133 10.4289 58.3827 10.2152C57.7171 10.0438 57.0285 9.95703 56.336 9.95703C51.8194 9.95703 48.145 13.6316 48.145 18.148C48.145 22.665 51.8196 26.3394 56.3362 26.3394Z" fill="black"/>
<path d="M105.056 45.0494L103.365 44.3057C103.188 42.9437 102.834 41.6203 102.308 40.3527L103.399 38.865C103.766 38.3646 103.799 37.6942 103.485 37.1594C102.682 35.7941 101.74 34.567 100.685 33.512C99.6296 32.4567 98.4026 31.5147 97.0372 30.7117C96.5026 30.3972 95.8321 30.4311 95.3317 30.7978L93.8439 31.8888C92.5763 31.3626 91.253 31.0087 89.8909 30.8311L89.1472 29.1407C88.8974 28.5728 88.3423 28.2099 87.7133 28.2134C86.1293 28.2264 84.5955 28.4287 83.1543 28.8148C81.7134 29.2009 80.2838 29.7926 78.9056 30.5734C78.3659 30.8791 78.0599 31.4768 78.1274 32.0936L78.3276 33.9196C77.7754 34.3415 77.2568 34.7945 76.779 35.2723C76.3012 35.7502 75.8484 36.2688 75.4265 36.8209L73.6004 36.6207C72.9825 36.5532 72.386 36.8592 72.0804 37.3988C71.2997 38.777 70.708 40.2065 70.3217 41.6477C69.9354 43.0892 69.7331 44.6231 69.7203 46.2067C69.7153 46.827 70.0799 47.3907 70.6478 47.6406L72.338 48.3843C72.5154 49.7463 72.8696 51.0699 73.3957 52.3373L72.3046 53.825C71.9378 54.3254 71.9038 54.9958 72.2183 55.5306C73.0212 56.8957 73.9634 58.1228 75.0186 59.178C76.0738 60.2333 77.3011 61.1753 78.6661 61.9783C79.2008 62.2928 79.8714 62.2589 80.3716 61.892L81.8591 60.8009C83.1268 61.3272 84.4503 61.6812 85.8124 61.8587L86.5558 63.5489C86.8041 64.113 87.3618 64.4764 87.9771 64.4764H87.9897C89.5733 64.4635 91.1072 64.2611 92.5488 63.875C93.9901 63.4888 95.4197 62.8969 96.7977 62.1162C97.3374 61.8104 97.6432 61.2129 97.5757 60.5962L97.3755 58.77C97.9276 58.348 98.4463 57.8953 98.9241 57.4174C99.4021 56.9396 99.8549 56.421 100.277 55.8688L102.103 56.0688C102.719 56.1363 103.317 55.8305 103.623 55.2906C104.404 53.9124 104.996 52.4829 105.382 51.0419C105.768 49.601 105.97 48.0671 105.983 46.4829C105.988 45.8628 105.624 45.2991 105.056 45.0494ZM102.382 50.2384C102.146 51.1204 101.814 52.0011 101.392 52.8671L99.7149 52.6833C99.1433 52.6205 98.5817 52.8801 98.2591 53.3576C97.7987 54.0391 97.2838 54.6664 96.7285 55.2217C96.1733 55.7769 95.5462 56.2918 94.8646 56.7522C94.3872 57.0748 94.1276 57.6352 94.1903 58.2081L94.3742 59.8848C93.5084 60.307 92.6274 60.6391 91.7455 60.8755C90.8631 61.1119 89.9344 61.2645 88.9735 61.332L88.2906 59.7793C88.0583 59.2511 87.5523 58.8954 86.9767 58.8555C85.3613 58.7433 83.8054 58.3269 82.3521 57.6181C82.1361 57.5127 81.9034 57.4607 81.6716 57.4607C81.3469 57.4607 81.0244 57.5624 80.753 57.7613L79.387 58.7631C78.5887 58.2244 77.8605 57.6278 77.2148 56.9818C76.5691 56.3359 75.9724 55.608 75.4335 54.8097L76.4353 53.4435C76.7763 52.9785 76.8316 52.3628 76.5788 51.8444C75.8699 50.391 75.4536 48.8352 75.3414 47.2197C75.3014 46.6442 74.9457 46.1382 74.4176 45.9059L72.8649 45.2227C72.9322 44.2618 73.0849 43.3333 73.3216 42.4509C73.558 41.5688 73.8901 40.6879 74.312 39.8223L75.9888 40.0059C76.5608 40.0688 77.122 39.809 77.4446 39.3316C77.905 38.6501 78.4199 38.023 78.9752 37.4677C79.5304 36.9124 80.1575 36.3976 80.8393 35.9369C81.3167 35.6144 81.5765 35.0539 81.5136 34.4811L81.3297 32.8045C82.1958 32.3822 83.0765 32.0501 83.9584 31.8139C84.8404 31.5777 85.7691 31.4249 86.7302 31.3574L87.4134 32.9103C87.6456 33.4383 88.1514 33.7941 88.727 33.8339C90.3424 33.9461 91.8985 34.3624 93.3516 35.0713C93.8698 35.3241 94.4857 35.2688 94.9505 34.928L96.3167 33.9262C97.115 34.4649 97.8432 35.0618 98.4889 35.7075C99.1348 36.3533 99.7315 37.0812 100.27 37.8797L99.2684 39.2459C98.9274 39.7109 98.8721 40.3266 99.1249 40.8448C99.8338 42.2979 100.25 43.854 100.362 45.4695C100.402 46.045 100.758 46.5508 101.286 46.7831L102.839 47.4663C102.771 48.4277 102.618 49.3565 102.382 50.2384Z" fill="black"/>
<path d="M93.902 43.1977C93.071 43.4091 92.5688 44.2544 92.7801 45.0854C92.8841 45.4939 92.9369 45.9177 92.9369 46.3448C92.9369 49.149 90.6554 51.4303 87.8513 51.4303C85.0473 51.4303 82.7658 49.1488 82.7658 46.3448C82.7658 43.5408 85.0473 41.2591 87.8513 41.2591C88.2874 41.2591 88.7198 41.3141 89.1368 41.4226C89.9668 41.6388 90.8146 41.1406 91.0303 40.3109C91.2462 39.4809 90.7485 38.6331 89.9186 38.4174C89.2463 38.2424 88.5509 38.1538 87.8511 38.1538C83.3346 38.1538 79.6602 41.8284 79.6602 46.345C79.6602 50.8616 83.3348 54.536 87.8511 54.536C92.3675 54.536 96.0421 50.8614 96.0421 46.345C96.0421 45.6597 95.957 44.9784 95.7896 44.3198C95.5782 43.4886 94.7333 42.9861 93.902 43.1977Z" fill="black"/>
</mask>
<g mask="url(#mask0_1_135668)">
<rect y="-19" width="110" height="130" fill="url(#paint0_linear_1_135668)"/>
</g>
</g>
<defs>
<linearGradient id="paint0_linear_1_135668" x1="18.5465" y1="5.85294" x2="95.2777" y2="64.5421" gradientUnits="userSpaceOnUse">
<stop stop-color="#B99147"/>
<stop offset="0.515625" stop-color="#E9DABA"/>
<stop offset="1" stop-color="#A58B59"/>
</linearGradient>
<clipPath id="clip0_1_135668">
<rect width="106" height="106" fill="white"/>
</clipPath>
</defs>
</svg>
