<svg width="104" height="104" viewBox="0 0 104 104" fill="none" xmlns="http://www.w3.org/2000/svg">
<path d="M45.5087 68.25C45.5087 69.1509 44.7784 69.8812 43.8774 69.8812C42.9765 69.8812 42.2462 69.1509 42.2462 68.25C42.2462 67.3491 42.9765 66.6188 43.8774 66.6188C44.7784 66.6188 45.5087 67.3491 45.5087 68.25Z" fill="url(#paint0_linear_1_135594)" stroke="#131313" stroke-width="0.8"/>
<path d="M29.6587 29.2562H29.2587V29.6562V33.7188V34.1187H29.6587H66.8306H67.2306V33.7188V29.6562V29.2562H66.8306H29.6587ZM12.1899 29.2562H11.7899V29.6562V33.7188V34.1187H12.1899H25.5962H25.9962V33.7188V29.6562V29.2562H25.5962H12.1899ZM8.52744 35.75V27.625C8.52744 26.7241 9.25775 25.9938 10.1587 25.9938H68.8618C69.7626 25.9938 70.4931 26.7241 70.4931 27.625V35.75C70.4931 36.6509 69.7626 37.3813 68.8618 37.3813H10.1587C9.25775 37.3813 8.52744 36.6509 8.52744 35.75Z" fill="url(#paint1_linear_1_135594)" stroke="#131313" stroke-width="0.8"/>
<path d="M68.8618 45.5062H10.1587C9.25775 45.5062 8.52744 44.7759 8.52744 43.875C8.52744 42.9741 9.25775 42.2438 10.1587 42.2438H68.8618C69.7626 42.2438 70.4931 42.9741 70.4931 43.875C70.4931 44.7759 69.7626 45.5062 68.8618 45.5062Z" fill="url(#paint2_linear_1_135594)" stroke="#131313" stroke-width="0.8"/>
<path d="M68.8618 53.6312H10.1587C9.25775 53.6312 8.52744 52.9009 8.52744 52C8.52744 51.0991 9.25775 50.3688 10.1587 50.3688H68.8618C69.7626 50.3688 70.4931 51.0991 70.4931 52C70.4931 52.9009 69.7626 53.6312 68.8618 53.6312Z" fill="url(#paint3_linear_1_135594)" stroke="#131313" stroke-width="0.8"/>
<path d="M43.8774 61.7562H10.1587C9.25775 61.7562 8.52744 61.0259 8.52744 60.125C8.52744 59.2241 9.25775 58.4938 10.1587 58.4938H43.8774C44.7784 58.4938 45.5087 59.2241 45.5087 60.125C45.5087 61.0259 44.7784 61.7562 43.8774 61.7562Z" fill="url(#paint4_linear_1_135594)" stroke="#131313" stroke-width="0.8"/>
<path d="M35.7524 69.8812H10.1587C9.25775 69.8812 8.52744 69.1509 8.52744 68.25C8.52744 67.3491 9.25775 66.6188 10.1587 66.6188H35.7524C36.6534 66.6188 37.3837 67.3491 37.3837 68.25C37.3837 69.1509 36.6534 69.8812 35.7524 69.8812Z" fill="url(#paint5_linear_1_135594)" stroke="#131313" stroke-width="0.8"/>
<path d="M38.38 86.4514L38.3147 86.1313H37.988H27.6274C26.7265 86.1313 25.9962 85.4009 25.9962 84.5C25.9962 83.5991 26.7265 82.8687 27.6274 82.8687H37.988H38.3147L38.38 82.5486C39.2865 78.1007 43.2295 74.7438 47.9399 74.7438C53.3192 74.7438 57.6962 79.1208 57.6962 84.5C57.6962 89.8792 53.3192 94.2563 47.9399 94.2563C43.2293 94.2563 39.2865 90.8993 38.38 86.4514ZM41.8186 82.335L41.6293 82.8687H42.1956H47.9399C48.8409 82.8687 49.5712 83.5991 49.5712 84.5C49.5712 85.4009 48.8407 86.1313 47.9399 86.1313H42.1956H41.6293L41.8186 86.665C42.7117 89.1832 45.1168 90.9937 47.9399 90.9937C51.521 90.9937 54.4337 88.081 54.4337 84.5C54.4337 80.919 51.521 78.0062 47.9399 78.0062C45.1166 78.0062 42.7117 79.8168 41.8186 82.335Z" fill="url(#paint6_linear_1_135594)" stroke="#131313" stroke-width="0.8"/>
<path d="M70.4931 14.2188C70.4931 15.1197 69.7626 15.85 68.8618 15.85H64.7993C63.8985 15.85 63.1681 15.1197 63.1681 14.2188C63.1681 13.3178 63.8985 12.5875 64.7993 12.5875H68.8618C69.7626 12.5875 70.4931 13.3178 70.4931 14.2188Z" fill="url(#paint7_linear_1_135594)" stroke="#131313" stroke-width="0.8"/>
<path d="M58.3056 14.2188C58.3056 15.1197 57.5751 15.85 56.6743 15.85H52.6118C51.711 15.85 50.9806 15.1197 50.9806 14.2188C50.9806 13.3178 51.711 12.5875 52.6118 12.5875H56.6743C57.5751 12.5875 58.3056 13.3178 58.3056 14.2188Z" fill="url(#paint8_linear_1_135594)" stroke="#131313" stroke-width="0.8"/>
<path d="M46.1181 14.2188C46.1181 15.1197 45.3878 15.85 44.4868 15.85H40.4243C39.5234 15.85 38.7931 15.1197 38.7931 14.2188C38.7931 13.3178 39.5234 12.5875 40.4243 12.5875H44.4868C45.3878 12.5875 46.1181 13.3178 46.1181 14.2188Z" fill="url(#paint9_linear_1_135594)" stroke="#131313" stroke-width="0.8"/>
<path d="M41.4462 101.969C41.4462 102.87 40.7159 103.6 39.8149 103.6C38.914 103.6 38.1837 102.87 38.1837 101.969C38.1837 101.068 38.914 100.338 39.8149 100.338C40.7159 100.338 41.4462 101.068 41.4462 101.969Z" fill="url(#paint10_linear_1_135594)" stroke="#131313" stroke-width="0.8"/>
<path d="M3.66543 100.338V99.9375V20.3125V19.9125H4.06543H18.2842C19.1851 19.9125 19.9154 19.1822 19.9154 18.2812V4.0625V3.6625H20.3154H74.956H75.356V4.0625V61.4762V61.6226L75.2616 61.7344C74.3359 62.8296 73.469 63.7941 72.7162 64.5664L72.4334 64.8566L72.1469 64.5701L67.8407 60.2638L67.8406 60.2637C64.0287 56.4493 57.8557 56.4476 54.0425 60.2633L54.0424 60.2634L51.1702 63.1356C50.5332 63.7726 50.5332 64.8055 51.1702 65.4425L75.2387 89.511L75.3558 89.6282V89.7938V99.9375V100.338H74.9558H48.9558C48.0549 100.338 47.3246 101.068 47.3246 101.969C47.3246 102.87 48.0549 103.6 48.9558 103.6H76.9871C77.8879 103.6 78.6183 102.87 78.6183 101.969V93.8563V92.8907L79.3012 93.5735L79.896 94.1683C80.5332 94.805 81.5664 94.8053 82.2033 94.1684L85.0754 91.2963C88.8879 87.4838 88.8887 81.3116 85.0754 77.4986L85.3583 77.2157L85.0754 77.4986L80.7698 73.1927L80.4833 72.9062L80.7735 72.6234C82.7196 70.7272 85.819 68.2166 88.9849 65.9396C92.1463 63.6658 95.4069 61.6008 97.6745 60.6132L97.6746 60.6132C103.689 57.995 105.841 49.8267 100.724 44.7103L100.724 44.7103C95.6459 39.6293 87.5149 41.6819 84.8476 47.7139L84.8476 47.714C83.7894 50.1054 81.6135 53.4379 79.3411 56.5367L78.6185 57.522V56.3002V2.03125C78.6185 1.13033 77.8881 0.4 76.9873 0.4H18.2842C17.841 0.4 17.4208 0.58811 17.1307 0.877796L3.66543 100.338ZM3.66543 100.338H4.06543H30.6748C31.5757 100.338 32.306 101.068 32.306 101.969C32.306 102.87 31.5757 103.6 30.6748 103.6H2.03418C1.13323 103.6 0.40293 102.87 0.40293 101.969V18.2812C0.40293 17.8391 0.5861 17.4218 0.880412 17.1281L0.880726 17.1278L17.1306 0.877955L3.66543 100.338ZM78.2714 63.2219L78.2715 63.2219C81.7869 58.982 86.0963 52.9545 87.8312 49.0338C89.5046 45.2499 94.8454 43.4437 98.4173 47.017L78.2714 63.2219ZM78.2714 63.2219C77.0876 64.6501 75.9699 65.9047 75.0165 66.8802L74.7401 67.1631L75.0197 67.4427L77.897 70.3199L78.1767 70.5996L78.4595 70.3231C80.5308 68.2979 83.7582 65.6658 87.1021 63.2635C90.4496 60.8587 93.8848 58.7054 96.3721 57.622C100.154 55.9761 101.991 50.5911 98.4173 47.0171L78.2714 63.2219ZM80.767 90.4253L81.0498 90.7081L81.3327 90.4252L82.7683 88.9894C85.3062 86.4515 85.3058 82.3427 82.7683 79.8055L65.5335 62.5704C65.5334 62.5704 65.5334 62.5704 65.5334 62.5703C62.9946 60.0302 58.887 60.0315 56.3498 62.57L54.9136 64.0062L54.6308 64.2891L54.9136 64.5719L80.767 90.4253ZM16.6529 6.93509V5.96941L15.9701 6.65225L6.65518 15.9672L5.97234 16.65H6.93802H16.2529H16.6529V16.25V6.93509Z" fill="url(#paint11_linear_1_135594)" stroke="#131313" stroke-width="0.8"/>
<defs>
<linearGradient id="paint0_linear_1_135594" x1="43.8774" y1="66.2188" x2="43.8774" y2="70.2812" gradientUnits="userSpaceOnUse">
<stop stop-color="#CCAB6C"/>
<stop offset="1" stop-color="#F4E4C4"/>
</linearGradient>
<linearGradient id="paint1_linear_1_135594" x1="39.5103" y1="25.5938" x2="39.5103" y2="37.7812" gradientUnits="userSpaceOnUse">
<stop stop-color="#CCAB6C"/>
<stop offset="1" stop-color="#F4E4C4"/>
</linearGradient>
<linearGradient id="paint2_linear_1_135594" x1="39.5103" y1="41.8438" x2="39.5103" y2="45.9062" gradientUnits="userSpaceOnUse">
<stop stop-color="#CCAB6C"/>
<stop offset="1" stop-color="#F4E4C4"/>
</linearGradient>
<linearGradient id="paint3_linear_1_135594" x1="39.5103" y1="49.9688" x2="39.5103" y2="54.0312" gradientUnits="userSpaceOnUse">
<stop stop-color="#CCAB6C"/>
<stop offset="1" stop-color="#F4E4C4"/>
</linearGradient>
<linearGradient id="paint4_linear_1_135594" x1="27.0181" y1="58.0938" x2="27.0181" y2="62.1562" gradientUnits="userSpaceOnUse">
<stop stop-color="#CCAB6C"/>
<stop offset="1" stop-color="#F4E4C4"/>
</linearGradient>
<linearGradient id="paint5_linear_1_135594" x1="22.9556" y1="66.2188" x2="22.9556" y2="70.2812" gradientUnits="userSpaceOnUse">
<stop stop-color="#CCAB6C"/>
<stop offset="1" stop-color="#F4E4C4"/>
</linearGradient>
<linearGradient id="paint6_linear_1_135594" x1="41.8462" y1="74.3438" x2="41.8462" y2="94.6562" gradientUnits="userSpaceOnUse">
<stop stop-color="#CCAB6C"/>
<stop offset="1" stop-color="#F4E4C4"/>
</linearGradient>
<linearGradient id="paint7_linear_1_135594" x1="66.8306" y1="12.1875" x2="66.8306" y2="16.25" gradientUnits="userSpaceOnUse">
<stop stop-color="#CCAB6C"/>
<stop offset="1" stop-color="#F4E4C4"/>
</linearGradient>
<linearGradient id="paint8_linear_1_135594" x1="54.6431" y1="12.1875" x2="54.6431" y2="16.25" gradientUnits="userSpaceOnUse">
<stop stop-color="#CCAB6C"/>
<stop offset="1" stop-color="#F4E4C4"/>
</linearGradient>
<linearGradient id="paint9_linear_1_135594" x1="42.4556" y1="12.1875" x2="42.4556" y2="16.25" gradientUnits="userSpaceOnUse">
<stop stop-color="#CCAB6C"/>
<stop offset="1" stop-color="#F4E4C4"/>
</linearGradient>
<linearGradient id="paint10_linear_1_135594" x1="39.8149" y1="99.9375" x2="39.8149" y2="104" gradientUnits="userSpaceOnUse">
<stop stop-color="#CCAB6C"/>
<stop offset="1" stop-color="#F4E4C4"/>
</linearGradient>
<linearGradient id="paint11_linear_1_135594" x1="52.0003" y1="0" x2="52.0003" y2="104" gradientUnits="userSpaceOnUse">
<stop stop-color="#CCAB6C"/>
<stop offset="1" stop-color="#F4E4C4"/>
</linearGradient>
</defs>
</svg>
