<svg width="100" height="99" viewBox="0 0 100 99" fill="none" xmlns="http://www.w3.org/2000/svg">
<mask id="mask0_1_135617" style="mask-type:alpha" maskUnits="userSpaceOnUse" x="0" y="0" width="100" height="100">
<path d="M70.3731 54.66C70.3156 54.3237 70.4268 53.981 70.6713 53.7428L84.7461 40.0232C85.826 38.9707 86.2073 37.4257 85.7413 35.9915C85.2752 34.5574 84.0586 33.5315 82.5661 33.3148L63.1153 30.4884C62.7777 30.4394 62.4859 30.2273 62.335 29.9216L53.6365 12.296C52.969 10.9437 51.6176 10.1036 50.1094 10.1036C48.6013 10.1036 47.25 10.9437 46.5826 12.296L42.2011 21.1736C41.8471 21.8909 42.1417 22.7595 42.8589 23.1135C43.5762 23.4675 44.4447 23.173 44.7989 22.4557L49.1803 13.578C49.4376 13.0567 49.9159 13.0003 50.1094 13.0003C50.3031 13.0003 50.7815 13.0567 51.0388 13.578L59.7375 31.2037C60.3109 32.3646 61.4177 33.1688 62.6989 33.355L82.1497 36.1814C82.725 36.265 82.9263 36.7024 82.9861 36.8867C83.0462 37.0709 83.1403 37.5431 82.7241 37.9488L68.6493 51.6685C67.7221 52.5723 67.2993 53.8736 67.5183 55.1497L70.8409 74.5222C70.9392 75.0952 70.5854 75.4219 70.4285 75.5357C70.2717 75.6494 69.8524 75.8854 69.3374 75.6145L62.3011 71.9153C61.5931 71.5434 60.7172 71.8153 60.3449 72.5233C59.9725 73.2315 60.2449 74.1071 60.9529 74.4795L67.9892 78.1786C68.5699 78.4837 69.1981 78.6346 69.8231 78.6346C70.6352 78.6346 71.4419 78.38 72.1311 77.8793C73.3511 76.9928 73.9508 75.5187 73.6958 74.0324L70.3731 54.66Z" fill="black"/>
<path d="M56.7933 69.0193L51.94 66.4681C50.7938 65.8653 49.4255 65.8653 48.2795 66.4681L30.8822 75.6145C30.3679 75.8853 29.9477 75.6496 29.7908 75.5357C29.6342 75.4218 29.2804 75.0952 29.3787 74.522L32.7012 55.1498C32.9201 53.8736 32.4973 52.5721 31.5701 51.6685L17.4953 37.9489C17.0791 37.5431 17.1734 37.0709 17.2333 36.8867C17.2931 36.7024 17.4946 36.265 18.0699 36.1814L37.5207 33.355C38.8019 33.1688 39.9091 32.3646 40.4821 31.2036L42.0493 28.028C42.4033 27.3106 42.1088 26.4421 41.3915 26.0881C40.6738 25.7339 39.8054 26.0286 39.4516 26.7459L37.8843 29.9214C37.7333 30.2271 37.4417 30.4392 37.1041 30.4882L17.6531 33.3146C16.1606 33.5315 14.9441 34.5572 14.4781 35.9914C14.0121 37.4255 14.3935 38.9705 15.4733 40.023L29.5481 53.7427C29.7924 53.9808 29.9038 54.3236 29.8461 54.66L26.5236 74.032C26.2686 75.5185 26.8681 76.9924 28.0883 77.8789C28.7777 78.3799 29.5842 78.6344 30.3965 78.6342C31.0214 78.6342 31.6499 78.4834 32.2304 78.1782L49.6277 69.0318C49.9296 68.8731 50.2901 68.8731 50.592 69.0318L55.4452 71.5832C56.1538 71.9555 57.0292 71.6829 57.4014 70.9751C57.7736 70.2672 57.5012 69.3914 56.7933 69.0193Z" fill="black"/>
<path d="M8.02631 12.3857L19.7961 18.2719C20.25 18.4989 20.7353 18.6099 21.2164 18.6099C21.9827 18.6099 22.7378 18.3283 23.3363 17.7851C24.3103 16.9009 24.6347 15.5363 24.1627 14.3086L19.4418 2.02508C18.8384 0.455545 17.0528 -0.378177 15.4611 0.167016C11.3529 1.57355 8.35868 4.29101 6.56165 8.2441C5.86543 9.77578 6.52244 11.6336 8.02631 12.3857ZM9.19897 9.44302C10.6733 6.19948 13.0286 4.06178 16.3996 2.90785C16.423 2.89974 16.4477 2.89607 16.473 2.89607C16.5821 2.89607 16.6998 2.96579 16.7378 3.06448L21.459 15.348C21.4767 15.3944 21.5242 15.5178 21.3894 15.64C21.255 15.7625 21.1366 15.7034 21.092 15.681L9.32199 9.7947C9.20573 9.73657 9.1447 9.56237 9.19897 9.44302Z" fill="black"/>
<path d="M76.8833 17.7849C77.4818 18.328 78.2369 18.6097 79.0034 18.6097C79.4843 18.6097 79.97 18.4987 80.4237 18.2718L92.1935 12.3855C93.6972 11.6337 94.3542 9.7758 93.6583 8.24412C91.8613 4.29104 88.8671 1.57338 84.7589 0.166845C83.1672 -0.377962 81.3816 0.455567 80.7782 2.0249L76.0571 14.3085C75.5851 15.5362 75.9093 16.9008 76.8833 17.7849ZM78.761 15.3479L83.4822 3.06411C83.52 2.96543 83.6376 2.89571 83.7468 2.89571C83.7723 2.89571 83.7972 2.89957 83.8203 2.90749C87.1911 4.0616 89.5465 6.19931 91.0208 9.44246C91.0751 9.56182 91.0141 9.73621 90.8976 9.79434L79.1278 15.6806C79.0836 15.7028 78.9652 15.7621 78.8304 15.6397C78.6958 15.5176 78.7431 15.3942 78.761 15.3479Z" fill="black"/>
<path d="M23.3363 81.2152C22.3622 80.331 20.9727 80.1398 19.7961 80.7283L8.02631 86.6146C6.52244 87.3666 5.86543 89.2245 6.56165 90.756C8.35868 94.709 11.3529 97.4267 15.4611 98.8332C15.7917 98.9464 16.1306 99.0001 16.4659 99.0001C17.7436 99.0001 18.964 98.2185 19.4418 96.9752L24.1629 84.6916C24.6347 83.4639 24.3104 82.0993 23.3363 81.2152ZM21.459 83.6524L16.7376 95.9362C16.6909 96.0576 16.5232 96.1351 16.3995 96.0928C13.0286 94.9387 10.6733 92.8012 9.19897 89.5574C9.1447 89.4381 9.20573 89.2639 9.32218 89.2057L21.092 83.3195C21.1156 83.3077 21.16 83.2855 21.2164 83.2855C21.2664 83.2855 21.3261 83.3029 21.3894 83.3604C21.524 83.4825 21.4767 83.6059 21.459 83.6524Z" fill="black"/>
<path d="M92.1934 86.6144L90.1745 85.6045C89.4592 85.2467 88.5889 85.5368 88.2313 86.2521C87.8734 86.9676 88.1633 87.8376 88.879 88.1955L90.898 89.2054C91.0144 89.2635 91.0752 89.4377 91.021 89.557C89.5468 92.8006 87.1917 94.9383 83.8209 96.0922C83.6973 96.1347 83.5291 96.0571 83.4825 95.9356L78.7614 83.652C78.7434 83.6057 78.6961 83.4823 78.8307 83.36C78.9651 83.238 79.0837 83.2971 79.1281 83.3193L83.2977 85.4045C84.0134 85.7625 84.8833 85.4722 85.2409 84.7567C85.5988 84.0412 85.3089 83.1712 84.5932 82.8135L80.4236 80.7283C79.2473 80.1399 77.8575 80.3311 76.8836 81.215C75.9095 82.0991 75.585 83.4637 76.057 84.6914L80.7782 96.975C81.2562 98.2183 82.4763 98.9999 83.7542 98.9999C84.0891 98.9999 84.4283 98.9462 84.7589 98.833C88.867 97.4265 91.8613 94.7089 93.6579 90.7558C94.3541 89.2245 93.6973 87.3664 92.1934 86.6144Z" fill="black"/>
<path d="M11.8067 49.5244C11.8281 48.508 11.2777 47.5918 10.3702 47.1336L4.9272 44.3846C4.29664 44.0661 3.55214 44.0159 2.88451 44.2469C2.21552 44.4783 1.68269 44.957 1.3847 45.5951C0.160476 48.2154 0.160862 50.7535 1.38566 53.139C1.84974 54.0428 2.76516 54.5669 3.719 54.5669C4.08073 54.5669 4.44805 54.4914 4.79819 54.3327L10.2704 51.8528C11.1968 51.4329 11.7855 50.5409 11.8067 49.5244ZM3.84936 51.5822C3.19892 50.1676 3.21031 48.6967 3.88413 47.103L8.54231 49.4557L3.84936 51.5822Z" fill="black"/>
<path d="M98.8345 45.5954C98.5365 44.9573 98.0039 44.4785 97.3349 44.247C96.6673 44.0158 95.9228 44.0662 95.2922 44.3847L89.8492 47.1336C88.9417 47.5921 88.3911 48.5081 88.4127 49.5245C88.4342 50.5409 89.0226 51.433 89.9487 51.8527L95.4211 54.3328C95.7712 54.4915 96.1385 54.5668 96.5004 54.5668C97.4541 54.5668 98.3697 54.0427 98.8336 53.1391C100.059 50.7532 100.059 48.2151 98.8345 45.5954ZM96.3703 51.5823L91.6775 49.4556L96.3355 47.1031C97.0093 48.6968 97.0207 50.1674 96.3703 51.5823Z" fill="black"/>
<path d="M34.9328 10.3525C35.1136 10.9902 35.6941 11.4064 36.3256 11.4064C36.4564 11.4064 36.5892 11.3887 36.7213 11.3512C37.4909 11.1332 37.938 10.3325 37.72 9.56266L36.1622 4.06573C35.9442 3.29612 35.1437 2.84865 34.3737 3.06708C33.6041 3.28511 33.157 4.08581 33.375 4.85561L34.9328 10.3525Z" fill="black"/>
<path d="M16.0083 25.9753C16.3347 25.2449 16.0073 24.3884 15.2771 24.0619L10.9569 22.1306C10.2259 21.8042 9.3698 22.1314 9.04342 22.8618C8.71704 23.5922 9.04438 24.4487 9.77459 24.7753L14.0948 26.7065C14.287 26.7923 14.4876 26.833 14.6852 26.833C15.2389 26.833 15.7677 26.5136 16.0083 25.9753Z" fill="black"/>
<path d="M9.2892 65.8563C8.62021 66.2949 8.43346 67.1927 8.87205 67.8617C9.15015 68.2858 9.61268 68.5162 10.0847 68.5162C10.3572 68.5162 10.6326 68.4395 10.8775 68.2789L14.835 65.6842C15.504 65.2456 15.6907 64.3478 15.2521 63.6788C14.8135 63.0098 13.9155 62.8229 13.2467 63.2617L9.2892 65.8563Z" fill="black"/>
<path d="M39.2715 86.9727C38.5677 86.5915 37.689 86.8526 37.308 87.5559L35.0533 91.7164C34.672 92.4198 34.9331 93.2989 35.6365 93.6799C35.8559 93.7989 36.0923 93.8553 36.3254 93.8553C36.8399 93.8553 37.3379 93.5807 37.6002 93.0967L39.8549 88.9362C40.236 88.233 39.9749 87.3539 39.2715 86.9727Z" fill="black"/>
<path d="M63.4983 11.3511C63.6304 11.3886 63.7633 11.4063 63.894 11.4063C64.5255 11.4063 65.1061 10.99 65.2868 10.3525L66.8446 4.85553C67.0628 4.08592 66.6155 3.28523 65.8459 3.06699C65.0761 2.84876 64.2754 3.29623 64.0574 4.06564L62.4996 9.56257C62.2814 10.3322 62.7285 11.1329 63.4983 11.3511Z" fill="black"/>
<path d="M91.1762 22.8616C90.8498 22.1312 89.9927 21.8044 89.2629 22.1304L84.9427 24.0617C84.2123 24.3883 83.8849 25.2448 84.2115 25.9752C84.4521 26.5134 84.9807 26.8328 85.5346 26.8328C85.7322 26.8328 85.9328 26.7923 86.125 26.7064L90.4452 24.7751C91.1754 24.4485 91.5028 23.592 91.1762 22.8616Z" fill="black"/>
<path d="M84.9673 63.6781C84.5287 64.3471 84.7154 65.2449 85.3844 65.6835L89.3419 68.2782C89.587 68.4388 89.8622 68.5155 90.1347 68.5155C90.6065 68.5155 91.0692 68.2851 91.3473 67.861C91.7859 67.192 91.5992 66.2942 90.9302 65.8556L86.9727 63.261C86.3035 62.8224 85.406 63.0091 84.9673 63.6781Z" fill="black"/>
<path d="M62.9121 87.5562C62.5312 86.8528 61.6521 86.5913 60.9486 86.9727C60.2452 87.3538 59.9841 88.2329 60.3651 88.9362L62.6199 93.0967C62.8819 93.5807 63.3802 93.8553 63.8947 93.8553C64.1278 93.8553 64.3642 93.7989 64.5834 93.6802C65.2867 93.2989 65.5479 92.4198 65.1668 91.7167L62.9121 87.5562Z" fill="black"/>
</mask>
<g mask="url(#mask0_1_135617)">
<rect x="-19.0728" y="-16.9342" width="138.079" height="132.868" fill="url(#paint0_linear_1_135617)"/>
</g>
<defs>
<linearGradient id="paint0_linear_1_135617" x1="-19.0728" y1="-16.9342" x2="119.006" y2="115.934" gradientUnits="userSpaceOnUse">
<stop stop-color="#B99147"/>
<stop offset="0.515625" stop-color="#E9DABA"/>
<stop offset="1" stop-color="#A58B59"/>
</linearGradient>
</defs>
</svg>
