<svg width="97" height="97" viewBox="0 0 97 97" fill="none" xmlns="http://www.w3.org/2000/svg">
<mask id="mask0_1_135609" style="mask-type:alpha" maskUnits="userSpaceOnUse" x="0" y="0" width="97" height="98">
<path d="M0.816964 35.776L26.6096 47.8827C26.869 48.0045 27.1591 48.0446 27.442 47.9988L36.8569 46.4611C42.2374 45.5827 47.7364 47.3732 51.5674 51.2514L59.4467 59.2276C59.9296 59.7163 60.1716 60.3631 60.128 61.0488C60.0845 61.7344 59.7629 62.3454 59.2222 62.7694C58.4008 63.4131 57.2325 63.4415 56.3812 62.8383L48.6988 57.3955C47.6086 56.623 46.1563 56.7108 45.1669 57.6085L39.5528 62.7029C38.9721 63.23 38.9283 64.1281 39.4555 64.7088C39.9824 65.2896 40.8803 65.3333 41.4614 64.8062L47.0568 59.7129L54.7392 65.1557C55.6373 65.7919 56.6957 66.1081 57.753 66.1081C58.8963 66.1081 60.0381 65.7385 60.9744 65.0044C62.144 64.0876 62.8684 62.7112 62.9625 61.2283C63.0566 59.7453 62.5115 58.2886 61.4673 57.2315L55.2203 50.9079C58.5239 50.0882 62.0209 50.2227 65.2661 51.3252L68.5952 52.4566C68.9584 52.5798 69.3358 52.6408 69.7122 52.6408C70.3029 52.6408 70.8909 52.4907 71.4159 52.1956C71.4226 52.1919 71.4292 52.1881 71.4356 52.1843L95.9809 37.87C96.6583 37.4749 96.8873 36.6054 96.4923 35.9279C96.0971 35.2502 95.2274 35.0217 94.5501 35.4165L70.0176 49.7233C69.862 49.8084 69.6768 49.8241 69.509 49.7673L66.1799 48.6361C61.8867 47.1774 57.2124 47.1778 52.9266 48.6196C48.4915 44.5315 42.3832 42.6813 36.399 43.6582L27.4183 45.1251L2.02386 33.2051C1.31381 32.8718 0.468187 33.1773 0.134936 33.8871C-0.198314 34.5972 0.106913 35.4428 0.816964 35.776Z" fill="black"/>
<path d="M96.7461 62.3932C96.4021 61.6885 95.5514 61.3965 94.8468 61.7405L82.3524 67.8438C82.1388 67.9481 81.9548 68.1043 81.8173 68.2982L80.812 69.7154C79.6032 71.4198 78.0383 72.833 76.2336 73.8625C76.0933 73.6351 75.9337 73.4159 75.7529 73.2078L73.2711 70.3518C71.4634 68.2717 68.3006 68.0499 66.2202 69.8578L66.0159 70.0354C64.9586 70.9542 64.3826 72.2232 64.308 73.5221C64.2862 73.5202 64.2644 73.5173 64.2427 73.5158C62.9114 73.4225 61.6227 73.8532 60.615 74.7288L60.4103 74.9066C59.3524 75.8259 58.7762 77.0958 58.7022 78.3955C57.405 78.2876 56.0672 78.6806 55.0095 79.5999L54.8047 79.7779C53.7468 80.6972 53.1708 81.9671 53.0966 83.2666C51.7992 83.1587 50.4612 83.552 49.4034 84.4714L49.1991 84.649C48.1913 85.5248 47.5851 86.7402 47.4915 88.0721C47.3982 89.4037 47.8291 90.6921 48.7047 91.6998L49.904 93.0799L49.4253 93.5033C49.4166 93.5112 49.4077 93.519 49.3992 93.527C48.4744 94.3872 46.9426 94.3654 46.0407 93.4838C45.2676 92.6336 45.2434 91.3391 45.9879 90.4618C46.4743 89.8887 46.4299 89.0355 45.8862 88.5161C45.3426 87.9969 44.4885 87.991 43.9379 88.5032L43.7854 88.645C42.8605 89.5054 41.3285 89.4833 40.4268 88.6019C39.6429 87.7401 39.6262 86.4357 40.3916 85.5568C40.8877 84.987 40.8509 84.1287 40.3081 83.6035C39.7654 83.0784 38.9062 83.0701 38.3531 83.5845L38.3107 83.6239C37.3857 84.4841 35.8537 84.4624 34.952 83.5808C34.1772 82.7289 34.1541 81.4328 34.902 80.5552C35.3407 80.0403 35.3553 79.2873 34.9371 78.7558C34.5186 78.2243 33.7834 78.0619 33.1799 78.3671C32.2449 78.8405 31.1098 78.6195 30.4192 77.8303C29.6157 76.912 29.7175 75.4608 30.6444 74.5879L32.1715 73.2354L36.9352 68.9126C37.516 68.3855 37.5597 67.4874 37.0326 66.9067C36.5054 66.3258 35.6073 66.2822 35.0266 66.8093L30.2757 71.1206L28.7469 72.4746C28.7384 72.4824 28.7297 72.4901 28.7214 72.4979C27.9382 73.2263 27.4264 74.1484 27.1928 75.1249L27.1822 75.1188C24.5785 73.6433 22.3074 71.7123 20.4319 69.3799L19.6223 68.373C19.4917 68.2105 19.3269 68.0787 19.1397 67.9871L2.04447 59.6242C1.33991 59.28 0.489362 59.5714 0.14475 60.2757C-0.199861 60.9803 0.0919224 61.8308 0.796293 62.1755L17.6073 70.3992L18.2187 71.1596C20.32 73.7728 22.8645 75.9363 25.7818 77.5896L27.551 78.5924C27.7409 78.9859 27.9835 79.3595 28.2821 79.7005C29.1455 80.6872 30.3196 81.2768 31.5529 81.4203C31.377 82.876 31.8257 84.3896 32.89 85.5339C32.9018 85.5464 32.9137 85.5587 32.9256 85.5708C34.0235 86.6686 35.5195 87.1774 36.9858 87.0875C36.993 88.3332 37.4541 89.5759 38.3646 90.5548C38.3764 90.5673 38.3883 90.5796 38.4002 90.5917C39.5346 91.7261 41.0944 92.2313 42.6069 92.0976C42.6435 93.3024 43.1025 94.4951 43.9782 95.4367C43.9899 95.4492 44.0019 95.4615 44.0138 95.4736C45.0296 96.4895 46.3869 97.0003 47.7451 97.0003C49.0319 97.0003 50.3198 96.5416 51.3192 95.6191L51.8259 95.1709C52.6145 95.808 53.5764 96.1901 54.6091 96.2625C54.7285 96.2708 54.8475 96.275 54.9662 96.275C56.1695 96.275 57.3196 95.8465 58.2366 95.0495L58.4415 94.8715C59.4995 93.952 60.0755 92.6819 60.1496 91.3822C60.2885 91.3938 60.4279 91.4012 60.5676 91.4012C61.7304 91.4012 62.8983 90.9988 63.8428 90.178L64.0471 90.0004C65.1051 89.0809 65.6811 87.811 65.7552 86.5111C65.8941 86.5226 66.0335 86.53 66.1732 86.53C67.336 86.53 68.5039 86.1277 69.4484 85.3068L69.6527 85.1292C70.6604 84.2535 71.2667 83.0381 71.3602 81.7062C71.3617 81.6841 71.3619 81.6621 71.3633 81.6399C71.5015 81.6513 71.6403 81.6587 71.7791 81.6587C72.9418 81.6587 74.1095 81.2563 75.0538 80.4357L75.2585 80.2579C76.3374 79.3203 76.9149 78.0181 76.9702 76.6914C79.4169 75.4364 81.5321 73.6092 83.1289 71.358L83.9245 70.2363L96.0935 64.292C96.7982 63.9483 97.0906 63.098 96.7461 62.3932ZM56.5792 92.7281L56.3744 92.9061C55.9394 93.284 55.3846 93.4702 54.8083 93.4298C54.2334 93.3895 53.7085 93.1276 53.3306 92.6927L50.8488 89.8368C50.4707 89.4018 50.2848 88.8455 50.3251 88.2707C50.3654 87.6958 50.6273 87.171 51.0624 86.7928L51.2667 86.6152C51.6746 86.2608 52.1786 86.0871 52.6806 86.0871C53.284 86.0871 53.8844 86.3384 54.3105 86.8286L56.7922 89.6847C57.5725 90.5824 57.4769 91.9478 56.5792 92.7281ZM62.1843 87.8572L61.98 88.0348C61.0821 88.8151 59.7165 88.7194 58.936 87.8214L56.4543 84.9653C55.674 84.0672 55.7696 82.7018 56.6673 81.9217L56.8721 81.7437C57.7702 80.9634 59.1356 81.059 59.9161 81.9571L62.3979 84.813C63.1782 85.7111 63.0825 87.0767 62.1843 87.8572ZM68.5272 81.5082C68.4869 82.083 68.225 82.6079 67.7899 82.986L67.5856 83.1636C66.6875 83.9439 65.3221 83.8483 64.5416 82.9502L62.0599 80.0941C61.2794 79.196 61.3752 77.8305 62.2731 77.0502L62.4778 76.8724C62.8739 76.5283 63.3702 76.3433 63.8899 76.3433C63.941 76.3433 63.9925 76.345 64.044 76.3486C64.6189 76.389 65.1438 76.6508 65.5217 77.0858L68.0035 79.9417C68.3816 80.377 68.5675 80.9331 68.5272 81.5082ZM73.3959 78.1145L73.1912 78.2923C72.2933 79.0726 70.9277 78.977 70.1473 78.0789L67.6655 75.223C67.2874 74.788 67.1014 74.2317 67.1418 73.6569C67.1821 73.082 67.4438 72.5572 67.8791 72.179L68.0834 72.0014C68.9814 71.2211 70.347 71.3168 71.1273 72.2148L73.6091 75.0707C74.3896 75.9686 74.2938 77.3342 73.3959 78.1145Z" fill="black"/>
<path d="M43.3091 39.7392L47.2398 41.1807C47.6007 41.313 47.9799 41.3793 48.3594 41.3793C48.7386 41.3793 49.1179 41.313 49.479 41.1807L53.4095 39.7392C56.9669 38.4346 60.1445 36.2211 62.5987 33.3379C65.0253 30.4869 66.6957 27.0431 67.4291 23.3787C67.583 22.6095 67.0845 21.8614 66.3153 21.7075C65.5455 21.5532 64.7979 22.0523 64.6442 22.8212C63.342 29.3268 58.6625 34.7876 52.4317 37.0724L48.501 38.5139C48.4096 38.5474 48.309 38.5474 48.2176 38.5139L44.2869 37.0724C36.7583 34.3116 31.7001 27.0689 31.7001 19.05V6.70724C31.7001 6.3719 31.939 6.08202 32.2681 6.01802L48.4469 2.86709L64.4518 6.01499C64.7801 6.07955 65.0185 6.36944 65.0185 6.70402V17.0471C65.0185 17.8314 65.6543 18.4672 66.4386 18.4672C67.2229 18.4672 67.8587 17.8314 67.8587 17.0471V6.70383C67.8587 5.01561 66.6564 3.55385 64.9999 3.22818L48.7222 0.0266987C48.5421 -0.0087092 48.3569 -0.00889854 48.1767 0.0261306L31.7251 3.23007C30.0647 3.55348 28.8599 5.0158 28.8599 6.70724V19.0504C28.8599 28.2555 34.6666 36.5699 43.3091 39.7392Z" fill="black"/>
<path d="M48.7171 5.81449C48.5371 5.77889 48.3519 5.77889 48.1716 5.81392L35.6891 8.24476C35.022 8.37465 34.5405 8.95897 34.5405 9.63873V19.0498C34.5405 25.8822 38.8504 32.0532 45.2651 34.4057L47.8706 35.3611C48.0283 35.4191 48.194 35.4479 48.3594 35.4479C48.5251 35.4479 48.6906 35.4189 48.8483 35.3611L51.4539 34.4057C57.8686 32.0534 62.1786 25.8822 62.1786 19.0498V9.63002C62.1786 8.9514 61.6984 8.36764 61.0324 8.23662L48.7171 5.81449ZM59.3384 19.0498C59.3384 24.6958 55.7769 29.7953 50.4762 31.7391L48.3596 32.5154L46.2431 31.7393C40.9422 29.7953 37.3807 24.696 37.3807 19.05V10.8091L48.4418 8.65507L59.3384 10.7981V19.0498Z" fill="black"/>
<path d="M44.7152 21.6814C44.1437 21.1441 43.2453 21.1719 42.7077 21.7431C42.1706 22.3146 42.1982 23.2132 42.7695 23.7506L45.0617 25.9061C45.3258 26.1546 45.6741 26.2916 46.0344 26.2916C46.0645 26.2916 46.0948 26.2907 46.1251 26.2888C46.5172 26.2638 46.8813 26.0773 47.1311 25.774L54.5556 16.7527C55.0539 16.1472 54.967 15.2521 54.3615 14.7538C53.7559 14.2554 52.8609 14.3423 52.3625 14.9479L45.902 22.7976L44.7152 21.6814Z" fill="black"/>
</mask>
<g mask="url(#mask0_1_135609)">
<rect x="-19.1284" y="-16.5922" width="135.289" height="130.184" fill="url(#paint0_linear_1_135609)"/>
</g>
<defs>
<linearGradient id="paint0_linear_1_135609" x1="-19.1284" y1="-16.5922" x2="116.161" y2="113.592" gradientUnits="userSpaceOnUse">
<stop stop-color="#B99147"/>
<stop offset="0.515625" stop-color="#E9DABA"/>
<stop offset="1" stop-color="#A58B59"/>
</linearGradient>
</defs>
</svg>
