<svg width="42" height="58" viewBox="0 0 42 58" fill="none" xmlns="http://www.w3.org/2000/svg">
<path d="M31.8044 20.8354L31.8044 20.8354C33.5142 23.3399 34.4179 26.2678 34.4179 29.303C34.4179 37.6034 27.6649 44.3566 19.3645 44.3566C11.0641 44.3566 4.31104 37.6035 4.31104 29.3031C4.31104 21.0028 11.0641 14.2498 19.3645 14.2498C23.0118 14.2498 26.5333 15.5767 29.2802 17.9866C29.5811 18.2506 29.6111 18.7088 29.3471 19.0098C29.083 19.3107 28.6249 19.3406 28.3239 19.0766C25.8417 16.8991 22.6598 15.6998 19.3644 15.6998C11.8634 15.6998 5.76105 21.8021 5.76105 29.303C5.76105 36.804 11.8634 42.9063 19.3644 42.9063C26.8654 42.9063 32.9677 36.804 32.9677 29.303C32.9677 26.561 32.1512 23.9155 30.6066 21.653L30.5034 21.7235L30.6066 21.653C30.3808 21.3223 30.4659 20.8712 30.7966 20.6454C31.1275 20.4196 31.5787 20.5047 31.8044 20.8354Z" fill="#B9B9B9" stroke="#B9B9B9" stroke-width="0.25"/>
<path d="M20.8968 29.303C20.8968 28.4579 20.2095 27.7706 19.3645 27.7706C18.5194 27.7706 17.8321 28.4579 17.8321 29.303C17.8321 30.1482 18.5194 30.8355 19.3645 30.8355C20.2095 30.8355 20.8969 30.1482 20.8968 29.303ZM20.8968 29.303H20.7718L20.8968 29.303C20.8968 29.303 20.8968 29.303 20.8968 29.303ZM28.8198 24.5101L28.8198 24.5101C29.0009 24.8672 28.8581 25.3035 28.5008 25.4844L28.5008 25.4844L22.3579 28.5984L22.2737 28.6411L22.2917 28.7337C22.3275 28.9183 22.3468 29.1083 22.3468 29.3029C22.3468 30.9474 21.0088 32.2855 19.3643 32.2855C17.7199 32.2855 16.3818 30.9474 16.3818 29.3029C16.3818 28.9005 16.4623 28.5168 16.6074 28.1663L16.6436 28.0789L16.5694 28.0204L13.2585 25.4068L13.2585 25.4068C12.9442 25.1588 12.8906 24.7029 13.1387 24.3884C13.3869 24.0742 13.8427 24.0205 14.157 24.2687L17.469 26.883L17.5432 26.9416L17.6197 26.8862C18.1108 26.5307 18.7132 26.3204 19.3643 26.3204C20.2282 26.3204 21.0071 26.6898 21.5526 27.2792L21.6167 27.3484L21.7008 27.3058L27.8452 24.1912C27.8452 24.1912 27.8452 24.1911 27.8452 24.1911C28.2024 24.0102 28.6388 24.1528 28.8198 24.5101Z" fill="#B9B9B9" stroke="#B9B9B9" stroke-width="0.25"/>
<path d="M37.5308 26.0488L37.5492 26.1519H37.6538H39.0338C40.167 26.1519 41.089 27.0739 41.0889 28.207V29.7929C41.0889 30.9259 40.1668 31.848 39.0336 31.848H37.7504H37.6422L37.6267 31.9551C37.0678 35.8214 35.3067 39.3041 32.7341 42.0096L32.6997 42.0458V42.0957V46.7167C32.6997 48.0734 31.5957 49.1773 30.2389 49.1773H29.0232H28.8982V49.3023V54.505C28.8982 56.363 27.3864 57.8748 25.5285 57.8748H13.2005C11.3426 57.8748 9.8308 56.363 9.8308 54.505V54.0756C9.8308 53.6751 10.1554 53.3506 10.5559 53.3506C10.9563 53.3506 11.2809 53.6751 11.2809 54.0756V54.505C11.2809 55.5635 12.142 56.4246 13.2005 56.4246H25.5286C26.5871 56.4246 27.4481 55.5635 27.4481 54.505V46.0882V45.8902L27.2694 45.9753C24.8722 47.1166 22.1919 47.7565 19.3646 47.7565C16.5373 47.7565 13.8571 47.1166 11.4598 45.9753L11.281 45.8902V46.0882V50.453C11.281 50.8535 10.9564 51.1781 10.556 51.1781C10.1555 51.1781 9.83092 50.8535 9.83092 50.453V49.3023V49.1773H9.70592H8.4901C7.13328 49.1773 6.02931 48.0734 6.02931 46.7167V42.0957V42.0458L5.99489 42.0096C2.84584 38.6978 0.910889 34.2222 0.910889 29.3029C0.910889 24.3836 2.84596 19.908 5.99489 16.5963L6.02931 16.5601V16.5102V11.8895C6.02931 10.5327 7.13329 9.42869 8.4901 9.42869H9.70569H9.83069V9.30369V3.10217C9.83069 1.46066 11.1664 0.125 12.808 0.125H25.921C27.5625 0.125 28.8982 1.46065 28.8983 3.10217V4.15013C28.8983 4.55066 28.5736 4.8752 28.1732 4.8752C27.7728 4.8752 27.4481 4.55066 27.4481 4.15013V3.10217C27.4481 2.26002 26.7631 1.57513 25.921 1.57513H12.8081C11.9658 1.57513 11.2809 2.26002 11.2809 3.10217V12.5177V12.7157L11.4597 12.6306C13.8569 11.4893 16.5372 10.8494 19.3645 10.8494C22.1918 10.8494 24.8719 11.4893 27.2693 12.6306L27.448 12.7157V12.5177V7.77289C27.448 7.37236 27.7727 7.04782 28.1731 7.04782C28.5735 7.04782 28.8982 7.37236 28.8982 7.77289V9.3038V9.4288H29.0232H30.239C31.5958 9.4288 32.6998 10.5328 32.6998 11.8896V16.5103V16.5603L32.7342 16.5965C35.1726 19.1609 36.883 22.4232 37.5308 26.0488ZM31.0453 15.0279L31.2495 15.1954V14.9312V11.8895C31.2495 11.3322 30.7963 10.8788 30.2389 10.8788H29.0232H29.023H28.898V11.0038V13.4381V13.5082L28.9579 13.5447C29.6886 13.9912 30.3858 14.4873 31.0453 15.0279ZM9.8308 11.0038V10.8788H9.7058H8.4901C7.93267 10.8788 7.47933 11.3322 7.47933 11.8896V14.9313V15.1954L7.68357 15.028C8.34312 14.4874 9.04035 13.9913 9.77098 13.5448L9.8308 13.5083V13.4382V11.0038ZM9.7058 47.7273H9.8308V47.6023V45.1681V45.098L9.77098 45.0614C9.04023 44.6149 8.34301 44.1189 7.68358 43.5782L7.47933 43.4108V43.6749V46.7168C7.47933 47.2741 7.93256 47.7273 8.48998 47.7273H9.7058ZM28.8982 47.6023V47.7273H29.0232H30.2389C30.7964 47.7273 31.2496 47.2741 31.2496 46.7167V43.6748V43.4107L31.0454 43.5781C30.3858 44.1188 29.6886 44.6148 28.958 45.0613L28.8982 45.0979V45.168V47.6023ZM37.7932 30.2665L37.7864 30.3979H37.918H39.0338C39.3675 30.3979 39.6389 30.1266 39.6389 29.7929V28.2069C39.6389 27.8732 39.3675 27.6019 39.0338 27.6019H37.8756H37.7396L37.7511 27.7374C37.7947 28.2538 37.8182 28.7757 37.8182 29.3029C37.8182 29.6261 37.8096 29.9473 37.7932 30.2665ZM2.36091 29.303C2.36091 38.6789 9.98858 46.3066 19.3645 46.3066C28.7404 46.3066 36.3681 38.6789 36.3681 29.303C36.3681 19.9272 28.7404 12.2996 19.3645 12.2996C9.98858 12.2996 2.36091 19.9272 2.36091 29.303Z" fill="#B9B9B9" stroke="#B9B9B9" stroke-width="0.25"/>
</svg>
