<svg width="91" height="31" viewBox="0 0 91 31" fill="none" xmlns="http://www.w3.org/2000/svg">
<path d="M65.7059 2.35391H65.6471V2.41273V5.83482V5.89364H65.7059H65.9843H66.0431V5.83482V4.20944H68.0657V5.83482V5.89364H68.1246H68.3967H68.4556V5.83482V2.41273V2.35391H68.3967H68.1246H68.0657V2.41273V3.84352H66.0369V2.41273V2.35391H65.9781H65.7059Z" fill="#B9B9B9" stroke="#B9B9B9" stroke-width="0.117647"/>
<path d="M70.809 2.30751C70.2612 2.30756 69.8378 2.51201 69.5521 2.84467C69.2674 3.17622 69.1235 3.6303 69.1235 4.12434C69.1235 4.62554 69.2738 5.07945 69.5567 5.40903C69.8405 5.73959 70.2545 5.94117 70.772 5.94117C71.3394 5.94117 71.7617 5.72081 72.041 5.37675C72.3189 5.03431 72.4515 4.574 72.4515 4.0975C72.4515 3.58598 72.2964 3.13677 72.0115 2.81545C71.7259 2.4934 71.3135 2.30409 70.809 2.30751ZM70.809 2.30751C70.8089 2.30751 70.8088 2.30751 70.8087 2.30751L70.8092 2.36633V2.30751C70.8091 2.30751 70.809 2.30751 70.809 2.30751ZM70.7906 5.58197C70.3798 5.58197 70.0687 5.40489 69.859 5.13422C69.648 4.86205 69.538 4.49296 69.538 4.11092C69.538 3.73091 69.6363 3.36901 69.842 3.10355C70.046 2.8401 70.3595 2.66671 70.803 2.66671C71.2151 2.66671 71.5228 2.83312 71.7288 3.09314C71.9361 3.35475 72.0432 3.71501 72.0432 4.10421C72.0432 4.50182 71.9476 4.87218 71.7449 5.1416C71.544 5.40872 71.2339 5.58197 70.7906 5.58197Z" fill="#B9B9B9" stroke="#B9B9B9" stroke-width="0.117647"/>
<path d="M73.1783 2.3545H73.1194V2.41333V5.83541V5.89423H73.1783H75.3185H75.3665L75.3762 5.84721L75.4257 5.60565L75.4401 5.53503H75.368H73.5093V2.41333V2.3545H73.4504H73.1783Z" fill="#B9B9B9" stroke="#B9B9B9" stroke-width="0.117647"/>
<path d="M75.9186 2.3545H75.8598V2.41333V5.83541V5.89423H75.9186H77.0939C77.6097 5.89423 78.0416 5.70913 78.3444 5.38938C78.647 5.06995 78.8168 4.62028 78.8168 4.09753C78.8168 3.57089 78.642 3.13414 78.3372 2.82888C78.0324 2.52367 77.6023 2.3545 77.1001 2.3545H75.9186ZM77.0568 5.52831H76.2558V2.71371H77.0568C77.5334 2.71371 77.8673 2.8821 78.0829 3.13584C78.2998 3.39107 78.4022 3.7387 78.4022 4.10424C78.4022 4.51676 78.289 4.87228 78.0674 5.12385C77.8467 5.3743 77.5128 5.52831 77.0568 5.52831Z" fill="#B9B9B9" stroke="#B9B9B9" stroke-width="0.117647"/>
<path d="M79.8809 2.41333V2.3545H79.8221H79.5499H79.4911V2.41333V5.83541V5.89423H79.5499H79.8221H79.8809V5.83541V2.41333Z" fill="#B9B9B9" stroke="#B9B9B9" stroke-width="0.117647"/>
<path d="M80.8086 5.83541V5.89423H80.8675H81.1458H81.2046V5.83541V4.24515C81.2046 4.1381 81.2048 4.03471 81.205 3.93458C81.2057 3.53705 81.2063 3.19106 81.195 2.87228C81.3575 3.11518 81.6324 3.52782 81.9345 3.98128C82.3897 4.66463 82.9067 5.44068 83.194 5.86821L83.2115 5.89423H83.2428H83.6202H83.679V5.83541V2.41333V2.3545H83.6202H83.3418H83.283V2.41333V3.96333C83.283 4.04367 83.2828 4.12297 83.2827 4.20135C83.2821 4.58705 83.2815 4.95057 83.2966 5.30748C82.9468 4.76417 82.0551 3.45394 81.5136 2.65832C81.4441 2.55626 81.3804 2.46267 81.3244 2.38025L81.3069 2.3545H81.2757H80.8675H80.8086V2.41333V5.83541Z" fill="#B9B9B9" stroke="#B9B9B9" stroke-width="0.117647"/>
<path d="M87.0925 5.86004L87.1083 5.89424H87.146H87.3748H87.3872H87.446V5.83542V4.02373V3.9649H87.3872H85.9707H85.9118V4.02373V4.26528V4.32411H85.9707H87.0624C87.0603 4.69052 86.9966 4.99707 86.8359 5.21226C86.6752 5.42751 86.4091 5.56187 85.9768 5.56187C85.5587 5.56187 85.2609 5.39403 85.0658 5.13491C84.8692 4.87365 84.7738 4.51488 84.7738 4.13108C84.7738 3.70653 84.874 3.33835 85.0768 3.07768C85.278 2.81913 85.5849 2.66004 86.014 2.66004C86.3141 2.66004 86.544 2.72993 86.7166 2.85367C86.889 2.97732 87.0094 3.15854 87.0838 3.39079L87.0968 3.43168H87.1398H87.412H87.4821L87.4699 3.36263C87.4117 3.03327 87.2479 2.76467 86.9969 2.57908C86.7466 2.39393 86.4134 2.29412 86.0201 2.29412C85.4817 2.29412 85.0626 2.49348 84.7791 2.82823C84.4966 3.16175 84.353 3.62428 84.353 4.1445C84.353 4.64078 84.4855 5.08651 84.7548 5.40928C85.0254 5.73348 85.4292 5.92779 85.9583 5.92779C86.3391 5.92779 86.6058 5.83815 86.7954 5.71441C86.9075 5.64119 86.9911 5.55706 87.0547 5.47518C87.0573 5.55472 87.0604 5.62114 87.0641 5.67503C87.0672 5.72099 87.0708 5.75864 87.075 5.7879C87.0788 5.81502 87.0839 5.8413 87.0925 5.86004Z" fill="#B9B9B9" stroke="#B9B9B9" stroke-width="0.117647"/>
<path d="M82.4434 29.4734H46.337L36.6257 19.762C36.6257 20.426 36.6257 20.509 36.6257 23.4971C36.6257 26.4853 34.8826 29.4734 28.6573 29.4734C22.4321 29.4734 14.5635 29.4734 8.98565 29.4734C1.76429 29.4734 0.851259 23.8292 1.01727 21.007V0.837248H9.98162C10.6657 0.837248 11.1281 0.837248 11.1281 0.837248C11.1281 0.837248 11.2071 18.7162 11.129 19.513C11.0508 20.3098 11.8256 20.509 12.2227 20.509C16.2069 20.509 24.8479 20.509 25.6692 20.509C26.7797 20.509 26.6653 19.762 26.6653 19.513C26.6653 14.1178 26.6653 0.588246 26.6653 0.588246L27.6613 0.588238C29.9024 0.588238 34.6336 0.588238 35.6296 0.588238C36.6257 0.588238 37.1237 0.588256 37.1237 0.588256V7.80952L45.839 0.588238C48.8271 0.588238 53.8275 0.588238 54.8235 0.588238C55.8196 0.588238 56.8823 0.588234 57.3136 0.588234L42.8509 14.2838L55.9278 23.4971" stroke="#B9B9B9" stroke-width="1.17647"/>
<path d="M60.7059 26.4706C60.7059 26.4706 58.1058 26.2469 55.3667 23.7568L55.3666 22.3529C56.1137 22.851 55.345 21.947 56.5882 23.5294C57.8314 25.1119 60.7059 26.4706 60.7059 26.4706Z" fill="#B9B9B9"/>
<path fill-rule="evenodd" clip-rule="evenodd" d="M56.2941 7.16004V7.15949L56.2942 7.15842C56.2946 7.15001 56.2954 7.13572 56.2969 7.11595C56.2998 7.07639 56.3052 7.01502 56.3148 6.93496C56.3342 6.77465 56.3704 6.54062 56.4376 6.25764C56.5725 5.68986 56.8293 4.93661 57.3145 4.18696C58.2633 2.72125 60.1428 1.17647 63.9818 1.17647H64.0292H64.0768H64.1246H64.1726H64.2209H64.2694H64.3182H64.3671H64.4163H64.4658H64.5154H64.5652H64.6153H64.6656H64.7161H64.7669H64.8178H64.869H64.9203H64.9719H65.0237H65.0757H65.1279H65.1804H65.233H65.2858H65.3388H65.392H65.4455H65.4991H65.5529H65.6069H65.6611H65.7155H65.7701H65.8249H65.8799H65.9351H65.9904H66.046H66.1017H66.1576H66.2137H66.2699H66.3264H66.383H66.4398H66.4968H66.5539H66.6112H66.6687H66.7264H66.7842H66.8422H66.9004H66.9587H67.0172H67.0759H67.1347H67.1937H67.2528H67.3121H67.3715H67.4311H67.4909H67.5508H67.6109H67.6711H67.7314H67.7919H67.8526H67.9134H67.9743H68.0354H68.0966H68.158H68.2195H68.2811H68.3429H68.4048H68.4668H68.529H68.5913H68.6537H68.7163H68.779H68.8418H68.9047H68.9678H69.031H69.0943H69.1577H69.2212H69.2849H69.3486H69.4125H69.4765H69.5406H69.6048H69.6691H69.7336H69.7981H69.8627H69.9275H69.9923H70.0573H70.1223H70.1875H70.2527H70.3181H70.3835H70.449H70.5146H70.5804H70.6462H70.712H70.778H70.8441H70.9102H70.9764H71.0428H71.1091H71.1756H71.2422H71.3088H71.3755H71.4423H71.5091H71.576H71.643H71.7101H71.7772H71.8444H71.9116H71.979H72.0463H72.1138H72.1813H72.2489H72.3165H72.3842H72.4519H72.5197H72.5875H72.6554H72.7233H72.7913H72.8594H72.9274H72.9956H73.0637H73.1319H73.2002H73.2685H73.3368H73.4052H73.4736H73.542H73.6105H73.679H73.7475H73.8161H73.8847H73.9533H74.0219H74.0906H74.1593H74.228H74.2967H74.3655H74.4343H74.503H74.5718H74.6407H74.7095H74.7783H74.8472H74.916H74.9849H75.0538H75.1226H75.1915H75.2604H75.3293H75.3982H75.467H75.5359H75.6048H75.6737H75.7425H75.8114H75.8802H75.9491H76.0179H76.0867H76.1555H76.2243H76.293H76.3618H76.4305H76.4992H76.5679H76.6366H76.7052H76.7738H76.8424H76.911H76.9795H77.048H77.1165H77.1849H77.2533H77.3216H77.39H77.4583H77.5265H77.5947H77.6629H77.731H77.7991H77.8671H77.9351H78.003H78.0709H78.1387H78.2065H78.2742H78.3419H78.4095H78.477H78.5445H78.612H78.6793H78.7466H78.8139H78.8811H78.9482H79.0152H79.0822H79.1491H79.2159H79.2827H79.3494H79.416H79.4825H79.549H79.6154H79.6817H79.7479H79.814H79.8801H79.946H80.0119H80.0777H80.1434H80.209H80.2745H80.3399H80.4052H80.4705H80.5356H80.6006H80.6656H80.7304H80.7951H80.8597H80.9243H80.9887H81.053H81.1172H81.1813H81.2452H81.3091H81.3728H81.4365H81.5H81.5634H81.6267H81.6898H81.7529H81.8158H81.8786H81.9412H82.0038H82.0662H82.1285H82.1906H82.2526H82.3145H82.3762H82.4379H82.4993H82.5607H82.6219H82.6829H82.7438H82.8046H82.8652H82.9257H82.9861H83.0462H83.1063H83.1662H83.2259H83.2855H83.3449H83.4042H83.4633H83.5222H83.581H83.6396H83.6981H83.7564H83.8146H83.8725H83.9303H83.988H84.0454H84.1027H84.1598H84.2168H84.2736H84.3301H84.3866H84.4428H84.4989H84.5547H84.6104H84.6659H84.7212H84.7764H84.8313H84.8861H84.9406H84.995H85.0492H85.1032H85.157H85.2106H85.2639H85.3171H85.3701H85.4229H85.4755H85.5279H85.5801H85.632H85.6838H85.7353H85.7867H85.8378H85.8887H85.9394H85.9899H86.0401H86.0902H86.14H86.1896H86.239H86.2881H86.3371H86.3858H86.4342H86.4825H86.5305H86.5783H86.6258H86.6732H86.7202H86.7671H86.8137H86.86H86.9062H86.9521H86.9977H87.0431H87.0882H87.1331H87.1778H87.2222H87.2663H87.3102H87.3539H87.3973H87.4404H87.4833H87.5259H87.5683H87.6104H87.6522H87.6938H87.7351H87.7761H87.8169H87.8574H87.8976H87.9376H87.9773H88.0167H88.0559H88.0947H88.1333H88.1716H88.2096H88.2474H88.2849H88.322H88.3589H88.3955H88.4318H88.4679H88.5036H88.5391H88.5742H88.6091H88.6436H88.6779H88.7119H88.7455H88.7789H88.812H88.8447H88.8772H88.9093H88.9412H88.9727H89.0039H89.0348H89.0654H89.0957H89.1257H89.1554H89.1847H89.2137H89.2424H89.2708H89.2989H89.3266H89.354H89.3811H89.4078H89.4342H89.4603H89.4861H89.5115H89.5366H89.5614H89.5858H89.6099H89.6336H89.657H89.6801H89.7028H89.7252H89.7472H89.7689H89.7902H89.8016V6.90901H65.4878C65.4673 6.90694 65.4408 6.90462 65.4092 6.90256C65.3398 6.89804 65.2442 6.89469 65.1308 6.89835C64.908 6.90555 64.596 6.94038 64.274 7.06121C63.9477 7.18364 63.5978 7.40007 63.3352 7.77392C63.0719 8.14869 62.931 8.63237 62.9383 9.22822C62.9382 9.48358 62.9316 12.4558 62.9249 15.3731L62.9157 19.3754L62.9127 20.6841L62.9118 21.0497L62.9116 21.146L62.9115 21.1706L62.9115 21.1769L62.9115 21.1784L62.9115 21.1788C62.9115 21.1789 62.9115 21.179 63.4997 21.1803L62.9115 21.179L62.9111 21.3311L62.9846 21.4643L63.4997 21.1803C62.9846 21.4643 62.9847 21.4646 62.9849 21.4648L62.9852 21.4653L62.9858 21.4664L62.9871 21.4689L62.9906 21.4749L63 21.4912C63.0075 21.5038 63.0173 21.5199 63.0296 21.5391C63.0542 21.5775 63.0887 21.6284 63.1335 21.6875C63.2227 21.8052 63.3557 21.9594 63.5363 22.1135C63.9008 22.4246 64.4666 22.7401 65.2406 22.7401H80.1856H80.7418C80.762 22.7422 80.7881 22.7445 80.8193 22.7467C80.8881 22.7515 80.9832 22.7554 81.0961 22.7531C81.3178 22.7486 81.6286 22.7196 81.9497 22.6117C82.2731 22.5031 82.63 22.3062 82.9019 21.9527C83.1781 21.5938 83.3264 21.1258 83.3181 20.5511C83.3048 19.6257 83.3048 18.301 83.3081 17.2047C83.3098 16.6572 83.3123 16.1678 83.3144 15.8152L83.3171 15.399L83.3179 15.2865L83.3181 15.2573L83.3181 15.2499L83.3181 15.2481L83.3182 15.2476L83.3182 15.2475L82.7299 15.2429L83.3182 15.2475L83.3228 14.6532L82.7285 14.6547L72.3104 14.6802V10.6224H89.7749V21.4772V21.5206L89.7811 21.5624L89.7811 21.5627L89.7812 21.5631L89.7812 21.5636L89.7813 21.5641L89.7828 21.5756C89.7836 21.5814 89.7846 21.5891 89.7857 21.5985C89.7868 21.6076 89.788 21.6182 89.7893 21.6305C89.7948 21.6806 89.8022 21.7572 89.8087 21.8565C89.8217 22.0553 89.831 22.3432 89.8152 22.6902C89.7834 23.3877 89.6509 24.3039 89.2576 25.2104C88.8672 26.1106 88.2201 27.002 87.1472 27.6733C86.0716 28.3463 84.527 28.8235 82.3014 28.8235L66.8824 28.8235L65.1393 28.8235H65.1391H65.1389H65.1386H65.1384H65.1382H65.1379H65.1376H65.1373H65.1369H65.1365H65.1361H65.1357H65.1352H65.1347H65.1342H65.1338H65.1336H65.1333H65.1331H65.1328H65.1324H65.1322H65.1318H65.1316H65.1311H65.1304H65.1297H65.1289H65.1283H65.1281H65.1276H65.1272H65.1268H65.1264H65.1261H65.1255H65.1253H65.1245H65.1236H65.1228H65.1226H65.122H65.1216H65.1211H65.1205H65.1202H65.1194H65.1192H65.1183H65.1173H65.1171H65.1164H65.1159H65.1154H65.1147H65.1143H65.1134H65.1121H65.1112H65.1108H65.1101H65.1094H65.109H65.108H65.1079H65.1066H65.1055H65.1051H65.1044H65.1036H65.1032H65.1021H65.1007H65.1005H65.0995H65.0989H65.0982H65.0972H65.097H65.0956H65.0944H65.0938H65.0931H65.0921H65.0917H65.0903H65.089H65.0885H65.0876H65.0866H65.0862H65.0848H65.0847H65.0834H65.0827H65.082H65.0808H65.0805H65.079H65.0787H65.0776H65.0767H65.0761H65.0746H65.0731H65.0725H65.0715H65.0703H65.07H65.0684H65.0681H65.0669H65.0658H65.0653H65.0637H65.0635H65.0621H65.0612H65.0605H65.0589H65.0572H65.0565H65.0556H65.054H65.0523H65.0515H65.0506H65.049H65.0472H65.0464H65.0455H65.0438H65.0421H65.0412H65.0404H65.0385H65.0369H65.0358H65.0351H65.0333H65.033H65.0316H65.0302H65.0298H65.028H65.0273H65.0262H65.0245H65.0226H65.0215H65.0207H65.0189H65.0185H65.0171H65.0155H65.0152H65.0134H65.0125H65.0115H65.0097H65.0094H65.0078H65.0062H65.0059H65.0041H65.003H65.0022H65.0003H64.9998H64.9984H64.9965H64.9946H64.9932H64.9927H64.9908H64.9898H64.9889H64.9869H64.9864H64.985H64.983H64.9812H64.9795H64.9792H64.9773H64.9759H64.9753H64.9734H64.9724H64.9715H64.9695H64.9687H64.9676H64.9656H64.9651H64.9636H64.9617H64.9613H64.9597H64.9578H64.9576H64.9558H64.9538H64.9519H64.9499H64.948H64.946C64.9433 28.8235 64.9405 28.8235 64.9378 28.8235H59.2205C60.6941 29.5575 62.5444 29.976 64.7527 29.999L64.7527 30H64.7528H64.7528H64.7528H64.7529H64.7529H64.753H64.753H64.7531H64.7532H64.7532H64.7533H64.7534H64.7535H64.7536H64.7537H64.7539H64.754H64.7541H64.7542H64.7544H64.7545H64.7548H64.7548H64.7551H64.7552H64.7555H64.7555H64.7559H64.7559H64.7563H64.7568H64.7568H64.7572H64.7573H64.7577H64.7578H64.7582H64.7584H64.7587H64.759H64.7593H64.7596H64.7598H64.7602H64.7604H64.7609H64.761H64.7616H64.7617H64.7623H64.7624H64.763H64.7631H64.7637H64.764H64.7644H64.7648H64.7652H64.7657H64.766H64.7666H64.7667H64.7675H64.7675H64.7684H64.7684H64.7692H64.7694H64.7701H64.7705H64.771H64.7715H64.7719H64.7726H64.7728H64.7737H64.7738H64.7747H64.7749H64.7757H64.7761H64.7767H64.7773H64.7777H64.7786H64.7787H64.7798H64.7799H64.7809H64.7812H64.7819H64.7826H64.7831H64.784H64.7842H64.7853H64.7854H64.7865H64.7869H64.7877H64.7884H64.7889H64.79H64.7901H64.7913H64.7915H64.7925H64.7931H64.7938H64.7948H64.7951H64.7964H64.7965H64.7977H64.7982H64.799H64.8H64.8003H64.8017H64.8017H64.803H64.8036H64.8044H64.8054H64.8058H64.8072H64.8074H64.8086H64.8093H64.8101H64.8113H64.8115H64.813H64.8133H64.8145H64.8153H64.8159H64.8175H64.819H64.8196H64.8205H64.8217H64.822H64.8236H64.8239H64.8252H64.8262H64.8267H64.8283H64.8285H64.8299H64.8308H64.8315H64.8331H64.8332H64.8348H64.8356H64.8364H64.838H64.8381H64.8397H64.8405H64.8414H64.843H64.8431H64.8448H64.8456H64.8465H64.8482H64.8482H64.8499H64.8508H64.8517H64.8534H64.8535H64.8552H64.8563H64.8569H64.8587H64.859H64.8605H64.8618H64.8623H64.864H64.8647H64.8658H64.8676H64.8677H64.8695H64.8705H64.8713H64.8731H64.8735H64.875H64.8765H64.8768H64.8786H64.8796H64.8805H64.8824H64.8827H64.8842H64.8858H64.8861H64.888H64.889H64.8899H64.8917H64.8922H64.8936H64.8955H64.8955H64.8974H64.8988H64.8994H64.9013H64.9022H64.9032H64.9051H64.9056H64.907H64.9089H64.9091H64.9109H64.9125H64.9128H64.9148H64.9161H64.9167H64.9186H64.9197H64.9206H64.9225H64.9233H64.9245H64.9264H64.927H64.9284H64.9303H64.9307H64.9323H64.9343H64.9345H64.9362H64.9382H64.9383H64.9401H64.9421H64.9421H64.9441H64.946H64.948H64.9499H64.9519H64.9539H64.9558H64.9576H64.9578H64.9597H64.9613H64.9617H64.9636H64.9651H64.9656H64.9676H64.9687H64.9695H64.9715H64.9724H64.9734H64.9753H64.9759H64.9773H64.9792H64.9795H64.9812H64.9831H64.985H64.9864H64.9869H64.9889H64.9898H64.9908H64.9927H64.9932H64.9946H64.9965H64.9984H64.9998H65.0003H65.0022H65.003H65.0041H65.0059H65.0062H65.0078H65.0094H65.0097H65.0115H65.0125H65.0134H65.0152H65.0155H65.0171H65.0185H65.0189H65.0207H65.0215H65.0226H65.0244H65.0262H65.0273H65.028H65.0298H65.0302H65.0316H65.033H65.0333H65.0351H65.0358H65.0369H65.0386H65.0404H65.0412H65.0421H65.0438H65.0455H65.0464H65.0472H65.0489H65.0506H65.0515H65.0523H65.054H65.0556H65.0565H65.0572H65.0589H65.0605H65.0612H65.0621H65.0635H65.0637H65.0653H65.0658H65.0669H65.0681H65.0684H65.07H65.0703H65.0715H65.0725H65.0731H65.0746H65.0761H65.0767H65.0776H65.0787H65.079H65.0805H65.0808H65.082H65.0827H65.0834H65.0847H65.0848H65.0862H65.0866H65.0876H65.0885H65.089H65.0904H65.0917H65.0921H65.0931H65.0938H65.0944H65.0957H65.097H65.0972H65.0982H65.0989H65.0995H65.1005H65.1007H65.102H65.1032H65.1036H65.1044H65.1051H65.1055H65.1067H65.1079H65.108H65.109H65.1094H65.1101H65.1108H65.1112H65.1122H65.1133H65.1143H65.1147H65.1154H65.1159H65.1164H65.1171H65.1173H65.1183H65.1192H65.1194H65.1202H65.1205H65.1211H65.1216H65.122H65.1226H65.1228H65.1237H65.1245H65.1253H65.1255H65.1261H65.1264H65.1268H65.1272H65.1276H65.1281H65.1283H65.129H65.1297H65.1303H65.131H65.1316H65.1318H65.1322H65.1324H65.1328H65.1331H65.1333H65.1336H65.1338H65.1343H65.1348H65.1353H65.1357H65.1361H65.1365H65.1369H65.1372H65.1375H65.1378H65.1381H65.1383H65.1385H65.1387H65.1389H65.139H65.1392H82.3014C84.6958 30 86.469 29.4854 87.7712 28.6707C89.0762 27.8542 89.867 26.762 90.337 25.6786C90.8041 24.6015 90.9545 23.534 90.9905 22.7438C91.0086 22.3469 90.998 22.0149 90.9827 21.7798C90.975 21.6621 90.966 21.5682 90.9588 21.5022L90.9542 21.4619L90.9513 21.4383V10.0341V9.44591H90.3631H71.7221H71.1339V10.0341V15.2699V15.8596L71.7236 15.8581L82.1378 15.8326C82.1357 16.184 82.1333 16.6647 82.1317 17.2011C82.1283 18.2976 82.1283 19.6313 82.1418 20.5681C82.1469 20.9245 82.0574 21.1211 81.9696 21.2353C81.8774 21.355 81.7438 21.4398 81.5751 21.4965C81.4041 21.5539 81.2211 21.5738 81.072 21.5769C80.9995 21.5784 80.9399 21.5758 80.9004 21.573C80.8897 21.5723 80.8806 21.5715 80.8732 21.5709L80.8584 21.5695L80.8524 21.5688L80.8515 21.5687L80.8513 21.5687L80.8511 21.5687L80.8146 21.5637H80.7748H80.1856H65.2406C64.8094 21.5637 64.5048 21.3934 64.3001 21.2187C64.2078 21.1399 64.1373 21.061 64.0884 20.9992L64.0891 20.6868L64.0922 19.3781L64.1014 15.3758C64.1081 12.445 64.1148 9.45479 64.1148 9.2245H64.1148L64.1147 9.21661C64.1093 8.81581 64.2027 8.58567 64.2979 8.45022C64.3943 8.31298 64.5281 8.22242 64.6873 8.16268C64.8508 8.10134 65.0258 8.07883 65.1688 8.07421C65.2383 8.07197 65.2952 8.0741 65.3327 8.07654C65.3513 8.07775 65.3647 8.07902 65.3721 8.07978L65.3777 8.08039L65.4145 8.08548H65.4549H90.3899H90.9781V7.49725V0.588235V0H90.3899V0.588235C90.3899 0 90.3898 0 90.3897 0H90.389H90.388H90.3865H90.3846H90.3824H90.3797H90.3765H90.373H90.3691H90.3647H90.36H90.3549H90.3493H90.3433H90.337H90.3302H90.3231H90.3155H90.3076H90.2993H90.2905H90.2814H90.2719H90.262H90.2517H90.241H90.2299H90.2185H90.2067H90.1945H90.1819H90.1689H90.1555H90.1418H90.1277H90.1132H90.0984H90.0832H90.0676H90.0516H90.0353H90.0186H90.0016H89.9841H89.9664H89.9482H89.9297H89.9109H89.8916H89.8721H89.8521H89.8319H89.8112H89.7902H89.7689H89.7472H89.7252H89.7028H89.6801H89.657H89.6336H89.6099H89.5858H89.5614H89.5366H89.5115H89.4861H89.4603H89.4342H89.4078H89.3811H89.354H89.3266H89.2989H89.2708H89.2424H89.2137H89.1847H89.1554H89.1257H89.0957H89.0654H89.0348H89.0039H88.9727H88.9412H88.9093H88.8772H88.8447H88.812H88.7789H88.7455H88.7119H88.6779H88.6436H88.6091H88.5742H88.5391H88.5036H88.4679H88.4318H88.3955H88.3589H88.322H88.2849H88.2474H88.2096H88.1716H88.1333H88.0947H88.0559H88.0167H87.9773H87.9376H87.8976H87.8574H87.8169H87.7761H87.7351H87.6938H87.6522H87.6104H87.5683H87.5259H87.4833H87.4404H87.3973H87.3539H87.3102H87.2663H87.2222H87.1778H87.1331H87.0882H87.0431H86.9977H86.9521H86.9062H86.86H86.8137H86.7671H86.7202H86.6732H86.6258H86.5783H86.5305H86.4825H86.4342H86.3858H86.3371H86.2881H86.239H86.1896H86.14H86.0902H86.0401H85.9899H85.9394H85.8887H85.8378H85.7867H85.7353H85.6838H85.632H85.5801H85.5279H85.4755H85.4229H85.3701H85.3171H85.2639H85.2106H85.157H85.1032H85.0492H84.995H84.9406H84.8861H84.8313H84.7764H84.7212H84.6659H84.6104H84.5547H84.4989H84.4428H84.3866H84.3301H84.2736H84.2168H84.1598H84.1027H84.0454H83.988H83.9303H83.8725H83.8146H83.7564H83.6981H83.6396H83.581H83.5222H83.4633H83.4042H83.3449H83.2855H83.2259H83.1662H83.1063H83.0462H82.9861H82.9257H82.8652H82.8046H82.7438H82.6829H82.6219H82.5607H82.4993H82.4379H82.3762H82.3145H82.2526H82.1906H82.1285H82.0662H82.0038H81.9412H81.8786H81.8158H81.7529H81.6898H81.6267H81.5634H81.5H81.4365H81.3728H81.3091H81.2452H81.1813H81.1172H81.053H80.9887H80.9243H80.8597H80.7951H80.7304H80.6656H80.6006H80.5356H80.4705H80.4052H80.3399H80.2745H80.209H80.1434H80.0777H80.0119H79.946H79.8801H79.814H79.7479H79.6817H79.6154H79.549H79.4825H79.416H79.3494H79.2827H79.2159H79.1491H79.0822H79.0152H78.9482H78.8811H78.8139H78.7466H78.6793H78.612H78.5445H78.477H78.4095H78.3419H78.2742H78.2065H78.1387H78.0709H78.003H77.9351H77.8671H77.7991H77.731H77.6629H77.5947H77.5265H77.4583H77.39H77.3216H77.2533H77.1849H77.1165H77.048H76.9795H76.911H76.8424H76.7738H76.7052H76.6366H76.5679H76.4992H76.4305H76.3618H76.293H76.2243H76.1555H76.0867H76.0179H75.9491H75.8802H75.8114H75.7425H75.6737H75.6048H75.5359H75.467H75.3982H75.3293H75.2604H75.1915H75.1226H75.0538H74.9849H74.916H74.8472H74.7783H74.7095H74.6407H74.5718H74.503H74.4343H74.3655H74.2967H74.228H74.1593H74.0906H74.0219H73.9533H73.8847H73.8161H73.7475H73.679H73.6105H73.542H73.4736H73.4052H73.3368H73.2685H73.2002H73.1319H73.0637H72.9956H72.9274H72.8594H72.7913H72.7233H72.6554H72.5875H72.5197H72.4519H72.3842H72.3165H72.2489H72.1813H72.1138H72.0463H71.979H71.9116H71.8444H71.7772H71.7101H71.643H71.576H71.5091H71.4423H71.3755H71.3088H71.2422H71.1756H71.1091H71.0428H70.9764H70.9102H70.8441H70.778H70.712H70.6462H70.5804H70.5146H70.449H70.3835H70.3181H70.2527H70.1875H70.1223H70.0573H69.9923H69.9275H69.8627H69.7981H69.7336H69.6691H69.6048H69.5406H69.4765H69.4125H69.3486H69.2849H69.2212H69.1577H69.0943H69.031H68.9678H68.9047H68.8418H68.779H68.7163H68.6537H68.5913H68.529H68.4668H68.4048H68.3429H68.2811H68.2195H68.158H68.0966H68.0354H67.9743H67.9134H67.8526H67.7919H67.7314H67.6711H67.6109H67.5508H67.4909H67.4311H67.3715H67.3121H67.2528H67.1937H67.1347H67.0759H67.0172H66.9587H66.9004H66.8422H66.7842H66.7264H66.6687H66.6112H66.5539H66.4968H66.4398H66.383H66.3264H66.2699H66.2137H66.1576H66.1017H66.046H65.9904H65.9351H65.8799H65.8249H65.7701H65.7155H65.6611H65.6069H65.5529H65.4991H65.4455H65.392H65.3388H65.2858H65.233H65.1804H65.1279H65.0757H65.0237H64.9719H64.9203H64.869H64.8178H64.7669H64.7161H64.6656H64.6153H64.5652H64.5154H64.4658H64.4163H64.3671H64.3182H64.2694H64.2209H64.1726H64.1246H64.0768H64.0292H63.9818C59.7592 0 57.5007 1.7343 56.3269 3.54767C55.7509 4.43756 55.4502 5.32385 55.293 5.98573C55.2142 6.31757 55.1707 6.59591 55.1468 6.79424C55.1349 6.89351 55.1278 6.97303 55.1236 7.02954C55.1215 7.05781 55.1202 7.08034 55.1193 7.09675L55.1184 7.11671L55.1181 7.12315L55.118 7.12547L55.118 7.12641C55.118 7.12681 55.118 7.12719 55.7059 7.1464L55.118 7.12719L55.1176 7.13679V7.1464H55.7059C55.1176 7.1464 55.1176 7.14644 55.1176 7.14651V7.14685V7.14742V7.14821V7.14923V7.15048V7.15194V7.15364V7.15555V7.15768V7.16004V7.16262V7.16542V7.16843V7.17167V7.17512V7.1788V7.18268V7.18679V7.19111V7.19564V7.20039V7.20535V7.21053V7.21592V7.22151V7.22732V7.23334V7.23957V7.24601V7.25266V7.25951V7.26657V7.27384V7.28131V7.28899V7.29687V7.30495V7.31324V7.32173V7.33043V7.33932V7.34841V7.3577V7.3672V7.37689V7.38678V7.39686V7.40714V7.41762V7.42829V7.43916V7.45022V7.46147V7.47292V7.48456V7.49639V7.5084V7.52061V7.53301V7.5456V7.55837V7.57134V7.58448V7.59782V7.61134V7.62504V7.63893V7.653V7.66725V7.68169V7.69631V7.7111V7.72608V7.74124V7.75657V7.77208V7.78777V7.80364V7.81968V7.8359V7.8523V7.86886V7.8856V7.90252V7.9196V7.93686V7.95429V7.97188V7.98965V8.00759V8.02569V8.04396V8.0624V8.081V8.09977V8.11871V8.1378V8.15707V8.17649V8.19608V8.21583V8.23574V8.25581V8.27603V8.29642V8.31697V8.33767V8.35853V8.37955V8.40072V8.42205V8.44353V8.46517V8.48696V8.5089V8.53099V8.55323V8.57563V8.59817V8.62086V8.6437V8.66669V8.68983V8.71311V8.73654V8.76011V8.78383V8.80769V8.83169V8.85584V8.88013V8.90456V8.92913V8.95384V8.97869V9.00368V9.0288V9.05406V9.07946V9.105V9.13067V9.15648V9.18241V9.20849V9.23469V9.26103V9.28749V9.31409V9.34082V9.36768V9.39467V9.42178V9.44902V9.47639V9.50389V9.53151V9.55925V9.58712V9.61511V9.64322V9.67146V9.69982V9.7283V9.7569V9.78562V9.81445V9.84341V9.87248V9.90167V9.93098V9.9604V9.98994V10.0196V10.0493V10.0792V10.1092V10.1393V10.1695V10.1998V10.2303V10.2608V10.2915V10.3222V10.3531V10.3841V10.4151V10.4463V10.4776V10.509V10.5405V10.5721V10.6038V10.6356V10.6675V10.6995V10.7315V10.7637V10.796V10.8284V10.8609V10.8935V10.9262V10.9589V10.9918V11.0248V11.0578V11.0909V11.1242V11.1575V11.1909V11.2244V11.258V11.2917V11.3255V11.3593V11.3932V11.4273V11.4614V11.4956V11.5298V11.5642V11.5986V11.6332V11.6678V11.7024V11.7372V11.772V11.807V11.842V11.877V11.9122V11.9474V11.9827V12.0181V12.0535V12.089V12.1246V12.1603V12.196V12.2318V12.2677V12.3036V12.3396V12.3757V12.4119V12.4481V12.4844V12.5207V12.5571V12.5936V12.6301V12.6667V12.7033V12.7401V12.7768V12.8137V12.8506V12.8875V12.9245V12.9616V12.9987V13.0359V13.0731V13.1104V13.1478V13.1852V13.2226V13.2601V13.2977V13.3353V13.3729V13.4106V13.4484V13.4862V13.524V13.5619V13.5998V13.6378V13.6758V13.7139V13.752V13.7902V13.8284V13.8666V13.9049V13.9432V13.9816V14.0199V14.0584V14.0969V14.1354V14.1739V14.2125V14.2511V14.2897V14.3284V14.3671V14.4059V14.4447V14.4835V14.5223V14.5612V14.6001V14.639V14.6779V14.7169V14.7559V14.795V14.834V14.8731V14.9122V14.9513V14.9905V15.0296V15.0688V15.108V15.1473V15.1865V15.2258V15.265V15.3043V15.3437V15.383V15.4223V15.4617V15.5011V15.5405V15.5799V15.6193V15.6587V15.6981V15.7376V15.777V15.8165V15.8559V15.8954V15.9349V15.9744V16.0139V16.0534V16.0929V16.1324V16.1719V16.2114V16.2509V16.2904V16.3299V16.3694V16.4089V16.4484V16.4879V16.5274V16.5669V16.6064V16.6459V16.6854V16.7248V16.7643V16.8037V16.8432V16.8826V16.922V16.9615V17.0009V17.0403V17.0796V17.119V17.1583V17.1977V17.237V17.2763V17.3156V17.3549V17.3941V17.4334V17.4726V17.5118V17.5509V17.5901V17.6292V17.6683V17.7074V17.7465V17.7855V17.8245V17.8635V17.9025V17.9414V17.9803V18.0192V18.058V18.0969V18.1356V18.1744V18.2131V18.2518V18.2905V18.3291V18.3677V18.4062V18.4448V18.4832V18.5217V18.5601V18.5985V18.6368V18.6751V18.7133V18.7515V18.7897V18.8278V18.8659V18.904V18.942V18.9799V19.0178V19.0557V19.0935V19.1312V19.169V19.2066V19.2442V19.2818V19.3193V19.3568V19.3942V19.4316V19.4689V19.5061V19.5433V19.5804V19.6175V19.6546V19.6915V19.7284V19.7653V19.8021V19.8388V19.8755V19.9121V19.9487V19.9852V20.0216V20.0579V20.0942V20.1305V20.1666V20.2027V20.2388V20.2747V20.3106V20.3464V20.3822V20.4179V20.4535V20.489V20.5245V20.5599V20.5952V20.6305V20.6656V20.7007V20.7358V20.7707V20.8056V20.8403V20.8751V20.9097V20.9442V20.9787V21.0131V21.0474V21.0816V21.1157V21.1498V21.1837V21.2176V21.2514V21.2851V21.3187V21.3523V21.3857V21.4191V21.4523V21.4855V21.5186V21.5516V21.5845V21.6173V21.65V21.6826V21.7151V21.7475V21.7798V21.812V21.8442V21.8762V21.9081V21.94V21.9717V22.0033V22.0348V22.0663V22.0976V22.1288V22.1599V22.1909V22.2218V22.2526V22.2833V22.3138C55.1176 22.7269 55.1489 23.133 55.2114 23.5294H56.4051C56.3311 23.137 56.2941 22.7309 56.2941 22.3138V22.2833V22.2526V22.2218V22.1909V22.1599V22.1288V22.0976V22.0663V22.0348V22.0033V21.9717V21.94V21.9081V21.8762V21.8442V21.812V21.7798V21.7475V21.7151V21.6826V21.65V21.6173V21.5845V21.5516V21.5186V21.4855V21.4523V21.4191V21.3857V21.3523V21.3187V21.2851V21.2514V21.2176V21.1837V21.1498V21.1157V21.0816V21.0474V21.0131V20.9787V20.9442V20.9097V20.8751V20.8403V20.8056V20.7707V20.7358V20.7007V20.6656V20.6305V20.5952V20.5599V20.5245V20.489V20.4535V20.4179V20.3822V20.3464V20.3106V20.2747V20.2388V20.2027V20.1666V20.1305V20.0942V20.0579V20.0216V19.9852V19.9487V19.9121V19.8755V19.8388V19.8021V19.7653V19.7284V19.6915V19.6546V19.6175V19.5804V19.5433V19.5061V19.4689V19.4316V19.3942V19.3568V19.3193V19.2818V19.2442V19.2066V19.169V19.1312V19.0935V19.0557V19.0178V18.9799V18.942V18.904V18.8659V18.8278V18.7897V18.7515V18.7133V18.6751V18.6368V18.5985V18.5601V18.5217V18.4832V18.4448V18.4062V18.3677V18.3291V18.2905V18.2518V18.2131V18.1744V18.1356V18.0969V18.058V18.0192V17.9803V17.9414V17.9025V17.8635V17.8245V17.7855V17.7465V17.7074V17.6683V17.6292V17.5901V17.5509V17.5118V17.4726V17.4334V17.3941V17.3549V17.3156V17.2763V17.237V17.1977V17.1583V17.119V17.0796V17.0403V17.0009V16.9615V16.922V16.8826V16.8432V16.8037V16.7643V16.7248V16.6854V16.6459V16.6064V16.5669V16.5274V16.4879V16.4484V16.4089V16.3694V16.3299V16.2904V16.2509V16.2114V16.1719V16.1324V16.0929V16.0534V16.0139V15.9744V15.9349V15.8954V15.8559V15.8165V15.777V15.7376V15.6981V15.6587V15.6193V15.5799V15.5405V15.5011V15.4617V15.4223V15.383V15.3437V15.3043V15.265V15.2258V15.1865V15.1473V15.108V15.0688V15.0296V14.9905V14.9513V14.9122V14.8731V14.834V14.795V14.7559V14.7169V14.6779V14.639V14.6001V14.5612V14.5223V14.4835V14.4447V14.4059V14.3671V14.3284V14.2897V14.2511V14.2125V14.1739V14.1354V14.0969V14.0584V14.0199V13.9816V13.9432V13.9049V13.8666V13.8284V13.7902V13.752V13.7139V13.6758V13.6378V13.5998V13.5619V13.524V13.4862V13.4484V13.4106V13.3729V13.3353V13.2977V13.2601V13.2226V13.1852V13.1478V13.1104V13.0731V13.0359V12.9987V12.9616V12.9245V12.8875V12.8506V12.8137V12.7768V12.7401V12.7033V12.6667V12.6301V12.5936V12.5571V12.5207V12.4844V12.4481V12.4119V12.3757V12.3396V12.3036V12.2677V12.2318V12.196V12.1603V12.1246V12.089V12.0535V12.0181V11.9827V11.9474V11.9122V11.877V11.842V11.807V11.772V11.7372V11.7024V11.6678V11.6332V11.5986V11.5642V11.5298V11.4956V11.4614V11.4273V11.3932V11.3593V11.3255V11.2917V11.258V11.2244V11.1909V11.1575V11.1242V11.0909V11.0578V11.0248V10.9918V10.9589V10.9262V10.8935V10.8609V10.8284V10.796V10.7637V10.7315V10.6995V10.6675V10.6356V10.6038V10.5721V10.5405V10.509V10.4776V10.4463V10.4151V10.3841V10.3531V10.3222V10.2915V10.2608V10.2303V10.1998V10.1695V10.1393V10.1092V10.0792V10.0493V10.0196V9.98994V9.9604V9.93098V9.90167V9.87248V9.84341V9.81445V9.78562V9.7569V9.7283V9.69982V9.67146V9.64322V9.61511V9.58712V9.55925V9.53151V9.50389V9.47639V9.44902V9.42178V9.39467V9.36768V9.34082V9.31409V9.28749V9.26103V9.23469V9.20849V9.18241V9.15648V9.13067V9.105V9.07946V9.05406V9.0288V9.00368V8.97869V8.95384V8.92913V8.90456V8.88013V8.85584V8.83169V8.80769V8.78383V8.76011V8.73654V8.71311V8.68983V8.66669V8.6437V8.62086V8.59817V8.57563V8.55323V8.53099V8.5089V8.48696V8.46517V8.44353V8.42205V8.40072V8.37955V8.35853V8.33767V8.31697V8.29642V8.27603V8.25581V8.23574V8.21583V8.19608V8.17649V8.15707V8.1378V8.11871V8.09977V8.081V8.0624V8.04396V8.02569V8.00759V7.98965V7.97188V7.95429V7.93686V7.9196V7.90252V7.8856V7.86886V7.8523V7.8359V7.81968V7.80364V7.78777V7.77208V7.75657V7.74124V7.72608V7.7111V7.69631V7.68169V7.66725V7.653V7.63893V7.62504V7.61134V7.59782V7.58448V7.57134V7.55837V7.5456V7.53301V7.52061V7.5084V7.49639V7.48456V7.47292V7.46147V7.45022V7.43916V7.42829V7.41762V7.40714V7.39686V7.38678V7.37689V7.3672V7.3577V7.34841V7.33932V7.33043V7.32173V7.31324V7.30495V7.29687V7.28899V7.28131V7.27384V7.26657V7.25951V7.25266V7.24601V7.23957V7.23334V7.22732V7.22151V7.21592V7.21053V7.20535V7.20039V7.19564V7.19111V7.18679V7.18268V7.1788V7.17512V7.17167V7.16843V7.16542V7.16262V7.16004Z" fill="#B9B9B9"/>
</svg>
