<svg width="60" height="60" viewBox="0 0 60 60" fill="none" xmlns="http://www.w3.org/2000/svg">
<mask id="mask0_1_100314" style="mask-type:alpha" maskUnits="userSpaceOnUse" x="0" y="0" width="60" height="60">
<path d="M30 0C13.4582 0 0 13.4582 0 30C0 46.5418 13.4582 60 30 60C46.5418 60 60 46.5418 60 30C60 13.4582 46.5418 0 30 0ZM57.8303 28.9286H50.3036C50.0518 24.1243 48.135 19.7646 45.1104 16.4057L50.4289 11.0871C54.8079 15.8132 57.5678 22.0554 57.8303 28.9286ZM16.4057 45.1093C19.7646 48.135 24.1243 50.0507 28.9286 50.3025V57.8293C22.0554 57.5678 15.8132 54.8068 11.0871 50.4278L16.4057 45.1093ZM31.0714 50.3025C35.8757 50.0507 40.2353 48.1339 43.5943 45.1093L48.9129 50.4278C44.1868 54.8078 37.9446 57.5678 31.0714 57.8303V50.3025ZM30 48.2143C19.9564 48.2143 11.7857 40.0436 11.7857 30C11.7857 19.9564 19.9564 11.7857 30 11.7857C40.0436 11.7857 48.2143 19.9564 48.2143 30C48.2143 40.0436 40.0436 48.2143 30 48.2143ZM43.5943 14.8907C40.2353 11.865 35.8757 9.94928 31.0714 9.6975V2.16964C37.9446 2.43107 44.1868 5.19214 48.9129 9.57107L43.5943 14.8907ZM28.9286 9.6975C24.1243 9.94928 19.7646 11.8661 16.4057 14.8907L11.0871 9.57214C15.8132 5.19214 22.0554 2.43214 28.9286 2.16964V9.6975ZM9.57107 11.0871L14.8896 16.4057C11.8639 19.7646 9.94821 24.1243 9.69643 28.9286H2.16964C2.43214 22.0554 5.19214 15.8132 9.57107 11.0871ZM2.16964 31.0714H9.69643C9.94821 35.8757 11.865 40.2353 14.8896 43.5943L9.57107 48.9129C5.19214 44.1868 2.43214 37.9446 2.16964 31.0714ZM50.4289 48.9129L45.1104 43.5943C48.1361 40.2353 50.0518 35.8757 50.3036 31.0714H57.8303C57.5678 37.9446 54.8079 44.1868 50.4289 48.9129Z" fill="#3D3D3D"/>
<path d="M27.751 31.5223H29.5578C29.4186 32.5028 29.0584 33.3346 28.3621 34.0091C27.4526 34.8902 26.2778 35.3307 24.8378 35.3307C23.3031 35.3307 22.0289 34.8333 21.0152 33.8386C20.011 32.8344 19.5089 31.6123 19.5089 30.1723C19.5089 28.7228 20.0063 27.496 21.001 26.4918C22.0052 25.4875 23.2463 24.9854 24.7242 24.9854C25.6431 24.9854 26.4863 25.1939 27.2536 25.6107C28.021 26.0275 28.6226 26.5912 29.0584 27.3018L27.3815 28.2681C27.1447 27.8607 26.7847 27.5291 26.3015 27.2733C25.8184 27.0175 25.2878 26.8897 24.71 26.8897C23.7531 26.8897 22.9715 27.2023 22.3652 27.8275C21.7589 28.4339 21.4557 29.2154 21.4557 30.1723C21.4557 31.1102 21.7636 31.887 22.3794 32.5028C22.9952 33.1091 23.8194 33.4123 24.8521 33.4123C25.6005 33.4123 26.2257 33.2465 26.7278 32.9149C27.23 32.5833 27.571 32.1191 27.751 31.5223Z" fill="#3D3D3D"/>
<path d="M35.8959 29.7886H40.8838V30.556C40.8838 31.977 40.429 33.1281 39.5195 34.0091C38.6101 34.8902 37.4353 35.3307 35.9953 35.3307C34.4606 35.3307 33.1864 34.8333 32.1727 33.8386C31.1685 32.8344 30.6664 31.6123 30.6664 30.1723C30.6664 28.7228 31.1638 27.496 32.1585 26.4918C33.1627 25.4875 34.4038 24.9854 35.8816 24.9854C36.8006 24.9854 37.6438 25.1939 38.4111 25.6107C39.1785 26.0275 39.7801 26.5912 40.2159 27.3018L38.539 28.2681C38.3022 27.8607 37.9422 27.5291 37.459 27.2733C36.9759 27.0175 36.4453 26.8897 35.8674 26.8897C34.9106 26.8897 34.129 27.2023 33.5227 27.8275C32.9164 28.4339 32.6132 29.2154 32.6132 30.1723C32.6132 31.1102 32.9211 31.887 33.5369 32.5028C34.1527 33.1091 34.9769 33.4123 36.0095 33.4123C36.758 33.4123 37.3832 33.2465 37.8853 32.9149C38.3874 32.5833 38.7285 32.1191 38.9085 31.5223H35.8959V29.7886Z" fill="#3D3D3D"/>
</mask>
<g mask="url(#mask0_1_100314)">
<rect x="-3.46153" width="66.9231" height="60.5769" fill="#B9B9B9"/>
</g>
</svg>
