<svg width="76" height="97" viewBox="0 0 76 97" fill="none" xmlns="http://www.w3.org/2000/svg">
<mask id="mask0_2_361" style="mask-type:alpha" maskUnits="userSpaceOnUse" x="0" y="0" width="76" height="97">
<path d="M74.754 38.3949L66.0791 28.456C65.5998 27.907 64.9073 27.5922 64.1786 27.5922C63.4498 27.5922 62.7573 27.907 62.278 28.456L53.6029 38.3949C52.9443 39.1497 52.7922 40.1852 53.207 41.0975C53.6215 42.0097 54.5016 42.5764 55.5034 42.5764H58.2701V52.3708C58.2701 53.1734 58.9204 53.8238 59.7231 53.8238C60.5257 53.8238 61.176 53.1734 61.176 52.3708V42.193C61.176 40.802 60.0445 39.6704 58.6535 39.6704H56.3465L64.1783 30.6978L72.01 39.6704H69.7032C68.3123 39.6704 67.1807 40.802 67.1807 42.193V52.3708C67.1807 53.1734 67.831 53.8238 68.6337 53.8238C69.4363 53.8238 70.0866 53.1734 70.0866 52.3708V42.5764H72.8533C73.8553 42.5764 74.7354 42.0097 75.1498 41.0975C75.5645 40.1854 75.4128 39.1497 74.754 38.3949Z" fill="black"/>
<path d="M62.8973 62.3015C62.8973 58.8816 60.1151 56.0992 56.695 56.0992H55.0413C54.2387 56.0992 53.5884 56.7496 53.5884 57.5522C53.5884 58.3548 54.2387 59.0052 55.0413 59.0052H56.695C58.5126 59.0052 59.9913 60.4839 59.9913 62.3015C59.9913 64.1193 58.5126 65.598 56.695 65.598C55.8924 65.598 55.242 66.2484 55.242 67.051C55.242 67.8536 55.8924 68.504 56.695 68.504C58.5126 68.504 59.9913 69.9825 59.9913 71.8001C59.9913 73.6178 58.5126 75.0966 56.695 75.0966C55.8924 75.0966 55.242 75.7469 55.242 76.5496C55.242 77.3522 55.8924 78.0025 56.695 78.0025C58.5126 78.0025 59.9913 79.4811 59.9913 81.2986C59.9913 83.1164 58.5126 84.5951 56.695 84.5951C55.8924 84.5951 55.242 85.2455 55.242 86.0481C55.242 86.8507 55.8924 87.5011 56.695 87.5011C58.5126 87.5011 59.9913 88.9798 59.9913 90.7974C59.9913 92.615 58.5126 94.0937 56.695 94.0937H34.1336C30.0663 94.0937 26.1041 92.9368 22.6745 90.7472L22.4738 90.6194C22.2404 90.4706 21.9695 90.3917 21.6931 90.3917H17.5298C17.5479 90.1908 17.5587 89.9878 17.5587 89.7823V84.9948C17.5587 84.1922 16.9082 83.5418 16.1057 83.5418C15.3033 83.5418 14.6528 84.1922 14.6528 84.9948V89.7823C14.6528 91.8993 12.9303 93.6216 10.8132 93.6216H1.45297C0.650545 93.6216 0 94.2719 0 95.0746C0 95.8772 0.650545 96.5275 1.45297 96.5275H10.813C13.2453 96.5275 15.3806 95.2332 16.5676 93.2977H21.2704C25.1302 95.7203 29.5736 96.9997 34.1334 96.9997H56.6948C60.1147 96.9997 62.8971 94.2175 62.8971 90.7974C62.8971 88.8934 62.0346 87.1867 60.6797 86.0481C62.0346 84.9094 62.8971 83.2028 62.8971 81.2986C62.8971 79.3947 62.0346 77.6881 60.6798 76.5496C62.0346 75.4108 62.8971 73.7042 62.8971 71.8001C62.8971 69.8961 62.0346 68.1895 60.6798 67.051C62.0348 65.9122 62.8973 64.2057 62.8973 62.3015Z" fill="black"/>
<path d="M4.72116 24.6124H15.4089V31.0947C15.4089 31.8974 16.0594 32.5477 16.8618 32.5477C17.6643 32.5477 18.3148 31.8974 18.3148 31.0947V23.1594C18.3148 22.3568 17.6643 21.7064 16.8618 21.7064H5.86301L26.2137 3.19456C26.6306 2.81485 27.2599 2.81485 27.6774 3.19456L48.0283 21.7064H37.0295C36.2269 21.7064 35.5765 22.3568 35.5765 23.1594V31.6132C35.5765 32.4158 36.2269 33.0661 37.0295 33.0661C37.8321 33.0661 38.4825 32.4158 38.4825 31.6132V24.6124H49.1701C50.1963 24.6124 51.0985 23.994 51.4686 23.0369C51.8386 22.0799 51.5873 21.0154 50.8283 20.3251L29.6327 1.04512C28.1007 -0.348375 25.7903 -0.348375 24.2582 1.04512L3.06284 20.3251C2.3038 21.0156 2.05254 22.0801 2.42256 23.0371C2.79278 23.994 3.69498 24.6124 4.72116 24.6124Z" fill="black"/>
<path d="M16.8619 35.834C16.0594 35.834 15.4089 36.4843 15.4089 37.287V47.291C15.4089 48.0936 16.0594 48.7439 16.8619 48.7439C17.6643 48.7439 18.3149 48.0936 18.3149 47.291V37.287C18.3149 36.4845 17.6643 35.834 16.8619 35.834Z" fill="black"/>
<path d="M1.45297 57.7295H10.813C12.9301 57.7295 14.6526 59.452 14.6526 61.5689V78.8025C14.6526 79.6051 15.3031 80.2554 16.1055 80.2554C16.908 80.2554 17.5585 79.6051 17.5585 78.8025C17.5585 78.8025 17.5482 61.1795 17.5318 60.9879H21.3316C21.6791 60.9879 22.0151 60.8633 22.2787 60.6368L34.4372 50.1872C36.1149 48.7455 37.3207 46.858 37.924 44.7299L39.3031 39.8645C39.4908 39.2024 40.1026 38.7399 40.7908 38.7399C41.4206 38.7399 41.982 39.1163 42.2215 39.6995L42.3668 40.0534C43.3434 42.434 43.8385 44.9457 43.8385 47.5186C43.8385 49.1754 43.6285 50.8291 43.2145 52.4335L42.2354 56.2269C42.0622 56.8976 42.2064 57.5964 42.6304 58.1441C43.0545 58.6918 43.6952 59.0056 44.3878 59.0056H48.849C49.6516 59.0056 50.3019 58.3553 50.3019 57.5526C50.3019 56.75 49.6516 56.0997 48.849 56.0997H45.2692L46.0279 53.1596C46.5031 51.318 46.7441 49.4201 46.7441 47.5186C46.7441 44.5656 46.1757 41.6827 45.0548 38.9501L44.9093 38.5962C44.2209 36.9183 42.6043 35.834 40.7904 35.834C38.8089 35.834 37.0475 37.1655 36.507 39.0718L35.1279 43.9373C34.6805 45.5152 33.7867 46.9144 32.5427 47.9836L20.7928 58.0821H16.585C15.4017 56.1305 13.2569 54.8238 10.8128 54.8238H1.45297C0.650544 54.8238 0 55.4741 0 56.2767C0 57.0794 0.650544 57.7295 1.45297 57.7295Z" fill="black"/>
</mask>
<g mask="url(#mask0_2_361)">
<rect x="-29.3553" y="-16.592" width="135.29" height="130.184" fill="url(#paint0_linear_2_361)"/>
</g>
<defs>
<linearGradient id="paint0_linear_2_361" x1="-29.3553" y1="-16.592" x2="105.934" y2="113.592" gradientUnits="userSpaceOnUse">
<stop stop-color="#B99147"/>
<stop offset="0.515625" stop-color="#E9DABA"/>
<stop offset="1" stop-color="#A58B59"/>
</linearGradient>
</defs>
</svg>
