<svg width="95" height="97" viewBox="0 0 95 97" fill="none" xmlns="http://www.w3.org/2000/svg">
<mask id="mask0_2_349" style="mask-type:alpha" maskUnits="userSpaceOnUse" x="0" y="0" width="95" height="98">
<path d="M93.2339 53.7669C92.2873 52.6501 90.9627 51.9687 89.5037 51.8481C88.0452 51.7276 86.6262 52.1826 85.5094 53.129L84.7749 53.7515C84.5983 52.8417 84.1922 51.9875 83.5766 51.261C81.6227 48.9558 78.1577 48.6696 75.852 50.6234L75.198 51.1776C75.0149 50.3144 74.621 49.4836 74.0112 48.7639C72.0573 46.4585 68.5918 46.1724 66.2867 48.1263L55.3266 57.4146C54.7638 57.2553 54.171 57.1682 53.5579 57.1682H33.8658C29.4442 57.1682 25.1318 58.4175 21.3949 60.7807C17.6581 63.1442 14.6813 66.5048 12.7861 70.4999L12.1156 71.9138L1.20719 85.6834C0.718186 86.3007 0.822184 87.1975 1.43952 87.6865C1.70151 87.8942 2.01388 87.9949 2.32397 87.9949C2.74453 87.9949 3.16109 87.8095 3.44267 87.4544L14.452 73.5573C14.5191 73.4727 14.5763 73.3805 14.6225 73.2829L15.3629 71.7222C18.7349 64.6135 25.9979 60.0201 33.8658 60.0201H53.5581C55.5713 60.0201 57.2092 61.658 57.2092 63.6714C57.2092 64.6621 56.8191 65.5894 56.1109 66.2822C55.423 66.955 54.5207 67.3227 53.562 67.3227C53.5343 67.3227 40.7374 67.3214 40.7374 67.3214C39.9499 67.3214 39.3115 67.9598 39.3115 68.7473C39.3115 69.5348 39.9499 70.1733 40.7374 70.1733H53.432C55.1903 70.2054 56.8482 69.5506 58.1051 68.3211C58.2847 68.1454 58.4515 67.9602 58.6079 67.7684H70.6565C71.9398 67.7684 73.1857 67.3115 74.1645 66.4818L87.3532 55.3046C87.889 54.8506 88.5713 54.6317 89.2691 54.6903C89.9689 54.7481 90.6043 55.0749 91.0583 55.6107C91.5124 56.1463 91.7306 56.8267 91.6728 57.5266C91.6148 58.2264 91.2882 58.8618 90.7524 59.3158L69.9327 76.9603C67.9896 78.607 65.626 79.638 63.0972 79.9424L59.3392 80.3945C58.5572 80.4886 57.9995 81.1986 58.0937 81.9805C58.1807 82.7047 58.796 83.2363 59.5076 83.2363C59.5645 83.2363 59.6221 83.2329 59.6797 83.2258L63.4377 82.7737C66.5226 82.4026 69.4062 81.1447 71.7763 79.1359L92.5961 61.4916C93.713 60.5452 94.3944 59.2204 94.5148 57.7614C94.6353 56.3024 94.1804 54.8839 93.2339 53.7669ZM68.1305 50.3022C69.2359 49.3653 70.8987 49.5022 71.8358 50.6082C72.6996 51.6276 72.6659 53.1115 71.7661 54.0863L60.0521 64.0138C60.058 63.9003 60.0613 63.7862 60.0613 63.6718C60.0613 61.7911 59.258 60.0953 57.9775 58.9069L68.1305 50.3022ZM63.3976 64.9167L77.6957 52.7993C78.8016 51.8622 80.4639 51.9995 81.4008 53.1051C81.8548 53.6408 82.0731 54.3213 82.0153 55.0211C81.9573 55.721 81.6307 56.3564 81.0949 56.8104L72.3203 64.3064C71.856 64.7 71.2649 64.9167 70.6561 64.9167H63.3976Z" fill="black"/>
<path d="M53.2622 81.1255L39.8486 82.7391C39.4879 82.7824 39.1573 82.9619 38.9246 83.2406L29.3857 94.6602C28.8807 95.2646 28.9615 96.1639 29.5659 96.6687C29.8327 96.8915 30.1568 97.0003 30.4793 97.0003C30.8873 97.0003 31.2924 96.8261 31.5744 96.4885L40.7509 85.5027L53.6029 83.9568C54.3847 83.8627 54.9425 83.1528 54.8484 82.3708C54.7541 81.589 54.0423 81.0314 53.2622 81.1255Z" fill="black"/>
<path d="M48.5 0C35.5423 0 25 10.5423 25 23.5C25 36.4577 35.5423 47 48.5 47C61.4577 47 72 36.4577 72 23.5C72 10.5423 61.4577 0 48.5 0ZM70.3004 22.6607H64.4045C64.2072 18.8974 62.7057 15.4823 60.3364 12.8511L64.5027 8.68493C67.9328 12.387 70.0948 17.2767 70.3004 22.6607ZM37.8511 35.3356C40.4823 37.7058 43.8974 39.2064 47.6607 39.4036V45.2996C42.2767 45.0948 37.387 42.932 33.6849 39.5018L37.8511 35.3356ZM49.3393 39.4036C53.1026 39.2064 56.5177 37.7049 59.1489 35.3356L63.3151 39.5018C59.613 42.9328 54.7233 45.0948 49.3393 45.3004V39.4036ZM48.5 37.7679C40.6325 37.7679 34.2321 31.3675 34.2321 23.5C34.2321 15.6325 40.6325 9.23214 48.5 9.23214C56.3675 9.23214 62.7679 15.6325 62.7679 23.5C62.7679 31.3675 56.3675 37.7679 48.5 37.7679ZM59.1489 11.6644C56.5177 9.29425 53.1026 7.79361 49.3393 7.59637V1.69955C54.7233 1.90434 59.613 4.06718 63.3151 7.49734L59.1489 11.6644ZM47.6607 7.59637C43.8974 7.79361 40.4823 9.29509 37.8511 11.6644L33.6849 7.49818C37.387 4.06718 42.2767 1.90518 47.6607 1.69955V7.59637ZM32.4973 8.68493L36.6636 12.8511C34.2934 15.4823 32.7928 18.8974 32.5955 22.6607H26.6996C26.9052 17.2767 29.0672 12.387 32.4973 8.68493ZM26.6996 24.3393H32.5955C32.7928 28.1026 34.2943 31.5177 36.6636 34.1489L32.4973 38.3151C29.0672 34.613 26.9052 29.7233 26.6996 24.3393ZM64.5027 38.3151L60.3364 34.1489C62.7066 31.5177 64.2072 28.1026 64.4045 24.3393H70.3004C70.0948 29.7233 67.9328 34.613 64.5027 38.3151Z" fill="#3D3D3D"/>
<path d="M46.7382 24.6924H48.2855C47.9405 25.7381 47.9293 25.9503 47.2169 26.6405C46.5045 27.3306 45.5843 27.6757 44.4563 27.6757C43.254 27.6757 42.2559 27.2861 41.4619 26.5069C40.6752 25.7202 40.2819 24.7629 40.2819 23.6349C40.2819 22.4995 40.6715 21.5385 41.4507 20.7518C42.2374 19.9652 43.2095 19.5719 44.3672 19.5719C45.087 19.5719 45.7475 19.7352 46.3486 20.0617C46.9497 20.3882 47.421 20.8298 47.7623 21.3863L46.4488 22.1433C46.2633 21.8242 45.9813 21.5645 45.6028 21.3641C45.2243 21.1637 44.8088 21.0635 44.3561 21.0635C43.6065 21.0635 42.9943 21.3084 42.5194 21.7982C42.0444 22.2732 41.8069 22.8854 41.8069 23.6349C41.8069 24.3696 42.0481 24.9781 42.5305 25.4605C43.0129 25.9355 43.6585 26.1729 44.4674 26.1729C45.0537 26.1729 45.5434 26.0431 45.9368 25.7833C46.3301 25.5236 46.5972 25.16 46.7382 24.6924Z" fill="#3D3D3D"/>
<path d="M53.1184 23.3344H57.0255V23.9355C57.0255 25.0486 56.6693 25.9503 55.9569 26.6405C55.2445 27.3306 54.3243 27.6757 53.1963 27.6757C51.9941 27.6757 50.9959 27.2861 50.2019 26.5069C49.4153 25.7202 49.0219 24.7629 49.0219 23.6349C49.0219 22.4995 49.4115 21.5385 50.1908 20.7518C50.9774 19.9652 51.9495 19.5719 53.1072 19.5719C53.8271 19.5719 54.4875 19.7352 55.0887 20.0617C55.6898 20.3882 56.161 20.8298 56.5024 21.3863L55.1888 22.1433C55.0033 21.8242 54.7213 21.5645 54.3428 21.3641C53.9644 21.1637 53.5488 21.0635 53.0961 21.0635C52.3466 21.0635 51.7343 21.3084 51.2594 21.7982C50.7844 22.2732 50.547 22.8854 50.547 23.6349C50.547 24.3696 50.7882 24.9781 51.2705 25.4605C51.7529 25.9355 52.3985 26.1729 53.2074 26.1729C53.7937 26.1729 54.2835 26.0431 54.6768 25.7833C55.0701 25.5236 55.3373 25.16 55.4783 24.6924H53.1184V23.3344Z" fill="#3D3D3D"/>
</mask>
<g mask="url(#mask0_2_349)">
<rect x="-21.3849" y="-18.3513" width="138.946" height="133.703" fill="url(#paint0_linear_2_349)"/>
</g>
<defs>
<linearGradient id="paint0_linear_2_349" x1="-21.3849" y1="-18.3513" x2="117.561" y2="115.352" gradientUnits="userSpaceOnUse">
<stop stop-color="#B99147"/>
<stop offset="0.515625" stop-color="#E9DABA"/>
<stop offset="1" stop-color="#A58B59"/>
</linearGradient>
</defs>
</svg>
