<svg width="106" height="106" viewBox="0 0 106 106" fill="none" xmlns="http://www.w3.org/2000/svg">
<g clip-path="url(#clip0_2_381)">
<mask id="mask0_2_381" style="mask-type:alpha" maskUnits="userSpaceOnUse" x="0" y="0" width="106" height="107">
<path d="M36.4209 82.766C43.6827 82.766 49.5908 76.858 49.5908 69.5962C49.5908 62.3343 43.6827 56.4263 36.4209 56.4263C29.1591 56.4263 23.251 62.3343 23.251 69.5962C23.251 76.858 29.1591 82.766 36.4209 82.766ZM36.4209 59.5317C41.9704 59.5317 46.4853 64.0467 46.4853 69.5962C46.4853 75.1458 41.9704 79.6606 36.4209 79.6606C30.8714 79.6606 26.3565 75.1456 26.3565 69.5962C26.3565 64.0467 30.8714 59.5317 36.4209 59.5317Z" fill="black"/>
<path d="M71.1678 63.08L65.162 61.9251C64.4892 59.3994 63.4841 56.9781 62.1642 54.7037L65.5985 49.6341C65.9697 49.0861 65.9527 48.3627 65.5558 47.8327C64.3677 46.2454 63.2894 44.9813 62.1626 43.8546C61.0361 42.7282 59.772 41.6499 58.1843 40.4614C57.6543 40.0645 56.9309 40.0475 56.3829 40.4187L51.3133 43.8528C49.0391 42.5329 46.6178 41.528 44.0921 40.8552L42.9372 34.8494C42.8122 34.1991 42.2886 33.6999 41.6334 33.6057C39.6705 33.3236 38.014 33.1919 36.4209 33.1919C34.8278 33.1919 33.1716 33.3234 31.2085 33.6057C30.5532 33.6999 30.0297 34.1993 29.9046 34.8494L28.7498 40.8552C26.224 41.528 23.8028 42.5331 21.5286 43.8528L16.459 40.4187C15.9108 40.0475 15.1878 40.0645 14.6578 40.4612C13.0707 41.6491 11.8066 42.7273 10.6795 43.8544C9.55241 44.9815 8.47419 46.2456 7.28604 47.8327C6.88937 48.3627 6.87219 49.0859 7.2436 49.6341L10.6778 54.7037C9.35801 56.9781 8.35287 59.3994 7.68002 61.9251L1.67425 63.08C1.02417 63.205 0.524815 63.7286 0.430616 64.3838C0.148433 66.3463 0.0169678 68.0027 0.0169678 69.5963C0.0169678 71.1898 0.148433 72.846 0.430616 74.8087C0.525023 75.4639 1.02417 75.9875 1.67425 76.1124L7.68002 77.2674C8.35287 79.7932 9.35801 82.2142 10.6778 84.4886L7.24381 89.558C6.8726 90.106 6.88958 90.8294 7.28625 91.3594C8.47419 92.9465 9.55241 94.2104 10.6797 95.3377C11.8068 96.4648 13.0709 97.543 14.658 98.7309C15.188 99.1278 15.9112 99.1448 16.4594 98.7734L21.5288 95.3394C23.8032 96.6592 26.2244 97.6643 28.7502 98.3372L29.905 104.343C30.0301 104.993 30.5535 105.492 31.2087 105.587C33.1705 105.869 34.8268 106 36.4211 106C38.0155 106 39.6719 105.869 41.6336 105.587C42.2888 105.492 42.8122 104.993 42.9372 104.343L44.0921 98.3372C46.6178 97.6643 49.0391 96.6592 51.3135 95.3394L56.3829 98.7734C56.9309 99.1446 57.6541 99.1276 58.1843 98.7309C59.7716 97.543 61.0357 96.4648 62.1628 95.3377C63.2899 94.2106 64.3681 92.9463 65.556 91.3594C65.9527 90.8292 65.9699 90.106 65.5985 89.558L62.1644 84.4886C63.4843 82.2142 64.4892 79.793 65.1623 77.2674L71.168 76.1124C71.8181 75.9873 72.3175 75.4639 72.4117 74.8087C72.6938 72.846 72.8253 71.1898 72.8253 69.5963C72.8253 68.0027 72.6938 66.3465 72.4117 64.3838C72.3173 63.7284 71.8179 63.205 71.1678 63.08ZM69.4822 73.2742L63.601 74.4052C62.9971 74.5213 62.5187 74.983 62.381 75.5824C61.7206 78.457 60.5852 81.1927 59.006 83.7131C58.6795 84.2342 58.6913 84.8992 59.0362 85.4083L62.3994 90.3731C61.5618 91.4389 60.7748 92.3337 59.9668 93.1419C59.1588 93.95 58.264 94.7367 57.198 95.5745L52.2332 92.2113C51.7239 91.8664 51.0591 91.8546 50.538 92.1811C48.0176 93.7601 45.2819 94.8957 42.4072 95.5561C41.8079 95.6938 41.3462 96.1722 41.2301 96.7762L40.099 102.657C38.7533 102.819 37.5644 102.895 36.4211 102.895C35.2779 102.895 34.0889 102.819 32.7432 102.657L31.6122 96.7762C31.4961 96.1722 31.0344 95.6938 30.435 95.5561C27.5604 94.8957 24.8247 93.7601 22.3043 92.1811C21.7832 91.8546 21.1182 91.8664 20.6091 92.2113L15.6443 95.5745C14.5785 94.7371 13.6839 93.95 12.8757 93.1419C12.0674 92.3337 11.2807 91.4391 10.4429 90.3731L13.8061 85.4083C14.151 84.8992 14.163 84.2342 13.8363 83.7131C12.2573 81.1927 11.1217 78.457 10.4613 75.5824C10.3236 74.983 9.84516 74.5213 9.24125 74.4052L3.36011 73.2742C3.19883 71.9279 3.12264 70.7389 3.12264 69.5961C3.12264 68.4535 3.19883 67.2645 3.36011 65.9179L9.24125 64.7871C9.84516 64.671 10.3236 64.2093 10.4613 63.61C11.1217 60.7353 12.2573 57.9996 13.8363 55.4792C14.163 54.9581 14.151 54.2931 13.8061 53.784L10.4426 48.8192C11.2803 47.7534 12.0674 46.8586 12.8755 46.0504C13.6835 45.2424 14.5783 44.4552 15.6441 43.6178L20.6089 46.9812C21.1182 47.3261 21.783 47.3379 22.3041 47.0114C24.8245 45.4324 27.56 44.2968 30.4346 43.6366C31.034 43.4989 31.4957 43.0203 31.6118 42.4164L32.7426 36.5352C34.0893 36.3738 35.2783 36.2976 36.4207 36.2976C37.5631 36.2976 38.7521 36.3738 40.0988 36.5352L41.2296 42.4164C41.3458 43.0203 41.8075 43.4989 42.4068 43.6366C45.2815 44.2968 48.0172 45.4324 50.5374 47.0114C51.0585 47.3379 51.7232 47.3261 52.2325 46.9812L57.1973 43.6178C58.2638 44.4558 59.1583 45.2428 59.9662 46.0506C60.774 46.8586 61.5609 47.7532 62.3988 48.8194L59.0354 53.7843C58.6905 54.2933 58.6785 54.9581 59.0051 55.4794C60.5842 58 61.7197 60.7357 62.3802 63.6102C62.5178 64.2097 62.9963 64.6712 63.6002 64.7873L69.4813 65.9181C69.6426 67.2645 69.7188 68.4537 69.7188 69.5963C69.7196 70.7389 69.6434 71.9279 69.4822 73.2742Z" fill="black"/>
<path d="M47.0441 54.6424C47.7426 55.1396 48.7122 54.9767 49.2097 54.2782C49.7072 53.5797 49.544 52.6101 48.8455 52.1128C44.7583 49.2024 39.7413 47.8145 34.721 48.2047C29.6382 48.5999 24.8508 50.8056 21.2408 54.4157C17.6308 58.0257 15.4251 62.813 15.0298 67.8957C14.6396 72.917 16.0275 77.933 18.9378 82.0202C19.2407 82.4456 19.7185 82.6723 20.204 82.6723C20.5156 82.6723 20.8302 82.5789 21.1033 82.3843C21.8018 81.8868 21.965 80.9173 21.4675 80.2188C16.2526 72.8955 17.0807 62.9673 23.4366 56.6114C29.7928 50.2556 39.721 49.4272 47.0441 54.6424Z" fill="black"/>
<path d="M51.7384 56.807C51.0398 57.3045 50.8767 58.274 51.3742 58.9726C56.5891 66.2957 55.761 76.224 49.4051 82.5799C43.0493 88.9358 33.1209 89.7639 25.7977 84.549C25.0992 84.0517 24.1297 84.2146 23.6322 84.9131C23.1347 85.6117 23.2978 86.5812 23.9964 87.0787C27.6314 89.6672 32.001 91.0512 36.4559 91.0512C37.0099 91.0512 37.5656 91.0297 38.1209 90.9866C43.2037 90.5914 47.9909 88.3859 51.6009 84.7757C55.2109 81.1657 57.4166 76.3783 57.8118 71.2957C58.2021 66.2743 56.8144 61.2584 53.9039 57.1712C53.4064 56.4727 52.4369 56.3097 51.7384 56.807Z" fill="black"/>
<path d="M38.8579 22.9751C39.2805 24.5017 39.8728 25.9309 40.6187 27.2232C41.3651 28.5157 42.3064 29.7431 43.4172 30.8721C43.8523 31.3143 44.509 31.4549 45.0869 31.23L46.8079 30.5607C47.8965 31.3984 49.0828 32.0836 50.3513 32.608L50.6318 34.4314C50.7262 35.0444 51.1763 35.5427 51.7767 35.6984C53.3097 36.0959 54.8438 36.2973 56.3359 36.2973C57.8282 36.2973 59.3623 36.0959 60.8952 35.6984C61.4955 35.5427 61.9458 35.0446 62.04 34.4314L62.3206 32.608C63.5888 32.0836 64.7751 31.3982 65.8639 30.5605L67.585 31.2298C68.163 31.4549 68.8195 31.3139 69.2547 30.8719C70.3654 29.7429 71.307 28.5154 72.0531 27.223C72.799 25.9309 73.3914 24.5017 73.8139 22.9751C73.9793 22.3772 73.7731 21.7381 73.2891 21.3499L71.8564 20.2C71.9486 19.5112 71.9949 18.8243 71.9949 18.1486C71.9949 17.4728 71.9483 16.7859 71.8564 16.0971L73.2891 14.9472C73.7729 14.5591 73.9791 13.92 73.8137 13.322C73.3911 11.7952 72.7988 10.3661 72.0529 9.07397C71.3068 7.78189 70.3654 6.5542 69.2545 5.42505C68.8195 4.98283 68.1632 4.84205 67.5847 5.06688L65.8637 5.73622C64.7751 4.89857 63.589 4.21329 62.3206 3.68888L62.04 1.86535C61.9456 1.25233 61.4955 0.754215 60.8952 0.598527C59.3623 0.201648 57.8284 0 56.3361 0C54.8438 0 53.3099 0.201648 51.7769 0.599148C51.1765 0.754836 50.7262 1.25295 50.632 1.86597L50.3515 3.6895C49.0832 4.21371 47.8969 4.89919 46.8083 5.73684L45.0873 5.0675C44.509 4.84246 43.8525 4.98345 43.4176 5.42567C42.3066 6.55482 41.3653 7.7823 40.6191 9.07459C39.8732 10.3665 39.2809 11.7956 38.8583 13.3225C38.6929 13.9204 38.8991 14.5595 39.3829 14.9477L40.8156 16.0975C40.7235 16.7863 40.6771 17.4732 40.6771 18.149C40.6771 18.8249 40.7237 19.5117 40.8156 20.2005L39.3829 21.3503C38.8989 21.7381 38.6925 22.3772 38.8579 22.9751ZM44.0182 20.5491C43.8617 19.7415 43.7824 18.9338 43.7824 18.1486C43.7824 17.3633 43.8617 16.5557 44.0182 15.748C44.1277 15.1824 43.9149 14.6025 43.4656 14.2419L42.1501 13.1862C42.464 12.2753 42.852 11.4178 43.3085 10.6271C43.7652 9.83626 44.3138 9.07128 44.9457 8.34419L46.5268 8.95907C47.0644 9.16817 47.6737 9.06196 48.1089 8.6833C49.3304 7.62041 50.7252 6.81464 52.2541 6.28837C52.7994 6.10059 53.1957 5.62628 53.2832 5.05612L53.5408 3.38186C54.4863 3.19822 55.4229 3.10547 56.3363 3.10547C57.2497 3.10547 58.1864 3.19822 59.1319 3.38186L59.3896 5.05632C59.4772 5.62628 59.8735 6.10059 60.4188 6.28837C61.9477 6.81464 63.3425 7.62061 64.5637 8.6833C64.9989 9.06196 65.6082 9.16817 66.1459 8.95907L67.727 8.34398C68.3588 9.07128 68.9075 9.83605 69.3642 10.6269C69.8207 11.4176 70.2087 12.2751 70.5225 13.186L69.207 14.2417C68.7576 14.6023 68.5448 15.1822 68.6545 15.7478C68.8108 16.5555 68.8903 17.3631 68.8903 18.1484C68.8903 18.9336 68.811 19.7411 68.6545 20.5489C68.545 21.1145 68.7578 21.6944 69.207 22.055L70.5225 23.1107C70.2087 24.0216 69.8207 24.8792 69.3642 25.6698C68.9075 26.4609 68.3588 27.2259 67.727 27.9527L66.1459 27.3379C65.6082 27.1285 64.9989 27.235 64.5637 27.6136C63.3423 28.6765 61.9477 29.4823 60.4186 30.0088C59.8735 30.1965 59.477 30.6709 59.3894 31.2408L59.1317 32.9153C58.1861 33.0989 57.2495 33.1917 56.3361 33.1917C55.4227 33.1917 54.4861 33.0989 53.5406 32.9153L53.283 31.241C53.1955 30.6711 52.7992 30.1968 52.2539 30.009C50.7249 29.4827 49.3302 28.6767 48.1087 27.6138C47.6733 27.235 47.0638 27.1288 46.5266 27.3381L44.9455 27.9529C44.3138 27.2261 43.765 26.4611 43.3083 25.6702C42.8518 24.8794 42.4638 24.0218 42.1499 23.1109L43.4654 22.0552C43.9149 21.6946 44.1277 21.1147 44.0182 20.5491Z" fill="black"/>
<path d="M56.3361 26.3394C60.8527 26.3394 64.5273 22.665 64.5273 18.1484C64.5273 17.4559 64.4403 16.7671 64.2689 16.1013C64.055 15.2707 63.2083 14.7709 62.3781 14.9848C61.5475 15.1986 61.0477 16.0452 61.2614 16.8756C61.3678 17.2886 61.4216 17.7168 61.4216 18.1482C61.4216 20.9525 59.1401 23.2337 56.3359 23.2337C53.5316 23.2337 51.2504 20.9523 51.2504 18.1482C51.2504 15.3442 53.5319 13.0627 56.3359 13.0627C56.7675 13.0627 57.1957 13.1165 57.6085 13.2227C58.4391 13.4362 59.2855 12.9366 59.4993 12.106C59.7132 11.2754 59.2132 10.4289 58.3826 10.2152C57.717 10.0438 57.0284 9.95703 56.3359 9.95703C51.8193 9.95703 48.1449 13.6316 48.1449 18.148C48.1449 22.665 51.8195 26.3394 56.3361 26.3394Z" fill="black"/>
<path d="M105.056 45.0494L103.365 44.3057C103.187 42.9437 102.833 41.6203 102.307 40.3527L103.398 38.865C103.765 38.3646 103.799 37.6942 103.485 37.1594C102.682 35.7941 101.739 34.567 100.684 33.512C99.6294 32.4567 98.4024 31.5147 97.037 30.7117C96.5024 30.3972 95.8319 30.4311 95.3315 30.7978L93.8437 31.8888C92.5761 31.3626 91.2527 31.0087 89.8907 30.8311L89.147 29.1407C88.8971 28.5728 88.3421 28.2099 87.7131 28.2134C86.1291 28.2264 84.5952 28.4287 83.1541 28.8148C81.7132 29.2009 80.2836 29.7926 78.9054 30.5734C78.3657 30.8791 78.0597 31.4768 78.1272 32.0936L78.3274 33.9196C77.7752 34.3415 77.2566 34.7945 76.7788 35.2723C76.301 35.7502 75.8482 36.2688 75.4262 36.8209L73.6002 36.6207C72.9822 36.5532 72.3858 36.8592 72.0802 37.3988C71.2995 38.777 70.7078 40.2065 70.3215 41.6477C69.9352 43.0892 69.7329 44.6231 69.7201 46.2067C69.7151 46.827 70.0797 47.3907 70.6476 47.6406L72.3378 48.3843C72.5152 49.7463 72.8694 51.0699 73.3955 52.3373L72.3044 53.825C71.9376 54.3254 71.9036 54.9958 72.2181 55.5306C73.021 56.8957 73.9632 58.1228 75.0184 59.178C76.0736 60.2333 77.3009 61.1753 78.6659 61.9783C79.2006 62.2928 79.8712 62.2589 80.3714 61.892L81.8589 60.8009C83.1266 61.3272 84.4501 61.6812 85.8122 61.8587L86.5556 63.5489C86.8038 64.113 87.3616 64.4764 87.9769 64.4764H87.9895C89.5731 64.4635 91.107 64.2611 92.5486 63.875C93.9899 63.4888 95.4194 62.8969 96.7974 62.1162C97.3372 61.8104 97.643 61.2129 97.5755 60.5962L97.3753 58.77C97.9274 58.348 98.446 57.8953 98.9239 57.4174C99.4019 56.9396 99.8547 56.421 100.277 55.8688L102.103 56.0688C102.719 56.1363 103.317 55.8305 103.623 55.2906C104.404 53.9124 104.995 52.4829 105.382 51.0419C105.768 49.601 105.97 48.0671 105.983 46.4829C105.988 45.8628 105.624 45.2991 105.056 45.0494ZM102.382 50.2384C102.146 51.1204 101.814 52.0011 101.391 52.8671L99.7147 52.6833C99.1431 52.6205 98.5814 52.8801 98.2589 53.3576C97.7984 54.0391 97.2836 54.6664 96.7283 55.2217C96.173 55.7769 95.5459 56.2918 94.8644 56.7522C94.387 57.0748 94.1274 57.6352 94.1901 58.2081L94.3739 59.8848C93.5081 60.307 92.6272 60.6391 91.7453 60.8755C90.8629 61.1119 89.9342 61.2645 88.9733 61.332L88.2903 59.7793C88.058 59.2511 87.5521 58.8954 86.9765 58.8555C85.3611 58.7433 83.8052 58.3269 82.3519 57.6181C82.1359 57.5127 81.9032 57.4607 81.6713 57.4607C81.3467 57.4607 81.0242 57.5624 80.7527 57.7613L79.3868 58.7631C78.5884 58.2244 77.8603 57.6278 77.2146 56.9818C76.5689 56.3359 75.9722 55.608 75.4333 54.8097L76.4351 53.4435C76.7761 52.9785 76.8314 52.3628 76.5786 51.8444C75.8697 50.391 75.4534 48.8352 75.3412 47.2197C75.3012 46.6442 74.9455 46.1382 74.4174 45.9059L72.8647 45.2227C72.9319 44.2618 73.0847 43.3333 73.3214 42.4509C73.5578 41.5688 73.8899 40.6879 74.3118 39.8223L75.9885 40.0059C76.5606 40.0688 77.1218 39.809 77.4444 39.3316C77.9048 38.6501 78.4197 38.023 78.975 37.4677C79.5302 36.9124 80.1573 36.3976 80.8391 35.9369C81.3165 35.6144 81.5763 35.0539 81.5134 34.4811L81.3295 32.8045C82.1955 32.3822 83.0763 32.0501 83.9582 31.8139C84.8402 31.5777 85.7689 31.4249 86.7299 31.3574L87.4131 32.9103C87.6454 33.4383 88.1512 33.7941 88.7268 33.8339C90.3422 33.9461 91.8983 34.3624 93.3514 35.0713C93.8696 35.3241 94.4855 35.2688 94.9503 34.928L96.3165 33.9262C97.1148 34.4649 97.843 35.0618 98.4887 35.7075C99.1346 36.3533 99.7313 37.0812 100.27 37.8797L99.2682 39.2459C98.9272 39.7109 98.8719 40.3266 99.1247 40.8448C99.8336 42.2979 100.25 43.854 100.362 45.4695C100.402 46.045 100.758 46.5508 101.286 46.7831L102.839 47.4663C102.771 48.4277 102.618 49.3565 102.382 50.2384Z" fill="black"/>
<path d="M93.9021 43.1977C93.0711 43.4091 92.5689 44.2544 92.7802 45.0854C92.8842 45.4939 92.937 45.9177 92.937 46.3448C92.937 49.149 90.6555 51.4303 87.8514 51.4303C85.0474 51.4303 82.7659 49.1488 82.7659 46.3448C82.7659 43.5408 85.0474 41.2591 87.8514 41.2591C88.2874 41.2591 88.7199 41.3141 89.1369 41.4226C89.9669 41.6388 90.8147 41.1406 91.0304 40.3109C91.2463 39.4809 90.7486 38.6331 89.9186 38.4174C89.2464 38.2424 88.551 38.1538 87.8512 38.1538C83.3346 38.1538 79.6602 41.8284 79.6602 46.345C79.6602 50.8616 83.3349 54.536 87.8512 54.536C92.3676 54.536 96.0422 50.8614 96.0422 46.345C96.0422 45.6597 95.9571 44.9784 95.7896 44.3198C95.5783 43.4886 94.7334 42.9861 93.9021 43.1977Z" fill="black"/>
</mask>
<g mask="url(#mask0_2_381)">
<rect y="-19" width="110" height="130" fill="url(#paint0_linear_2_381)"/>
</g>
</g>
<defs>
<linearGradient id="paint0_linear_2_381" x1="18.5465" y1="5.85294" x2="95.2777" y2="64.5421" gradientUnits="userSpaceOnUse">
<stop stop-color="#B99147"/>
<stop offset="0.515625" stop-color="#E9DABA"/>
<stop offset="1" stop-color="#A58B59"/>
</linearGradient>
<clipPath id="clip0_2_381">
<rect width="106" height="106" fill="white"/>
</clipPath>
</defs>
</svg>
