<svg width="25" height="33" viewBox="0 0 25 33" fill="none" xmlns="http://www.w3.org/2000/svg">
<path d="M11.6956 32.5695C11.8749 32.8384 12.1768 33 12.5 33C12.8232 33 13.1251 32.8385 13.3044 32.5695C15.5925 29.1375 18.9625 24.899 21.3109 20.5883C23.1887 17.1416 24.1016 14.202 24.1016 11.6016C24.1016 5.20446 18.8971 0 12.5 0C6.1029 0 0.898438 5.20446 0.898438 11.6016C0.898438 14.202 1.81129 17.1416 3.68906 20.5883C6.03574 24.8957 9.41224 29.1446 11.6956 32.5695ZM12.5 1.93359C17.8309 1.93359 22.168 6.27064 22.168 11.6016C22.168 13.8706 21.3322 16.5076 19.613 19.6633C17.5887 23.379 14.7 27.1481 12.5 30.3168C10.3003 27.1486 7.41143 23.3791 5.38702 19.6633C3.6678 16.5076 2.83203 13.8706 2.83203 11.6016C2.83203 6.27064 7.16908 1.93359 12.5 1.93359Z" fill="#3D3D3D"/>
<path d="M12.5 17.4023C15.6986 17.4023 18.3008 14.8001 18.3008 11.6016C18.3008 8.40301 15.6986 5.80078 12.5 5.80078C9.30145 5.80078 6.69922 8.40301 6.69922 11.6016C6.69922 14.8001 9.30145 17.4023 12.5 17.4023ZM12.5 7.73438C14.6324 7.73438 16.3672 9.4692 16.3672 11.6016C16.3672 13.7339 14.6324 15.4688 12.5 15.4688C10.3676 15.4688 8.63281 13.7339 8.63281 11.6016C8.63281 9.4692 10.3676 7.73438 12.5 7.73438Z" fill="#3D3D3D"/>
</svg>
