<svg width="31" height="21" viewBox="0 0 31 21" fill="none" xmlns="http://www.w3.org/2000/svg">
<path d="M27.9564 2.14694L28.1271 1.97622H27.8857H3.11435H2.87293L3.04364 2.14694L14.7145 13.8178L14.7145 13.8178C15.1487 14.252 15.8513 14.252 16.2855 13.8178L16.2855 13.8178L27.9564 2.14694ZM1.92172 17.8314V18.0729L2.09243 17.9021L9.08675 10.9078L9.15746 10.8371L9.08675 10.7663L2.09243 3.77203L1.92172 3.60132V3.84274V17.8314ZM3.71753 18.8533L3.54682 19.024H3.78824H27.2117H27.4531L27.2824 18.8533L20.625 12.1959L20.5543 12.1252L20.4836 12.1959L17.5736 15.1059C16.4302 16.2492 14.5694 16.2492 13.4263 15.1059L13.3556 15.1766L13.4263 15.1059L10.5163 12.1959L10.4456 12.1252L10.3749 12.1959L3.71753 18.8533ZM28.9783 17.9314H29.2197L29.0782 17.7899V3.84274V3.60132L28.9075 3.77203L21.9132 10.7663L21.8425 10.8371L21.9132 10.9078L28.8782 17.8728V17.9314H28.9782H28.9783ZM3.03261 0.154443H27.9674C29.585 0.154443 30.9 1.47228 30.9 3.08705V17.9132C30.9 19.531 29.582 20.8458 27.9674 20.8458H3.03261C1.41737 20.8458 0.1 19.5303 0.1 17.9132V3.08705C0.1 1.4717 1.41557 0.154443 3.03261 0.154443Z" fill="#3D3D3D" stroke="black" stroke-width="0.2"/>
</svg>
