<svg width="26" height="28" viewBox="0 0 26 28" fill="none" xmlns="http://www.w3.org/2000/svg">
<path d="M16.4166 19.8956L16.4967 19.949L16.5531 19.871C17.005 19.2468 17.5981 18.7383 18.284 18.387C18.9699 18.0357 19.7292 17.8517 20.4998 17.8499C21.4689 17.8499 22.4162 18.1373 23.2219 18.6757C24.0277 19.2141 24.6558 19.9794 25.0266 20.8748C25.3975 21.7701 25.4945 22.7553 25.3055 23.7058C25.1164 24.6563 24.6497 25.5294 23.9644 26.2147C23.2792 26.9 22.4061 27.3667 21.4556 27.5557C20.505 27.7448 19.5198 27.6478 18.6245 27.2769C17.7291 26.906 16.9638 26.278 16.4254 25.4722C15.8874 24.667 15.6001 23.7205 15.5996 22.7521C15.6076 22.5745 15.6256 22.3974 15.6534 22.2218L15.6634 22.1585L15.6101 22.1229L8.87133 17.6304L8.80665 17.5873L8.74891 17.6394C8.04512 18.2738 7.17249 18.6906 6.23669 18.8392C5.30088 18.9879 4.34206 18.862 3.47633 18.4769C2.6106 18.0917 1.87511 17.4638 1.35893 16.6692C0.842744 15.8746 0.568018 14.9474 0.568018 13.9999C0.568018 13.0524 0.842744 12.1252 1.35893 11.3306C1.87511 10.536 2.6106 9.90808 3.47633 9.52294C4.34206 9.1378 5.30088 9.01192 6.23669 9.16057C7.17249 9.30921 8.04512 9.72598 8.74891 10.3604L8.80665 10.4125L8.87133 10.3694L15.6101 5.87685L15.6634 5.8413L15.6534 5.778C15.6255 5.6023 15.6076 5.42519 15.5996 5.24748C15.5956 4.08666 16.0054 2.96238 16.7555 2.07641C17.506 1.18993 18.5481 0.600147 19.6945 0.413031C20.8409 0.225915 22.0164 0.453729 23.0099 1.05554C24.0034 1.65736 24.7497 2.59372 25.1147 3.69641C25.4798 4.7991 25.4397 5.99582 25.0016 7.07158C24.5635 8.14734 23.7561 9.03162 22.7246 9.56554C21.693 10.0995 20.5048 10.248 19.3736 9.98454C18.2423 9.72106 17.2421 9.0628 16.5526 8.12804L16.496 8.0513L16.4166 8.10419L10.1479 12.2829L10.0819 12.327L10.1097 12.4013C10.4963 13.432 10.4963 14.5678 10.1097 15.5985L10.0819 15.6728L10.1479 15.7169L16.4166 19.8956ZM21.9441 3.08808C21.5165 2.80239 21.0138 2.6499 20.4996 2.6499C19.81 2.6499 19.1487 2.92383 18.6611 3.41142C18.1735 3.89901 17.8996 4.56034 17.8996 5.2499C17.8996 5.76413 18.0521 6.26681 18.3378 6.69438C18.6235 7.12195 19.0295 7.4552 19.5046 7.65199C19.9797 7.84877 20.5025 7.90026 21.0068 7.79994C21.5112 7.69962 21.9745 7.45199 22.3381 7.08838C22.7017 6.72476 22.9493 6.26148 23.0497 5.75713C23.15 5.25278 23.0985 4.73001 22.9017 4.25492C22.7049 3.77983 22.3717 3.37377 21.9441 3.08808ZM4.05513 16.1617C4.4827 16.4474 4.98538 16.5999 5.49961 16.5999C6.18917 16.5999 6.85049 16.326 7.33809 15.8384C7.82568 15.3508 8.09961 14.6895 8.09961 13.9999C8.09961 13.4857 7.94712 12.983 7.66143 12.5554C7.37574 12.1278 6.96968 11.7946 6.49459 11.5978C6.0195 11.401 5.49673 11.3495 4.99238 11.4499C4.48803 11.5502 4.02475 11.7978 3.66113 12.1614C3.29752 12.525 3.04989 12.9883 2.94957 13.4927C2.84925 13.997 2.90074 14.5198 3.09752 14.9949C3.29431 15.47 3.62756 15.876 4.05513 16.1617ZM19.0551 24.9117C19.4827 25.1974 19.9854 25.3499 20.4996 25.3499C21.1892 25.3499 21.8505 25.076 22.3381 24.5884C22.8257 24.1008 23.0996 23.4395 23.0996 22.7499C23.0996 22.2357 22.9471 21.733 22.6614 21.3054C22.3757 20.8778 21.9697 20.5446 21.4946 20.3478C21.0195 20.151 20.4967 20.0995 19.9924 20.1999C19.488 20.3002 19.0247 20.5478 18.6611 20.9114C18.2975 21.275 18.0499 21.7383 17.9496 22.2427C17.8492 22.747 17.9007 23.2698 18.0975 23.7449C18.2943 24.22 18.6276 24.626 19.0551 24.9117Z" fill="#3D3D3D" stroke="black" stroke-width="0.2"/>
</svg>
