<svg width="14" height="15" viewBox="0 0 14 15" fill="none" xmlns="http://www.w3.org/2000/svg">
<path d="M11.0694 2.77588C10.882 2.77588 10.7295 2.93927 10.7295 3.14004C10.7295 3.34081 10.882 3.5042 11.0694 3.5042C11.2568 3.5042 11.4093 3.34084 11.4093 3.14004C11.4093 2.93924 11.2568 2.77588 11.0694 2.77588Z" fill="white"/>
<path d="M6.99998 4.27148C5.33852 4.27148 3.98682 5.71974 3.98682 7.49988C3.98682 9.28001 5.33852 10.7283 6.99998 10.7283C8.66147 10.7283 10.0132 9.28004 10.0132 7.49991C10.0132 5.71977 8.66147 4.27148 6.99998 4.27148Z" fill="white"/>
<path d="M10.1621 0H3.83789C1.72167 0 0 1.84465 0 4.11205V10.888C0 13.1554 1.72167 15 3.83789 15H10.1621C12.2784 15 14 13.1554 14 10.888V4.11205C14 1.84465 12.2784 0 10.1621 0ZM7 11.6142C4.88264 11.6142 3.16009 9.7686 3.16009 7.5C3.16009 5.2314 4.88266 3.38584 7 3.38584C9.11734 3.38584 10.8399 5.23143 10.8399 7.5C10.8399 9.76857 9.11734 11.6142 7 11.6142ZM11.0696 4.38973C10.4263 4.38973 9.90295 3.82898 9.90295 3.13975C9.90295 2.45051 10.4263 1.88974 11.0696 1.88974C11.7129 1.88974 12.2362 2.45048 12.2362 3.13972C12.2362 3.82895 11.7129 4.38973 11.0696 4.38973Z" fill="white"/>
</svg>
