<svg width="38" height="37" viewBox="0 0 38 37" fill="none" xmlns="http://www.w3.org/2000/svg">
<path d="M23.2918 13.9862L23.2497 13.9437C22.2866 12.9712 20.7197 12.9711 19.7568 13.9437C19.2902 14.4148 19.0333 15.0411 19.0333 15.7075C19.0333 16.3738 19.2901 17.0002 19.7567 17.4713L19.7988 17.5138C20.6458 18.3692 21.1123 19.5065 21.1123 20.7161C21.1123 21.9258 20.6459 23.0631 19.7988 23.9184L15.573 28.1862C15.3595 28.4019 15.3595 28.7515 15.573 28.9671C15.7865 29.1826 16.1327 29.1827 16.3462 28.9671L20.5721 24.6993C21.6255 23.6353 22.2057 22.2208 22.2057 20.7161C22.2057 19.2114 21.6255 17.7968 20.5721 16.7328L20.5299 16.6903C20.27 16.4278 20.1267 16.0787 20.1267 15.7074C20.1267 15.3361 20.27 14.987 20.5299 14.7245C21.0665 14.1824 21.9398 14.1824 22.4764 14.7245L22.5185 14.767C25.7666 18.0473 25.7666 23.3848 22.5185 26.665L15.8144 33.4358C12.5664 36.7162 7.28125 36.7161 4.03336 33.4357C2.45993 31.8468 1.59339 29.734 1.59339 27.4867C1.59339 25.2394 2.45993 23.1267 4.03336 21.5377L10.7771 14.7269C10.9907 14.5112 10.9907 14.1617 10.7771 13.946C10.5635 13.7305 10.2174 13.7305 10.0039 13.946L3.26013 20.7568C1.48018 22.5545 0.5 24.9445 0.5 27.4869C0.5 30.0292 1.48018 32.4192 3.26013 34.2169C5.09738 36.0722 7.51066 37 9.92387 37C12.3372 37 14.7504 36.0722 16.5877 34.2169L23.2918 27.4461C26.9662 23.7352 26.9662 17.6971 23.2918 13.9862Z" fill="#B6B6B6"/>
<path d="M10.0375 19.542L5.66424 23.9179C4.59471 24.9882 4.01202 26.4133 4.02361 27.9305C4.03512 29.4474 4.6398 30.8634 5.7262 31.9178C6.79822 32.9583 8.19917 33.4761 9.60664 33.4761C11.0694 33.4761 12.5393 32.9163 13.6526 31.8025L14.4338 31.0207C14.6486 30.8058 14.6486 30.4573 14.4337 30.2425C14.219 30.0277 13.8708 30.0276 13.6561 30.2426L12.8749 31.0243C11.1129 32.7874 8.24954 32.8339 6.49196 31.1278C5.61878 30.2803 5.13274 29.1419 5.12342 27.9222C5.11411 26.702 5.58241 25.5563 6.44203 24.6961L10.8153 20.3202C11.03 20.1053 11.03 19.7569 10.8153 19.542C10.6005 19.3272 10.2524 19.3271 10.0375 19.542Z" fill="#B6B6B6"/>
<path d="M34.7241 2.74979C32.9314 0.976557 30.5477 0 28.0123 0C25.4769 0 23.0933 0.976557 21.3005 2.74979L20.9231 3.12307C20.7079 3.33578 20.7079 3.68066 20.923 3.8933C21.1381 4.10594 21.4866 4.10609 21.7017 3.89338L22.0793 3.52009C23.664 1.95268 25.7711 1.08934 28.0123 1.08934C30.2535 1.08934 32.3606 1.95268 33.9454 3.52017C37.2169 6.75594 37.2169 12.0209 33.9454 15.2566L27.153 21.975C26.9379 22.1878 26.9379 22.5326 27.153 22.7453C27.2605 22.8516 27.4015 22.9048 27.5424 22.9048C27.6833 22.9048 27.8243 22.8516 27.9318 22.7453L34.7243 16.027C38.425 12.3664 38.425 6.41033 34.7241 2.74979Z" fill="#B6B6B6"/>
<path d="M27.9072 17.7745L32.3201 13.2991C33.3994 12.2046 33.9874 10.7473 33.9758 9.19557C33.9642 7.64426 33.354 6.19598 32.2577 5.1176C30.0516 2.94757 26.4636 3.00017 24.2592 5.23555L17.5095 12.0805C15.3022 14.319 15.3022 17.9613 17.5099 20.2001L17.5523 20.2431C18.097 20.7955 18.097 21.6943 17.5523 22.2465C17.2886 22.5141 16.9376 22.6615 16.5645 22.6615C16.1914 22.6615 15.8405 22.5141 15.5767 22.2465L15.5339 22.2032C12.2372 18.86 12.2372 13.4202 15.5339 10.0771L20.2858 5.25806C20.5026 5.03821 20.5026 4.68196 20.2858 4.46219C20.0691 4.24249 19.7178 4.24249 19.501 4.46219L14.7491 9.28119C11.0198 13.0632 11.0198 19.2171 14.7491 22.9991L14.7919 23.0425C15.2806 23.538 15.9226 23.7858 16.5645 23.7858C17.2064 23.7858 17.8484 23.538 18.3371 23.0425C19.3144 22.0513 19.3144 20.4385 18.3368 19.447L18.2943 19.4039C16.5197 17.6043 16.5197 14.6761 18.2943 12.8765L25.0439 6.0315C26.8221 4.22846 29.7115 4.18096 31.485 5.92563C32.3661 6.79241 32.8566 7.95678 32.8659 9.2042C32.8753 10.4521 32.4027 11.6237 31.5354 12.5033L27.1223 16.9787C26.9056 17.1985 26.9056 17.5548 27.1223 17.7746C27.3391 17.9942 27.6904 17.9942 27.9072 17.7745Z" fill="#B6B6B6"/>
<path d="M28.6627 27.5047C28.4676 27.2445 28.1511 27.2444 27.9559 27.5048C27.7608 27.765 27.7608 28.187 27.956 28.4472L29.5992 30.6382C29.6968 30.7683 29.8247 30.8333 29.9526 30.8333C30.0805 30.8333 30.2084 30.7683 30.3061 30.6381C30.5012 30.3779 30.5012 29.9559 30.306 29.6957L28.6627 27.5047Z" fill="#B6B6B6"/>
<path d="M32.6907 25.3402L30.2519 24.6851C29.9621 24.6075 29.6656 24.7836 29.5893 25.0792C29.513 25.3748 29.6861 25.6774 29.9757 25.7552L32.4144 26.4103C32.4608 26.4227 32.5072 26.4287 32.5529 26.4287C32.7933 26.4287 33.0129 26.2644 33.0771 26.0161C33.1534 25.7206 32.9803 25.4179 32.6907 25.3402Z" fill="#B6B6B6"/>
<path d="M25.3746 29.4759C25.2967 29.1863 24.9944 29.0133 24.6986 29.0895C24.4032 29.1658 24.2267 29.4625 24.3045 29.7522L24.9596 32.1909C25.025 32.4343 25.249 32.5953 25.4943 32.5953C25.5409 32.5953 25.5882 32.5895 25.6355 32.5773C25.931 32.501 26.1074 32.2044 26.0297 31.9147L25.3746 29.4759Z" fill="#B6B6B6"/>
<path d="M9.05305 9.54406C9.18323 9.64168 9.35374 9.69046 9.52434 9.69046C9.69485 9.69046 9.86545 9.64168 9.99553 9.54412C10.2559 9.34893 10.2559 9.03245 9.99562 8.83733L7.80465 7.19403C7.5444 6.99878 7.12243 6.99884 6.86226 7.19397C6.60192 7.38916 6.60192 7.70564 6.86217 7.90076L9.05305 9.54406Z" fill="#B6B6B6"/>
<path d="M11.7447 7.5242C11.8102 7.76754 12.0342 7.92859 12.2794 7.92859C12.326 7.92859 12.3734 7.92274 12.4207 7.91059C12.7161 7.83429 12.8926 7.53765 12.8148 7.24794L12.1598 4.80912C12.0819 4.51949 11.7795 4.34665 11.4838 4.42273C11.1883 4.49902 11.0119 4.79567 11.0896 5.08537L11.7447 7.5242Z" fill="#B6B6B6"/>
<path d="M5.30868 12.5408L7.74744 13.1959C7.7938 13.2083 7.84016 13.2143 7.88593 13.2143C8.12632 13.2143 8.34595 13.05 8.41009 12.8018C8.48639 12.5062 8.31333 12.2036 8.0237 12.1258L5.58493 11.4707C5.29516 11.3931 4.99866 11.5693 4.92229 11.8649C4.84607 12.1603 5.01905 12.463 5.30868 12.5408Z" fill="#B6B6B6"/>
</svg>
