<svg width="21" height="11" viewBox="0 0 21 11" fill="none" xmlns="http://www.w3.org/2000/svg">
<path d="M10.394 8.54859C9.57979 8.54859 8.81423 8.23155 8.23849 7.6558C7.66275 7.08006 7.3457 6.31451 7.3457 5.50025C7.3457 4.68598 7.66275 3.92043 8.23862 3.34469C8.81449 2.76895 9.57979 2.4519 10.394 2.4519C11.2083 2.4519 11.9739 2.76895 12.5496 3.34482C13.1254 3.92069 13.4424 4.68611 13.4424 5.50038C13.4424 6.31464 13.1254 7.08019 12.5496 7.65593C11.9739 8.23167 11.2083 8.54859 10.394 8.54859ZM10.394 2.99166C9.01073 2.99166 7.88546 4.11705 7.88546 5.50025C7.88546 6.88344 9.01086 8.00883 10.394 8.00883C11.7772 8.00883 12.9026 6.88344 12.9026 5.50025C12.9026 4.11693 11.7772 2.99166 10.394 2.99166Z" fill="url(#paint0_linear_109_21168)"/>
<path d="M19.9552 11H0.832379C0.683303 11 0.5625 10.8792 0.5625 10.7301V0.269879C0.5625 0.120803 0.683303 0 0.832379 0H19.9552C20.1043 0 20.2251 0.120803 20.2251 0.269879V10.73C20.2251 10.8791 20.1043 11 19.9552 11ZM1.10226 10.4602H19.6853V0.539757H1.10226V10.4602Z" fill="url(#paint1_linear_109_21168)"/>
<path d="M17.0018 9.61031H3.78599C3.63692 9.61031 3.51611 9.48951 3.51611 9.34043C3.51611 9.19136 3.63692 9.07056 3.78599 9.07056H17.0018C17.1509 9.07056 17.2717 9.19136 17.2717 9.34043C17.2717 9.48951 17.1509 9.61031 17.0018 9.61031Z" fill="url(#paint2_linear_109_21168)"/>
<path d="M17.0021 1.92965H3.85582C3.70674 1.92965 3.58594 1.80885 3.58594 1.65977C3.58594 1.5107 3.70674 1.38989 3.85582 1.38989H17.0021C17.1512 1.38989 17.272 1.5107 17.272 1.65977C17.272 1.80885 17.1512 1.92965 17.0021 1.92965Z" fill="url(#paint3_linear_109_21168)"/>
<path d="M18.5653 8.0466C18.4162 8.0466 18.2954 7.92579 18.2954 7.77672V3.22374C18.2954 3.07466 18.4162 2.95386 18.5653 2.95386C18.7144 2.95386 18.8352 3.07466 18.8352 3.22374V7.77685C18.8352 7.92579 18.7144 8.0466 18.5653 8.0466Z" fill="url(#paint4_linear_109_21168)"/>
<path d="M2.22203 8.0462C2.07295 8.0462 1.95215 7.9254 1.95215 7.77632V3.22154C1.95215 3.07246 2.07295 2.95166 2.22203 2.95166C2.3711 2.95166 2.49191 3.07246 2.49191 3.22154V7.77632C2.49191 7.9254 2.3711 8.0462 2.22203 8.0462Z" fill="url(#paint5_linear_109_21168)"/>
<path d="M2.29155 3.49339C2.26238 3.49339 2.23423 3.49262 2.20776 3.49134C2.05894 3.48337 1.94469 3.3564 1.95253 3.20758C1.9605 3.05876 2.0876 2.94438 2.23629 2.95235C2.25325 2.95325 2.27189 2.95376 2.29142 2.95376C3.0048 2.95376 3.58517 2.37339 3.58517 1.66002C3.58517 1.51094 3.70597 1.39014 3.85504 1.39014C4.00412 1.39014 4.12492 1.51094 4.12492 1.66002C4.12505 2.67078 3.30256 3.49339 2.29155 3.49339Z" fill="url(#paint6_linear_109_21168)"/>
<path d="M18.5645 3.49376C17.5534 3.49376 16.731 2.67128 16.731 1.66026C16.731 1.51118 16.8518 1.39038 17.0008 1.39038C17.1499 1.39038 17.2707 1.51118 17.2707 1.66026C17.2707 2.37364 17.8511 2.95401 18.5645 2.95401C18.7135 2.95401 18.8343 3.07481 18.8343 3.22389C18.8343 3.37296 18.7135 3.49376 18.5645 3.49376Z" fill="url(#paint7_linear_109_21168)"/>
<path d="M17.0008 9.61021C16.8518 9.61021 16.731 9.48941 16.731 9.34034C16.731 8.32932 17.5534 7.50684 18.5645 7.50684C18.7135 7.50684 18.8343 7.62764 18.8343 7.77671C18.8343 7.92579 18.7135 8.04659 18.5645 8.04659C17.8511 8.04659 17.2707 8.62696 17.2707 9.34034C17.2707 9.48928 17.1499 9.61021 17.0008 9.61021Z" fill="url(#paint8_linear_109_21168)"/>
<path d="M3.78565 9.61021C3.63658 9.61021 3.51577 9.48941 3.51577 9.34034C3.51577 8.62696 2.93541 8.04659 2.22203 8.04659C2.07295 8.04659 1.95215 7.92579 1.95215 7.77671C1.95215 7.62764 2.07295 7.50684 2.22203 7.50684C3.23304 7.50684 4.05553 8.32932 4.05553 9.34034C4.05553 9.48928 3.93473 9.61021 3.78565 9.61021Z" fill="url(#paint9_linear_109_21168)"/>
<defs>
<linearGradient id="paint0_linear_109_21168" x1="10.0233" y1="1.1967" x2="13.4261" y2="6.53843" gradientUnits="userSpaceOnUse">
<stop stop-color="#D0AF72"/>
<stop offset="0.474399" stop-color="#F9E7C7"/>
<stop offset="1" stop-color="#D0AF72"/>
</linearGradient>
<linearGradient id="paint1_linear_109_21168" x1="9.1981" y1="-2.26471" x2="13.4824" y2="9.75728" gradientUnits="userSpaceOnUse">
<stop stop-color="#D0AF72"/>
<stop offset="0.474399" stop-color="#F9E7C7"/>
<stop offset="1" stop-color="#D0AF72"/>
</linearGradient>
<linearGradient id="paint2_linear_109_21168" x1="9.55742" y1="8.95943" x2="9.57403" y2="9.62384" gradientUnits="userSpaceOnUse">
<stop stop-color="#D0AF72"/>
<stop offset="0.474399" stop-color="#F9E7C7"/>
<stop offset="1" stop-color="#D0AF72"/>
</linearGradient>
<linearGradient id="paint3_linear_109_21168" x1="9.59671" y1="1.27877" x2="9.6134" y2="1.94317" gradientUnits="userSpaceOnUse">
<stop stop-color="#D0AF72"/>
<stop offset="0.474399" stop-color="#F9E7C7"/>
<stop offset="1" stop-color="#D0AF72"/>
</linearGradient>
<linearGradient id="paint4_linear_109_21168" x1="18.5325" y1="1.90535" x2="19.548" y2="2.07432" gradientUnits="userSpaceOnUse">
<stop stop-color="#D0AF72"/>
<stop offset="0.474399" stop-color="#F9E7C7"/>
<stop offset="1" stop-color="#D0AF72"/>
</linearGradient>
<linearGradient id="paint5_linear_109_21168" x1="2.1892" y1="1.90278" x2="3.20476" y2="2.07169" gradientUnits="userSpaceOnUse">
<stop stop-color="#D0AF72"/>
<stop offset="0.474399" stop-color="#F9E7C7"/>
<stop offset="1" stop-color="#D0AF72"/>
</linearGradient>
<linearGradient id="paint6_linear_109_21168" x1="2.90641" y1="0.957114" x2="4.06378" y2="2.83403" gradientUnits="userSpaceOnUse">
<stop stop-color="#D0AF72"/>
<stop offset="0.474399" stop-color="#F9E7C7"/>
<stop offset="1" stop-color="#D0AF72"/>
</linearGradient>
<linearGradient id="paint7_linear_109_21168" x1="17.6547" y1="0.957331" x2="18.8287" y2="2.80025" gradientUnits="userSpaceOnUse">
<stop stop-color="#D0AF72"/>
<stop offset="0.474399" stop-color="#F9E7C7"/>
<stop offset="1" stop-color="#D0AF72"/>
</linearGradient>
<linearGradient id="paint8_linear_109_21168" x1="17.6547" y1="7.07379" x2="18.8287" y2="8.9167" gradientUnits="userSpaceOnUse">
<stop stop-color="#D0AF72"/>
<stop offset="0.474399" stop-color="#F9E7C7"/>
<stop offset="1" stop-color="#D0AF72"/>
</linearGradient>
<linearGradient id="paint9_linear_109_21168" x1="2.87593" y1="7.07379" x2="4.0499" y2="8.9167" gradientUnits="userSpaceOnUse">
<stop stop-color="#D0AF72"/>
<stop offset="0.474399" stop-color="#F9E7C7"/>
<stop offset="1" stop-color="#D0AF72"/>
</linearGradient>
</defs>
</svg>
