<svg width="32" height="32" viewBox="0 0 32 32" fill="none" xmlns="http://www.w3.org/2000/svg">
<path d="M31.529 2.56542H25.4918V0.47104C25.4918 0.346112 25.4422 0.226301 25.3539 0.137964C25.2655 0.0496272 25.1457 7.69994e-08 25.0208 7.69994e-08H23.0123C22.9504 -3.53063e-05 22.8892 0.0121244 22.832 0.0357838C22.7748 0.0594432 22.7229 0.0941383 22.6791 0.137885C22.6354 0.181633 22.6007 0.233574 22.577 0.290739C22.5534 0.347904 22.5412 0.409172 22.5413 0.47104V2.56542H17.4753V0.47104C17.4753 0.409172 17.4632 0.347904 17.4395 0.290739C17.4159 0.233574 17.3812 0.181633 17.3374 0.137885C17.2937 0.0941383 17.2417 0.0594432 17.1846 0.0357838C17.1274 0.0121244 17.0661 -3.53063e-05 17.0043 7.69994e-08H14.9957C14.9339 -3.53063e-05 14.8726 0.0121244 14.8154 0.0357838C14.7583 0.0594432 14.7063 0.0941383 14.6626 0.137885C14.6188 0.181633 14.5841 0.233574 14.5605 0.290739C14.5368 0.347904 14.5247 0.409172 14.5247 0.47104V2.56542H9.45928V0.47104C9.45932 0.409172 9.44716 0.347904 9.4235 0.290739C9.39984 0.233574 9.36514 0.181633 9.32139 0.137885C9.27765 0.0941383 9.22571 0.0594432 9.16854 0.0357838C9.11138 0.0121244 9.05011 -3.53063e-05 8.98824 7.69994e-08H6.97919C6.85426 7.69994e-08 6.73445 0.0496272 6.64612 0.137964C6.55778 0.226301 6.50815 0.346112 6.50815 0.47104V2.56542H0.47104C0.409172 2.56538 0.347904 2.57754 0.290739 2.6012C0.233574 2.62486 0.181633 2.65955 0.137885 2.7033C0.0941383 2.74705 0.0594432 2.79899 0.0357838 2.85615C0.0121244 2.91332 -3.53063e-05 2.97459 7.69994e-08 3.03646V31.529C-3.53063e-05 31.5908 0.0121244 31.6521 0.0357838 31.7093C0.0594432 31.7664 0.0941383 31.8184 0.137885 31.8621C0.181633 31.9059 0.233574 31.9406 0.290739 31.9642C0.347904 31.9879 0.409172 32 0.47104 32H31.529C31.5908 32 31.6521 31.9879 31.7093 31.9642C31.7664 31.9406 31.8184 31.9059 31.8621 31.8621C31.9059 31.8184 31.9406 31.7664 31.9642 31.7093C31.9879 31.6521 32 31.5908 32 31.529V3.03646C32 2.97459 31.9879 2.91332 31.9642 2.85615C31.9406 2.79899 31.9059 2.74705 31.8621 2.7033C31.8184 2.65955 31.7664 2.62486 31.7093 2.6012C31.6521 2.57754 31.5908 2.56538 31.529 2.56542ZM23.4828 0.942079H24.5492V5.13083H23.4828V0.942079ZM15.4662 0.942079H16.5327V5.13083H15.4668L15.4662 0.942079ZM7.44969 0.942079H8.5172V5.13083H7.45023L7.44969 0.942079ZM0.942079 3.50749H6.50815V5.60187C6.50815 5.7268 6.55778 5.84661 6.64612 5.93495C6.73445 6.02328 6.85426 6.07291 6.97919 6.07291H8.9877C9.04957 6.07295 9.11084 6.06079 9.168 6.03713C9.22517 6.01347 9.27711 5.97877 9.32086 5.93503C9.3646 5.89128 9.3993 5.83934 9.42296 5.78217C9.44662 5.72501 9.45878 5.66374 9.45874 5.60187V3.50749H14.5247V5.60187C14.5247 5.66374 14.5368 5.72501 14.5605 5.78217C14.5841 5.83934 14.6188 5.89128 14.6626 5.93503C14.7063 5.97877 14.7583 6.01347 14.8154 6.03713C14.8726 6.06079 14.9339 6.07295 14.9957 6.07291H17.0043C17.0661 6.07295 17.1274 6.06079 17.1846 6.03713C17.2417 6.01347 17.2937 5.97877 17.3374 5.93503C17.3812 5.89128 17.4159 5.83934 17.4395 5.78217C17.4632 5.72501 17.4753 5.66374 17.4753 5.60187V3.50749H22.5407V5.60187C22.5407 5.66374 22.5528 5.72501 22.5765 5.78217C22.6002 5.83934 22.6349 5.89128 22.6786 5.93503C22.7224 5.97877 22.7743 6.01347 22.8315 6.03713C22.8886 6.06079 22.9499 6.07295 23.0118 6.07291H25.0203C25.1452 6.07291 25.265 6.02328 25.3533 5.93495C25.4417 5.84661 25.4913 5.7268 25.4913 5.60187V3.50749H31.0574V8.89753H0.942079V3.50749ZM0.942079 31.0579V9.83961H31.0579V31.0579H0.942079Z" fill="url(#paint0_linear_108_20839)"/>
<path d="M6.21836 11.9666C5.79072 11.9666 5.37267 12.0934 5.0171 12.331C4.66153 12.5685 4.38439 12.9062 4.22074 13.3013C4.05709 13.6964 4.01427 14.1312 4.0977 14.5506C4.18113 14.97 4.38706 15.3553 4.68945 15.6577C4.99184 15.9601 5.37711 16.166 5.79653 16.2494C6.21596 16.3328 6.65071 16.29 7.0458 16.1264C7.44089 15.9627 7.77858 15.6856 8.01617 15.33C8.25375 14.9744 8.38057 14.5564 8.38057 14.1288C8.37999 13.5555 8.15201 13.0058 7.74664 12.6005C7.34127 12.1951 6.79164 11.9671 6.21836 11.9666ZM6.21836 15.3489C5.97704 15.3489 5.74114 15.2773 5.54049 15.1433C5.33984 15.0092 5.18346 14.8186 5.09111 14.5957C4.99876 14.3727 4.9746 14.1274 5.02168 13.8907C5.06876 13.654 5.18496 13.4366 5.3556 13.266C5.52624 13.0954 5.74364 12.9792 5.98032 12.9321C6.21701 12.885 6.46233 12.9092 6.68528 13.0015C6.90823 13.0939 7.09879 13.2502 7.23286 13.4509C7.36693 13.6515 7.43849 13.8874 7.43849 14.1288C7.4382 14.4523 7.30956 14.7624 7.0808 14.9912C6.85205 15.22 6.54187 15.3486 6.21836 15.3489Z" fill="url(#paint1_linear_108_20839)"/>
<path d="M12.7398 11.9666C12.3122 11.9666 11.8942 12.0934 11.5386 12.331C11.183 12.5685 10.9059 12.9062 10.7422 13.3013C10.5786 13.6964 10.5358 14.1312 10.6192 14.5506C10.7026 14.97 10.9085 15.3553 11.2109 15.6577C11.5133 15.9601 11.8986 16.166 12.318 16.2494C12.7374 16.3328 13.1722 16.29 13.5673 16.1264C13.9624 15.9627 14.3001 15.6856 14.5377 15.33C14.7752 14.9744 14.902 14.5564 14.902 14.1288C14.9014 13.5555 14.6734 13.0059 14.268 12.6006C13.8627 12.1952 13.3131 11.9672 12.7398 11.9666ZM12.7398 15.3489C12.4985 15.3489 12.2626 15.2773 12.062 15.1433C11.8613 15.0092 11.7049 14.8186 11.6126 14.5957C11.5202 14.3727 11.4961 14.1274 11.5432 13.8907C11.5902 13.654 11.7064 13.4366 11.8771 13.266C12.0477 13.0954 12.2651 12.9792 12.5018 12.9321C12.7385 12.885 12.9838 12.9092 13.2068 13.0015C13.4297 13.0939 13.6203 13.2502 13.7543 13.4509C13.8884 13.6515 13.96 13.8874 13.96 14.1288C13.9596 14.4522 13.831 14.7624 13.6022 14.9911C13.3735 15.2199 13.0633 15.3485 12.7398 15.3489Z" fill="url(#paint2_linear_108_20839)"/>
<path d="M19.2608 11.9666C18.8332 11.9666 18.4152 12.0934 18.0596 12.331C17.704 12.5685 17.4269 12.9062 17.2632 13.3013C17.0996 13.6964 17.0568 14.1312 17.1402 14.5506C17.2236 14.97 17.4295 15.3553 17.7319 15.6577C18.0343 15.9601 18.4196 16.166 18.839 16.2494C19.2584 16.3328 19.6932 16.29 20.0883 16.1264C20.4834 15.9627 20.8211 15.6856 21.0586 15.33C21.2962 14.9744 21.423 14.5564 21.423 14.1288C21.4224 13.5555 21.1944 13.0059 20.789 12.6006C20.3837 12.1952 19.8341 11.9672 19.2608 11.9666ZM19.2608 15.3489C19.0195 15.3489 18.7836 15.2773 18.583 15.1433C18.3823 15.0092 18.2259 14.8186 18.1336 14.5957C18.0412 14.3727 18.0171 14.1274 18.0642 13.8907C18.1112 13.654 18.2274 13.4366 18.3981 13.266C18.5687 13.0954 18.7861 12.9792 19.0228 12.9321C19.2595 12.885 19.5048 12.9092 19.7278 13.0015C19.9507 13.0939 20.1413 13.2502 20.2753 13.4509C20.4094 13.6515 20.481 13.8874 20.481 14.1288C20.4807 14.4523 20.352 14.7624 20.1233 14.9912C19.8945 15.22 19.5843 15.3486 19.2608 15.3489Z" fill="url(#paint3_linear_108_20839)"/>
<path d="M25.7816 11.9666C25.354 11.9665 24.9359 12.0933 24.5803 12.3308C24.2247 12.5684 23.9475 12.906 23.7838 13.3011C23.6201 13.6962 23.5773 14.131 23.6607 14.5504C23.7441 14.9699 23.95 15.3552 24.2523 15.6576C24.5547 15.96 24.94 16.1659 25.3594 16.2494C25.7789 16.3328 26.2136 16.29 26.6087 16.1264C27.0038 15.9628 27.3415 15.6856 27.5791 15.33C27.8167 14.9745 27.9436 14.5564 27.9436 14.1288C27.943 13.5555 27.715 13.0059 27.3097 12.6006C26.9044 12.1952 26.3548 11.9672 25.7816 11.9666ZM25.7816 15.3489C25.5403 15.3489 25.3044 15.2774 25.1037 15.1434C24.903 15.0094 24.7466 14.8188 24.6542 14.5959C24.5618 14.3729 24.5376 14.1276 24.5846 13.8909C24.6317 13.6542 24.7479 13.4368 24.9185 13.2661C25.0891 13.0954 25.3065 12.9792 25.5432 12.9321C25.7799 12.885 26.0252 12.9091 26.2482 13.0015C26.4712 13.0938 26.6617 13.2502 26.7958 13.4509C26.9299 13.6515 27.0015 13.8874 27.0015 14.1288C27.0012 14.4522 26.8726 14.7624 26.6439 14.9911C26.4152 15.2199 26.1051 15.3485 25.7816 15.3489Z" fill="url(#paint4_linear_108_20839)"/>
<path d="M6.21792 18.2881C5.7902 18.288 5.37207 18.4148 5.01641 18.6524C4.66075 18.89 4.38354 19.2277 4.21984 19.6229C4.05613 20.018 4.01328 20.4529 4.09671 20.8724C4.18015 21.2919 4.38611 21.6772 4.68855 21.9797C4.99099 22.2821 5.37634 22.4881 5.79584 22.5715C6.21534 22.6549 6.65017 22.6121 7.04532 22.4484C7.44047 22.2847 7.7782 22.0075 8.0158 21.6518C8.25339 21.2961 8.38018 20.878 8.38013 20.4503C8.37949 19.877 8.15148 19.3274 7.74612 18.9221C7.34077 18.5167 6.79118 18.2887 6.21792 18.2881ZM6.21792 21.6707C5.97654 21.6707 5.74056 21.5992 5.53983 21.4651C5.3391 21.3311 5.18264 21.1405 5.09023 20.9175C4.99782 20.6945 4.97361 20.4491 5.02067 20.2124C5.06773 19.9756 5.18394 19.7581 5.35461 19.5874C5.52527 19.4167 5.74272 19.3005 5.97947 19.2534C6.21621 19.2063 6.4616 19.2304 6.68462 19.3228C6.90763 19.4151 7.09824 19.5715 7.23236 19.7722C7.36647 19.9729 7.43805 20.2089 7.43805 20.4503C7.43741 20.7736 7.30862 21.0835 7.07991 21.312C6.8512 21.5405 6.54122 21.669 6.21792 21.6693V21.6707Z" fill="url(#paint5_linear_108_20839)"/>
<path d="M12.7394 18.2881C12.3117 18.288 11.8936 18.4148 11.5379 18.6524C11.1822 18.89 10.905 19.2277 10.7413 19.6229C10.5776 20.018 10.5348 20.4529 10.6182 20.8724C10.7016 21.2919 10.9076 21.6772 11.21 21.9797C11.5125 22.2821 11.8978 22.4881 12.3173 22.5715C12.7368 22.6549 13.1717 22.6121 13.5668 22.4484C13.962 22.2847 14.2997 22.0075 14.5373 21.6518C14.7749 21.2961 14.9017 20.878 14.9016 20.4503C14.9009 19.8771 14.6729 19.3275 14.2675 18.9222C13.8622 18.5168 13.3126 18.2888 12.7394 18.2881ZM12.7394 21.6707C12.498 21.6707 12.262 21.5992 12.0613 21.4651C11.8606 21.3311 11.7041 21.1405 11.6117 20.9175C11.5193 20.6945 11.4951 20.4491 11.5422 20.2124C11.5892 19.9756 11.7054 19.7581 11.8761 19.5874C12.0468 19.4167 12.2642 19.3005 12.5009 19.2534C12.7377 19.2063 12.9831 19.2304 13.2061 19.3228C13.4291 19.4151 13.6197 19.5715 13.7538 19.7722C13.888 19.9729 13.9595 20.2089 13.9595 20.4503C13.9588 20.7736 13.83 21.0834 13.6013 21.3119C13.3726 21.5404 13.0627 21.6689 12.7394 21.6693V21.6707Z" fill="url(#paint6_linear_108_20839)"/>
<path d="M19.2599 18.2881C18.8322 18.288 18.4141 18.4148 18.0584 18.6524C17.7027 18.89 17.4255 19.2277 17.2618 19.6229C17.0981 20.018 17.0553 20.4529 17.1387 20.8724C17.2221 21.2919 17.4281 21.6772 17.7305 21.9797C18.033 22.2821 18.4183 22.4881 18.8378 22.5715C19.2573 22.6549 19.6922 22.6121 20.0873 22.4484C20.4825 22.2847 20.8202 22.0075 21.0578 21.6518C21.2954 21.2961 21.4222 20.878 21.4221 20.4503C21.4214 19.8771 21.1934 19.3275 20.788 18.9222C20.3827 18.5168 19.8331 18.2888 19.2599 18.2881ZM19.2599 21.6707C19.0185 21.6707 18.7826 21.5992 18.5818 21.4651C18.3811 21.3311 18.2246 21.1405 18.1322 20.9175C18.0398 20.6945 18.0156 20.4491 18.0627 20.2124C18.1097 19.9756 18.2259 19.7581 18.3966 19.5874C18.5673 19.4167 18.7847 19.3005 19.0215 19.2534C19.2582 19.2063 19.5036 19.2304 19.7266 19.3228C19.9496 19.4151 20.1402 19.5715 20.2743 19.7722C20.4085 19.9729 20.48 20.2089 20.48 20.4503C20.4794 20.7736 20.3506 21.0835 20.1219 21.312C19.8932 21.5405 19.5832 21.669 19.2599 21.6693V21.6707Z" fill="url(#paint7_linear_108_20839)"/>
<path d="M25.7812 18.2881C25.3534 18.288 24.9353 18.4147 24.5796 18.6523C24.2239 18.8898 23.9467 19.2276 23.7829 19.6227C23.6192 20.0179 23.5763 20.4527 23.6597 20.8722C23.7431 21.2917 23.949 21.6771 24.2514 21.9796C24.5539 22.282 24.9392 22.488 25.3587 22.5715C25.7782 22.6549 26.2131 22.6121 26.6082 22.4484C27.0034 22.2847 27.3412 22.0075 27.5788 21.6518C27.8164 21.2962 27.9432 20.878 27.9431 20.4503C27.9425 19.8771 27.7145 19.3275 27.3092 18.9222C26.9039 18.5168 26.3544 18.2888 25.7812 18.2881ZM25.7812 21.6707C25.5398 21.6708 25.3038 21.5993 25.103 21.4653C24.9023 21.3312 24.7457 21.1407 24.6533 20.9177C24.5608 20.6947 24.5366 20.4493 24.5836 20.2125C24.6307 19.9758 24.7468 19.7583 24.9175 19.5875C25.0882 19.4168 25.3056 19.3005 25.5424 19.2534C25.7791 19.2063 26.0245 19.2304 26.2475 19.3227C26.4706 19.4151 26.6612 19.5715 26.7953 19.7722C26.9294 19.9729 27.001 20.2089 27.001 20.4503C27.0004 20.7735 26.8716 21.0834 26.643 21.3119C26.4143 21.5404 26.1044 21.6689 25.7812 21.6693V21.6707Z" fill="url(#paint8_linear_108_20839)"/>
<path d="M6.21836 24.6069C5.79072 24.6069 5.37267 24.7337 5.0171 24.9713C4.66153 25.2089 4.38439 25.5466 4.22074 25.9417C4.05709 26.3368 4.01427 26.7715 4.0977 27.191C4.18113 27.6104 4.38706 27.9957 4.68945 28.298C4.99184 28.6004 5.37711 28.8064 5.79653 28.8898C6.21596 28.9732 6.65071 28.9304 7.0458 28.7668C7.44089 28.6031 7.77858 28.326 8.01617 27.9704C8.25375 27.6148 8.38057 27.1968 8.38057 26.7691C8.37999 26.1959 8.15201 25.6462 7.74664 25.2409C7.34127 24.8355 6.79164 24.6075 6.21836 24.6069ZM6.21836 27.9893C5.97704 27.9893 5.74114 27.9177 5.54049 27.7836C5.33984 27.6496 5.18346 27.459 5.09111 27.2361C4.99876 27.0131 4.9746 26.7678 5.02168 26.5311C5.06876 26.2944 5.18496 26.077 5.3556 25.9064C5.52624 25.7357 5.74364 25.6195 5.98032 25.5725C6.21701 25.5254 6.46233 25.5495 6.68528 25.6419C6.90823 25.7342 7.09879 25.8906 7.23286 26.0913C7.36693 26.2919 7.43849 26.5278 7.43849 26.7691C7.4382 27.0927 7.30956 27.4028 7.0808 27.6316C6.85205 27.8603 6.54187 27.989 6.21836 27.9893Z" fill="url(#paint9_linear_108_20839)"/>
<path d="M12.7398 24.6069C12.3122 24.6069 11.8942 24.7337 11.5386 24.9713C11.183 25.2089 10.9059 25.5466 10.7422 25.9417C10.5786 26.3368 10.5358 26.7715 10.6192 27.191C10.7026 27.6104 10.9085 27.9957 11.2109 28.298C11.5133 28.6004 11.8986 28.8064 12.318 28.8898C12.7374 28.9732 13.1722 28.9304 13.5673 28.7668C13.9624 28.6031 14.3001 28.326 14.5377 27.9704C14.7752 27.6148 14.902 27.1968 14.902 26.7691C14.9014 26.1959 14.6734 25.6463 14.268 25.2409C13.8627 24.8356 13.3131 24.6076 12.7398 24.6069ZM12.7398 27.9893C12.4985 27.9893 12.2626 27.9177 12.062 27.7836C11.8613 27.6496 11.7049 27.459 11.6126 27.2361C11.5202 27.0131 11.4961 26.7678 11.5432 26.5311C11.5902 26.2944 11.7064 26.077 11.8771 25.9064C12.0477 25.7357 12.2651 25.6195 12.5018 25.5725C12.7385 25.5254 12.9838 25.5495 13.2068 25.6419C13.4297 25.7342 13.6203 25.8906 13.7543 26.0913C13.8884 26.2919 13.96 26.5278 13.96 26.7691C13.9596 27.0926 13.831 27.4028 13.6022 27.6315C13.3735 27.8602 13.0633 27.9889 12.7398 27.9893Z" fill="url(#paint10_linear_108_20839)"/>
<path d="M19.2608 24.6069C18.8332 24.6069 18.4152 24.7337 18.0596 24.9713C17.704 25.2089 17.4269 25.5466 17.2632 25.9417C17.0996 26.3368 17.0568 26.7715 17.1402 27.191C17.2236 27.6104 17.4295 27.9957 17.7319 28.298C18.0343 28.6004 18.4196 28.8064 18.839 28.8898C19.2584 28.9732 19.6932 28.9304 20.0883 28.7668C20.4834 28.6031 20.8211 28.326 21.0586 27.9704C21.2962 27.6148 21.423 27.1968 21.423 26.7691C21.4224 26.1959 21.1944 25.6463 20.789 25.2409C20.3837 24.8356 19.8341 24.6076 19.2608 24.6069ZM19.2608 27.9893C19.0195 27.9893 18.7836 27.9177 18.583 27.7836C18.3823 27.6496 18.2259 27.459 18.1336 27.2361C18.0412 27.0131 18.0171 26.7678 18.0642 26.5311C18.1112 26.2944 18.2274 26.077 18.3981 25.9064C18.5687 25.7357 18.7861 25.6195 19.0228 25.5725C19.2595 25.5254 19.5048 25.5495 19.7278 25.6419C19.9507 25.7342 20.1413 25.8906 20.2753 26.0913C20.4094 26.2919 20.481 26.5278 20.481 26.7691C20.4807 27.0927 20.352 27.4028 20.1233 27.6316C19.8945 27.8603 19.5843 27.989 19.2608 27.9893Z" fill="url(#paint11_linear_108_20839)"/>
<path d="M25.7816 24.6069C25.354 24.6069 24.9359 24.7336 24.5803 24.9712C24.2247 25.2088 23.9475 25.5464 23.7838 25.9415C23.6201 26.3366 23.5773 26.7714 23.6607 27.1908C23.7441 27.6102 23.95 27.9955 24.2523 28.298C24.5547 28.6004 24.94 28.8063 25.3594 28.8898C25.7789 28.9732 26.2136 28.9304 26.6087 28.7668C27.0038 28.6031 27.3415 28.326 27.5791 27.9704C27.8167 27.6148 27.9436 27.1968 27.9436 26.7691C27.943 26.1959 27.715 25.6463 27.3097 25.241C26.9044 24.8356 26.3548 24.6076 25.7816 24.6069ZM25.7816 27.9893C25.5403 27.9893 25.3044 27.9178 25.1037 27.7838C24.903 27.6497 24.7466 27.4592 24.6542 27.2362C24.5618 27.0133 24.5376 26.768 24.5846 26.5313C24.6317 26.2946 24.7479 26.0771 24.9185 25.9065C25.0891 25.7358 25.3065 25.6196 25.5432 25.5725C25.7799 25.5254 26.0252 25.5495 26.2482 25.6419C26.4712 25.7342 26.6617 25.8906 26.7958 26.0912C26.9299 26.2919 27.0015 26.5278 27.0015 26.7691C27.0012 27.0926 26.8726 27.4027 26.6439 27.6315C26.4152 27.8602 26.1051 27.9889 25.7816 27.9893Z" fill="url(#paint12_linear_108_20839)"/>
<defs>
<linearGradient id="paint0_linear_108_20839" x1="14.0541" y1="-6.58824" x2="31.9143" y2="21.4491" gradientUnits="userSpaceOnUse">
<stop stop-color="#D0AF72"/>
<stop offset="0.474399" stop-color="#F9E7C7"/>
<stop offset="1" stop-color="#D0AF72"/>
</linearGradient>
<linearGradient id="paint1_linear_108_20839" x1="5.95539" y1="11.0762" x2="8.36898" y2="14.8651" gradientUnits="userSpaceOnUse">
<stop stop-color="#D0AF72"/>
<stop offset="0.474399" stop-color="#F9E7C7"/>
<stop offset="1" stop-color="#D0AF72"/>
</linearGradient>
<linearGradient id="paint2_linear_108_20839" x1="12.4769" y1="11.0762" x2="14.8905" y2="14.8651" gradientUnits="userSpaceOnUse">
<stop stop-color="#D0AF72"/>
<stop offset="0.474399" stop-color="#F9E7C7"/>
<stop offset="1" stop-color="#D0AF72"/>
</linearGradient>
<linearGradient id="paint3_linear_108_20839" x1="18.9979" y1="11.0762" x2="21.4115" y2="14.8651" gradientUnits="userSpaceOnUse">
<stop stop-color="#D0AF72"/>
<stop offset="0.474399" stop-color="#F9E7C7"/>
<stop offset="1" stop-color="#D0AF72"/>
</linearGradient>
<linearGradient id="paint4_linear_108_20839" x1="25.5184" y1="11.0762" x2="27.932" y2="14.8651" gradientUnits="userSpaceOnUse">
<stop stop-color="#D0AF72"/>
<stop offset="0.474399" stop-color="#F9E7C7"/>
<stop offset="1" stop-color="#D0AF72"/>
</linearGradient>
<linearGradient id="paint5_linear_108_20839" x1="5.95465" y1="17.3977" x2="8.36854" y2="21.187" gradientUnits="userSpaceOnUse">
<stop stop-color="#D0AF72"/>
<stop offset="0.474399" stop-color="#F9E7C7"/>
<stop offset="1" stop-color="#D0AF72"/>
</linearGradient>
<linearGradient id="paint6_linear_108_20839" x1="12.4761" y1="17.3977" x2="14.89" y2="21.187" gradientUnits="userSpaceOnUse">
<stop stop-color="#D0AF72"/>
<stop offset="0.474399" stop-color="#F9E7C7"/>
<stop offset="1" stop-color="#D0AF72"/>
</linearGradient>
<linearGradient id="paint7_linear_108_20839" x1="18.9966" y1="17.3977" x2="21.4105" y2="21.187" gradientUnits="userSpaceOnUse">
<stop stop-color="#D0AF72"/>
<stop offset="0.474399" stop-color="#F9E7C7"/>
<stop offset="1" stop-color="#D0AF72"/>
</linearGradient>
<linearGradient id="paint8_linear_108_20839" x1="25.5176" y1="17.3977" x2="27.9315" y2="21.187" gradientUnits="userSpaceOnUse">
<stop stop-color="#D0AF72"/>
<stop offset="0.474399" stop-color="#F9E7C7"/>
<stop offset="1" stop-color="#D0AF72"/>
</linearGradient>
<linearGradient id="paint9_linear_108_20839" x1="5.95539" y1="23.7166" x2="8.36899" y2="27.5055" gradientUnits="userSpaceOnUse">
<stop stop-color="#D0AF72"/>
<stop offset="0.474399" stop-color="#F9E7C7"/>
<stop offset="1" stop-color="#D0AF72"/>
</linearGradient>
<linearGradient id="paint10_linear_108_20839" x1="12.4769" y1="23.7166" x2="14.8905" y2="27.5055" gradientUnits="userSpaceOnUse">
<stop stop-color="#D0AF72"/>
<stop offset="0.474399" stop-color="#F9E7C7"/>
<stop offset="1" stop-color="#D0AF72"/>
</linearGradient>
<linearGradient id="paint11_linear_108_20839" x1="18.9979" y1="23.7166" x2="21.4115" y2="27.5055" gradientUnits="userSpaceOnUse">
<stop stop-color="#D0AF72"/>
<stop offset="0.474399" stop-color="#F9E7C7"/>
<stop offset="1" stop-color="#D0AF72"/>
</linearGradient>
<linearGradient id="paint12_linear_108_20839" x1="25.5184" y1="23.7166" x2="27.932" y2="27.5055" gradientUnits="userSpaceOnUse">
<stop stop-color="#D0AF72"/>
<stop offset="0.474399" stop-color="#F9E7C7"/>
<stop offset="1" stop-color="#D0AF72"/>
</linearGradient>
</defs>
</svg>
