<svg width="85" height="33" viewBox="0 0 85 33" fill="none" xmlns="http://www.w3.org/2000/svg">
<mask id="mask0_616_7" style="mask-type:alpha" maskUnits="userSpaceOnUse" x="4" y="0" width="78" height="29">
<path d="M67.5718 28.6966C63.0625 28.6966 59.3911 25.0252 59.3911 20.5159C59.3911 16.0067 63.0625 12.3353 67.5718 12.3353C72.0811 12.3353 75.7525 16.0067 75.7525 20.5159C75.7525 25.0252 72.0811 28.6966 67.5718 28.6966ZM67.5718 13.8434C63.9004 13.8434 60.9145 16.8293 60.9145 20.5007C60.9145 24.1721 63.9004 27.158 67.5718 27.158C71.2432 27.158 74.2291 24.1721 74.2291 20.5007C74.2291 16.8293 71.2432 13.8434 67.5718 13.8434Z" fill="white"/>
<path d="M18.1826 28.6966C13.6734 28.6966 10.002 25.0252 10.002 20.5159C10.002 16.0067 13.6734 12.3353 18.1826 12.3353C22.6919 12.3353 26.3633 16.0067 26.3633 20.5159C26.3633 25.0252 22.6919 28.6966 18.1826 28.6966ZM18.1826 13.8434C14.5112 13.8434 11.5254 16.8293 11.5254 20.5007C11.5254 24.1721 14.5112 27.1732 18.1826 27.1732C21.8541 27.1732 24.8399 24.1874 24.8399 20.5159C24.8399 16.8445 21.8541 13.8434 18.1826 13.8434Z" fill="white"/>
<path d="M18.1829 24.9186C15.7607 24.9186 13.7803 22.9381 13.7803 20.5159C13.7803 18.0937 15.7607 16.1133 18.1829 16.1133C20.6051 16.1133 22.5856 18.0937 22.5856 20.5159C22.5856 22.9381 20.6051 24.9186 18.1829 24.9186ZM18.1829 17.6215C16.5986 17.6215 15.3037 18.9164 15.3037 20.5007C15.3037 22.085 16.5986 23.3799 18.1829 23.3799C19.7673 23.3799 21.0622 22.085 21.0622 20.5007C21.0622 18.9164 19.7673 17.6215 18.1829 17.6215Z" fill="white"/>
<path d="M67.5413 24.9186C65.1191 24.9186 63.1387 22.9381 63.1387 20.5159C63.1387 18.0937 65.1191 16.1133 67.5413 16.1133C69.9635 16.1133 71.944 18.0937 71.944 20.5159C71.944 22.9381 69.9635 24.9186 67.5413 24.9186ZM67.5413 17.6215C65.957 17.6215 64.6621 18.9164 64.6621 20.5007C64.6621 22.085 65.957 23.3799 67.5413 23.3799C69.1257 23.3799 70.4206 22.085 70.4206 20.5007C70.4206 18.9164 69.1257 17.6215 67.5413 17.6215Z" fill="white"/>
<path d="M79.4086 24.8881H74.031V23.3647H78.6469V20.5007C78.6469 20.3941 78.6621 20.2874 78.7078 20.196L80.2922 16.5856L77.2606 14.3157C73.9091 11.8021 69.7654 10.4158 65.5761 10.4158H59.1473C58.995 10.4158 58.8426 10.3701 58.7207 10.2787L51.9721 5.6932C48.2854 3.19482 43.9894 1.86945 39.5411 1.86945H23.6062L5.52341 7.39942V8.13065H6.43745C6.864 8.13065 7.19915 8.4658 7.19915 8.89236V15.443C7.19915 15.8696 6.864 16.2047 6.43745 16.2047H5.52341V20.3636L7.80852 23.3647H11.7084V24.8881H7.42766C7.18392 24.8881 6.97064 24.7815 6.8183 24.5834L4.15234 21.0796C4.0457 20.9425 4 20.7902 4 20.6226V15.443C4 15.0164 4.33515 14.6813 4.7617 14.6813H5.67575V9.65406H4.7617C4.33515 9.65406 4 9.31891 4 8.89236V6.83576C4 6.50061 4.21328 6.21116 4.53319 6.10452L23.2711 0.39175C23.3473 0.376516 23.4234 0.361282 23.4996 0.361282H39.5411C44.2941 0.361282 48.8948 1.77805 52.8252 4.44401L59.3758 8.89236H65.5761C70.0854 8.89236 74.5642 10.3853 78.1746 13.097L81.6937 15.7324C81.9832 15.9457 82.0746 16.3266 81.9375 16.6465L80.1703 20.6683V24.1264C80.1703 24.553 79.8352 24.8881 79.4086 24.8881Z" fill="white"/>
<path d="M50.1895 23.3647H61.097V24.8881H50.1895V23.3647Z" fill="white"/>
<path d="M24.6421 23.3647H47.1428V24.8881H24.6421V23.3647Z" fill="white"/>
<path d="M9.74328 16.2047H6.43748C6.01093 16.2047 5.67578 15.8695 5.67578 15.443V8.89235C5.67578 8.4658 6.01093 8.13065 6.43748 8.13065H9.75851C10.0632 8.13065 10.3374 8.31345 10.4593 8.58767L12.0589 12.32C12.1503 12.5333 12.135 12.7923 12.0284 12.9903L10.4288 15.8086C10.2765 16.0524 10.0175 16.2047 9.74328 16.2047ZM7.19919 14.6813H9.30149L10.4897 12.579L9.25579 9.65405H7.19919V14.6813Z" fill="white"/>
<path d="M54.4247 10.1111H42.9991C42.9534 10.1111 42.923 10.1111 42.8773 10.0958L27.567 7.73457L27.7956 6.2264L43.0601 8.58767H52.0482L51.4236 8.14589C47.6455 5.44946 43.1972 4.01746 38.5508 4.01746H24.9773L20.9859 5.19048L24.764 5.76937L24.5355 7.27754L17.3755 6.18069C17.0251 6.11976 16.7509 5.83031 16.7356 5.47993C16.7052 5.12954 16.9337 4.79439 17.2841 4.70299L24.6726 2.53975C24.7487 2.52452 24.8097 2.50928 24.8859 2.50928H38.566C43.5323 2.50928 48.2854 4.03269 52.3224 6.91193L54.8817 8.74002C55.1559 8.93806 55.2626 9.27321 55.1712 9.59312C55.0493 9.89781 54.7598 10.1111 54.4247 10.1111Z" fill="white"/>
<path d="M33.7371 8.69431C33.6914 8.69431 33.661 8.69431 33.6153 8.67908L30.5075 8.20682C30.1419 8.14588 29.8677 7.82597 29.8677 7.46035V3.25575C29.8677 2.8292 30.2028 2.49405 30.6294 2.49405H33.7371C34.1637 2.49405 34.4988 2.8292 34.4988 3.25575V7.91737C34.4988 8.14588 34.4074 8.34393 34.2398 8.49627C34.1027 8.61814 33.9199 8.69431 33.7371 8.69431ZM31.3911 6.79005L32.9754 7.0338V4.01745H31.3911V6.79005Z" fill="white"/>
<path d="M58.2638 21.2624L33.4932 19.7847C33.2799 19.7695 33.0819 19.6628 32.9448 19.4953L28.2374 13.554C28.0851 13.3712 28.0394 13.1274 28.1003 12.8989C28.1613 12.6704 28.3136 12.4876 28.5269 12.3809L33.4475 10.172C33.5846 10.1111 33.7217 10.0958 33.874 10.1111L58.0048 13.7672L57.7763 15.2754L33.8588 11.6649L30.0503 13.3712L33.935 18.2765L58.3704 19.739L58.2638 21.2624Z" fill="white"/>
<path d="M76.5142 15.5953H81.2367V17.1187H76.5142V15.5953Z" fill="white"/>
</mask>
<g mask="url(#mask0_616_7)">
<rect x="-0.034668" y="-1.75201" width="84.3399" height="34.197" rx="12" fill="url(#paint0_linear_616_7)"/>
</g>
<defs>
<linearGradient id="paint0_linear_616_7" x1="7.8109" y1="1.60064" x2="75.7965" y2="20.4127" gradientUnits="userSpaceOnUse">
<stop stop-color="#B48A3D"/>
<stop offset="0.478771" stop-color="#FCECCE"/>
<stop offset="1" stop-color="#CCAB6C"/>
</linearGradient>
</defs>
</svg>
