<svg width="26" height="26" viewBox="0 0 26 26" fill="none" xmlns="http://www.w3.org/2000/svg">
<mask id="mask0_325_11" style="mask-type:alpha" maskUnits="userSpaceOnUse" x="0" y="0" width="26" height="26">
<path d="M13 0C5.83189 0 0 5.83189 0 13C0 20.1681 5.83189 26 13 26C20.1681 26 26 20.1681 26 13C26 5.83189 20.1681 0 13 0ZM25.0598 12.5357H21.7982C21.6891 10.4539 20.8585 8.56468 19.5478 7.10914L21.8525 4.80443C23.7501 6.85239 24.9461 9.55732 25.0598 12.5357ZM7.10914 19.5474C8.56468 20.8585 10.4539 21.6886 12.5357 21.7977V25.0594C9.55732 24.9461 6.85239 23.7496 4.80443 21.8521L7.10914 19.5474ZM13.4643 21.7977C15.5461 21.6886 17.4353 20.858 18.8909 19.5474L21.1956 21.8521C19.1476 23.7501 16.4427 24.9461 13.4643 25.0598V21.7977ZM13 20.8929C8.64778 20.8929 5.10714 17.3522 5.10714 13C5.10714 8.64778 8.64778 5.10714 13 5.10714C17.3522 5.10714 20.8929 8.64778 20.8929 13C20.8929 17.3522 17.3522 20.8929 13 20.8929ZM18.8909 6.45264C17.4353 5.1415 15.5461 4.31136 13.4643 4.20225V0.940178C16.4427 1.05346 19.1476 2.24993 21.1956 4.14746L18.8909 6.45264ZM12.5357 4.20225C10.4539 4.31136 8.56468 5.14196 7.10914 6.45264L4.80443 4.14793C6.85239 2.24993 9.55732 1.05393 12.5357 0.940178V4.20225ZM4.14746 4.80443L6.45218 7.10914C5.14104 8.56468 4.31089 10.4539 4.20179 12.5357H0.940178C1.05393 9.55732 2.24993 6.85239 4.14746 4.80443ZM0.940178 13.4643H4.20179C4.31089 15.5461 5.1415 17.4353 6.45218 18.8909L4.14746 21.1956C2.24993 19.1476 1.05393 16.4427 0.940178 13.4643ZM21.8525 21.1956L19.5478 18.8909C20.859 17.4353 21.6891 15.5461 21.7982 13.4643H25.0598C24.9461 16.4427 23.7501 19.1476 21.8525 21.1956Z" fill="white"/>
<path d="M12.0252 13.6597H12.8081C12.7478 14.0846 12.5917 14.445 12.29 14.7373C11.8959 15.1191 11.3868 15.31 10.7628 15.31C10.0978 15.31 9.54561 15.0944 9.10635 14.6634C8.67119 14.2282 8.45361 13.6987 8.45361 13.0747C8.45361 12.4466 8.66914 11.9149 9.10019 11.4798C9.53535 11.0446 10.0731 10.827 10.7136 10.827C11.1118 10.827 11.4771 10.9173 11.8097 11.098C12.1422 11.2786 12.4029 11.5229 12.5917 11.8308L11.8651 12.2495C11.7625 12.073 11.6065 11.9293 11.3971 11.8184C11.1877 11.7076 10.9578 11.6522 10.7074 11.6522C10.2928 11.6522 9.95409 11.7877 9.69135 12.0586C9.42861 12.3213 9.29725 12.66 9.29725 13.0747C9.29725 13.4811 9.43067 13.8177 9.69751 14.0846C9.96435 14.3473 10.3215 14.4787 10.769 14.4787C11.0933 14.4787 11.3642 14.4068 11.5818 14.2631C11.7994 14.1194 11.9472 13.9183 12.0252 13.6597Z" fill="white"/>
<path d="M15.5546 12.9084H17.7161V13.2409C17.7161 13.8567 17.519 14.3555 17.1249 14.7373C16.7308 15.1191 16.2217 15.31 15.5977 15.31C14.9327 15.31 14.3805 15.0944 13.9413 14.6634C13.5061 14.2282 13.2885 13.6987 13.2885 13.0747C13.2885 12.4466 13.5041 11.9149 13.9351 11.4798C14.3703 11.0446 14.9081 10.827 15.5485 10.827C15.9467 10.827 16.3121 10.9173 16.6446 11.098C16.9771 11.2786 17.2378 11.5229 17.4266 11.8308L16.7 12.2495C16.5974 12.073 16.4414 11.9293 16.232 11.8184C16.0226 11.7076 15.7927 11.6522 15.5423 11.6522C15.1277 11.6522 14.789 11.7877 14.5263 12.0586C14.2635 12.3213 14.1322 12.66 14.1322 13.0747C14.1322 13.4811 14.2656 13.8177 14.5324 14.0846C14.7993 14.3473 15.1564 14.4787 15.6039 14.4787C15.9282 14.4787 16.1992 14.4068 16.4167 14.2631C16.6343 14.1194 16.7821 13.9183 16.8601 13.6597H15.5546V12.9084Z" fill="white"/>
</mask>
<g mask="url(#mask0_325_11)">
<rect x="-1.49951" width="29" height="26.25" fill="white"/>
</g>
</svg>
