<svg width="37" height="37" viewBox="0 0 37 37" fill="none" xmlns="http://www.w3.org/2000/svg">
<path d="M31.5815 5.41848C28.0873 1.92436 23.4415 0 18.5 0C13.5585 0 8.91266 1.92436 5.41848 5.41848C1.92436 8.91266 0 13.5585 0 18.5C0 23.4415 1.92436 28.0873 5.41848 31.5815C8.91266 35.0756 13.5585 37 18.5 37C23.4415 37 28.0873 35.0756 31.5815 31.5815C35.0756 28.0873 37 23.4415 37 18.5C37 13.5585 35.0756 8.91266 31.5815 5.41848ZM30.815 30.815C27.5255 34.1045 23.152 35.916 18.5 35.916C13.848 35.916 9.47446 34.1045 6.185 30.815C2.89554 27.5255 1.08398 23.152 1.08398 18.5C1.08398 13.848 2.89554 9.47446 6.185 6.185C9.47446 2.89554 13.848 1.08398 18.5 1.08398C23.152 1.08398 27.5255 2.89554 30.815 6.185C34.1045 9.47446 35.916 13.848 35.916 18.5C35.916 23.152 34.1045 27.5255 30.815 30.815Z" fill="url(#paint0_linear_108_20854)"/>
<path d="M24.2894 32.206C22.6214 32.9115 20.8584 33.2994 19.0416 33.3639V31.4642C19.0416 31.1648 18.799 30.9222 18.4997 30.9222C18.2003 30.9222 17.9577 31.1648 17.9577 31.4642V33.3637C14.2647 33.2308 10.911 31.7453 8.37748 29.3886L9.71584 28.0503C9.9275 27.8386 9.9275 27.4954 9.71584 27.2837C9.50417 27.0721 9.16098 27.0721 8.94931 27.2837L7.61095 28.6221C5.25423 26.0887 3.76888 22.735 3.63591 19.042H5.53556C5.83488 19.042 6.07755 18.7993 6.07755 18.5C6.07755 18.2007 5.83488 17.958 5.53556 17.958H3.6357C3.76592 14.3498 5.19201 10.9637 7.60488 8.37168L8.94939 9.71618C9.05518 9.82205 9.19393 9.87494 9.33261 9.87494C9.47129 9.87494 9.61004 9.82205 9.71584 9.71625C9.9275 9.50458 9.9275 9.16139 9.71584 8.94973L8.37177 7.60566C8.96861 7.05138 9.6143 6.54075 10.3074 6.08259C10.5571 5.91754 10.6257 5.58128 10.4606 5.33153C10.2955 5.08186 9.9593 5.0132 9.70962 5.17833C5.22084 8.14585 2.54102 13.126 2.54102 18.5C2.54102 22.7627 4.20103 26.7703 7.21523 29.7845C10.2294 32.7987 14.237 34.4587 18.4997 34.4587C20.6539 34.4587 22.7439 34.0367 24.7117 33.2044C24.9874 33.0877 25.1164 32.7698 24.9997 32.4941C24.8831 32.2183 24.5651 32.0893 24.2894 32.206Z" fill="url(#paint1_linear_108_20854)"/>
<path d="M29.7839 7.21552C26.7697 4.20132 22.7622 2.54138 18.4994 2.54138C16.1179 2.54138 13.8267 3.05346 11.6895 4.0633C11.4189 4.19121 11.3031 4.51423 11.431 4.78487C11.5588 5.05557 11.8819 5.1712 12.1526 5.04336C13.9812 4.17928 15.9317 3.70753 17.9574 3.63606V5.53585C17.9574 5.83518 18.2001 6.07784 18.4994 6.07784C18.7988 6.07784 19.0414 5.83518 19.0414 5.53585V3.63628C22.7344 3.76925 26.0881 5.25467 28.6216 7.61139L27.2833 8.94975C27.0716 9.16142 27.0716 9.50461 27.2833 9.71627C27.3891 9.82207 27.5278 9.87497 27.6665 9.87497C27.8052 9.87497 27.9439 9.82207 28.0497 9.7162L29.3881 8.37784C31.7449 10.9113 33.2302 14.265 33.3632 17.958H31.4635C31.1642 17.958 30.9215 18.2007 30.9215 18.5C30.9215 18.7993 31.1642 19.042 31.4635 19.042H33.3635C33.2756 21.4562 32.6032 23.8178 31.4037 25.9036C30.8387 26.8862 30.1616 27.7994 29.3923 28.6264L28.0497 27.2838C27.838 27.0721 27.4949 27.0721 27.2832 27.2838C27.0715 27.4954 27.0715 27.8386 27.2832 28.0503L28.6254 29.3925C27.8862 30.0803 27.0783 30.6952 26.2121 31.2216C25.9562 31.377 25.8749 31.7104 26.0303 31.9662C26.1324 32.1341 26.3109 32.2269 26.494 32.2268C26.5899 32.2268 26.687 32.2014 26.7749 32.148C29.0761 30.7497 31.0017 28.7773 32.3434 26.444C33.7268 24.038 34.4581 21.2911 34.4581 18.5C34.4581 14.2373 32.7981 10.2297 29.7839 7.21552Z" fill="url(#paint2_linear_108_20854)"/>
<path d="M24.6827 11.3417L19.2005 16.8239C18.9883 16.7221 18.7507 16.665 18.5 16.665C18.2493 16.665 18.0117 16.7221 17.7994 16.8239L14.8324 13.857C14.6208 13.6454 14.2776 13.6454 14.066 13.857C13.8543 14.0687 13.8543 14.4119 14.066 14.6235L17.0329 17.5903C16.9311 17.8026 16.874 18.0402 16.874 18.2909C16.874 19.1875 17.6034 19.9169 18.5 19.9169C19.3966 19.9169 20.126 19.1875 20.126 18.2909C20.126 18.0403 20.0689 17.8026 19.967 17.5903L25.4492 12.1082C25.6608 11.8965 25.6608 11.5533 25.4492 11.3417C25.2375 11.1301 24.8943 11.1301 24.6827 11.3417ZM18.5 18.8329C18.2011 18.8329 17.958 18.5898 17.958 18.2909C17.958 17.9921 18.2011 17.749 18.5 17.749C18.7989 17.749 19.042 17.9921 19.042 18.2909C19.042 18.5898 18.7989 18.8329 18.5 18.8329Z" fill="url(#paint3_linear_108_20854)"/>
<path d="M20.415 24.751C20.7144 24.751 20.957 24.5083 20.957 24.209C20.957 23.9097 20.7144 23.667 20.415 23.667H16.585C16.2856 23.667 16.043 23.9097 16.043 24.209C16.043 24.5083 16.2856 24.751 16.585 24.751H20.415Z" fill="url(#paint4_linear_108_20854)"/>
<defs>
<linearGradient id="paint0_linear_108_20854" x1="16.25" y1="-7.61765" x2="36.9009" y2="24.8006" gradientUnits="userSpaceOnUse">
<stop stop-color="#D0AF72"/>
<stop offset="0.474399" stop-color="#F9E7C7"/>
<stop offset="1" stop-color="#D0AF72"/>
</linearGradient>
<linearGradient id="paint1_linear_108_20854" x1="12.4235" y1="-0.958452" x2="30.2076" y2="20.4304" gradientUnits="userSpaceOnUse">
<stop stop-color="#D0AF72"/>
<stop offset="0.474399" stop-color="#F9E7C7"/>
<stop offset="1" stop-color="#D0AF72"/>
</linearGradient>
<linearGradient id="paint2_linear_108_20854" x1="21.515" y1="-3.57032" x2="39.44" y2="18.3065" gradientUnits="userSpaceOnUse">
<stop stop-color="#D0AF72"/>
<stop offset="0.474399" stop-color="#F9E7C7"/>
<stop offset="1" stop-color="#D0AF72"/>
</linearGradient>
<linearGradient id="paint3_linear_108_20854" x1="19.0461" y1="9.38482" x2="23.218" y2="18.1587" gradientUnits="userSpaceOnUse">
<stop stop-color="#D0AF72"/>
<stop offset="0.474399" stop-color="#F9E7C7"/>
<stop offset="1" stop-color="#D0AF72"/>
</linearGradient>
<linearGradient id="paint4_linear_108_20854" x1="18.2012" y1="23.4438" x2="18.3852" y2="24.7531" gradientUnits="userSpaceOnUse">
<stop stop-color="#D0AF72"/>
<stop offset="0.474399" stop-color="#F9E7C7"/>
<stop offset="1" stop-color="#D0AF72"/>
</linearGradient>
</defs>
</svg>
