<svg width="11" height="13" viewBox="0 0 11 13" fill="none" xmlns="http://www.w3.org/2000/svg">
<path d="M4.37503 10.6316C3.20352 10.6316 2.25 9.62786 2.25 8.39469V3H1.37503C0.616516 3 0 3.64887 0 4.44731V11.5526C0 12.351 0.616516 13 1.37503 13H7.62497C8.38348 13 9 12.351 9 11.5526V10.6316H4.37503Z" fill="url(#paint0_linear_616_6)"/>
<path d="M11 1.52781C11 0.683899 10.3845 0 9.62506 0H4.37504C3.61551 0 3 0.683899 3 1.52781V8.47219C3 9.3161 3.61551 10 4.37504 10H9.62506C10.3845 10 11 9.3161 11 8.47219V1.52781Z" fill="url(#paint1_linear_616_6)"/>
<defs>
<linearGradient id="paint0_linear_616_6" x1="3.9527" y1="0.941176" x2="9.76091" y2="9.14723" gradientUnits="userSpaceOnUse">
<stop stop-color="#D0AF72"/>
<stop offset="0.474399" stop-color="#F9E7C7"/>
<stop offset="1" stop-color="#D0AF72"/>
</linearGradient>
<linearGradient id="paint1_linear_616_6" x1="6.51351" y1="-2.05882" x2="12.5156" y2="5.47895" gradientUnits="userSpaceOnUse">
<stop stop-color="#D0AF72"/>
<stop offset="0.474399" stop-color="#F9E7C7"/>
<stop offset="1" stop-color="#D0AF72"/>
</linearGradient>
</defs>
</svg>
