<svg width="36" height="36" viewBox="0 0 36 36" fill="none" xmlns="http://www.w3.org/2000/svg">
<path d="M5.38508 0.321761C5.28635 0.331472 5.19134 0.364585 5.10792 0.418288C5.0245 0.47199 4.95506 0.544805 4.90535 0.630661L0.544996 8.10374C0.544995 8.10416 0.544995 8.10462 0.544996 8.10504C0.544154 8.10661 0.54332 8.10815 0.542492 8.10973L0.531484 8.12861C0.529355 8.13253 0.527268 8.13648 0.525224 8.14044C0.518746 8.15205 0.512641 8.1639 0.506917 8.17591C0.504772 8.1806 0.502685 8.18528 0.500657 8.19003C0.493438 8.20644 0.486928 8.22317 0.481145 8.24014C0.479854 8.24406 0.478602 8.24801 0.477389 8.25196C0.473413 8.26288 0.469743 8.27392 0.466382 8.28505C0.463141 8.29755 0.460289 8.31014 0.45783 8.32282C0.455891 8.33333 0.454221 8.34388 0.452822 8.35447C0.451395 8.36295 0.450143 8.37146 0.449066 8.37999C0.447918 8.39138 0.447083 8.40279 0.446563 8.41423C0.445898 8.42438 0.445481 8.43456 0.445312 8.44472C0.445481 8.45489 0.445898 8.46507 0.446563 8.47522C0.447083 8.48666 0.447918 8.49807 0.449066 8.50946C0.45014 8.51807 0.451392 8.52664 0.452822 8.5352C0.454473 8.54865 0.456561 8.56203 0.459082 8.57535C0.460653 8.58167 0.462323 8.58796 0.46409 8.59424C0.467362 8.60695 0.471033 8.61953 0.475098 8.63201C0.478463 8.64306 0.482134 8.65404 0.486106 8.66488C0.488115 8.67042 0.490201 8.67591 0.492366 8.68139C0.497289 8.69336 0.502583 8.70522 0.50824 8.71686C0.512126 8.72506 0.51619 8.73313 0.520429 8.74115C0.526952 8.75319 0.533869 8.76504 0.541169 8.77662C0.542406 8.77899 0.543658 8.78133 0.544925 8.78369C0.545341 8.7841 0.545758 8.78449 0.546175 8.78491C0.547419 8.78649 0.548671 8.7881 0.549931 8.78967L17.4103 35.0141C17.4646 35.1059 17.5416 35.1824 17.6338 35.2361C17.726 35.2898 17.8305 35.319 17.9372 35.3209C18.044 35.3228 18.1494 35.2973 18.2435 35.2469C18.3376 35.1965 18.4172 35.1228 18.4747 35.0329L35.3473 8.78542C35.3583 8.76805 35.3685 8.75015 35.3778 8.73178C35.3778 8.73136 35.3778 8.7309 35.3778 8.73048C35.3873 8.71218 35.3958 8.69348 35.4034 8.67433C35.4188 8.63526 35.4303 8.59472 35.4376 8.55336C35.441 8.53318 35.4435 8.5128 35.4449 8.49237C35.4449 8.49196 35.4449 8.49157 35.4449 8.49115C35.4463 8.47087 35.4468 8.45056 35.4462 8.43023C35.4462 8.42982 35.4462 8.42935 35.4462 8.42894C35.4455 8.40855 35.4439 8.38824 35.4412 8.36802C35.4412 8.36761 35.4412 8.36721 35.4412 8.3668C35.4385 8.34671 35.4348 8.32676 35.4301 8.30703C35.4301 8.30663 35.4301 8.30622 35.4301 8.30581C35.4289 8.30186 35.4276 8.29791 35.4263 8.29399C35.4173 8.25753 35.4051 8.22192 35.3897 8.18766C35.3809 8.16883 35.3711 8.1505 35.3604 8.13265C35.3604 8.13223 35.3604 8.13177 35.3604 8.13135C35.3592 8.12898 35.3579 8.12664 35.3566 8.12429L30.9865 0.632824C30.9316 0.538393 30.853 0.460031 30.7584 0.405456C30.6638 0.35088 30.5566 0.321988 30.4473 0.321761H20.4754H15.3839H5.4449C5.42497 0.320806 5.40501 0.320806 5.38508 0.321761H5.38508ZM5.80501 1.56688H14.3621L10.7147 7.81813H2.15998L5.80501 1.56688ZM15.8074 1.56688H20.0897L23.7347 7.81813H12.1624L15.8074 1.56688ZM21.535 1.56688H30.0872L33.7323 7.81813H25.1824L21.535 1.56688ZM2.21614 9.06937H10.5914L16.347 31.0493L2.21614 9.06937ZM11.8865 9.06937H24.0106L17.9486 32.2298L11.8865 9.06937ZM25.3057 9.06937H33.6761L19.5501 31.0481L25.3057 9.06937Z" fill="#B6B6B6"/>
</svg>
