<svg width="40" height="40" viewBox="0 0 40 40" fill="none" xmlns="http://www.w3.org/2000/svg">
<g opacity="0.7">
<path d="M12.0002 28.7667H13.3335C13.6464 28.7667 13.9002 29.0205 13.9002 29.3334C13.9002 29.6464 13.6464 29.9001 13.3335 29.9001H12.0002C11.6872 29.9001 11.4335 29.6464 11.4335 29.3334C11.4335 29.0205 11.6872 28.7667 12.0002 28.7667Z" fill="white" stroke="black" stroke-width="0.2"/>
<path d="M16.0002 28.7667H32.0002C32.3131 28.7667 32.5668 29.0205 32.5668 29.3334C32.5668 29.6464 32.3131 29.9001 32.0002 29.9001H16.0002C15.6872 29.9001 15.4335 29.6464 15.4335 29.3334C15.4335 29.0205 15.6872 28.7667 16.0002 28.7667Z" fill="white" stroke="black" stroke-width="0.2"/>
<path d="M12.0002 24.7667H13.3335C13.6464 24.7667 13.9002 25.0205 13.9002 25.3334C13.9002 25.6464 13.6464 25.9001 13.3335 25.9001H12.0002C11.6872 25.9001 11.4335 25.6464 11.4335 25.3334C11.4335 25.0205 11.6872 24.7667 12.0002 24.7667Z" fill="white" stroke="black" stroke-width="0.2"/>
<path d="M16.0002 24.7667H32.0002C32.3131 24.7667 32.5668 25.0205 32.5668 25.3334C32.5668 25.6464 32.3131 25.9001 32.0002 25.9001H16.0002C15.6872 25.9001 15.4335 25.6464 15.4335 25.3334C15.4335 25.0205 15.6872 24.7667 16.0002 24.7667Z" fill="white" stroke="black" stroke-width="0.2"/>
<path d="M12.0002 20.7667H13.3335C13.6464 20.7667 13.9002 21.0205 13.9002 21.3334C13.9002 21.6464 13.6464 21.9001 13.3335 21.9001H12.0002C11.6872 21.9001 11.4335 21.6464 11.4335 21.3334C11.4335 21.0205 11.6872 20.7667 12.0002 20.7667Z" fill="white" stroke="black" stroke-width="0.2"/>
<path d="M16.0002 20.7667H32.0002C32.3131 20.7667 32.5668 21.0205 32.5668 21.3334C32.5668 21.6464 32.3131 21.9001 32.0002 21.9001H16.0002C15.6872 21.9001 15.4335 21.6464 15.4335 21.3334C15.4335 21.0205 15.6872 20.7667 16.0002 20.7667Z" fill="white" stroke="black" stroke-width="0.2"/>
<path d="M12.0002 16.7667H13.3335C13.6464 16.7667 13.9002 17.0205 13.9002 17.3334C13.9002 17.6464 13.6464 17.9001 13.3335 17.9001H12.0002C11.6872 17.9001 11.4335 17.6464 11.4335 17.3334C11.4335 17.0205 11.6872 16.7667 12.0002 16.7667Z" fill="white" stroke="black" stroke-width="0.2"/>
<path d="M16.0002 16.7667H32.0002C32.3131 16.7667 32.5668 17.0205 32.5668 17.3334C32.5668 17.6464 32.3131 17.9001 32.0002 17.9001H16.0002C15.6872 17.9001 15.4335 17.6464 15.4335 17.3334C15.4335 17.0205 15.6872 16.7667 16.0002 16.7667Z" fill="white" stroke="black" stroke-width="0.2"/>
<path d="M12.0002 12.7667H13.3335C13.6464 12.7667 13.9002 13.0205 13.9002 13.3334C13.9002 13.6464 13.6464 13.9001 13.3335 13.9001H12.0002C11.6872 13.9001 11.4335 13.6464 11.4335 13.3334C11.4335 13.0205 11.6872 12.7667 12.0002 12.7667Z" fill="white" stroke="black" stroke-width="0.2"/>
<path d="M16.0002 12.7667H32.0002C32.3131 12.7667 32.5668 13.0205 32.5668 13.3334C32.5668 13.6464 32.3131 13.9001 32.0002 13.9001H16.0002C15.6872 13.9001 15.4335 13.6464 15.4335 13.3334C15.4335 13.0205 15.6872 12.7667 16.0002 12.7667Z" fill="white" stroke="black" stroke-width="0.2"/>
<path d="M36.5583 9.9637L36.5583 9.9637C36.5555 9.91451 36.5459 9.866 36.5297 9.81957L36.5296 9.81918C36.5253 9.80674 36.5226 9.79805 36.5204 9.79112C36.5172 9.78075 36.5152 9.77431 36.511 9.76516L36.5109 9.76482C36.4834 9.70338 36.4452 9.64728 36.3979 9.59919C36.3978 9.59906 36.3977 9.59893 36.3976 9.5988L27.0654 0.266618C27.0653 0.266546 27.0652 0.266473 27.0651 0.266401C27.017 0.219104 26.9609 0.180792 26.8993 0.15329L26.899 0.153138C26.8898 0.14896 26.8838 0.147101 26.8746 0.144194C26.8676 0.142007 26.8588 0.139227 26.8452 0.134421M36.5583 9.9637L26.8782 0.04M36.5583 9.9637L36.5586 9.96705C36.5595 9.97758 36.5615 9.98653 36.5631 9.99308C36.5644 9.99806 36.5659 10.0032 36.5667 10.0059L36.5668 10.0064M36.5583 9.9637L26.6614 0.1M26.8452 0.134421C26.8451 0.134362 26.8449 0.134302 26.8447 0.134243L26.8782 0.04M26.8452 0.134421C26.8454 0.134469 26.8455 0.134518 26.8457 0.134567L26.8782 0.04M26.8452 0.134421C26.8001 0.11896 26.7533 0.109274 26.7058 0.105604M26.8782 0.04C26.8224 0.0208333 26.7643 0.00916667 26.7055 0.00533333M26.7058 0.105604C26.7111 0.105419 26.7168 0.104882 26.7229 0.103812L26.7055 0.00533333M26.7058 0.105604C26.6969 0.105913 26.6892 0.105238 26.6834 0.104445C26.6747 0.103269 26.667 0.10138 26.6637 0.100564L26.6635 0.100504C26.6627 0.10031 26.662 0.100143 26.6614 0.1M26.7058 0.105604C26.7035 0.10543 26.7013 0.105269 26.699 0.105122L26.7055 0.00533333M26.7055 0.00533333L26.6614 0.1M26.6614 0.1H26.6668C26.6623 0.1 26.6582 0.0992424 26.6582 0.0992638C26.6582 0.0992741 26.6591 0.0994632 26.6614 0.1ZM26.6614 0.1H8.00016C7.68723 0.1 7.4335 0.353728 7.4335 0.666667V2.66667V2.76667H7.3335H4.00016C3.68722 2.76667 3.4335 3.0204 3.4335 3.33333V39.3333C3.4335 39.6463 3.68722 39.9 4.00016 39.9H32.0002C32.3131 39.9 32.5668 39.6463 32.5668 39.3333V36V35.9H32.6668H36.0002C36.3131 35.9 36.5668 35.6463 36.5668 35.3333V10.0064M36.5668 10.0064L36.567 10.0071C36.5675 10.0087 36.5677 10.0096 36.5678 10.01C36.5676 10.0091 36.5668 10.0051 36.5668 10V10.0064ZM27.4042 2.20529L27.2335 2.03458V2.276V9.33333V9.43333H27.3335H34.3908H34.6323L34.4615 9.26262L27.4042 2.20529ZM31.3335 38.7667H31.4335V38.6667V36V35.9H31.3335H8.00016C7.68723 35.9 7.4335 35.6463 7.4335 35.3333V4V3.9H7.3335H4.66683H4.56683V4V38.6667V38.7667H4.66683H31.3335ZM35.3335 34.7667H35.4335V34.6667V10.6667V10.5667H35.3335H26.6668C26.3539 10.5667 26.1002 10.3129 26.1002 10V1.33333V1.23333H26.0002H8.66683H8.56683V1.33333V34.6667V34.7667H8.66683H35.3335Z" fill="white" stroke="black" stroke-width="0.2"/>
<path d="M15.3335 10.1H15.4335V10V7.33333V7.23333H15.3335H12.6668H12.5668V7.33333V10V10.1H12.6668H15.3335ZM12.0002 6.1H16.0002C16.3131 6.1 16.5668 6.35373 16.5668 6.66667V10.6667C16.5668 10.9796 16.3131 11.2333 16.0002 11.2333H12.0002C11.6872 11.2333 11.4335 10.9796 11.4335 10.6667V6.66667C11.4335 6.35373 11.6872 6.1 12.0002 6.1Z" fill="white" stroke="black" stroke-width="0.2"/>
</g>
</svg>
