<svg width="37" height="37" viewBox="0 0 37 37" fill="none" xmlns="http://www.w3.org/2000/svg">
<path d="M8.72891 3.87653C11.6212 1.94399 15.0215 0.9125 18.5 0.9125C23.1645 0.9125 27.6379 2.76546 30.9362 6.06376C34.2345 9.36205 36.0875 13.8355 36.0875 18.5C36.0875 21.9785 35.056 25.3788 33.1235 28.2711C31.1909 31.1633 28.4441 33.4176 25.2304 34.7487C22.0168 36.0799 18.4805 36.4282 15.0689 35.7496C11.6572 35.0709 8.52342 33.3959 6.06377 30.9362C3.60411 28.4766 1.92906 25.3428 1.25045 21.9311C0.571829 18.5195 0.920121 14.9832 2.25128 11.7696C3.58243 8.55586 5.83667 5.80907 8.72891 3.87653ZM9.76367 31.5749C12.3496 33.3027 15.3899 34.225 18.5 34.225C22.6705 34.225 26.6702 32.5683 29.6193 29.6193C32.5683 26.6702 34.225 22.6705 34.225 18.5C34.225 15.3899 33.3027 12.3496 31.5749 9.76366C29.847 7.1777 27.3911 5.16218 24.5177 3.97199C21.6443 2.78181 18.4826 2.4704 15.4322 3.07715C12.3819 3.6839 9.57993 5.18156 7.38075 7.38074C5.18157 9.57993 3.68391 12.3819 3.07716 15.4322C2.47041 18.4826 2.78181 21.6443 3.972 24.5177C5.16219 27.3911 7.1777 29.847 9.76367 31.5749Z" fill="white" stroke="#191919" stroke-width="0.7"/>
<path d="M10.8644 7.07249C13.1245 5.56231 15.7817 4.75625 18.5 4.75625C22.1451 4.75625 25.6409 6.20425 28.2183 8.7817C30.7958 11.3592 32.2438 14.8549 32.2438 18.5C32.2438 21.2183 31.4377 23.8755 29.9275 26.1356C28.4173 28.3958 26.2709 30.1573 23.7595 31.1976C21.2482 32.2378 18.4848 32.51 15.8187 31.9797C13.1527 31.4494 10.7038 30.1404 8.78171 28.2183C6.85961 26.2962 5.55064 23.8473 5.02034 21.1813C4.49003 18.5152 4.76221 15.7518 5.80244 13.2405C6.84267 10.7292 8.60424 8.58267 10.8644 7.07249ZM11.8991 28.3789C13.853 29.6844 16.1501 30.3813 18.5 30.3813C21.6511 30.3813 24.6731 29.1295 26.9013 26.9013C29.1295 24.6731 30.3813 21.6511 30.3813 18.5C30.3813 16.1501 29.6844 13.853 28.3789 11.8991C27.0734 9.94527 25.2178 8.42242 23.0468 7.52316C20.8757 6.62389 18.4868 6.3886 16.1821 6.84705C13.8774 7.30549 11.7603 8.43706 10.0987 10.0987C8.43707 11.7603 7.30549 13.8773 6.84705 16.1821C6.38861 18.4868 6.6239 20.8757 7.52316 23.0468C8.42243 25.2178 9.94527 27.0734 11.8991 28.3789Z" fill="white" stroke="#191919" stroke-width="0.7"/>
<mask id="path-3-inside-1_17_712" fill="white">
<path d="M18.3675 17.0857C16.956 16.5973 16.722 16.2785 16.7271 15.7381C16.7372 14.6843 17.8618 14.5725 18.3428 14.5773C19.0508 14.5802 20.1741 14.8919 20.1741 15.716C20.1741 16.421 20.7845 16.9926 21.5375 16.9926C22.2905 16.9926 22.901 16.421 22.901 15.716C22.901 13.8462 21.462 12.6453 19.7787 12.2089V11.2766C19.7787 10.5716 19.1682 10 18.4152 10C17.6622 10 17.0518 10.5716 17.0518 11.2766V12.1726C16.4625 12.3123 15.923 12.548 15.471 12.8717C14.5336 13.5432 14.0113 14.553 14.0002 15.7153C13.9751 18.3428 16.4756 19.1698 17.6773 19.5671"/>
<path d="M17.6773 19.5671C19.5712 20.1753 20.2794 20.5456 20.2729 21.2228C20.2629 22.2674 19.1593 22.3838 18.6701 22.3838C18.6657 22.3838 18.6613 22.3838 18.6571 22.3837C17.949 22.3808 16.8258 22.069 16.8258 21.245C16.8258 20.54 16.2153 19.9684 15.4623 19.9684C14.7093 19.9684 14.0989 20.54 14.0989 21.245C14.0989 23.1149 15.5379 24.3158 17.2213 24.7521V25.7234C17.2213 26.4284 17.8317 27 18.5847 27C19.3377 27 19.9483 26.4284 19.9483 25.7234V24.7893C20.5373 24.6493 21.0772 24.4128 21.529 24.0893C22.4664 23.4179 22.9887 22.4081 22.9998 21.2457C23.0253 18.5815 20.0251 17.6181 18.3675 17.0857"/>
</mask>
<path d="M18.3675 17.0857C16.956 16.5973 16.722 16.2785 16.7271 15.7381C16.7372 14.6843 17.8618 14.5725 18.3428 14.5773C19.0508 14.5802 20.1741 14.8919 20.1741 15.716C20.1741 16.421 20.7845 16.9926 21.5375 16.9926C22.2905 16.9926 22.901 16.421 22.901 15.716C22.901 13.8462 21.462 12.6453 19.7787 12.2089V11.2766C19.7787 10.5716 19.1682 10 18.4152 10C17.6622 10 17.0518 10.5716 17.0518 11.2766V12.1726C16.4625 12.3123 15.923 12.548 15.471 12.8717C14.5336 13.5432 14.0113 14.553 14.0002 15.7153C13.9751 18.3428 16.4756 19.1698 17.6773 19.5671" fill="white"/>
<path d="M17.6773 19.5671C19.5712 20.1753 20.2794 20.5456 20.2729 21.2228C20.2629 22.2674 19.1593 22.3838 18.6701 22.3838C18.6657 22.3838 18.6613 22.3838 18.6571 22.3837C17.949 22.3808 16.8258 22.069 16.8258 21.245C16.8258 20.54 16.2153 19.9684 15.4623 19.9684C14.7093 19.9684 14.0989 20.54 14.0989 21.245C14.0989 23.1149 15.5379 24.3158 17.2213 24.7521V25.7234C17.2213 26.4284 17.8317 27 18.5847 27C19.3377 27 19.9483 26.4284 19.9483 25.7234V24.7893C20.5373 24.6493 21.0772 24.4128 21.529 24.0893C22.4664 23.4179 22.9887 22.4081 22.9998 21.2457C23.0253 18.5815 20.0251 17.6181 18.3675 17.0857" fill="white"/>
<path d="M18.3675 17.0857L18.1386 17.7472L18.146 17.7498L18.1535 17.7522L18.3675 17.0857ZM16.7271 15.7381L16.0271 15.7314L16.0271 15.7315L16.7271 15.7381ZM18.3428 14.5773L18.3358 15.2773L18.3399 15.2773L18.3428 14.5773ZM19.7787 12.2089H19.0787V12.7506L19.603 12.8865L19.7787 12.2089ZM17.0518 12.1726L17.2132 12.8538L17.7518 12.7261V12.1726H17.0518ZM15.471 12.8717L15.0634 12.3026L15.0634 12.3026L15.471 12.8717ZM14.0002 15.7153L14.7002 15.722L14.7002 15.722L14.0002 15.7153ZM17.6773 19.5671L17.4576 20.2318L17.4633 20.2336L17.6773 19.5671ZM20.2729 21.2228L20.9729 21.2295L20.9729 21.2295L20.2729 21.2228ZM18.6571 22.3837L18.671 21.6838L18.6599 21.6837L18.6571 22.3837ZM17.2213 24.7521H17.9213V24.2104L17.3969 24.0745L17.2213 24.7521ZM19.9483 24.7893L19.7864 24.1083L19.2483 24.2362V24.7893H19.9483ZM21.529 24.0893L21.9365 24.6584L21.9366 24.6584L21.529 24.0893ZM22.9998 21.2457L22.2999 21.239V21.2391L22.9998 21.2457ZM18.5964 16.4242C17.8941 16.1812 17.6021 16.0158 17.4812 15.9082C17.4568 15.8866 17.4458 15.8726 17.4416 15.8666C17.4378 15.8614 17.4371 15.8594 17.4368 15.8586C17.436 15.8565 17.4262 15.8311 17.4271 15.7447L16.0271 15.7315C16.0254 15.9153 16.0429 16.1324 16.1287 16.3573C16.2172 16.5894 16.3612 16.7858 16.551 16.9545C16.8986 17.2636 17.4293 17.5018 18.1386 17.7472L18.5964 16.4242ZM17.4271 15.7448C17.4283 15.6134 17.4613 15.5523 17.4839 15.5209C17.5113 15.483 17.5612 15.4383 17.6532 15.3956C17.8549 15.3019 18.1322 15.2753 18.3358 15.2773L18.3497 13.8773C18.0723 13.8746 17.5469 13.9014 17.0635 14.1259C16.8129 14.2422 16.5497 14.4228 16.3484 14.702C16.1423 14.9878 16.0309 15.3359 16.0271 15.7314L17.4271 15.7448ZM18.3399 15.2773C18.6138 15.2784 18.9621 15.3427 19.2155 15.4671C19.473 15.5935 19.4741 15.6886 19.4741 15.716H20.8741C20.8741 14.9193 20.3135 14.4465 19.8324 14.2103C19.3471 13.9721 18.7797 13.8791 18.3456 13.8773L18.3399 15.2773ZM19.4741 15.716C19.4741 16.8503 20.442 17.6926 21.5375 17.6926V16.2926C21.127 16.2926 20.8741 15.9917 20.8741 15.716H19.4741ZM21.5375 17.6926C22.633 17.6926 23.601 16.8503 23.601 15.716H22.201C22.201 15.9917 21.948 16.2926 21.5375 16.2926V17.6926ZM23.601 15.716C23.601 13.4059 21.8107 12.0126 19.9544 11.5313L19.603 12.8865C21.1132 13.2781 22.201 14.2865 22.201 15.716H23.601ZM20.4787 12.2089V11.2766H19.0787V12.2089H20.4787ZM20.4787 11.2766C20.4787 10.1423 19.5107 9.3 18.4152 9.3V10.7C18.8257 10.7 19.0787 11.0009 19.0787 11.2766H20.4787ZM18.4152 9.3C17.3197 9.3 16.3518 10.1423 16.3518 11.2766H17.7518C17.7518 11.0009 18.0047 10.7 18.4152 10.7V9.3ZM16.3518 11.2766V12.1726H17.7518V11.2766H16.3518ZM16.8903 11.4915C16.2238 11.6495 15.5983 11.9195 15.0634 12.3026L15.8786 13.4408C16.2477 13.1765 16.7011 12.9751 17.2132 12.8538L16.8903 11.4915ZM15.0634 12.3026C13.9426 13.1054 13.3134 14.3251 13.3002 15.7086L14.7002 15.722C14.7091 14.7809 15.1245 13.9809 15.8786 13.4408L15.0634 12.3026ZM13.3002 15.7086C13.2851 17.2906 14.0482 18.3479 14.9561 19.0355C15.8334 19.7 16.8665 20.0363 17.4576 20.2317L17.8971 18.9025C17.2864 18.7006 16.4684 18.4247 15.8013 17.9195C15.1648 17.4374 14.6902 16.7674 14.7002 15.722L13.3002 15.7086ZM17.4633 20.2336C18.4184 20.5403 18.9908 20.7628 19.3218 20.9658C19.4798 21.0627 19.5383 21.1293 19.5581 21.1583C19.5684 21.1735 19.5733 21.1822 19.573 21.2162L20.9729 21.2295C20.9758 20.9249 20.8946 20.6334 20.7148 20.3696C20.5444 20.1198 20.3088 19.9288 20.0537 19.7724C19.5588 19.4689 18.8302 19.2021 17.8913 18.9007L17.4633 20.2336ZM19.573 21.2161C19.5717 21.3467 19.5392 21.4075 19.5171 21.4385C19.4906 21.4757 19.4422 21.5196 19.3524 21.562C19.1549 21.6552 18.881 21.6838 18.6701 21.6838V23.0838C18.9483 23.0838 19.4709 23.0542 19.95 22.8281C20.1985 22.7107 20.4585 22.5297 20.657 22.2513C20.86 21.9667 20.9692 21.6212 20.9729 21.2295L19.573 21.2161ZM18.6701 21.6838L18.671 21.6839L18.6431 23.0836C18.6557 23.0838 18.6672 23.0838 18.6701 23.0838V21.6838ZM18.6599 21.6837C18.386 21.6826 18.0378 21.6183 17.7844 21.4939C17.5268 21.3675 17.5258 21.2723 17.5258 21.245H16.1258C16.1258 22.0417 16.6863 22.5145 17.1674 22.7506C17.6527 22.9889 18.2201 23.0819 18.6542 23.0837L18.6599 21.6837ZM17.5258 21.245C17.5258 20.1107 16.5578 19.2684 15.4623 19.2684V20.6684C15.8728 20.6684 16.1258 20.9693 16.1258 21.245H17.5258ZM15.4623 19.2684C14.3668 19.2684 13.3989 20.1107 13.3989 21.245H14.7989C14.7989 20.9693 15.0518 20.6684 15.4623 20.6684V19.2684ZM13.3989 21.245C13.3989 23.5552 15.1891 24.9485 17.0456 25.4297L17.3969 24.0745C15.8866 23.683 14.7989 22.6746 14.7989 21.245H13.3989ZM16.5213 24.7521V25.7234H17.9213V24.7521H16.5213ZM16.5213 25.7234C16.5213 26.8577 17.4892 27.7 18.5847 27.7V26.3C18.1742 26.3 17.9213 25.9991 17.9213 25.7234H16.5213ZM18.5847 27.7C19.6801 27.7 20.6483 26.8577 20.6483 25.7234H19.2483C19.2483 25.9991 18.9953 26.3 18.5847 26.3V27.7ZM20.6483 25.7234V24.7893H19.2483V25.7234H20.6483ZM20.1101 25.4703C20.7765 25.3119 21.4022 25.041 21.9365 24.6584L21.1214 23.5202C20.7522 23.7846 20.298 23.9867 19.7864 24.1083L20.1101 25.4703ZM21.9366 24.6584C23.0573 23.8556 23.6866 22.636 23.6998 21.2524L22.2999 21.2391C22.2909 22.1801 21.8754 22.9801 21.1213 23.5202L21.9366 24.6584ZM23.6998 21.2524C23.7156 19.6015 22.7737 18.5025 21.7049 17.7851C20.6559 17.0809 19.3965 16.681 18.5815 16.4192L18.1535 17.7522C18.9961 18.0228 20.0655 18.3708 20.9247 18.9475C21.764 19.5109 22.3096 20.2257 22.2999 21.239L23.6998 21.2524Z" fill="#191919" mask="url(#path-3-inside-1_17_712)"/>
</svg>
