<svg width="37" height="34" viewBox="0 0 37 34" fill="none" xmlns="http://www.w3.org/2000/svg">
<path d="M24.304 6.47468H23.2803C23.4608 6.16004 23.5648 5.79598 23.5648 5.40792V2.1503C23.5648 0.964593 22.6002 0 21.4145 0H2.1503C0.964593 0.000424806 0 0.965017 0 2.15065V5.40828C0 6.59398 0.964593 7.55857 2.1503 7.55857H3.17387C2.99332 7.87321 2.88939 8.23727 2.88939 8.62533V11.883C2.88939 12.2711 2.99325 12.6351 3.17387 12.9497H2.1503C0.964593 12.9496 0 13.9142 0 15.0999V18.3575C0 19.295 0.603437 20.094 1.44207 20.3874C1.21579 20.7278 1.08354 21.1359 1.08354 21.5745V24.8321C1.08354 25.2707 1.21579 25.6788 1.44207 26.0192C0.603437 26.3126 0 27.1115 0 28.0491V31.3067C0 32.4924 0.964593 33.4569 2.1503 33.4569H18.6695C18.9688 33.4569 19.2113 33.2144 19.2113 32.9152C19.2113 32.616 18.9687 32.3734 18.6695 32.3734H2.1503C1.56201 32.3734 1.08354 31.8949 1.08354 31.3067V28.0491C1.08354 27.4609 1.56208 26.9823 2.1503 26.9823H3.23384H6.10949H12.6263C12.9256 26.9823 13.1681 26.7398 13.1681 26.4406C13.1681 26.1414 12.9256 25.8988 12.6263 25.8988H6.10942H3.23384C2.64555 25.8988 2.16708 25.4203 2.16708 24.832V21.5744C2.16708 20.9862 2.64562 20.5077 3.23384 20.5077H11.6391C11.9384 20.5077 12.1809 20.2651 12.1809 19.9659C12.1809 19.6667 11.9384 19.4241 11.6391 19.4241H2.1503C1.56201 19.4241 1.08354 18.9456 1.08354 18.3574V15.0997C1.08354 14.5115 1.56208 14.033 2.1503 14.033H5.03969H9.37597H14.709C15.0083 14.033 15.2507 13.7904 15.2507 13.4912C15.2507 13.192 15.0083 12.9494 14.709 12.9494H9.37597H5.03969C4.4514 12.9494 3.97293 12.4709 3.97293 11.8827V8.62505C3.97293 8.03683 4.45147 7.55829 5.03969 7.55829H21.4145H24.304C24.8923 7.55829 25.3708 8.03683 25.3708 8.62505V9.02911C25.3708 9.32832 25.6133 9.57088 25.9125 9.57088C26.2118 9.57088 26.4543 9.32832 26.4543 9.02911V8.62505C26.4543 7.43927 25.4897 6.47468 24.304 6.47468ZM22.4813 5.40828C22.4813 5.99649 22.0028 6.47504 21.4145 6.47504H5.03969H2.1503C1.56201 6.47496 1.08354 5.99642 1.08354 5.40828V2.15065C1.08354 1.56244 1.56208 1.08389 2.1503 1.08389H21.4145C22.0028 1.08389 22.4813 1.56244 22.4813 2.15065V5.40828Z" fill="#B6B6B6"/>
<path d="M30.8919 11.7968C30.6413 11.6335 30.3056 11.7042 30.1423 11.9549C29.9788 12.2056 30.0497 12.5412 30.3003 12.7046C33.347 14.6901 35.1659 18.0435 35.1659 21.6749C35.1659 27.5743 30.3663 32.3738 24.467 32.3738C18.5676 32.3738 13.768 27.5743 13.768 21.6749C13.768 15.7756 18.5676 10.976 24.467 10.976C26.0159 10.976 27.5098 11.2996 28.907 11.9378C29.1794 12.0622 29.5006 11.9422 29.6248 11.6701C29.7492 11.3979 29.6293 11.0766 29.3571 10.9523C27.8176 10.2491 26.1724 9.89258 24.467 9.89258C17.9702 9.89258 12.6846 15.1782 12.6846 21.6749C12.6846 28.1717 17.9702 33.4573 24.467 33.4573C30.9638 33.4573 36.2494 28.1718 36.2494 21.675C36.2494 17.6758 34.2467 13.983 30.8919 11.7968Z" fill="#B6B6B6"/>
<path d="M30.4705 15.6713C28.8668 14.0677 26.7348 13.1846 24.467 13.1846C22.1993 13.1846 20.0672 14.0677 18.4636 15.6713C16.32 17.8149 15.4799 20.9665 16.2713 23.8962C16.3493 24.1851 16.6465 24.356 16.9355 24.278C17.2243 24.1999 17.3952 23.9026 17.3172 23.6137C16.6268 21.0574 17.3596 18.3076 19.2298 16.4375C20.6287 15.0386 22.4887 14.268 24.4671 14.268C26.4455 14.268 28.3055 15.0385 29.7044 16.4375C32.5923 19.3254 32.5923 24.0242 29.7044 26.9121C26.8166 29.7999 22.1177 29.7999 19.2298 26.9121C18.7107 26.393 18.2739 25.8049 17.9315 25.1642C17.7905 24.9004 17.4624 24.8007 17.1984 24.9419C16.9345 25.0828 16.8349 25.4111 16.976 25.675C17.3688 26.4098 17.8692 27.0837 18.4637 27.6782C20.1189 29.3334 22.293 30.161 24.4672 30.161C26.6413 30.161 28.8154 29.3334 30.4706 27.6782C33.7808 24.3679 33.7808 18.9816 30.4705 15.6713Z" fill="#B6B6B6"/>
<path d="M25.0115 21.1764V18.1929C25.8014 18.377 26.3794 18.9523 26.3794 19.6321C26.3794 19.9313 26.6219 20.1739 26.9212 20.1739C27.2204 20.1739 27.4629 19.9313 27.4629 19.6321C27.4629 18.3668 26.4042 17.3117 25.0116 17.0909V16.7723C25.0116 16.473 24.7691 16.2305 24.4698 16.2305C24.1705 16.2305 23.928 16.473 23.928 16.7723V17.0909C22.5355 17.3118 21.4766 18.3668 21.4766 19.6321C21.4766 20.8974 22.5355 21.9526 23.928 22.1734V25.1568C23.1381 24.9728 22.5601 24.3975 22.5601 23.7176C22.5601 23.4184 22.3176 23.1759 22.0183 23.1759C21.7191 23.1759 21.4766 23.4184 21.4766 23.7176C21.4766 24.983 22.5354 26.0381 23.928 26.2589V26.5775C23.928 26.8767 24.1705 27.1193 24.4697 27.1193C24.769 27.1193 25.0115 26.8767 25.0115 26.5775V26.2589C26.4041 26.0381 27.4629 24.9829 27.4629 23.7176C27.4629 22.4523 26.4041 21.3972 25.0115 21.1764ZM23.928 21.0713C23.1381 20.8873 22.5601 20.3119 22.5601 19.6321C22.5601 18.9523 23.1381 18.377 23.928 18.1929V21.0713ZM25.0114 25.1568V22.2785C25.8013 22.4625 26.3793 23.0379 26.3793 23.7177C26.3793 24.3974 25.8013 24.9727 25.0114 25.1568Z" fill="#B6B6B6"/>
</svg>
