<svg width="10" height="10" viewBox="0 0 10 10" fill="none" xmlns="http://www.w3.org/2000/svg">
<path d="M4.99463 -2.67252e-05C4.92888 0.000620301 4.8639 0.0142717 4.80342 0.04017C4.74293 0.0660682 4.68812 0.103701 4.64213 0.150898C4.59614 0.198096 4.55986 0.253966 4.53538 0.315261C4.5109 0.376555 4.4987 0.442075 4.49946 0.508113V4.52715C4.4995 4.66046 4.55225 4.78832 4.64612 4.88257C4.73998 4.97683 4.86727 5.02975 5 5.02975C5.13273 5.02975 5.26002 4.97683 5.35388 4.88257C5.44775 4.78832 5.5005 4.66046 5.50054 4.52715V0.508113C5.50132 0.441166 5.48876 0.374727 5.46361 0.312723C5.43846 0.25072 5.40123 0.194376 5.35409 0.147034C5.30696 0.0996927 5.25088 0.062315 5.18915 0.0370557C5.12742 0.0117965 5.06128 -0.000809111 4.99463 -2.67252e-05ZM7.91191 1.00743C7.89562 1.00696 7.87932 1.00728 7.86307 1.00841C7.76421 1.01684 7.67008 1.05463 7.59265 1.11695C7.51522 1.17926 7.458 1.26328 7.42826 1.35836C7.39853 1.45343 7.39762 1.55527 7.42565 1.65086C7.45369 1.74646 7.5094 1.83151 7.5857 1.89522C8.4519 2.63404 8.9999 3.7337 8.9999 4.96856C8.9999 7.19828 7.21735 8.99544 5.00244 8.99544C2.78753 8.99544 1.00107 7.19828 1.00107 4.96856C1.00108 3.74084 1.54211 2.64865 2.39965 1.90992C2.44961 1.86709 2.49068 1.81477 2.52051 1.756C2.55035 1.69722 2.56837 1.63313 2.57354 1.56736C2.57871 1.50159 2.57094 1.43547 2.55065 1.37272C2.53037 1.30997 2.49798 1.25184 2.45534 1.20166C2.41269 1.15149 2.36062 1.11023 2.3021 1.08027C2.24359 1.0503 2.17976 1.03217 2.11428 1.02698C2.0488 1.02179 1.98294 1.02962 1.92047 1.04999C1.85799 1.07036 1.80013 1.10289 1.75017 1.14572C0.679697 2.06789 4.70552e-06 3.44243 0 4.96856C-4.49763e-06 7.74026 2.24614 9.99995 5.00244 9.99995C7.75874 9.99995 10 7.74026 10 4.96856C9.99999 3.43353 9.31359 2.05334 8.23225 1.13102C8.14332 1.05316 8.02986 1.00939 7.9119 1.00743H7.91191Z" fill="#ECD5AB"/>
</svg>
