<svg width="49" height="56" viewBox="0 0 49 56" fill="none" xmlns="http://www.w3.org/2000/svg">
<path d="M39.0506 17.6541L39.8628 16.9854C41.6764 15.4925 42.4491 13.1273 41.8945 10.8793C40.8046 6.46283 35.3959 4.78135 31.9767 7.79279L31.5802 7.34253L31.9767 7.7928L28.1726 11.1432L27.3459 11.8713L27.1827 10.7818L26.4302 5.75747L39.0506 17.6541ZM39.0506 17.6541L40.0396 18.0127L45.5493 20.0107L45.7538 19.4466M39.0506 17.6541L45.7538 19.4466M45.7538 19.4466L45.5493 20.0107C47.7948 20.8249 48.9544 23.3065 48.1388 25.5398C48.1388 25.5399 48.1388 25.5399 48.1387 25.5399L45.8893 31.6972L45.7538 19.4466ZM16.4877 1.28992L16.8404 1.77383C15.0007 3.11472 14.0222 5.42641 14.4563 7.77408L14.6468 8.80443L13.6618 8.44723L8.46717 6.56358L8.46713 6.56356C6.22097 5.74888 3.72891 6.90841 2.91257 9.14277C2.91257 9.14277 2.91257 9.14278 2.91257 9.14279L0.663167 15.3002C0.467032 15.8372 0.744126 16.4332 1.28691 16.6299L26.9848 25.9486L26.7803 27.1127H26.774H26.7672H26.7598H26.752H26.7437H26.7349H26.7256H26.7159H26.7056H26.6949H26.6837H26.672H26.6598H26.6472H26.6341H26.6205H26.6065H26.592H26.577H26.5616H26.5457H26.5294H26.5126H26.4953H26.4777H26.4595H26.4409H26.4219H26.4024H26.3825H26.3621H26.3413H26.3201H26.2984H26.2763H26.2538H26.2309H26.2075H26.1837H26.1595H26.1348H26.1098H26.0843H26.0584H26.0321H26.0054H25.9783H25.9507H25.9228H25.8945H25.8657H25.8366H25.8071H25.7772H25.7468H25.7161H25.685H25.6536H25.6217H25.5895H25.5568H25.5238H25.4904H25.4567H25.4226H25.3881H25.3532H25.3179H25.2823H25.2464H25.21H25.1734H25.1363H25.0989H25.0612H25.0231H24.9846H24.9458H24.9067H24.8672H24.8273H24.7872H24.7467H24.7058H24.6646H24.6231H24.5813H24.5391H24.4966H24.4538H24.4106H24.3672H24.3234H24.2793H24.2349H24.1901H24.1451H24.0998H24.0541H24.0081H23.9619H23.9153H23.8685H23.8213H23.7738H23.7261H23.6781H23.6297H23.5811H23.5322H23.483H23.4336H23.3838H23.3338H23.2835H23.2329H23.1821H23.131H23.0796H23.0279H22.976H22.9239H22.8714H22.8187H22.7658H22.7126H22.6591H22.6054H22.5515H22.4973H22.4428H22.3881H22.3332H22.278H22.2226H22.167H22.1111H22.055H21.9987H21.9421H21.8854H21.8283H21.7711H21.7137H21.656H21.5981H21.54H21.4817H21.4232H21.3645H21.3056H21.2464H21.1871H21.1276H21.0678H21.0079H20.9478H20.8875H20.827H20.7663H20.7054H20.6443H20.5831H20.5216H20.46H20.3983H20.3363H20.2742H20.2119H20.1494H20.0868H20.024H19.961H19.8979H19.8346H19.7712H19.7076H19.6438H19.5799H19.5159H19.4517H19.3873H19.3229H19.2582H19.1935H19.1286H19.0635H18.9984H18.9331H18.8676H18.8021H18.7364H18.6706H18.6046H18.5386H18.4724H18.4061H18.3397H18.2732H18.2066H18.1398H18.073H18.006H17.939H17.8718H17.8046H17.7373H17.6698H17.6023H17.5347H17.4669H17.3991H17.3313H17.2633H17.1952H17.1271H17.0589H16.9906H16.9223H16.8539H16.7854H16.7168H16.6482H16.5795H16.5107H16.4419H16.373H16.3041H16.2351H16.1661H16.097H16.0279H15.9587H15.8895H15.8202H15.7509H15.6816H15.6122H15.5428H15.4733H15.4038H15.3343H15.2648H15.1952H15.1257H15.0561H14.9864H14.9168H14.8471H14.7775H14.7078H14.6381H14.5684H14.4987H14.429H14.3593H14.2896H14.2199H14.1502H14.0805H14.0108H13.9411H13.8715H13.8018H13.7322H13.6626H13.593H13.5234H13.4539H13.3844H13.3149H13.2454H13.176H13.1066H13.0372H12.9679H12.8986H12.8293H12.7601H12.691H12.6219H12.5528H12.4838H12.4148H12.3459H12.2771H12.2083H12.1396H12.0709H12.0023H11.9338H11.8653H11.7969H11.7286H11.6604H11.5922H11.5241H11.4561H11.3881H11.3203H11.2525H11.1849H11.1173H11.0498H10.9824H10.9151H10.8479H10.7808H10.7138H10.6469H10.5801H10.5134H10.4468H10.3804H10.314H10.2478H10.1817H10.1157H10.0498H9.98402H9.91838H9.85288H9.7875H9.72226H9.65714H9.59217H9.52732H9.46262H9.39806H9.33364H9.26936H9.20523H9.14125H9.07742H9.01374H8.95021H8.88684H8.82363H8.76058H8.69769H8.63497H8.57241H8.51001H8.44779H8.38574H8.32386H8.26216H8.20064H8.13929H8.07813H8.01715H7.95635H7.89574H7.83532H7.77509H7.71506H7.65522H7.59557H7.53613H7.47688H7.41784H7.35901H7.30038H7.24195H7.18374H7.12574H7.06796H7.01039H6.95304H6.89591H6.839H6.78232H6.72586H6.66963H6.61363H6.55786H6.50233H6.44703H6.39197H6.33715H6.28257H6.22823H6.17414H6.1203H6.06671H6.01336H5.96028H5.90744H5.85487H5.80255H5.75049H5.6987H5.64717H5.59591H5.54491H5.49419H5.44374H5.39357H5.34367H5.29405H5.24471H5.19565H5.14688H5.09839H5.05019H5.00228H4.95467H4.90735H4.86032H4.81359H4.76716H4.72104H4.67522H4.6297H4.58449H4.53959H4.495H4.45073H4.40677H4.36313H4.31981H4.27681H4.23413H4.19178H4.14975H4.10806H4.06669H4.02566H3.98497H3.94461H3.90458H3.8649H3.82557H3.78657H3.74793H3.70963H3.67168H3.63409H3.59685H3.55996H3.52344H3.48727H3.45147H3.41603H3.38095H3.34625H3.31191H3.27795H3.24436H3.21114H3.17831H3.14585H3.11377H3.08208H3.05078H3.01986H2.98933H2.95919H2.92944H2.90009H2.87114H2.84259H2.81444H2.78669H2.75934H2.73241H2.70588H2.67976H2.65405H2.62876H2.60389H2.57943H2.5554H2.53179H2.5086H2.48584H2.4635H2.4416H2.42013H2.39909H2.37849H2.35833H2.3386H2.31932H2.30048H2.28209H2.26415H2.24665H2.22961H2.21302H2.19689H2.18121H2.166H2.15124H2.13695H2.12312H2.10976H2.09687H2.08445H2.0725H2.06103H2.05004H2.03952H2.02949H2.01993H2.01086H2.00228H1.99419H1.98659H1.97948H1.97286H1.96674C1.38791 27.1127 0.92245 27.5796 0.92245 28.1509V51.0855C0.92245 53.4619 2.86457 55.4 5.25522 55.4H18.4094H24.9864H38.1406C40.5312 55.4 42.4733 53.4619 42.4733 51.0855V32.421V31.5651L43.2779 31.8569L44.5499 32.3183L44.55 32.3183C45.0914 32.5147 45.6919 32.2372 45.8892 31.6973L16.4877 1.28992ZM16.4877 1.28992L16.8404 1.77383M16.4877 1.28992L16.8404 1.77383M16.8404 1.77383C20.5233 -0.910588 25.7534 1.25955 26.4301 5.75709L16.8404 1.77383ZM16.765 53.3237H17.365V52.7237V29.7891V29.1891H16.765H3.61082H3.01082V29.7891V51.0855C3.01082 52.3222 4.01916 53.3237 5.25511 53.3237H16.765ZM23.342 53.3237H23.942V52.7237V29.7891V29.1891H23.342H20.0535H19.4535V29.7891V52.7237V53.3237H20.0535H23.342ZM34.6382 16.0541L34.6385 16.0542C37.6294 17.1371 40.6291 14.4658 39.866 11.3742C39.1511 8.47725 35.6058 7.3703 33.3615 9.34709L29.0995 13.1009L28.3398 13.7701L29.2915 14.1152L34.6382 16.0541ZM24.3647 6.06515L24.3647 6.06478C23.9207 3.11426 20.4926 1.68668 18.0752 3.44854C15.5004 5.32491 16.067 9.31895 19.0636 10.4062L19.0638 10.4063L24.4099 12.3449L25.3572 12.6884L25.2079 11.6919L24.3647 6.06515ZM18.9986 20.8425L19.5614 21.0465L19.7668 20.4843L22.0162 14.3267L22.2225 13.7618L21.6571 13.5568L7.75142 8.51424L7.75134 8.51422C6.59013 8.09334 5.3 8.69034 4.87576 9.85153L4.87576 9.85154L3.18865 14.4696L2.98227 15.0345L3.54767 15.2395L18.9986 20.8425ZM25.1791 23.0838L25.7418 23.2878L25.9472 22.7256L28.1967 16.5681L28.4031 16.0032L27.8377 15.7982L24.7475 14.6775L24.1847 14.4735L23.9793 15.0357L21.7298 21.1932L21.5234 21.7581L22.0888 21.9631L25.1791 23.0838ZM26.0306 52.7237V53.3237H26.6306H38.1403C39.1686 53.3237 40.0393 52.6306 40.3029 51.6855H40.3847V51.0855V31.2285V30.8078L39.9893 30.6644L36.0201 29.225L35.9209 29.1891H35.8155H26.6306H26.0306V29.7891V52.7237ZM43.7202 29.8071L44.283 30.0112L44.4884 29.449L46.1753 24.8309C46.1754 24.8309 46.1754 24.8308 46.1754 24.8308C46.5999 23.6688 45.9963 22.3827 44.8337 21.9611L44.6291 22.5252L44.8337 21.9611L30.9279 16.9186L30.3652 16.7146L30.1598 17.2768L27.9103 23.4343L27.7039 23.9992L28.2693 24.2042L43.7202 29.8071Z" fill="url(#paint0_linear_17_1289)" stroke="#1A1919" stroke-width="1.2"/>
<defs>
<linearGradient id="paint0_linear_17_1289" x1="4.45455" y1="42.4516" x2="38.5092" y2="24.7725" gradientUnits="userSpaceOnUse">
<stop stop-color="#B48A3D"/>
<stop offset="0.520833" stop-color="#F5D08A"/>
<stop offset="1" stop-color="#B48A3D"/>
</linearGradient>
</defs>
</svg>
