<svg width="45" height="39" viewBox="0 0 45 39" fill="none" xmlns="http://www.w3.org/2000/svg">
<path d="M40.9015 12.4267L36.6051 5.19205C36.603 5.18855 36.5988 5.18645 36.5967 5.18295C36.5491 5.10598 36.4861 5.0409 36.412 4.98703C36.4001 4.97793 36.3889 4.96953 36.3763 4.96113C36.3637 4.95274 36.3532 4.94224 36.3392 4.93454L28.8464 0.840352C28.5917 0.701104 28.2768 0.733991 28.0549 0.923622L4.07968 21.5058C4.07478 21.51 4.07128 21.5163 4.06638 21.5205C4.05729 21.5289 4.05029 21.5387 4.04189 21.5478C3.98941 21.601 3.94743 21.6612 3.91454 21.7263C3.90964 21.7354 3.90124 21.741 3.89705 21.7501L0.0617582 30.3044C-0.0900859 30.6417 0.0470636 31.0384 0.374543 31.2099L13.6214 38.1653C13.6319 38.1709 13.6438 38.173 13.655 38.1779C13.664 38.1821 13.671 38.1891 13.6808 38.1933C13.6906 38.1975 13.7011 38.1954 13.7109 38.1989C13.7879 38.2262 13.8663 38.2451 13.9467 38.2451C14.0244 38.2451 14.1014 38.2276 14.1756 38.2017C14.198 38.194 14.2175 38.1835 14.2392 38.173C14.2658 38.1604 14.2945 38.1527 14.3197 38.1373C14.3477 38.1198 14.3694 38.096 14.3946 38.075C14.4044 38.0666 14.4163 38.0638 14.4261 38.0554L40.7798 13.2937C41.0184 13.069 41.0702 12.7087 40.9015 12.4267ZM28.5993 2.30001L34.804 5.69097L13.3716 25.0717L5.84303 21.8368L28.5993 2.30001ZM1.60749 30.2771L4.89208 22.9522L12.8251 26.3614L13.2015 36.3649L1.60749 30.2771ZM14.5884 35.9828L14.2196 26.192L25.7976 15.7225L35.8403 6.64122L39.4125 12.6576L14.5884 35.9828Z" fill="url(#paint0_linear_616_8)"/>
<path d="M10.4 4.4C9.4076 4.4 8.6 3.5924 8.6 2.6C8.6 2.2682 8.3318 2 8 2C7.6682 2 7.4 2.2682 7.4 2.6C7.4 3.5924 6.5924 4.4 5.6 4.4C5.2682 4.4 5 4.6682 5 5C5 5.3318 5.2682 5.6 5.6 5.6C6.5924 5.6 7.4 6.4076 7.4 7.4C7.4 7.7318 7.6682 8 8 8C8.3318 8 8.6 7.7318 8.6 7.4C8.6 6.4076 9.4076 5.6 10.4 5.6C10.7318 5.6 11 5.3318 11 5C11 4.6682 10.7318 4.4 10.4 4.4ZM8 5.6018C7.829 5.3738 7.6262 5.171 7.3982 5C7.6262 4.829 7.829 4.6262 8 4.3982C8.171 4.6262 8.3738 4.829 8.6018 5C8.3738 5.171 8.171 5.3738 8 5.6018Z" fill="url(#paint1_linear_616_8)"/>
<path d="M44.3889 29.8889C42.0306 29.8889 40.1111 27.9694 40.1111 25.6111C40.1111 25.2732 39.8379 25 39.5 25C39.1621 25 38.8889 25.2732 38.8889 25.6111C38.8889 27.9694 36.9694 29.8889 34.6111 29.8889C34.2732 29.8889 34 30.1621 34 30.5C34 30.8379 34.2732 31.1111 34.6111 31.1111C36.9694 31.1111 38.8889 33.0306 38.8889 35.3889C38.8889 35.7268 39.1621 36 39.5 36C39.8379 36 40.1111 35.7268 40.1111 35.3889C40.1111 33.0306 42.0306 31.1111 44.3889 31.1111C44.7268 31.1111 45 30.8379 45 30.5C45 30.1621 44.7268 29.8889 44.3889 29.8889ZM39.5 32.8705C38.9757 31.8561 38.1439 31.0243 37.1295 30.5C38.1439 29.9757 38.9757 29.1439 39.5 28.1295C40.0243 29.1439 40.8561 29.9757 41.8705 30.5C40.8561 31.0243 40.0243 31.8561 39.5 32.8705Z" fill="url(#paint2_linear_616_8)"/>
<defs>
<linearGradient id="paint0_linear_616_8" x1="-2.84966e-07" y1="-0.743772" x2="37.0927" y2="27.7066" gradientUnits="userSpaceOnUse">
<stop stop-color="#B48A3D"/>
<stop offset="0.447917" stop-color="#FCECCD"/>
<stop offset="1" stop-color="#CCAB6C"/>
</linearGradient>
<linearGradient id="paint1_linear_616_8" x1="5" y1="1.76016" x2="10.779" y2="5.81322" gradientUnits="userSpaceOnUse">
<stop stop-color="#B48A3D"/>
<stop offset="0.447917" stop-color="#FCECCD"/>
<stop offset="1" stop-color="#CCAB6C"/>
</linearGradient>
<linearGradient id="paint2_linear_616_8" x1="34" y1="24.5603" x2="44.5948" y2="31.9909" gradientUnits="userSpaceOnUse">
<stop stop-color="#B48A3D"/>
<stop offset="0.447917" stop-color="#FCECCD"/>
<stop offset="1" stop-color="#CCAB6C"/>
</linearGradient>
</defs>
</svg>
