<svg width="52" height="32" viewBox="0 0 52 32" fill="none" xmlns="http://www.w3.org/2000/svg">
<path d="M51.2752 30.0956L47.9002 19.1269C47.8472 18.9544 47.7402 18.8035 47.5951 18.6963C47.4499 18.5891 47.2742 18.5313 47.0938 18.5312H30.984L39.684 9.52037C40.1155 10.1955 40.3444 10.9801 40.3438 11.7812C40.3438 12.005 40.4327 12.2196 40.5909 12.3779C40.7491 12.5361 40.9638 12.625 41.1875 12.625C41.4113 12.625 41.6259 12.5361 41.7842 12.3779C41.9424 12.2196 42.0313 12.005 42.0313 11.7812C42.0326 10.6628 42.4774 9.59045 43.2683 8.79956C44.0592 8.00866 45.1315 7.56378 46.25 7.5625C46.4738 7.5625 46.6884 7.47361 46.8467 7.31537C47.0049 7.15714 47.0938 6.94253 47.0938 6.71875C47.0938 6.49497 47.0049 6.28036 46.8467 6.12213C46.6884 5.96389 46.4738 5.875 46.25 5.875C45.1315 5.87372 44.0592 5.42884 43.2683 4.63794C42.4774 3.84705 42.0326 2.77474 42.0313 1.65625C42.0313 1.43247 41.9424 1.21786 41.7842 1.05963C41.6259 0.901395 41.4113 0.8125 41.1875 0.8125C40.9638 0.8125 40.7491 0.901395 40.5909 1.05963C40.4327 1.21786 40.3438 1.43247 40.3438 1.65625C40.3445 2.44607 40.122 3.22001 39.7021 3.88894L33.0991 0.8881C32.9894 0.838707 32.8703 0.813452 32.75 0.814045V0.8125H22.625C22.4013 0.812506 22.1866 0.901383 22.0284 1.05959L14.0445 9.04347C13.5868 8.35461 13.343 7.5458 13.3438 6.71875C13.3438 6.49497 13.2549 6.28036 13.0967 6.12213C12.9384 5.96389 12.7238 5.875 12.5 5.875C12.2763 5.875 12.0616 5.96389 11.9034 6.12213C11.7452 6.28036 11.6563 6.49497 11.6563 6.71875C11.655 7.83724 11.2101 8.90955 10.4192 9.70044C9.62834 10.4913 8.55603 10.9362 7.43754 10.9375C7.21376 10.9375 6.99915 11.0264 6.84092 11.1846C6.68268 11.3429 6.59379 11.5575 6.59379 11.7812C6.59379 12.005 6.68268 12.2196 6.84092 12.3779C6.99915 12.5361 7.21376 12.625 7.43754 12.625C8.26458 12.6242 9.0734 12.868 9.76225 13.3257L4.30962 18.7783L4.30998 18.7787C4.21252 18.8758 4.14036 18.9954 4.09982 19.1269L0.72482 30.0956C0.685984 30.2218 0.677309 30.3554 0.699494 30.4855C0.721679 30.6157 0.774104 30.7388 0.852551 30.8451C0.930998 30.9513 1.03328 31.0376 1.15116 31.0971C1.26905 31.1565 1.39925 31.1875 1.53129 31.1875H50.4688C50.6008 31.1875 50.731 31.1565 50.8489 31.0971C50.9668 31.0376 51.0691 30.9513 51.1475 30.8451C51.226 30.7388 51.2784 30.6157 51.3006 30.4855C51.3228 30.3554 51.3141 30.2218 51.2752 30.0956ZM35.8263 20.2188L32.9706 29.5H20.3937L29.3548 20.2188H35.8263ZM41.1875 4.69589C41.6874 5.52454 42.3817 6.21887 43.2104 6.71875C42.3817 7.21863 41.6874 7.91296 41.1875 8.74161C40.6876 7.91296 39.9933 7.21863 39.1647 6.71875C39.9933 6.21887 40.6876 5.52454 41.1875 4.69589ZM38.4506 5.17375C37.7616 5.6318 36.9524 5.87579 36.125 5.875C35.9013 5.875 35.6866 5.96389 35.5284 6.12213C35.3702 6.28036 35.2813 6.49497 35.2813 6.71875C35.2813 6.94253 35.3702 7.15714 35.5284 7.31537C35.6866 7.47361 35.9013 7.5625 36.125 7.5625C36.9776 7.5617 37.8102 7.82074 38.5118 8.30511L18.7923 28.7292L15.9871 19.6125L32.9333 2.66634L38.4506 5.17375ZM22.9745 2.5H30.713L14.6817 18.5312H6.94336L10.9556 14.519C11.4133 15.2079 11.6571 16.0167 11.6563 16.8438C11.6563 17.0675 11.7452 17.2821 11.9034 17.4404C12.0616 17.5986 12.2763 17.6875 12.5 17.6875C12.7238 17.6875 12.9384 17.5986 13.0967 17.4404C13.2549 17.2821 13.3438 17.0675 13.3438 16.8438C13.3451 15.7253 13.79 14.6529 14.5808 13.8621C15.3717 13.0712 16.444 12.6263 17.5625 12.625C17.7863 12.625 18.0009 12.5361 18.1592 12.3779C18.3174 12.2196 18.4063 12.005 18.4063 11.7812C18.4063 11.5575 18.3174 11.3429 18.1592 11.1846C18.0009 11.0264 17.7863 10.9375 17.5625 10.9375C16.7355 10.9383 15.9267 10.6945 15.2378 10.2368L22.9745 2.5ZM12.5 9.75839C12.9999 10.587 13.6942 11.2814 14.5229 11.7812C13.6942 12.2811 12.9999 12.9755 12.5 13.8041C12.0002 12.9755 11.3058 12.2811 10.4772 11.7812C11.3058 11.2814 12.0002 10.587 12.5 9.75839ZM2.67372 29.5L5.52942 20.2188H14.4082L17.2638 29.5H2.67372ZM34.7362 29.5L37.5919 20.2188H46.4706L49.3263 29.5H34.7362Z" fill="url(#paint0_linear_193_8)"/>
<path d="M26 4.1875H22.625V5.875H26V4.1875Z" fill="url(#paint1_linear_193_8)"/>
<path d="M23.4688 6.71875H20.0938V8.40625H23.4688V6.71875Z" fill="url(#paint2_linear_193_8)"/>
<defs>
<linearGradient id="paint0_linear_193_8" x1="0.6875" y1="-0.401677" x2="31.4287" y2="35.5321" gradientUnits="userSpaceOnUse">
<stop stop-color="#B48A3D"/>
<stop offset="0.447917" stop-color="#FCECCD"/>
<stop offset="1" stop-color="#CCAB6C"/>
</linearGradient>
<linearGradient id="paint1_linear_193_8" x1="22.625" y1="4.12005" x2="24.2592" y2="6.41236" gradientUnits="userSpaceOnUse">
<stop stop-color="#B48A3D"/>
<stop offset="0.447917" stop-color="#FCECCD"/>
<stop offset="1" stop-color="#CCAB6C"/>
</linearGradient>
<linearGradient id="paint2_linear_193_8" x1="20.0937" y1="6.6513" x2="21.728" y2="8.94361" gradientUnits="userSpaceOnUse">
<stop stop-color="#B48A3D"/>
<stop offset="0.447917" stop-color="#FCECCD"/>
<stop offset="1" stop-color="#CCAB6C"/>
</linearGradient>
</defs>
</svg>
