<svg width="44" height="42" viewBox="0 0 44 42" fill="none" xmlns="http://www.w3.org/2000/svg">
<path d="M40.2697 3.80849L37.7047 3.43586L36.5575 1.1116C36.1711 0.32852 35.0542 0.328849 34.668 1.1116L33.5209 3.43586L30.9559 3.80849C30.0919 3.93413 29.7469 4.99644 30.3718 5.60554L32.228 7.41475L31.7896 9.96956C31.6416 10.8332 32.5493 11.4847 33.3186 11.0802L35.6126 9.87385L37.9069 11.0802C38.6792 11.4864 39.5833 10.8299 39.4356 9.96956L38.9975 7.41475L40.8538 5.60554C41.4787 4.99644 41.1333 3.93413 40.2697 3.80849ZM38.0372 6.58727C37.7885 6.82966 37.6754 7.17828 37.7343 7.52L38.1191 9.76499L36.103 8.70498C35.7961 8.5435 35.4294 8.5435 35.1222 8.70498L33.1061 9.76499L33.4913 7.52C33.5498 7.17828 33.4367 6.82966 33.1884 6.58727L31.5571 4.99742L33.8113 4.66985C34.1543 4.62019 34.451 4.40444 34.6046 4.09364L35.6126 2.05091L36.6207 4.09331C36.7739 4.40444 37.0706 4.61986 37.4139 4.66985L39.6681 4.99742L38.0372 6.58727Z" fill="#B6B6B6"/>
<path d="M12.7366 5.60548C13.3615 4.99605 13.0162 3.93407 12.1525 3.80843L9.58749 3.4358L8.44033 1.11155C8.05356 0.327804 6.93665 0.32879 6.55053 1.11155L5.40337 3.4358L2.83837 3.80843C1.97471 3.93407 1.6297 4.99638 2.25459 5.60548L4.11051 7.41469L3.67243 9.9695C3.52509 10.8295 4.42855 11.4863 5.2011 11.0802L7.49543 9.87412L9.78976 11.0802C10.562 11.4863 11.4661 10.8299 11.3184 9.9695L10.8804 7.41502L12.7366 5.60548ZM9.92 6.58721C9.67136 6.8296 9.55822 7.17822 9.61676 7.51994L10.0019 9.76493L7.98548 8.70492C7.67862 8.54344 7.31224 8.54344 7.00506 8.70492L4.98897 9.76493L5.3741 7.51994C5.43264 7.17789 5.3195 6.82927 5.07119 6.58721L3.43991 4.99736L5.69411 4.66979C6.03747 4.6198 6.33413 4.40438 6.48739 4.09325L7.49543 2.05085L8.5038 4.09358C8.6574 4.40438 8.95372 4.6198 9.29708 4.66979L11.551 4.99736L9.92 6.58721Z" fill="#B6B6B6"/>
<path d="M28.4622 4.90048L24.4705 4.32098L22.6849 0.702876C22.2225 -0.234456 20.8846 -0.234128 20.4222 0.702876L18.6376 4.32032L14.6449 4.90048C13.6106 5.05079 13.1972 6.32293 13.9454 7.0524L16.8343 9.86769L16.1522 13.844C15.9756 14.874 17.0577 15.6604 17.9832 15.174L20.3738 13.917C20.6827 13.7548 20.8014 13.373 20.6389 13.0642C20.4768 12.7557 20.095 12.6369 19.7861 12.7991L17.3971 14.0574L18.0792 10.0811C18.1492 9.67167 18.0137 9.25398 17.7161 8.96423L14.8265 6.15026L18.8192 5.5701C19.2303 5.51057 19.5852 5.25239 19.769 4.88009L21.5523 1.26199L23.3378 4.87976C23.5216 5.25207 23.8768 5.51024 24.288 5.5701L28.2797 6.14796L25.3907 8.96423C25.0931 9.25398 24.9576 9.67167 25.028 10.0808L25.7117 14.0561L23.3207 12.7991C23.0115 12.6366 22.63 12.7557 22.4679 13.0642C22.3054 13.373 22.4241 13.7548 22.733 13.917L25.1237 15.174C26.0508 15.6611 27.1309 14.8714 26.9546 13.844L26.2721 9.86868L29.1611 7.0524C29.91 6.3226 29.4962 5.05079 28.4622 4.90048Z" fill="#B6B6B6"/>
<path d="M39.5064 17.8767C39.2598 17.6304 38.8602 17.6304 38.6135 17.8767C38.3668 18.1237 38.3668 18.5233 38.6135 18.77L41.8011 21.9576L37.2878 26.4713C36.999 26.1825 29.0787 18.2622 28.9475 18.131L33.4608 13.6173L36.5297 16.6862C36.7763 16.9328 37.1759 16.9328 37.4226 16.6862C37.6693 16.4395 37.6693 16.0396 37.4226 15.7929L34.2794 12.65C33.8282 12.1985 33.0934 12.1985 32.6419 12.65L27.9799 17.312C27.5286 17.7636 27.5286 18.498 27.9799 18.9496L28.5248 19.4945C28.1539 19.8734 27.2876 20.8456 26.6558 20.8456C26.6545 20.8456 26.6535 20.8456 26.6525 20.8456C24.2891 20.8344 24.5874 20.7285 21.5669 21.9122L19.7445 21.1982C19.7402 21.1962 19.736 21.1946 19.7314 21.1929C19.7218 21.1896 18.7555 20.8397 17.7676 20.8397C17.7656 20.8397 17.7636 20.8397 17.7616 20.8397C17.756 20.8397 17.7505 20.8394 17.7445 20.8394C17.7057 20.84 16.4816 20.8456 16.4816 20.8456C16.4803 20.8456 16.4793 20.8456 16.4783 20.8456C15.8534 20.8456 15.0095 19.902 14.5961 19.4814C15.1164 18.9611 15.467 18.7157 15.467 18.1306C15.467 17.8215 15.3466 17.5307 15.1279 17.3117L10.4659 12.6497C10.0143 12.1985 9.27992 12.1985 8.82836 12.6497L0.339413 21.139C-0.113138 21.5915 -0.113138 22.324 0.339413 22.7765L5.00141 27.4385C5.45298 27.8901 6.18738 27.8901 6.63895 27.4385L7.13853 26.9389C8.41758 28.2167 8.53664 28.1756 8.55801 29.4217C8.57183 30.2383 8.58926 31.2546 9.72064 32.384C12.8951 35.5535 15.4183 38.0814 18.6707 41.3337C19.6935 42.3566 21.4485 42.0231 22.0092 40.6704L22.493 41.1545C23.5669 42.228 25.4149 41.8027 25.8881 40.3402C26.636 40.6628 27.5388 40.5188 28.1489 39.9087C28.7695 39.2884 28.8998 38.3833 28.5817 37.6479C28.8794 37.5512 29.1589 37.3848 29.3948 37.1486H29.3951C29.7671 36.7757 29.9621 36.2935 29.9854 35.8041C30.0229 35.7709 33.3776 32.4195 33.4131 32.384C34.5448 31.2543 34.5623 30.2383 34.5761 29.4217C34.5981 28.143 34.754 28.1848 35.9824 26.9518C36.4586 27.428 36.7073 27.7776 37.2878 27.7776C37.5972 27.7776 37.888 27.6572 38.1067 27.4385L42.7684 22.7765C43.2212 22.324 43.2212 21.5915 42.7687 21.139L39.5064 17.8767ZM5.82001 26.4713L1.30667 21.9579L9.64696 13.6173L14.1606 18.131C13.9531 18.3382 6.21633 26.0749 5.82001 26.4713ZM28.5012 36.2564C28.2025 36.5553 27.7214 36.5609 27.4149 36.2758L21.0877 29.8621C20.8427 29.6138 20.4431 29.6112 20.1948 29.8562C19.9464 30.1009 19.9438 30.5008 20.1888 30.7491C21.4238 32.0015 26.0105 36.6606 27.256 37.9057C27.5635 38.2132 27.5622 38.7099 27.256 39.0157C26.9501 39.3216 26.4522 39.3216 26.1463 39.0157C24.8311 37.7005 26.3243 39.2111 18.9861 31.7479C18.7417 31.499 18.3418 31.4957 18.0932 31.7404C17.8445 31.9847 17.8412 32.3847 18.0856 32.6333C18.0876 32.6353 24.496 39.1516 24.496 39.1516C24.8022 39.4574 24.8022 39.9554 24.496 40.2616C24.1901 40.5674 23.6925 40.5674 23.3863 40.2612C22.2766 39.1519 23.362 40.2616 17.0315 33.744C16.7885 33.494 16.3889 33.4881 16.1386 33.7311C15.8883 33.9742 15.8827 34.3738 16.1257 34.6241L20.5717 39.2016C20.6585 39.3519 20.9012 39.4949 20.9009 39.887C20.9009 40.0961 20.8193 40.2928 20.6713 40.4408C20.3661 40.7467 19.8692 40.7463 19.5636 40.4408C11.6894 32.5662 17.712 38.5786 10.6129 31.4901C9.84331 30.7218 9.83344 30.1387 9.82062 29.4003C9.79003 27.6003 9.31479 27.3277 8.03179 26.046L13.7031 20.3743C14.3336 21.0176 15.3006 22.1089 16.478 22.1089H16.4875C17.4446 22.1043 17.6794 22.1033 17.7393 22.103H17.7505H17.7685C18.4868 22.103 19.2314 22.3565 19.2929 22.3779L19.8359 22.5907L16.9157 23.7346C14.6744 24.569 15.4051 28.1246 18.1376 27.6783L20.6792 27.3346L28.4972 35.1529C28.8028 35.4575 28.8044 35.9525 28.5012 36.2564ZM34.2067 26.9409H34.2064C33.3404 27.8056 33.3256 28.6899 33.3135 29.4003C33.301 30.1387 33.2908 30.7218 32.5208 31.4901L29.5691 34.4379C29.5411 34.41 21.5254 26.3943 21.3511 26.22C21.2192 26.0881 21.0219 26.0138 20.82 26.0407L17.9593 26.4278C17.953 26.4285 17.9465 26.4295 17.9399 26.4305C16.7197 26.6341 16.5207 25.2264 17.3594 24.9169C17.3634 24.9156 17.3673 24.914 17.3712 24.9127C25.1965 21.8464 24.0503 22.096 26.6462 22.1085H26.6558C27.7658 22.1085 28.6525 21.1709 29.4178 20.3875L35.0891 26.0588C35.0411 26.1072 34.2544 26.8929 34.2067 26.9409Z" fill="#B6B6B6"/>
</svg>
