<svg width="1342" height="1346" viewBox="0 0 1342 1346" fill="none" xmlns="http://www.w3.org/2000/svg">
<g filter="url(#filter0_d_629_14)">
<path d="M671 0C312.588 0 21 291.588 21 650C21 1008.41 312.588 1300 671 1300C1029.41 1300 1321 1008.41 1321 650C1321 291.588 1029.41 0 671 0ZM671 1239.06C346.19 1239.06 81.9375 974.81 81.9375 650C81.9375 325.19 346.19 60.9375 671 60.9375C995.81 60.9375 1260.06 325.19 1260.06 650C1260.06 974.81 995.81 1239.06 671 1239.06ZM976.48 382.129H365.518C324.654 382.129 291.408 415.375 291.408 456.239V843.763C291.408 884.627 324.652 917.874 365.518 917.874H976.48C1017.34 917.874 1050.59 884.627 1050.59 843.763V456.239C1050.59 415.375 1017.34 382.129 976.48 382.129ZM930.551 443.066L671 649.18L411.447 443.066H930.551ZM976.48 856.934H365.518C358.256 856.934 352.345 851.025 352.345 843.761V473.946L652.051 711.946C657.599 716.351 664.299 718.555 670.997 718.555C677.695 718.555 684.399 716.353 689.944 711.946L989.652 473.946V843.761C989.652 851.025 983.741 856.934 976.48 856.934Z" fill="url(#paint0_linear_629_14)"/>
</g>
<defs>
<filter id="filter0_d_629_14" x="0" y="0" width="1342" height="1346" filterUnits="userSpaceOnUse" color-interpolation-filters="sRGB">
<feFlood flood-opacity="0" result="BackgroundImageFix"/>
<feColorMatrix in="SourceAlpha" type="matrix" values="0 0 0 0 0 0 0 0 0 0 0 0 0 0 0 0 0 0 127 0" result="hardAlpha"/>
<feOffset dy="25"/>
<feGaussianBlur stdDeviation="10.5"/>
<feComposite in2="hardAlpha" operator="out"/>
<feColorMatrix type="matrix" values="0 0 0 0 0.894118 0 0 0 0 0.788235 0 0 0 0 0.584314 0 0 0 0.14 0"/>
<feBlend mode="normal" in2="BackgroundImageFix" result="effect1_dropShadow_629_14"/>
<feBlend mode="normal" in="SourceGraphic" in2="effect1_dropShadow_629_14" result="shape"/>
</filter>
<linearGradient id="paint0_linear_629_14" x1="141.93" y1="127.451" x2="1310.73" y2="175.332" gradientUnits="userSpaceOnUse">
<stop stop-color="#B48A3D"/>
<stop offset="0.478771" stop-color="#FCECCE"/>
<stop offset="1" stop-color="#CCAB6C"/>
</linearGradient>
</defs>
</svg>
