<svg width="28" height="24" viewBox="0 0 28 24" fill="none" xmlns="http://www.w3.org/2000/svg">
<mask id="mask0_81_1357" style="mask-type:alpha" maskUnits="userSpaceOnUse" x="0" y="0" width="29" height="24">
<path d="M20.4615 8.05768H28V4.55768C28 2.33086 26.1884 0.519226 23.9615 0.519226H4.03845C1.81163 0.519226 0 2.33086 0 4.55768V19.6346C0 21.8614 1.81163 23.673 4.03845 23.673H23.9615C26.1884 23.673 28 21.8614 28 19.6346V16.1346H20.4615C18.2347 16.1346 16.4231 14.323 16.4231 12.0961C16.4231 9.86931 18.2347 8.05768 20.4615 8.05768Z" fill="black"/>
<path d="M20.4622 9.67303C19.1261 9.67303 18.0391 10.76 18.0391 12.0961C18.0391 13.4322 19.126 14.5192 20.4622 14.5192H28.0006V9.67309H20.4622V9.67303ZM21.5391 12.9038H20.4622C20.0161 12.9038 19.6545 12.5422 19.6545 12.0961C19.6545 11.6501 20.0161 11.2884 20.4622 11.2884H21.5391C21.9851 11.2884 22.3467 11.6501 22.3467 12.0961C22.3467 12.5422 21.9851 12.9038 21.5391 12.9038Z" fill="black"/>
</mask>
<g mask="url(#mask0_81_1357)">
<g filter="url(#filter0_d_81_1357)">
<rect x="-4.55811" y="-4.50853" width="37.7674" height="33.2093" rx="12" fill="url(#paint0_linear_81_1357)"/>
</g>
</g>
<defs>
<filter id="filter0_d_81_1357" x="-25.5581" y="-4.50853" width="79.7676" height="79.2093" filterUnits="userSpaceOnUse" color-interpolation-filters="sRGB">
<feFlood flood-opacity="0" result="BackgroundImageFix"/>
<feColorMatrix in="SourceAlpha" type="matrix" values="0 0 0 0 0 0 0 0 0 0 0 0 0 0 0 0 0 0 127 0" result="hardAlpha"/>
<feOffset dy="25"/>
<feGaussianBlur stdDeviation="10.5"/>
<feComposite in2="hardAlpha" operator="out"/>
<feColorMatrix type="matrix" values="0 0 0 0 0.894118 0 0 0 0 0.788235 0 0 0 0 0.584314 0 0 0 0.14 0"/>
<feBlend mode="normal" in2="BackgroundImageFix" result="effect1_dropShadow_81_1357"/>
<feBlend mode="normal" in="SourceGraphic" in2="effect1_dropShadow_81_1357" result="shape"/>
</filter>
<linearGradient id="paint0_linear_81_1357" x1="-1.04486" y1="-1.25271" x2="32.8944" y2="0.328458" gradientUnits="userSpaceOnUse">
<stop stop-color="#B48A3D"/>
<stop offset="0.478771" stop-color="#FCECCE"/>
<stop offset="1" stop-color="#CCAB6C"/>
</linearGradient>
</defs>
</svg>
