<svg width="20" height="20" viewBox="0 0 20 20" fill="none" xmlns="http://www.w3.org/2000/svg">
<path d="M14.8488 6.84999L14.8489 6.85005C15.0811 7.09473 15.0708 7.48135 14.8261 7.71351L9.06962 13.1727C9.06957 13.1727 9.06951 13.1728 9.06946 13.1728C8.95082 13.2848 8.79997 13.3405 8.64885 13.3405C8.48929 13.3405 8.33084 13.2786 8.21134 13.1559L8.2113 13.1558L5.18428 10.048C5.18427 10.048 5.18427 10.048 5.18427 10.048C4.9489 9.80627 4.95402 9.41966 5.19568 9.18432L5.19569 9.18431C5.43757 8.94873 5.82365 8.95392 6.05936 9.1957C6.05938 9.19571 6.05939 9.19573 6.05941 9.19575L8.52827 11.7306L8.66597 11.872L8.80917 11.7361L13.9854 6.82721L13.9854 6.82715C14.2303 6.59474 14.6169 6.60539 14.8488 6.84999Z" fill="#5A5A5A" stroke="#181818" stroke-width="0.4"/>
<path d="M0.2 10C0.2 4.59639 4.59639 0.2 10 0.2C15.4036 0.2 19.8 4.59639 19.8 10C19.8 15.4036 15.4036 19.8 10 19.8C4.59639 19.8 0.2 15.4036 0.2 10ZM1.4216 10C1.4216 14.7305 5.26982 18.5784 10 18.5784C14.7305 18.5784 18.5784 14.7305 18.5784 10C18.5784 5.26978 14.7305 1.4216 10 1.4216C5.26978 1.4216 1.4216 5.26982 1.4216 10Z" fill="#5A5A5A" stroke="#181818" stroke-width="0.4"/>
</svg>
