<svg width="27" height="22" viewBox="0 0 27 22" fill="none" xmlns="http://www.w3.org/2000/svg">
<mask id="mask0_209_223" style="mask-type:alpha" maskUnits="userSpaceOnUse" x="0" y="0" width="27" height="22">
<path d="M19.0164 6.89982H26.0225V3.69633C26.0225 1.65816 24.3388 0 22.2692 0H3.75323C1.68368 0 0 1.65816 0 3.69633V17.496C0 19.5341 1.68368 21.1923 3.75323 21.1923H22.2692C24.3388 21.1923 26.0225 19.5341 26.0225 17.496V14.2925H19.0164C16.9469 14.2925 15.2632 12.6343 15.2632 10.5961C15.2632 8.55797 16.9469 6.89982 19.0164 6.89982Z" fill="black"/>
<path d="M19.0137 8.37845C17.772 8.37845 16.7617 9.37333 16.7617 10.5963C16.7617 11.8192 17.7719 12.8141 19.0137 12.8141H26.0197V8.3785H19.0137V8.37845ZM20.0145 11.3355H19.0137C18.5991 11.3355 18.263 11.0045 18.263 10.5963C18.263 10.188 18.5991 9.85701 19.0137 9.85701H20.0145C20.4291 9.85701 20.7652 10.188 20.7652 10.5963C20.7652 11.0045 20.4291 11.3355 20.0145 11.3355Z" fill="black"/>
</mask>
<g mask="url(#mask0_209_223)">
<g filter="url(#filter0_d_209_223)">
<rect x="-4.2373" y="-4.60161" width="35.1001" height="30.3959" fill="url(#paint0_linear_209_223)"/>
</g>
</g>
<defs>
<filter id="filter0_d_209_223" x="-25.2373" y="-4.60161" width="77.0996" height="76.3959" filterUnits="userSpaceOnUse" color-interpolation-filters="sRGB">
<feFlood flood-opacity="0" result="BackgroundImageFix"/>
<feColorMatrix in="SourceAlpha" type="matrix" values="0 0 0 0 0 0 0 0 0 0 0 0 0 0 0 0 0 0 127 0" result="hardAlpha"/>
<feOffset dy="25"/>
<feGaussianBlur stdDeviation="10.5"/>
<feComposite in2="hardAlpha" operator="out"/>
<feColorMatrix type="matrix" values="0 0 0 0 0.894118 0 0 0 0 0.788235 0 0 0 0 0.584314 0 0 0 0.14 0"/>
<feBlend mode="normal" in2="BackgroundImageFix" result="effect1_dropShadow_209_223"/>
<feBlend mode="normal" in="SourceGraphic" in2="effect1_dropShadow_209_223" result="shape"/>
</filter>
<linearGradient id="paint0_linear_209_223" x1="-0.972181" y1="-1.62161" x2="30.568" y2="-0.129593" gradientUnits="userSpaceOnUse">
<stop stop-color="#B5B6BF"/>
<stop offset="0.478771" stop-color="#FDFDFD"/>
<stop offset="1" stop-color="#93949F"/>
</linearGradient>
</defs>
</svg>
