<svg width="37" height="37" viewBox="0 0 37 37" fill="none" xmlns="http://www.w3.org/2000/svg">
<path d="M8.72891 3.87653C11.6212 1.94399 15.0215 0.9125 18.5 0.9125C23.1645 0.9125 27.6379 2.76546 30.9362 6.06376C34.2345 9.36205 36.0875 13.8355 36.0875 18.5C36.0875 21.9785 35.056 25.3788 33.1235 28.2711C31.1909 31.1633 28.4441 33.4176 25.2304 34.7487C22.0168 36.0799 18.4805 36.4282 15.0689 35.7496C11.6572 35.0709 8.52342 33.3959 6.06377 30.9362C3.60411 28.4766 1.92906 25.3428 1.25045 21.9311C0.571829 18.5195 0.920121 14.9832 2.25128 11.7696C3.58243 8.55586 5.83667 5.80907 8.72891 3.87653ZM9.76367 31.5749C12.3496 33.3027 15.3899 34.225 18.5 34.225C22.6705 34.225 26.6702 32.5683 29.6193 29.6193C32.5683 26.6702 34.225 22.6705 34.225 18.5C34.225 15.3899 33.3027 12.3496 31.5749 9.76366C29.847 7.1777 27.3911 5.16218 24.5177 3.97199C21.6443 2.78181 18.4826 2.4704 15.4322 3.07715C12.3819 3.6839 9.57993 5.18156 7.38075 7.38074C5.18157 9.57993 3.68391 12.3819 3.07716 15.4322C2.47041 18.4826 2.78181 21.6443 3.972 24.5177C5.16219 27.3911 7.1777 29.847 9.76367 31.5749Z" fill="white" stroke="#191919" stroke-width="0.7"/>
<path d="M10.8644 7.07249C13.1245 5.56231 15.7817 4.75625 18.5 4.75625C22.1451 4.75625 25.6409 6.20425 28.2183 8.7817C30.7958 11.3592 32.2438 14.8549 32.2438 18.5C32.2438 21.2183 31.4377 23.8755 29.9275 26.1356C28.4173 28.3958 26.2709 30.1573 23.7595 31.1976C21.2482 32.2378 18.4848 32.51 15.8187 31.9797C13.1527 31.4494 10.7038 30.1404 8.78171 28.2183C6.85961 26.2962 5.55064 23.8473 5.02034 21.1813C4.49003 18.5152 4.76221 15.7518 5.80244 13.2405C6.84267 10.7292 8.60424 8.58267 10.8644 7.07249ZM11.8991 28.3789C13.853 29.6844 16.1501 30.3813 18.5 30.3813C21.6511 30.3813 24.6731 29.1295 26.9013 26.9013C29.1295 24.6731 30.3813 21.6511 30.3813 18.5C30.3813 16.1501 29.6844 13.853 28.3789 11.8991C27.0734 9.94527 25.2178 8.42242 23.0468 7.52316C20.8757 6.62389 18.4868 6.3886 16.1821 6.84705C13.8774 7.30549 11.7603 8.43706 10.0987 10.0987C8.43707 11.7603 7.30549 13.8773 6.84705 16.1821C6.38861 18.4868 6.6239 20.8757 7.52316 23.0468C8.42243 25.2178 9.94527 27.0734 11.8991 28.3789Z" fill="white" stroke="#191919" stroke-width="0.7"/>
<path d="M25.5673 11.4305L25.5673 11.4305L25.5693 11.4326C25.6566 11.5191 25.7259 11.6221 25.7732 11.7356C25.8205 11.8491 25.8448 11.9708 25.8448 12.0937C25.8448 12.2167 25.8205 12.3384 25.7732 12.4519C25.7259 12.5654 25.6566 12.6684 25.5693 12.7549L25.5683 12.7559L12.7558 25.5684C12.5802 25.7441 12.342 25.8427 12.0936 25.8427C11.8452 25.8427 11.607 25.7441 11.4314 25.5684C11.2558 25.3928 11.1571 25.1546 11.1571 24.9062C11.1571 24.6579 11.2558 24.4197 11.4314 24.244L24.2439 11.4315L24.2449 11.4305C24.3315 11.3432 24.4345 11.274 24.548 11.2267L24.4134 10.9036L24.548 11.2267C24.6615 11.1794 24.7832 11.1551 24.9061 11.1551C25.0291 11.1551 25.1508 11.1794 25.2643 11.2267L25.3989 10.9036L25.2643 11.2267C25.3777 11.274 25.4807 11.3432 25.5673 11.4305Z" fill="white" stroke="#191919" stroke-width="0.7"/>
<path d="M16.2799 12.7152C16.6638 13.2898 16.8687 13.9653 16.8687 14.6562C16.8687 15.5828 16.5007 16.4715 15.8455 17.1267C15.1902 17.7819 14.3016 18.15 13.375 18.15C12.684 18.15 12.0085 17.9451 11.434 17.5612C10.8594 17.1773 10.4116 16.6316 10.1472 15.9932C9.88276 15.3548 9.81358 14.6524 9.94838 13.9747C10.0832 13.2969 10.4159 12.6744 10.9045 12.1858C11.3932 11.6972 12.0157 11.3644 12.6934 11.2296C13.3711 11.0948 14.0736 11.164 14.712 11.4284C15.3504 11.6929 15.896 12.1407 16.2799 12.7152ZM12.0187 13.75C11.8394 14.0182 11.7438 14.3336 11.7438 14.6562C11.7438 15.0889 11.9156 15.5038 12.2215 15.8097C12.5275 16.1156 12.9424 16.2875 13.375 16.2875C13.6976 16.2875 14.013 16.1918 14.2813 16.0126C14.5495 15.8333 14.7586 15.5786 14.8821 15.2805C15.0055 14.9824 15.0378 14.6544 14.9749 14.338C14.912 14.0216 14.7566 13.7309 14.5285 13.5028C14.3003 13.2746 14.0097 13.1193 13.6932 13.0563C13.3768 12.9934 13.0488 13.0257 12.7507 13.1492C12.4527 13.2726 12.1979 13.4817 12.0187 13.75Z" fill="white" stroke="#191919" stroke-width="0.7"/>
<path d="M21.684 19.4388C22.2585 19.0549 22.934 18.85 23.625 18.85C24.5516 18.85 25.4402 19.2181 26.0955 19.8733C26.7507 20.5285 27.1187 21.4171 27.1187 22.3437C27.1187 23.0347 26.9138 23.7102 26.5299 24.2848C26.146 24.8593 25.6004 25.3071 24.962 25.5716C24.3236 25.836 23.6211 25.9052 22.9434 25.7704C22.2657 25.6356 21.6432 25.3028 21.1545 24.8142C20.6659 24.3256 20.3332 23.7031 20.1984 23.0253C20.0636 22.3476 20.1328 21.6451 20.3972 21.0067C20.6616 20.3683 21.1094 19.8227 21.684 19.4388ZM22.7187 23.7001C22.987 23.8793 23.3024 23.975 23.625 23.975C24.0576 23.975 24.4725 23.8031 24.7785 23.4972C25.0844 23.1913 25.2562 22.7764 25.2562 22.3437C25.2562 22.0211 25.1606 21.7057 24.9813 21.4375C24.8021 21.1692 24.5473 20.9601 24.2493 20.8367C23.9512 20.7132 23.6232 20.6809 23.3068 20.7438C22.9903 20.8068 22.6997 20.9621 22.4715 21.1903C22.2434 21.4184 22.088 21.7091 22.0251 22.0255C21.9622 22.3419 21.9945 22.6699 22.1179 22.968C22.2414 23.2661 22.4505 23.5208 22.7187 23.7001Z" fill="white" stroke="#191919" stroke-width="0.7"/>
</svg>
