<svg width="53" height="53" viewBox="0 0 53 53" fill="none" xmlns="http://www.w3.org/2000/svg">
<path d="M26.5 1.5625C21.5678 1.5625 16.7464 3.02506 12.6455 5.76523C8.54453 8.50539 5.34822 12.4001 3.46076 16.9568C1.5733 21.5136 1.07946 26.5277 2.04168 31.3651C3.0039 36.2025 5.37896 40.6459 8.86653 44.1335C12.3541 47.621 16.7975 49.9961 21.6349 50.9583C26.4723 51.9205 31.4864 51.4267 36.0432 49.5392C40.5999 47.6518 44.4946 44.4555 47.2348 40.3545C49.9749 36.2536 51.4375 31.4322 51.4375 26.5C51.4375 19.8862 48.8102 13.5432 44.1335 8.86652C39.4568 4.18984 33.1138 1.5625 26.5 1.5625ZM26.5 47.875C22.2724 47.875 18.1398 46.6214 14.6247 44.2727C11.1096 41.9239 8.36991 38.5856 6.75209 34.6799C5.13426 30.7741 4.71097 26.4763 5.53573 22.3299C6.36048 18.1836 8.39625 14.3749 11.3856 11.3856C14.3749 8.39624 18.1836 6.36047 22.33 5.53571C26.4763 4.71096 30.7741 5.13425 34.6799 6.75207C38.5856 8.3699 41.9239 11.1096 44.2727 14.6247C46.6214 18.1398 47.875 22.2724 47.875 26.5C47.875 32.169 45.623 37.6058 41.6144 41.6144C37.6058 45.623 32.169 47.875 26.5 47.875Z" fill="url(#paint0_linear_147_139)" stroke="#171716" stroke-width="2"/>
<path d="M26.5 6.90625C22.6247 6.90625 18.8365 8.0554 15.6143 10.2084C12.3921 12.3614 9.88075 15.4215 8.39774 19.0018C6.91474 22.5821 6.52672 26.5217 7.28275 30.3226C8.03878 34.1234 9.9049 37.6146 12.6451 40.3549C15.3854 43.0951 18.8766 44.9612 22.6775 45.7173C26.4783 46.4733 30.4179 46.0853 33.9982 44.6023C37.5785 43.1193 40.6386 40.6079 42.7916 37.3857C44.9446 34.1635 46.0938 30.3753 46.0938 26.5C46.0938 21.3034 44.0294 16.3197 40.3549 12.6451C36.6803 8.97059 31.6966 6.90625 26.5 6.90625ZM26.5 42.5312C23.3293 42.5312 20.2298 41.591 17.5935 39.8295C14.9572 38.068 12.9024 35.5642 11.6891 32.6349C10.4757 29.7056 10.1582 26.4822 10.7768 23.3725C11.3954 20.2627 12.9222 17.4062 15.1642 15.1642C17.4062 12.9222 20.2627 11.3954 23.3725 10.7768C26.4822 10.1582 29.7056 10.4757 32.6349 11.6891C35.5642 12.9024 38.068 14.9572 39.8295 17.5935C41.591 20.2298 42.5312 23.3293 42.5312 26.5C42.5312 30.7518 40.8422 34.8294 37.8358 37.8358C34.8294 40.8422 30.7518 42.5312 26.5 42.5312Z" fill="url(#paint1_linear_147_139)" stroke="#171716" stroke-width="2"/>
<path d="M36.6704 16.3291C36.5048 16.1622 36.3078 16.0297 36.0908 15.9392C35.8737 15.8488 35.6409 15.8022 35.4057 15.8022C35.1706 15.8022 34.9378 15.8488 34.7207 15.9392C34.5036 16.0297 34.3066 16.1622 34.141 16.3291L16.3285 34.1416C15.9931 34.4771 15.8047 34.932 15.8047 35.4063C15.8047 35.8807 15.9931 36.3356 16.3285 36.671C16.664 37.0064 17.1189 37.1949 17.5932 37.1949C18.0676 37.1949 18.5225 37.0064 18.8579 36.671L36.6704 18.8585C36.8374 18.6929 36.9699 18.4959 37.0603 18.2789C37.1507 18.0618 37.1973 17.829 37.1973 17.5938C37.1973 17.3587 37.1507 17.1259 37.0603 16.9088C36.9699 16.6917 36.8374 16.4947 36.6704 16.3291Z" fill="url(#paint2_linear_147_139)" stroke="#171716" stroke-width="2"/>
<path d="M24.7187 21.1562C24.7187 20.0994 24.4053 19.0662 23.8182 18.1874C23.231 17.3086 22.3964 16.6237 21.42 16.2193C20.4435 15.8148 19.3691 15.709 18.3325 15.9152C17.2959 16.1214 16.3437 16.6303 15.5964 17.3776C14.8491 18.125 14.3401 19.0772 14.1339 20.1137C13.9277 21.1503 14.0336 22.2248 14.438 23.2012C14.8425 24.1777 15.5274 25.0122 16.4062 25.5994C17.2849 26.1866 18.3181 26.5 19.375 26.5C20.7923 26.5 22.1515 25.937 23.1536 24.9348C24.1557 23.9327 24.7187 22.5735 24.7187 21.1562ZM17.5938 21.1562C17.5938 20.804 17.6982 20.4596 17.8939 20.1666C18.0897 19.8737 18.3679 19.6454 18.6933 19.5106C19.0188 19.3758 19.377 19.3405 19.7225 19.4092C20.068 19.478 20.3854 19.6476 20.6345 19.8967C20.8836 20.1458 21.0533 20.4632 21.122 20.8087C21.1908 21.1543 21.1555 21.5124 21.0207 21.8379C20.8858 22.1634 20.6575 22.4416 20.3646 22.6373C20.0717 22.833 19.7273 22.9375 19.375 22.9375C18.9026 22.9375 18.4495 22.7498 18.1155 22.4158C17.7814 22.0817 17.5938 21.6287 17.5938 21.1562Z" fill="url(#paint3_linear_147_139)" stroke="#171716" stroke-width="2"/>
<path d="M33.625 26.5C32.5681 26.5 31.535 26.8134 30.6562 27.4006C29.7774 27.9878 29.0925 28.8223 28.688 29.7988C28.2836 30.7752 28.1777 31.8497 28.3839 32.8863C28.5901 33.9228 29.0991 34.875 29.8464 35.6223C30.5937 36.3697 31.5459 36.8786 32.5825 37.0848C33.6191 37.291 34.6935 37.1852 35.67 36.7807C36.6464 36.3763 37.481 35.6913 38.0682 34.8126C38.6553 33.9338 38.9688 32.9006 38.9688 31.8437C38.9688 30.4265 38.4058 29.0673 37.4036 28.0651C36.4015 27.063 35.0423 26.5 33.625 26.5ZM33.625 33.625C33.2727 33.625 32.9283 33.5205 32.6354 33.3248C32.3425 33.1291 32.1142 32.8509 31.9793 32.5254C31.8445 32.1999 31.8092 31.8418 31.878 31.4962C31.9467 31.1507 32.1164 30.8333 32.3655 30.5842C32.6146 30.3351 32.932 30.1655 33.2775 30.0967C33.623 30.028 33.9812 30.0633 34.3067 30.1981C34.6321 30.3329 34.9103 30.5612 35.1061 30.8541C35.3018 31.1471 35.4063 31.4914 35.4063 31.8437C35.4063 32.3162 35.2186 32.7692 34.8845 33.1033C34.5505 33.4373 34.0974 33.625 33.625 33.625Z" fill="url(#paint4_linear_147_139)" stroke="#171716" stroke-width="2"/>
<defs>
<linearGradient id="paint0_linear_147_139" x1="6.20203" y1="6.45222" x2="51.0437" y2="8.28917" gradientUnits="userSpaceOnUse">
<stop stop-color="#B48A3D"/>
<stop offset="0.478771" stop-color="#FCECCE"/>
<stop offset="1" stop-color="#CCAB6C"/>
</linearGradient>
<linearGradient id="paint1_linear_147_139" x1="10.5516" y1="10.7482" x2="45.7843" y2="12.1915" gradientUnits="userSpaceOnUse">
<stop stop-color="#B48A3D"/>
<stop offset="0.478771" stop-color="#FCECCE"/>
<stop offset="1" stop-color="#CCAB6C"/>
</linearGradient>
<linearGradient id="paint2_linear_147_139" x1="17.7947" y1="17.8996" x2="37.0284" y2="18.6875" gradientUnits="userSpaceOnUse">
<stop stop-color="#B48A3D"/>
<stop offset="0.478771" stop-color="#FCECCE"/>
<stop offset="1" stop-color="#CCAB6C"/>
</linearGradient>
<linearGradient id="paint3_linear_147_139" x1="15.0254" y1="16.8603" x2="24.6344" y2="17.2539" gradientUnits="userSpaceOnUse">
<stop stop-color="#B48A3D"/>
<stop offset="0.478771" stop-color="#FCECCE"/>
<stop offset="1" stop-color="#CCAB6C"/>
</linearGradient>
<linearGradient id="paint4_linear_147_139" x1="29.2754" y1="27.5478" x2="38.8844" y2="27.9414" gradientUnits="userSpaceOnUse">
<stop stop-color="#B48A3D"/>
<stop offset="0.478771" stop-color="#FCECCE"/>
<stop offset="1" stop-color="#CCAB6C"/>
</linearGradient>
</defs>
</svg>
