<svg width="12" height="12" viewBox="0 0 12 12" fill="none" xmlns="http://www.w3.org/2000/svg">
<path d="M10.9538 4.44C10.7349 4.40821 10.5261 4.32747 10.3428 4.20379C10.1595 4.08011 10.0065 3.91668 9.89514 3.72565C9.78377 3.53463 9.71693 3.32095 9.69959 3.10052C9.68225 2.88008 9.71487 2.65858 9.79501 2.4525C9.84595 2.31777 9.85346 2.17048 9.81647 2.03127C9.77948 1.89206 9.69986 1.76792 9.58876 1.67625C9.09827 1.26437 8.53997 0.940812 7.93876 0.719996C7.80185 0.669139 7.65239 0.662785 7.51166 0.701838C7.37094 0.740892 7.24613 0.823361 7.15501 0.937496C7.01786 1.11287 6.84258 1.2547 6.64246 1.35225C6.44234 1.4498 6.22264 1.50049 6.00001 1.50049C5.77738 1.50049 5.55767 1.4498 5.35755 1.35225C5.15743 1.2547 4.98215 1.11287 4.84501 0.937496C4.75389 0.823361 4.62908 0.740892 4.48835 0.701838C4.34762 0.662785 4.19816 0.669139 4.06126 0.719996C3.50613 0.923861 2.9871 1.21502 2.52376 1.5825C2.40696 1.67496 2.32284 1.80238 2.2837 1.94611C2.24456 2.08985 2.25247 2.24233 2.30626 2.38125C2.39279 2.59278 2.42854 2.82165 2.41065 3.0495C2.39275 3.27734 2.32171 3.49782 2.20321 3.69325C2.08471 3.88868 1.92206 4.05362 1.72831 4.17483C1.53455 4.29605 1.31508 4.37017 1.08751 4.39125C0.939761 4.40704 0.80099 4.46986 0.691625 4.57045C0.58226 4.67104 0.508081 4.80408 0.480008 4.95C0.410182 5.29563 0.375008 5.64737 0.375008 6C0.374495 6.2952 0.398326 6.58995 0.446258 6.88125C0.470114 7.03183 0.542913 7.17037 0.653401 7.27544C0.763888 7.3805 0.90591 7.44624 1.05751 7.46249C1.29008 7.48432 1.51404 7.56154 1.71065 7.68768C1.90725 7.81383 2.07078 7.98524 2.18754 8.18755C2.30431 8.38987 2.37091 8.61722 2.38178 8.85056C2.39265 9.0839 2.34746 9.31645 2.25001 9.52874C2.18623 9.66683 2.17041 9.82227 2.20506 9.97038C2.23971 10.1185 2.32284 10.2508 2.44126 10.3462C2.9288 10.7506 3.48172 11.069 4.07626 11.2875C4.15229 11.3138 4.23206 11.3278 4.31251 11.3287C4.42282 11.3285 4.53147 11.3018 4.62934 11.2509C4.72721 11.2 4.81146 11.1264 4.87501 11.0362C5.00866 10.8415 5.18783 10.6823 5.39695 10.5726C5.60607 10.4628 5.83882 10.4057 6.07501 10.4062C6.30385 10.4065 6.52947 10.4602 6.73389 10.5631C6.93832 10.666 7.1159 10.8151 7.25251 10.9987C7.34337 11.1209 7.47208 11.2096 7.61859 11.2509C7.7651 11.2923 7.92117 11.2841 8.06251 11.2275C8.60614 11.0087 9.11225 10.7063 9.56251 10.3312C9.67561 10.2377 9.75615 10.1108 9.79254 9.96858C9.82892 9.8264 9.81929 9.67635 9.76501 9.54C9.67681 9.33119 9.63835 9.10474 9.65267 8.87852C9.66699 8.6523 9.7337 8.43251 9.84753 8.23649C9.96136 8.04047 10.1192 7.87359 10.3086 7.74903C10.4979 7.62447 10.7137 7.54563 10.9388 7.51874C11.0847 7.49856 11.2204 7.43244 11.3263 7.32996C11.4321 7.22748 11.5026 7.09396 11.5275 6.94875C11.5877 6.63596 11.6204 6.31849 11.625 6C11.6251 5.66405 11.5937 5.32884 11.5313 4.99875C11.5059 4.85673 11.4365 4.72631 11.3328 4.62601C11.2292 4.5257 11.0965 4.46062 10.9538 4.44ZM7.87501 6C7.87501 6.37084 7.76504 6.73335 7.55901 7.04169C7.35299 7.35003 7.06015 7.59035 6.71754 7.73227C6.37493 7.87418 5.99793 7.91131 5.63421 7.83897C5.2705 7.76662 4.93641 7.58804 4.67418 7.32582C4.41196 7.0636 4.23338 6.7295 4.16104 6.36579C4.08869 6.00208 4.12582 5.62508 4.26773 5.28246C4.40965 4.93985 4.64997 4.64702 4.95831 4.44099C5.26666 4.23496 5.62917 4.125 6.00001 4.125C6.49729 4.125 6.9742 4.32254 7.32583 4.67417C7.67746 5.0258 7.87501 5.50271 7.87501 6Z" fill="#ECD5AB"/>
</svg>
