<svg width="14" height="14" viewBox="0 0 14 14" fill="none" xmlns="http://www.w3.org/2000/svg">
<path d="M13.9835 1.04513C13.9532 0.489011 13.5109 0.0467816 12.9548 0.0164302C11.8327 -0.0448743 9.63689 0.0147623 7.53723 1.10077C6.46686 1.65442 5.33483 2.5931 4.43143 3.67613C4.4203 3.68948 4.40947 3.7029 4.39842 3.71627L2.3482 3.87465C2.01072 3.90073 1.71013 4.07762 1.52349 4.35991L0.124749 6.47555C-0.0168095 6.68965 -0.0393133 6.95759 0.0645105 7.19228C0.168362 7.427 0.381752 7.59057 0.635364 7.62986L2.36269 7.89739C2.35659 7.93097 2.35047 7.96452 2.34486 7.9981C2.28736 8.34208 2.40133 8.69574 2.64977 8.94416L5.05579 11.3502C5.26177 11.5562 5.5401 11.6697 5.8253 11.6697C5.88403 11.6697 5.94309 11.6649 6.00188 11.6551C6.03546 11.6495 6.06901 11.6434 6.10259 11.6373L6.37012 13.3646C6.40941 13.6182 6.57298 13.8316 6.80765 13.9355C6.90529 13.9787 7.00862 14 7.11149 14C7.25594 14 7.39939 13.9579 7.5244 13.8753L9.64004 12.4765C9.92236 12.2898 10.0992 11.9892 10.1253 11.6518L10.2836 9.60158C10.297 9.59054 10.3104 9.57971 10.3238 9.56858C11.4068 8.66517 12.3456 7.53314 12.8992 6.46275C13.9852 4.363 14.0448 2.16717 13.9835 1.04513ZM9.18764 11.7922L7.16391 13.1302L6.90316 11.4468C7.75847 11.1953 8.60456 10.7925 9.41062 10.253L9.30746 11.5886C9.30103 11.6719 9.25734 11.7461 9.18764 11.7922ZM5.63583 10.7702L3.22978 8.36412C3.1684 8.3027 3.14001 8.21644 3.15393 8.13334C3.22546 7.7056 3.33662 7.29843 3.47421 6.91485L7.08434 10.525C6.62365 10.69 6.21101 10.7884 5.86661 10.846C5.78338 10.8599 5.69722 10.8316 5.63583 10.7702ZM2.41139 4.69252L3.74696 4.58935C3.20736 5.39542 2.80459 6.24151 2.55311 7.09682L0.869726 6.8361L2.20776 4.81234C2.25386 4.74262 2.3281 4.69895 2.41139 4.69252ZM9.79841 8.93861C9.13579 9.49131 8.49259 9.89107 7.89972 10.1803L3.81948 6.10009C4.19841 5.32616 4.66087 4.68169 5.06134 4.20159C5.89738 3.19931 6.93717 2.33468 7.91413 1.82937C9.84115 0.832611 11.8714 0.778935 12.9102 0.835482C13.0477 0.842974 13.157 0.952321 13.1645 1.08983C13.2211 2.12856 13.1673 4.15883 12.1706 6.08587C11.6653 7.06281 10.8007 8.10258 9.79841 8.93861Z" fill="url(#paint0_linear_191_1669)"/>
<path d="M9.58978 6.45974C10.1148 6.45969 10.6401 6.25981 11.0398 5.86007C11.4272 5.47275 11.6405 4.95776 11.6405 4.41001C11.6405 3.86226 11.4272 3.34727 11.0398 2.95995C10.2403 2.16034 8.93925 2.16039 8.13972 2.95995C7.75237 3.34727 7.53906 3.86226 7.53906 4.41001C7.53906 4.95776 7.7524 5.47275 8.13972 5.86007C8.53954 6.25989 9.06454 6.4598 9.58978 6.45974ZM8.71971 3.53996C8.95957 3.30008 9.27465 3.18015 9.58973 3.18015C9.90484 3.18015 10.2199 3.30008 10.4598 3.53996C10.6922 3.77235 10.8201 4.08134 10.8201 4.40998C10.8201 4.73862 10.6922 5.04764 10.4598 5.28003C9.98006 5.75977 9.19942 5.75975 8.71968 5.28003C8.48729 5.04764 8.35929 4.73865 8.35929 4.41001C8.35929 4.08137 8.48731 3.77235 8.71971 3.53996Z" fill="url(#paint1_linear_191_1669)"/>
<path d="M0.417954 11.5373C0.522926 11.5373 0.627898 11.4973 0.70796 11.4172L2.04706 10.0781C2.20724 9.9179 2.20724 9.65821 2.04706 9.49803C1.88691 9.33785 1.6272 9.33785 1.46702 9.49803L0.127947 10.8371C-0.0322323 10.9973 -0.0322323 11.257 0.127947 11.4172C0.208009 11.4973 0.312981 11.5373 0.417954 11.5373Z" fill="url(#paint2_linear_191_1669)"/>
<path d="M3.27469 10.7252C3.11454 10.5651 2.85483 10.5651 2.69465 10.7252L0.120134 13.2998C-0.0400448 13.46 -0.0400448 13.7196 0.120134 13.8798C0.200224 13.9599 0.305169 13.9999 0.410141 13.9999C0.515113 13.9999 0.620085 13.9599 0.700148 13.8798L3.27466 11.3053C3.43487 11.1451 3.43487 10.8854 3.27469 10.7252Z" fill="url(#paint3_linear_191_1669)"/>
<path d="M3.92212 11.9524L2.58302 13.2915C2.42285 13.4517 2.42285 13.7114 2.58302 13.8716C2.66311 13.9517 2.76809 13.9917 2.87303 13.9917C2.97798 13.9917 3.08298 13.9517 3.16304 13.8716L4.50214 12.5325C4.66232 12.3723 4.66232 12.1126 4.50214 11.9524C4.34199 11.7923 4.08228 11.7923 3.92212 11.9524Z" fill="url(#paint4_linear_191_1669)"/>
<defs>
<linearGradient id="paint0_linear_191_1669" x1="6.14863" y1="-2.88235" x2="13.9625" y2="9.38397" gradientUnits="userSpaceOnUse">
<stop stop-color="#D0AF72"/>
<stop offset="0.474399" stop-color="#F9E7C7"/>
<stop offset="1" stop-color="#D0AF72"/>
</linearGradient>
<linearGradient id="paint1_linear_191_1669" x1="9.34036" y1="1.51625" x2="11.628" y2="5.10906" gradientUnits="userSpaceOnUse">
<stop stop-color="#D0AF72"/>
<stop offset="0.474399" stop-color="#F9E7C7"/>
<stop offset="1" stop-color="#D0AF72"/>
</linearGradient>
<linearGradient id="paint2_linear_191_1669" x1="0.95619" y1="8.93331" x2="2.16145" y2="10.8253" gradientUnits="userSpaceOnUse">
<stop stop-color="#D0AF72"/>
<stop offset="0.474399" stop-color="#F9E7C7"/>
<stop offset="1" stop-color="#D0AF72"/>
</linearGradient>
<linearGradient id="paint3_linear_191_1669" x1="1.49097" y1="9.90616" x2="3.38574" y2="12.8806" gradientUnits="userSpaceOnUse">
<stop stop-color="#D0AF72"/>
<stop offset="0.474399" stop-color="#F9E7C7"/>
<stop offset="1" stop-color="#D0AF72"/>
</linearGradient>
<linearGradient id="paint4_linear_191_1669" x1="3.41127" y1="11.3877" x2="4.61653" y2="13.2797" gradientUnits="userSpaceOnUse">
<stop stop-color="#D0AF72"/>
<stop offset="0.474399" stop-color="#F9E7C7"/>
<stop offset="1" stop-color="#D0AF72"/>
</linearGradient>
</defs>
</svg>
