<svg width="23" height="23" viewBox="0 0 23 23" fill="none" xmlns="http://www.w3.org/2000/svg">
<path d="M18.1873 4.25635C17.8794 4.25635 17.6289 4.50688 17.6289 4.81473C17.6289 5.12258 17.8794 5.37311 18.1873 5.37311C18.4952 5.37311 18.7457 5.12262 18.7457 4.81473C18.7457 4.50683 18.4952 4.25635 18.1873 4.25635Z" fill="white"/>
<path d="M11.5029 6.54953C8.7734 6.54953 6.55273 8.77019 6.55273 11.4997C6.55273 14.2293 8.7734 16.45 11.5029 16.45C14.2325 16.45 16.4532 14.2293 16.4532 11.4998C16.4532 8.77024 14.2325 6.54953 11.5029 6.54953Z" fill="white"/>
<path d="M16.6949 0H6.3051C2.82846 0 0 2.82846 0 6.30514V16.6949C0 20.1716 2.82846 23 6.3051 23H16.6949C20.1716 23 23 20.1715 23 16.6949V6.30514C23 2.82846 20.1716 0 16.6949 0ZM11.5 17.8085C8.02147 17.8085 5.19158 14.9785 5.19158 11.5C5.19158 8.02147 8.02152 5.19162 11.5 5.19162C14.9785 5.19162 17.8085 8.02152 17.8085 11.5C17.8085 14.9785 14.9785 17.8085 11.5 17.8085ZM18.1858 6.73091C17.1289 6.73091 16.2691 5.87111 16.2691 4.81428C16.2691 3.75745 17.1289 2.8976 18.1858 2.8976C19.2426 2.8976 20.1024 3.7574 20.1024 4.81423C20.1024 5.87106 19.2426 6.73091 18.1858 6.73091Z" fill="white"/>
</svg>
