<svg width="30" height="30" viewBox="0 0 30 30" fill="none" xmlns="http://www.w3.org/2000/svg">
<path d="M15.002 15.5783C19.2877 15.5783 22.7911 12.0749 22.7911 7.78913C22.7911 3.50339 19.2877 0 15.002 0C10.7162 0 7.21289 3.50339 7.21289 7.78913C7.21289 12.0749 10.7163 15.5783 15.002 15.5783Z" fill="url(#paint0_linear_186_97)"/>
<path d="M28.3695 21.8025C28.1654 21.2923 27.8933 20.8161 27.5872 20.374C26.0225 18.061 23.6076 16.5304 20.8865 16.1562C20.5464 16.1223 20.1723 16.1902 19.9001 16.3943C18.4716 17.4488 16.7709 17.993 15.0022 17.993C13.2334 17.993 11.5328 17.4488 10.1042 16.3943C9.83205 16.1902 9.4579 16.0882 9.11779 16.1562C6.3967 16.5304 3.94774 18.061 2.41714 20.374C2.11102 20.8161 1.83889 21.3264 1.63485 21.8025C1.53283 22.0066 1.56681 22.2447 1.66883 22.4488C1.94097 22.925 2.28107 23.4012 2.58719 23.8094C3.06336 24.4557 3.57359 25.0339 4.15184 25.5781C4.62801 26.0542 5.17222 26.4964 5.71649 26.9386C8.40353 28.9455 11.6348 29.9998 14.9682 29.9998C18.3015 29.9998 21.5328 28.9454 24.2199 26.9386C24.7641 26.5305 25.3083 26.0542 25.7845 25.5781C26.3287 25.0339 26.8729 24.4556 27.3492 23.8094C27.6893 23.3672 27.9955 22.925 28.2675 22.4488C28.4375 22.2447 28.4715 22.0066 28.3695 21.8025Z" fill="url(#paint1_linear_186_97)"/>
<defs>
<linearGradient id="paint0_linear_186_97" x1="8.25144" y1="-0.519275" x2="24.349" y2="16.0975" gradientUnits="userSpaceOnUse">
<stop stop-color="#B48A3D"/>
<stop offset="0.533097" stop-color="#FAE9C9"/>
<stop offset="1" stop-color="#B48A3D"/>
</linearGradient>
<linearGradient id="paint1_linear_186_97" x1="3.36348" y1="15.6731" x2="14.8329" y2="38.6043" gradientUnits="userSpaceOnUse">
<stop stop-color="#B48A3D"/>
<stop offset="0.533097" stop-color="#FAE9C9"/>
<stop offset="1" stop-color="#B48A3D"/>
</linearGradient>
</defs>
</svg>
