<svg width="40" height="40" viewBox="0 0 40 40" fill="none" xmlns="http://www.w3.org/2000/svg">
<g opacity="0.7" clip-path="url(#clip0_17_867)">
<path d="M8.33245 33.4984L8.31066 33.6859L8.45539 33.8071C11.5828 36.4264 15.6103 38.0062 20 38.0062C24.3897 38.0062 28.4175 36.4261 31.5449 33.8068L31.6897 33.6856L31.6678 33.4981C31.3636 30.8833 30.1811 28.4352 28.3066 26.5604L28.3066 26.5604C26.0879 24.3421 23.1367 23.1192 20 23.1192C14.0479 23.1192 9.0133 27.6401 8.33245 33.4984ZM32.9977 31.6416L33.16 32.2958L33.6018 31.7867C36.3439 28.6266 38.0062 24.5036 38.0062 20C38.0062 10.071 29.929 1.99375 20 1.99375C10.071 1.99375 1.99375 10.071 1.99375 20C1.99375 24.5027 3.65547 28.6248 6.39668 31.7848L6.83895 32.2947L7.00085 31.6394C7.6193 29.1365 8.95313 26.8553 10.8748 25.0657L10.8749 25.0657C12.2018 23.8294 13.7438 22.8907 15.4098 22.2835L16.0532 22.049L15.4862 21.6649C13.3419 20.2121 11.9317 17.7577 11.9317 14.9808C11.9317 10.5323 15.5516 6.9125 20 6.9125C24.4484 6.9125 28.0683 10.5323 28.0683 14.9808C28.0683 17.7562 26.6593 20.2098 24.5167 21.6628L23.9502 22.047L24.5933 22.2814C26.4036 22.941 28.0642 23.9938 29.4687 25.3982C31.202 27.1316 32.4157 29.2952 32.9977 31.6416ZM20 0.35C25.2493 0.35 30.1828 2.39351 33.8947 6.10534C37.6065 9.81716 39.65 14.7507 39.65 20C39.65 25.2493 37.6065 30.1828 33.8947 33.8947C30.1828 37.6065 25.2493 39.65 20 39.65C14.7507 39.65 9.81716 37.6065 6.10534 33.8947C2.39351 30.1828 0.35 25.2493 0.35 20C0.35 14.7507 2.39351 9.81716 6.10534 6.10534C9.81716 2.39351 14.7507 0.35 20 0.35ZM13.5755 14.9808C13.5755 18.5234 16.4574 21.4053 20 21.4053C23.5426 21.4053 26.4245 18.5234 26.4245 14.9808C26.4245 11.4379 23.5426 8.55625 20 8.55625C16.4574 8.55625 13.5755 11.4379 13.5755 14.9808Z" fill="white" stroke="#242424" stroke-width="0.7"/>
</g>
<defs>
<clipPath id="clip0_17_867">
<rect width="40" height="40" fill="white"/>
</clipPath>
</defs>
</svg>
