<svg width="140" height="77" viewBox="0 0 140 77" fill="none" xmlns="http://www.w3.org/2000/svg">
<path d="M138.432 38.5C138.432 58.8651 121.366 75.4564 100.211 75.4564C79.0555 75.4564 61.9893 58.8651 61.9893 38.5C61.9893 18.1348 79.0555 1.54346 100.211 1.54346C121.366 1.54346 138.432 18.1348 138.432 38.5Z" stroke="url(#paint0_linear_1_113984)" stroke-width="3"/>
<path d="M69.2719 16.5981C62.4535 7.73372 51.5987 2 39.3726 2C18.7323 2 2 18.3416 2 38.5C2 58.6584 18.7323 75 39.3726 75C52.0435 75 63.2416 68.8415 70 59.422" stroke="url(#paint1_linear_1_113984)" stroke-width="3"/>
<path d="M46.2881 36.9687C44.4567 38.7504 44.4567 41.6491 46.2881 43.4305C47.1753 44.2934 48.355 44.7687 49.6097 44.7687C50.8644 44.7687 52.0439 44.2934 52.9312 43.4305C52.9412 43.4208 52.9547 43.4154 52.9688 43.4154C52.9829 43.4154 52.9964 43.4208 53.0064 43.4305L55.0053 45.3748C55.0103 45.3796 55.0142 45.3854 55.0169 45.3917C55.0196 45.398 55.021 45.4048 55.021 45.4116C55.021 45.4185 55.0196 45.4252 55.0169 45.4315C55.0142 45.4379 55.0103 45.4436 55.0053 45.4484C53.5643 46.8504 51.6479 47.6225 49.6097 47.6225C47.5715 47.6225 45.655 46.8504 44.214 45.4484C41.2386 42.5543 41.2386 37.8454 44.214 34.9512C45.6552 33.5492 47.5715 32.7771 49.6097 32.7771C51.6479 32.7771 53.5643 33.5492 55.0054 34.9512C55.0153 34.9609 55.0209 34.9741 55.0209 34.9878C55.0209 35.0015 55.0153 35.0147 55.0054 35.0244L53.0064 36.9689C53.0015 36.9737 52.9956 36.9776 52.9892 36.9802C52.9827 36.9828 52.9758 36.9842 52.9688 36.9842C52.9618 36.9842 52.9549 36.9828 52.9484 36.9802C52.942 36.9776 52.9361 36.9737 52.9312 36.9689C52.0439 36.106 50.8644 35.6307 49.6097 35.6307C48.3549 35.6307 47.1753 36.1057 46.2881 36.9687ZM18.9393 38.8086H22.0548C22.4427 38.8086 22.7946 38.6549 23.1109 38.3474C23.5131 37.956 23.7144 37.4634 23.7144 36.8693C23.7144 36.2822 23.5131 35.7931 23.1109 35.4015C22.7946 35.0942 22.4427 34.9404 22.0548 34.9404H16.9242V47.7295H14V32.8681C14 32.7477 14.0492 32.6322 14.1367 32.547C14.2242 32.4619 14.343 32.4141 14.4668 32.4141H22.0549C23.2903 32.4141 24.3322 32.7041 25.1803 33.284C25.9345 33.8153 26.4483 34.5105 26.7213 35.3702C26.9799 36.202 26.9654 37.03 26.6783 37.8547C26.3834 38.7074 25.8446 39.3888 25.0617 39.8987C26.0243 40.3112 26.7213 40.9612 27.1524 41.8485C27.5619 42.6803 27.6624 43.5505 27.454 44.4589C27.2455 45.3954 26.7536 46.157 25.9776 46.7442C25.1155 47.401 24.0272 47.7294 22.7123 47.7294H17.1936L18.5084 45.2031H22.7123C23.1002 45.2031 23.4521 45.0494 23.7684 44.7418C24.1706 44.3505 24.3719 43.8578 24.3719 43.2638C24.3719 42.6768 24.1706 42.1876 23.7684 41.7962C23.4521 41.4887 23.1002 41.335 22.7123 41.335H17.6462L18.9393 38.8086ZM40.8066 32.7464V35.6493H35.9422C35.9422 35.6493 36.6263 36.099 36.6263 36.4417V47.6979H33.666V35.6493H28.9421V33.2676C28.9421 33.2676 28.9421 32.7464 29.4722 32.7464H40.8066ZM95.3787 37.4211C95.8589 36.8948 96.4039 36.4686 97.0137 36.1421C97.6234 35.8159 98.3399 35.6528 99.1631 35.6528C99.8034 35.6528 100.388 35.7827 100.918 36.042C101.448 36.3016 101.905 36.6779 102.29 37.1709C102.675 37.664 102.972 38.2718 103.182 38.9947C103.392 39.7176 103.496 40.5462 103.496 41.4802C103.496 42.3329 103.378 43.1226 103.142 43.8491C102.905 44.5757 102.568 45.2059 102.13 45.7396C101.692 46.2734 101.162 46.6905 100.541 46.9907C99.9195 47.291 99.224 47.4412 98.4543 47.4412C97.7987 47.4412 97.2384 47.3428 96.7737 47.1465C96.3101 46.951 95.8876 46.6739 95.5275 46.3291V51H92.7035V35.864H94.4299C94.7958 35.864 95.0359 36.031 95.1503 36.3646L95.3787 37.4211ZM95.5275 44.3162C95.8475 44.6943 96.1962 44.9612 96.5736 45.1169C96.9508 45.2725 97.3605 45.3503 97.8026 45.3503C98.2295 45.3503 98.6144 45.2725 98.9574 45.1169C99.3004 44.9612 99.5918 44.7239 99.832 44.4052C100.072 44.0864 100.257 43.6842 100.386 43.1984C100.516 42.7131 100.581 42.1402 100.581 41.4802C100.581 40.813 100.525 40.2478 100.415 39.7843C100.304 39.321 100.146 38.9446 99.9406 38.6555C99.7348 38.3663 99.4851 38.155 99.1918 38.0216C98.8983 37.8881 98.5647 37.8215 98.1914 37.8215C97.6043 37.8215 97.1052 37.942 96.6936 38.183C96.282 38.4239 95.8933 38.7631 95.5275 39.2004V44.3162ZM89.3999 32.0532V47.3058H86.5774V34.2757C86.5774 33.5786 86.8312 33.0303 87.339 32.6307C87.8465 32.2311 88.5336 32.0389 89.3999 32.0532ZM128.613 36.7597C129.537 37.5728 130 38.7993 130 40.4397V47.1953H127.382V45.7924C127.041 46.2962 126.557 46.681 125.928 46.9471C125.299 47.2132 124.541 47.3463 123.654 47.3463C122.766 47.3463 121.99 47.1986 121.324 46.9039C120.658 46.6092 120.144 46.1991 119.782 45.6736C119.419 45.1486 119.238 44.555 119.238 43.893C119.238 42.8569 119.634 42.0261 120.425 41.4002C121.217 40.7742 122.463 40.4612 124.164 40.4612H127.226V40.2885C127.226 39.4829 126.979 38.864 126.483 38.4324C125.987 38.0008 125.252 37.785 124.275 37.785C123.61 37.785 122.955 37.8857 122.312 38.0871C121.668 38.2889 121.124 38.5693 120.681 38.9289L119.593 36.9647C120.215 36.5044 120.961 36.1521 121.835 35.9071C122.707 35.6627 123.632 35.5403 124.608 35.5403C126.353 35.5403 127.688 35.9469 128.613 36.7597ZM126.084 44.9183C126.623 44.609 127.005 44.1665 127.226 43.5908V42.2526H124.364C122.766 42.2526 121.968 42.7636 121.968 43.7851C121.968 44.2745 122.167 44.663 122.567 44.9506C122.966 45.2386 123.521 45.3823 124.231 45.3823C124.926 45.3823 125.543 45.2279 126.084 44.9183ZM75.2452 32.5097C75.2452 32.5097 75.4071 32 75.7718 32H78.0955C78.4673 32 78.6306 32.5097 78.6306 32.5097L83.8295 47.2525H80.6777C80.6777 47.2525 79.9125 45.1285 79.8479 44.8959C79.7461 44.5286 80.2039 44.0613 80.2039 44.0613L74.1442 45.0715L73.4888 47.2524H70.3065L75.2452 32.5097ZM78.2879 41.4599C78.6263 41.3458 78.4457 40.7747 78.4457 40.7747L76.9995 36.2743L75.1575 41.9791C75.1575 41.9791 78.1176 41.5175 78.2879 41.4599ZM116.058 38.2607C115.887 37.7307 115.635 37.2747 115.304 36.8928C114.972 36.511 114.558 36.2144 114.063 36.0031C113.568 35.7919 113 35.6862 112.36 35.6862C111.62 35.6862 110.976 35.8159 110.427 36.0755C109.937 36.3074 109.485 36.6048 109.068 36.9609V32.0548C108.257 32.0592 107.607 32.2494 107.123 32.6307C106.615 33.0303 106.361 33.5786 106.361 34.2757V47.3058H109.068V38.8864C109.405 38.5811 109.758 38.3313 110.13 38.144C110.557 37.9289 111.014 37.8215 111.502 37.8215C112.173 37.8215 112.672 38.0124 113 38.3942C113.327 38.7761 113.491 39.3155 113.491 40.0122V47.2743H116.315V40.0122C116.315 39.3748 116.23 38.7908 116.058 38.2607Z" fill="#D4B67E"/>
<defs>
<linearGradient id="paint0_linear_1_113984" x1="100.211" y1="0.043457" x2="100.211" y2="76.9564" gradientUnits="userSpaceOnUse">
<stop stop-color="#B58B3E"/>
<stop offset="1" stop-color="#FBEBCC"/>
</linearGradient>
<linearGradient id="paint1_linear_1_113984" x1="36" y1="2" x2="36" y2="75" gradientUnits="userSpaceOnUse">
<stop stop-color="#B58B3E"/>
<stop offset="1" stop-color="#FBEBCC"/>
</linearGradient>
</defs>
</svg>
