<svg width="94" height="94" viewBox="0 0 94 94" fill="none" xmlns="http://www.w3.org/2000/svg">
<path d="M86.9827 0.110561L86.9445 0.809519C79.4679 0.401056 64.8685 0.802958 50.9289 8.01291C43.8378 11.6808 36.3076 17.9191 30.2915 25.1313C30.2483 25.1831 30.2106 25.2292 30.1707 25.278C30.1402 25.3153 30.1084 25.3542 30.072 25.3983L29.8827 25.6275L29.5863 25.6504L15.8205 26.7137C13.7699 26.8722 11.9472 27.9448 10.8131 29.6601C10.8131 29.6601 10.8131 29.6601 10.8131 29.6601L1.42152 43.8651L0.837938 43.4793L1.42151 43.8651C0.602587 45.1037 0.472675 46.6505 1.0733 48.0082C1.67412 49.3661 2.90603 50.3104 4.37317 50.5377C4.37318 50.5377 4.37319 50.5377 4.3732 50.5377L15.971 52.334L16.6809 52.444L16.5526 53.1508L16.5456 53.189C16.5069 53.4025 16.4692 53.61 16.4346 53.8172L16.4345 53.8174C16.0861 55.9019 16.7768 58.0497 18.2863 59.5591L18.2864 59.5591L34.4411 75.7141C35.6923 76.9653 37.3829 77.6545 39.1129 77.6545C39.4688 77.6545 39.8267 77.6252 40.1832 77.5657L40.2961 78.2415L40.1832 77.5657C40.3903 77.5311 40.5977 77.4934 40.811 77.4547L40.8496 77.4477L41.5565 77.3193L41.6664 78.0293L43.4627 89.6273C43.69 91.0945 44.6344 92.3265 45.9919 92.9271C46.5578 93.1776 47.1551 93.3006 47.7486 93.3006L86.9827 0.110561ZM86.9827 0.110561L86.9446 0.809521C90.322 0.993851 93.0068 3.67839 93.1909 7.05565C93.5989 14.5318 93.1977 29.1315 85.9874 43.0716C82.3196 50.1628 76.0812 57.693 68.8688 63.709C68.7766 63.7859 68.7048 63.8433 68.6016 63.9286L68.3724 64.1179M86.9827 0.110561L68.3724 64.1179M68.3724 64.1179L68.3495 64.4143L67.2862 78.18L67.2861 78.1801C67.128 80.2304 66.0556 82.0531 64.3401 83.1874L50.1351 92.5791L50.5212 93.163M68.3724 64.1179L50.5212 93.163M50.5212 93.163L50.1351 92.5791M50.5212 93.163L50.1351 92.5791M21.1908 56.6545L21.1907 56.6544C20.6246 56.0881 20.3539 55.2838 20.4861 54.4945L21.1908 56.6545ZM21.1908 56.6545L37.3458 72.8095C37.9124 73.376 38.7159 73.6455 39.505 73.5143L39.5057 73.5142C41.8563 73.1211 44.6675 72.4502 47.8025 71.3272L48.8427 70.9546L48.0614 70.1732L23.8219 45.9337L23.0409 45.1528M21.1908 56.6545L23.0409 45.1528M23.0409 45.1528L22.668 46.1923M23.0409 45.1528L22.668 46.1923M22.668 46.1923C21.7315 48.8031 20.9739 51.5774 20.4861 54.4944L22.668 46.1923ZM50.1351 92.5791C49.411 93.0579 48.5823 93.3004 47.7487 93.3006L50.1351 92.5791ZM47.4089 88.2676L47.576 89.3465L48.4867 88.7444L62.0747 79.7606C62.7228 79.3322 63.1313 78.6381 63.1911 77.8634L63.8838 68.8957L63.9948 67.4579L62.7965 68.2601C57.4382 71.8469 51.8214 74.5191 46.1525 76.1859L45.5644 76.3589L45.6582 76.9647L47.4089 88.2676ZM25.74 31.204L26.5422 30.0056L25.1044 30.1167L16.137 30.8094C16.1369 30.8094 16.1369 30.8094 16.1369 30.8094C15.3623 30.8691 14.6683 31.2774 14.2397 31.9257L14.8236 32.3118L14.2397 31.9257L5.2557 45.5139L4.65357 46.4246L5.73247 46.5917L17.0352 48.3423L17.641 48.4361L17.814 47.848C19.4807 42.179 22.153 36.5622 25.74 31.204ZM66.238 60.5544L65.7896 60.0168L66.238 60.5544C73.0259 54.8922 78.8961 47.8405 82.3388 41.1843C89.1136 28.0865 89.4728 14.3103 89.0895 7.27963C89.0198 5.99975 88.0008 4.98071 86.721 4.91096L86.6829 5.60993L86.721 4.91096C79.6904 4.52823 65.9139 4.88665 52.8164 11.6614C46.16 15.1043 39.108 20.9746 33.4459 27.7627C30.7308 31.0176 27.5912 35.3915 25.0165 40.6503L24.7966 41.0995L25.1502 41.4531L52.5462 68.8492L52.8993 69.2023L53.3482 68.9833C57.3785 67.0168 61.7448 64.3022 66.238 60.5544Z" fill="url(#paint0_linear_1_113967)" stroke="#131313" stroke-width="1.4"/>
<path d="M4.26072 76.1634L4.26055 76.1636C3.85966 76.5648 3.33533 76.7651 2.8085 76.7651C2.28178 76.7651 1.75737 76.5647 1.35637 76.1635L1.35628 76.1634C0.554156 75.3613 0.554156 74.0609 1.35628 73.2588L0.862069 72.7646L1.35629 73.2588L10.3472 64.2677C11.1494 63.4655 12.4499 63.4656 13.2518 64.2676L13.2519 64.2677C14.054 65.0698 14.054 66.3702 13.2519 67.1723L4.26072 76.1634Z" fill="#E8D1A6" stroke="#131313" stroke-width="1.4"/>
<path d="M21.4923 72.5076L21.4923 72.5076C22.2944 73.3098 22.2944 74.6101 21.4922 75.4122L21.4921 75.4123L4.20603 92.6984L4.20587 92.6985C3.80497 93.0997 3.28064 93.3001 2.75381 93.3001C2.22704 93.3001 1.70278 93.0997 1.30159 92.6986C0.499469 91.8964 0.499469 90.5961 1.30159 89.7939L18.5877 72.5076C19.3898 71.7055 20.6904 71.7056 21.4923 72.5076Z" fill="#E8D1A6" stroke="#131313" stroke-width="1.4"/>
<path d="M26.8279 80.7474L26.8279 80.7474C27.6299 79.9453 28.9303 79.9453 29.7323 80.7474L29.7323 80.7474C30.5344 81.5495 30.5344 82.8499 29.7323 83.652L20.7412 92.6432L20.741 92.6433C20.3401 93.0445 19.8156 93.2449 19.289 93.2449C18.7625 93.2449 18.238 93.0444 17.8368 92.6432C17.0346 91.841 17.0346 90.5407 17.8368 89.7385L26.8279 80.7474Z" fill="#E8D1A6" stroke="#131313" stroke-width="1.4"/>
<path d="M54.5679 34.8462H57.1038C56.9085 36.1731 56.4029 37.2987 55.4256 38.2115C54.1491 39.4038 52.5003 40 50.4793 40C48.3252 40 46.5369 39.3269 45.1141 37.9808C43.7047 36.6218 43 34.9679 43 33.0192C43 31.0577 43.6981 29.3974 45.0942 28.0385C46.5036 26.6795 48.2455 26 50.3197 26C51.6095 26 52.7929 26.2821 53.8699 26.8462C54.9469 27.4103 55.7912 28.1731 56.4029 29.1346L54.0494 30.4423C53.717 29.891 53.2117 29.4423 52.5336 29.0962C51.8555 28.75 51.1109 28.5769 50.2998 28.5769C48.9568 28.5769 47.8599 29 47.0089 29.8462C46.1579 30.6667 45.7324 31.7244 45.7324 33.0192C45.7324 34.2885 46.1646 35.3397 47.0288 36.1731C47.8931 36.9936 49.0499 37.4038 50.4992 37.4038C51.5496 37.4038 52.4272 37.1795 53.1319 36.7308C53.8366 36.2821 54.3153 35.6538 54.5679 34.8462Z" fill="url(#paint1_linear_1_113967)"/>
<path d="M65.9994 32.5H73V33.5385C73 35.4615 72.3618 37.0192 71.0853 38.2115C69.8088 39.4038 68.1601 40 66.139 40C63.985 40 62.1966 39.3269 60.7739 37.9808C59.3644 36.6218 58.6597 34.9679 58.6597 33.0192C58.6597 31.0577 59.3578 29.3974 60.7539 28.0385C62.1634 26.6795 63.9052 26 65.9795 26C67.2692 26 68.4526 26.2821 69.5296 26.8462C70.6066 27.4103 71.451 28.1731 72.0626 29.1346L69.7091 30.4423C69.3767 29.891 68.8714 29.4423 68.1933 29.0962C67.5152 28.75 66.7706 28.5769 65.9595 28.5769C64.6166 28.5769 63.5196 29 62.6686 29.8462C61.8176 30.6667 61.3922 31.7244 61.3922 33.0192C61.3922 34.2885 61.8243 35.3397 62.6886 36.1731C63.5528 36.9936 64.7096 37.4038 66.159 37.4038C67.2094 37.4038 68.0869 37.1795 68.7917 36.7308C69.4964 36.2821 69.975 35.6538 70.2277 34.8462H65.9994V32.5Z" fill="url(#paint2_linear_1_113967)"/>
<defs>
<linearGradient id="paint0_linear_1_113967" x1="47" y1="0.000244141" x2="47" y2="94.0006" gradientUnits="userSpaceOnUse">
<stop stop-color="#B58B3F"/>
<stop offset="1" stop-color="#F8E6C5"/>
</linearGradient>
<linearGradient id="paint1_linear_1_113967" x1="58" y1="26" x2="58" y2="40" gradientUnits="userSpaceOnUse">
<stop stop-color="#B58B3F"/>
<stop offset="1" stop-color="#F9E8C8"/>
</linearGradient>
<linearGradient id="paint2_linear_1_113967" x1="58" y1="26" x2="58" y2="40" gradientUnits="userSpaceOnUse">
<stop stop-color="#B58B3F"/>
<stop offset="1" stop-color="#F9E8C8"/>
</linearGradient>
</defs>
</svg>
