<svg width="104" height="104" viewBox="0 0 104 104" fill="none" xmlns="http://www.w3.org/2000/svg">
<mask id="path-1-inside-1_1_113997" fill="white">
<path d="M94.2409 21.6704C95.2679 20.2617 95.876 18.5291 95.876 16.6562C95.876 11.9521 92.0489 8.125 87.3448 8.125C85.472 8.125 83.7393 8.73316 82.3306 9.76016C73.4604 3.37066 63.0102 0 52 0C41.1992 0 30.8421 3.28088 22.0478 9.48777C21.1313 10.1347 20.9127 11.402 21.5597 12.3187C22.2066 13.2352 23.4741 13.4538 24.3906 12.8068C30.265 8.66064 36.8977 5.93247 43.8943 4.74398C43.08 5.7787 42.2618 7.02406 41.4544 8.52394C38.99 13.1022 36.9564 19.407 35.5387 26.8373C31.8094 27.1054 28.7371 29.7793 27.8706 33.3125H7.84205C9.02261 30.5258 10.4713 27.8432 12.1812 25.2986C12.8068 24.3675 12.559 23.1055 11.6279 22.4798C10.6968 21.854 9.43475 22.1018 8.80912 23.033C3.04606 31.6097 0 41.6264 0 52C0 63.0063 3.37086 73.4591 9.75955 82.3304C8.73295 83.7389 8.125 85.4713 8.125 87.3438C8.125 92.0479 11.9521 95.875 16.6562 95.875C18.5289 95.875 20.2613 95.267 21.6698 94.2402C30.5407 100.629 40.9927 104 52 104C65.8897 104 78.948 98.591 88.7697 88.7695C98.591 78.9482 104 65.8897 104 52C104 40.991 100.63 30.5409 94.2409 21.6704ZM97.6532 66.625H75.9925C75.2968 63.7884 73.1794 61.506 70.4415 60.577C70.6018 57.7551 70.6875 54.8799 70.6875 52C70.6875 46.9775 70.4442 42.0631 69.9751 37.3752H97.6783C99.1707 42.0461 99.9375 46.9595 99.9375 52C99.9375 57.0984 99.1343 62.0122 97.6532 66.625ZM52 99.9375C48.5966 99.9375 44.9142 94.9855 42.1493 86.6909C40.5996 82.0416 39.4008 76.6104 38.5917 70.6877H59.4224C60.0728 73.3393 61.9647 75.5079 64.4455 76.5383C61.3553 92.6837 56.027 99.9375 52 99.9375ZM16.6562 78.8125C15.298 78.8125 14.0136 79.1332 12.8726 79.7004C10.8528 76.8568 9.16784 73.8396 7.83047 70.6875H34.4959C35.3401 77.0792 36.6212 82.9536 38.2952 87.9755C39.9047 92.8046 41.7792 96.5821 43.8671 99.2552C36.831 98.0618 30.1919 95.3132 24.2996 91.1276C24.8668 89.9864 25.1875 88.702 25.1875 87.3438C25.1875 82.6396 21.3604 78.8125 16.6562 78.8125ZM37.375 52C37.375 49.2284 37.4562 46.4628 37.6086 43.7487C40.9551 43.1716 43.6396 40.6402 44.4403 37.375H65.8931C66.3747 42.0452 66.625 46.9623 66.625 52C66.625 54.7625 66.5442 57.5197 66.3926 60.2266C62.9817 60.7565 60.2343 63.3147 59.4224 66.625H38.1067C37.6255 61.955 37.375 57.0379 37.375 52ZM67.7075 73.125C65.2433 73.125 63.2387 71.1204 63.2387 68.6562C63.2387 66.1921 65.2433 64.1875 67.7075 64.1875C70.1716 64.1875 72.1762 66.1921 72.1762 68.6562C72.1762 71.1204 70.1716 73.125 67.7075 73.125ZM65.7048 16.0245C64.0951 11.1952 62.2206 7.41752 60.1325 4.74439C67.1698 5.93775 73.8089 8.68603 79.7014 12.8724C79.1343 14.0136 78.8135 15.298 78.8135 16.6562C78.8135 21.3604 82.6406 25.1875 87.3448 25.1875C88.7031 25.1875 89.9872 24.8668 91.1284 24.2998C93.1485 27.1432 94.8328 30.1608 96.1699 33.3127H69.5041C68.6599 26.9208 67.3786 21.0464 65.7048 16.0245ZM91.8135 16.6562C91.8135 19.1204 89.8089 21.125 87.3448 21.125C84.8807 21.125 82.876 19.1204 82.876 16.6562C82.876 14.1921 84.8807 12.1875 87.3448 12.1875C89.8089 12.1875 91.8135 14.1921 91.8135 16.6562ZM52 4.0625C55.4034 4.0625 59.0858 9.01448 61.8507 17.3091C63.4004 21.9584 64.5992 27.3898 65.4083 33.3125H44.4405C43.8013 30.7062 41.9624 28.5671 39.5442 27.5161C42.6317 11.3336 47.9651 4.0625 52 4.0625ZM36.1554 30.8752C38.6195 30.8752 40.6242 32.8798 40.6242 35.344C40.6242 37.8081 38.6195 39.8127 36.1554 39.8127C33.6913 39.8127 31.6867 37.8081 31.6867 35.344C31.6867 32.8798 33.6913 30.8752 36.1554 30.8752ZM27.8706 37.3752C28.5777 40.2582 30.7527 42.5697 33.5558 43.4688C33.3974 46.2755 33.3125 49.1351 33.3125 52C33.3125 57.0227 33.5558 61.9371 34.0249 66.625H6.32267C4.82991 61.9533 4.0625 57.0397 4.0625 52C4.0625 46.9861 4.83539 42.0635 6.33486 37.3752H27.8706ZM12.1875 87.3438C12.1875 84.8796 14.1921 82.875 16.6562 82.875C19.1204 82.875 21.125 84.8796 21.125 87.3438C21.125 89.8079 19.1204 91.8125 16.6562 91.8125C14.1921 91.8125 12.1875 89.8079 12.1875 87.3438ZM60.1122 99.2477C60.9194 98.2209 61.7305 96.9873 62.531 95.5037C65.0028 90.9218 67.043 84.6024 68.4637 77.1522C72.1303 76.8284 75.137 74.1766 75.9925 70.6875H96.1443C89.8647 85.4652 76.3728 96.4643 60.1122 99.2477Z"/>
</mask>
<path d="M94.2409 21.6704C95.2679 20.2617 95.876 18.5291 95.876 16.6562C95.876 11.9521 92.0489 8.125 87.3448 8.125C85.472 8.125 83.7393 8.73316 82.3306 9.76016C73.4604 3.37066 63.0102 0 52 0C41.1992 0 30.8421 3.28088 22.0478 9.48777C21.1313 10.1347 20.9127 11.402 21.5597 12.3187C22.2066 13.2352 23.4741 13.4538 24.3906 12.8068C30.265 8.66064 36.8977 5.93247 43.8943 4.74398C43.08 5.7787 42.2618 7.02406 41.4544 8.52394C38.99 13.1022 36.9564 19.407 35.5387 26.8373C31.8094 27.1054 28.7371 29.7793 27.8706 33.3125H7.84205C9.02261 30.5258 10.4713 27.8432 12.1812 25.2986C12.8068 24.3675 12.559 23.1055 11.6279 22.4798C10.6968 21.854 9.43475 22.1018 8.80912 23.033C3.04606 31.6097 0 41.6264 0 52C0 63.0063 3.37086 73.4591 9.75955 82.3304C8.73295 83.7389 8.125 85.4713 8.125 87.3438C8.125 92.0479 11.9521 95.875 16.6562 95.875C18.5289 95.875 20.2613 95.267 21.6698 94.2402C30.5407 100.629 40.9927 104 52 104C65.8897 104 78.948 98.591 88.7697 88.7695C98.591 78.9482 104 65.8897 104 52C104 40.991 100.63 30.5409 94.2409 21.6704ZM97.6532 66.625H75.9925C75.2968 63.7884 73.1794 61.506 70.4415 60.577C70.6018 57.7551 70.6875 54.8799 70.6875 52C70.6875 46.9775 70.4442 42.0631 69.9751 37.3752H97.6783C99.1707 42.0461 99.9375 46.9595 99.9375 52C99.9375 57.0984 99.1343 62.0122 97.6532 66.625ZM52 99.9375C48.5966 99.9375 44.9142 94.9855 42.1493 86.6909C40.5996 82.0416 39.4008 76.6104 38.5917 70.6877H59.4224C60.0728 73.3393 61.9647 75.5079 64.4455 76.5383C61.3553 92.6837 56.027 99.9375 52 99.9375ZM16.6562 78.8125C15.298 78.8125 14.0136 79.1332 12.8726 79.7004C10.8528 76.8568 9.16784 73.8396 7.83047 70.6875H34.4959C35.3401 77.0792 36.6212 82.9536 38.2952 87.9755C39.9047 92.8046 41.7792 96.5821 43.8671 99.2552C36.831 98.0618 30.1919 95.3132 24.2996 91.1276C24.8668 89.9864 25.1875 88.702 25.1875 87.3438C25.1875 82.6396 21.3604 78.8125 16.6562 78.8125ZM37.375 52C37.375 49.2284 37.4562 46.4628 37.6086 43.7487C40.9551 43.1716 43.6396 40.6402 44.4403 37.375H65.8931C66.3747 42.0452 66.625 46.9623 66.625 52C66.625 54.7625 66.5442 57.5197 66.3926 60.2266C62.9817 60.7565 60.2343 63.3147 59.4224 66.625H38.1067C37.6255 61.955 37.375 57.0379 37.375 52ZM67.7075 73.125C65.2433 73.125 63.2387 71.1204 63.2387 68.6562C63.2387 66.1921 65.2433 64.1875 67.7075 64.1875C70.1716 64.1875 72.1762 66.1921 72.1762 68.6562C72.1762 71.1204 70.1716 73.125 67.7075 73.125ZM65.7048 16.0245C64.0951 11.1952 62.2206 7.41752 60.1325 4.74439C67.1698 5.93775 73.8089 8.68603 79.7014 12.8724C79.1343 14.0136 78.8135 15.298 78.8135 16.6562C78.8135 21.3604 82.6406 25.1875 87.3448 25.1875C88.7031 25.1875 89.9872 24.8668 91.1284 24.2998C93.1485 27.1432 94.8328 30.1608 96.1699 33.3127H69.5041C68.6599 26.9208 67.3786 21.0464 65.7048 16.0245ZM91.8135 16.6562C91.8135 19.1204 89.8089 21.125 87.3448 21.125C84.8807 21.125 82.876 19.1204 82.876 16.6562C82.876 14.1921 84.8807 12.1875 87.3448 12.1875C89.8089 12.1875 91.8135 14.1921 91.8135 16.6562ZM52 4.0625C55.4034 4.0625 59.0858 9.01448 61.8507 17.3091C63.4004 21.9584 64.5992 27.3898 65.4083 33.3125H44.4405C43.8013 30.7062 41.9624 28.5671 39.5442 27.5161C42.6317 11.3336 47.9651 4.0625 52 4.0625ZM36.1554 30.8752C38.6195 30.8752 40.6242 32.8798 40.6242 35.344C40.6242 37.8081 38.6195 39.8127 36.1554 39.8127C33.6913 39.8127 31.6867 37.8081 31.6867 35.344C31.6867 32.8798 33.6913 30.8752 36.1554 30.8752ZM27.8706 37.3752C28.5777 40.2582 30.7527 42.5697 33.5558 43.4688C33.3974 46.2755 33.3125 49.1351 33.3125 52C33.3125 57.0227 33.5558 61.9371 34.0249 66.625H6.32267C4.82991 61.9533 4.0625 57.0397 4.0625 52C4.0625 46.9861 4.83539 42.0635 6.33486 37.3752H27.8706ZM12.1875 87.3438C12.1875 84.8796 14.1921 82.875 16.6562 82.875C19.1204 82.875 21.125 84.8796 21.125 87.3438C21.125 89.8079 19.1204 91.8125 16.6562 91.8125C14.1921 91.8125 12.1875 89.8079 12.1875 87.3438ZM60.1122 99.2477C60.9194 98.2209 61.7305 96.9873 62.531 95.5037C65.0028 90.9218 67.043 84.6024 68.4637 77.1522C72.1303 76.8284 75.137 74.1766 75.9925 70.6875H96.1443C89.8647 85.4652 76.3728 96.4643 60.1122 99.2477Z" fill="url(#paint0_linear_1_113997)" stroke="#131313" mask="url(#path-1-inside-1_1_113997)"/>
<path d="M16.2622 19.1059C16.7987 19.1059 17.3205 18.8906 17.7003 18.5107C18.0781 18.1329 18.2935 17.6088 18.2935 17.0746C18.2935 16.5404 18.0781 16.0184 17.7003 15.6385C17.3205 15.2607 16.7987 15.0434 16.2622 15.0434C15.728 15.0434 15.2039 15.2607 14.8263 15.6385C14.4485 16.0184 14.231 16.5404 14.231 17.0746C14.231 17.6088 14.4483 18.1329 14.8263 18.5107C15.2039 18.8906 15.728 19.1059 16.2622 19.1059Z" fill="#BC944C"/>
<defs>
<linearGradient id="paint0_linear_1_113997" x1="52" y1="0" x2="52" y2="104" gradientUnits="userSpaceOnUse">
<stop stop-color="#B58B3E"/>
<stop offset="1" stop-color="#FBEBCC"/>
</linearGradient>
</defs>
</svg>
