<svg width="102" height="62" viewBox="0 0 102 62" fill="none" xmlns="http://www.w3.org/2000/svg">
<mask id="mask0_1_113990" style="mask-type:alpha" maskUnits="userSpaceOnUse" x="0" y="0" width="102" height="62">
<path d="M78.294 34.8777C77.9779 34.8435 77.6571 34.826 77.3408 34.826C72.849 34.826 69.0976 38.1978 68.6148 42.6683C68.0944 47.4846 71.5898 51.827 76.4069 52.3477C76.7233 52.382 77.0442 52.3994 77.3607 52.3994C77.361 52.3994 77.3607 52.3994 77.361 52.3994C81.8521 52.3994 85.6035 49.0281 86.0863 44.5575C86.6067 39.7414 83.1111 35.3991 78.294 34.8777ZM83.1649 44.242C82.8435 47.2174 80.3483 49.4609 77.361 49.4609C77.1496 49.4609 76.9348 49.4491 76.7233 49.4265C73.5169 49.0797 71.1903 46.1897 71.5369 42.9843C71.8583 40.0086 74.3536 37.7649 77.3412 37.7649C77.5524 37.7649 77.7669 37.7767 77.9783 37.7994C81.1844 38.1466 83.511 41.0365 83.1649 44.242Z" fill="black"/>
<path d="M27.6766 34.8253C26.6959 34.8253 25.7251 34.9897 24.7915 35.3142C22.5744 36.0848 20.7902 37.6721 19.7676 39.7842C18.7447 41.8964 18.6058 44.2806 19.3765 46.4974C20.6041 50.0282 23.9395 52.4006 27.6762 52.4008C27.6764 52.4008 27.6764 52.4008 27.6764 52.4008C28.6569 52.4008 29.6273 52.2364 30.5609 51.9121C32.778 51.1413 34.5622 49.5538 35.5848 47.4418C36.6077 45.3295 36.7465 42.9454 35.9759 40.729C34.749 37.1977 31.4138 34.8253 27.6766 34.8253ZM32.9402 46.1609C32.2595 47.5664 31.0721 48.6231 29.5966 49.1361C28.9741 49.3523 28.3282 49.4621 27.6768 49.4621H27.6766C25.1895 49.4621 22.9695 47.8828 22.1523 45.5322C21.6395 44.0572 21.7319 42.4705 22.4126 41.0652C23.0933 39.6597 24.2808 38.603 25.7564 38.0902C26.379 37.8738 27.0253 37.764 27.6768 37.764C30.164 37.764 32.3838 39.3429 33.2005 41.6937C33.7131 43.1689 33.6207 44.7554 32.9402 46.1609Z" fill="black"/>
<path d="M101.686 1.11671C101.407 0.762386 100.981 0.55542 100.531 0.55542H60.8803C60.0688 0.55542 59.4109 1.21327 59.4109 2.02476L59.4063 5.91096H1.46934C0.657845 5.91096 0 6.5688 0 7.3803V12.3011C0 12.8307 0.285052 13.3196 0.746216 13.5803L23.2981 26.3289C19.7908 27.217 16.6027 29.1591 14.1894 31.9492C11.0734 35.5518 9.54694 40.1519 9.89098 44.902C10.2352 49.6524 12.4088 53.9845 16.0114 57.0999C19.2505 59.9013 23.3902 61.4439 27.6681 61.4443H27.6692C32.8543 61.4443 37.773 59.196 41.1625 55.2768C42.6352 53.5743 43.7478 51.6472 44.4807 49.5882H60.5476C61.5696 52.4767 63.3257 55.065 65.7094 57.1192C68.9449 59.908 73.0764 61.4441 77.3432 61.4443C82.5405 61.4443 87.4667 59.188 90.8574 55.2542C92.3844 53.4824 93.5255 51.4696 94.2522 49.3182H98.8256C99.6371 49.3182 100.295 48.6604 100.295 47.8489V25.1709C100.295 24.3594 99.6371 23.7015 98.8256 23.7015H93.2058V9.97516H98.9553C99.6331 9.97516 100.223 9.51147 100.383 8.85279L101.958 2.37153C102.065 1.93366 101.964 1.47103 101.686 1.11671ZM38.9399 53.3547C36.1084 56.6286 31.9999 58.506 27.6683 58.5058C24.0961 58.5056 20.639 57.2168 17.9337 54.8772C14.9247 52.275 13.1095 48.6572 12.8221 44.69C12.5345 40.7226 13.8095 36.8807 16.4121 33.8717C19.2435 30.598 23.3522 28.7204 27.6845 28.7204C31.2562 28.7204 34.7132 30.009 37.4187 32.3488C40.4275 34.9508 42.2427 38.569 42.5299 42.5364C42.8172 46.5038 41.5423 50.3459 38.9399 53.3547ZM88.6317 53.3356C85.7995 56.6215 81.6851 58.506 77.3436 58.5058C73.7807 58.5056 70.3302 57.2229 67.6281 54.8936C64.6149 52.2968 62.7934 48.6818 62.4991 44.715C62.205 40.7482 63.4732 36.9042 66.0704 33.8912C68.9029 30.6051 73.0177 28.7206 77.3596 28.7206C80.9221 28.7206 84.3721 30.0031 87.0744 32.3324C90.0876 34.9292 91.909 38.5442 92.2033 42.5112C92.4971 46.4782 91.2289 50.3224 88.6317 53.3356ZM97.3565 26.6402V46.3796H94.9684C95.1755 45.0437 95.2362 43.6753 95.1338 42.2937C94.7818 37.5436 92.6008 33.2153 88.993 30.106C87.1733 28.5376 85.0698 27.3654 82.8188 26.64L97.3565 26.6402ZM75.5 23.7015V13.9436L90.2673 9.97516V23.7017L75.5 23.7015ZM97.8004 7.03668H75.0145C74.203 7.03668 73.5452 7.69453 73.5452 8.50603V26.6402C69.0504 27.4947 66.0704 29.7584 65 31C63.5021 32.7374 60.5476 36 60 43.5V46.3796C56.5 46.3796 45.8288 46.3796 45.8288 46.3796C45.8288 35 40.3223 30.9746 39.341 30.1261C36.2644 27.4654 32.375 25.9427 28.327 25.7964L2.93868 11.4439V8.84943H14.2665V14.4151C14.2665 15.2266 14.9243 15.8844 15.7358 15.8844C16.5473 15.8844 17.2051 15.2266 17.2051 14.4151V8.84943H21.7897V18.1957C21.7897 19.0072 22.4475 19.665 23.259 19.665C24.0705 19.665 24.7284 19.0072 24.7284 18.1957V8.84943H29.3129V21.6283C29.3129 22.4398 29.9708 23.0976 30.7823 23.0976C31.5938 23.0976 32.2516 22.4398 32.2516 21.6283V8.84943H36.8362V23.9834C36.8362 24.7949 37.494 25.4528 38.3055 25.4528C39.117 25.4528 39.7749 24.7949 39.7749 23.9834V8.84943H44.3594V27.4878C44.3594 28.2993 45.0173 28.9572 45.8288 28.9572C46.6403 28.9572 47.2981 28.2993 47.2981 27.4878V8.84943H51.8827V27.4878C51.8827 28.2993 52.5405 28.9572 53.352 28.9572C54.1635 28.9572 54.8213 28.2993 54.8213 27.4878V8.84943H59.4059V24.6132C59.4059 25.4247 60.0637 26.0825 60.8752 26.0825C61.6867 26.0825 62.3446 25.4247 62.3446 24.6132L62.3492 3.4941H98.661L97.8004 7.03668Z" fill="black"/>
</mask>
<g mask="url(#mask0_1_113990)">
<rect x="-6" y="-19" width="116" height="105" fill="url(#paint0_linear_1_113990)"/>
</g>
<defs>
<linearGradient id="paint0_linear_1_113990" x1="52" y1="-19" x2="52" y2="86" gradientUnits="userSpaceOnUse">
<stop stop-color="#B48A3D"/>
<stop offset="1" stop-color="#FCECCE"/>
</linearGradient>
</defs>
</svg>
